<svg width="414" height="34" viewBox="0 0 414 34" fill="none" xmlns="http://www.w3.org/2000/svg">
<path d="M29 30H3C2.73478 30 2.48043 29.9087 2.29289 29.7462C2.10536 29.5836 2 29.3632 2 29.1333V4.86667C2 4.63681 2.10536 4.41637 2.29289 4.25384C2.48043 4.09131 2.73478 4 3 4H29C29.2652 4 29.5196 4.09131 29.7071 4.25384C29.8946 4.41637 30 4.63681 30 4.86667V29.1333C30 29.3632 29.8946 29.5836 29.7071 29.7462C29.5196 29.9087 29.2652 30 29 30ZM4 28.2667H28V5.73333H4V28.2667Z" fill="#D9C2AB"/>
<path d="M3 25C2.86839 25.0007 2.73793 24.9755 2.61609 24.9257C2.49426 24.876 2.38344 24.8027 2.29 24.71C2.19627 24.617 2.12188 24.5064 2.07111 24.3845C2.02034 24.2627 1.9942 24.132 1.9942 24C1.9942 23.868 2.02034 23.7373 2.07111 23.6154C2.12188 23.4935 2.19627 23.3829 2.29 23.29L7.09 18.49C7.59476 17.9761 8.26755 17.661 8.98545 17.6023C9.70334 17.5435 10.4184 17.745 11 18.17L15.24 21.17C15.4331 21.3076 15.6689 21.3721 15.9052 21.3519C16.1415 21.3318 16.3629 21.2283 16.53 21.06L20.92 16.68C21.4825 16.1182 22.245 15.8026 23.04 15.8026C23.835 15.8026 24.5975 16.1182 25.16 16.68L29.75 21.26C29.8432 21.3532 29.9172 21.4639 29.9677 21.5857C30.0181 21.7075 30.0441 21.8381 30.0441 21.97C30.0441 22.1018 30.0181 22.2324 29.9677 22.3542C29.9172 22.476 29.8432 22.5867 29.75 22.68C29.6568 22.7732 29.5461 22.8472 29.4242 22.8976C29.3024 22.9481 29.1719 22.9741 29.04 22.9741C28.9081 22.9741 28.7776 22.9481 28.6558 22.8976C28.5339 22.8472 28.4232 22.7732 28.33 22.68L23.75 18.09C23.657 17.9962 23.5464 17.9218 23.4246 17.8711C23.3027 17.8203 23.172 17.7942 23.04 17.7942C22.908 17.7942 22.7773 17.8203 22.6554 17.8711C22.5336 17.9218 22.423 17.9962 22.33 18.09L17.95 22.48C17.4476 22.9834 16.7826 23.292 16.0738 23.3506C15.3649 23.4092 14.6583 23.2141 14.08 22.8L9.84 19.8C9.64685 19.6624 9.41109 19.5979 9.1748 19.618C8.9385 19.6382 8.71706 19.7417 8.55 19.91L3.75 24.71C3.65186 24.8076 3.53453 24.8838 3.40543 24.9337C3.27633 24.9836 3.13828 25.0062 3 25Z" fill="#D9C2AB"/>
<path d="M17 16C16.2089 16 15.4355 15.7654 14.7777 15.3259C14.1199 14.8864 13.6072 14.2616 13.3045 13.5307C13.0017 12.7998 12.9225 11.9956 13.0769 11.2196C13.2312 10.4437 13.6122 9.73098 14.1716 9.17157C14.731 8.61216 15.4437 8.2312 16.2196 8.07686C16.9956 7.92252 17.7998 8.00173 18.5307 8.30448C19.2616 8.60723 19.8864 9.11992 20.3259 9.77772C20.7654 10.4355 21 11.2089 21 12C21 13.0609 20.5786 14.0783 19.8284 14.8284C19.0783 15.5786 18.0609 16 17 16ZM17 10C16.6044 10 16.2178 10.1173 15.8889 10.3371C15.56 10.5568 15.3036 10.8692 15.1522 11.2346C15.0009 11.6001 14.9613 12.0022 15.0384 12.3902C15.1156 12.7781 15.3061 13.1345 15.5858 13.4142C15.8655 13.6939 16.2219 13.8844 16.6098 13.9616C16.9978 14.0387 17.3999 13.9991 17.7654 13.8478C18.1308 13.6964 18.4432 13.44 18.6629 13.1111C18.8827 12.7822 19 12.3956 19 12C19 11.4696 18.7893 10.9609 18.4142 10.5858C18.0391 10.2107 17.5304 10 17 10Z" fill="#D9C2AB"/>
<g clip-path="url(#clip0_27_81)">
<path d="M48 23C51.3137 23 54 20.3137 54 17C54 13.6863 51.3137 11 48 11C44.6863 11 42 13.6863 42 17C42 20.3137 44.6863 23 48 23Z" stroke="#D9C2AB" stroke-width="2" stroke-linecap="round" stroke-linejoin="round"/>
<path d="M54.9625 9.13745C55.2792 9.42912 55.5792 9.72912 55.8625 10.0375L59.275 10.525C59.831 11.4906 60.2596 12.5242 60.55 13.6L58.475 16.3625C58.475 16.3625 58.5125 17.2125 58.475 17.6375L60.55 20.4C60.2609 21.4762 59.8323 22.5099 59.275 23.475L55.8625 23.9625C55.8625 23.9625 55.275 24.5749 54.9625 24.8624L54.475 28.275C53.5094 28.831 52.4758 29.2595 51.4 29.5499L48.6375 27.475C48.2133 27.5125 47.7867 27.5125 47.3625 27.475L44.6 29.5499C43.5238 29.2609 42.49 28.8322 41.525 28.275L41.0375 24.8624C40.7292 24.5708 40.4292 24.2708 40.1375 23.9625L36.725 23.475C36.169 22.5093 35.7404 21.4757 35.45 20.4L37.525 17.6375C37.525 17.6375 37.4875 16.7875 37.525 16.3625L35.45 13.6C35.7391 12.5237 36.1677 11.49 36.725 10.525L40.1375 10.0375C40.4292 9.72912 40.7292 9.42912 41.0375 9.13745L41.525 5.72495C42.4906 5.16893 43.5242 4.74036 44.6 4.44995L47.3625 6.52495C47.7867 6.48744 48.2133 6.48744 48.6375 6.52495L51.4 4.44995C52.4762 4.73902 53.51 5.16765 54.475 5.72495L54.9625 9.13745Z" stroke="#D9C2AB" stroke-width="2" stroke-linecap="round" stroke-linejoin="round"/>
</g>
<path d="M80 29.72C79.6045 29.7209 79.2127 29.6437 78.8471 29.4927C78.4816 29.3416 78.1495 29.1198 77.87 28.84L67.57 18.54C66.7563 17.7175 66.1145 16.7413 65.6818 15.6682C65.2492 14.5952 65.0344 13.4468 65.05 12.29C65.0578 11.2298 65.2748 10.1816 65.6883 9.20541C66.1019 8.22921 66.704 7.3442 67.4601 6.60106C68.2163 5.85792 69.1116 5.27127 70.0948 4.87469C71.0781 4.47811 72.1299 4.27941 73.19 4.28996C74.2691 4.27909 75.3394 4.48504 76.3374 4.89558C77.3355 5.30613 78.2409 5.91292 79 6.67996L80 7.67996L80.82 6.85996C82.2359 5.40653 84.1306 4.51547 86.1531 4.35183C88.1756 4.1882 90.1888 4.76306 91.82 5.96996C92.7485 6.68501 93.514 7.58968 94.0656 8.62372C94.6171 9.65776 94.942 10.7974 95.0187 11.9669C95.0953 13.1363 94.9219 14.3087 94.51 15.4058C94.0982 16.503 93.4573 17.4998 92.63 18.33L82.13 28.84C81.8505 29.1198 81.5184 29.3416 81.1529 29.4927C80.7873 29.6437 80.3955 29.7209 80 29.72ZM73.15 6.27996C71.5605 6.27834 70.0328 6.89518 68.89 7.99996C68.3074 8.5605 67.8441 9.23301 67.5279 9.97709C67.2117 10.7212 67.0492 11.5215 67.05 12.33C67.0412 13.2193 67.2091 14.1015 67.5438 14.9254C67.8786 15.7494 68.3735 16.4987 69 17.13L79.3 27.43C79.393 27.5237 79.5036 27.5981 79.6254 27.6489C79.7473 27.6996 79.878 27.7258 80.01 27.7258C80.142 27.7258 80.2727 27.6996 80.3946 27.6489C80.5164 27.5981 80.627 27.5237 80.72 27.43L91.23 16.91C91.8469 16.28 92.3236 15.5266 92.6286 14.6994C92.9337 13.8721 93.0602 12.9896 93 12.11C92.9466 11.2213 92.7018 10.3546 92.2824 9.56931C91.863 8.784 91.2789 8.09858 90.57 7.55996C89.3261 6.64285 87.7913 6.20922 86.2514 6.33984C84.7115 6.47046 83.2716 7.15644 82.2 8.26996L80.71 9.79996C80.617 9.89369 80.5064 9.96808 80.3846 10.0189C80.2627 10.0696 80.132 10.0958 80 10.0958C79.868 10.0958 79.7373 10.0696 79.6154 10.0189C79.4936 9.96808 79.383 9.89369 79.29 9.79996L77.59 8.09996C76.4191 6.93924 74.8387 6.28553 73.19 6.27996H73.15Z" fill="#D9C2AB"/>
<g clip-path="url(#clip1_27_81)">
<path d="M112 30C119.18 30 125 24.1797 125 17C125 9.8203 119.18 4 112 4C104.82 4 99 9.8203 99 17C99 24.1797 104.82 30 112 30Z" stroke="#D9C2AB" stroke-width="2" stroke-linecap="round" stroke-linejoin="round"/>
<path d="M112 21C114.761 21 117 18.7614 117 16C117 13.2386 114.761 11 112 11C109.239 11 107 13.2386 107 16C107 18.7614 109.239 21 112 21Z" stroke="#D9C2AB" stroke-width="2" stroke-linecap="round" stroke-linejoin="round"/>
<path d="M103 26C103.844 24.4957 105.131 23.2322 106.72 22.3497C108.308 21.4672 110.136 21 112 21C113.864 21 115.692 21.4672 117.28 22.3497C118.869 23.2322 120.156 24.4957 121 26" stroke="#D9C2AB" stroke-width="2" stroke-linecap="round" stroke-linejoin="round"/>
</g>
<g clip-path="url(#clip2_27_81)">
<path d="M134.812 26.1875C133.663 25.0375 134.425 22.625 133.838 21.2125C133.25 19.8 131 18.5625 131 17C131 15.4375 133.225 14.25 133.838 12.7875C134.45 11.325 133.663 8.9625 134.812 7.8125C135.962 6.6625 138.375 7.425 139.788 6.8375C141.2 6.25 142.438 4 144 4C145.562 4 146.75 6.225 148.212 6.8375C149.675 7.45 152.038 6.6625 153.188 7.8125C154.337 8.9625 153.575 11.375 154.163 12.7875C154.75 14.2 157 15.4375 157 17C157 18.5625 154.775 19.75 154.163 21.2125C153.55 22.675 154.337 25.0375 153.188 26.1875C152.038 27.3375 149.625 26.575 148.212 27.1625C146.8 27.75 145.562 30 144 30C142.438 30 141.25 27.775 139.788 27.1625C138.325 26.55 135.962 27.3375 134.812 26.1875Z" stroke="#D9C2AB" stroke-width="2" stroke-linecap="round" stroke-linejoin="round"/>
<path d="M149.5 14L142.163 21L138.5 17.5" stroke="#D9C2AB" stroke-width="2" stroke-linecap="round" stroke-linejoin="round"/>
</g>
<g clip-path="url(#clip3_27_81)">
<path d="M173.325 20.0125L172.237 21.2375C171.4 22.0738 170.333 22.643 169.172 22.8732C168.01 23.1034 166.807 22.9842 165.714 22.5307C164.62 22.0772 163.686 21.3098 163.028 20.3253C162.371 19.3409 162.02 18.1837 162.02 17C162.02 15.8162 162.371 14.659 163.028 13.6746C163.686 12.6902 164.62 11.9227 165.714 11.4692C166.807 11.0157 168.01 10.8966 169.172 11.1267C170.333 11.3569 171.4 11.9261 172.237 12.7625L179.762 21.2375C180.6 22.0738 181.667 22.643 182.828 22.8732C183.99 23.1034 185.193 22.9842 186.286 22.5307C187.38 22.0772 188.314 21.3098 188.972 20.3253C189.629 19.3409 189.98 18.1837 189.98 17C189.98 15.8162 189.629 14.659 188.972 13.6746C188.314 12.6902 187.38 11.9227 186.286 11.4692C185.193 11.0157 183.99 10.8966 182.828 11.1267C181.667 11.3569 180.6 11.9261 179.762 12.7625L178.675 13.9875" stroke="#D9C2AB" stroke-width="2" stroke-linecap="round" stroke-linejoin="round"/>
</g>
<g clip-path="url(#clip4_27_81)">
<path d="M208 21C209.381 21 210.5 19.8807 210.5 18.5C210.5 17.1193 209.381 16 208 16C206.619 16 205.5 17.1193 205.5 18.5C205.5 19.8807 206.619 21 208 21Z" stroke="#D9C2AB" stroke-width="2" stroke-linecap="round" stroke-linejoin="round"/>
<path d="M208 21V24" stroke="#D9C2AB" stroke-width="2" stroke-linecap="round" stroke-linejoin="round"/>
<path d="M218 12H198C197.448 12 197 12.4477 197 13V27C197 27.5523 197.448 28 198 28H218C218.552 28 219 27.5523 219 27V13C219 12.4477 218.552 12 218 12Z" stroke="#D9C2AB" stroke-width="2" stroke-linecap="round" stroke-linejoin="round"/>
<path d="M203.5 12V7.5C203.5 6.30653 203.974 5.16193 204.818 4.31802C205.662 3.47411 206.807 3 208 3C209.193 3 210.338 3.47411 211.182 4.31802C212.026 5.16193 212.5 6.30653 212.5 7.5V12" stroke="#D9C2AB" stroke-width="2" stroke-linecap="round" stroke-linejoin="round"/>
</g>
<g clip-path="url(#clip5_27_81)">
<path d="M240.55 24.8375L246.85 28.8375C247.662 29.35 248.662 28.5875 248.425 27.65L246.6 20.475C246.551 20.2762 246.558 20.0674 246.623 19.8728C246.687 19.6781 246.805 19.5056 246.962 19.375L252.612 14.6625C253.35 14.05 252.975 12.8125 252.012 12.75L244.637 12.275C244.436 12.2633 244.243 12.1933 244.081 12.0734C243.919 11.9535 243.795 11.789 243.725 11.6L240.975 4.67503C240.902 4.47491 240.77 4.30204 240.595 4.17988C240.421 4.05772 240.213 3.99219 240 3.99219C239.787 3.99219 239.579 4.05772 239.405 4.17988C239.23 4.30204 239.098 4.47491 239.025 4.67503L236.275 11.6C236.205 11.789 236.081 11.9535 235.919 12.0734C235.757 12.1933 235.564 12.2633 235.362 12.275L227.987 12.75C227.025 12.8125 226.65 14.05 227.387 14.6625L233.037 19.375C233.195 19.5056 233.313 19.6781 233.377 19.8728C233.441 20.0674 233.449 20.2762 233.4 20.475L231.712 27.125C231.425 28.25 232.625 29.1625 233.587 28.55L239.45 24.8375C239.614 24.733 239.805 24.6775 240 24.6775C240.195 24.6775 240.386 24.733 240.55 24.8375Z" stroke="#D9C2AB" stroke-width="2" stroke-linecap="round" stroke-linejoin="round"/>
</g>
<g clip-path="url(#clip6_27_81)">
<path d="M272 29C278.627 29 284 23.6274 284 17C284 10.3726 278.627 5 272 5C265.373 5 260 10.3726 260 17C260 23.6274 265.373 29 272 29Z" stroke="#D9C2AB" stroke-width="2" stroke-linecap="round" stroke-linejoin="round"/>
<path d="M272 25C276.418 25 280 21.4183 280 17C280 12.5817 276.418 9 272 9C267.582 9 264 12.5817 264 17C264 21.4183 267.582 25 272 25Z" stroke="#D9C2AB" stroke-width="2" stroke-linecap="round" stroke-linejoin="round"/>
</g>
<g clip-path="url(#clip7_27_81)">
<path d="M315 10L301 24L294 17" stroke="#7E828A" stroke-width="2" stroke-linecap="round" stroke-linejoin="round"/>
</g>
<path d="M321 17L380 17" stroke="#7E828A" stroke-width="2" stroke-linecap="round" stroke-linejoin="round"/>
<path d="M364 1L380.171 17L364 33" stroke="#7E828A" stroke-width="2" stroke-linecap="round" stroke-linejoin="round"/>
<g opacity="0.8">
<path d="M397 9L397 22" stroke="white" stroke-width="3" stroke-linecap="square"/>
<path d="M391 17L397 23L403 17" stroke="white" stroke-width="3" stroke-linecap="square"/>
</g>
<defs>
<clipPath id="clip0_27_81">
<rect width="32" height="32" fill="white" transform="translate(32 1)"/>
</clipPath>
<clipPath id="clip1_27_81">
<rect width="32" height="32" fill="white" transform="translate(96 1)"/>
</clipPath>
<clipPath id="clip2_27_81">
<rect width="32" height="32" fill="white" transform="translate(128 1)"/>
</clipPath>
<clipPath id="clip3_27_81">
<rect width="32" height="32" fill="white" transform="translate(160 1)"/>
</clipPath>
<clipPath id="clip4_27_81">
<rect width="32" height="32" fill="white" transform="translate(192 1)"/>
</clipPath>
<clipPath id="clip5_27_81">
<rect width="32" height="32" fill="white" transform="translate(224 1)"/>
</clipPath>
<clipPath id="clip6_27_81">
<rect width="32" height="32" fill="white" transform="translate(256 1)"/>
</clipPath>
<clipPath id="clip7_27_81">
<rect width="32" height="32" fill="white" transform="translate(288 1)"/>
</clipPath>
</defs>
</svg>
