<svg width="1080" height="60" viewBox="0 0 1080 60" fill="none" xmlns="http://www.w3.org/2000/svg">
<g clip-path="url(#clip0_1409_2)">
<mask id="mask0_1409_2" style="mask-type:alpha" maskUnits="userSpaceOnUse" x="2" y="2" width="55" height="56">
<path d="M29.5 57.5C14.3105 57.5 2 45.1895 2 30C2 14.8105 14.3105 2.5 29.5 2.5C44.6895 2.5 57 14.8105 57 30C57 45.1895 44.6895 57.5 29.5 57.5Z" fill="#99BA69"/>
</mask>
<g mask="url(#mask0_1409_2)">
<path d="M29.5 57.5C14.3105 57.5 2 45.1895 2 30C2 14.8105 14.3105 2.5 29.5 2.5C44.6895 2.5 57 14.8105 57 30C57 45.1895 44.6895 57.5 29.5 57.5Z" fill="#60B5DE"/>
<path d="M63.875 44.5976V60.137H11.625V50.8134L21.4219 41.4897L27.9532 47.7055L47.5469 29.0582L63.875 44.5976Z" fill="#A2DCF8"/>
<path d="M16.7049 27.2118C17.9526 28.4595 19.4676 29.0833 21.25 29.0833C23.0324 29.0833 24.5475 28.4595 25.7951 27.2118C27.0428 25.9641 27.6667 24.4491 27.6667 22.6667C27.6667 20.8843 27.0428 19.3692 25.7951 18.1215C24.5475 16.8738 23.0324 16.25 21.25 16.25C19.4676 16.25 17.9526 16.8738 16.7049 18.1215C15.4572 19.3692 14.8333 20.8843 14.8333 22.6667C14.8333 24.4491 15.4572 25.9641 16.7049 27.2118Z" fill="#A2DCF8"/>
</g>
<path d="M29.5 56C15.139 56 3.5 44.361 3.5 30C3.5 15.639 15.139 4 29.5 4C43.861 4 55.5 15.639 55.5 30C55.5 44.361 43.861 56 29.5 56Z" stroke="#60B5DE" stroke-width="3"/>
<mask id="mask1_1409_2" style="mask-type:luminance" maskUnits="userSpaceOnUse" x="60" y="0" width="60" height="60">
<path d="M120 0H60V60H120V0Z" fill="white"/>
</mask>
<g mask="url(#mask1_1409_2)">
<path d="M60.0234 24.025C60.0234 23.4736 60.0234 22.9223 60.0234 22.3748C60.0391 22.3005 60.0586 22.2302 60.0703 22.1559C60.1564 21.3543 60.1994 20.5448 60.3284 19.751C60.8913 16.2278 62.4589 13.256 65.1837 10.9293C67.6739 8.7982 70.6177 7.82062 73.8506 7.63684C76.5754 7.48042 79.2338 7.88319 81.8139 8.75128C84.6951 9.71322 87.2791 11.2265 89.6833 13.0605C90.0234 13.3185 90.0234 13.3185 90.3635 13.0605C91.6771 12.0516 93.0688 11.1444 94.527 10.3545C97.1696 8.91942 99.9687 7.98877 102.963 7.6603C103.382 7.61337 103.804 7.57036 104.222 7.52344C104.887 7.52344 105.559 7.52344 106.224 7.52344C106.314 7.53908 106.4 7.56645 106.489 7.57036C108.339 7.6994 110.133 8.09434 111.802 8.91942C116.658 11.3165 119.234 15.3011 119.871 20.6152C119.934 21.1353 119.973 21.6553 120.023 22.1754C120.023 22.7385 120.023 23.3094 120.023 23.8725C120.008 23.9429 119.988 24.0172 119.98 24.0876C119.836 26.0779 119.226 27.9353 118.296 29.6872C117.119 31.9121 115.547 33.8516 113.886 35.7286C111.306 38.6496 108.362 41.1718 105.266 43.5336C102.134 45.9228 98.7646 47.9327 95.344 49.8722C93.7216 50.7912 92.0641 51.6436 90.4222 52.5234C90.3401 52.5234 90.258 52.5234 90.172 52.5234C90.1134 52.4804 90.0586 52.4374 89.9922 52.4022C87.5684 51.0923 85.1173 49.8331 82.7287 48.4684C77.8342 45.6843 73.2682 42.427 69.1243 38.6066C66.7201 36.3934 64.5387 33.9768 62.7013 31.2669C61.466 29.4447 60.5668 27.47 60.1994 25.2802C60.129 24.8657 60.0782 24.4434 60.0234 24.025Z" fill="#A26D91"/>
<mask id="mask2_1409_2" style="mask-type:alpha" maskUnits="userSpaceOnUse" x="63" y="9" width="54" height="40">
<path d="M63 23.6681C63 23.178 63 22.6879 63 22.2013C63.0141 22.1352 63.0317 22.0726 63.0422 22.0066C63.1196 21.2941 63.1583 20.5746 63.2744 19.869C63.7811 16.7372 65.1919 14.0956 67.6443 12.0275C69.8855 10.1331 72.5348 9.26416 75.4445 9.1008C77.8968 8.96177 80.2893 9.31978 82.6114 10.0914C85.2045 10.9465 87.5301 12.2916 89.6939 13.9218C90 14.1512 90 14.1512 90.3061 13.9218C91.4883 13.025 92.7408 12.2186 94.0532 11.5165C96.4316 10.2409 98.9507 9.41363 101.646 9.12165C102.022 9.07994 102.402 9.04171 102.779 9C103.377 9 103.982 9 104.58 9C104.661 9.0139 104.738 9.03823 104.819 9.04171C106.484 9.15641 108.099 9.50747 109.601 10.2409C113.971 12.3716 116.289 15.9135 116.863 20.6371C116.919 21.0994 116.954 21.5617 117 22.024C117 22.5245 117 23.032 117 23.5325C116.986 23.5951 116.968 23.6611 116.961 23.7237C116.831 25.4929 116.282 27.1439 115.445 28.7011C114.386 30.6788 112.971 32.4029 111.476 34.0713C109.154 36.6677 106.505 38.9096 103.718 41.009C100.9 43.1328 97.8671 44.9194 94.7885 46.6434C93.3284 47.4602 91.8366 48.2179 90.3589 49C90.285 49 90.2111 49 90.1337 49C90.0809 48.9618 90.0317 48.9235 89.9719 48.8923C87.7905 47.7278 85.5844 46.6086 83.4347 45.3956C79.0297 42.9208 74.9202 40.0254 71.1908 36.6295C69.027 34.6621 67.0637 32.5141 65.4101 30.1053C64.2983 28.4856 63.4891 26.7303 63.1583 24.7838C63.095 24.4154 63.0493 24.04 63 23.6681Z" fill="#A26D91"/>
</mask>
<g mask="url(#mask2_1409_2)">
<path d="M114 36.7934V52.0153H72V41.9107L79.875 34.2347L85.125 39.352L100.875 24L114 36.7934Z" fill="#BE8BAD"/>
<path d="M74.8958 28.1042C76.1597 29.3681 77.6944 30 79.5 30C81.3056 30 82.8403 29.3681 84.1042 28.1042C85.3681 26.8403 86 25.3056 86 23.5C86 21.6944 85.3681 20.1597 84.1042 18.8958C82.8403 17.6319 81.3056 17 79.5 17C77.6944 17 76.1597 17.6319 74.8958 18.8958C73.6319 20.1597 73 21.6944 73 23.5C73 25.3056 73.6319 26.8403 74.8958 28.1042Z" fill="#BE8BAD"/>
</g>
</g>
<mask id="mask3_1409_2" style="mask-type:luminance" maskUnits="userSpaceOnUse" x="120" y="0" width="60" height="60">
<path d="M180 0H120V60H180V0Z" fill="white"/>
</mask>
<g mask="url(#mask3_1409_2)">
<path d="M176.125 15.3216C171.496 9.33331 161.582 6.82159 152.234 6.05597C146.992 5.62628 141.93 5.73956 138.078 6.0755C137.895 6.09894 137.734 6.09894 137.555 6.12237C133.859 6.50519 130.031 7.32159 127 9.28644C125.996 9.94269 125.082 10.6888 124.262 11.6146C120.844 15.5286 120.41 21.1575 120.16 26.3567C119.863 32.1888 119.656 38.3607 122.484 43.4935C125.402 48.8255 131.172 52.0599 137.008 53.845C147.016 56.8997 158.527 56.0599 167.281 50.6341C168.809 49.6849 170.242 48.6028 171.59 47.3568C172.727 46.2943 173.777 45.0989 174.711 43.7864C176.582 41.1849 178.039 38.1575 178.93 34.9466C180.844 28.2317 180.32 20.8177 176.125 15.3216Z" fill="#547AA7" fill-opacity="0.4"/>
<path d="M171.293 27.1927C169.926 24.1614 168.875 20.1849 165.617 19.5286C162.949 18.9856 160.395 21.1575 157.684 20.931C154.719 20.681 152.758 17.6302 152.324 14.7122C151.891 11.8411 152.461 8.92706 152.234 6.03252C146.992 5.60284 141.93 5.71612 138.078 6.05596C137.895 6.07549 137.734 6.07549 137.555 6.09893C133.859 6.48565 130.031 7.29815 127 9.26299C125.996 9.91924 125.082 10.6653 124.262 11.5911C120.844 15.5286 120.41 21.1575 120.16 26.3567C119.863 32.1888 119.656 38.3606 122.484 43.4935C125.402 48.8255 131.172 52.0599 137.008 53.845C147.016 56.8997 158.527 56.0599 167.281 50.6341C168.809 49.6849 170.242 48.6028 171.59 47.3567C172.727 46.2942 173.777 45.0989 174.711 43.7864C176.582 41.1849 178.039 38.1575 178.93 34.9466C175.625 33.2747 172.82 30.5599 171.293 27.1927Z" fill="#547AA7" fill-opacity="0.4"/>
<path d="M174.074 43.1537C171.656 40.5756 170.266 37.2279 168.488 34.1771C166.711 31.1263 164.227 28.1654 160.781 27.2826C156.109 26.1068 151.07 29.1146 146.465 27.7123C143 26.6498 140.676 23.2826 139.672 19.8217C138.648 16.3646 138.648 12.7006 138.168 9.13025C138.008 8.11072 137.828 7.11853 137.574 6.12244C133.883 6.50525 130.055 7.32166 127.02 9.2865C126.02 9.94275 125.105 10.6888 124.285 11.6146C120.844 15.5287 120.41 21.1576 120.16 26.3568C119.863 32.1888 119.656 38.3607 122.484 43.4935C125.402 48.8256 131.172 52.0599 137.008 53.8451C147.016 56.8998 158.527 56.0599 167.281 50.6342C168.809 49.6849 170.242 48.6029 171.59 47.3568C172.727 46.2943 173.777 45.099 174.711 43.7865C174.484 43.5834 174.277 43.3568 174.074 43.1537Z" fill="#547AA7" fill-opacity="0.4"/>
<path d="M149.246 37.0951C144.141 35.9193 138.488 38.5873 133.68 36.5287C129.027 34.5404 127.156 28.931 127.02 23.9349C126.883 19.0521 127.91 14.0795 127 9.2865C125.996 9.94275 125.082 10.6888 124.262 11.6146C120.844 15.5287 120.41 21.1576 120.16 26.3568C119.863 32.1888 119.656 38.3607 122.484 43.4935C125.402 48.8256 131.172 52.0599 137.008 53.8451C147.016 56.8998 158.527 56.0599 167.281 50.6342C165.594 49.7552 163.973 48.6693 162.539 47.4271C158.23 43.6967 154.809 38.3607 149.246 37.0951Z" fill="#547AA7" fill-opacity="0.4"/>
</g>
<path d="M237.624 35.7486L215.754 57.6144C212.575 60.7933 207.426 60.7933 204.243 57.6144L182.385 35.7486C179.205 32.5697 179.205 27.4225 182.385 24.2397L204.255 2.38565C207.434 -0.793263 212.582 -0.793263 215.766 2.38565L237.624 24.2397C240.792 27.4225 240.792 32.5775 237.624 35.7486Z" fill="#F9D448"/>
<mask id="mask4_1409_2" style="mask-type:alpha" maskUnits="userSpaceOnUse" x="184" y="4" width="52" height="52">
<path d="M233.941 34.9824L214.987 53.9336C212.231 56.6888 207.77 56.6888 205.011 53.9336L186.067 34.9824C183.311 32.2272 183.311 27.7661 186.067 25.0075L205.021 6.06639C207.776 3.3112 212.238 3.3112 214.997 6.06639L233.941 25.0075C236.686 27.7661 236.686 32.2339 233.941 34.9824Z" fill="#F9D448"/>
</mask>
<g mask="url(#mask4_1409_2)">
<path d="M240.998 41.8012V60.6002H190V48.1211L199.562 38.6412L205.937 44.9611L225.061 26.0015L240.998 41.8012Z" fill="#FFEA9A"/>
<path d="M194.042 30.9598C195.403 32.3209 197.056 33.0015 199 33.0015C200.944 33.0015 202.597 32.3209 203.958 30.9598C205.319 29.5987 206 27.9459 206 26.0015C206 24.057 205.319 22.4042 203.958 21.0431C202.597 19.682 200.944 19.0015 199 19.0015C197.056 19.0015 195.403 19.682 194.042 21.0431C192.681 22.4042 192 24.057 192 26.0015C192 27.9459 192.681 29.5987 194.042 30.9598Z" fill="#FFEA9A"/>
</g>
<path d="M290 0H250C244.477 0 240 4.47715 240 10V50C240 55.5228 244.477 60 250 60H290C295.523 60 300 55.5228 300 50V10C300 4.47715 295.523 0 290 0Z" fill="#CBE8A3"/>
<path d="M285 7H255C252.239 7 250 9.23858 250 12V48C250 50.7614 252.239 53 255 53H285C287.761 53 290 50.7614 290 48V12C290 9.23858 287.761 7 285 7Z" fill="#8FBC5D"/>
<mask id="mask5_1409_2" style="mask-type:alpha" maskUnits="userSpaceOnUse" x="254" y="12" width="32" height="37">
<path d="M280.024 12.9807H259.024C256.263 12.9807 254.024 15.2193 254.024 17.9807V43.9807C254.024 46.7421 256.263 48.9807 259.024 48.9807H280.024C282.785 48.9807 285.024 46.7421 285.024 43.9807V17.9807C285.024 15.2193 282.785 12.9807 280.024 12.9807Z" fill="#D9D9D9"/>
</mask>
<g mask="url(#mask5_1409_2)">
<path d="M285.412 38.6294L290.615 43.9654L285.412 49.3014H250L257.22 42.2171L262.506 36.8355L266.03 40.4233L276.602 29.6601L285.412 38.6294ZM262.506 24.4922C261.038 24.4922 259.79 23.969 258.762 22.9226C257.734 21.8762 257.22 20.6055 257.22 19.1106C257.22 17.6157 257.734 16.3451 258.762 15.2986C259.79 14.2522 261.038 13.729 262.506 13.729C263.975 13.729 265.223 14.2522 266.25 15.2986C267.278 16.3451 267.792 17.6157 267.792 19.1106C267.792 20.6055 267.278 21.8762 266.25 22.9226C265.223 23.969 263.975 24.4922 262.506 24.4922Z" fill="#CBE8A3"/>
<path d="M258.762 22.9226C259.79 23.969 261.038 24.4922 262.506 24.4922C263.975 24.4922 265.223 23.969 266.25 22.9226C267.278 21.8762 267.792 20.6055 267.792 19.1106C267.792 17.6157 267.278 16.3451 266.25 15.2986C265.223 14.2522 263.975 13.729 262.506 13.729C261.038 13.729 259.79 14.2522 258.762 15.2986C257.734 16.3451 257.22 17.6157 257.22 19.1106C257.22 20.6055 257.734 21.8762 258.762 22.9226Z" fill="#CBE8A3"/>
</g>
<path d="M283 58C282.448 58 282 58.4477 282 59C282 59.5523 282.448 60 283 60H292C296 60 300 56 300 52V44C300 43.4477 299.552 43 299 43C298.448 43 298 43.4477 298 44V51C298 54.866 294.866 58 291 58H283Z" fill="#8FBC5D"/>
<path d="M257 2C257.552 2 258 1.55229 258 1C258 0.447716 257.552 0 257 0H248C244 0 240 4 240 8V16C240 16.5523 240.448 17 241 17C241.552 17 242 16.5523 242 16V9C242 5.13401 245.134 2 249 2H257Z" fill="#8FBC5D"/>
<path fill-rule="evenodd" clip-rule="evenodd" d="M330.746 0.00553542L305.769 0C303.763 0 303.034 0.2077 302.303 0.600931C301.568 0.994162 300.992 1.56739 300.601 2.30123C300.208 3.03508 300 3.76339 300 5.76831V30.2317C300 32.2366 300.208 32.9649 300.601 33.6988C300.992 34.4326 301.568 35.0058 302.303 35.3991C303.034 35.7923 303.763 36 305.766 36H330.234C332.24 36 332.966 35.7923 333.7 35.3991C334.425 35.0155 335.018 34.4231 335.401 33.6988C335.759 33.0314 335.964 32.3695 335.997 30.7468L336 5.76831C336 3.76339 335.792 3.03508 335.399 2.30123C335.008 1.56739 334.429 0.994162 333.697 0.600931C333.032 0.2437 332.367 0.0387662 330.746 0.00553542Z" fill="#D6E0ED"/>
<path d="M305.047 15V7H306.738V10.3008H310.172V7H311.859V15H310.172V11.6953H306.738V15H305.047ZM313.254 15V7H318.645V8.39454H314.945V10.3008H318.367V11.6953H314.945V13.6055H318.66V15H313.254ZM321.681 7V15H319.989V7H321.681ZM330.131 9.80079H328.42C328.389 9.57944 328.325 9.38282 328.229 9.21095C328.132 9.03647 328.008 8.88803 327.857 8.76562C327.706 8.64323 327.532 8.54948 327.334 8.48438C327.139 8.41928 326.926 8.38672 326.697 8.38672C326.283 8.38672 325.923 8.48958 325.615 8.69531C325.308 8.89844 325.07 9.19532 324.9 9.58595C324.731 9.97397 324.646 10.4453 324.646 11C324.646 11.5703 324.731 12.0495 324.9 12.4375C325.072 12.8255 325.312 13.1185 325.619 13.3164C325.926 13.5143 326.282 13.6133 326.686 13.6133C326.912 13.6133 327.122 13.5833 327.314 13.5234C327.51 13.4635 327.683 13.3763 327.834 13.2617C327.985 13.1445 328.11 13.0026 328.209 12.8359C328.311 12.6693 328.381 12.4792 328.42 12.2656L330.131 12.2734C330.087 12.6406 329.976 12.9948 329.799 13.3359C329.624 13.6745 329.389 13.9779 329.092 14.2461C328.798 14.5117 328.446 14.7227 328.037 14.8789C327.631 15.0326 327.171 15.1094 326.658 15.1094C325.945 15.1094 325.307 14.9479 324.744 14.625C324.184 14.3021 323.742 13.8346 323.416 13.2227C323.093 12.6107 322.932 11.8698 322.932 11C322.932 10.1276 323.096 9.38543 323.424 8.77345C323.752 8.16147 324.197 7.69531 324.76 7.375C325.322 7.05208 325.955 6.89062 326.658 6.89062C327.122 6.89062 327.551 6.95573 327.947 7.08594C328.346 7.21615 328.699 7.40625 329.006 7.65625C329.313 7.90365 329.563 8.20703 329.756 8.56641C329.951 8.92578 330.076 9.33724 330.131 9.80079Z" fill="#6B8CB3"/>
<path d="M305 28.05L317 28.0501" stroke="#6B8CB3" stroke-width="1.5"/>
<path d="M313 23.5147L317.243 27.7574L313 32" stroke="#6B8CB3" stroke-width="1.5" stroke-miterlimit="10" stroke-linecap="square"/>
<mask id="mask6_1409_2" style="mask-type:luminance" maskUnits="userSpaceOnUse" x="321" y="21" width="39" height="39">
<path d="M360 21H321V60H360V21Z" fill="white"/>
</mask>
<g mask="url(#mask6_1409_2)">
<path d="M325.875 21H350.422L360 30.88V55.84C360 56.9433 359.486 58.0014 358.572 58.7816C357.658 59.5617 356.418 60 355.125 60H325.875C324.582 60 323.342 59.5617 322.428 58.7816C321.514 58.0014 321 56.9433 321 55.84V25.16C321 24.0567 321.514 22.9986 322.428 22.2184C323.342 21.4383 324.582 21 325.875 21Z" fill="#6B8CB3"/>
<path d="M331.112 35.8182H333.24V42.9176C333.24 43.5739 333.092 44.1439 332.797 44.6278C332.506 45.1117 332.1 45.4846 331.579 45.7464C331.059 46.0083 330.454 46.1392 329.765 46.1392C329.152 46.1392 328.595 46.0315 328.094 45.8161C327.597 45.5973 327.203 45.2659 326.911 44.8217C326.619 44.3743 326.475 43.8125 326.479 43.1364H328.621C328.628 43.4048 328.683 43.6352 328.785 43.8274C328.891 44.0163 329.036 44.1622 329.218 44.2649C329.403 44.3643 329.622 44.4141 329.874 44.4141C330.139 44.4141 330.363 44.3577 330.545 44.245C330.731 44.129 330.872 43.96 330.968 43.7379C331.064 43.5159 331.112 43.2424 331.112 42.9176V35.8182ZM335.02 46V35.8182H339.037C339.809 35.8182 340.467 35.9657 341.01 36.2607C341.554 36.5523 341.968 36.9583 342.253 37.4787C342.542 37.9957 342.686 38.5923 342.686 39.2685C342.686 39.9446 342.54 40.5412 342.248 41.0582C341.957 41.5753 341.534 41.978 340.981 42.2663C340.43 42.5547 339.764 42.6989 338.982 42.6989H336.422V40.9737H338.634C339.048 40.9737 339.39 40.9025 339.658 40.7599C339.93 40.6141 340.132 40.4136 340.265 40.1584C340.401 39.8999 340.469 39.6032 340.469 39.2685C340.469 38.9304 340.401 38.6354 340.265 38.3835C340.132 38.1283 339.93 37.9311 339.658 37.7919C339.386 37.6494 339.042 37.5781 338.624 37.5781H337.172V46H335.02ZM350.836 39.1094C350.766 38.8674 350.668 38.6536 350.542 38.468C350.416 38.2791 350.262 38.12 350.08 37.9908C349.901 37.8582 349.695 37.7571 349.463 37.6875C349.235 37.6179 348.981 37.5831 348.703 37.5831C348.182 37.5831 347.725 37.7124 347.331 37.9709C346.94 38.2294 346.635 38.6056 346.416 39.0994C346.197 39.59 346.088 40.1899 346.088 40.8991C346.088 41.6084 346.195 42.2116 346.411 42.7088C346.626 43.206 346.931 43.5855 347.326 43.8473C347.72 44.1058 348.186 44.2351 348.723 44.2351C349.21 44.2351 349.626 44.1489 349.971 43.9766C350.319 43.8009 350.584 43.554 350.766 43.2358C350.952 42.9176 351.044 42.5414 351.044 42.1072L351.482 42.1719H348.857V40.5511H353.118V41.8338C353.118 42.7287 352.929 43.4976 352.551 44.1406C352.173 44.7803 351.653 45.2741 350.99 45.6222C350.327 45.9669 349.568 46.1392 348.713 46.1392C347.758 46.1392 346.92 45.9287 346.197 45.5078C345.475 45.0836 344.911 44.482 344.507 43.7031C344.106 42.9209 343.905 41.9929 343.905 40.919C343.905 40.0937 344.025 39.358 344.263 38.7116C344.505 38.062 344.843 37.5118 345.277 37.0611C345.712 36.6103 346.217 36.2673 346.794 36.032C347.37 35.7966 347.995 35.679 348.668 35.679C349.245 35.679 349.782 35.7635 350.279 35.9325C350.776 36.0982 351.217 36.3336 351.601 36.6385C351.989 36.9434 352.306 37.3063 352.551 37.7273C352.796 38.1449 352.953 38.6056 353.023 39.1094H350.836Z" fill="white"/>
</g>
<path fill-rule="evenodd" clip-rule="evenodd" d="M390.746 0.00553542L365.769 0C363.763 0 363.034 0.2077 362.303 0.600931C361.568 0.994162 360.992 1.56739 360.601 2.30123C360.208 3.03508 360 3.76339 360 5.76831V30.2317C360 32.2366 360.208 32.9649 360.601 33.6988C360.992 34.4326 361.568 35.0058 362.303 35.3991C363.034 35.7923 363.763 36 365.766 36H390.234C392.24 36 392.966 35.7923 393.7 35.3991C394.425 35.0155 395.018 34.4231 395.401 33.6988C395.759 33.0314 395.964 32.3695 395.997 30.7468L396 5.76831C396 3.76339 395.792 3.03508 395.399 2.30123C395.008 1.56739 394.429 0.994162 393.697 0.600931C393.032 0.2437 392.367 0.0387662 390.746 0.00553542Z" fill="#D6E0ED"/>
<path d="M364.232 15L361.943 7H363.791L365.115 12.5586H365.182L366.643 7H368.225L369.682 12.5703H369.752L371.076 7H372.924L370.635 15H368.986L367.463 9.76953H367.4L365.881 15H364.232ZM373.829 15V7H379.22V8.39453H375.521V10.3008H378.942V11.6953H375.521V13.6055H379.235V15H373.829ZM380.564 15V7H383.768C384.356 7 384.847 7.08724 385.24 7.26172C385.633 7.4362 385.929 7.67839 386.127 7.98828C386.325 8.29557 386.424 8.64974 386.424 9.05078C386.424 9.36328 386.361 9.63802 386.236 9.875C386.111 10.1094 385.939 10.3021 385.721 10.4531C385.505 10.6016 385.257 10.707 384.979 10.7695V10.8477C385.283 10.8607 385.568 10.9466 385.834 11.1055C386.102 11.2643 386.32 11.487 386.486 11.7734C386.653 12.0573 386.736 12.3958 386.736 12.7891C386.736 13.2135 386.631 13.5924 386.42 13.9258C386.212 14.2565 385.903 14.5182 385.494 14.7109C385.085 14.9036 384.581 15 383.982 15H380.564ZM382.256 13.6172H383.635C384.106 13.6172 384.45 13.5273 384.666 13.3477C384.882 13.1654 384.99 12.9232 384.99 12.6211C384.99 12.3997 384.937 12.2044 384.83 12.0352C384.723 11.8659 384.571 11.7331 384.373 11.6367C384.178 11.5404 383.945 11.4922 383.674 11.4922H382.256V13.6172ZM382.256 10.3477H383.51C383.742 10.3477 383.947 10.3073 384.127 10.2266C384.309 10.1432 384.452 10.026 384.557 9.875C384.663 9.72396 384.717 9.54297 384.717 9.33203C384.717 9.04297 384.614 8.8099 384.408 8.63281C384.205 8.45573 383.916 8.36719 383.541 8.36719H382.256V10.3477ZM387.837 15V7H390.993C391.6 7 392.117 7.11589 392.544 7.34766C392.971 7.57682 393.297 7.89583 393.521 8.30469C393.747 8.71094 393.86 9.17969 393.86 9.71094C393.86 10.2422 393.746 10.7109 393.517 11.1172C393.287 11.5234 392.955 11.8398 392.521 12.0664C392.088 12.293 391.565 12.4062 390.95 12.4062H388.938V11.0508H390.677C391.002 11.0508 391.271 10.9948 391.481 10.8828C391.695 10.7682 391.854 10.6107 391.958 10.4102C392.065 10.207 392.118 9.97396 392.118 9.71094C392.118 9.44531 392.065 9.21354 391.958 9.01562C391.854 8.8151 391.695 8.66016 391.481 8.55078C391.268 8.4388 390.997 8.38281 390.669 8.38281H389.528V15H387.837Z" fill="#6B8CB3"/>
<path d="M365 28.05L377 28.0501" stroke="#6B8CB3" stroke-width="1.5"/>
<path d="M373 23.5147L377.243 27.7574L373 32" stroke="#6B8CB3" stroke-width="1.5" stroke-miterlimit="10" stroke-linecap="square"/>
<mask id="mask7_1409_2" style="mask-type:luminance" maskUnits="userSpaceOnUse" x="381" y="21" width="39" height="39">
<path d="M420 21H381V60H420V21Z" fill="white"/>
</mask>
<g mask="url(#mask7_1409_2)">
<path d="M385.875 21H410.422L420 30.88V55.84C420 56.9433 419.486 58.0014 418.572 58.7816C417.658 59.5617 416.418 60 415.125 60H385.875C384.582 60 383.342 59.5617 382.428 58.7816C381.514 58.0014 381 56.9433 381 55.84V25.16C381 24.0567 381.514 22.9986 382.428 22.2184C383.342 21.4383 384.582 21 385.875 21Z" fill="#6B8CB3"/>
<path d="M391.112 35.8182H393.24V42.9176C393.24 43.5739 393.092 44.1439 392.797 44.6278C392.506 45.1117 392.1 45.4846 391.579 45.7464C391.059 46.0083 390.454 46.1392 389.765 46.1392C389.152 46.1392 388.595 46.0315 388.094 45.8161C387.597 45.5973 387.203 45.2659 386.911 44.8217C386.619 44.3743 386.475 43.8125 386.479 43.1364H388.621C388.628 43.4048 388.683 43.6352 388.785 43.8274C388.891 44.0163 389.036 44.1622 389.218 44.2649C389.403 44.3643 389.622 44.4141 389.874 44.4141C390.139 44.4141 390.363 44.3577 390.545 44.245C390.731 44.129 390.872 43.96 390.968 43.7379C391.064 43.5159 391.112 43.2424 391.112 42.9176V35.8182ZM395.02 46V35.8182H399.037C399.809 35.8182 400.467 35.9657 401.01 36.2607C401.554 36.5523 401.968 36.9583 402.253 37.4787C402.542 37.9957 402.686 38.5923 402.686 39.2685C402.686 39.9446 402.54 40.5412 402.248 41.0582C401.957 41.5753 401.534 41.978 400.981 42.2663C400.43 42.5547 399.764 42.6989 398.982 42.6989H396.422V40.9737H398.634C399.048 40.9737 399.39 40.9025 399.658 40.7599C399.93 40.6141 400.132 40.4136 400.265 40.1584C400.401 39.8999 400.469 39.6032 400.469 39.2685C400.469 38.9304 400.401 38.6354 400.265 38.3835C400.132 38.1283 399.93 37.9311 399.658 37.7919C399.386 37.6494 399.042 37.5781 398.624 37.5781H397.172V46H395.02ZM410.836 39.1094C410.766 38.8674 410.668 38.6536 410.542 38.468C410.416 38.2791 410.262 38.12 410.08 37.9908C409.901 37.8582 409.695 37.7571 409.463 37.6875C409.235 37.6179 408.981 37.5831 408.703 37.5831C408.182 37.5831 407.725 37.7124 407.331 37.9709C406.94 38.2294 406.635 38.6056 406.416 39.0994C406.197 39.59 406.088 40.1899 406.088 40.8991C406.088 41.6084 406.195 42.2116 406.411 42.7088C406.626 43.206 406.931 43.5855 407.326 43.8473C407.72 44.1058 408.186 44.2351 408.723 44.2351C409.21 44.2351 409.626 44.1489 409.971 43.9766C410.319 43.8009 410.584 43.554 410.766 43.2358C410.952 42.9176 411.044 42.5414 411.044 42.1072L411.482 42.1719H408.857V40.5511H413.118V41.8338C413.118 42.7287 412.929 43.4976 412.551 44.1406C412.173 44.7803 411.653 45.2741 410.99 45.6222C410.327 45.9669 409.568 46.1392 408.713 46.1392C407.758 46.1392 406.92 45.9287 406.197 45.5078C405.475 45.0836 404.911 44.482 404.507 43.7031C404.106 42.9209 403.905 41.9929 403.905 40.919C403.905 40.0937 404.025 39.358 404.263 38.7116C404.505 38.062 404.843 37.5118 405.277 37.0611C405.712 36.6103 406.217 36.2673 406.794 36.032C407.37 35.7966 407.995 35.679 408.668 35.679C409.245 35.679 409.782 35.7635 410.279 35.9325C410.776 36.0982 411.217 36.3336 411.601 36.6385C411.989 36.9434 412.306 37.3063 412.551 37.7273C412.796 38.1449 412.953 38.6056 413.023 39.1094H410.836Z" fill="white"/>
</g>
<path fill-rule="evenodd" clip-rule="evenodd" d="M450.746 0.00553542L425.769 0C423.763 0 423.034 0.2077 422.303 0.600931C421.568 0.994162 420.992 1.56739 420.601 2.30123C420.208 3.03508 420 3.76339 420 5.76831V30.2317C420 32.2366 420.208 32.9649 420.601 33.6988C420.992 34.4326 421.568 35.0058 422.303 35.3991C423.034 35.7923 423.763 36 425.766 36H450.234C452.24 36 452.966 35.7923 453.7 35.3991C454.425 35.0155 455.018 34.4231 455.401 33.6988C455.759 33.0314 455.964 32.3695 455.997 30.7468L456 5.76831C456 3.76339 455.792 3.03508 455.399 2.30123C455.008 1.56739 454.429 0.994162 453.697 0.600931C453.032 0.2437 452.367 0.0387662 450.746 0.00553542Z" fill="#F2D1AB"/>
<path d="M424.232 15L421.943 7H423.791L425.115 12.5586H425.182L426.643 7H428.225L429.682 12.5703H429.752L431.076 7H432.924L430.635 15H428.986L427.463 9.76953H427.4L425.881 15H424.232ZM433.829 15V7H439.22V8.39453H435.521V10.3008H438.942V11.6953H435.521V13.6055H439.235V15H433.829ZM440.564 15V7H443.768C444.356 7 444.847 7.08724 445.24 7.26172C445.633 7.4362 445.929 7.67839 446.127 7.98828C446.325 8.29557 446.424 8.64974 446.424 9.05078C446.424 9.36328 446.361 9.63802 446.236 9.875C446.111 10.1094 445.939 10.3021 445.721 10.4531C445.505 10.6016 445.257 10.707 444.979 10.7695V10.8477C445.283 10.8607 445.568 10.9466 445.834 11.1055C446.102 11.2643 446.32 11.487 446.486 11.7734C446.653 12.0573 446.736 12.3958 446.736 12.7891C446.736 13.2135 446.631 13.5924 446.42 13.9258C446.212 14.2565 445.903 14.5182 445.494 14.7109C445.085 14.9036 444.581 15 443.982 15H440.564ZM442.256 13.6172H443.635C444.106 13.6172 444.45 13.5273 444.666 13.3477C444.882 13.1654 444.99 12.9232 444.99 12.6211C444.99 12.3997 444.937 12.2044 444.83 12.0352C444.723 11.8659 444.571 11.7331 444.373 11.6367C444.178 11.5404 443.945 11.4922 443.674 11.4922H442.256V13.6172ZM442.256 10.3477H443.51C443.742 10.3477 443.947 10.3073 444.127 10.2266C444.309 10.1432 444.452 10.026 444.557 9.875C444.663 9.72396 444.717 9.54297 444.717 9.33203C444.717 9.04297 444.614 8.8099 444.408 8.63281C444.205 8.45573 443.916 8.36719 443.541 8.36719H442.256V10.3477ZM447.837 15V7H450.993C451.6 7 452.117 7.11589 452.544 7.34766C452.971 7.57682 453.297 7.89583 453.521 8.30469C453.747 8.71094 453.86 9.17969 453.86 9.71094C453.86 10.2422 453.746 10.7109 453.517 11.1172C453.287 11.5234 452.955 11.8398 452.521 12.0664C452.088 12.293 451.565 12.4062 450.95 12.4062H448.938V11.0508H450.677C451.002 11.0508 451.271 10.9948 451.481 10.8828C451.695 10.7682 451.854 10.6107 451.958 10.4102C452.065 10.207 452.118 9.97396 452.118 9.71094C452.118 9.44531 452.065 9.21354 451.958 9.01562C451.854 8.8151 451.695 8.66016 451.481 8.55078C451.268 8.4388 450.997 8.38281 450.669 8.38281H449.528V15H447.837Z" fill="#CE924C"/>
<path d="M425 28.05L437 28.0501" stroke="#CE924C" stroke-width="1.5"/>
<path d="M433 23.5147L437.243 27.7574L433 32" stroke="#CE924C" stroke-width="1.5" stroke-miterlimit="10" stroke-linecap="square"/>
<mask id="mask8_1409_2" style="mask-type:luminance" maskUnits="userSpaceOnUse" x="441" y="21" width="39" height="39">
<path d="M480 21H441V60H480V21Z" fill="white"/>
</mask>
<g mask="url(#mask8_1409_2)">
<path d="M445.875 21H470.422L480 30.88V55.84C480 56.9433 479.486 58.0014 478.572 58.7816C477.658 59.5617 476.418 60 475.125 60H445.875C444.582 60 443.342 59.5617 442.428 58.7816C441.514 58.0014 441 56.9433 441 55.84V25.16C441 24.0567 441.514 22.9986 442.428 22.2184C443.342 21.4383 444.582 21 445.875 21Z" fill="#D7A161"/>
<path d="M446.38 46V35.8182H450.397C451.169 35.8182 451.827 35.9657 452.371 36.2607C452.914 36.5523 453.329 36.9583 453.614 37.4787C453.902 37.9957 454.046 38.5923 454.046 39.2685C454.046 39.9446 453.9 40.5412 453.609 41.0582C453.317 41.5753 452.895 41.978 452.341 42.2663C451.791 42.5547 451.125 42.6989 450.342 42.6989H447.782V40.9737H449.994C450.409 40.9737 450.75 40.9025 451.019 40.7599C451.29 40.6141 451.493 40.4136 451.625 40.1584C451.761 39.8999 451.829 39.6032 451.829 39.2685C451.829 38.9304 451.761 38.6354 451.625 38.3835C451.493 38.1283 451.29 37.9311 451.019 37.7919C450.747 37.6494 450.402 37.5781 449.984 37.5781H448.533V46H446.38ZM463.961 35.8182V46H462.101L457.672 39.5916H457.597V46H455.445V35.8182H457.334L461.729 42.2216H461.818V35.8182H463.961ZM472.491 39.1094C472.421 38.8674 472.323 38.6536 472.198 38.468C472.072 38.2791 471.917 38.12 471.735 37.9908C471.556 37.8582 471.351 37.7571 471.119 37.6875C470.89 37.6179 470.636 37.5831 470.358 37.5831C469.838 37.5831 469.38 37.7124 468.986 37.9709C468.595 38.2294 468.29 38.6056 468.071 39.0994C467.852 39.59 467.743 40.1899 467.743 40.8991C467.743 41.6084 467.851 42.2116 468.066 42.7088C468.282 43.206 468.586 43.5855 468.981 43.8473C469.375 44.1058 469.841 44.2351 470.378 44.2351C470.865 44.2351 471.281 44.1489 471.626 43.9766C471.974 43.8009 472.239 43.554 472.421 43.2358C472.607 42.9176 472.7 42.5414 472.7 42.1072L473.137 42.1719H470.512V40.5511H474.773V41.8338C474.773 42.7287 474.584 43.4976 474.206 44.1406C473.828 44.7803 473.308 45.2741 472.645 45.6222C471.982 45.9669 471.223 46.1392 470.368 46.1392C469.413 46.1392 468.575 45.9287 467.852 45.5078C467.13 45.0836 466.566 44.482 466.162 43.7031C465.761 42.9209 465.56 41.9929 465.56 40.919C465.56 40.0937 465.68 39.358 465.918 38.7116C466.16 38.062 466.498 37.5118 466.933 37.0611C467.367 36.6103 467.872 36.2673 468.449 36.032C469.026 35.7966 469.65 35.679 470.323 35.679C470.9 35.679 471.437 35.7635 471.934 35.9325C472.431 36.0982 472.872 36.3336 473.256 36.6385C473.644 36.9434 473.961 37.3063 474.206 37.7273C474.451 38.1449 474.609 38.6056 474.678 39.1094H472.491Z" fill="white"/>
</g>
<path fill-rule="evenodd" clip-rule="evenodd" d="M510.746 0.00553542L485.769 0C483.763 0 483.034 0.2077 482.303 0.600931C481.568 0.994162 480.992 1.56739 480.601 2.30123C480.208 3.03508 480 3.76339 480 5.76831V30.2317C480 32.2366 480.208 32.9649 480.601 33.6988C480.992 34.4326 481.568 35.0058 482.303 35.3991C483.034 35.7923 483.763 36 485.766 36H510.234C512.24 36 512.966 35.7923 513.7 35.3991C514.425 35.0155 515.018 34.4231 515.401 33.6988C515.759 33.0314 515.964 32.3695 515.997 30.7468L516 5.76831C516 3.76339 515.792 3.03508 515.399 2.30123C515.008 1.56739 514.429 0.994162 513.697 0.600931C513.032 0.2437 512.367 0.0387662 510.746 0.00553542Z" fill="#F2D1AB"/>
<path d="M490.858 9.30079C490.827 8.98569 490.693 8.74089 490.456 8.56641C490.219 8.39193 489.897 8.3047 489.491 8.3047C489.215 8.3047 488.982 8.34376 488.792 8.42188C488.602 8.49741 488.456 8.60287 488.354 8.73829C488.256 8.87371 488.206 9.02734 488.206 9.19922C488.201 9.34245 488.231 9.46745 488.296 9.57422C488.364 9.68099 488.456 9.77344 488.573 9.85156C488.69 9.92708 488.826 9.99349 488.979 10.0508C489.133 10.1055 489.297 10.1523 489.472 10.1914L490.19 10.3633C490.539 10.4414 490.86 10.5456 491.151 10.6758C491.443 10.806 491.696 10.9661 491.909 11.1562C492.123 11.3464 492.288 11.5703 492.405 11.8281C492.525 12.0859 492.586 12.3815 492.589 12.7148C492.586 13.2044 492.461 13.6289 492.214 13.9883C491.969 14.3451 491.615 14.6224 491.151 14.8203C490.69 15.0156 490.134 15.1133 489.483 15.1133C488.838 15.1133 488.275 15.0143 487.796 14.8164C487.319 14.6185 486.947 14.3255 486.679 13.9375C486.413 13.5469 486.274 13.0638 486.261 12.4883H487.897C487.916 12.7565 487.993 12.9805 488.128 13.1602C488.266 13.3372 488.45 13.4714 488.679 13.5625C488.91 13.651 489.172 13.6953 489.464 13.6953C489.75 13.6953 489.999 13.6536 490.21 13.5703C490.424 13.487 490.589 13.3711 490.706 13.2227C490.823 13.0742 490.882 12.9036 490.882 12.7109C490.882 12.5312 490.828 12.3802 490.722 12.2578C490.618 12.1354 490.464 12.0312 490.261 11.9453C490.06 11.8594 489.814 11.7812 489.522 11.7109L488.651 11.4922C487.977 11.3281 487.444 11.0716 487.054 10.7227C486.663 10.3737 486.469 9.90365 486.472 9.3125C486.469 8.82812 486.598 8.40495 486.858 8.04297C487.121 7.68099 487.482 7.39844 487.94 7.19531C488.399 6.99219 488.92 6.89062 489.503 6.89062C490.097 6.89062 490.615 6.99219 491.058 7.19531C491.503 7.39844 491.849 7.68099 492.097 8.04297C492.344 8.40495 492.472 8.82423 492.479 9.30079H490.858ZM495.172 7L497.105 13.0781H497.18L499.117 7H500.992L498.234 15H496.055L493.293 7H495.172ZM506.809 9.58595C506.754 9.39584 506.677 9.22786 506.578 9.08204C506.479 8.9336 506.358 8.8086 506.215 8.70704C506.074 8.60287 505.913 8.52344 505.73 8.46875C505.551 8.41406 505.352 8.38672 505.133 8.38672C504.724 8.38672 504.365 8.48828 504.055 8.69141C503.747 8.89453 503.508 9.1901 503.336 9.57812C503.164 9.96355 503.078 10.4349 503.078 10.9922C503.078 11.5495 503.163 12.0234 503.332 12.4141C503.501 12.8047 503.741 13.1029 504.051 13.3086C504.361 13.5117 504.727 13.6133 505.148 13.6133C505.531 13.6133 505.858 13.5456 506.129 13.4102C506.402 13.2721 506.611 13.0781 506.754 12.8281C506.9 12.5781 506.973 12.2826 506.973 11.9414L507.316 11.9922H505.254V10.7187H508.602V11.7266C508.602 12.4297 508.453 13.0339 508.156 13.5391C507.859 14.0417 507.451 14.4297 506.93 14.7031C506.409 14.974 505.813 15.1094 505.141 15.1094C504.391 15.1094 503.732 14.944 503.164 14.6133C502.596 14.2799 502.154 13.8073 501.836 13.1953C501.521 12.5807 501.363 11.8516 501.363 11.0078C501.363 10.3594 501.457 9.78126 501.645 9.27345C501.835 8.76303 502.1 8.33073 502.441 7.97656C502.783 7.6224 503.18 7.35286 503.633 7.16797C504.086 6.98307 504.577 6.89062 505.105 6.89062C505.559 6.89062 505.98 6.95703 506.371 7.08984C506.762 7.22005 507.108 7.40495 507.41 7.64453C507.715 7.88411 507.964 8.16927 508.156 8.5C508.349 8.82812 508.473 9.19011 508.527 9.58595H506.809Z" fill="#CE924C"/>
<path d="M485 28.05L497 28.0501" stroke="#CE924C" stroke-width="1.5"/>
<path d="M493 23.5147L497.243 27.7574L493 32" stroke="#CE924C" stroke-width="1.5" stroke-miterlimit="10" stroke-linecap="square"/>
<mask id="mask9_1409_2" style="mask-type:luminance" maskUnits="userSpaceOnUse" x="501" y="21" width="39" height="39">
<path d="M540 21H501V60H540V21Z" fill="white"/>
</mask>
<g mask="url(#mask9_1409_2)">
<path d="M505.875 21H530.422L540 30.88V55.84C540 56.9433 539.486 58.0014 538.572 58.7816C537.658 59.5617 536.418 60 535.125 60H505.875C504.582 60 503.342 59.5617 502.428 58.7816C501.514 58.0014 501 56.9433 501 55.84V25.16C501 24.0567 501.514 22.9986 502.428 22.2184C503.342 21.4383 504.582 21 505.875 21Z" fill="#D7A161"/>
<path d="M506.38 46V35.8182H510.397C511.169 35.8182 511.827 35.9657 512.371 36.2607C512.914 36.5523 513.329 36.9583 513.614 37.4787C513.902 37.9957 514.046 38.5923 514.046 39.2685C514.046 39.9446 513.9 40.5412 513.609 41.0582C513.317 41.5753 512.895 41.978 512.341 42.2663C511.791 42.5547 511.125 42.6989 510.342 42.6989H507.782V40.9737H509.994C510.409 40.9737 510.75 40.9025 511.019 40.7599C511.29 40.6141 511.493 40.4136 511.625 40.1584C511.761 39.8999 511.829 39.6032 511.829 39.2685C511.829 38.9304 511.761 38.6354 511.625 38.3835C511.493 38.1283 511.29 37.9311 511.019 37.7919C510.747 37.6494 510.402 37.5781 509.984 37.5781H508.533V46H506.38ZM523.961 35.8182V46H522.101L517.672 39.5916H517.597V46H515.445V35.8182H517.334L521.729 42.2216H521.818V35.8182H523.961ZM532.491 39.1094C532.421 38.8674 532.323 38.6536 532.198 38.468C532.072 38.2791 531.917 38.12 531.735 37.9908C531.556 37.8582 531.351 37.7571 531.119 37.6875C530.89 37.6179 530.636 37.5831 530.358 37.5831C529.838 37.5831 529.38 37.7124 528.986 37.9709C528.595 38.2294 528.29 38.6056 528.071 39.0994C527.852 39.59 527.743 40.1899 527.743 40.8991C527.743 41.6084 527.851 42.2116 528.066 42.7088C528.282 43.206 528.586 43.5855 528.981 43.8473C529.375 44.1058 529.841 44.2351 530.378 44.2351C530.865 44.2351 531.281 44.1489 531.626 43.9766C531.974 43.8009 532.239 43.554 532.421 43.2358C532.607 42.9176 532.7 42.5414 532.7 42.1072L533.137 42.1719H530.512V40.5511H534.773V41.8338C534.773 42.7287 534.584 43.4976 534.206 44.1406C533.828 44.7803 533.308 45.2741 532.645 45.6222C531.982 45.9669 531.223 46.1392 530.368 46.1392C529.413 46.1392 528.575 45.9287 527.852 45.5078C527.13 45.0836 526.566 44.482 526.162 43.7031C525.761 42.9209 525.56 41.9929 525.56 40.919C525.56 40.0937 525.68 39.358 525.918 38.7116C526.16 38.062 526.498 37.5118 526.933 37.0611C527.367 36.6103 527.872 36.2673 528.449 36.032C529.026 35.7966 529.65 35.679 530.323 35.679C530.9 35.679 531.437 35.7635 531.934 35.9325C532.431 36.0982 532.872 36.3336 533.256 36.6385C533.644 36.9434 533.961 37.3063 534.206 37.7273C534.451 38.1449 534.609 38.6056 534.678 39.1094H532.491Z" fill="white"/>
</g>
<path fill-rule="evenodd" clip-rule="evenodd" d="M570.746 0.00553542L545.769 0C543.763 0 543.034 0.2077 542.303 0.600931C541.568 0.994162 540.992 1.56739 540.601 2.30123C540.208 3.03508 540 3.76339 540 5.76831V30.2317C540 32.2366 540.208 32.9649 540.601 33.6988C540.992 34.4326 541.568 35.0058 542.303 35.3991C543.034 35.7923 543.763 36 545.766 36H570.234C572.24 36 572.966 35.7923 573.7 35.3991C574.425 35.0155 575.018 34.4231 575.401 33.6988C575.759 33.0314 575.964 32.3695 575.997 30.7468L576 5.76831C576 3.76339 575.792 3.03508 575.399 2.30123C575.008 1.56739 574.429 0.994162 573.697 0.600931C573.032 0.2437 572.367 0.0387662 570.746 0.00553542Z" fill="#DAABCA"/>
<path d="M547.225 14.2727L547.385 11.799L545.314 13.1861L544.457 11.6776L546.688 10.5909L544.457 9.50429L545.314 7.99577L547.385 9.38284L547.225 6.90912H548.945L548.778 9.38284L550.849 7.99577L551.706 9.50429L549.482 10.5909L551.706 11.6776L550.849 13.1861L548.778 11.799L548.945 14.2727H547.225ZM557.385 14.2727L557.545 11.799L555.474 13.1861L554.618 11.6776L556.848 10.5909L554.618 9.50429L555.474 7.99577L557.545 9.38284L557.385 6.90912H559.105L558.939 9.38284L561.01 7.99577L561.866 9.50429L559.642 10.5909L561.866 11.6776L561.01 13.1861L558.939 11.799L559.105 14.2727H557.385ZM567.545 14.2727L567.705 11.799L565.634 13.1861L564.778 11.6776L567.009 10.5909L564.778 9.50429L565.634 7.99577L567.705 9.38284L567.545 6.90912H569.265L569.099 9.38284L571.17 7.99577L572.026 9.50429L569.802 10.5909L572.026 11.6776L571.17 13.1861L569.099 11.799L569.265 14.2727H567.545Z" fill="#A26D91"/>
<path d="M545 28.05L557 28.0501" stroke="#A26D91" stroke-width="1.5"/>
<path d="M553 23.5147L557.243 27.7574L553 32" stroke="#A26D91" stroke-width="1.5" stroke-miterlimit="10" stroke-linecap="square"/>
<mask id="mask10_1409_2" style="mask-type:luminance" maskUnits="userSpaceOnUse" x="561" y="21" width="39" height="39">
<path d="M600 21H561V60H600V21Z" fill="white"/>
</mask>
<g mask="url(#mask10_1409_2)">
<path d="M565.875 21H590.422L600 30.88V55.84C600 56.9433 599.486 58.0014 598.572 58.7816C597.658 59.5617 596.418 60 595.125 60H565.875C564.582 60 563.342 59.5617 562.428 58.7816C561.514 58.0014 561 56.9433 561 55.84V25.16C561 24.0567 561.514 22.9986 562.428 22.2184C563.342 21.4383 564.582 21 565.875 21Z" fill="#A26D91"/>
<path d="M565.981 45L563.484 36.2727H565.499L566.944 42.3366H567.016L568.61 36.2727H570.336L571.925 42.3494H572.002L573.447 36.2727H575.462L572.965 45H571.167L569.505 39.294H569.437L567.779 45H565.981ZM576.45 45V36.2727H582.331V37.794H578.295V39.8736H582.028V41.3949H578.295V43.4787H582.348V45H576.45ZM583.798 45V36.2727H587.292C587.934 36.2727 588.469 36.3679 588.898 36.5582C589.327 36.7486 589.65 37.0128 589.866 37.3509C590.082 37.6861 590.19 38.0724 590.19 38.5099C590.19 38.8509 590.121 39.1506 589.985 39.4091C589.849 39.6648 589.661 39.875 589.423 40.0398C589.187 40.2017 588.917 40.3168 588.613 40.3849V40.4702C588.945 40.4844 589.256 40.5781 589.546 40.7514C589.839 40.9247 590.076 41.1676 590.258 41.4801C590.44 41.7898 590.531 42.1591 590.531 42.5881C590.531 43.0511 590.415 43.4645 590.185 43.8281C589.958 44.1889 589.621 44.4744 589.175 44.6847C588.729 44.8949 588.18 45 587.526 45H583.798ZM585.643 43.4915H587.147C587.661 43.4915 588.036 43.3935 588.272 43.1974C588.508 42.9986 588.626 42.7344 588.626 42.4048C588.626 42.1634 588.567 41.9503 588.451 41.7656C588.335 41.581 588.168 41.4361 587.952 41.331C587.739 41.2259 587.485 41.1733 587.19 41.1733H585.643V43.4915ZM585.643 39.9247H587.011C587.263 39.9247 587.488 39.8807 587.684 39.7926C587.883 39.7017 588.039 39.5739 588.153 39.4091C588.269 39.2443 588.327 39.0469 588.327 38.8168C588.327 38.5014 588.215 38.2472 587.991 38.054C587.769 37.8608 587.454 37.7642 587.045 37.7642H585.643V39.9247ZM591.731 45V36.2727H595.174C595.836 36.2727 596.4 36.3991 596.866 36.652C597.332 36.902 597.687 37.25 597.931 37.696C598.179 38.1392 598.302 38.6506 598.302 39.2301C598.302 39.8097 598.177 40.321 597.927 40.7642C597.677 41.2074 597.315 41.5526 596.841 41.7997C596.369 42.0469 595.798 42.1705 595.127 42.1705H592.933V40.6918H594.829C595.184 40.6918 595.477 40.6307 595.707 40.5085C595.94 40.3835 596.113 40.2116 596.227 39.9929C596.343 39.7713 596.402 39.517 596.402 39.2301C596.402 38.9403 596.343 38.6875 596.227 38.4716C596.113 38.2528 595.94 38.0838 595.707 37.9645C595.474 37.8423 595.179 37.7812 594.821 37.7812H593.576V45H591.731Z" fill="white"/>
</g>
<path d="M637.109 0H606C603.239 0 601 2.23858 601 5V41.1429C601 43.9043 603.239 46.1429 606 46.1429H637.109C639.87 46.1429 642.109 43.9043 642.109 41.1429V5C642.109 2.23858 639.87 0 637.109 0Z" fill="#8FBC5D"/>
<mask id="mask11_1409_2" style="mask-type:alpha" maskUnits="userSpaceOnUse" x="606" y="6" width="31" height="36">
<path d="M632 6H611C608.239 6 606 8.23858 606 11V37C606 39.7614 608.239 42 611 42H632C634.761 42 637 39.7614 637 37V11C637 8.23858 634.761 6 632 6Z" fill="#D9D9D9"/>
</mask>
<g mask="url(#mask11_1409_2)">
<path d="M637.394 31.7276L642.742 37.0802L637.394 42.4328H601L608.421 35.3265L613.853 29.9282L617.475 33.5271L628.34 22.7304L637.394 31.7276ZM613.853 17.5465C612.344 17.5465 611.061 17.0217 610.005 15.972C608.949 14.9223 608.421 13.6477 608.421 12.1482C608.421 10.6487 608.949 9.37406 610.005 8.32439C611.061 7.27472 612.344 6.74988 613.853 6.74988C615.362 6.74988 616.645 7.27472 617.701 8.32439C618.757 9.37406 619.286 10.6487 619.286 12.1482C619.286 13.6477 618.757 14.9223 617.701 15.972C616.645 17.0217 615.362 17.5465 613.853 17.5465Z" fill="#CBE8A3"/>
<path d="M610.005 15.972C611.061 17.0217 612.344 17.5465 613.853 17.5465C615.362 17.5465 616.645 17.0217 617.701 15.972C618.757 14.9223 619.286 13.6477 619.286 12.1482C619.286 10.6487 618.757 9.37406 617.701 8.32439C616.645 7.27472 615.362 6.74988 613.853 6.74988C612.344 6.74988 611.061 7.27472 610.005 8.32439C608.949 9.37406 608.421 10.6487 608.421 12.1482C608.421 13.6477 608.949 14.9223 610.005 15.972Z" fill="#CBE8A3"/>
</g>
<mask id="mask12_1409_2" style="mask-type:luminance" maskUnits="userSpaceOnUse" x="608" y="48" width="29" height="13">
<path d="M608 48V61H637V48H608Z" fill="white"/>
</mask>
<g mask="url(#mask12_1409_2)">
<path d="M632 53H613V56H632V53Z" fill="#B2D581"/>
<path d="M637 54.5L630.25 60.1292V48.8708L637 54.5Z" fill="#B2D581"/>
<path d="M608 54.5L614.75 48.8708V60.1292L608 54.5Z" fill="#B2D581"/>
</g>
<mask id="mask13_1409_2" style="mask-type:luminance" maskUnits="userSpaceOnUse" x="644" y="8" width="13" height="33">
<path d="M657 8H644V41H657V8Z" fill="white"/>
</mask>
<g mask="url(#mask13_1409_2)">
<path d="M652 36V14H649V36H652Z" fill="#B2D581"/>
<path d="M650.5 41L644.871 34.25H656.129L650.5 41Z" fill="#B2D581"/>
<path d="M650.5 8L656.129 14.75H644.871L650.5 8Z" fill="#B2D581"/>
</g>
<mask id="mask14_1409_2" style="mask-type:luminance" maskUnits="userSpaceOnUse" x="660" y="16" width="44" height="44">
<path d="M699 16H665C662.239 16 660 18.2386 660 21V55C660 57.7614 662.239 60 665 60H699C701.761 60 704 57.7614 704 55V21C704 18.2386 701.761 16 699 16Z" fill="white"/>
</mask>
<g mask="url(#mask14_1409_2)">
<mask id="mask15_1409_2" style="mask-type:alpha" maskUnits="userSpaceOnUse" x="660" y="16" width="44" height="44">
<path d="M704 16H660V60H704V16Z" fill="#D9D9D9"/>
</mask>
<g mask="url(#mask15_1409_2)">
<path d="M682 38H660V60H682V38Z" fill="#7A97BA"/>
<path d="M704 38H682V60H704V38Z" fill="#92AAC7"/>
<path d="M704 16H682V38H704V16Z" fill="#BBCADC"/>
<path d="M682 16H660V38H682V16Z" fill="#92AAC7"/>
</g>
</g>
<mask id="mask16_1409_2" style="mask-type:luminance" maskUnits="userSpaceOnUse" x="689" y="0" width="31" height="31">
<path d="M720 0H689V31H720V0Z" fill="white"/>
</mask>
<g mask="url(#mask16_1409_2)">
<path d="M705 18L702 15L693.5 21.5L693 27L698 26.5L705 18Z" fill="white"/>
<path d="M718.299 1.70251C716.03 -0.567992 712.35 -0.567992 710.082 1.70251L705.412 6.37068L704.62 5.57812C704.046 5.00474 703.126 5.01382 702.562 5.57812L700.08 8.05873C699.512 8.62448 699.512 9.54576 700.08 10.1137L709.883 19.9162C710.454 20.4877 711.376 20.48 711.938 19.9162L714.424 17.4374C714.991 16.8698 714.991 15.9504 714.424 15.3825L713.631 14.5899L718.299 9.91994C720.569 7.64701 720.569 3.97302 718.299 1.70251ZM697.428 25.5326C697.337 25.6173 697.21 25.6718 697.083 25.6718H694.328V22.9169C694.328 22.7898 694.38 22.6651 694.47 22.5747L702 15L699.741 12.5089L692.076 20.1742C691.346 20.9068 690.938 21.8876 690.938 22.9169V25.6718L689 29.0624L690.938 30.9999L694.328 29.0624H697.083C698.11 29.0624 699.096 28.6537 699.823 27.9272L707.488 20.2619L705 18L697.428 25.5326Z" fill="#6B8CB3"/>
</g>
<path d="M731.628 2H759.258L775 17.3217V51.9972C775 53.7082 774.302 55.3491 773.059 56.559C771.816 57.7688 770.13 58.4485 768.372 58.4485H731.628C729.87 58.4485 728.184 57.7688 726.941 56.559C725.698 55.3491 725 53.7082 725 51.9972V8.45126C725 6.74028 725.698 5.09937 726.941 3.88953C728.184 2.67968 729.87 2 731.628 2Z" fill="#FFEA9A"/>
<path d="M744.773 23.445C746.177 21.8528 747.755 20.4159 749.477 19.1599C749.631 19.0558 749.813 19 750 19C750.187 19 750.369 19.0558 750.523 19.1599C752.245 20.4159 753.823 21.8528 755.227 23.445C758.352 26.9601 760 30.6761 760 34.18C760 36.7844 758.946 39.2822 757.071 41.1238C755.196 42.9654 752.652 44 750 44C747.348 44 744.804 42.9654 742.929 41.1238C741.054 39.2822 740 36.7844 740 34.18C740 30.6761 741.648 26.9601 744.773 23.445ZM758.182 34.18C758.182 27.797 751.875 22.463 750 21.0123V42.2145C752.169 42.2116 754.248 41.3642 755.782 39.858C757.316 38.3519 758.179 36.31 758.182 34.18Z" fill="#ECAF13"/>
<path d="M734 15H743V17.1344H736.134V24H734V15Z" fill="#ECAF13"/>
<path d="M767 49H758V46.8656H764.866V40H767V49Z" fill="#ECAF13"/>
<path d="M767 15V24H764.866V17.1344H758V15H767Z" fill="#ECAF13"/>
<path d="M734 49V40H736.134V46.8656H743V49H734Z" fill="#ECAF13"/>
<path d="M791.575 2H818.986L834.603 17.2V51.6C834.603 53.2974 833.91 54.9253 832.677 56.1255C831.444 57.3257 829.771 58 828.027 58H791.575C789.831 58 788.159 57.3257 786.926 56.1255C785.693 54.9253 785 53.2974 785 51.6V8.4C785 6.70261 785.693 5.07475 786.926 3.87452C788.159 2.67428 789.831 2 791.575 2Z" fill="#FFEA9A"/>
<path d="M793 15H802V17.1344H795.134V24H793V15Z" fill="#ECAF13"/>
<path d="M826 49H817V46.8656H823.866V40H826V49Z" fill="#ECAF13"/>
<path d="M826 15V24H823.866V17.1344H817V15H826Z" fill="#ECAF13"/>
<path d="M793 49V40H795.134V46.8656H802V49H793Z" fill="#ECAF13"/>
<path d="M809.5 20L821 42H798L809.5 20Z" fill="#ECAF13"/>
<path d="M810.321 40.3704V24.8889L817.304 40.3704H810.321Z" fill="#FFEA9A"/>
<path d="M850 23V54C850 56.7614 852.239 59 855 59H894C896.761 59 899 56.7614 899 54V23C899 20.2386 896.761 18 894 18H855C852.239 18 850 20.2386 850 23Z" fill="#8FBC5D"/>
<mask id="mask17_1409_2" style="mask-type:alpha" maskUnits="userSpaceOnUse" x="854" y="24" width="41" height="31">
<path d="M895 52V27C895 25.3431 893.657 24 892 24L857 24C855.343 24 854 25.3431 854 27V52C854 53.6569 855.343 55 857 55H892C893.657 55 895 53.6569 895 52Z" fill="#D9D9D9"/>
</mask>
<g mask="url(#mask17_1409_2)">
<path d="M864.432 34.7966C862.923 34.7966 861.641 34.2718 860.584 33.2221C859.528 32.1725 859 30.8979 859 29.3983C859 27.8988 859.528 26.6242 860.584 25.5745C861.641 24.5248 862.923 24 864.432 24C865.941 24 867.224 24.5248 868.28 25.5745C869.337 26.6242 869.865 27.8988 869.865 29.3983C869.865 30.8979 869.337 32.1725 868.28 33.2221C867.224 34.2718 865.941 34.7966 864.432 34.7966Z" fill="#CBE8A3"/>
<path d="M860.584 33.2221C861.641 34.2718 862.923 34.7966 864.432 34.7966C865.941 34.7966 867.224 34.2718 868.28 33.2221C869.337 32.1725 869.865 30.8979 869.865 29.3983C869.865 27.8988 869.337 26.6242 868.28 25.5745C867.224 24.5248 865.941 24 864.432 24C862.923 24 861.641 24.5248 860.584 25.5745C859.528 26.6242 859 27.8988 859 29.3983C859 30.8979 859.528 32.1725 860.584 33.2221Z" fill="#CBE8A3"/>
<path d="M849 55H903L898.472 48.7516L892.133 42.5031L881.403 32L868.526 44.6037L864.233 40.4025L857.795 46.7043L849 55Z" fill="#CBE8A3"/>
</g>
<mask id="mask18_1409_2" style="mask-type:luminance" maskUnits="userSpaceOnUse" x="840" y="3" width="18" height="19">
<path d="M858 22L840 22L840 3L858 3L858 22Z" fill="white"/>
</mask>
<g mask="url(#mask18_1409_2)">
<path d="M840 16.3966C840 11 844 8 848.397 8H854.19C855.037 8 855.724 8.68701 855.724 9.53448C855.724 10.382 855.037 11.069 854.19 11.069H848.397C846 11.069 843.069 13 843.069 16.3966C843.069 19.7931 843.069 20.1897 843.069 20.1897C843.069 21.0371 842.382 21.7241 841.534 21.7241C840.687 21.7241 840 21.0371 840 20.1897V16.3966Z" fill="#B2D581"/>
<path d="M858 9.50002L851.25 3.87085V15.1292L858 9.50002Z" fill="#B2D581"/>
</g>
<path fill-rule="evenodd" clip-rule="evenodd" d="M930.746 0.00553542L905.769 0C903.763 0 903.034 0.2077 902.303 0.600931C901.568 0.994162 900.992 1.56739 900.601 2.30123C900.208 3.03508 900 3.76339 900 5.76831V30.2317C900 32.2366 900.208 32.9649 900.601 33.6988C900.992 34.4326 901.568 35.0058 902.303 35.3991C903.034 35.7923 903.763 36 905.766 36H930.234C932.24 36 932.966 35.7923 933.7 35.3991C934.425 35.0155 935.018 34.4231 935.401 33.6988C935.759 33.0314 935.964 32.3695 935.997 30.7468L936 5.76831C936 3.76339 935.792 3.03508 935.399 2.30123C935.008 1.56739 934.429 0.994162 933.697 0.600931C933.032 0.2437 932.367 0.0387662 930.746 0.00553542Z" fill="#D6E0ED"/>
<path d="M906.485 16.2727L906.645 13.799L904.574 15.1861L903.717 13.6776L905.948 12.5909L903.717 11.5043L904.574 9.99577L906.645 11.3828L906.485 8.90912H908.204L908.038 11.3828L910.109 9.99577L910.966 11.5043L908.741 12.5909L910.966 13.6776L910.109 15.1861L908.038 13.799L908.204 16.2727H906.485ZM916.645 16.2727L916.805 13.799L914.734 15.1861L913.877 13.6776L916.108 12.5909L913.877 11.5043L914.734 9.99577L916.805 11.3828L916.645 8.90912H918.365L918.198 11.3828L920.269 9.99577L921.126 11.5043L918.901 12.5909L921.126 13.6776L920.269 15.1861L918.198 13.799L918.365 16.2727H916.645ZM926.805 16.2727L926.965 13.799L924.894 15.1861L924.037 13.6776L926.268 12.5909L924.037 11.5043L924.894 9.99577L926.965 11.3828L926.805 8.90912H928.525L928.358 11.3828L930.43 9.99577L931.286 11.5043L929.062 12.5909L931.286 13.6776L930.43 15.1861L928.358 13.799L928.525 16.2727H926.805Z" fill="#6B8CB3"/>
<path d="M905 28.05L917 28.0501" stroke="#6B8CB3" stroke-width="1.5"/>
<path d="M913 23.5147L917.243 27.7574L913 32" stroke="#6B8CB3" stroke-width="1.5" stroke-miterlimit="10" stroke-linecap="square"/>
<mask id="mask19_1409_2" style="mask-type:luminance" maskUnits="userSpaceOnUse" x="921" y="21" width="39" height="39">
<path d="M960 21H921V60H960V21Z" fill="white"/>
</mask>
<g mask="url(#mask19_1409_2)">
<path d="M925.875 21H950.422L960 30.88V55.84C960 56.9433 959.486 58.0014 958.572 58.7816C957.658 59.5617 956.418 60 955.125 60H925.875C924.582 60 923.342 59.5617 922.428 58.7816C921.514 58.0014 921 56.9433 921 55.84V25.16C921 24.0567 921.514 22.9986 922.428 22.2184C923.342 21.4383 924.582 21 925.875 21Z" fill="#6B8CB3"/>
<path d="M931.112 35.8182H933.24V42.9176C933.24 43.5739 933.092 44.1439 932.797 44.6278C932.506 45.1117 932.1 45.4846 931.579 45.7464C931.059 46.0083 930.454 46.1392 929.765 46.1392C929.152 46.1392 928.595 46.0315 928.094 45.8161C927.597 45.5973 927.203 45.2659 926.911 44.8217C926.619 44.3743 926.475 43.8125 926.479 43.1364H928.621C928.628 43.4048 928.683 43.6352 928.785 43.8274C928.891 44.0163 929.036 44.1622 929.218 44.2649C929.403 44.3643 929.622 44.4141 929.874 44.4141C930.139 44.4141 930.363 44.3577 930.545 44.245C930.731 44.129 930.872 43.96 930.968 43.7379C931.064 43.5159 931.112 43.2424 931.112 42.9176V35.8182ZM935.02 46V35.8182H939.037C939.809 35.8182 940.467 35.9657 941.01 36.2607C941.554 36.5523 941.968 36.9583 942.253 37.4787C942.542 37.9957 942.686 38.5923 942.686 39.2685C942.686 39.9446 942.54 40.5412 942.248 41.0582C941.957 41.5753 941.534 41.978 940.981 42.2663C940.43 42.5547 939.764 42.6989 938.982 42.6989H936.422V40.9737H938.634C939.048 40.9737 939.39 40.9025 939.658 40.7599C939.93 40.6141 940.132 40.4136 940.265 40.1584C940.401 39.8999 940.469 39.6032 940.469 39.2685C940.469 38.9304 940.401 38.6354 940.265 38.3835C940.132 38.1283 939.93 37.9311 939.658 37.7919C939.386 37.6494 939.042 37.5781 938.624 37.5781H937.172V46H935.02ZM950.836 39.1094C950.766 38.8674 950.668 38.6536 950.542 38.468C950.416 38.2791 950.262 38.12 950.08 37.9908C949.901 37.8582 949.695 37.7571 949.463 37.6875C949.235 37.6179 948.981 37.5831 948.703 37.5831C948.182 37.5831 947.725 37.7124 947.331 37.9709C946.94 38.2294 946.635 38.6056 946.416 39.0994C946.197 39.59 946.088 40.1899 946.088 40.8991C946.088 41.6084 946.195 42.2116 946.411 42.7088C946.626 43.206 946.931 43.5855 947.326 43.8473C947.72 44.1058 948.186 44.2351 948.723 44.2351C949.21 44.2351 949.626 44.1489 949.971 43.9766C950.319 43.8009 950.584 43.554 950.766 43.2358C950.952 42.9176 951.044 42.5414 951.044 42.1072L951.482 42.1719H948.857V40.5511H953.118V41.8338C953.118 42.7287 952.929 43.4976 952.551 44.1406C952.173 44.7803 951.653 45.2741 950.99 45.6222C950.327 45.9669 949.568 46.1392 948.713 46.1392C947.758 46.1392 946.92 45.9287 946.197 45.5078C945.475 45.0836 944.911 44.482 944.507 43.7031C944.106 42.9209 943.905 41.9929 943.905 40.919C943.905 40.0937 944.025 39.358 944.263 38.7116C944.505 38.062 944.843 37.5118 945.277 37.0611C945.712 36.6103 946.217 36.2673 946.794 36.032C947.37 35.7966 947.995 35.679 948.668 35.679C949.245 35.679 949.782 35.7635 950.279 35.9325C950.776 36.0982 951.217 36.3336 951.601 36.6385C951.989 36.9434 952.306 37.3063 952.551 37.7273C952.796 38.1449 952.953 38.6056 953.023 39.1094H950.836Z" fill="white"/>
</g>
<path fill-rule="evenodd" clip-rule="evenodd" d="M990.746 0.00553542L965.769 0C963.763 0 963.034 0.2077 962.303 0.600931C961.568 0.994162 960.992 1.56739 960.601 2.30123C960.208 3.03508 960 3.76339 960 5.76831V30.2317C960 32.2366 960.208 32.9649 960.601 33.6988C960.992 34.4326 961.568 35.0058 962.303 35.3991C963.034 35.7923 963.763 36 965.766 36H990.234C992.24 36 992.966 35.7923 993.7 35.3991C994.425 35.0155 995.018 34.4231 995.401 33.6988C995.759 33.0314 995.964 32.3695 995.997 30.7468L996 5.76831C996 3.76339 995.792 3.03508 995.399 2.30123C995.008 1.56739 994.429 0.994162 993.697 0.600931C993.032 0.2437 992.367 0.0387662 990.746 0.00553542Z" fill="#F2D1AB"/>
<path d="M966.985 16.2727L967.145 13.799L965.074 15.1861L964.217 13.6776L966.448 12.5909L964.217 11.5043L965.074 9.99577L967.145 11.3828L966.985 8.90912H968.704L968.538 11.3828L970.609 9.99577L971.466 11.5043L969.241 12.5909L971.466 13.6776L970.609 15.1861L968.538 13.799L968.704 16.2727H966.985ZM977.145 16.2727L977.305 13.799L975.234 15.1861L974.377 13.6776L976.608 12.5909L974.377 11.5043L975.234 9.99577L977.305 11.3828L977.145 8.90912H978.865L978.698 11.3828L980.769 9.99577L981.626 11.5043L979.401 12.5909L981.626 13.6776L980.769 15.1861L978.698 13.799L978.865 16.2727H977.145ZM987.305 16.2727L987.465 13.799L985.394 15.1861L984.537 13.6776L986.768 12.5909L984.537 11.5043L985.394 9.99577L987.465 11.3828L987.305 8.90912H989.025L988.858 11.3828L990.93 9.99577L991.786 11.5043L989.562 12.5909L991.786 13.6776L990.93 15.1861L988.858 13.799L989.025 16.2727H987.305Z" fill="#CE924C"/>
<path d="M965 28.05L977 28.0501" stroke="#CE924C" stroke-width="1.5"/>
<path d="M973 23.5147L977.243 27.7574L973 32" stroke="#CE924C" stroke-width="1.5" stroke-miterlimit="10" stroke-linecap="square"/>
<mask id="mask20_1409_2" style="mask-type:luminance" maskUnits="userSpaceOnUse" x="981" y="21" width="39" height="39">
<path d="M1020 21H981V60H1020V21Z" fill="white"/>
</mask>
<g mask="url(#mask20_1409_2)">
<path d="M985.875 21H1010.42L1020 30.88V55.84C1020 56.9433 1019.49 58.0014 1018.57 58.7816C1017.66 59.5617 1016.42 60 1015.12 60H985.875C984.582 60 983.342 59.5617 982.428 58.7816C981.514 58.0014 981 56.9433 981 55.84V25.16C981 24.0567 981.514 22.9986 982.428 22.2184C983.342 21.4383 984.582 21 985.875 21Z" fill="#D7A161"/>
<path d="M986.38 46V35.8182H990.397C991.169 35.8182 991.827 35.9657 992.371 36.2607C992.914 36.5523 993.329 36.9583 993.614 37.4787C993.902 37.9957 994.046 38.5923 994.046 39.2685C994.046 39.9446 993.9 40.5412 993.609 41.0582C993.317 41.5753 992.895 41.978 992.341 42.2663C991.791 42.5547 991.125 42.6989 990.342 42.6989H987.782V40.9737H989.994C990.409 40.9737 990.75 40.9025 991.019 40.7599C991.29 40.6141 991.493 40.4136 991.625 40.1584C991.761 39.8999 991.829 39.6032 991.829 39.2685C991.829 38.9304 991.761 38.6354 991.625 38.3835C991.493 38.1283 991.29 37.9311 991.019 37.7919C990.747 37.6494 990.402 37.5781 989.984 37.5781H988.533V46H986.38ZM1003.96 35.8182V46H1002.1L997.672 39.5916H997.597V46H995.445V35.8182H997.334L1001.73 42.2216H1001.82V35.8182H1003.96ZM1012.49 39.1094C1012.42 38.8674 1012.32 38.6536 1012.2 38.468C1012.07 38.2791 1011.92 38.12 1011.74 37.9908C1011.56 37.8582 1011.35 37.7571 1011.12 37.6875C1010.89 37.6179 1010.64 37.5831 1010.36 37.5831C1009.84 37.5831 1009.38 37.7124 1008.99 37.9709C1008.59 38.2294 1008.29 38.6056 1008.07 39.0994C1007.85 39.59 1007.74 40.1899 1007.74 40.8991C1007.74 41.6084 1007.85 42.2116 1008.07 42.7088C1008.28 43.206 1008.59 43.5855 1008.98 43.8473C1009.38 44.1058 1009.84 44.2351 1010.38 44.2351C1010.87 44.2351 1011.28 44.1489 1011.63 43.9766C1011.97 43.8009 1012.24 43.554 1012.42 43.2358C1012.61 42.9176 1012.7 42.5414 1012.7 42.1072L1013.14 42.1719H1010.51V40.5511H1014.77V41.8338C1014.77 42.7287 1014.58 43.4976 1014.21 44.1406C1013.83 44.7803 1013.31 45.2741 1012.64 45.6222C1011.98 45.9669 1011.22 46.1392 1010.37 46.1392C1009.41 46.1392 1008.57 45.9287 1007.85 45.5078C1007.13 45.0836 1006.57 44.482 1006.16 43.7031C1005.76 42.9209 1005.56 41.9929 1005.56 40.919C1005.56 40.0937 1005.68 39.358 1005.92 38.7116C1006.16 38.062 1006.5 37.5118 1006.93 37.0611C1007.37 36.6103 1007.87 36.2673 1008.45 36.032C1009.03 35.7966 1009.65 35.679 1010.32 35.679C1010.9 35.679 1011.44 35.7635 1011.93 35.9325C1012.43 36.0982 1012.87 36.3336 1013.26 36.6385C1013.64 36.9434 1013.96 37.3063 1014.21 37.7273C1014.45 38.1449 1014.61 38.6056 1014.68 39.1094H1012.49Z" fill="white"/>
</g>
<path d="M1031.63 2H1059.26L1075 17.2V51.6C1075 53.2974 1074.3 54.9253 1073.06 56.1255C1071.82 57.3257 1070.13 58 1068.37 58H1031.63C1029.87 58 1028.18 57.3257 1026.94 56.1255C1025.7 54.9253 1025 53.2974 1025 51.6V8.4C1025 6.70261 1025.7 5.07475 1026.94 3.87452C1028.18 2.67428 1029.87 2 1031.63 2Z" fill="#CBE8A3"/>
<rect x="1034" y="44" width="31" height="4" fill="#8FBC5D"/>
<rect x="1036" y="49" width="24" height="4" fill="#8FBC5D"/>
<g clip-path="url(#clip1_1409_2)">
<path d="M1063.69 25.6411C1063.93 25.9302 1064.23 26.2497 1064.49 26.5921C1065.15 27.4593 1065.53 28.4483 1065.71 29.5134C1065.73 29.6579 1065.82 29.8177 1065.94 29.9166C1066.54 30.4567 1066.63 31.2023 1066.09 31.8033C1065.82 32.0999 1065.46 32.313 1065.15 32.5792C1065.05 32.6705 1064.94 32.8455 1064.96 32.9672C1065.07 34.0703 1064.62 34.8311 1063.55 35.2114C1063.27 35.3103 1062.95 35.4168 1062.66 35.4016C1062.15 35.3788 1061.8 35.5918 1061.43 35.8961C1059.63 37.3644 1057.5 38.1175 1055.24 38.5435C1052.69 39.0304 1050.1 39.0532 1047.51 38.9467C1045.89 38.8783 1044.25 38.8174 1042.62 38.6805C1040.49 38.5055 1038.39 38.1556 1036.41 37.3111C1035.09 36.7482 1033.93 35.9798 1033.08 34.8006C1032.49 33.9866 1032.13 33.0661 1032.07 32.0847C1031.89 29.2395 1032.01 26.4095 1032.9 23.6556C1033.27 22.4764 1033.77 21.3581 1034.41 20.293C1035.11 19.1291 1036.11 18.3379 1037.4 17.9119C1037.67 17.8282 1037.78 17.676 1037.86 17.4174C1038.41 15.6068 1039.18 13.8951 1040.61 12.6018C1042.92 10.5249 1045.59 9.51312 1048.76 10.2282C1049.86 10.4793 1050.78 11.0955 1051.64 11.7878C1051.88 11.978 1052.05 12.0008 1052.32 11.8486C1053.77 11.0574 1055.29 10.5325 1056.95 10.4336C1059.86 10.2663 1061.89 11.8182 1062.4 14.6406C1062.45 14.9449 1062.59 15.059 1062.87 15.1731C1063.57 15.4546 1064.3 15.7209 1064.89 16.1621C1065.42 16.5653 1065.84 17.1283 1066.42 17.5087C1066.52 17.5771 1066.6 17.6912 1066.66 17.7977C1066.97 18.2998 1067.33 18.7867 1067.56 19.3193C1067.78 19.8137 1067.91 20.3539 1067.99 20.8864C1068.07 21.3885 1067.73 21.7385 1067.33 22.0047C1067.14 22.1264 1067.04 22.2406 1067.02 22.4764C1066.97 23.0089 1066.56 23.2752 1066.09 23.3741C1065.62 23.4806 1065.38 23.7621 1065.11 24.1196C1064.7 24.6674 1064.18 25.1314 1063.69 25.6411ZM1062.37 22.697C1063.85 22.5296 1065.3 22.1797 1066.7 21.6548C1066.83 21.6091 1066.96 21.5331 1067.07 21.4494C1067.45 21.1755 1067.51 20.856 1067.21 20.506C1067 20.2702 1066.76 20.0572 1066.49 19.8746C1065.54 19.2204 1064.44 18.8856 1063.3 18.7183C1061.81 18.5129 1060.33 18.4444 1058.87 18.8932C1057.88 19.1975 1057.08 19.7605 1056.48 20.6658C1056.38 19.8518 1055.92 19.3877 1055.22 19.2432C1053.94 18.9769 1052.66 18.6726 1051.35 18.5661C1049.4 18.3987 1047.57 18.8856 1045.96 20.042C1045.53 20.3539 1045.16 20.7343 1044.76 21.0842C1044.82 21.1831 1044.84 21.2211 1044.86 21.244C1044.94 21.3124 1045.01 21.3733 1045.1 21.4342C1046.03 22.1112 1047.06 22.5981 1048.19 22.8568C1050.9 23.4806 1053.48 22.9404 1055.96 21.9743C1056.07 22.0656 1056.17 22.2177 1056.31 22.2558C1058.07 22.7807 1059.86 22.8948 1061.69 22.7579L1062.37 22.697Z" fill="#8FBC5D"/>
<path d="M1044.31 29.8004C1044.67 30.265 1045.22 30.4934 1045.71 30.7676C1047.79 31.9099 1050.02 32.5953 1052.38 32.8543C1054.36 33.0675 1056.36 33.0979 1058.35 33.0523C1060.22 33.0066 1062.08 32.9076 1063.94 32.641C1064.14 32.6106 1064.22 32.7019 1064.29 32.8543C1064.53 33.4254 1064.3 34.1108 1063.75 34.4459C1063.31 34.7124 1062.82 34.7962 1062.32 34.8114C1060.83 34.8495 1059.34 34.7734 1057.85 34.7505C1056.73 34.7353 1055.62 34.6972 1054.52 34.583C1053.03 34.4307 1051.54 34.3012 1050.05 34.0727C1048.16 33.7757 1046.38 33.2274 1044.7 32.3364C1043.86 31.8871 1043.14 31.2778 1042.54 30.5467C1041.79 29.6329 1042.21 28.9018 1043.04 28.3687C1043.94 27.7899 1044.85 27.8204 1045.68 28.6352C1046.45 29.3968 1047.44 29.8385 1048.46 30.2117C1050.33 30.8971 1052.28 31.2093 1054.25 31.4225C1055.82 31.5901 1057.41 31.6205 1058.98 31.552C1060.78 31.4682 1062.56 31.1941 1064.25 30.5544C1064.49 30.463 1064.74 30.402 1064.99 30.3259C1065.27 30.2421 1065.52 30.303 1065.7 30.5544C1065.88 30.8209 1065.92 31.1103 1065.7 31.3616C1065.17 31.9785 1064.55 32.4582 1063.7 32.5192C1062.73 32.5877 1061.77 32.7552 1060.8 32.7781C1058.93 32.8238 1057.07 32.8923 1055.2 32.8238C1053.42 32.7553 1051.63 32.7324 1049.89 32.2374C1047.98 31.6815 1046.12 31.0113 1044.47 29.8537C1044.43 29.8233 1044.38 29.8156 1044.33 29.8004C1044.3 29.7319 1044.26 29.671 1044.17 29.6862C1044.16 29.6862 1044.15 29.709 1044.15 29.7166C1044.15 29.8004 1044.24 29.7852 1044.31 29.8004Z" fill="#CA7463"/>
<path d="M1062.29 22.6666C1062.6 22.5601 1062.94 22.4688 1063.26 22.3166C1064.06 21.9286 1064.4 21.3352 1064.32 20.5897C1064.21 19.692 1063.64 18.9845 1062.84 18.7715C1062.04 18.5585 1061.28 18.7182 1060.56 19.0606C1060.17 19.2508 1059.98 19.6388 1059.93 20.0572C1059.88 20.468 1059.86 20.894 1059.9 21.3048C1059.96 22.1036 1060.4 22.5296 1061.21 22.6514L1062.29 22.6666ZM1061.7 22.7655C1059.87 22.9024 1058.07 22.7807 1056.32 22.2634C1056.18 22.2253 1056.08 22.0732 1055.97 21.9819C1053.5 22.9404 1050.92 23.4882 1048.2 22.8644C1047.07 22.6057 1046.05 22.1188 1045.11 21.4418C1045.03 21.3809 1044.95 21.32 1044.87 21.2516C1044.84 21.2287 1044.84 21.1907 1044.77 21.0918C1045.17 20.7495 1045.55 20.3615 1045.98 20.0496C1047.58 18.8932 1049.41 18.4139 1051.37 18.5737C1052.66 18.6802 1053.95 18.9845 1055.23 19.2508C1055.94 19.4029 1056.4 19.8594 1056.49 20.6734C1057.1 19.7605 1057.9 19.1975 1058.88 18.9008C1060.34 18.452 1061.83 18.5205 1063.31 18.7259C1064.46 18.8856 1065.55 19.2203 1066.51 19.8822C1066.77 20.0648 1067.02 20.2778 1067.23 20.5136C1067.53 20.8636 1067.47 21.1831 1067.09 21.457C1066.97 21.5407 1066.85 21.6091 1066.72 21.6624C1065.31 22.1797 1063.87 22.5296 1062.38 22.7046L1061.7 22.7655ZM1048.39 20.894C1048.39 20.894 1048.4 20.894 1048.41 20.894C1048.41 21.0462 1048.4 21.1983 1048.41 21.3505C1048.46 22.1797 1048.91 22.6666 1049.74 22.7731C1050.44 22.8644 1051.12 22.7655 1051.76 22.446C1052.54 22.058 1052.92 21.4722 1052.85 20.7723C1052.76 19.8366 1052.21 19.1291 1051.4 18.9008C1050.73 18.7106 1050.08 18.8248 1049.43 19.0225C1048.86 19.1975 1048.57 19.6007 1048.46 20.1409C1048.41 20.3843 1048.41 20.643 1048.39 20.894Z" fill="white"/>
<path d="M1048.39 20.894C1048.41 20.643 1048.4 20.3843 1048.46 20.1409C1048.57 19.6007 1048.86 19.1975 1049.43 19.0226C1050.08 18.8248 1050.73 18.7183 1051.4 18.9008C1052.21 19.1291 1052.76 19.8366 1052.85 20.7723C1052.92 21.4798 1052.54 22.058 1051.76 22.446C1051.12 22.7655 1050.44 22.8644 1049.74 22.7731C1048.91 22.6666 1048.46 22.1721 1048.41 21.3505C1048.4 21.1983 1048.41 21.0462 1048.41 20.894C1048.4 20.894 1048.39 20.894 1048.39 20.894Z" fill="#55555D"/>
<path d="M1061.58 22.7122C1061.45 22.697 1061.33 22.6742 1061.21 22.6589C1060.4 22.5372 1059.96 22.1112 1059.9 21.3124C1059.86 20.9016 1059.88 20.4756 1059.93 20.0648C1059.97 19.654 1060.16 19.266 1060.56 19.0682C1061.28 18.7258 1062.04 18.5661 1062.84 18.7791C1063.65 18.9921 1064.22 19.692 1064.32 20.5973C1064.4 21.3428 1064.06 21.9362 1063.26 22.3242C1062.94 22.4764 1062.6 22.5753 1062.28 22.6742L1061.58 22.7122Z" fill="#55555D"/>
</g>
</g>
<defs>
<clipPath id="clip0_1409_2">
<rect width="1080" height="60" fill="white"/>
</clipPath>
<clipPath id="clip1_1409_2">
<rect width="36" height="29" fill="white" transform="translate(1032 10)"/>
</clipPath>
</defs>
</svg>
