<?xml version="1.0" encoding="utf-8"?>
<!-- Generator: Adobe Illustrator 19.2.1, SVG Export Plug-In . SVG Version: 6.00 Build 0)  -->
<svg version="1.1" id="Layer_1" xmlns="http://www.w3.org/2000/svg" xmlns:xlink="http://www.w3.org/1999/xlink" x="0px" y="0px"
	 viewBox="0 0 1724.4 1732.4" style="enable-background:new 0 0 1724.4 1732.4;" xml:space="preserve">
<style type="text/css">
	.st0{opacity:0.8;fill:#FFFFFF;}
</style>
<path class="st0" d="M-11.1-8.6v1761.7h1750.7V-8.6H-11.1z M1724.1,938.7c-4.1,28.8-8.6,57.5-12.7,86.3c-0.7,5.1-2.6,7.8-7.8,9.2
	c-24.5,6.5-48.9,13.5-73.3,20.2c-4,1.1-8.3,1.1-12.2,2.3c-1.7,0.5-3.8,2.6-4.2,4.3c-2.5,9.6-4.7,19.4-6.7,29.1
	c-0.4,1.8,0.1,4.5,1.2,5.8c9.3,10.5,19,20.6,28.3,31.1c11.1,12.6,21.9,25.4,32.6,38.2c0.8,1,1,3.1,0.5,4.3
	c-10.7,25.9-19.7,52.5-33,77.3c-4.2,7.8-8.4,10.5-17,10.1c-20.8-0.9-41.6-0.7-62.5-1.1c-6.6-0.1-13.3-0.9-19.9-1.6
	c-3-0.3-4.9,0.4-6.4,3.3c-4.1,8-8.5,15.8-13,23.6c-2.5,4.3-1.2,8.2,1.5,11.5c8.4,10.5,13,23.1,18.6,35.1c5.2,11.1,10.9,22,17.3,32.5
	c5,8.2,5.4,14.6-1.1,22.5c-7.3,8.9-12.8,19.4-19.5,28.8c-3.2,4.6-7.7,8.2-11.4,12.5c-4,4.6-7.3,10.1-12,13.9
	c-5.9,4.7-10.6,11.9-20.8,8.8c-16.3-5-33-8.9-49.7-12.7c-11.2-2.5-22.4-4.7-32.8-9.8c-2.8-1.4-5.4-0.7-7.9,2
	c-6,6.6-12.6,12.7-19,18.9c-2,1.9-2.4,3.7-1.7,6.6c5,20.5,9.7,41,14.4,61.6c0.6,2.7,0.6,5.6,1,8.4c0.7,4.2,1.2,8.5,2.4,12.6
	c1.7,6.1,0.9,9.2-4.3,13.1c-16.8,12.5-33.4,25-50.3,37.3c-6.7,4.8-13.7,9.1-20.8,13.4c-1.4,0.8-3.9,1-5.3,0.2
	c-13.7-7.4-27.4-14.8-40.8-22.8c-13.2-7.9-25.9-16.6-39-24.7c-1.2-0.7-3.6-0.6-4.9,0.1c-9.3,4.5-18.4,9.1-27.5,13.9
	c-1.4,0.8-2.3,2.8-3,4.4c-0.4,0.8,0,2-0.1,3c-1,27.1-1.9,54.1-3,81.2c-0.3,6.8-2.4,11.9-10.2,14.4c-19.3,6.2-38.2,13.3-57.2,20.3
	c-6.2,2.3-12.2,5.1-18.2,7.9c-4.5,2.1-8,2-11.7-2.2c-19.7-21.8-39.8-43.3-59.6-65c-2.4-2.6-4.4-3.7-8.1-2.9c-9,2-18.1,3.2-27.2,5.1
	c-1.3,0.3-2.8,2.3-3.3,3.8c-5.3,14.8-10.4,29.8-15.7,44.6c-5,14.1-10.2,28.1-15.6,42c-0.7,1.8-3.7,3.4-5.9,3.8
	c-10.8,1.7-21.6,3.5-32.5,4.3c-18.1,1.3-36.2,1.8-54.3,2.9c-6.4,0.4-9.7-2.5-12.3-7.8c-11.9-24.6-24.2-49.1-36.1-73.7
	c-2.1-4.4-4.7-6.5-9.8-6.5c-8.6-0.1-17.3-1.2-25.9-1.6c-1.5-0.1-3.8,0.6-4.6,1.7c-5.5,7.9-10.5,16-15.9,23.9
	c-9,13.1-18.1,26.2-27.2,39.2c-3.3,4.7-6.9,9.3-10.8,13.7c-1,1.2-3.4,2.1-4.9,1.9c-14.9-2.5-29.9-5.1-44.7-8.2
	c-11.4-2.4-22.5-6.7-33.9-7.9c-11.5-1.2-15.9-6.6-17.9-17.3c-4.1-21.7-10.9-42.9-12.8-65c-0.5-5.8-1.7-11.5-3-17.2
	c-0.3-1.3-1.9-2.8-3.2-3.2c-9.1-3.2-18.2-6.3-27.4-9.1c-1.7-0.5-4.4,0.2-5.8,1.4c-8.5,7.4-16.5,15.4-25.1,22.7
	c-7.4,6.3-15.4,11.9-23.2,17.8c-7.3,5.5-14.8,10.6-21.9,16.3c-2.3,1.9-4.2,2.2-6.7,1c-12.5-6.3-24.9-12.7-37.4-18.8
	c-6.1-3-12.6-5-18.6-8.1c-5.4-2.8-10.3-6.6-15.4-9.9c-2.9-1.9-6.1-3.4-8.8-5.4c-1.4-1-3-2.9-2.9-4.4c0.4-13.8,0.9-27.6,1.8-41.4
	c0.8-12,2-23.9,3.2-35.8c0.3-3.5,0.6-7.1,1.7-10.3c2.1-5.6-0.1-8.4-4.7-11.6c-6.2-4.2-11.6-9.6-17.1-14.8c-3.2-3-5.9-3.6-10-1.3
	c-12.5,6.7-25.2,13.2-38.2,19.1c-15.1,6.9-30.4,13.1-45.8,19.4c-1.6,0.6-4.4,0.1-5.7-1c-19.1-17-38.2-34.1-56.9-51.4
	c-4.1-3.8-7.2-8.6-10.4-13.2c-0.7-1-0.4-3,0-4.3c8.2-24.9,16.5-49.8,24.7-74.7c0.7-2.1,1-4.4,2.1-6.1c4.4-6.4,1.5-10.6-3.4-15.1
	c-5-4.6-8.8-10.3-13.5-15.2c-1.4-1.5-4.3-2.7-6.2-2.4c-19.1,3-38,6.7-57.1,9.5c-12,1.8-24.2,2.5-36.5,3.8
	c-9.8-15.6-19.4-30.7-28.8-45.8c-4.7-7.5-9-15.1-13.6-22.6c-2.5-4.1-5.7-7.8-7.7-12c-0.9-1.9-0.6-5.2,0.4-7.2
	c14.5-27.1,35.2-49.8,53.7-74.1c2.1-2.7,3.3-4.9,1.5-8.3c-4.6-8.7-8.7-17.7-13.4-26.3c-1-1.8-3.6-3.5-5.7-3.7
	c-14.7-2-29.4-3.4-44.1-5.5c-15-2.2-29.9-5-44.7-7.8c-1.3-0.3-2.8-2-3.5-3.4c-5.5-10.9-8.3-22.6-11.4-34.4
	c-4.3-16.7-9.4-33.2-14.4-49.7c-1.2-4.1-0.9-6.7,2.5-9.5c24-19.5,47.8-39,71.6-58.7c1.5-1.2,2.8-3.9,2.6-5.6
	c-1.1-8.6-2.9-17.1-4.2-25.6c-0.5-3.2-1.8-5.5-4.9-6.8c-9.9-4.2-19.6-8.9-29.6-13.1c-14.4-6.1-28.9-11.6-43.2-17.8
	c-13.4-5.8-13.3-6-13.3-20.4c0-25.8,0.2-51.7-0.2-77.5c-0.1-5.4,1.7-8,6.4-9.9c10.7-4.4,21.3-9.2,32-13.8
	c14-6.1,27.9-12.2,41.9-18.3c1.5-0.7,3.1-1.2,4.7-1.7c3.9-1.2,5.8-3.8,6.3-7.9c1.2-9.2,3-18.4,4.1-27.6c0.2-1.8-1.1-4.6-2.6-5.5
	c-25.9-16.7-49.4-36.4-72.3-56.9c-2.6-2.3-3.1-4.4-2.2-7.4c4.4-14.6,8.8-29.3,13.1-43.9c3.6-12.3,7-24.6,10.5-36.8
	c1.4-4.8,3.3-8,9.4-8.9c24.8-3.8,49.5-8.5,74.2-12.9c2.3-0.4,4.6-1.2,6.9-1.3c5.9-0.2,9.4-2.3,11.7-8.5c2.5-6.8,7-12.9,11-19.2
	c2.2-3.4,1.9-5.8-0.6-9.1c-18.2-24.7-36.1-49.6-53.9-74.6c-1-1.4-1.3-4.1-0.7-5.8c4.6-13.4,12.5-24.8,21-35.9
	c4.1-5.3,7.2-11.4,10.6-17.2c3-5,5.8-10.1,8.8-15c2.4-4,5.1-7.8,8.5-13c6.2,0.5,14.2,0.9,22,2c19.9,2.7,39.9,5.7,59.8,8.7
	c3.6,0.5,7.4,0.7,10.8,2.1c5.2,2.1,7.9-0.2,10.7-4c5.2-6.9,10.8-13.4,16-20.4c1-1.4,1.4-4.1,0.8-5.7c-8.2-21.4-16.8-42.6-24.9-64
	c-2.8-7.3-4.8-14.9-6.6-22.4c-0.4-1.7,0.9-4.4,2.2-5.9c15.3-17.7,34.1-31.4,52-46.2c5-4.1,10-8.3,14.6-12.7c2.6-2.5,5-2.8,8.1-1.5
	c26.2,11.1,53.4,19.9,78.1,34.4c5.1,3,8.7,3.2,13.4-1.1c5.5-5,12.3-8.4,18.1-13c1.9-1.5,3.6-4.7,3.4-7c-1.1-18.8-2.8-37.5-4-56.3
	c-0.7-11.5-1-23-0.9-34.5c0-2.3,2.1-5.5,4.1-6.7c10.3-6.4,20.8-12.6,31.6-18.2c15.2-7.9,30.7-15.2,45.9-23.1c3.8-2,6.1-1.8,9.4,1.4
	c5.3,5.1,11.7,9.2,17.4,13.9c16,13.5,31.9,27,47.7,40.7c2.9,2.5,5.3,3.1,8.9,1.8c8.1-3,16.3-5.6,24.6-8.1c3.5-1.1,5.3-3.1,5.8-6.6
	c2.2-13.8,4.1-27.6,6.7-41.3c2-10.8,4.9-21.4,7.3-32.1c1.1-4.7,2-9.4,3.5-14c0.5-1.6,2.1-3.5,3.6-4C655,25.7,670.8,20.5,687,17
	c13.5-2.9,27.4-3.8,41.1-5.2c1.9-0.2,4.6,1,5.8,2.5c8.4,10.1,16.5,20.4,24.7,30.6c4.5,5.6,9.4,10.8,13.4,16.7
	c5,7.4,9.2,15.3,13.7,23c2.4,4.2,5.7,5.8,10.6,5.7c9-0.3,18-0.2,27-0.1c2.9,0,4.4-0.8,5.3-3.8c6.7-22.7,19.7-42.3,30.6-63
	c3.3-6.3,6.2-12.9,8.9-19.4c1.1-2.6,2.3-3.5,5.2-3.4c14.8,0.9,29.8,0.2,44.3,2.6c13.1,2.2,26.1,1.9,39.2,2.6
	c7,0.4,11.7,3.5,15.2,10.5C983.3,38.5,989.5,63,997.4,87c1,3.2,2.2,6.3,2.8,9.5c1.1,5.3,4.9,7.4,9.4,7.1c8.4-0.4,16.1,2.1,23.9,4.5
	c3.3,1,5.5,0.5,7.8-2.3c18.4-21.9,37.4-43.2,57.7-63.4c6.8-6.7,12.6-6.5,20-3.6c18.8,7.4,37.6,14.8,56.5,22.1
	c5.4,2.1,11.1,3.3,16.5,5.4c1.5,0.6,3.3,2.7,3.5,4.3c2,23.8,3.8,47.7,5.4,71.5c0.5,7.5,0.4,15,0.4,22.5c0,2.8,0.7,4.5,3.6,5.7
	c7.2,2.8,14.3,6.1,21.4,9.3c2.7,1.2,5.2,2.7,8,4.2c15.1-9.9,30.6-20.2,46.3-30.1c10.6-6.8,21.5-13.1,32.4-19.4
	c1.5-0.9,4-1.5,5.3-0.8c9.1,5.1,18.3,10.1,26.8,16.1c9.6,6.7,18.5,14.4,27.9,21.4c6.8,5,13.9,9.7,20.9,14.4c2.8,1.9,5,3.6,2.9,7.5
	c-0.9,1.7-1,3.9-1.3,5.8c-1.6,10-2.8,20.1-4.9,29.9c-2.8,13.1-6.4,26.1-9.7,39.1c-1.3,5.2-2.4,10.4-4.2,15.4
	c-1.1,3.3,0.3,4.9,2.5,6.7c6.9,5.4,14,10.7,20.6,16.5c2.7,2.3,5.1,2.7,8.2,1.8c7.3-2.1,14.9-3.5,21.8-6.5
	c14.6-6.2,30.2-7.6,45.4-11.3c6.9-1.7,13.8-3.7,20.7-5.4c1.2-0.3,3.2-0.3,3.9,0.4c9.2,9.6,18.5,19.1,27.1,29.2
	c7.5,8.8,13.9,18.5,20.9,27.8c3.6,4.8,7.1,9.6,10.9,14.2c2,2.4,2,4.6,0.7,7.3c-8,16.2-15.9,32.5-23.9,48.7c-0.7,1.5-1.8,2.8-2.7,4.2
	c-4.7,7.9-8.7,16.5-14.4,23.6c-5.3,6.5-3,10.8,0.9,16.2c4,5.5,7.4,11.4,10.9,17.2c1.8,2.9,3.9,4.6,7.6,4.3c14.1-1,28.2-2.3,42.4-2.4
	c13.5-0.2,27,1.5,40.4,1.2c9.2-0.2,13.4,4.5,17.1,11.8c10.6,20.9,20.6,42,27.3,64.5c1.1,3.8,2.9,7.4,4.6,11c1.3,2.6,0.8,4.3-1.3,6.5
	c-16.3,17.7-32.2,35.7-48.5,53.4c-3.9,4.2-8.7,7.5-13.2,11.1c-2.3,1.9-3.1,3.7-2.1,6.8c3.3,10.1,6.1,20.3,9.4,30.4
	c0.5,1.5,2.6,3,4.2,3.4c13.8,3.5,27.8,6.6,41.6,10.2c7.9,2,15.5,4.7,23.3,7c6,1.8,12.1,3.6,18.2,5.1c5.8,1.4,8.6,4.1,9.3,9.9
	c1.7,13.5,3.1,27.1,5.1,40.6c1.2,8,3.7,15.9,4.8,23.9c1,7.6,0.9,15.3,1,22.9c0,1.6-1.3,3.8-2.7,4.7c-11.7,7.3-23.6,14.2-35.2,21.4
	c-5.8,3.6-11,7.9-16.9,11.4c-8.5,5.1-17.4,9.6-26,14.6c-1.4,0.8-2.9,3.1-2.9,4.7c0.4,9.5,1.2,18.9,2.2,28.3c0.2,1.6,1.8,3.6,3.3,4.5
	c14.5,8.7,29.1,17.2,43.6,25.8c11.7,7,23.3,13.9,34.8,21.3C1723.2,933.1,1724.4,936.6,1724.1,938.7z"/>
</svg>
