<?xml version="1.0" encoding="utf-8"?>
<!-- Generator: Adobe Illustrator 19.2.1, SVG Export Plug-In . SVG Version: 6.00 Build 0)  -->
<svg version="1.1" id="Layer_1" xmlns="http://www.w3.org/2000/svg" xmlns:xlink="http://www.w3.org/1999/xlink" x="0px" y="0px"
	 viewBox="0 0 1732.5 1731.2" style="enable-background:new 0 0 1732.5 1731.2;" xml:space="preserve">
<style type="text/css">
	.st0{opacity:0.8;fill:#FFFFFF;}
</style>
<path class="st0" d="M-12.3-15.9v1770h1770v-1770H-12.3z M1574.8,893.6c20.2,4,40.8,6,61.1,9.4c16.4,2.8,32.6,6.3,48.8,9.9
	c5.5,1.2,10.7,3.4,16.1,5.2c8.2,2.7,13.9,8.9,18,15.7c4.9,7.9,9.2,16.8,11,25.8c1.5,7.4-0.5,15.8-1.8,23.6
	c-2.3,14-7.3,27.3-20.1,34.5c-9.2,5.2-19.8,8.7-30.2,10.8c-18.2,3.8-36.4,0.5-54.6-1.9c-20.3-2.7-40.7-4.6-61.1-6.5
	c-7.9-0.7-15.6,0.8-22.5,5.1c-13.6,8.5-15.1,27.3-1.9,36.4c9.2,6.3,19.9,10.5,30.2,15c26,11.3,52.5,21.5,78.1,33.7
	c24.3,11.5,34.2,28.5,33.2,57.1c-0.2,4.8-0.8,9.6-1.9,14.3c-0.8,3.3-2.7,6.3-4.3,9.3c-1.2,2.3-3.6,4.4-4,6.8
	c-1.8,10.9-10.1,15.4-18.6,19.6c-20.1,9.9-40.4,9.6-61.3,1.8c-24.1-9.1-48.6-17-72.9-25.3c-8.6-2.9-17.3-5.9-26.1-8
	c-10.3-2.4-20.2,2.4-25.2,11c-5,8.5-4.9,19.3,2.7,26.8c8.8,8.8,18.8,16.7,28.9,24.2c16.5,12.3,33.6,23.8,50,36.1
	c11.1,8.4,20.6,18.8,27,31.1c8.4,16.1,10.1,33.2,2,50.4c-5.4,11.5-13.6,20.7-23.4,28.7c-15.1,12.3-31.2,12.9-49.1,5.8
	c-27.2-10.7-50.1-27.4-72.4-45.8c-10.9-9-23-16.8-35.5-23.5c-10.4-5.5-21.1-3.1-30,5c-8.6,7.9-9.8,18.6-2.4,29.3
	c7.6,11.1,16,21.6,24.2,32.2c13.8,18,27.9,35.8,41.6,53.9c7.8,10.3,11.8,22.4,13.6,34.9c2.7,19.1-6.8,34-19.1,47.3
	c-8.2,8.8-18.2,14.8-30,17.6c-13.5,3.1-25.6-0.6-37.2-7.4c-21.1-12.5-37-30.3-51.7-49.6c-12.4-16.1-25.2-32.2-39.7-46.4
	c-15.1-14.9-31.2-7.7-38.9,6.5c-2.3,4.2-1.8,10.3-1.5,15.5c1.2,18.6,10.9,34.2,18.6,50.5c8.7,18.4,16.8,37.2,24.2,56.1
	c3.2,8.1,4.6,17,5.7,25.7c2.3,18.7-7.5,31.3-21.6,41.9c-11.3,8.5-24.7,12.1-37.9,14.3c-12.3,2-24.5-1.7-35-9.7
	c-15-11.5-24.4-27-32.5-43.4c-11.5-23.2-22.2-46.8-33.3-70.1c-1.8-3.7-3.9-7.4-6.4-10.7c-7.3-9.5-15-11.5-26.4-7.3
	c-13.9,5.1-18.6,11.7-18.1,26.6c0.2,5.6,1,11.3,2.1,16.8c4,20.9,8.9,41.7,12.2,62.7c2.7,17,5.2,34.2,2.4,51.7
	c-1.3,8.2-6.1,14.2-10.6,20.5c-11.5,16.2-27.3,23.7-47.2,24c-13.4,0.2-26.2-1-37.4-9.1c-1.6-1.2-3.4-2.3-4.5-3.9
	c-5.5-8.2-12.2-16-15.9-25c-4.8-11.9-7.9-24.6-10.5-37.2c-5-23.6-9-47.4-14-70.9c-1.2-5.5-3.6-11.2-6.9-15.8
	c-7.8-10.9-15.6-11.1-28-8.7c-10.2,2-14.6,11-15.6,20.5c-2.9,28.6-5.3,57.4-7.6,86.1c-1.5,19.3-4.9,38-16.1,54.3
	c-9.4,13.7-21.8,22-39.1,21.7c-13.9-0.2-27.6-0.2-39.9-8.3c-14.1-9.2-22.3-22.3-26.5-38.3c-5.6-21.3-2.2-42.6-0.9-64.1
	c1.2-20.6,1.3-41.3,0.9-61.9c-0.3-11.7-7.7-18.9-19.3-21.7c-10.1-2.4-20,1.2-25.5,11c-4.8,8.5-8.5,17.6-11.9,26.7
	c-9.3,24.9-17.6,50.1-27.6,74.7c-4.4,10.9-10.7,21.7-18.7,30.2c-13.2,13.9-30.5,17.7-49.1,12.2c-12.8-3.8-25.6-8.1-35.2-17.8
	c-7.5-7.6-12.1-16.8-13.9-27.9c-3.7-22.7,4.2-42.8,10.7-63.6c7.5-23.9,14.3-48,20.1-72.4c3.4-14.4-5.5-25.8-19.7-28.5
	c-8.2-1.6-15,1.9-19.9,7.9c-8.4,10.2-16.1,21-23.9,31.8c-13.2,18.3-25.6,37.2-39.3,55c-6.8,8.8-15.5,16.4-24.1,23.5
	c-9,7.4-19.9,9.6-31.5,7.4c-15.1-3-28.8-8.8-40.2-19.6c-16.1-15.2-21.5-39.2-13.9-60c5.6-15.2,13.6-29,22.6-42.5
	c11.1-16.7,20.6-34.4,30.6-51.8c4.5-7.8,8.8-15.7,8.9-25.1c0.3-18.2-17.4-29.7-33.2-20.6c-9.8,5.6-18.4,13.4-27.1,20.8
	c-20.7,17.9-41.1,36.2-61.8,54.2c-9.1,7.9-20,12.3-31.7,14.8c-15.3,3.3-29.3,0.3-40.9-10.3c-9.7-8.8-18.8-18.3-24.9-30.2
	c-7.2-14-6-27.3,1.7-40.8c11.3-19.7,26.5-36,42.7-51.5c14.3-13.7,28.2-27.7,41.9-42c4.3-4.6,8.3-10.1,10.6-15.9
	c5.5-13.8-4.9-28.6-19.8-29.6c-9.6-0.6-17.9,3.1-26,7.4c-24.7,13-49.3,26.1-73.9,39.2c-16.6,8.9-34.1,13.4-52.9,9.3
	c-19.9-4.3-32-18-40.6-35.3c-3-6.1-4.9-13.1-6.1-19.9c-3.1-17.3,3.5-30.8,16.2-42.6c22.2-20.6,48-35.3,75.1-48.2
	c16.1-7.7,30-18.2,40.8-32.4c3.8-5,2.9-10.1,1.1-15.9c-3.7-11.9-12.1-14.1-23-14.8c-16.5-1.1-31.4,4.9-47,8.2
	c-22.2,4.8-44.4,10.1-66.8,13.7c-10.1,1.6-21,0.6-31.3-1.1c-10.4-1.7-18.3-8.6-23.9-17.5c-9.3-14.8-15.3-30.8-13.6-48.5
	c1.7-17.9,10.9-32.2,26.3-41.3c20.3-12,43.1-17.9,65.6-24.3c19.9-5.7,39.9-11.4,59.5-18.1c8.3-2.8,14-9.5,14-19.3
	c0.1-8.6-3.6-15.3-11.1-19.2c-11-5.7-22.9-8.9-35.4-9.3c-22-0.6-44-0.1-65.9-1.7c-15.8-1.2-31.7-4.1-47.1-7.9
	c-15-3.6-22.9-15.4-26.3-29.8C-0.7,873.9-0.9,860,1.8,846c3.8-20,16-30.9,35.2-36.1c26.4-7.2,53.3-7.9,74.2-7.4
	c18.5,0,30.8,0.5,43.1-0.1c12.1-0.6,22.6-5.8,30.3-15.2c7.7-9.4,4.8-24.6-6.8-30.9c-9.6-5.3-20.4-8.7-31-11.9
	c-14-4.3-28.2-7.6-42.4-11.3c-12.5-3.3-25.4-5.5-37.4-10.3c-18.7-7.4-34.5-19.3-41.5-39c-2.9-8.1-2.7-17.7-2-26.5
	c1.1-12.3,5.8-23.8,13.1-34c9.7-13.7,23.6-17.9,39.5-18.2c22-0.4,43.5,2.1,64.4,8.9c17.2,5.6,34.6,10.7,52.9,11.6
	c7.5,0.4,14.7,1.5,22.2-0.4c12.2-3.1,19.9-23.2,9.9-33.9c-11.8-12.6-25.1-22.9-40.8-30.4c-28.9-13.7-56.4-29.5-78.8-53
	c-11.2-11.8-13.3-25.5-9.7-40.6c3.3-14,10.8-25.8,20.4-36c9.4-10,22.2-12.8,35.4-14c15-1.3,28.6,3.5,41.6,10.2
	c23.2,11.9,46,24.5,69.3,36.2c8.8,4.4,18.2,8.1,27.8,10.4c10.7,2.6,18.4-3.2,23.7-12.4c5.2-8.9,4.1-17.7-1.9-25.2
	c-7.2-9-15.5-17.2-23.6-25.5c-18.5-19-38.6-36.5-54.1-58.3c-6.2-8.7-11.9-18-16.8-27.5c-5.2-9.8-3.7-20.3,0.8-29.9
	c6.8-14.7,16.6-27.6,30.7-35.7c16.7-9.5,35.2-11,51.9-1c15.9,9.5,30.7,21,44.8,32.9c13.9,11.7,26.3,25.2,39.6,37.6
	c6.8,6.3,14.6,11.3,23.9,13.7c9.6,2.5,17.4-0.9,24-7.4c6.2-6.2,7.2-14.1,4-21.8c-4-9.4-8.8-18.6-14-27.4
	c-7.5-12.5-16.7-24.1-23.5-36.9c-8.7-16.2-20.1-31.1-25-49.1c-7.7-28.3,2.7-53.6,28.4-67.9c8.4-4.7,17.8-8.4,27.2-10.5
	c15.6-3.4,27.8,4.2,38.9,14.6c18.3,17.2,32.3,37.7,45.4,58.9c8.4,13.7,17.6,26.9,26.8,40.1c4.6,6.6,10.5,11.9,18.6,14.2
	c11.5,3.3,23.7-3.9,26.6-15.5c2-8.2,1.3-16.3-1-24.2c-7.1-24.2-14.7-48.3-21.9-72.5c-4.8-16.2-8.3-32.8-7-49.7
	c0.5-6.6,4.6-12.9,6.8-19.5c4.2-12.5,14.6-18.1,25.7-22.3c8.3-3.2,17-6,25.7-7.6c16-3,29.6,2.3,40.9,14.1c16,16.6,24.4,36.7,30,58.7
	c3.3,12.8,8.3,25.2,12.8,37.7c3.5,9.7,6.8,19.5,11,28.8c4.8,10.4,12.6,17.5,25,17.4c12.6-0.1,21.8-7.7,22.7-20.3
	c0.8-11.1,0.9-22.3,0.7-33.4c-0.5-25.6-1.6-51.3-2.1-76.9c-0.3-14.4,3.2-28.1,10.6-40.5c2.3-3.8,6.3-6.6,9.8-9.5
	c2.7-2.2,5.7-4,8.8-5.5c5.4-2.5,10.8-5.6,16.5-6.5c12.9-2.2,26.1-4.5,39,0.5C856.3,8.8,868,18.6,871.8,35
	c4.1,17.6,7.9,35.4,10.4,53.3c1.8,13,1,26.3,1.8,39.4c0.7,11,1.6,21.9,3.1,32.8c2.1,14.9,14.8,24.7,29,22.4
	c10.4-1.7,16.1-9.6,18.7-18.8c4.7-16.3,8.7-32.8,11.8-49.4c2.6-14.4,5.9-28.6,10.5-42.5c3.3-9.9,6.3-19.9,10.2-29.6
	c6.6-16.3,19.8-25.4,36.1-30.1c17.2-4.9,34.3-1.8,49,7c17,10.2,26.5,26.9,26.1,47.1c-0.3,16.9-2.5,33.8-4.8,50.6
	c-2.7,20.1-6.8,40-9.3,60.2c-0.9,7.5-0.8,16,1.7,23.1c5.9,16.7,24.9,20.8,36.9,7.8c7.3-7.9,13-17.6,17.8-27.3
	c10.6-21.4,20.1-43.3,30.3-64.8c5.6-11.9,13.5-22,24.6-29.4c4.3-2.9,7.7-7.4,12.3-9.7c16.4-8.5,32.7-6.7,48.5,2.1
	c9.6,5.3,19,10.8,26.2,19.3c8,9.3,11.3,19.9,9.6,31.9c-3.7,25-11,48.7-23.3,71c-8.2,14.9-15.7,30.4-22.4,46.1
	c-3.7,8.6-4,18.4-0.5,27.4c4.8,12.1,20.6,19.8,34.9,8.6c9-7.1,16.8-15.9,24.6-24.4c16.2-17.7,31.7-36.2,48.3-53.6
	c7.7-8,16.8-15.2,26.3-21c10.8-6.5,23.5-7.1,35.3-3.6c17.1,5.2,30.6,16.3,40,31.2c12.6,19.9,10.7,41-1.6,59.8
	c-12.4,18.9-27.5,36.1-41.4,54.1c-10.1,13.1-21.1,25.7-30.1,39.5c-9.9,15.1-0.4,33.3,17.7,35.6c8.3,1,15.8-2.4,22.5-6.9
	c22-14.8,43.8-29.9,65.7-44.9c14.6-10,30.1-18.1,47.4-22.5c15.7-4,28.9,1,40.3,11.5c10.6,9.7,19.9,20.5,24.9,34.3
	c4,11.2,2.2,22.1-2.5,32.9c-11.7,26.7-34.6,42.6-56.6,59.3c-14.7,11.1-29.5,22-43.9,33.6c-4.7,3.8-8.8,8.8-11.6,14.1
	c-5.2,9.6-0.7,18.1,5.2,25.7c5.5,7,13.4,9.1,21.6,6.8c12.9-3.7,25.6-8.2,38.2-12.9c15.4-5.8,30.4-12.5,45.8-18
	c14.9-5.3,30.3-10.1,46.2-9.5c10.7,0.4,21.6,3.2,31,9.2c15.7,10.1,21.3,26.5,26,43.1c6.2,21.7-3.1,38-19.2,51.8
	c-16.8,14.4-36.5,23.1-57.2,30.4c-19.8,7-39.4,14.9-58.5,23.8c-12.2,5.7-16,16.8-13.2,29.9c2.2,9.9,8,15.5,18.5,16.5
	c5.8,0.6,11.7,0.4,17.4-0.1c23.7-2.2,47.3-5.4,71.1-6.7c16.5-0.9,33.3-0.4,49.8,1.1c16.6,1.6,36.5,21.6,40.8,37.8
	c4.2,16.1,1.6,31.5-3.5,46.6c-2.7,8.1-9.8,13.6-16.8,18.5c-18.8,13.2-40.2,17.4-62.7,18.5c-9.7,0.5-19.4,2.8-29.1,4.3
	c-13.2,2-26.3,3.8-39.5,6.1c-9,1.6-17.5,4.4-22.6,12.8C1545.5,864.9,1555.5,889.7,1574.8,893.6z"/>
</svg>
