<?xml version="1.0" encoding="utf-8"?>
<!-- Generator: Adobe Illustrator 19.2.1, SVG Export Plug-In . SVG Version: 6.00 Build 0)  -->
<svg version="1.1" id="Layer_1" xmlns="http://www.w3.org/2000/svg" xmlns:xlink="http://www.w3.org/1999/xlink" x="0px" y="0px"
	 viewBox="0 0 1729.8 1716.1" style="enable-background:new 0 0 1729.8 1716.1;" xml:space="preserve">
<style type="text/css">
	.st0{opacity:0.8;fill:#FFFFFF;}
</style>
<path class="st0" d="M-14.1-15.1v1757.3h1757.3V-15.1H-14.1z M625.9,27.2c19.8-5,39.6-10.2,59.6-14.3c19.5-4,39.4-6.3,59-10.2
	C763.2-1,782,0.1,800.8,0.1C851.6,0,902.5-0.2,953.3,0.3c13.2,0.1,26.5,2.2,39.6,4.3c21.8,3.5,43.7,7.1,65.2,12.1
	c20.4,4.6,40.4,11,60.5,16.7c1.7,0.5,3.3,1.4,4.7,2.8c-173.9,0-347.8,0-521.7,0c-0.1-0.4-0.1-0.8-0.2-1.2
	C609.6,32.4,617.6,29.3,625.9,27.2z M504.8,72c18.2-7.7,36.4-15.2,54.7-22.7c2.1-0.8,4.5-1.3,6.7-1.3c198.3-0.1,396.6-0.1,595,0.2
	c6.6,0,13.4,3.3,19.8,6c20.9,8.9,41.6,18.2,62.4,27.4c0.8,0.4,1.5,1,3.2,2.3c-255.7,0-510.1,0-764.6,0c-0.1-0.2-0.2-0.6-0.3-1
	C489.4,79.2,497,75.3,504.8,72z M418.6,117.3c11.5-6.9,23.2-13.5,35-19.9c2-1.1,4.8-1.3,7.2-1.3C533.6,96,606.5,96,679.3,96
	c192.8,0,385.6,0,578.5-0.1c9.2,0,17.6,0.9,25.6,6c15.4,9.8,31.2,19,46.7,28.4c0.3,0.2,0.6,0.6,1.4,1.6c-311.3,0-621.8,0-932.3,0
	c-0.2-0.4-0.4-0.8-0.5-1.1C405.3,126.3,411.8,121.5,418.6,117.3z M1101.5,1688.8c-19.8,5-39.6,10.2-59.6,14.3
	c-19.5,4-39.4,6.3-59,10.2c-19.2,3.8-38.5,2.6-57.8,2.6c-50.3,0.2-100.6,0.4-150.9-0.1c-13.2-0.1-26.5-2.2-39.6-4.3
	c-21.8-3.5-43.7-7.1-65.2-12c-20.5-4.7-40.7-11.1-60.9-16.8c-1.6-0.4-3-1.2-4.5-1.9c0.1-0.4,0.1-0.6,0.2-0.9
	c173.9,0,347.7,0,521.6,0c0.1,0.4,0.1,0.8,0.2,1.1C1117.8,1683.6,1109.8,1686.7,1101.5,1688.8z M1223.1,1643.9
	c-18.3,7.8-36.7,15.3-55.2,22.8c-2.1,0.8-4.5,1.3-6.7,1.3c-198.3,0.1-396.6,0.1-595-0.2c-6.4,0-13.1-3.3-19.3-5.9
	c-21.1-9-42-18.3-62.9-27.6c-0.8-0.4-1.5-1-3.2-2.3c255.7,0,510.1,0,764.6,0c0.1,0.4,0.2,0.7,0.3,1.1
	C1238.2,1636.7,1230.8,1640.6,1223.1,1643.9z M1314.3,1595.4c-13.5,8.1-27.2,16-40.9,23.7c-2,1.1-4.8,1-7.2,1
	c-113.5,0-227,0-340.4,0c-152.5,0-304.9,0-457.4,0.1c-8.2,0-15.4-1.2-22.5-5.8c-13.2-8.6-27-16.2-40.5-24.3
	c-2.3-1.4-4.4-3.3-6.6-4.9c0.2-0.5,0.4-0.8,0.6-1.2c309.6,0,619.2,0,928.7,0c0.2,0.4,0.5,0.7,0.7,1.1
	C1324,1588.6,1319.4,1592.4,1314.3,1595.4z M1727,851.7c-1.1,0.5-2.6,0.1-3.9,0.1c-52.2,0-104.3,0-156.5-0.1c-2.9,0-5.4,0.3-6.6,3.1
	c-0.9,2.2-1.4,4.7-1.1,7c0.1,0.8,3.2,1.6,5,1.6c52.2,0.1,104.3,0.1,156.5,0.1c2.1,0,4.2,0,6.7,0c0,12.2,0,23.8,0,36.1
	c-56,0-111.9,0-167.3,0c-0.6,0.9-1,1.2-1,1.5c-1.4,10.2-1.3,10.3,9,10.3c50.2,0,100.3,0.1,150.5-0.1c4.9,0,6.9,1,6.4,6.3
	c-0.9,9.9-1.2,19.8-1.8,30.1c-57.4,0-113.3,0-169.3,0c-0.3,1-0.7,1.6-0.7,2.2c-0.7,9.1-0.6,9.2,8.5,9.2c51,0,102,0,153,0
	c2.3,0,4.6,0.2,8.4,0.4c-2.1,11.5-4.1,22.4-6.1,33.3c-0.7,3.5-3.5,2.8-5.9,2.8c-52.3,0-104.7,0.1-157-0.1c-9.1,0-9.9,2.3-8.7,11.1
	c56.6,0,113.3,0,170.6,0c-1.8,8.9-3.2,17.1-5.1,25.1c-2.9,11.8-3,11.8-15,11.8c-50.8,0-101.7,0-152.5,0c-2.2,0-4.3,0-6.6,0
	c-1.2,3.4-2.3,6.6-3.8,10.8c58.4,0,116.1,0,174.9,0c-1.8,6.5-3.2,11.9-4.8,17.2c-1.5,4.9-3.6,9.7-4.8,14.7c-1,4-2.9,5.2-6.9,5.2
	c-36.2-0.1-72.3-0.1-108.5-0.1c-18.7,0-37.3,0-56,0c-7.4,0-7.4,0-8.9,7.2c-0.2,0.9-0.4,1.9-0.8,3.7c57.9,0,115.4,0,173.4,0
	c-0.7,3.6-1,6.4-1.9,9.1c-2.5,8.1-5.4,16.1-7.9,24.2c-0.8,2.7-2.3,3.8-5,3.6c-1-0.1-2,0-3,0c-55.2,0-110.3,0-165.5-0.1
	c-4.9,0-8.3,0.4-8.9,6.3c-0.2,2.3-1.8,4.6-3.1,7.7c59.6,0,118.8,0,179.7,0c-4.7,11.2-8.7,21.3-13.3,31.1c-0.8,1.6-4.4,2.7-6.8,2.7
	c-33.5,0.2-67,0.1-100.5,0.1c-23.3,0-46.7,0-70,0c-10.4,0-10.4,0-14.3,9.9c-0.4,1-0.6,2.2-1,4.1c61.7,0,122.9,0,185.7,0
	c-3.2,7.3-5.6,13.6-8.7,19.5c-7.6,14.4-7.7,14.3-24.1,14.3c-56,0-112,0.1-168-0.2c-6.5,0-10.5,1.7-12.2,8c-0.5,1.8-1.5,3.6-2.7,6.3
	c64.3,0,127.8,0,192.3,0c-4.5,8.4-9.1,15.5-12.4,23.1c-3.8,8.8-9.7,10.9-19,10.8c-59.5-0.5-119-0.1-178.5-0.4
	c-6.9,0-11.9,1.5-15,7.9c-0.9,1.9-2.4,3.4-4.4,6.3c68.4,0,135.6,0,204.3,0c-3.1,5-5.5,8.6-7.8,12.3c-4.1,6.6-8.3,13.2-12,20
	c-1.9,3.4-4.1,4.5-7.9,4.5c-67-0.1-134,0.1-201-0.3c-8.5,0-13.4,3-17,10.9c71.2,0,142.2,0,214.2,0c-1.3,1.9-1.8,2.8-2.4,3.6
	c-7.1,9.6-14.4,19-21.3,28.8c-2.5,3.5-5.2,4.8-9.5,4.8c-70.7-0.1-141.3,0.1-212-0.4c-9.7-0.1-15.6,4.8-23.3,10.9
	c77.8,0,154.3,0,232.2,0c-2,2.6-3,4.1-4.2,5.5c-7.4,8.9-15.1,17.6-22.3,26.7c-2.7,3.4-5.4,5.1-10,5c-78.7-0.1-157.3-0.1-236-0.2
	c-5.2,0-9.7,0.6-13.6,4.4c-2.4,2.4-5.8,3.8-9.9,6.4c85,0,168.7,0,253.2,0c-0.9,1.7-1.3,2.8-2,3.5c-8.8,9.7-17.7,19.3-26.4,29.1
	c-2.8,3.1-5.8,4.3-10,4.3c-88.3-0.1-176.7,0-265-0.2c-9.3,0-17.7,1.5-25.6,6.3c-2.5,1.5-5.2,2.8-7.7,4.9c96.8,0,193.7,0,290.8,0
	c-0.1,1,0,1.6-0.3,1.8c-12,10.7-24,21.4-36.3,31.8c-2.1,1.8-5.6,2.9-8.5,2.9c-99.5,0.1-199,0.1-298.5,0.1c-5.2,0-10.4,0.4-15.5-0.1
	c-20.6-1.8-40.3,2.6-59.9,8c-3.4,1-6.9,1.7-10.3,3.5c124,0,248.1,0,372.4,0c-0.2,0.9-0.2,1.5-0.4,1.7c-13.2,10-26.5,19.9-39.7,29.9
	c-4.7,3.6-9.6,5-15.6,5c-318.1-0.1-636.2-0.1-954.3-0.2c-3.3,0-7.3-1.2-10-3.1c-13.4-9.8-26.5-20-39.6-30.1
	c-0.6-0.2-1.1-0.9-2.6-2.5c124.4,0,247.6,0,370.8,0c0.1-0.4,0.1-0.8,0.2-1.2c-7.9-2-15.9-3.9-23.8-6.1c-11-3.1-22-4.4-33.4-4.4
	c-108.7,0.2-217.3,0.1-326,0.2c-4.2,0-7.8-0.8-10.9-3.7c-11.1-10.5-22.2-20.8-33.4-31.2c0.2-0.4,0.4-0.9,0.6-1.3
	c96.6,0,193.3,0,289.9,0c0.1-0.4,0.2-0.9,0.2-1.3c-10.7-3.2-19.3-10.5-31.8-10.5c-88.8,0.5-177.7,0.2-266.5,0.3
	c-5.4,0-9.3-1.3-13-5.5c-8.3-9.7-17.1-19-25.7-28.4c-0.5-0.6-0.8-1.3-1.5-2.6c84.7,0,168.8,0,252.8,0c-5.4-5.9-10.9-11.2-19.3-11.2
	c-42.3,0-84.7,0-127,0c-37.7,0-75.3,0-113,0.1c-4,0-6.8-1-9.3-4.3c-6.5-8.8-13.4-17.3-20.2-25.9c-1.3-1.7-2.4-3.5-4.1-6.2
	c76.7,0,152.4,0,228.3,0c-2.2-5.1-12-11.4-17.1-11.4c-59.5,0-119,0-178.5,0c-13.2,0-26.3-0.1-39.5,0.1c-3.4,0-5.2-1.2-7.1-4.1
	c-5.8-8.8-12.2-17.3-18.4-26c-1.3-1.9-2.6-3.7-4.7-6.8c72.4,0,143.5,0,215.3,0c-3.7-7.5-8.1-11.2-16.2-11.2
	c-67.3,0.3-134.7,0.1-202,0.2c-3.8,0-5.9-1-7.9-4.4c-5.4-9.3-11.3-18.3-16.9-27.5c-0.7-1.1-1.3-2.3-2.6-4.5c68.1,0,135.4,0,202.9,0
	c-3.1-10.1-8.7-14.4-17.8-14.4c-61.7,0-123.3,0-185,0.1c-4.4,0-7.4-0.9-9.6-5.1c-4.8-9.2-10.1-18.3-15.8-28.6c64.8,0,128.7,0,194,0
	c-2.6-5.5-4.3-9.7-6.7-13.5c-0.7-1-3.7-0.7-5.7-0.7c-60.3,0-120.7-0.1-181,0.1c-5.4,0-8.6-1.6-10.8-6.5c-3.3-7.2-7.1-14.2-10.6-21.4
	c-0.8-1.6-1.1-3.4-1.8-5.9c61.6,0,122.5,0,183.7,0c-1.5-4.5-2.6-8.2-4-11.8c-0.4-1-1.8-1.9-2.9-2.1c-1.6-0.4-3.3-0.1-5-0.1
	c-56.7,0-113.3-0.1-170,0.1c-5.8,0-8.8-1.3-10.7-7.4c-2.3-7.6-6.3-14.6-9.6-21.9c-0.5-1.2-0.8-2.4-1.4-4.4c60.6,0,120.6,0,181.6,0
	c-2-4.3-3.3-7.9-5.2-11c-0.9-1.4-2.9-2.4-4.6-3c-1.5-0.5-3.3-0.1-5-0.1c-55.3,0-110.7-0.1-166,0.1c-5.1,0-7.4-1.5-8.8-6.3
	c-2.8-9.9-6.1-19.6-9.5-30.5c59.6,0,118.1,0,176,0c0.6-1,0.8-1.2,0.8-1.3c-1.9-9.8-1.9-9.8-11.9-9.8c-53.8,0-107.7-0.1-161.5,0.1
	c-4.8,0-6.8-1.5-7.6-6.2c-1.8-9.9-4.2-19.8-6.5-30.6c58,0,115.2,0,172.8,0c-0.5-2.1-1-3.3-1.1-4.6c-0.4-5.2-3.1-6.8-8.3-6.7
	c-53.7,0.2-107.3,0.1-161,0.2c-4.1,0-6.2-1.2-7-5.1c-2.1-10.2-4.3-20.4-6.7-31.6c57.7,0,115,0,172.5,0c-0.7-4.1-1.2-7.3-1.8-11.3
	c-1.7,0-3.7,0-5.6,0c-53.2,0-106.3-0.1-159.5,0.1c-4.6,0-6.7-1.4-7.3-5.7c-1.6-10-3.3-19.9-5.1-30.5c3.6-0.2,5.9-0.4,8.1-0.4
	c50.8,0,101.7,0,152.5,0c10,0,10.3-0.4,8.6-11.1c-55.8,0-111.7,0-167.7,0c-4.7-11.4-3.4-23-3.3-34.4c0-0.7,1.6-1.8,2.6-2.1
	c1.4-0.4,3-0.1,4.5-0.1c50.8,0,101.7,0,152.5,0c5.7,0,8.9-5.2,5.9-10.2c-0.6-1.1-3.1-1.4-4.8-1.4c-20.2-0.1-40.3-0.1-60.5-0.1
	c-32,0-64,0-96,0c-2.1,0-4.3,0-7.3,0c0-4.2,0-7.9,0-11.7c0-6.8,0.1-13.7,0-20.5c-0.1-3,0.9-4.4,4-4.1c1.3,0.1,2.7,0,4,0
	c51.7,0,103.3,0,155-0.1c1.9,0,5.3-0.6,5.5-1.6c0.7-2.8,0.5-5.9-0.1-8.8c-0.2-0.7-3.1-1.2-4.8-1.2c-31.2-0.1-62.3,0-93.5,0
	c-21.2,0-42.3,0-63.5,0c-2,0-3.9,0-6.2,0c0-12.2,0-23.8,0-36.1c56,0,111.9,0,167.3,0c0.6-0.9,1-1.2,1-1.5c1.4-10.2,1.3-10.3-9-10.3
	c-50.2,0-100.3-0.1-150.5,0.1c-4.8,0-6.9-0.9-6.4-6.3c0.9-9.9,1.2-19.8,1.8-30.1c57.4,0,113.3,0,169.3,0c0.3-1,0.7-1.6,0.7-2.2
	c0.8-9.1,0.6-9.2-8.5-9.2c-51,0-102,0-153,0c-2.3,0-4.6-0.2-8.4-0.4c2.1-11.5,4.1-22.4,6.1-33.3c0.7-3.5,3.5-2.8,5.9-2.8
	c53,0,106,0,159,0c5.9,0,7.8-1.9,7.1-7.8c-0.2-1.2-1.8-2.7-3.1-3.2c-1.5-0.6-3.3-0.2-5-0.2c-51.8,0-103.7,0-155.5,0
	c-2.3,0-4.6,0-7.4,0c1.7-8.6,3-16.6,4.9-24.5c3.8-15.4,1.2-12.2,15.7-12.2c50-0.2,100-0.1,150-0.1c10.2,0,10.2,0,13.4-10.8
	c-57.4,0-114.6,0-172.3,0c0.2-2.6,0.2-4.4,0.6-6.2c1.8-8.4,3.9-16.8,5.5-25.3c0.8-4.2,2.6-5.7,7-5.6c54.5,0.1,109,0,163.5,0.2
	c5.9,0,9.6-0.9,9.9-7.5c0-0.9,0.8-1.8,1.6-3.4c-58.2,0-115.9,0-174.7,0c1.9-7.1,3.5-13.3,5.3-19.4c1.2-4.1,3.1-8.1,4.1-12.3
	c1.1-4.4,3.6-5.4,7.9-5.4c55.7,0.2,111.3,0,167,0.2c4.7,0,7.4-1,8.1-6c0.4-2.5,1.9-4.9,3.2-8.1c-60.6,0-120.6,0-182,0
	c3.8-8.4,8-15.5,10-23.1c2.6-9.6,8.1-11,17-10.9c55.3,0.4,110.7,0.2,166,0.2c8.2,0,8.2,0,11.5-8c0.7-1.8,1.7-3.4,3.1-6.2
	c-62.7,0-124.5,0-187.9,0c3.1-7,5.4-13,8.3-18.7c7.7-15,7.8-14.9,24.7-14.9c56,0,112,0,168,0c9.9,0,13-2.7,15.4-13.9
	c-64.1,0-128.1,0-193.4,0c6.6-11.7,12.4-22.1,18.5-32.2c0.8-1.3,3.8-1.7,5.8-1.7c26.3-0.1,52.7-0.1,79-0.1c37,0,74-0.2,111,0.2
	c6.5,0.1,10.5-1.7,12.3-8c0.5-1.7,1.4-3.3,2.6-5.9c-67.8,0-135.1,0-203.4,0c1-2.3,1.4-3.5,2.1-4.5c6.3-9.2,12.7-18.2,18.8-27.5
	c2.5-3.7,5.3-5.1,9.8-5.1c65.8,0.2,131.7-0.1,197.5,0.3c8.5,0,13.4-2.9,17.1-11.1c-70.6,0-140.8,0-212.5,0
	c6.4-9.5,12.3-17.5,17.3-26c5.1-8.7,11.6-11.4,21.8-11.3c68.8,0.6,137.7,0.1,206.5,0.5c9.1,0.1,13.8-5.7,19.7-10.9
	c-76.5,0-153,0-230.8,0c1.5-2.7,2.2-4.6,3.4-6.2c7.3-9.4,14.7-18.8,22.3-28.1c1.1-1.3,3.1-2.1,4.9-2.6c1.5-0.4,3.3-0.1,5-0.1
	c79.2,0,158.3,0,237.5,0c8.5,0,14-5.4,19.8-10.9c-84.1,0-168.1,0-252.6,0c0.3-1.1,0.3-1.8,0.7-2.2c9.7-10.7,19.3-21.5,29.3-31.9
	c1.6-1.7,5-2.5,7.5-2.5c28.7-0.2,57.3-0.1,86-0.1c61.5,0,123-0.1,184.5,0.1c5.9,0,11.1-1.2,16.2-4c4.5-2.4,9.2-4.4,13.7-7.2
	c-96.5,0-193,0-289.5,0c-0.2-0.3-0.3-0.7-0.5-1c1.4-1.2,2.8-2.4,4.1-3.6c10-9,20.1-17.9,30-27c4-3.7,8.4-5,13.9-5
	c103.7,0.2,207.3-0.2,311,0.4c19.9,0.1,39-2.6,58-8c3.8-1.1,7.7-1.8,11.5-3.6c-123.8,0-247.5,0-372.3,0c1.3-1.6,1.8-2.6,2.6-3.2
	c13.6-10.4,27.1-20.8,40.8-31c1.7-1.3,4.1-1.8,6.3-2.2c2.4-0.4,5-0.1,7.5-0.1c318.3,0,636.7,0,955-0.1c5.9,0,10.7,1.5,15.2,4.9
	c11.9,9,23.8,18.1,35.7,27c1.6,1.2,3.2,2.2,4.7,4.2c-124.1,0-248.2,0-372.3,0c-0.1,0.5-0.1,1-0.2,1.4c8.1,2,16.2,4,24.3,6.1
	c12,3.1,24.1,4.4,36.5,4.4c107.5-0.2,215-0.1,322.5-0.2c4.2,0,7.7,0.9,10.9,3.8c11.6,10.6,23.4,21.1,35.8,32.3
	c-97.5,0-194.3,0-291.1,0c-0.2,0.5-0.3,1-0.5,1.5c3.5,1.7,7.2,3.1,10.5,5.3c6.6,4.4,13.7,5.1,21.4,5.1c88.2-0.1,176.3,0,264.5-0.2
	c5.6,0,9.7,1.3,13.5,5.6c7.8,8.8,16.1,17.1,24.2,25.7c1.2,1.3,2,2.9,3.5,5.2c-84.9,0-168.8,0-252.6,0c-0.1,0.4-0.2,0.8-0.3,1.2
	c7.4,3.7,13.1,10.2,22.6,10.2c78.7-0.2,157.3-0.1,236-0.1c3.6,0,6.4,0.5,9,3.8c7.8,9.9,16.1,19.4,24.2,29c0.8,1,1.5,2.1,2.7,3.9
	c-77.5,0-154,0-230.5,0c-0.2,0.5-0.3,0.9-0.5,1.4c6.1,3.6,10.1,9.8,18.8,9.8c71.7-0.2,143.3-0.1,215-0.3c4.9,0,7.9,1.6,10.6,5.5
	c6.8,9.6,14,18.9,21.1,28.3c0.5,0.6,0.9,1.3,1.9,2.8c-71.7,0-142.5,0-213.5,0c2.2,8.1,6.1,11.3,13.3,11.3c68,0,136,0,204-0.1
	c4,0,6.2,1.2,8.2,4.7c5.4,9.3,11.3,18.3,17,27.5c0.7,1.1,1.2,2.2,2.4,4.4c-68.2,0-135.4,0-204.3,0c3.8,5.1,6.2,9.2,9.5,12.5
	c1.4,1.4,4.6,1.6,6.9,1.6c62.3,0.1,124.7,0.1,187,0c5,0,8.3,1.1,10.9,5.7c5,8.9,10.6,17.4,16,26.1c-0.4,0.6-0.8,1.2-1.2,1.7
	c-65,0-129.9,0-196.4,0c2.6,5.5,4,9.9,6.6,13.4c1,1.3,4.6,0.9,7.1,0.9c60.3,0,120.7,0.1,181,0c3.9,0,6.7,0.8,8.4,4.5
	c4.2,9.5,8.5,18.9,13.2,29c-62.2,0-123.9,0-186.8,0c2.3,4.7,3.7,8.8,6.3,12c1.3,1.6,4.6,2.2,7.1,2.2c39.7,0.1,79.3,0.1,119,0.1
	c18.7,0,37.3-0.1,56,0.1c2,0,5.1,1.4,5.8,3c4.3,8.8,8,17.9,11.8,26.9c0.4,0.9,0.6,1.8,1.1,3.6c-60,0-119.5,0-179,0
	c-0.9,9.4,3,14.1,11.2,14.1c55.7,0,111.3,0.1,167-0.1c5.1,0,7.4,1.5,8.8,6.2c2.8,9.9,6.1,19.6,9.5,30.5c-59.6,0-118.1,0-176.7,0
	c1.4,10,2.7,11.1,11.7,11.1c54.7,0,109.3,0,164-0.1c4.5,0,6.1,0.9,6.8,5.8c1.3,8.3,4.1,16.4,6.2,24.6c0.5,1.9,0.7,3.8,1.3,6.7
	c-58.3,0-116,0-174.4,0c1.4,4.1,2.4,7.2,3.7,10.8c57.5,0,115.3,0,173.2,0c2.4,12.3,4.7,24,7.3,36.9c-58,0-114.4,0-170.8,0
	c0.7,4.1,1.3,7.3,1.9,11c56.7,0,113.4,0,170.2,0c1.3,12.2,2.5,23.9,3.9,36.5c-56.6,0-112.4,0-169.3,0c1.2,4.4,2.1,7.6,3.2,11.3
	c56,0,112,0,168.1,0c1.1,11.3,2.3,22.2,3.2,33.1c0.1,1-1.8,2.6-3.1,3.2c-1.1,0.5-2.6,0.1-3.9,0.1c-50.8,0-101.7,0-152.5,0
	c-10.2,0-10.6,0.5-8.6,11.5c55.8,0,111.7,0,167.8,0c1,11.5,2.1,22.4,2.9,33.3C1729.9,849.7,1728.2,851.1,1727,851.7z"/>
</svg>
