<?xml version="1.0" encoding="utf-8"?>
<!-- Generator: Adobe Illustrator 19.2.1, SVG Export Plug-In . SVG Version: 6.00 Build 0)  -->
<svg version="1.1" id="Layer_1" xmlns="http://www.w3.org/2000/svg" xmlns:xlink="http://www.w3.org/1999/xlink" x="0px" y="0px"
	 viewBox="0 0 1727.1 1716.1" style="enable-background:new 0 0 1727.1 1716.1;" xml:space="preserve">
<style type="text/css">
	.st0{opacity:0.8;fill:#FFFFFF;}
</style>
<path class="st0" d="M-12.4-11.4v1738.5h1752.3V-11.4H-12.4z M614.7,30.6c19.1-5.2,38.1-10.8,57.4-15c20.1-4.4,40.6-7.2,60.9-11.1
	c20.2-3.8,40.6-4.6,61.1-4.5c53.7,0.3,107.3-0.2,161,0.3c14,0.2,28.1,2.6,42.1,5c22.8,3.8,45.6,7.8,68.1,13
	c19.7,4.5,38.9,10.7,58.4,16.2c-0.2,0.6-0.4,1.2-0.5,1.8c-173.8,0-347.7,0-521.5,0c-0.1-0.3-0.2-0.7-0.2-1
	C605.9,33.7,610.2,31.8,614.7,30.6z M504.8,72c18.2-7.7,36.4-15.2,54.7-22.7c2.1-0.8,4.5-1.3,6.7-1.3c198.3-0.1,396.6-0.1,595,0.2
	c6.6,0,13.4,3.3,19.8,6c20.9,8.9,41.6,18.2,62.4,27.4c0.8,0.4,1.5,1.1,3.2,2.3c-255.6,0-510.1,0-764.6,0c-0.1-0.3-0.2-0.6-0.3-1
	C489.4,79.2,497,75.3,504.8,72z M418.6,117.2c11.5-6.9,23.2-13.5,35-19.9c2-1.1,4.8-1.3,7.2-1.3c75.8-0.1,151.7-0.1,227.5-0.1
	c189.8,0,379.6,0,569.5-0.1c9.2,0,17.6,0.9,25.6,6c15.4,9.8,31.1,19,46.7,28.4c0.3,0.3,0.6,0.7,1.4,1.6c-311.3,0-621.8,0-932.3,0
	c-0.2-0.4-0.4-0.8-0.5-1.1C405.3,126.2,411.8,121.4,418.6,117.2z M339.1,172.7c11.6-8.9,23.1-17.8,34.9-26.5c1.8-1.4,4.4-2,6.8-2.3
	c2.9-0.4,6-0.1,9-0.1c316.5,0,632.9,0,949.4-0.1c8,0,14.9,1.2,21.2,6.3c12.5,10,25.3,19.6,38.5,29.8c-356.2,0-711.7,0-1068.7,0
	C333.9,176.9,336.5,174.8,339.1,172.7z M281.9,221c8.7-8.2,17.5-16.4,25.9-24.9c3.2-3.3,6.4-4.4,10.9-4.4
	c72.3,0.1,144.6,0.1,217,0.1c288.9,0,577.9,0,866.8-0.1c7.1,0,12.7,1.5,17.9,6.4c10.4,9.8,21.2,19.1,31.8,28.7
	c0.2-0.1,0.2,0.4,0.3,1c-392.5,0-785,0-1178.7,0C277,225.1,279.6,223.2,281.9,221z M227.3,274.1c9.9-10.9,19.8-21.9,29.9-32.7
	c1.1-1.2,3.1-1.7,4.8-1.9c3-0.3,6-0.1,9-0.1c394.5,0,788.9,0,1183.4-0.3c10.9,0,18.4,3,24.9,11.5c6,7.9,13.2,14.9,19.9,22.3
	c0.6,0.7,1,1.6,1.8,2.8c-425,0-849.5,0-1274.2,0C227,275,227,274.4,227.3,274.1z M196.5,310.4c5.4-6.9,10.7-13.9,16.2-20.7
	c0.9-1.1,2.5-2.1,3.9-2.4c1.7-0.4,3.6-0.1,5.5-0.1c427.8,0,855.7,0,1283.5-0.1c5.7,0,9.4,1.6,12.7,6.4c5.8,8.4,12.7,16.2,19,24.3
	c1.2,1.5,2.1,3.3,3.7,5.6c-451.7-0.1-902.5-0.1-1355.1-0.1C189.9,318.4,193.3,314.5,196.5,310.4z M159.5,357.4
	c4.5-6.4,8.8-12.9,13.5-19.1c1.3-1.7,3.7-2.5,5.7-3.5c0.8-0.4,2-0.1,3-0.1c454.2,0,908.3,0,1362.5-0.1c4.1,0,6.8,1.2,9.2,4.4
	c6.6,8.7,13.5,17.3,20.2,25.9c1.3,1.9,2.4,3.7,4.3,6.4c-476.6,0-951.9,0-1428.5,0C153.2,366.1,156.4,361.8,159.5,357.4z
	 M125.1,409.3c4.7-7.6,9.4-15.2,13.8-23c1.5-2.7,3.2-4,6.3-3.6c1,0.1,2,0,3,0c477,0,953.9,0,1430.9-0.1c5.7,0,8.3,1.8,11,6.7
	c4.7,8.7,10.5,16.9,15.8,25.3c0.7,1,1.3,2.2,2.5,4.4c-496.8,0-992.6,0-1489.6,0C121.3,415.2,123.3,412.3,125.1,409.3z M111.5,435.4
	c0.7-1.1,2.7-1.7,4.2-1.9c2.1-0.3,4.3-0.1,6.5-0.1c495.6,0,991.2,0,1486.9-0.1c5.8,0,9.1,0.9,11.5,7.1c2.9,7.7,7.8,14.6,11.8,21.8
	c0.6,1.1,0.9,2.4,1.5,4.3c-513.5,0-1026.4,0-1540.1,0C99.9,455.7,105.6,445.5,111.5,435.4z M78.8,495.8c7.7-14.7,7.9-14.6,24.4-14.6
	c508.8,0,1017.6,0,1526.4-0.2c8.5,0,13.2,2.3,16.1,10.1c2.8,7.8,6.4,15.2,9.9,23.4c-528.1,0-1055.9,0-1585.2,0
	C73.4,507.7,75.8,501.6,78.8,495.8z M64.2,531.4c0.5-1.1,2.1-2,3.4-2.3c1.9-0.4,4-0.1,6-0.1c526.8,0,1053.6,0,1580.4,0
	c10.1,0,8.1-0.4,11.3,7.6c3.4,8.4,7.4,16.6,11.5,25.6c-542.3,0-1083.6,0-1625.9,0C55.5,551.5,59.8,541.4,64.2,531.4z M38.8,605.1
	c1.8-8.1,3.8-16.2,5.4-24.3c0.7-3.5,2.5-4.3,5.6-4.1c2.2,0.1,4.3,0,6.5,0c538.8,0,1077.6,0,1616.5-0.1c5,0,7.4,1.4,8.8,6.3
	c2.6,9.8,5.9,19.5,9.3,30.2c-552,0-1102.5,0-1653.6,0C37.8,610.2,38.2,607.6,38.8,605.1z M28.8,633.1c0.3-1.5,0.7-2.9,1-4.4
	c0.6-2.9,2.1-4.8,5.5-4.4c1.3,0.2,2.7,0,4,0c549.6,0,1099.3,0,1648.9,0c7.9,0,8.2-0.1,10.1,7.9c2.2,9.3,4,18.8,6.1,28.6
	c-560.8,0-1120.6,0-1681.2,0C25.1,651.2,27,642.2,28.8,633.1z M18.8,675.9c0.7-3,2.4-4.1,5.4-3.8c2.1,0.2,4.3,0,6.5,0
	c556.8,0,1113.6,0,1670.3-0.1c4.1,0,7.1,0.3,8,5.1c2,10.2,4.3,20.4,6.6,31.2c-567.9,0.1-1135.5,0.1-1704,0.1
	C14.1,697.3,16.5,686.6,18.8,675.9z M10.8,723.2c0.3-1.3,2.6-2.3,4.2-3c1.1-0.5,2.6-0.1,4-0.1c562.8,0,1125.6,0,1688.4,0
	c2.7,0,5.3,0,9.3,0c1.3,11.9,2.7,23.7,4,36c-571.4,0-1142.8,0-1716,0C6.8,744.6,8.6,733.8,10.8,723.2z M2.9,796.9
	c0.3-9.4,1-18.8,1.6-28.5c573.1,0,1144.8,0,1716.8,0c4.2,10.8,3.1,21.9,3,32.8c0,1.1-1.9,2.5-3.2,3.1c-1.1,0.5-2.6,0.1-4,0.1
	c-568.9,0-1137.9,0-1706.8,0C1.5,804.4,2.7,804.7,2.9,796.9z M0.1,816.3c575.9,0,1151.3,0,1726.9,0c0,11.8,0,23.4,0,35.5
	c-2.3,0.1-4.6,0.4-6.9,0.4c-66.3,0-132.7,0-199,0c-504.4,0-1008.9,0-1513.3,0c-1.7,0-3.4,0.3-5-0.1c-1.1-0.3-2.7-1.7-2.7-2.6
	C0,838.5,0.1,827.6,0.1,816.3z M1112.3,1685.6c-17.5,4.7-34.8,9.9-52.5,13.7c-21.6,4.7-43.5,8-65.2,12.2
	c-20.4,3.9-40.9,4.6-61.6,4.5c-53.6-0.3-107.3,0.2-160.9-0.3c-13.9-0.1-27.8-2.6-41.5-5c-22.9-3.9-45.9-8-68.6-13
	c-15.7-3.5-31-8.6-46.5-13c-3.9-1.1-7.7-2.6-11.3-4.9c173.9,0,347.8,0,521.6,0c0,0.4,0.1,0.7,0.2,1
	C1121.4,1682.4,1116.9,1684.4,1112.3,1685.6z M1223.1,1643.9c-18.3,7.8-36.7,15.3-55.2,22.8c-2.1,0.8-4.5,1.3-6.7,1.3
	c-198.3,0.1-396.6,0.1-595-0.2c-6.3,0-12.8-3.2-18.8-5.8c-21.2-9-42.3-18.4-63.4-27.7c-0.8-0.3-1.5-1-3.2-2.2
	c255.6,0,510.1,0,764.6,0c0.1,0.3,0.2,0.7,0.3,1C1238.2,1636.7,1230.8,1640.6,1223.1,1643.9z M1326,1587.1
	c-14.7,8.9-29.6,17.6-44,27.1c-7.5,4.9-15.2,6-23.9,6c-263.3-0.1-526.6-0.1-789.9,0c-8.2,0-15.4-1.2-22.5-5.8
	c-13.2-8.6-27-16.2-40.5-24.3c-2.3-1.4-4.4-3.3-6.6-4.9c0.4-0.5,0.6-0.8,0.7-1.2c309.6,0,619.2,0,928.7,0c0.6,0.6,1.2,1.2,1.7,1.9
	C1328.5,1586.3,1327.1,1586.5,1326,1587.1z M1380.4,1549.3c-9,6.9-17.8,13.8-26.9,20.5c-1.8,1.4-4.4,2-6.8,2.3c-2.9,0.4-6,0.1-9,0.1
	c-318.3,0-636.7,0-955-0.1c-3.3,0-7.3-1.2-10-3.1c-13.4-9.8-26.5-20-39.6-30.1c-0.6-0.6-1.1-1.3-2.4-2.7c355.7,0,710.4,0,1066.7,0
	C1391,1541.1,1385.7,1545.2,1380.4,1549.3z M1445.4,1495.2c-9.2,8.7-18.2,17.6-27.5,26.2c-1.7,1.6-4.5,2.5-6.9,2.9
	c-3.3,0.5-6.6,0.1-10,0.1c-361,0-721.9,0-1082.9,0.1c-4.2,0-7.8-0.8-10.9-3.7c-11.1-10.5-22.2-20.8-33.3-31.2
	c0.4-0.5,0.7-0.9,0.9-1.3c392.5,0,785.1,0,1178.8,0C1450.3,1491,1447.8,1493,1445.4,1495.2z M1499.9,1442.4
	c-9.5,10.4-18.9,20.9-28.6,31.2c-1.6,1.7-4.5,2.5-6.9,2.9c-2.7,0.5-5.6,0.1-8.5,0.1c-394.5,0-788.9,0-1183.4,0.3
	c-10.6,0-17.8-3-24.1-11.1c-6.1-7.8-13.2-14.9-19.9-22.3c-0.7-0.8-1.3-1.8-2.2-3.1c425.2,0,849.7,0,1274.6,0
	C1500.4,1441.3,1500.3,1442,1499.9,1442.4z M1534.2,1401.9c-6.5,8.3-13.1,16.7-19.7,24.9c-0.8,1-2.3,1.8-3.7,2c-1.9,0.4-4,0.1-6,0.1
	c-427.5,0-855,0-1282.5,0.1c-6.1,0-10-1.5-13.6-6.7c-5.7-8.4-12.5-15.9-18.7-23.9c-1.3-1.6-2.2-3.5-3.7-5.9
	c452,0.1,902.8,0.1,1355,0.1C1538.5,1396.3,1536.4,1399.1,1534.2,1401.9z M1568.1,1358.4c-4.6,6.5-9,13.1-13.8,19.5
	c-1.2,1.6-3.4,2.5-5.4,3.2c-1.1,0.5-2.6,0.1-4,0.1c-454.2,0-908.3,0-1362.5,0.1c-5.8,0-8.7-1.9-11.7-6.7c-5-8.2-11.1-15.7-16.8-23.4
	c-1.3-1.8-2.6-3.7-4.5-6.4c476.5,0,951.8,0,1428.6,0C1574.3,1349.9,1571.1,1354.1,1568.1,1358.4z M1602.1,1307.1
	c-4.6,7.5-9.3,14.9-13.6,22.6c-1.5,2.7-3.2,4.1-6.2,3.7c-1-0.1-2,0-3,0c-477,0-953.9,0-1430.9,0.1c-5.7,0-8.4-1.8-11-6.7
	c-4.7-8.8-10.5-16.9-15.8-25.3c-0.7-1.1-1.3-2.3-2.4-4.2c496.5,0,992.3,0,1489.4,0C1606,1301.2,1603.9,1304.1,1602.1,1307.1z
	 M1615.9,1280.6c-0.6,1-2.4,1.7-3.8,1.9c-1.9,0.3-4,0.1-6,0.1c-495,0-989.9,0-1484.9,0.2c-6.8,0-10.7-2.1-13.6-8
	c-4.1-8.3-8.8-16.5-13.7-25.4c513.6,0,1026.2,0,1539.8,0C1627.5,1260.3,1621.8,1270.5,1615.9,1280.6z M1648.6,1220.3
	c-7.7,14.7-7.9,14.6-24.4,14.6c-509.3,0-1018.6,0-1527.9,0.1c-6.6,0-10.9-1.3-13.6-7.7c-3.1-7.2-6.9-14-10.3-21
	c-0.6-1.3-0.7-2.8-1.2-4.7c528.7,0,1056.6,0,1585.8,0C1654,1208.4,1651.6,1214.5,1648.6,1220.3z M1663.3,1184.7
	c-0.5,1.1-2.1,2.1-3.3,2.3c-1.9,0.4-4,0.1-6,0.1c-526.8,0-1053.6,0-1580.4,0c-10.1,0-8.1,0.4-11.3-7.6c-3.4-8.4-7.4-16.6-11.5-25.6
	c542.1,0,1083.4,0,1625.8,0C1672,1164.6,1667.7,1174.7,1663.3,1184.7z M1682.6,1137.3c-0.2,0.9-1.9,1.8-3,2c-1.9,0.3-4,0.2-6,0.2
	c-539.9,0-1079.9,0-1619.8,0c-8.3,0-8.4,0.1-11-7.7c-3.1-9.4-5.9-18.7-9-28.8c552.9,0,1104.4,0,1656.8,0
	C1687.9,1114.8,1685.4,1126,1682.6,1137.3z M1698.6,1082.9c-0.3,1.5-0.7,2.9-1,4.4c-0.7,3-2.1,4.8-5.5,4.4c-1.6-0.2-3.3,0-5,0
	c-549,0-1097.9,0-1646.9,0c-9.3,0-8.8,2.1-11.3-8.3c-2.1-9.2-3.9-18.4-5.9-28.1c560.8-0.1,1120.7-0.1,1681.3-0.1
	C1702.3,1064.8,1700.5,1073.9,1698.6,1082.9z M1708.6,1040.1c-0.7,3-2.4,4.1-5.4,3.8c-2.1-0.2-4.3,0-6.5,0
	c-556.8,0-1113.6,0-1670.3,0.1c-4.1,0-7.1-0.3-8-5.1c-2-10.2-4.3-20.4-6.6-31.2c567.9-0.1,1135.5-0.1,1704-0.1
	C1713.3,1018.7,1710.9,1029.4,1708.6,1040.1z M1716.5,993.1c-0.2,1.2-2.4,2.2-3.9,2.7c-1.2,0.4-2.6,0.1-4,0.1
	c-563.3,0-1126.6,0-1690,0.2c-5.8,0-8.5-1.7-9.3-7.2c-1.3-9.5-2.8-19-4.3-29.1c573.1,0,1144.7,0,1717.8,0
	C1720.7,971.4,1718.8,982.3,1716.5,993.1z M1722.3,947.8c-572.6,0-1144.3,0-1716.2,0C1.8,936.9,3,925.6,3,914.3
	c0-0.9,1.7-2.1,2.8-2.5c1.4-0.4,3-0.1,4.5-0.1c569.6,0,1139.2,0,1708.8,0c2.2,0,4.5,0,7.2,0C1724.9,924.3,1723.6,936,1722.3,947.8z
	 M1727.1,899.7c-2.4,0.1-4.7,0.3-6.9,0.3c-373.1,0-746.3,0-1119.4,0c-197.8,0-395.6,0-593.4,0c-8.1,0-7.3,0.7-7.3-7.2
	c0-8.3,0.1-16.7-0.1-25c0-3,0.9-4.4,4-4.1c1.2,0.1,2.3,0,3.5,0c570.8,0,1141.6,0,1712.3,0c2.3,0.1,4.6,0.1,7.3,0.1
	C1727.1,876.3,1727.1,887.7,1727.1,899.7z"/>
</svg>
