<?xml version="1.0" encoding="utf-8"?>
<!-- Generator: Adobe Illustrator 19.2.1, SVG Export Plug-In . SVG Version: 6.00 Build 0)  -->
<svg version="1.1" id="Layer_1" xmlns="http://www.w3.org/2000/svg" xmlns:xlink="http://www.w3.org/1999/xlink" x="0px" y="0px"
	 viewBox="0 0 1727.3 1727.2" style="enable-background:new 0 0 1727.3 1727.2;" xml:space="preserve">
<style type="text/css">
	.st0{opacity:0.8;fill:#FFFFFF;}
</style>
<path class="st0" d="M-7.9-10.2v1749h1749v-1749H-7.9z M1700.4,648.8c5.1,22.8,9.9,45.8,14.9,68.6c0.9,4-0.2,6.2-3.9,8.3
	c-37.7,21.5-75.4,43.2-113,64.9c-4.5,2.6-9.1,5.1-14.3,8c-0.1-74-0.1-147.2-0.1-221.5c7.7,4.3,14.7,8.2,21.8,12.1
	c29.5,16.5,58.9,33.2,88.6,49.4C1698.9,641.1,1699.5,645,1700.4,648.8z M1694.6,630.7c-0.4,0.2-0.9,0.4-1.4,0.6
	c-35.2-20.7-70.3-41.5-106.7-63c24.8-13.4,48.6-26.2,72.9-39.3C1674.7,562,1684,596.6,1694.6,630.7z M1583.9,385.1
	c0.3-0.1,0.6-0.2,0.8-0.4c4.6,7.8,9.3,15.5,13.6,23.5c13.6,25,27.2,50.1,40.5,75.3c5.7,10.8,10.8,22,16.1,33
	c1.2,2.5,1.4,4.2-1.8,5.9c-22.3,11.8-44.4,23.8-66.6,35.7c-0.7,0.4-1.4,0.6-2.6,1.1C1583.9,500.8,1583.9,443,1583.9,385.1z
	 M1560.6,353.1c3.8,6.7,8.7,12.9,12.9,19.4c0.8,1.3,1.4,3,1.4,4.6c0.1,60.7,0.1,121.3,0,182c0.1,0.6-0.1,1.2-0.4,3.2
	c-64.6-37.4-128.5-74.5-193.3-112c7.7-4.5,14.5-8.5,21.3-12.4c37.7-21.6,75.5-43.1,113.2-64.6c12.8-7.3,25.6-14.7,38.4-22.1
	C1557.1,349.5,1558.6,349.7,1560.6,353.1z M1381.2,1159c64.8-37.7,128.7-74.7,193.5-112.2c0,75.1,0,149.1,0,224.4
	C1510.1,1233.8,1446.2,1196.7,1381.2,1159z M1572.4,1277.1c-64.8,37.6-128.9,74.7-193.7,112.3c0-74.2,0-147.4,0-221.8
	C1443.4,1204.2,1507.5,1240.4,1572.4,1277.1z M1572.4,804.6c-64.8,37.6-128.8,74.7-193.7,112.3c0-75.2,0-149.4,0-224.5
	C1443.3,729.7,1507.4,766.9,1572.4,804.6z M1381.1,686.5c65.1-36.8,128.9-72.9,193.5-109.4c0,74.2,0,147.2,0,221.5
	C1510.1,761.2,1446.3,724.2,1381.1,686.5z M1574.7,810.5c0,75.2,0,149.2,0,224.4c-64.5-37.4-128.5-74.5-193.6-112.2
	C1446.2,885,1510.1,847.9,1574.7,810.5z M1499.6,278.2c-0.3,0.4-0.5,0.8-0.7,1.1c-38.9-21.6-77.7-43.2-117.7-65.4
	c10.4-6.7,19.8-12.7,29-18.5C1442.4,220.8,1472.3,248.1,1499.6,278.2z M1378.6,169.7c10.5,5.8,18.8,13.3,27.8,21.7
	c-9.4,5.7-18.2,10.9-27.8,16.7C1378.6,194.8,1378.6,182.8,1378.6,169.7z M1378.6,220.1c5.3,2.9,10.3,5.4,15.1,8.1
	c40.5,23,81.1,45.9,121.3,69.4c6.1,3.6,10.6,10.2,15.3,15.9c7.1,8.8,13.6,18,20.3,27c0.6,0.8,0.9,1.7,1.6,3
	c-57.8,33.7-115.3,67.1-173.6,100.9C1378.6,369.2,1378.6,295.2,1378.6,220.1z M1378.6,456c63.8,37.5,127,74.7,191,112.3
	c-64.1,37.7-127.2,74.8-191,112.3C1378.6,605.5,1378.6,531.5,1378.6,456z M1228.8,79.6c42,21.1,83.4,43.1,122,70
	c5.6,3.9,11.1,7.8,16.5,12c1.3,1,2.5,2.9,2.5,4.4c0.2,13,0.1,26,0,39c0,0.6-0.4,1.2-0.9,2.8c-63.2-37.2-126.1-74.2-190.2-111.9
	c8.8-5.5,17.1-9.7,24.1-15.3C1211.6,73.5,1219.1,74.7,1228.8,79.6z M1175.8,1277c64.8-36.7,128.7-72.7,193.5-109.4
	c0,74.2,0,147.3,0,221.6C1304.7,1351.8,1240.8,1314.7,1175.8,1277z M1367.1,1395.2c-64,37.7-127.1,74.8-191.1,112.4
	c0-75.5,0-149.6,0-224.8C1239.8,1320.3,1302.9,1357.4,1367.1,1395.2z M1175.9,1268.6c0-74.4,0-147.7,0-222.1
	c63.6,37.4,126.7,74.5,191.2,112.4C1303,1195.7,1239.9,1231.9,1175.9,1268.6z M1175.9,1040.8c64.9-37.6,128.7-74.6,193.5-112.2
	c0,74.2,0,147.3,0,221.6C1304.7,1113.7,1240.9,1077.6,1175.9,1040.8z M1176.1,1035.1c0-75,0-149.2,0-224.7
	c63.7,37.4,126.8,74.5,191,112.3C1302.9,960.5,1239.8,997.6,1176.1,1035.1z M1175.8,804.6c64.9-37.6,128.8-74.7,193.6-112.2
	c0,74.9,0,148.9,0,224.4C1304.7,879.3,1240.9,842.3,1175.8,804.6z M1367.1,686.4c-64.1,37.7-127.2,74.8-191,112.3
	c0-74.1,0-147.3,0-221.8C1239.8,613.4,1302.8,649.6,1367.1,686.4z M1178.6,568.3c63.9-37.6,126.8-74.6,190.7-112.2
	c0,75.1,0,149.2,0,224.4C1305.5,643,1242.6,606,1178.6,568.3z M1175.8,332.1c64.9-37.6,128.9-74.7,193.7-112.3
	c0,75.5,0,149.5,0,224.6C1304.8,406.9,1240.9,369.8,1175.8,332.1z M1173.3,326.2c0-75.2,0-149.3,0-224.6
	c64.5,37.4,128.5,74.5,193.7,112.3C1302,251.6,1238.1,288.6,1173.3,326.2z M1173.2,56.3c11.1,4.8,21.7,9.4,33.1,14.5
	c-11.3,6.6-21.9,12.7-33.1,19.3C1173.2,78.6,1173.2,68,1173.2,56.3z M1173.2,337.8c64.8,37.5,128.8,74.7,193.9,112.4
	c-65,37.7-129,74.8-193.9,112.4C1173.2,487.3,1173.2,413.3,1173.2,337.8z M765.5,562.6c0-75.3,0-149.3,0-224.7
	c64.8,37.6,128.8,74.7,193.8,112.4C894.4,487.9,830.4,525,765.5,562.6z M961.9,458.7c0,74.5,0,147.6,0,221.9
	c-64.6-37.4-128.6-74.4-193.9-112.3C833.1,531.5,897,495.4,961.9,458.7z M959.3,686.4c-65.1,37.7-129,74.8-193.8,112.3
	c0-74.3,0-147.3,0-221.8C830.1,613.4,894,649.6,959.3,686.4z M961.9,692.2c0,75.2,0,149.3,0,224.8C897,879.3,833,842.3,768,804.6
	C833,766.9,897,729.8,961.9,692.2z M959.3,922.7c-65,37.7-129,74.8-193.8,112.3c0-74.9,0-149,0-224.6
	C830.4,848,894.3,885,959.3,922.7z M961.9,1401c0,75.4,0,149.4,0,224.7c-64.5-37.4-128.5-74.5-193.9-112.3
	C832.9,1475.7,896.9,1438.6,961.9,1401z M765.4,1507.6c0-75.4,0-149.4,0-224.8c64.7,37.5,128.7,74.6,193.9,112.4
	C894.2,1432.9,830.2,1470,765.4,1507.6z M768.1,1277.1c64.9-37.6,128.9-74.7,193.8-112.3c0,74.2,0,147.2,0,221.8
	C897.1,1350,833.1,1313.8,768.1,1277.1z M765.5,1271.3c0-75.3,0-149.4,0-224.6c64.6,37.4,128.6,74.5,193.8,112.3
	C894.3,1196.7,830.4,1233.7,765.5,1271.3z M768,1040.8c65-37.6,128.9-74.7,194-112.4c0,74.6,0,147.6,0,222
	C897.2,1113.8,833.3,1077.7,768,1040.8z M768,332c65-37.6,129-74.7,194.1-112.4c0,75.6,0,149.5,0,224.9
	C897.2,406.9,833.1,369.7,768,332z M765.3,326.4c0-75.5,0-149.5,0-224.8C830,139,894,176.1,959.3,213.9
	C894.4,251.6,830.4,288.6,765.3,326.4z M931.8,3c9.1,0.9,18.1,2.1,27.4,3.2c0,67,0,133.9,0,202c-64.7-37.5-128.7-74.6-193.8-112.3
	c6-3.5,10.9-6.4,15.9-9.2c32.4-18.4,64.9-36.9,97.3-55.3c16-9.1,32-18.2,48-27.2C928.1,3.4,930.1,2.9,931.8,3z M770.4,5.3
	c39.8-4.7,79.7-5.6,119.6-5.2c8.4,0.1,16.7,1.5,25.1,2.2c0.1,0.5,0.2,1.1,0.3,1.6C865.7,32.5,816,61.1,765.3,90.1
	c-0.2-2.6-0.3-4.1-0.3-5.5c0-24.5,0.1-49-0.1-73.4C764.9,6.9,766.1,5.8,770.4,5.3z M756.4,5.8c0,28.2,0,55.7,0,84.2
	c-36.2-20.5-72-40.6-109.1-61.5C683.3,15.8,720.2,14,756.4,5.8z M554.1,58.2c0,49.8,0,99.3,0,150c-46.9-27.2-93.1-54-140.3-81.3
	C458.4,98.3,505.6,77.3,554.1,58.2z M357.8,1507.5c0-75.3,0-149.4,0-224.5c63.7,37.5,126.7,74.5,190.8,112.2
	C484.7,1432.8,421.7,1469.9,357.8,1507.5z M554,1400.9c0,75.4,0,149.6,0,224.7c-64.4-37.3-128.4-74.3-193.8-112.3
	C425.3,1475.6,489.2,1438.5,554,1400.9z M360.2,804.6c64.1-37.7,127.2-74.8,190.9-112.3c0,75,0,149.2,0,224.6
	C487.4,879.4,424.3,842.3,360.2,804.6z M548.6,922.7c-63.9,37.6-126.9,74.7-190.7,112.2c0-74.8,0-148.9,0-224.4
	C421.8,848.1,484.7,885.1,548.6,922.7z M548.7,450.3c-64,37.5-127,74.6-190.9,112.2c0-75.5,0-149.4,0-224.5
	C421.6,375.5,484.6,412.6,548.7,450.3z M360.2,332.1c64-37.7,127.2-74.8,191.1-112.4c0,74.7,0,148.3,0,223.1
	C487.5,405.8,424.4,369.2,360.2,332.1z M551.2,458.7c0,74.3,0,147.6,0,221.9c-63.5-37.3-126.5-74.4-191-112.3
	C424.5,531.4,487.5,495.3,551.2,458.7z M548.7,686.4c-64,37.7-127,74.7-190.9,112.3c0-74.3,0-147.3,0-221.7
	C421.5,613.5,484.5,649.6,548.7,686.4z M358,1046.8c63.9,37.6,126.7,74.5,190.7,112.2c-63.9,37.6-126.8,74.6-190.7,112.2
	C358,1196.1,358,1122,358,1046.8z M360.3,1040.9c64-37.8,127.1-74.9,191.1-112.5c0,74,0,146.8,0,220.5
	C487.7,1112.9,424.6,1077.3,360.3,1040.9z M348.6,559.7c-64.9-36.7-128.9-72.8-193.7-109.5c64.9-37.6,128.9-74.7,193.7-112.3
	C348.6,412.1,348.6,485.3,348.6,559.7z M348.7,576.9c0,74.4,0,147.5,0,221.9C284,761.3,220,724.2,154.9,686.5
	C219.9,649.7,283.8,613.6,348.7,576.9z M346.2,568.3C281,606.1,217.3,643,152.8,680.4c0-74.9,0-149,0-224.2
	C217.3,493.7,281.2,530.7,346.2,568.3z M346.2,804.6c-65.1,37.7-128.9,74.7-193.5,112.1c0-75.2,0-149.4,0-224.3
	C217.2,729.8,281.1,766.9,346.2,804.6z M348.6,1046.7c0,74.2,0,147.5,0,221.8c-64.8-36.6-128.8-72.8-193.7-109.5
	C220,1121.2,284,1084.1,348.6,1046.7z M152.6,1150.3c0-74.4,0-147.4,0-221.6c64.6,37.5,128.5,74.5,193.5,112.2
	C281.1,1077.7,217.1,1113.8,152.6,1150.3z M154.9,922.7c64.8-37.5,128.8-74.7,193.9-112.4c0,75.5,0,149.6,0,224.8
	C284.1,997.6,220.1,960.5,154.9,922.7z M348.7,169.3c0,52.7,0,104.1,0,157c-35.9-20.8-71-41.1-106.6-61.7
	C275.9,230.7,310.9,199.3,348.7,169.3z M120.7,423.2c5.1-9.1,10.4-18.1,15.7-27.1c2.1-3.7,4.2-7.4,6.9-12.2c0,20.6,0,40,0,60.4
	c-8.1-5.4-15.6-10.3-22.9-15.6C119.6,428.1,119.9,424.7,120.7,423.2z M111.7,435.6c9.7,4.9,18.9,9.6,29.1,14.7
	c-16.6,9.2-32.4,18-48.3,26.9c-0.4-0.5-0.8-0.8-1.1-1.1C98.1,462.7,104.8,449.3,111.7,435.6z M34.1,624.7
	c35.5,20.5,70.5,40.8,106.7,61.7C95.4,713,51.1,738.8,5.7,765.3C14,717.6,18,670.4,34.1,624.7z M0,841.1
	c47.5,27.5,93.8,54.3,140.8,81.6c-43.5,25.5-86,50.5-129.3,75.9C2.5,946.6-0.5,894.9,0,841.1z M27.6,1082.4
	c-4.6-19.9-8.8-39.9-13-59.9c-1-4.6-1.7-9.2-2.6-13.7c-0.6-3,0.1-4.9,2.9-6.5c41.8-23.9,83.4-47.8,125.2-71.7
	c0.8-0.7,1.9-0.9,3.3-1.4c0,73.7,0,146.9,0,221.1c-7.3-4-14.1-7.7-20.8-11.5c-30.1-16.9-60.2-33.7-90.2-50.7
	C30.3,1086.9,28.1,1084.6,27.6,1082.4z M31.7,1096.3c0.3-0.3,0.7-0.7,1-1c35.7,20.9,71.3,41.9,108.1,63.7
	c-25,14.4-48.8,28.1-73,42.1C52.1,1166.9,42.6,1131.3,31.7,1096.3z M143.5,1343c-1.2-1.4-2.1-2.2-2.7-3.2
	c-17.6-32.3-35.4-64.5-52.8-96.9c-5.6-10.5-10.6-21.4-15.6-32.2c-0.6-1.4-0.1-4.6,0.9-5.2c22.8-12.5,45.8-24.8,68.7-37.2
	c0.3,0,0.6,0.1,1.5,0.1C143.5,1226.5,143.5,1284.2,143.5,1343z M143.5,913.9c-5.8-3.2-11.2-6.1-16.4-9
	c-40.2-22.8-80.4-45.7-120.7-68.5c-4.4-2.5-5.9-5-5.3-10.5c1.6-13.4,2-26.9,3-40.3c0.2-3.3,0.7-6.6,1.6-9.8c0.4-1.5,1.8-3.1,3.2-3.9
	C53.2,745.5,97.6,719.3,142,693c0.2-0.1,0.6,0,1.5,0C143.5,766.4,143.5,839.7,143.5,913.9z M146.3,680.6
	c-7.9-4.3-15.2-8.3-22.5-12.4c-27.6-15.6-55.1-31.3-82.7-46.8c-3.1-1.8-4-3.1-3.1-6.9c8.8-36,23.6-69.7,38.3-103.5
	c1.3-3,3.1-5.9,4.1-9.1c2-6.7,6.2-11.1,12.4-14.5c16.9-9.5,33.5-19.5,50.2-29.4c0.8-0.4,1.7-0.8,3.3-1.5
	C146.3,531.5,146.3,605.7,146.3,680.6z M152.4,376.1c0-3,1.2-6.6,3.1-8.9c22.8-28.3,45.8-56.4,68.8-84.4c4.3-5,9.1-9.5,13.7-14.5
	c35.3,20.8,71.1,42,108.1,63.8c-64.8,37.6-128.8,74.6-193.4,112.1c-0.2-2.4-0.4-4-0.4-5.6C152.3,417.8,152.2,396.9,152.4,376.1z
	 M154.6,1355.5c-1.1-1.5-2.2-3.5-2.2-5.2c-0.1-60.6-0.1-121.2-0.1-181.9c0-0.8,0.2-1.6,0.5-3.4c64.3,36.3,128.1,72.4,193.3,109.2
	c-59.8,34.3-118.6,67.9-176.8,101.2C164.3,1368.7,159.4,1362.2,154.6,1355.5z M221.5,1439.5c-0.6-0.1-1.4,0-1.7-0.3
	c-14.5-17.6-28.8-35.3-43.3-53c-2.4-3-2.5-4.7,1.2-6.9c56.1-32.5,112.1-65.1,168.2-97.6c0.7-0.4,1.5-0.6,2.7-1.2
	c0,74.6,0,148.8,0,224.1c-45.4-26.3-90.3-52.3-135.1-78.3c-0.3,0.4-0.5,0.7-0.7,1c3.3,3.7,6.5,7.4,9.8,11
	C222.2,1438.7,221.9,1439.1,221.5,1439.5z M351.6,1557.6c-0.4,0.3-0.8,0.7-1.2,1c-44.8-35.3-89.9-70.3-125.7-115.5
	c0.2-0.4,0.5-0.8,0.7-1.2c40.8,22.6,81.6,45.3,123.4,68.5c-11.1,6.6-21.3,12.6-32.6,19.2c2.1,1.7,3.5,3.2,5.2,3.9
	c1.5,0.6,3.7,1.1,5,0.4c7-3.9,13.7-8.1,20.6-12.1c1.2-0.7,2.6-1.2,4.6-2.1C351.6,1533.1,351.6,1545.3,351.6,1557.6z M357.2,171.5
	c0-3.9,1-6.9,4.1-9.1c10.5-7.2,21-14.4,31.6-21.6c0.5-0.4,1.3-0.5,1.7-1c7.6-8.3,14.5-5.6,23.2-0.5c42.1,24.9,84.6,49,127,73.4
	c1.8,1.1,3.6,2.3,6.4,4.1c-64.6,36.6-128.5,72.7-193.4,109.4c-0.2-3-0.5-4.9-0.5-6.8C357.3,270.1,357.3,220.8,357.2,171.5z
	 M498.8,1645.9c-49.1-21.4-94-49.7-137.9-79.8c-1.6-1.1-3.4-3.2-3.4-4.9c-0.3-13-0.1-26-0.1-39c0-0.6,0.4-1.2,0.9-2.8
	c63.3,37.3,126.2,74.3,190.3,112c-8.3,4.5-15.4,8.4-22.6,12.2c-0.6,0.3-1.2,0.5-1.7,0.9C516.1,1651.2,508.2,1650,498.8,1645.9z
	 M554.1,1669.4c-10.9-4.3-21.4-8.5-32.8-13c11.1-6.5,21.6-12.6,32.8-19.2C554.1,1648.6,554.1,1659,554.1,1669.4z M554.3,1386.8
	c-64.9-36.7-128.9-72.8-194.1-109.7c65-37.7,129.1-74.8,194.1-112.5C554.3,1239.2,554.3,1312.1,554.3,1386.8z M559.9,59.2
	c0-4.2,1.3-6.1,5.3-7.4c22.4-7.3,44.7-14.9,67.1-22.1c2.2-0.7,5.3-0.1,7.4,1c36.7,20.7,73.2,41.6,109.8,62.5c1.1,0.6,2.1,1.5,4,2.9
	c-64.6,37.4-128.4,74.4-193.2,112c-0.1-3-0.3-4.7-0.3-6.5C560,154.1,560,106.7,559.9,59.2z M560.4,1401.2
	c64.7,37.5,128.6,74.6,193.6,112.2c-65,37.6-128.8,74.6-193.6,112.2C560.4,1550.5,560.4,1476.5,560.4,1401.2z M560.3,1150.3
	c0-74.4,0-147.3,0-221.7C625,966.1,689,1003.1,754,1040.8C689,1077.6,625.1,1113.7,560.3,1150.3z M560.6,1167.8
	c64.4,36.4,128.4,72.5,193.4,109.3c-64.9,37.6-128.8,74.7-193.4,112.1C560.6,1315.3,560.6,1242.1,560.6,1167.8z M565.5,1159
	c64-37.6,127-74.7,190.8-112.2c0,74.1,0,147.3,0,221.6C692.7,1231.9,629.7,1195.8,565.5,1159z M565.5,922.7
	C629.6,885,692.6,848,756.4,810.5c0,75.3,0,149.4,0,224.5C692.7,997.5,629.7,960.4,565.5,922.7z M560.5,916.8
	c0-75.2,0-149.4,0-224.4C625,729.8,688.9,766.9,754,804.6C689,842.3,625.1,879.3,560.5,916.8z M562.7,686.5
	c65-36.7,128.9-72.9,193.7-109.5c0,74.2,0,147.4,0,221.7C691.8,761.3,627.8,724.2,562.7,686.5z M560.6,680.4c0-75,0-149,0-224.2
	c64.5,37.4,128.3,74.4,193.4,112.1C689,606,625.2,643,560.6,680.4z M560.4,444.3c0-75,0-149,0-224.4
	C625,257.3,688.9,294.4,754,332.1C689,369.7,625.1,406.8,560.4,444.3z M680.7,1708.3c-3.2-0.7-6.5-1.2-9.7-2.1
	c-31.5-8.8-63-17.7-94.4-26.6c-4.6-1.3-9.1-3.1-13.6-4.9c-1.2-0.5-2.8-1.9-2.8-2.9c-0.2-11.2-0.1-22.3-0.1-34.6
	c41,23.7,81,46.8,121,69.9C681,1707.5,680.9,1707.9,680.7,1708.3z M756.5,1720.8c-10.1-1.5-19.9-3.8-29.7-4.3
	c-17.9-1-31.6-11.5-46.2-19.7c-36.9-20.7-73.6-41.7-110.3-62.6c-1.3-0.7-2.4-1.7-4.2-3.1c63.5-37.3,126.5-74.4,190.4-112
	C756.5,1587.1,756.5,1653.8,756.5,1720.8z M756.5,1507.5c-64.7-37.5-128.7-74.6-193.8-112.3c65-37.7,129-74.8,193.8-112.3
	C756.5,1358.1,756.5,1432.1,756.5,1507.5z M756.5,559.7c-63.9-36.6-127-72.8-191-109.5c64-37.7,127.1-74.8,191-112.3
	C756.5,412.1,756.5,485.2,756.5,559.7z M756.5,326.2c-63.8-37.5-126.9-74.6-191-112.3c64.1-37.7,127.2-74.7,191-112.3
	C756.5,176.7,756.5,250.7,756.5,326.2z M793.6,1724.3c-8.6-0.8-17.2-1.7-25.8-2.8c-1-0.1-2.1-1.6-2.7-2.7c-0.4-0.8-0.1-2-0.1-3
	c0-63.6,0-127.3,0-190.9c0-1.5,0.1-2.9,0.3-6c64.8,37.7,128.7,74.7,193.9,112.5c-7.7,4.5-14.2,8.3-20.8,12.1
	c-39.9,22.7-79.9,45.4-119.8,68.1c-6.9,3.9-13.7,8-20.7,11.9C796.7,1724.2,795,1724.5,793.6,1724.3z M956.9,1722
	c-33.8,3.7-67.7,5.5-101.7,5.2c-13.3-0.1-26.6-0.9-39.9-1.5c-2.2-0.1-4.4-0.6-6.8-2c50.8-28.7,101.7-57.3,153.5-86.5
	c0.2,2.6,0.3,4,0.3,5.5c0,24.5-0.1,49,0.1,73.4C962.4,1720.5,961.1,1721.5,956.9,1722z M968.1,6.5c10,1.5,19.7,2.9,29.3,4.4
	c3.6,0.5,7.2,1.1,10.9,1.5c12.9,1.2,22.5,9.4,33.1,15.4c37.7,21.6,75.3,43.4,112.9,65.2c1.2,0.7,2.3,1.7,4.3,3.2
	c-63.7,37.3-126.7,74.4-190.5,111.9C968.1,140.1,968.1,73.4,968.1,6.5z M971,692.3c63.8,37.5,126.8,74.6,190.8,112.2
	c-63.9,37.6-126.9,74.7-190.8,112.2C971,841.6,971,767.4,971,692.3z M970.8,444.4c0-75.3,0-149.3,0-224.6
	c63.9,37.6,126.9,74.6,191,112.3C1097.8,369.7,1034.8,406.8,970.8,444.4z M1166.7,340.9c0,74,0,147.1,0,221.4
	c-64.5-37.4-128.4-74.4-193.4-112.1C1038.2,413.5,1102.1,377.4,1166.7,340.9z M970.9,456.1c63.8,37.5,126.8,74.6,190.9,112.2
	c-64.2,37.8-127.2,74.8-190.9,112.3C970.9,605.5,970.9,531.4,970.9,456.1z M1166.8,810.6c0,75,0,149.2,0,224.3
	c-64.5-37.4-128.4-74.4-193.5-112.1C1038.1,885.2,1102.1,848.2,1166.8,810.6z M1161.8,1277.1c-64,37.6-127,74.7-190.9,112.3
	c0-74.2,0-147.4,0-221.8C1034.7,1204.2,1097.8,1240.3,1161.8,1277.1z M973.3,1159c65-37.7,128.9-74.7,193.5-112.2
	c0,75,0,149,0,224.3C1102.2,1233.7,1038.3,1196.6,973.3,1159z M1166.9,1283c0,75,0,149,0,224.4c-64.6-37.5-128.6-74.5-193.6-112.2
	C1038.4,1357.5,1102.3,1320.4,1166.9,1283z M973.3,686.4c65-36.7,128.9-72.8,193.6-109.4c0,74.3,0,147.3,0,221.6
	C1102.2,761.1,1038.3,724,973.3,686.4z M1166.8,326.1c-64.8-37.6-128.6-74.6-193.5-112.2c65-37.7,128.8-74.7,193.5-112.2
	C1166.8,176.9,1166.8,250.9,1166.8,326.1z M970.8,928.5c63.9,37.6,126.9,74.6,191,112.3c-64.1,36.8-127.2,73-191,109.5
	C970.8,1075.9,970.8,1002.9,970.8,928.5z M970.9,1401.1c63.8,37.5,126.8,74.6,190.8,112.2c-64,37.6-127,74.7-190.8,112.3
	C970.9,1550.5,970.9,1476.5,970.9,1401.1z M971,1721.5c0-28.1,0-55.7,0-84.1c36.2,20.4,71.9,40.6,108.8,61.4
	C1043.9,1710.7,1007.2,1713.5,971,1721.5z M1162.6,1675.2c-22.1,7-44.2,14.3-66.3,21.6c-5,1.7-9.1,1.4-13.9-1.4
	c-34.8-20.6-69.8-40.9-104.8-61.3c-1.1-0.7-2-1.6-3.7-3c64.4-37.3,128.3-74.4,193-111.9c0.2,2.8,0.4,4.5,0.4,6.3
	c0,47.7,0,95.3,0.1,143C1167.4,1672.3,1166.3,1674,1162.6,1675.2z M1167.5,60.8c-0.7,7.8-0.2,15.6-0.2,23.5c0,1.6-0.3,3.2-0.4,5.6
	c-40.7-23.5-80.6-46.6-120.6-69.7c0.1-0.4,0.2-0.7,0.3-1.1c3,0.6,6.1,1,9.1,1.8c34.8,9.9,69.6,20,104.3,29.9
	C1165.2,52.3,1168.1,54.5,1167.5,60.8z M1173.2,1670.6c0-50.5,0-100.3,0-151.6c46.9,27.3,93.1,54.1,140.4,81.5
	C1267.6,1627,1222.3,1652,1173.2,1670.6z M1349.8,1578.2c-7.2,4.8-14.6,9.2-21.8,13.9c-3.9,2.5-7.3,2.2-11.3-0.2
	c-22.1-13-44.5-25.7-66.7-38.6c-22.8-13.2-45.6-26.4-68.4-39.6c-1.7-0.9-3.1-1.8-5.5-3.3c64.8-36.6,128.6-72.7,193.4-109.3
	c0.3,3.1,0.6,5.1,0.6,7.1c0,48.8,0,97.6,0.1,146.4c0,2.6,0.4,5.1,0.8,8.8C1364.5,1568,1357.3,1573.2,1349.8,1578.2z M1378.6,928.5
	c64.7,37.5,128.8,74.6,193.8,112.3c-65,36.8-129,73-193.8,109.5C1378.6,1076.1,1378.6,1003,1378.6,928.5z M1378.7,1558
	c0-52.8,0-104.3,0-156.9c35.8,20.7,70.9,41,106.4,61.6C1451.3,1496.6,1416.3,1527.9,1378.7,1558z M1574.9,1350.7
	c0,3.2-1.3,6.9-3.2,9.4c-23.3,29.8-45.7,60.3-71.9,87.7c-9,9.4-9,9.3-20.1,3c-31.6-17.9-63.3-35.7-94.9-53.6
	c-0.8-0.5-1.6-1.1-3.3-2.4c64.5-37.2,128.5-74.3,193.5-112c0,2.9,0,4.7,0,6.4C1575,1309.7,1575.1,1330.2,1574.9,1350.7z
	 M1606.6,1304.1c-5.1,9.1-10.4,18.1-15.7,27.1c-2.1,3.7-4.2,7.4-6.3,11.1c-0.2-0.1-0.4-0.2-0.7-0.3c0-19.4,0-38.7,0-59.1
	c8.1,5.5,15.7,10.3,23,15.7C1607.7,1299.2,1607.4,1302.6,1606.6,1304.1z M1621.3,1280.6c-1.7,3.4-3.1,7-5.2,10.2
	c-0.7,1-3.3,2-4.1,1.6c-8.3-4.8-16.5-9.8-25.4-15.3c16.6-9.2,32.4-18,48.3-26.8c0.3,0.2,0.7,0.6,1,0.9
	C1631,1261,1626.1,1270.8,1621.3,1280.6z M1688.1,1118c-9.2,33.9-22.9,66.1-37,98.2c-0.7,1.7-1.6,3.3-2.1,5
	c-3,10.1-9.7,16.5-18.8,21.7c-15.5,8.7-30.3,18.5-46.3,28.4c0-75.4,0-149.6,0-224.6c9.2,5.5,18,10.8,26.7,16
	c24.4,14.7,48.8,29.5,73.2,44.2C1689.8,1110.5,1689.9,1111,1688.1,1118z M1717.2,989.8c-3,18.5-5.4,37.2-9.2,55.6
	c-3.7,18-8.9,35.7-13.4,53.6c-1.1,4.5-3.6,2.4-5.6,1.3c-10.8-6.1-21.5-12.4-32.3-18.7c-21.8-12.6-43.6-25.3-65.4-37.9
	c-1.1-0.8-2.3-1.6-4.6-3c45.3-26.4,89.6-52.2,134.8-78.6C1719.9,972.2,1718.6,981,1717.2,989.8z M1726.2,900.7
	c-1.5,13.5-2,27.2-3,40.8c-0.2,2.8-0.5,5.7-1.4,8.3c-0.7,2.1-1.9,4.7-3.7,5.7c-36.2,21.6-72.5,42.9-108.7,64.3
	c-8.3,5-16.5,9.9-25.6,15.3c0-74.2,0-147.5,0-221.6c3.9,2,7.3,3.7,10.7,5.6c42.4,24.1,84.7,48.2,127.1,72.2
	C1725.6,893.6,1726.7,895.9,1726.2,900.7z M1727.3,884.3c-0.5,0.3-1,0.7-1.4,1.1c-46.2-26.8-92.4-53.6-139.4-80.8
	c43.4-25.5,85.8-50.4,128.8-75.6C1725,780.8,1727.6,832.4,1727.3,884.3z"/>
</svg>
