<?xml version="1.0" encoding="utf-8"?>
<!-- Generator: Adobe Illustrator 19.2.1, SVG Export Plug-In . SVG Version: 6.00 Build 0)  -->
<svg version="1.1" id="Layer_1" xmlns="http://www.w3.org/2000/svg" xmlns:xlink="http://www.w3.org/1999/xlink" x="0px" y="0px"
	 viewBox="0 0 1727.1 1727.2" style="enable-background:new 0 0 1727.1 1727.2;" xml:space="preserve">
<style type="text/css">
	.st0{opacity:0.8;fill:#FFFFFF;}
</style>
<path class="st0" d="M-9.9-15.2V1739h1754.2V-15.2H-9.9z M872,0c28.1,1.7,56.2,3.2,84.2,5.3c32.6,2.5,64.7,8.2,96.5,15.7
	c24.6,5.8,48.8,12.9,73,20.2c40,11.9,78.5,27.8,116,46c43.2,21,84.2,45.7,123.3,73.6c47.4,33.9,90.9,72.2,130.6,114.8
	c42.8,46,79.6,96.4,111.1,150.7c1.6,2.8,1.7,4.4-1.5,6.3c-27.6,15.5-55.1,31.3-82.6,46.9c-32.7,18.6-65.5,37.2-98.2,55.8
	c-13,7.4-26,14.7-38.9,22.2c-3.2,1.8-5.7,1.6-8.7-0.1c-25.3-14.6-50.6-29.2-75.9-43.7c-33.8-19.4-67.6-38.8-101.4-58.2
	c-37.5-21.5-75.1-43.1-112.6-64.6c-35.8-20.5-71.7-41.1-107.5-61.6c-36.7-21-73.4-42.1-110-63.3c-1.4-0.8-2.6-3.4-2.6-5.2
	c-0.2-11.8-0.1-23.7-0.1-35.5c0-73,0-146,0-219c-0.2-1.8-0.2-3.7-0.2-6.3C868.8,0,870.4-0.1,872,0z M177.3,340
	C271.9,217.6,390,125.4,533.1,66C637.6,22.5,746.6,0.5,860.6,0.2c0,2.4,0,4.4,0,6.3c0,84,0,168,0.1,252c0,4.5-1.3,7-5.4,9.3
	c-66,37.6-131.9,75.4-197.7,113.2c-40.9,23.4-81.7,47-122.5,70.4c-42.7,24.5-85.5,49-128.2,73.5c-18.4,10.6-36.9,21-55.2,31.9
	c-4.1,2.4-7.2,2.4-11.3,0c-53.2-31-106.4-61.8-159.7-92.6c-20.5-11.9-41-23.9-62.3-36.4C135.9,397,155.7,367.9,177.3,340z
	 M110,1286.5c-21.9-38.5-40.3-78.6-55.8-120c-13.6-36.3-24.8-73.3-33.2-111.1C3.4,976.8-3,897.2,1.3,816.7c1.7-31.1,4.9-62,9.8-92.8
	c6.8-42.4,16.9-84,30-124.9c13.6-42.1,30.3-82.8,50.5-122.2c6.9-13.4,14.6-26.4,21.6-39.7c1.8-3.5,3.4-3.1,6.1-1.5
	c60.5,35.9,121,71.7,181.5,107.6c13.1,7.8,26.3,15.5,39.3,23.5c1.5,0.9,2.6,3.2,2.9,5c0.5,2.6,0.1,5.3,0.1,8
	c0.1,94.6,0.1,189.3,0.1,283.9c0,96.3,0,192.6,0.1,289c0,4.4-1,7.1-5.2,9.5c-41.4,23.5-82.7,47.1-124,70.8
	c-32.2,18.5-64.5,36.9-96.6,55.5C113.9,1290.5,112.3,1290.6,110,1286.5z M860.6,1526.8c0,64.7,0,129.3,0,194c0,1.7,0,3.7,0,6.3
	c-5.2,0-9.5,0.2-13.8,0c-28.6-1.8-57.2-3.1-85.7-5.8c-18-1.7-36-4.6-53.7-8.3c-27-5.6-54-11.5-80.5-18.7
	c-22.2-6.1-44.3-13.3-65.7-21.8c-29.3-11.6-58.2-24.2-86.6-37.7c-41.6-19.8-80.6-44-118.1-70.8c-45-32.3-86.6-68.5-124.4-109
	c-33.3-35.6-63-74-88.7-115.4c-7.8-12.6-15-25.4-22.7-38.1c-2-3.2-1.8-5,1.7-7c27.1-15.4,54.1-31,81.2-46.5
	c37.7-21.6,75.4-43.2,113.2-64.8c9.2-5.3,18.4-10.5,27.5-16c3.2-1.9,5.9-1.9,9.1,0c31.8,18.5,63.7,36.9,95.6,55.3
	c37,21.4,74.1,42.8,111.2,64.2c40.8,23.5,81.6,47.1,122.4,70.6c42.7,24.6,85.3,49.2,128,73.8c15.7,9,31.3,18.1,47,27
	c2.7,1.5,3,3.5,3,6.2C860.5,1485.1,860.6,1506,860.6,1526.8z M860.8,1447c-52.3-30.1-104.6-60.4-156.8-90.6
	c-54.4-31.4-109-62.7-163.4-94.1c-49.4-28.5-98.7-57.2-148.1-85.8c-10.6-6.2-21.3-12.2-31.8-18.6c-1.7-1.1-2.6-3.7-3.5-5.8
	c-0.5-1.1-0.1-2.6-0.1-4c0-191,0-382-0.1-572.9c0-4.9,1.4-7.8,5.8-10.3c37.5-21.4,74.8-43,112.1-64.5c35.3-20.4,70.7-40.8,106-61.3
	c42.5-24.6,85-49.1,127.5-73.7c39-22.6,78.1-45.2,117.1-67.7c11.6-6.7,23.2-13.5,35-19.9c1.6-0.9,4.5-0.8,6.1,0.1
	c32.3,18.4,64.4,37,96.6,55.5c41.5,23.9,83.1,47.8,124.5,71.8c44.2,25.6,88.4,51.2,132.6,76.8c48.4,28,96.7,56,145.3,83.8
	c4.1,2.4,4.3,5.3,4.3,9c0,66.8,0,133.7,0,200.5c0,28.6,0,57.1,0,85.6c0,95.2,0,190.3,0.1,285.5c0,5.2-1.7,8.1-6.1,10.6
	c-47.2,27.3-94.4,54.7-141.5,82.2c-55.7,32.5-111.4,65.1-167.1,97.7c-63,36.8-126.1,73.5-189.2,110.1
	C864.8,1447.8,862.2,1447.7,860.8,1447z M1605.5,1304.8c-36.3,61.6-79.6,117.8-129.9,168.7c-42.2,42.8-88.5,80.6-138.8,113.5
	c-37.6,24.6-76.9,46-117.7,64.6c-34,15.5-68.8,29.2-104.7,39.5c-28.2,8.1-56.9,15.1-85.7,21c-33.8,6.9-68,11.2-102.5,12.9
	c-18,0.8-35.9,1.6-53.9,2.4c-1.7-0.1-3.4-0.2-5.8-0.2c0-2.6,0-4.5,0-6.5c0-85.1,0-170.3-0.1-255.4c0-3.9,1-6.1,4.6-8.2
	c44.3-25.4,88.5-51,132.8-76.5c47.7-27.5,95.4-55,143.1-82.5c49.4-28.5,98.8-57.1,148.2-85.6c26.1-15.1,52.3-30.2,78.3-45.4
	c3.4-2,6.1-1.9,9.5,0.1c52,30.6,104.1,61.2,156.2,91.7c21.3,12.5,42.7,24.8,64.1,37.3C1608.8,1299.4,1608.7,1299.4,1605.5,1304.8z
	 M1725.8,908.3c-1.7,31.6-4.8,63-9.9,94.3c-5.8,35.5-13.8,70.4-23.8,104.9c-17.2,58.7-41.4,114.4-70.1,168.3
	c-2.6,4.8-5.7,9.4-8,14.3c-1.5,3.2-3.1,3.4-5.7,1.9c-30.2-17.4-60.4-34.7-90.6-52.1c-32.2-18.5-64.4-37-96.7-55.4
	c-12.4-7.1-24.8-14.1-37.1-21.3c-1.4-0.8-2.2-3-2.7-4.7c-0.4-1.4-0.1-3-0.1-4.5c-0.1-96.7-0.1-193.6-0.1-290.4
	c0-97.3,0-194.6-0.1-292c0-4.5,1.3-7,5.4-9.4c43.3-24.5,86.5-49.3,129.6-74c30.4-17.4,60.8-34.8,91-52.3c3.4-1.9,4.9-2.3,7.2,1.7
	c21.5,38.8,40.4,78.9,55.6,120.6c11.2,30.7,21.3,61.9,30.2,93.3c9.7,34.1,16,69,20.3,104.2C1726.5,806.4,1728.6,857.3,1725.8,908.3z
	"/>
</svg>
