<?xml version="1.0" encoding="utf-8"?>
<!-- Generator: Adobe Illustrator 19.2.1, SVG Export Plug-In . SVG Version: 6.00 Build 0)  -->
<svg version="1.1" id="Layer_1" xmlns="http://www.w3.org/2000/svg" xmlns:xlink="http://www.w3.org/1999/xlink" x="0px" y="0px"
	 viewBox="0 0 1732.3 1727.5" style="enable-background:new 0 0 1732.3 1727.5;" xml:space="preserve">
<style type="text/css">
	.st0{opacity:0.8;fill:#FFFFFF;}
</style>
<path class="st0" d="M0-12.3v1749h1749v-1749H0z M111.5,444.1c21.4-40.5,46.5-78.6,76.4-113.2c14.6-16.9,31-32.3,46.7-48.3
	c30.2-30.8,60-62,90.8-92.1c11.1-10.8,24.3-19.4,37.2-28.2c33.4-22.9,68.3-43.4,103.8-62.9c0.6-0.3,1.4-0.5,1.8-0.6
	C345.6,221.3,223,343.9,100.4,466.5C104,459.2,107.5,451.5,111.5,444.1z M60,554.9c6.5-16.1,12.7-32.4,20.6-47.9
	c3.6-7.1,10.6-12.5,16.4-18.3c59.4-59.5,118.9-118.9,178.3-178.4c51.6-51.6,103.2-103.2,154.8-154.8c24.3-24.3,48.4-48.9,73.2-72.8
	c6-5.8,14.1-9.7,21.8-13.5c19.5-9.7,39.9-17.2,61-22.7c0.7-0.2,1.6-0.2,1.9-0.2C408.6,225.8,229,405.4,49.5,584.9
	C52.9,575.2,56,564.9,60,554.9z M28.4,653.3c3.2-12.4,6.7-24.7,10.4-36.9c0.7-2.4,2.6-4.6,4.4-6.4
	c80.1-80.2,160.3-160.4,240.5-240.6C393.1,260,502.4,150.6,611.9,41.3c2.7-2.7,6.3-5,9.9-6c18.1-5,36.3-9.6,54.5-14.2
	c1.6-0.4,3.3-0.3,4.6-0.4C461.8,239.8,242.6,459,23,678.6C24.8,670.1,26.2,661.6,28.4,653.3z M16.4,708.4c0.5-3.3,2.6-6.9,5-9.3
	c74.8-75,149.7-149.9,224.6-224.8c72-72,144-144,215.9-215.9c79.9-79.9,159.9-159.8,239.7-239.9c5.1-5.1,11.2-5.6,17.2-6.5
	c14.6-2.1,29.4-3.5,45.5-5.4c-251.8,253-503,505.2-754.2,757.4c-0.3-0.3-0.6-0.5-0.9-0.8C11.5,744.9,13.7,726.6,16.4,708.4z
	 M1628,1272.7c-23.2,43.4-49.2,85.1-81.4,122.3c-15.5,17.9-32.9,34.2-49.5,51.1c-29.4,30.1-58.5,60.6-88.6,90.1
	c-11.2,10.9-24.6,19.7-37.5,28.6c-33.6,23.3-68.9,43.7-104.6,63.4c-0.5,0.3-1.1,0.3-1.8,0.5c123.4-123.4,246.6-246.6,370.6-370.6
	C1632.6,1263.4,1630.4,1268.1,1628,1272.7z M1679.6,1155.1c-8,20-15.9,40-23.9,60.1c-4.5,11.3-14.2,18.1-22.3,26.3
	c-50.4,50.7-101.1,101.1-151.6,151.6c-51.6,51.6-103.2,103.2-154.8,154.8c-32.5,32.5-64.8,65.3-97.7,97.4
	c-5.7,5.6-13.7,9.1-21.1,12.8c-19.5,9.6-39.9,17.2-61,22.7c-0.8,0.2-1.7,0.1-3.9,0.2c180-179.1,359.2-357.3,538.4-535.6
	c0.5,0.3,0.9,0.5,1.4,0.8C1681.9,1149.2,1680.8,1152.1,1679.6,1155.1z M1405.1,1149.4c108-107.9,215.9-215.9,323.9-323.8
	c0.4,0.2,0.8,0.4,1.2,0.7c0.1,1.6,0.3,3.2,0.3,4.7c0,13,0.2,26-0.1,39c-0.1,2.8-1.4,6.3-3.4,8.2c-82.3,82.5-164.8,164.8-247.2,247.2
	c-28.9,28.9-57.8,57.8-86.6,86.8c-1.6,1.6-2.6,4.1-3.2,6.4c-1.2,4.7-1.9,9.6-2.7,14.4c0.4,0.2,0.9,0.4,1.3,0.6
	c113.5-113.5,227.1-227.1,340.9-340.9c0.7,1.2,1.1,1.7,1.1,2c-0.8,15.3-1.3,30.6-2.5,45.8c-0.2,2.9-2.2,6.2-4.3,8.4
	c-49.4,49.6-98.9,99-148.3,148.4c-63.1,63.1-126.2,126.3-189.4,189.3c-6.5,6.4-5.2,14.1-6.4,21.5c0.4,0.3,0.8,0.5,1.2,0.8
	c114.3-115.3,228.6-230.5,342.9-345.8c0.6,0.2,1.1,0.3,1.7,0.5c-0.8,8.1-1.6,16.2-2.5,24.3c-1.2,10.2-2.7,20.5-3.5,30.7
	c-0.3,3.7-1.2,6.5-3.8,9.2c-40.4,40-80.8,80-121.2,120.1c-72.6,72.1-145.3,144.1-217.8,216.3c-1.6,1.6-2.8,4.1-3.2,6.3
	c-1.2,5.6-1.8,11.3-2.7,17c0.5,0.2,0.9,0.4,1.4,0.6c112.4-113.3,224.8-226.7,337.2-340c0.5,0.3,1,0.5,1.4,0.8
	c-1.8,9.1-3.4,18.2-5.6,27.2c-3,12.3-6.3,24.4-9.9,36.5c-0.8,2.7-2.5,5.4-4.5,7.4c-55.6,55.5-111.3,111-167,166.5
	c-54.6,54.3-109.3,108.6-163.9,162.9c-66.6,66.3-133.2,132.7-199.8,199c-13,12.9-25.9,25.9-39,38.6c-2,2-4.7,3.8-7.4,4.6
	c-20.2,6-40.5,11.8-61.6,16.8c62.7-62.7,125.4-125.5,188.9-189c-9.1-0.9-16.3-0.7-22.7,5.7c-57.5,57.7-115.1,115.2-172.7,172.8
	c-2.1,2.1-4.4,4-6.3,6.3c-5,6.2-11,9.8-19.2,10.8c-12.9,1.5-25.6,4.1-38.5,6c-3.7,0.5-7.5,0.1-11.5,0.1
	c67.1-66.9,133.9-133.6,201.3-201c-5.2-1.4-8.8-2.7-12.5-3.2c-1.5-0.2-3.6,1.2-4.9,2.4c-21.9,21.7-43.6,43.5-65.4,65.3
	c-45.2,45.2-90.5,90.4-135.6,135.7c-2.8,2.8-5.6,4-9.6,4.2c-12.6,0.5-25.3,1.6-37.9,2.3c-2.6,0.2-5.2,0-8.7-1.1
	c72.4-71.5,144.8-143,218.2-215.4c-5-0.9-8.7-1.8-12.5-2c-1.5-0.1-3.4,1.1-4.6,2.3c-41.7,41-83.3,82-124.9,123.1
	c-30.3,30-60.6,60-90.9,90c-2.5,2.5-5.1,3.6-8.8,3.6c-12.8-0.2-25.7-0.1-38.5-0.1c-1.6,0-3.2-0.2-5.5-1.5
	c75.4-75.4,150.7-150.8,226.1-226.2c-5.2-4.5-12.7-4.2-17,0.1c-65,65-130,130-195,195c-9.5,9.5-19.1,19-28.5,28.7
	c-2.4,2.5-4.7,3.2-8.3,2.8c-11.2-1.3-22.5-2-33.8-3.1c-2.7-0.3-5.4-1.1-9.3-1.9c77.9-76.9,155-153.2,232.5-229.7
	c-4.9-1.3-9.3-2.7-13.7-3.3c-1.5-0.2-3.6,1.2-4.9,2.5c-18.6,18.4-37.1,36.9-55.6,55.4c-52.5,52.5-105,105-157.4,157.5
	c-3.2,3.2-6.9,5.9-9.4,9.5c-4.2,6.1-9.8,6-15.9,4.9c-10.9-2-21.9-4.1-33.4-6.4c75-75,150.1-150.2,226.1-226.1
	c-9.4-1.2-16.1-1.1-22.8,5.6c-71.5,71.2-143.4,142-215.3,212.7c-1.8,1.7-4.8,2.9-7.3,2.9c-12,0.4-23-4.2-35.4-8
	c72.2-72.1,143.7-143.5,215.4-215c-6.9-3.3-15-1.9-19.7,2.7c-62.6,62.5-125.2,125.1-187.8,187.6c-6.3,6.3-12.7,12.6-18.9,19.1
	c-2,2.1-3.8,2.6-6.5,1.6c-11.7-4-23.5-7.8-36.8-12.1c66.4-66.3,131.5-131.2,196.7-196.4c-6.8-3-15.2-1.7-19.6,2.7
	c-62.1,62.1-124.2,124.1-186.1,186.3c-3,3-5.5,3.8-9.5,2.1c-8.7-3.5-17.7-6.5-26.5-9.8c-1.3-0.5-2.5-1.5-4.4-2.7
	c58-58,115.6-115.6,173.8-173.9c-7.9-1-13.6-0.5-19.1,5c-53.7,53.1-107.6,106-161.4,159.1c-3.8,3.7-7,4.2-11.3,2
	c-8.8-4.5-17.7-8.9-27-13.6c47.1-46.9,93.3-93,139.6-139c-0.4-0.7-0.9-1.4-1.3-2.1c-7.2,1.5-15-0.2-21.2,6.1
	c-41.2,41.4-82.6,82.6-123.8,124c-3.4,3.5-6.2,4.6-10.7,2.3c-8.9-4.7-18-8.9-28.3-14c35.2-34.2,69.2-67.4,103.2-100.5
	c-8.7-0.8-16.7-3.6-24.3,4.3c-28,28.9-56.7,57.1-85,85.7c-3.5,3.5-5.8,3.8-10,0.8c-9.2-5.4-17.7-10.2-27.2-16
	c27.5-27.3,54.3-53.9,81.3-80.8c-1.1-0.4-1.6-0.5-2-0.8c-9-4.5-14.5,0.1-20.7,6.4c-21.5,22.2-43.5,43.7-65.3,65.7
	c-2.9,2.9-5.3,4.5-9.3,1.8c-8.4-5.8-17-11.3-26.1-17.3c25.6-25.4,50.5-50.1,75.8-75.2c-2-0.9-3.3-1.5-4.6-2.1
	c-7.3-3.6-7.2-3.6-13.2,2.2c-21.9,21.1-43.8,42.1-65.6,63.3c-2.7,2.6-4.1,2.3-6.9,0.2c-6.3-4.8-13.1-9-19.7-13.5
	c-1.5-1-2.9-2.1-4.5-3.2c25.3-25.2,50.3-50.1,75.1-74.8c-0.5-1.3-0.5-2-0.9-2.5c-6.6-8.9-5.3-8.9-13.5-0.7
	c-22.2,22.1-44.4,44.2-66.5,66.5c-2.6,2.6-4.1,2.9-6.9,0.5c-7-5.9-14.2-11.4-21.3-17.1c-2.6-2-2.5-3.5,0-5.9
	c25.8-25.6,51.3-51.3,77.1-76.9c2.8-2.8,4.3-4.8,1.3-8.6c-1.8-2.1-2.2-5.4-3.5-8.9c-29.5,29.4-59,58.9-88.2,88.1
	c-8.2-7.6-15.9-14.9-23.7-22c-2.7-2.4-1.2-3.9,0.6-5.7c17-17.4,34-34.9,51-52.3c14.4-14.8,28.5-29.7,43.2-44.2
	c5.1-5.1,3.4-10.5,3.8-16c-0.4-0.3-0.9-0.6-1.3-0.8c-35.9,35.8-71.8,71.7-107.6,107.5c-7.9-8.1-15.5-15.9-23.1-23.7
	c-2.7-2.8-1.9-4.9,0.8-7.4c41-40,82-80,122.8-120.2c1.5-1.4,2.2-4.3,2.2-6.4c-0.1-3.9-1-7.8-1.7-12.7c-1.8,1.5-3,2.3-3.9,3.3
	c-41.2,43-82.4,86-123.6,129.1c-4.9,5.1-5.4,5.6-10.2,0.7c-6.7-6.9-12.5-14.5-18.5-22c-0.6-0.8,0.4-3.6,1.5-4.7
	c20.4-20.3,41-40.4,61.5-60.5c29.7-29.1,59.3-58.3,89-87.4c2.6-2.6,3.5-4.6,1.8-8.1c-1.1-2.4-0.7-5.5-1-8.3
	c-52.9,53-105.8,106-158.9,159.2c-5.9-7.5-10.9-13.9-15.8-20.3c-0.2-0.3-0.3-0.6-0.5-0.8c-6.8-8.1-6.8-8.1,0.5-15.4
	c54.4-54.3,108.8-108.7,163.3-162.9c5.7-5.6,2.1-10.5,0.4-17.4c-60.3,59.3-119.9,117.9-180,177.1c-2.8-4-5.4-7.6-7.9-11.3
	c-2.9-4.4-5.4-9.2-8.6-13.4c-2.3-3-2.1-4.8,0.6-7.4c27.3-27.5,54.5-55.1,81.7-82.7c33.4-33.9,66.7-67.8,100.1-101.6
	c2.7-2.7,3.9-5.1,1.9-8.7c-1.1-2-1.4-4.4-2.4-7.7c-63.4,64.4-126.5,128.4-190.5,193.3c-3.4-5.9-6.5-11-9.5-16.3
	c-2.5-4.3-4.3-9.1-7.3-13c-2.9-3.8-1.7-5.9,1.1-8.7c31.5-31.3,62.9-62.7,94.3-94.1c32.9-32.9,65.8-65.9,98.8-98.7
	c4.5-4.5,0.7-8.2-0.5-13.6c-67.6,66.7-134.6,132.7-202.5,199.6c-4-7.3-8-13.5-11.1-20.2c-6.2-13.5-5.9-13.5,4.7-24.1
	c64.1-64,128.1-128,192.1-192.1c4.1-4.1,3.3-8.4-3-13.8c-68,69-136.1,138-205,207.8c-2.6-6-4.8-10.9-7-15.8
	c-2.6-5.9-5.1-11.9-8-17.6c-1.3-2.6-1-4,1-6c26.8-26.7,53.4-53.4,80.1-80.1c40.7-40.8,81.5-81.6,122.2-122.4
	c3.6-3.6,2.8-10.5-1.6-12.5c-1-0.4-3.3,0.8-4.3,1.9c-14.1,14.1-28,28.4-42,42.5c-52.1,52.8-104.1,105.6-156.2,158.4
	c-1,1-2.2,1.9-4.3,3.8c-2.7-6.1-5.2-11.6-7.6-17.1c-2.2-5.2-3.8-10.7-6.5-15.6c-1.8-3.4-1.2-5.2,1.3-7.6
	c23.3-23.2,46.6-46.5,69.8-69.7c42.4-42.4,84.9-84.8,127.3-127.2c5.9-5.9,5.7-9.2-0.9-15.4c-67.2,67.3-134.4,134.6-201.6,201.9
	c-0.7-0.1-1.4-0.2-2.1-0.3c-2.8-7.5-5.7-14.9-8.5-22.4c-0.2-0.6-0.1-1.4-0.4-1.9c-6.2-11.2-0.9-18.3,7.3-26.2
	c61.9-60.4,123.3-121.3,185-181.9c2.8-2.7,3.5-4.8,1.2-8c-1.2-1.7-2-3.8-2.8-5.3C161.6,952,97.5,1016.3,33.4,1080.5
	c-0.7-0.3-1.4-0.7-2.2-1c-1.5-4.6-3.1-9.1-4.4-13.8c-2-6.9-3.6-13.8-5.7-20.6c-0.9-3.1-0.4-5.1,2-7.5
	c58.7-59.5,117.4-119.1,176.1-178.7c7-7.1,7-7.1,1.1-16.3C140.2,903,80,963.3,19.7,1023.6c-0.6-0.4-1.2-0.8-1.8-1.2
	c-1-5.4-2.1-10.8-3-16.2c-1.2-7.5-2.6-15.1-3.2-22.7c-0.2-2.5,1.2-5.9,3.1-7.7c33.3-33.5,66.7-66.8,100.1-100.2
	c20.5-20.5,40.9-41.1,61.6-61.4c3.3-3.2,3.8-5.8,1.2-9.4c-1.1-1.5-1.9-3.3-3.4-6c-55.4,55.5-110.2,110.4-166,166.3
	c-0.9-8-1.8-14.7-2.5-21.5c-0.6-5.9-0.6-12-1.6-17.9c-0.8-4.2,0-7,3.1-10.1c40.1-39.9,80.1-80,120.2-120c8-8,15.7-16.4,24.1-23.9
	c5.5-4.9,7.7-9.6,2.5-16.7C104,805,53.9,855.1,3.9,905.1c-0.7-0.2-1.3-0.3-2-0.5c-0.6-12.9-0.8-25.8-1.8-38.6
	c-0.6-7.6,2-12.8,7.5-18.2c45.2-44.7,90-89.8,135-134.6c2.9-2.9,4.5-5.8,4-10c-0.4-3.1-0.1-6.3-0.1-9.9
	c-48.2,48.4-96,96.3-143.8,144.2c-0.6-0.3-1.2-0.6-1.8-0.9c-0.2-1.3-0.7-2.7-0.5-3.9c1.7-16.2,3.4-32.4,5.3-48.6
	c0.2-1.8,2.1-3.7,3.5-5.1c45.4-44.7,90.8-89.4,136.3-134c10.6-10.5,21.3-21,31.9-31.5c1.3-1.3,2.8-2.6,3.4-4.2
	c3.2-8.5,9.7-13.9,16.2-19.8c13.5-12.3,26.7-25,39.6-37.9C417.3,371,597.9,190.3,778.5,9.6c2.7-2.7,5.4-3.7,9.2-3.8
	c11.6-0.5,23.3-1.4,34.9-2.2c3.6-0.2,7.3-0.4,10.9-0.6c0.3,0.4,0.7,0.9,1,1.3C657.3,181.4,480.1,358.6,302.9,535.8
	c13.6-3,25.3-7.7,35.5-18.1c59.2-60.2,119.2-119.6,178.8-179.3c59.6-59.6,119.1-119.2,178.6-178.8C747.9,107.5,800,55.4,852.2,3.4
	c1.9-1.9,5.2-3.1,7.8-3.2c13.2-0.3,26.3-0.2,39.5-0.1c1.4,0,2.9,0.2,5.1,1.5C741.7,164.5,578.8,327.4,415.8,490.4
	c0.3,0.5,0.6,0.9,0.9,1.4c6.6-3.4,13.1-7.3,20-10.2c19.5-8.1,31.9-24.5,46.1-38.7C628.3,297.6,773.6,152.2,919,6.8
	c2.8-2.8,5.6-4.2,9.6-3.9c13.4,1.3,26.8,2.3,41.5,3.5C926.3,50.2,883,93.5,839.8,136.8c0.2,0.4,0.4,0.8,0.6,1.2
	c7.7-1.8,16-0.7,22.5-7.3C902.2,91.1,941.7,51.6,981.1,12c2.6-2.6,5.2-3.8,8.8-3.2c10.3,1.7,20.7,3.4,31,5.1
	c2.4,0.4,4.8,0.6,8.1,1.1c-41,42-81.4,83.3-121.9,124.7c8,5.3,8.7,5.2,14.9-0.8c38.9-38,78-76,116.6-114.3c5.5-5.4,11.2-4.7,17-3.7
	c9,1.7,17.9,4.5,26.8,6.8c0.1,0.6,0.3,1.1,0.4,1.7c-43.7,43.6-87.5,87.2-131.3,131c0.6,0.8,0.9,1.3,1.4,1.8c7.9,8.2,6,7.3,12.9,0.4
	c42.8-42.7,85.6-85.4,128.3-128.2c2.2-2.2,3.9-2.8,6.9-1.9c11.3,3.4,22.6,6.6,34.7,10c-1.2,1.6-2.2,3.2-3.5,4.5
	c-47,47-94,94.1-141.1,141.1c-2.6,2.6-4.7,4.9-1.4,8.3c3.4,3.5,6.4,3.5,10-0.1c49-49,98-98,146.9-147.1c3-3,5.1-3.2,8.9-1.3
	c8.9,4.3,18.2,7.8,27.4,11.8c1.3,0.6,2.4,1.5,5.4,3.4c-7.8,7.2-15.2,13.6-22.1,20.5c-47.6,47.4-95.1,94.9-142.6,142.4
	c-5.5,5.5-5.5,5.5,0.9,12.8c2-1.9,4.1-3.6,6-5.6c54.4-54.4,108.7-108.7,163-163.2c3.5-3.5,5.7-4.7,10.7-1.8c7.1,4.1,15.3,6.3,23,9.4
	c2.4,1,4.7,2.4,8.1,4.2c-63.1,62.1-125.6,123.7-188.5,185.6c2.7,3.7,5.3,7.2,8.3,11.2c8.4-8.5,16.6-16.6,24.7-24.9
	c53.5-54.3,106.9-108.6,160.3-162.9c2.3-2.4,4.1-2.8,7.2-1.2c8.4,4.3,17.1,8.1,25.6,12.1c1.3,0.6,2.4,1.6,4.2,2.8
	c-5.8,5.9-11.3,11.4-16.7,16.9c-59.8,60.6-119.6,121.3-179.3,181.9c-4.1,4.2-4.1,4.7,0.3,8.5c0.8,0.7,1.4,1.6,2.6,2.9
	c9.7-9.8,19.2-19.4,28.8-29c55.4-55.4,110.9-110.8,166.3-166.2c3-3,5.9-7.6,9.5-8.2c3.2-0.5,7.1,3.4,10.7,5.3
	c7.5,4.1,15,8.2,24,13.2c-5.4,5-9.9,8.9-14.2,13c-65.4,64.4-130.7,128.8-196.1,193.3c-3.9,3.9-2.2,10.5,3.2,11.7
	c1.2,0.3,3.2-1.3,4.4-2.5c20.5-20.4,40.9-40.8,61.4-61.3c48.4-48.4,96.8-96.8,145.2-145.3c2.6-2.6,4.6-3.1,7.6-0.8
	c8.7,6.7,17.5,13.1,26.4,19.8c-72.1,72-144,143.9-216.5,216.4c3.4,3,6.1,5.4,9.3,8.3c6.1-6,12.3-12.1,18.4-18.2
	c65.8-65.7,131.5-131.4,197.2-197.3c3-3,4.3-2.5,7.2,0c6.3,5.6,13.1,10.6,19.8,15.9c1.4,1.1,2.8,2.2,4.6,3.6
	c-73.2,73.2-146.1,146-219.3,219.2c2.8,2.7,5.4,5.1,8.4,8c8.3-8.3,16.6-16.5,24.8-24.8c63.5-64.4,127.1-128.7,190.5-193.2
	c2.9-3,5.1-4,8.5-0.7c7,6.8,14.3,13.4,21.5,20c2.5,2.3,0.8,3.6-0.9,5.2c-19.7,19.7-39.4,39.4-59.1,59.1
	c-50.3,50.3-100.6,100.6-150.9,150.8c-1,1-1.9,2.2-3.2,3.8c3,2.4,5.8,4.6,9.4,7.5c71.6-71.7,143.3-143.6,214.9-215.2
	c8.5,8.5,16.7,16.5,24.9,24.7c-70,69.9-140.1,139.8-209.9,209.6c4.8,7.5,9.7,8.2,14.9,3c67.9-67,135.9-134,203.8-201
	c0.9-0.9,2-1.7,3.7-3.1c7.4,7.2,14.8,14.2,22.1,21.4c2.4,2.4,2.3,4.6-0.3,7.1c-65.1,65-130.1,130-195.1,195c-1,1-2,2.2-3,3.3
	c3,1.8,5.6,3.8,8.6,5c1.1,0.4,3.3-0.7,4.3-1.7c24.3-24.4,48.4-49,72.6-73.5c39.1-39.7,78.2-79.3,117.2-119.1c3.3-3.4,5.7-4,8.9-0.3
	c6.4,7.5,12.9,15,19.1,22.7c0.6,0.7-0.5,3.6-1.6,4.7c-14.6,14.8-29.3,29.5-43.9,44.2c-45.5,45.5-91,90.9-136.4,136.4
	c-1.4,1.4-2.6,2.9-4.1,4.6c1.9,0.7,3.3,1.1,4.5,1.8c3.6,1.9,6.2,1.1,9.1-1.9c59-59.2,118.2-118.4,177.3-177.5c0.5-0.5,1-0.9,1.8-1.6
	c5.1,6.4,10,12.8,15,19.1c0.3,0.4,0.5,0.9,0.8,1.2c6.6,7.8,6.7,7.8-0.5,15c-52.3,52.3-104.6,104.5-156.8,156.7
	c-1.2,1.2-2.2,2.4-4.1,4.4c4.6,1.8,8.6,3.5,12.8,4.7c1.1,0.3,3-1.2,4-2.2c46.1-46.1,92.2-92.1,138.2-138.3
	c7.1-7.2,14.1-14.5,22-22.7c6.6,10.3,12.7,19.7,19.1,29.6c-48.2,49.1-96.4,98.3-144.8,147.6c7.4,4.7,9.4,4.5,14.9-0.9
	c44-44,88-88,132-132c1.1-1.1,2.4-2.1,4.4-3.9c4.2,7.5,8.2,14.6,12.1,21.6c1.2,2.2,2,4.7,3.7,6.5c3.9,4.3,2.4,7-1.4,10.6
	c-39.1,37.9-78,76-116.9,114.1c-0.5,0.5-0.9,1-1.3,1.5c5,7,9,7.4,15,1.5c36.6-35.7,73.2-71.3,109.9-107c1.1-1,2.2-2,4.2-3.8
	c3.9,7.1,8,13.4,11.1,20.3c6,13.3,5.7,13.4-4.6,23.7c-29.5,29.4-59,58.9-88.5,88.4c-7,7.1-7.9,5.4,1.9,13.3
	c33.9-34.1,67.9-68.3,102.7-103.3c3.3,8,6.3,15.3,9.3,22.5c1.3,3.1,2.1,6.5,4.2,8.9c3.6,4.2,1.5,6.6-1.5,9.5
	c-30.2,29.2-60.3,58.4-90.5,87.6c-1,1-1.9,2.2-2.8,3.2c1.9,3.4,3.7,6.5,5.9,10.5c32.3-31.3,64.5-62.5,97.2-94.3
	c3.2,7.7,6,14.5,8.8,21.3c1.3,3.2,2,6.8,3.7,9.7c2.4,4.2,0.5,6.6-2.3,9.5c-29.4,29.3-58.6,58.9-88.4,87.9
	c-5.9,5.8-6.3,11.7-5.6,19.9c33.9-32.9,67.1-65.2,101.5-98.6c3.1,7.6,6.1,14.3,8.5,21.2c1.7,5,2.9,10.2,3.8,15.5
	c0.3,1.9-0.5,4.6-1.8,6c-37.6,37-75.3,74-113.3,110.7c-6.5,6.3-7.4,14.6-11,21.9c-1.7,3.4-2.6,7.3-2.8,11.5
	c44-44.9,87.9-89.8,132.7-135.4c1.7,5.6,3.4,10.5,4.8,15.4c1.7,6.1,2.7,12.4,5,18.2c1.9,4.7,0.1,7.2-2.9,10.3
	c-37.3,37.2-74.5,74.5-111.8,111.7c-31.3,31.2-62.9,62.1-93.6,93.9c-7.7,7.9-12.5,18.6-18.5,28.1c-2.2,3.5-3.9,7.2-5.9,10.8
	c0.4,0.3,0.7,0.6,1.1,0.9c78.2-77.3,156.5-154.6,235.1-232.3c0.4,1,0.7,1.5,0.8,2c1.8,12.2,3.6,24.3,5.1,36.5c0.2,1.8-1,4.4-2.4,5.8
	c-15.1,15.3-30.4,30.5-45.7,45.7c-55.6,55.5-111.1,111-166.7,166.6c-20.5,20.5-41.1,41-61.4,61.6c-2.9,3-5.4,6.8-6.8,10.7
	c-2.2,6.1-3.3,12.7-4,19.6c96.5-97.4,193-194.9,289.5-292.3c0.5,0.1,1,0.2,1.5,0.4c0.8,7.8,1.7,15.6,2.5,23.4
	c0.7,6.4,0.9,13,1.9,19.3c0.6,3.6-1.1,5.6-3.2,7.7c-24.9,24.8-49.7,49.7-74.6,74.5c-80.3,80.3-160.6,160.6-241,240.9
	c-7,7-8.5,15.6-9.8,24.5C1404.2,1148.8,1404.6,1149.1,1405.1,1149.4z"/>
</svg>
