<?xml version="1.0" encoding="utf-8"?>
<!-- Generator: Adobe Illustrator 19.2.1, SVG Export Plug-In . SVG Version: 6.00 Build 0)  -->
<svg version="1.1" id="Layer_1" xmlns="http://www.w3.org/2000/svg" xmlns:xlink="http://www.w3.org/1999/xlink" x="0px" y="0px"
	 viewBox="0 0 1727.4 1727.5" style="enable-background:new 0 0 1727.4 1727.5;" xml:space="preserve">
<style type="text/css">
	.st0{opacity:0.8;}
	.st1{fill:#FFFFFF;}
</style>
<g class="st0">
	<path class="st1" d="M863.6,22.8c-463.9-1.3-841.2,378.9-841.1,841C22.6,1327.1,401,1705,863.6,1705
		c462.9,0.1,841.5-378.1,841.3-841.5C1704.8,400.3,1326.4,21.3,863.6,22.8z M864,1679.6c-452.9,0.3-816-362.4-816.1-815.7
		c-0.1-453,362.7-816,815.8-815.9c453.2,0,815.9,363,815.8,816C1679.5,1316.8,1316.9,1679.6,864,1679.6z"/>
	<path class="st1" d="M-7.8-9.6v1747.2h1747.2V-9.6H-7.8z M863.8,1727.5c-479.1,0-864-385.4-863.8-864.1
		C0.2,384.3,385.7-0.1,863.9,0c479,0.1,864.1,385.3,863.5,863.8C1727.9,1342.5,1342.5,1727.5,863.8,1727.5z"/>
</g>
</svg>
