<?xml version="1.0" encoding="utf-8"?>
<!-- Generator: Adobe Illustrator 19.2.1, SVG Export Plug-In . SVG Version: 6.00 Build 0)  -->
<svg version="1.1" id="Layer_1" xmlns="http://www.w3.org/2000/svg" xmlns:xlink="http://www.w3.org/1999/xlink" x="0px" y="0px"
	 viewBox="0 0 1727.5 1727.4" style="enable-background:new 0 0 1727.5 1727.4;" xml:space="preserve">
<style type="text/css">
	.st0{opacity:0.8;fill:#FFFFFF;}
</style>
<path class="st0" d="M-9.7-0.1v1740.5h1758.2V-0.1H-9.7z M1721.7,756.8c0.9,12,1.8,24,2.9,36c0.5,5-1,7.1-6.2,6.5
	c-2.8-0.4-5.6,0-8.5-0.1c-8.8-0.2-7.4,1.4-8.9-7.9c-1.7-10.6-3-21.3-4.4-32c-0.3-2.6,0-5.1,0-8.1c8.1-0.9,16.1-1.7,25.1-2.6
	C1721.7,751.6,1721.5,754.2,1721.7,756.8z M1713.8,709c-8.3,0.9-15.4,1.8-22.8,2.6c-2.9-13.4-5.6-26.3-8.4-39.2
	c-0.9-4.1,0.2-6.4,5.1-7c5.4-0.6,10.6-2.5,15.9-3.8C1707.1,677.8,1710.4,693,1713.8,709z M1678.6,574.4c4.8,15.1,9.4,29.5,14.2,44.8
	c-6.6,2.5-13.4,5.1-20.2,7.4c-0.7,0.2-2.7-1.3-3-2.4c-2.7-7.8-5.1-15.7-7.7-23.6c-1.3-3.9-2.6-7.8-4-11.7c-1.4-4-1.3-6.8,3.7-8.2
	C1667.4,579,1673,576.5,1678.6,574.4z M1679.6,864.2c-0.4,453.2-363.4,815.6-816,815.3c-453.2,0.1-815.9-363.1-815.7-816
	C48,410.1,411.3,47.7,864.1,47.9C1317.6,48.1,1679.9,411.5,1679.6,864.2z M1644.4,495.9c7.7,10.9,12.9,23.1,16.7,35.8
	c0.4,1.2-0.5,3.7-1.5,4.3c-6.1,3.3-12.3,6.2-18.6,9.3c-6.1-14.9-11.9-29.1-18.1-44.2c6.5-2.8,12.5-5.4,18.5-7.7
	C1642,493.2,1643.6,494.8,1644.4,495.9z M1600.9,413.6c7.8,13.5,15.5,26.7,23.4,40.3c-5.7,2.8-12.1,6.1-18.7,9.2
	c-0.8,0.4-2.8-0.2-3.2-0.9c-7.1-12.1-14.1-24.3-21.4-37.1C1587.7,421.2,1594,417.6,1600.9,413.6z M1548,339.4c0.8-0.5,3.7,0.8,4.5,2
	c6.6,9.4,12.9,19.1,19.3,28.7c1,1.2,2,2.5,3.2,4.4c-5.1,4.2-9.8,8.1-14.4,12.1c-2.7,2.3-4.9,0.7-6.4-1.1c-3-3.7-5.5-7.8-8.2-11.7
	c-4.9-7.2-9.8-14.5-15-22.2C1536.5,347.6,1542.1,343.3,1548,339.4z M1474.6,281.4c5.4-4.1,10.3-8.7,15.8-13.4
	c10,11.5,19.8,22.7,29.4,34c0.7,0.8,0.3,3.5-0.6,4.4c-4.3,4.8-8.9,9.4-13,13.5c-10.9-11.1-21.2-21.8-31.7-32.3
	C1472.2,285.3,1471.5,283.8,1474.6,281.4z M1422.3,207.4c0.6-0.7,3.9-0.3,5.1,0.7c4.7,3.9,9.1,8.2,13.6,12.4
	c5.9,5.5,11.8,11.1,18.2,17.1c-3.6,5.2-7.5,10.9-11.7,16.3c-0.5,0.6-3.4,0.4-4.3-0.4c-8.6-7.4-17-15.1-25.6-22.5
	c-2.3-2.2-5-3.8-8-5.9C1413.8,219.1,1417.8,213.1,1422.3,207.4z M1352.2,153.8c0.5-0.6,3.1-0.5,4.1,0.2c9.4,6.7,18.7,13.6,28,20.5
	c2.5,1.9,5,3.8,7.9,6.1c-4.4,6.2-8.8,12.3-13.4,18.7c-13.3-9.5-26-18.6-39.3-28.1C1343.6,165.4,1347.8,159.5,1352.2,153.8z
	 M1274.5,104.1c10.9,5.7,21.4,11.2,31.9,16.9c3.3,1.8,8.1,3.6,8.8,6.4c0.7,2.8-2.6,6.8-4.2,10.2c-1,2.1-2.1,4.1-3.1,6.2
	c-2.7,5.6-3,5.7-8.3,2.4c-11.4-7-22.9-14-34.3-21.1c-0.6-0.3-1-1-1.8-1.8C1267.1,117,1270.6,110.9,1274.5,104.1z M1185.8,83.2
	c2.7-5.7,4.6-11.7,6.8-17.5c15,6.5,29.5,12.8,44.8,19.5c-3.4,6.9-7,14.2-10.9,22.1c-5.7-3.4-10.6-6.8-16-9.2
	c-7-3.2-14.4-5.7-21.7-8.4C1185.5,88.5,1184,87.1,1185.8,83.2z M1105.5,44.7c3.5-8.7,4-8.8,12.9-5.7s17.8,6,26.8,8.7
	c7.5,2.2,8,2.5,6.5,9.9c-1,4.9-2.4,9.8-3.7,15c-15.8-4.7-31.3-9.3-47.5-14.1C1102.1,54.1,1103.7,49.3,1105.5,44.7z M1020.9,16.3
	c0.2-0.8,2.1-1.7,3-1.6c3.6,0.3,7.5,0.3,10.7,1.8c9.1,4.2,19.1,4,28.6,5.8c1.6,0.4,3.2,0.5,5.5,0.9c-1.6,6.9-3,13.3-4.7,19.6
	c-0.3,1-2.6,2.2-3.8,2c-8-1.2-15.9-2.7-23.9-4.3c-6.5-1.3-12.9-2.9-20.3-4.6C1017.5,29.6,1019.1,22.9,1020.9,16.3z M929.2,19.2
	c0.9-4.4,0.9-8.9,1.8-13.3c0.2-1.1,2-2.7,3.1-2.8c3.8-0.3,8-0.9,11.4,0.3c8.9,3.2,18,2.2,27.1,2.4c1.9,0,3.7,0,6.3,0
	c-0.9,8.9-1.8,16.9-2.7,25.4c-2.7-0.2-4.8-0.3-7-0.6c-7.6-0.7-15.2-1.6-22.8-2.2c-3.5-0.3-7.1,0.3-10.5-0.4
	C927.3,26.2,927.8,25.7,929.2,19.2z M841.2,4.5c-0.1-3.1,0.8-4.5,4.2-4.4c13.1,0.2,26.3,0.1,39.4,0c3.3,0,4.4,1.3,4.3,4.4
	c-0.1,4.7-0.2,9.3,0,14c0.1,3.2-1.1,4.5-4.3,4.4c-6.6-0.2-13.3-0.1-19.9-0.1c-6.3,0-12.6-0.2-18.9,0.1c-3.8,0.2-5-1.3-4.8-4.9
	C841.4,13.5,841.4,9,841.2,4.5z M756.8,5.8c12-0.9,24-1.8,36-2.9c5-0.5,7.1,1,6.5,6.2c-0.3,2.8,0,5.6-0.1,8.5
	c-0.2,8.8,1.4,7.4-7.9,8.9c-10.6,1.7-21.3,3-32,4.4c-2.6,0.2-5.1,0-8.1,0c-0.9-8.1-1.7-16.1-2.6-25.1C751.6,5.8,754.2,6,756.8,5.8z
	 M708.9,13.6c0.9,7.8,1.7,14.4,2.3,20.9c0.1,0.7-1.4,2.1-2.3,2.4c-10.6,2.6-21.3,5-31.9,7.4c-0.5,0.1-1,0.2-1.5,0.3
	c-8.1,1.2-8.2,1.1-10.4-6.7c-0.7-2.6-1.5-5.1-2.2-7.7c-0.4-2.1-0.7-4.2-1.1-6.4C677.6,20.4,692.9,17.1,708.9,13.6z M619.2,34.6
	c2.5,6.6,5.1,13,7.3,19.6c0.3,0.9-1.1,3.2-2.2,3.6c-7.8,2.8-15.7,5.2-23.6,7.8c-4.1,1.3-8.1,2.8-12.2,4.1c-3.8,1.3-6.5,1.1-7.8-3.7
	c-1.7-5.8-4.1-11.5-6.3-17.2C589.4,44.1,603.9,39.5,619.2,34.6z M495,83.5c11.3-8,23.9-13.4,37.2-17.4c1.1-0.3,3.3,0.6,3.9,1.6
	c3.3,6.1,6.2,12.4,9.3,18.7c-14.8,6.1-29.3,12-44.3,18.1c-2.8-6.5-5.3-12.2-7.6-18C493.2,85.8,494.2,84.1,495,83.5z M453.9,103.2
	c2.9,5.8,6.2,12.3,9.3,19c0.3,0.7-0.5,2.7-1.3,3.1c-11.7,6.9-23.5,13.6-35.3,20.3c-0.4,0.2-0.9,0.2-1.9,0.4
	c-3.5-6.2-7.1-12.5-11.1-19.3C427.2,118.8,440.3,111.1,453.9,103.2z M374.1,152c4.6,5.5,8.9,10.3,12.6,15.6c0.8,1.1-0.2,4.6-1.5,5.7
	c-3.6,3.1-7.8,5.6-11.7,8.3c-7.2,4.8-14.5,9.7-22.1,14.9c-4.4-6.1-8.7-12.2-13.2-18.4C350.3,169.3,362,160.8,374.1,152z
	 M300.4,208.7c2.6-2.3,4.3-2.8,7,0.1c4.1,4.5,8.8,8.5,12.7,12.3c-11.3,11.1-22.1,21.7-32.8,32.3c-2.1,2-3.5,2.4-5.6-0.3
	c-4.3-5.4-9-10.5-13.7-16C279.3,227.3,289.9,218.1,300.4,208.7z M237.4,268.2c5.3,3.7,10.9,7.6,16.3,11.5c2.5,1.8,1,3.2-0.5,4.8
	c-9.5,10.7-19,21.4-29,32.6c-5.4-4.6-11.6-9.9-17.6-15.1C217.2,290.4,227.1,279.5,237.4,268.2z M153.6,371.8c1.2-2.5,2.7-5,4.4-7.2
	c7.4-9.7,15-19.2,22.8-29.2c6.2,4.5,12.4,8.9,18.6,13.3c-9.5,13.1-18.5,25.8-28.1,39.3c-5.8-4.1-11.6-8.2-17.2-12.5
	C153.4,374.9,153.1,372.8,153.6,371.8z M124.9,414.5c1.6-3,3-3.2,5.8-1.7c5.9,3.2,12,6.1,18.5,9.3c-1.4,2.4-2.1,4.6-3.6,6
	c-7.7,7.4-12,17-16.7,26.3c-0.1,0.3-0.2,0.6-0.4,0.9c-3.4,6.3-3.9,6.5-10,3.1c-4.6-2.6-9.1-5.3-13.7-8
	C111.6,438.2,118.4,426.5,124.9,414.5z M78.8,506c1.9-4.2,2.9-8.8,4.7-13.1c0.5-1.1,2.9-2.3,3.9-2c6.4,2.1,12.7,4.6,19.1,7
	c-6.6,15.1-13,29.7-19.6,44.9c-7.2-3.6-14.2-7.2-20.9-10.5C70.5,523.2,74.8,514.7,78.8,506z M37.2,613.1c2.6-9.4,5.3-18.8,8-28.2
	c1.1-3.3,2.3-6.5,3.7-10.5c6.4,1.5,12.9,2.8,19.2,4.6c3.8,1.1,2.2,4.4,1.5,6.7c-2.4,8.2-5.2,16.4-7.7,24.6
	c-1.3,4.1-2.3,8.3-3.5,12.5c-1,3.7-2.8,4.9-6.5,2.8c-3.2-1.8-6.5-3.5-10-4.4C37.2,620,36.1,617.1,37.2,613.1z M16.8,691.4
	c1.7-8.2,3.6-16.4,5.4-24.6c0.5-1.6,0.7-3.2,1-5.3c6.8,1.6,13.1,2.9,19.3,4.6c1.1,0.3,2.5,2.5,2.3,3.6c-1.2,8-2.7,15.9-4.3,23.9
	c-0.9,4.7-2.6,9.3-3.3,14c-0.5,3.3-1.5,4.1-4.8,3.6c-5.7-0.9-11.5-1.3-18.7-2.1C14.8,702.8,15.6,697.1,16.8,691.4z M5,776.1
	c0.3-2.3,0.8-4.6,0.8-6.9c0.1-6.5,0-13.2,0-20.7c8.9,0.9,16.9,1.8,25.4,2.6c-0.2,2.7-0.3,4.8-0.5,6.9c-0.7,7.8-1.6,15.5-2.3,23.3
	c-0.3,3,0.1,6-0.2,9c-0.7,7.9-1.6,8.5-9.4,7.6c-4.3-0.5-8.6-0.8-12.9-1.6c-1.1-0.2-2.9-2-2.8-3C3.5,787.6,4.3,781.8,5,776.1z M0,882
	c0.2-13,0.1-25.9,0-38.9c0-3.3,0.9-4.9,4.5-4.8c4.6,0.2,9.3,0.2,14,0c3.3-0.1,4.4,1.2,4.3,4.4c-0.1,6.7,0,13.3,0,20
	c0,6.3-0.1,12.6,0.1,19c0.1,3.4-0.9,4.9-4.5,4.7c-4.6-0.3-9.3-0.2-14,0C1.2,886.4,0,885.4,0,882z M5.7,958.9
	c-0.6-8.2-1.8-16.3-2.8-24.5c-0.6-4.8,1.2-6.6,6-6.2c4.3,0.4,8.6-0.1,12.9,0.2c1.3,0.1,3.4,1.3,3.6,2.3c2.2,14.9,4.2,29.8,6.3,45.4
	c-9,1-17.1,1.9-25.9,2.8C5.8,971.8,6.2,965.3,5.7,958.9z M13.5,1018.4c7.8-0.9,14.3-1.8,20.9-2.3c0.8-0.1,2.2,1.6,2.5,2.7
	c2.5,10.1,4.7,20.3,7,30.5c0.2,1,0.5,1.9,0.6,2.9c1.1,7.9,1.1,7.9-6.6,10c-4.7,1.4-9.5,2.5-14.1,3.6
	C20.4,1049.9,17,1034.6,13.5,1018.4z M48.8,1153c-4.8-15-9.3-29.5-14.2-44.8c6.6-2.5,13.3-5.1,20.2-7.4c0.7-0.2,2.7,1.3,3.1,2.3
	c2.7,7.8,5.1,15.7,7.7,23.6c1.3,3.9,2.6,7.8,4,11.7c1.4,3.9,1.4,6.8-3.6,8.3C60.1,1148.5,54.5,1150.9,48.8,1153z M83.2,1231.8
	c-7.9-11-13-23.4-16.9-36.3c-0.4-1.2,0.7-3.6,1.8-4.2c5.9-3.2,12-6.1,18.4-9.2c6.1,14.8,11.9,29.2,18.1,44.2
	c-6.5,2.8-12.3,5.4-18.3,7.7C85.6,1234.3,83.9,1232.8,83.2,1231.8z M126.6,1313.9c-7.7-13.4-15.4-26.6-23.4-40.3
	c5.7-2.8,12-6.1,18.4-9.1c0.9-0.4,2.9,0,3.3,0.6c7.2,12.2,14.3,24.6,21.6,37.3C139.8,1306.3,133.6,1309.9,126.6,1313.9z
	 M179.7,1387.9c-0.9,0.6-3.8-0.4-4.6-1.5c-7.7-10.9-15.1-21.9-22.8-33.3c5.1-4.3,9.9-8.2,14.7-12.3c2.8-2.4,4.9-0.4,6.3,1.4
	c3,3.7,5.5,7.8,8.2,11.7c4.9,7.2,9.8,14.4,15,22.1C191,1380,185.5,1384.2,179.7,1387.9z M252.4,1446.2c-5.2,4.1-10,8.7-15.3,13.3
	c-9.9-11.4-19.4-22.3-28.9-33.1c-1.9-2.1-2.1-3.6,0.1-5.8c4.6-4.5,8.9-9.3,12.6-13.4c11.1,11.3,21.4,22,31.9,32.5
	C255.5,1442.4,255.6,1443.8,252.4,1446.2z M305.4,1519.8c-0.6,0.8-3.9,0.7-5-0.2c-4.8-4-9.3-8.4-13.9-12.7c-6-5.5-11.9-11-18.3-16.9
	c3.7-5.2,7.4-10.5,11.1-15.8c1.5-2.2,2.9-2.2,4.9-0.5c10.9,9.8,21.8,19.5,33,29.6C313.6,1508.4,309.7,1514.3,305.4,1519.8z
	 M375.5,1573.3c-0.6,0.8-3.4,0.8-4.4,0.1c-9.4-6.7-18.7-13.6-28-20.5c-2.5-1.9-5-3.8-7.9-6c4.4-6.2,8.8-12.3,13.3-18.6
	c13.3,9.2,26.1,18.4,39.4,27.9C383.8,1561.9,379.9,1567.7,375.5,1573.3z M454.3,1620.7c-0.5,0.8-2.9,1.5-3.9,1
	c-12.3-6.5-24.6-13.1-36.7-19.8c-0.9-0.5-2-2.2-1.7-2.8c3.1-6.9,6.6-13.7,10.1-20.9c14.3,8.7,27.9,17,42,25.5
	C460.7,1609.6,457.7,1615.2,454.3,1620.7z M541.5,1644.6c-2.6,5.6-4.5,11.4-6.6,17.2c-15.2-6.6-29.6-12.9-44.8-19.5
	c3.5-7,7.1-14.3,10.9-22.1c6.7,3.9,12.4,7.9,18.7,10.8c6,2.8,12.4,4.6,18.7,6.7C542.1,1638.9,543.4,1640.5,541.5,1644.6z
	 M622,1682.7c-3.5,8.8-4,8.8-12.8,5.8c-8.9-3.1-17.8-6-26.8-8.7c-7.7-2.3-8-2.4-6.5-10.3c0.1-0.8,0.3-1.6,0.5-2.4
	c0.9-4,2-7.9,3.2-12.2c15.7,4.6,31.1,9.2,47.4,14C625.4,1673.3,623.8,1678,622,1682.7z M706.8,1710.3c-0.3,1.1-2.3,2.5-3.5,2.4
	c-3.6-0.2-7.5-0.3-10.7-1.8c-9-4.1-18.7-3.9-28.1-5.8c-1.7-0.3-3.5-0.5-5.8-0.8c1.6-6.8,2.9-13.1,4.6-19.3c0.3-1.1,2.8-2.5,4-2.4
	c8,1.2,15.9,2.7,23.9,4.3c6.5,1.4,12.9,3,20.3,4.6C710,1697.8,708.6,1704.1,706.8,1710.3z M798.4,1706.6c-1,5.8-1.5,11.7-2.3,18.9
	c-7.2-1.1-13.7-2.3-20.1-3.1c-4.4-0.5-8.9-0.6-13.4-0.7c-4.4-0.1-8.9,0-14,0c0.9-8.2,1.7-15.8,2.6-23.3c0.1-0.8,1.5-2,2.2-1.9
	c13.7,1.2,27.4,2.5,41.1,3.8C798.5,1700.7,799.1,1702.9,798.4,1706.6z M881.8,1727.5c-6.5-0.2-13.1-0.1-19.8-0.1
	c-6.3,0-12.6-0.1-19,0.1c-3.4,0.1-4.9-1-4.8-4.5c0.2-4.6,0.1-9.3,0-14c-0.1-2.8,0.7-4.3,3.9-4.3c13.5,0.1,26.9,0.1,40.4,0
	c2.5,0,3.7,0.9,3.6,3.5c-0.1,5.2-0.1,10.3,0,15.5C886.2,1726.9,884.7,1727.6,881.8,1727.5z M971.6,1721.6c-12.5,0.9-25,1.8-37.5,2.9
	c-4.8,0.4-6.1-1.5-5.8-5.9c0.3-4,0.2-8,0-12c-0.2-3.2,0.7-4.8,4.2-5.2c12.5-1.5,25-3.3,37.4-5.1c4.4-0.6,6.8,0.2,7,5.3
	c0.3,6.5,1.3,12.9,2,20C976.1,1721.6,973.9,1721.5,971.6,1721.6z M1018.5,1713.8c-1-8.3-1.8-15.3-2.7-22.9
	c13.8-2.9,27.2-5.7,40.6-8.4c3.2-0.6,4.8,0.5,5.4,4c1,5.8,2.7,11.4,4.1,17.1C1049.9,1707.1,1034.6,1710.4,1018.5,1713.8z
	 M1108.3,1692.8c-2.5-6.5-5.1-13.2-7.4-20c-0.3-0.8,1.4-2.9,2.6-3.4c6.8-2.6,13.7-4.9,20.7-7.2c4.9-1.6,9.8-2.9,14.7-4.5
	c3.8-1.2,6.5-1.2,7.9,3.6c1.6,5.9,4.1,11.5,6.2,17.3C1137.8,1683.4,1123.5,1688,1108.3,1692.8z M1195.5,1661.3
	c-1.1,0.3-3.4-0.6-3.9-1.5c-3.4-6.1-6.3-12.4-9.5-18.8c14.9-6.1,29.3-11.9,44.3-18.1c3,7,5.7,13.3,8.3,19.3
	C1222.5,1651.4,1209.3,1657,1195.5,1661.3z M1273.5,1624.3c-2.8-5.7-6.2-12.4-9.4-19.1c-0.3-0.6,0.5-2.3,1.2-2.8
	c12.2-7.2,24.4-14.2,37.1-21.5c4,6.9,7.6,13.2,11.4,20C1300.4,1608.7,1287.3,1616.3,1273.5,1624.3z M1353.3,1575.5
	c-4.6-5.5-8.5-10.2-12.5-14.8c-2.4-2.7-0.7-4.9,1.2-6.4c3.7-3,7.8-5.5,11.8-8.2c7.2-4.9,14.5-9.8,22.2-15c4.3,6,8.7,12.1,13.2,18.4
	C1377.1,1558.2,1365.5,1566.6,1353.3,1575.5z M1425.7,1519.7c-0.9,0.7-3.5,0.6-4.4-0.2c-5.1-4.5-9.8-9.1-14-13.1
	c11.2-10.9,21.9-21.2,32.4-31.7c2.6-2.6,4-3.2,6.5,0.2c4,5.4,8.7,10.3,13.3,15.5C1447.9,1500.4,1436.9,1510.2,1425.7,1519.7z
	 M1490.1,1459.3c-5.3-3.8-10.9-7.5-16.3-11.7c-0.7-0.5-0.6-3.4,0.2-4.3c2.3-2.8,5.3-5,7.6-7.7c7-8.3,13.8-16.7,21.2-25.6
	c5.9,5.1,12.1,10.3,18.1,15.5C1510.5,1436.8,1500.6,1447.7,1490.1,1459.3z M1573.7,1355.8c-2,3.6-4.2,7.2-6.7,10.4
	c-6.5,8.5-13.3,16.9-20.4,25.8c-6.1-4.3-12.3-8.8-18.5-13.2c9.6-13.5,18.6-26.1,28-39.3c5.8,4.1,11.7,8.3,17.4,12.6
	C1574.2,1352.6,1574.2,1354.9,1573.7,1355.8z M1602.6,1312.9c-1.6,3-3,3.2-5.8,1.7c-6-3.1-12.1-6.1-18.5-9.3c1.4-2.4,2.1-4.6,3.6-6
	c7.7-7.4,12-17,16.7-26.3c0.1-0.3,0.2-0.6,0.4-0.9c3.4-6.3,3.9-6.5,10-3.1c4.6,2.6,9.1,5.3,13.7,8
	C1615.9,1289.2,1609.1,1300.9,1602.6,1312.9z M1647.8,1223.8c-1.6,3.5-2.3,7.3-3.9,10.7c-0.5,1.1-2.8,2.4-3.9,2
	c-6.4-2.1-12.7-4.6-19.1-7c6.7-15,13-29.6,19.6-44.9c7.2,3.6,14.2,7.2,20.7,10.5C1656.6,1205,1652,1214.4,1647.8,1223.8z
	 M1678.7,1153c-6.4-1.5-13-2.8-19.4-4.8c-1.1-0.3-1.9-4.3-1.4-6.2c2.3-8.4,5.2-16.7,7.7-25.1c1.4-4.6,2.5-9.3,4.1-13.8
	c0.4-1.1,2.7-2.5,3.5-2.2c6.6,2.2,13,4.8,19.6,7.3C1688,1123.3,1683.4,1137.9,1678.7,1153z M1703.8,1065.8
	c-6.3-1.5-12.8-2.8-19.1-4.6c-1-0.3-2.2-2.6-2-3.8c1.3-8.1,2.9-16.2,4.5-24.3c0.9-4.5,1.9-9,3.2-13.5c0.4-1.3,1.9-3.4,2.8-3.4
	c6.5,0.5,12.9,1.4,20.8,2.3C1710.5,1034.5,1707.2,1049.9,1703.8,1065.8z M1722.4,951.3c-0.3,2.3-0.8,4.6-0.8,6.9
	c0,6.6,0,13.2,0,20.7c-8.9-0.9-16.9-1.8-25.4-2.6c0.3-2.9,0.5-5.1,0.7-7.4c0.7-6.9,1.6-13.8,2.1-20.8c0.3-3.6-0.1-7.3,0.2-11
	c0.7-7.9,1.6-8.5,9.4-7.6c4.3,0.5,8.6,0.8,12.9,1.6c1.1,0.2,2.9,2,2.8,3C1723.9,939.8,1723.1,945.6,1722.4,951.3z M1722.7,889.1
	c-4.6-0.2-9.3-0.2-14,0c-3,0.1-4.1-1.2-4.1-4.1c0.1-14.1,0.1-28.3,0-42.4c0-3.3,1.3-4.4,4.5-4.3c4.6,0.2,9.3,0.1,14,0
	c3.2-0.1,4.5,1.1,4.4,4.4c-0.2,7-0.1,14-0.1,21c0,6.8-0.1,13.6,0.1,20.4C1727.6,887.7,1726.6,889.3,1722.7,889.1z"/>
</svg>
