<?xml version="1.0" encoding="utf-8"?>
<!-- Generator: Adobe Illustrator 19.2.1, SVG Export Plug-In . SVG Version: 6.00 Build 0)  -->
<svg version="1.1" id="Layer_1" xmlns="http://www.w3.org/2000/svg" xmlns:xlink="http://www.w3.org/1999/xlink" x="0px" y="0px"
	 viewBox="0 0 384.9 384.7" style="enable-background:new 0 0 384.9 384.7;" xml:space="preserve">
<style type="text/css">
	.st0{opacity:0.8;}
	.st1{fill:#FFFFFF;}
</style>
<g class="st0">
	<path class="st1" d="M92.4,41.2c-2.7,0.9-4.4,2.8-5,5.6c-0.2,1-0.5,1.3-1.6,1.1c-2.5-0.4-4.8-0.2-6.3,2.2c-1,1.6-2.2,3.2-1.8,5.2
		c0.7,3.3,2.5,5.7,5.5,7.3c4.3,2.1,8.8,2.4,13.3,2.7c0.4,0,0.8,0,1.2,0c2,0,2.1,0,2.5-2c0.7-3.3,1.4-6.6,1.8-9.9
		c0.4-3.2,0-6.3-1.9-9.1C98.2,41.6,95.2,40.3,92.4,41.2z"/>
	<path class="st1" d="M63.7,285c-3.8-1.4-7.7-1.8-12.1-2c-0.8,0-2,0-3.1,0.2c-2.6,0.4-5,1.2-6.8,3.4c-2.4,2.9-2,7.4,1,9.5
		c1.1,0.8,2.5,1.3,3.8,1.7c0.9,0.3,1.2,0.6,1,1.5c-0.2,0.7-0.1,1.5-0.1,2.2c0.1,3.4,4.1,6.6,7.4,5.8c3.6-0.8,6-3.3,7.3-6.7
		c1.8-4.6,2.1-9.4,2.5-14.3C64.7,285.6,64.3,285.3,63.7,285z"/>
	<path class="st1" d="M94.5,320.5c-1.3,0.2-3.7,0.4-6.1,0.8c-2.8,0.5-5.7,1.3-7.9,3.3c-1.9,1.7-3.4,3.7-3.4,6.4
		c0.1,3.3,4.1,8.2,8.4,6.8c0.7-0.2,1.1,0,1.2,0.7c0.5,3.3,2.5,5.2,5.6,6c2.5,0.7,4.7,0.4,6.6-1.7c1.9-2.1,2.3-4.8,2.5-7.4
		c0.2-3.9-0.5-7.8-1.5-11.5C99,320,99.8,320.7,94.5,320.5z"/>
	<path class="st1" d="M192.5,351.2c-0.6-0.4-1-0.3-1.5,0c-4.1,3-7.7,6.4-10.4,10.8c-1.6,2.7-1.9,5.7-0.8,8.7
		c1.3,3.8,7.4,5.1,10.4,2.2c0.5-0.4,0.8-1,1.2-1.6c0.2,0.1,0.4,0.1,0.6,0.2c0.4,0.5,0.7,1,1.2,1.4c2.8,2.7,8.7,2,10.6-1.4
		c1.8-3.2,1.4-6.4-0.4-9.4C200.6,357.6,196.7,354.3,192.5,351.2z"/>
	<path class="st1" d="M140.4,18.9c-1.1,0.8-1.9,1.9-2.7,3c-0.4,0.5-0.6,0.7-1.2,0.5c-0.8-0.3-1.6-0.4-2.4-0.6
		c-4.9-1.1-9.2,3.8-8.5,7.5c0.5,2.5,1.6,4.6,3.6,6.2c3.9,3.3,8.4,5.4,13.3,6.9c0.9,0.3,1.4,0.1,1.9-0.6c1.3-2,2.7-3.9,3.8-6
		c1.5-2.8,2.9-5.6,3.1-8.9c-0.3-1.4-0.7-2.7-1-4.1C149.4,18.5,144,16.3,140.4,18.9z"/>
	<path class="st1" d="M148.9,352.4c-1.2-3.1-2.9-6.1-5.4-8.4c-0.3-0.3-1-0.5-1.4-0.4c-4.1,1.3-8,2.9-11.5,5.3
		c-3.4,2.3-5.3,5.4-5,9.6c0.2,2.7,2.7,5.3,5.4,5.7c2,0.2,3.8-0.4,5.6-1.5c0.4,0.7,0.7,1.3,1.1,1.9c0.7,1.2,1.6,2.2,3.1,2.5
		c0.5,0.1,1.1,0.3,1.6,0.4c2.2,0.7,4.2,0.3,5.9-1.2c2.1-1.9,2.8-4.5,2.4-7.3C150.4,356.8,149.7,354.5,148.9,352.4z"/>
	<path class="st1" d="M190.8,33.6c1.1,0.8,2.1,0.7,3.2,0c3.2-2.2,5.9-4.8,8.2-7.9c1.5-2.1,2.6-4.4,2.7-7.1c0.1-2.5-0.3-4.8-2.8-6.2
		c-2.8-1.7-6.3-1.9-8.8,1.1c-0.6,0.7-1.1,0.8-1.7,0c-0.6-0.6-1.3-1.3-2.1-1.6c-4.6-2.3-9.7,1.1-9.8,6.3c0.4,1.4,0.5,2.9,1.1,4.3
		C182.9,27.3,186.7,30.7,190.8,33.6z"/>
	<path class="st1" d="M47.8,102.5c5,0.7,9.7-0.4,14.4-1.9c1.5-0.5,2.3-1.4,2-3c-0.1-0.5-0.1-0.8-0.1-1.1c-0.1-4.6-1-9.5-2.7-12.8
		c-1.3-2.7-3.1-4.9-6.3-5.3c-4.8-0.6-8.4,3.3-7.6,8.3c0.2,0.9-0.2,1.2-0.9,1.4c-0.9,0.2-1.8,0.4-2.5,0.8c-1.1,0.5-2.4,1.1-2.9,2
		c-1.1,1.9-1.4,4.1-0.6,6.3C41.8,100.5,44.5,102,47.8,102.5z"/>
	<path class="st1" d="M41.1,240.9c-3.2-2.5-6.9-4.4-10.6-5.9c-2.4-0.9-4.8-1.5-7.4-1c-2.3,0.4-4.5,1.3-5.3,3.8
		c-1.1,3.7-0.8,7.3,3.1,9.4c0.9,0.5,1.1,1,0.6,2c-0.6,1.2-1.2,2.5-0.7,3.9c0.4,1,0.7,2,1.2,2.9c1.2,2.1,2.8,3.9,5.8,3.8
		c2.4,0,4.4-1.3,6.1-3.1c3.8-3.9,5.9-8.7,7.8-13.7C42.1,242.1,41.8,241.5,41.1,240.9z"/>
	<path class="st1" d="M21.3,150.6c1.4,0.5,3,0.7,4.6,0.6c3.2-0.1,6.1-1.3,9-2.7c2.2-1.1,4.4-2.3,6-4.2c0.5-0.6,0.7-1.2,0.4-1.9
		c-1.5-3.4-2.8-6.9-4.6-10.2c-1.9-3.5-4.8-5.9-9-6.2c-3.6-0.2-6.7,2.4-7,5.9c-0.1,1.6,0.4,3,1.1,4.4c0.3,0.6,0.3,1-0.4,1.3
		c-0.9,0.4-1.7,0.9-2.4,1.5c-1.7,1.3-1.5,3.3-1.7,4.7C17.3,147.7,18.3,149.5,21.3,150.6z"/>
	<path class="st1" d="M19.8,205.1c2.8-0.7,5.1-2.3,7.2-4.2c2.5-2.2,4.9-4.6,6.4-7.7c0.4-0.8,0.3-1.4-0.3-2c-1.6-1.8-3.3-3.5-4.9-5.3
		c-2.1-2.2-4.2-4.2-7-5.5c-3.3-1.5-7.6-1-9.7,2.3c-2,3.1-2,6.1,1.1,8.4c0.4,0.4,0.7,0.8,1.4,1.4c-0.8,0.7-1.6,1.2-2.3,1.9
		c-1,1.1-1.8,2.3-1.6,3.9C10.8,203.3,14.2,206.4,19.8,205.1z"/>
	<path class="st1" d="M255,22.5c-1.9-1-4-1-5.9-0.2c-1.1,0.4-1.9,0.3-2.4-0.8c-0.2-0.3-0.4-0.6-0.6-0.9c-1.3-2-2.9-2.8-5-2.8
		c-2,0.1-3.8,0.5-5.4,1.8c-2.2,1.8-2.5,4.3-2.3,6.9c0.2,3.2,1.3,6.1,2.7,8.9c1.2,2.4,2.5,4.6,4.4,6.5c0.5,0.5,1,0.7,1.9,0.5
		c3.8-1.3,7.3-3.1,10.6-5.2c2.6-1.7,4.7-3.9,5.4-7C259.2,26.7,258.6,24.3,255,22.5z"/>
	<path class="st1" d="M322,85.3c-1.6,4.3-2.1,8.8-2,13.4c0,1.3,0.5,1.8,1.7,2c3.5,0.6,6.9,1.4,10.4,1.8c3.1,0.4,6.2-0.1,9-1.8
		c2.6-1.6,3.4-3.8,2.8-7.2c-0.5-2.4-1.8-4.7-5.1-5c-2.1-0.2-2-0.3-1.9-2.4c-0.1-0.2-0.1-0.5-0.1-0.7c0.6-5-5.1-8.2-8.6-6.6
		C325.3,80.1,323.1,82.2,322,85.3z"/>
	<path class="st1" d="M255.6,351.3c-4-3.7-8.7-6.1-13.8-7.8c-0.9-0.3-1.6-0.2-2.1,0.6c-1.8,2.9-3.7,5.7-5.2,8.7
		c-1.9,3.7-2.3,7.6-0.1,11.5c1.2,2.2,3,3.5,5.5,3.3c2.4-0.1,4.7-0.9,6.1-3.2c0.3-0.5,0.6-1.1,0.9-1.7c0.9,0.4,1.8,0.8,2.6,1.1
		c3.8,1.5,8.7-1.8,9-5.9C258.7,355.1,257.5,353,255.6,351.3z"/>
	<path class="st1" d="M343.1,144.8c3.1,1.8,6.1,3.7,9.3,5.3c2.1,1.1,4.5,1.8,7.3,1.8c0.2,0,0.6,0,1.1-0.1c2.5-0.4,4.8-1.2,5.6-3.8
		c1.1-3.7,0.9-7.3-2.9-9.4c-1-0.6-1.2-1.1-0.7-2.2c1.8-4.4-0.2-8.5-4.6-9.8c-3.2-0.9-5.7,0.3-7.9,2.6c-3.7,3.9-5.9,8.8-7.8,13.8
		C342.2,143.9,342.4,144.4,343.1,144.8z"/>
	<path class="st1" d="M-5.7-6.9v396h396v-396H-5.7z M192.3,384.7C85.5,384.8-0.1,298.8,0,192.3C0,85.4,86-0.1,192.6,0
		C299.5,0.1,385,86.1,384.9,192.5C384.7,299.2,298.8,384.8,192.3,384.7z"/>
	<path class="st1" d="M350.9,191.6c-0.6,0.9-0.5,1.7,0.2,2.5c1.7,1.9,3.3,4,5.1,5.9c2,2.2,4.2,4.2,7.1,5.4c3.1,1.3,7.3,0.9,9.3-2.3
		c1.9-3,2.4-6.4-0.7-9.3c-0.3-0.3-0.6-0.6-0.9-0.9c0.4-0.5,0.8-0.9,1.2-1.3c3.5-3.3,1.6-8.3-1.2-10.1c-2.6-1.7-5.4-1.6-8.1-0.4
		C357.8,183.3,354.1,187.2,350.9,191.6z"/>
	<path class="st1" d="M298.8,48c-1.1,0.1-1.3-0.2-1.5-1.1c-1.3-5.6-7.4-7.5-11.7-3.6c-2.2,2-3,4.8-2.9,7.5c0.2,3.8,0.7,7.6,1.5,11.3
		c0.8,3.5,0.2,3.2,5.5,3.2c1.6-0.2,4.4-0.6,7.3-1.1c2.7-0.5,5.3-1.5,7.2-3.6c1.5-1.7,3-3.5,2.7-6C306.5,50.6,302.7,47.5,298.8,48z"
		/>
	<path class="st1" d="M364.3,235.8c-1.8-1.2-4-1.7-6.2-1.3c-2.2,0.5-4.4,0.9-6.4,1.9c-2.8,1.3-5.4,3-8.1,4.6c-0.7,0.4-1,1-0.6,1.9
		c0.9,2.1,1.5,4.2,2.5,6.3c1.3,2.7,2.8,5.4,5,7.6c1.8,1.7,4,2.8,6.1,3c3.2,0,6.6-2.9,7-5.6c0.3-1.7-0.1-3.2-1-4.7
		c-0.4-0.6-0.3-1,0.4-1.3c0.3-0.1,0.7-0.3,1-0.5c1.7-1,3.1-2.2,3.2-4.3c0-1.7-0.3-3.4-0.8-5C366.1,237.4,365.2,236.4,364.3,235.8z"
		/>
	<path class="st1" d="M301.1,324.1c-3.9-2.2-8.3-2.6-12.7-2.9c-0.6,0-1.2,0.1-1.8,0c-1.2-0.1-2,0.3-2.3,1.5c-0.7,2.6-1.5,5.2-2,7.8
		c-0.7,3.5-0.7,7.1,0.9,10.5c1.1,2.3,3.9,4.8,7.3,4.1c3.3-0.6,5.3-2.5,6-6.1c0.2-1.1,0.6-1.4,1.7-1.1c5.1,1,9.2-3.6,7.8-8.6
		C305.3,326.6,303.3,325.2,301.1,324.1z"/>
	<path class="st1" d="M338.2,283.8c-3.2-0.9-6.3-0.7-9.5-0.2c-2.6,0.4-5.2,0.9-7.6,2.1c-0.8,0.4-1.1,0.9-1.1,1.7
		c0.1,2,0.1,4.1,0.4,6.1c0.4,3.4,1.1,6.8,2.9,9.8c2,3.4,4.9,4.8,8.4,3.9c2.8-0.8,5.4-3,5-6.8c0-0.6,0-1.3-0.1-2.2
		c0.5-0.1,1-0.3,1.5-0.3c3.4-0.1,4.8-1.8,5.6-4.7C344.9,288.8,342.6,284.9,338.2,283.8z"/>
</g>
</svg>
