<?xml version="1.0" encoding="utf-8"?>
<!-- Generator: Adobe Illustrator 19.2.1, SVG Export Plug-In . SVG Version: 6.00 Build 0)  -->
<svg version="1.1" id="Layer_1" xmlns="http://www.w3.org/2000/svg" xmlns:xlink="http://www.w3.org/1999/xlink" x="0px" y="0px"
	 viewBox="0 0 1727.5 1727.4" style="enable-background:new 0 0 1727.5 1727.4;" xml:space="preserve">
<style type="text/css">
	.st0{opacity:0.8;}
	.st1{fill:#FFFFFF;}
</style>
<g class="st0">
	<path class="st1" d="M863.9,22.5C401.3,22.3,22.7,400.1,22.5,863.4c-0.2,463.4,378.3,842.8,841.3,841.3
		c462.5,1.5,841.1-377.4,841.2-840.9C1705.1,401.9,1328.1,22.7,863.9,22.5z M863.7,1679.5c-453.2,0.1-815.9-362.9-815.8-816
		C48,410.3,411.2,47.7,864,47.9c453.4,0.2,815.8,363.5,815.5,816.3C1679.3,1317.3,1316.4,1679.7,863.7,1679.5z"/>
	<path class="st1" d="M864.2,70.4C431.9,70,71.2,428.1,70.5,862.7C69.8,1295.3,428,1656.5,863.1,1657
		c432.3,0.5,794.1-357.6,793.8-793C1657.8,431.9,1299.2,70.8,864.2,70.4z M863.7,1631.7c-423.5-0.1-768-345-767.8-768.3
		C96.2,439.9,441,95.7,864.1,95.9c423.3,0.2,767.5,344.9,767.6,768.1C1631.4,1287.2,1287,1631.7,863.7,1631.7z"/>
	<path class="st1" d="M-9.4-8.1v1748.6h1748.6V-8.1H-9.4z M863.7,1727.4C385.1,1727.9,0.1,1342.6,0,863.8
		C-0.1,384.8,385.3-0.2,864,0c479.1,0.2,863.6,385.5,863.5,863.9C1727.4,1342.8,1342.3,1727.9,863.7,1727.4z"/>
</g>
</svg>
