<?xml version="1.0" encoding="utf-8"?>
<!-- Generator: Adobe Illustrator 19.2.1, SVG Export Plug-In . SVG Version: 6.00 Build 0)  -->
<svg version="1.1" id="Layer_1" xmlns="http://www.w3.org/2000/svg" xmlns:xlink="http://www.w3.org/1999/xlink" x="0px" y="0px"
	 viewBox="0 0 1727.5 1727.4" style="enable-background:new 0 0 1727.5 1727.4;" xml:space="preserve">
<style type="text/css">
	.st0{opacity:0.8;}
	.st1{fill:#FFFFFF;}
</style>
<g class="st0">
	<path class="st1" d="M442.7,1529.6c-8.9,0-19.4,9.6-18.9,18.3c0.7,12.9,6.3,20.8,19.6,20.8c11.1,0.1,19.4-7.5,19.6-18
		C463.2,1539.7,453.5,1529.6,442.7,1529.6z"/>
	<path class="st1" d="M441.9,158.8c-10.9,0-14.8,3.2-17.8,13.5c-1.9,6.7,1.3,11.5,3.7,17.2c4.2,9.8,16.2,11,24.3,6.9
		c7.7-3.9,12.5-13.6,10.7-21.2C460,163.8,453.7,158.8,441.9,158.8z"/>
	<path class="st1" d="M340.9,1455.6c-10.5,0-18.9,8.4-18.9,19c0.8,13.4,5.1,21.2,17.6,21c12.1-0.2,21.7-8,21.6-18.1
		C361,1467.7,349.8,1455.5,340.9,1455.6z"/>
	<path class="st1" d="M340.6,270c11.9,0.1,19.5-7.6,19.5-19.6c0-11.3-8.3-19.6-19.4-19.6c-11.1,0-19.9,8.8-19.8,20
		C321,261.9,329.3,270,340.6,270z"/>
	<path class="st1" d="M563.5,102.4c-6-2.8-12.9-4.4-18.4,0.4c-5.5,4.8-9,11.2-8.7,18.9c0,8,4,12.8,13.4,16.1c7,2.5,14,3,19.5-2.7
		C579.9,124.2,577.1,108.7,563.5,102.4z"/>
	<path class="st1" d="M805.2,79.1c8.7-1.3,13.3-5.1,14.2-13.4c0.9-7.5-0.9-18.2-7.7-21.8c-5.9-3.1-11.6-2.4-17.5-1.2
		c-8.2,1.6-13,7.5-13,15.7c-0.1,12.7,4.3,19.6,14.2,21.4C798.5,80.4,802,79.5,805.2,79.1z"/>
	<path class="st1" d="M554.2,1588c-10-0.1-17.6,8-17.6,18.9c0,9,7.7,18.9,14.9,18.8c13.1,0,23.6-8.2,23.8-18.5
		C575.5,1598.6,564,1588.2,554.2,1588z"/>
	<path class="st1" d="M808.9,1648.6c-8.1-0.2-19.2,11.3-19.2,19.9c0.2,10.9,8.3,20.2,17.9,20.2c13.4,0.1,21.9-8.1,22.2-21.3
		C830,1659.1,818.6,1648.9,808.9,1648.6z"/>
	<path class="st1" d="M250.9,319.3c-10.5,0.1-18.8,8.4-18.9,19c0,13.2,6.2,21.3,16.4,21.2c13.3-0.1,23.4-8.6,23.6-20
		C272.2,330.3,260.6,319.2,250.9,319.3z"/>
	<path class="st1" d="M674.7,100.1c10,0.1,18.5-8,18.6-17.7c0.1-10.1-9.7-21.2-18.8-21.3c-9.2,0-17.5,8.6-17.6,18.2
		C656.8,90.9,664.6,100,674.7,100.1z"/>
	<path class="st1" d="M61.7,821.7c8.9-0.1,17.3-9.6,17.3-19.7c0.1-10.5-7.9-19.5-17.2-19.5c-10.9-0.1-19.1,8.1-19.3,19.2
		C42.3,812.6,51.2,821.8,61.7,821.7z"/>
	<path class="st1" d="M251.9,1367.4c-12.1,0-21,8.1-21.1,19.3c-0.1,11.2,8.7,19.8,19.9,20c8.6,0.1,20.1-7.2,19.3-19.8
		C270,1375.6,262.4,1367.4,251.9,1367.4z"/>
	<path class="st1" d="M78,694.9c13.1,0.3,21.7-8.8,21.8-22.9c0-7.6-8.8-16.2-16.7-16.3c-13-0.1-21.6,8.5-21.8,21.8
		C61.2,684.3,71.3,694.7,78,694.9z"/>
	<path class="st1" d="M1282.4,195.7c11,0.1,21.4-8.5,21.5-17.7c0.1-10.8-9.4-20.8-20-21c-8.7-0.2-19.1,9.7-19.3,18.3
		C1264.3,186.8,1272.1,195.7,1282.4,195.7z"/>
	<path class="st1" d="M119.4,575.3c9.6,0,19.6-9.7,19.9-18.8c0.2-7.8-9-21.3-18.9-19.9c-10.2-0.8-19.5,10.4-19.8,19.9
		C100.3,565.2,110.7,575.3,119.4,575.3z"/>
	<path class="st1" d="M73.6,911.3c-5.4-4.3-11.3-3.6-17.6-2.7c-9.1,1.4-14.3,6.8-14.4,16c-0.1,18.3,13.5,27.3,29.8,19.5
		C82.2,939,83.5,919.1,73.6,911.3z"/>
	<path class="st1" d="M80.8,1031.6c-10,0.1-19.8,10.2-19.7,20.1c0.2,10.8,8.2,19,18.5,18.9c12.1-0.1,20.6-8.1,20.5-19.2
		C100,1041.2,90.5,1031.5,80.8,1031.6z"/>
	<path class="st1" d="M179.9,423.7C168,423.4,157.1,433,157,444c-0.1,9.4,10.1,19,20,19c10.8,0,20.7-9.5,20.9-20
		C198,434.1,188.6,423.9,179.9,423.7z"/>
	<path class="st1" d="M177.9,1264.3c-7.4-0.3-18.3,6.5-20.7,13.1c-2.5,6.5,0,16.6,5.1,21.1c7.4,6.4,15.8,7.3,24.4,2.5
		c7.6-4.2,10.9-11.6,8.8-20.1C192.9,1270,187.3,1264.7,177.9,1264.3z"/>
	<path class="st1" d="M102.4,1164.2c-2.6,5.9-4.2,12.6,0.3,18c4.6,5.5,11,9.1,18.7,8.9c8.2,0.1,13-3.7,16.4-13.1
		c2.5-6.9,3.1-14-2.4-19.6C124.7,1147.5,108.5,1150.4,102.4,1164.2z"/>
	<path class="st1" d="M676,1626c-9.8,0.2-20.3,9.9-20.3,18.6c0.1,10.6,9.5,20.6,19.2,20.4c10.1-0.3,20.2-9.4,19.9-18
		C694.5,1637.4,684.1,1625.8,676,1626z"/>
	<path class="st1" d="M1608.2,1152.1c-9.6,0-19.6,9.7-20,18.8c-0.2,7.9,9,21.4,18.9,20c10.3,0.8,19.5-10.5,19.8-19.9
		C1627.2,1162.3,1616.8,1152.1,1608.2,1152.1z"/>
	<path class="st1" d="M1625,563.6c2.8-6,4.4-12.9-0.3-18.4c-4.7-5.5-11.1-9-18.8-8.8c-8.1,0-12.8,3.8-16.2,13.4
		c-2.5,7-3,14,2.6,19.5C1603.2,580,1618.6,577.3,1625,563.6z"/>
	<path class="st1" d="M1653.9,816.2c5.2,4.1,10.9,3.1,17.1,2.8c8.5-0.4,15.6-8.4,14.9-16.2c0.1-18.1-12.7-26.6-29.5-19.6
		C1645.4,787.8,1643.9,808.4,1653.9,816.2z"/>
	<path class="st1" d="M1649.5,1032.7c-13-0.4-21.7,8.8-21.8,22.8c0,7.6,8.7,16.2,16.7,16.3c12.9,0.2,21.6-8.4,21.8-21.7
		C1666.3,1043.3,1656.3,1032.9,1649.5,1032.7z"/>
	<path class="st1" d="M1666,905.8c-9.2,0-17.7,9.6-17.5,20c0.1,10.5,8.1,19.3,17.5,19.2c10.9-0.1,19-8.4,19-19.5
		C1685,914.7,1676.4,905.8,1666,905.8z"/>
	<path class="st1" d="M1645.9,695.9c10,0.3,20.3-9.4,20.4-19.3c0.2-10.8-7.5-19.4-17.7-19.6c-12-0.4-21,7.4-21.2,18.3
		C1627.2,685.5,1636.3,695.6,1645.9,695.9z"/>
	<path class="st1" d="M1457.3,340.7c0.5,11.8,7.9,19.4,19.8,19.4c11.2,0,19.5-8.3,19.5-19.4c0-11.1-8.8-19.7-20-19.8
		C1468.1,320.8,1456.9,328.1,1457.3,340.7z"/>
	<path class="st1" d="M-17.6-8.7v1754.8h1754.8V-8.7H-17.6z M863.4,1727.4C384.3,1727.7-0.2,1341.8,0,863.6
		C0.2,384,386.1-0.4,864.3,0c479.6,0.4,863.5,386.4,863.2,864.2C1727.2,1343.6,1341.5,1728.1,863.4,1727.4z"/>
	<path class="st1" d="M1550,463.2c7.2,0.1,17.9-6.8,20.3-13c2.5-6.6,0.1-16.6-5.1-21.1c-7.5-6.5-16.1-7.3-24.8-2.3
		c-8.1,4.7-10.6,11.4-7.9,21.8C1535,458,1541,463,1550,463.2z"/>
	<path class="st1" d="M1547.8,1303.8c12.9-0.7,21.1-6.3,20.9-20c0-11-7.9-19.3-18.3-19.2c-10.8,0-20.6,9.6-20.8,20.1
		C1529.5,1293.7,1539.1,1304.2,1547.8,1303.8z"/>
	<path class="st1" d="M1386.6,272c10.5,0,18.9-8.5,18.9-19c-0.8-13.4-5.1-21.2-17.6-21c-12.1,0.2-21.7,8-21.6,18.1
		C1366.4,259.9,1377.7,272.1,1386.6,272z"/>
	<path class="st1" d="M1052.7,1627.4c-8.3,0.3-18.5,5.5-18.6,17.6c-0.1,10.1,9.8,21.2,18.9,21.2c9.2,0.2,17.6-8.4,17.6-18.1
		C1070.6,1636.5,1062.8,1627.1,1052.7,1627.4z"/>
	<path class="st1" d="M1479.1,1368c-13,0.1-23.7,8.6-23.6,18.7c0.1,10.3,11.1,21.5,21.1,21.5c10.5,0,18.8-8.4,18.9-19
		C1495.5,1376,1489.3,1367.9,1479.1,1368z"/>
	<path class="st1" d="M1048.8,101.5c13,0,21.8-9.7,21.5-23.5c-0.2-9.4-6.9-15.8-16.3-15.6c-14.3,0.3-22.4,7.8-22.3,20.6
		C1031.8,89.8,1042.6,101.6,1048.8,101.5z"/>
	<path class="st1" d="M927.6,79.2c7.8,0.3,18.6-10,17.4-17.4c0.7-11.5-10.2-19.4-17-19.3c-10.3,0-19.2,8.7-19.2,19
		C908.7,70.4,917.8,78.7,927.6,79.2z"/>
	<path class="st1" d="M937.4,1649.2c-6.6-3.1-12.7-1.5-18.9-0.1c-5.2,1.2-8.6,4.8-9.6,9.8c-0.8,3.9-0.4,8.2,0,12.2
		c0.7,9.7,6.5,14.8,16,15c2.6-0.4,5.3-0.7,7.9-1.2c7.8-1.6,12.8-6,13.3-13.4C946.7,1662.9,944.7,1652.7,937.4,1649.2z"/>
	<path class="st1" d="M1173.7,139.5c9.8-0.1,17.1-8.1,17.2-18.8c0.1-9-7.7-18.9-14.8-18.9c-12.1,0-22.3,6.9-22.5,15.3
		C1153.3,129.1,1162.7,139.5,1173.7,139.5z"/>
	<path class="st1" d="M1387.2,1457.3c-12,0.4-19.7,7.6-19.7,19.5c0,11.3,8,19.7,19.1,19.8c11.2,0.1,19.9-8.6,20.1-19.7
		C1406.9,1468.2,1399.5,1457,1387.2,1457.3z"/>
	<path class="st1" d="M1284.9,1531.4c-11.8,0.2-20.7,8.4-20.6,19.1c0.1,10.5,9.9,21.1,19.3,21c10.8-0.1,21.5-9.9,20.5-20.2
		C1303,1539.4,1297.1,1531.6,1284.9,1531.4z"/>
	<path class="st1" d="M1177.8,1589.7c-7-2.5-14-3-19.6,2.6c-10.7,10.8-7.9,26.3,5.7,32.7c6,2.8,12.9,4.4,18.4-0.3
		c5.6-4.9,9.2-11.4,8.8-18.8C1191,1597.7,1187,1593,1177.8,1589.7z"/>
</g>
</svg>
