<?xml version="1.0" encoding="utf-8"?>
<!-- Generator: Adobe Illustrator 19.2.1, SVG Export Plug-In . SVG Version: 6.00 Build 0)  -->
<svg version="1.1" id="Layer_1" xmlns="http://www.w3.org/2000/svg" xmlns:xlink="http://www.w3.org/1999/xlink" x="0px" y="0px"
	 viewBox="0 0 1727.5 1727.4" style="enable-background:new 0 0 1727.5 1727.4;" xml:space="preserve">
<style type="text/css">
	.st0{opacity:0.8;}
	.st1{fill:#FFFFFF;}
</style>
<g class="st0">
	<path class="st1" d="M466.2,1570.9c-1.9,3.6-1,5.3,2.3,7c11.1,5.9,22,12.1,33.1,18c7.3,3.9,14.7,7.6,22.2,11.1
		c1.8,0.8,5.6,1.1,6.2,0.2c3.7-5.5,6.8-11.5,9.7-16.8c-22.6-11.2-44.6-22.2-67.3-33.6C470.4,1561.3,468.7,1566.3,466.2,1570.9z"/>
	<path class="st1" d="M277.5,1401.1c-3,3.4-5.7,7.1-9,10c-3.4,3-3.6,5.4-0.4,8.5c6.1,6.1,12.1,12.3,18.2,18.4
		c9.7,9.8,19.5,19.7,29.2,29.5c5.3-5.3,10.5-10.5,16.4-16.4C310.4,1438.7,296.3,1418.6,277.5,1401.1z"/>
	<path class="st1" d="M469.7,172.9c9.7-5,19.2-10.4,28.8-15.5c9.8-5.2,19.6-10.3,29.6-15.1c2.9-1.4,3.2-2.9,2.1-5.4
		c-1.6-3.6-3.7-7.1-4.8-10.9c-1.4-5-3.6-3.8-6.8-1.8c-4.5,2.8-9.2,5.4-13.9,7.6c-15.9,7.6-32,15-48.9,22.8c3.7,6.6,6.7,12.1,10,17.4
		C466.3,172.8,468.8,173.4,469.7,172.9z"/>
	<path class="st1" d="M416.7,207.4c0.7-0.5,1.4-0.9,2-1.4c2.5-1.8,3.4-3.7,1.1-6.6c-2.3-2.8-4.3-5.9-6-9.1c-1.8-3.2-3.3-3.9-6.9-1.7
		c-15.6,9.1-30.2,19.7-43.9,31.6c-3.3,2.9-7.1,5.3-11,8.3c4.8,5.5,9.3,10.8,12.8,15C382.6,231.1,399.6,219.3,416.7,207.4z"/>
	<path class="st1" d="M371.4,1485.5c-4.9,5.9-9.2,11.1-14.3,17.3c20,14.9,39.5,29.3,59.5,44.2c4.7-5.7,9.2-11,13.7-16.5
		C410.6,1514.8,386.5,1506.5,371.4,1485.5z"/>
	<path class="st1" d="M585.5,119.4c0.8-0.3,1.5-0.7,2.3-0.9c14.7-4.7,29.3-9.3,44-14c5.8-1.8,11.6-3.7,18.1-5.8
		c-2.4-5.6-4.6-10.2-6.3-15.1c-1.5-4.3-4.1-5.1-8-4c-8.8,2.4-17.7,4.4-26.3,7.4c-10.5,3.6-20.7,7.8-31,11.9c-2.9,1.2-4.6,3-3,6.6
		c1.4,3.2,2.5,6.6,2.8,10C578.6,121.2,581.7,120.7,585.5,119.4z"/>
	<path class="st1" d="M874.6,68.8c6.3,0.5,12.6,1.3,18.9,1.6c1.3,0.1,3.7-1.2,3.7-1.9c0.3-6.7,0.2-13.5,0.2-19.4
		c-25.7-5-50.5-4.1-75.4-0.2c-0.1,6.8-0.1,13.8-0.1,21.4C839.7,66.8,857.1,67.4,874.6,68.8z"/>
	<path class="st1" d="M705.9,1646.1c-0.5,3.3-0.9,6.6-1.3,9.9c-0.9,7.4-0.9,7.5,6.7,8.8c15.7,2.6,31.4,5.2,47.1,7.7
		c4.9,0.8,9.8,1.1,15.2,1.7c1.9-6.7,3.6-12.9,5.5-19.2c-24.6-3.8-48.4-7.4-72.5-11.1C706.4,1644.6,706,1645.4,705.9,1646.1z"/>
	<path class="st1" d="M651.7,1630.3c-5.3-1.3-10.8-2-16-3.8c-10.1-3.6-20-7.9-30.1-11.5c-6.5-2.3-13.3-4-20.2-6
		c-1.8,6.1-3.5,11.4-4.8,16.9c-0.3,1,0.7,3.2,1.5,3.5c9.8,3.6,18.6,9.6,29.4,10.4c4.2,0.3,8.5,1.6,12.6,2.8c8.5,2.7,17,5.6,25.9,8.5
		c1.7-6,2.8-11,4.5-15.8C655.6,1632.1,654.4,1631,651.7,1630.3z"/>
	<path class="st1" d="M770.9,63.4c-2.4-10.2-3.1-10.8-13.7-9.3c-13.1,1.9-26.2,3.8-39.3,6c-5.6,0.9-11,2.3-16.5,3.8
		c-1.2,0.3-3,2-3,3c0.4,6.6,1.3,13.1,2,19.5c24.8-4.2,48.9-8.4,73.5-12.7C772.6,69.4,771.6,66.5,770.9,63.4z"/>
	<path class="st1" d="M113.7,1124.4c-4.5-14.4-9.1-28.7-13.6-43.1c-0.9-3-2.5-3.8-5.6-2.8c-4.8,1.8-9.8,3.1-15.5,4.7
		c0.3,3.3,0.4,6.3,1,9.2c4.2,20.3,12.4,39.1,20.6,57.9c0.5,1.1,3.1,2.1,4.4,1.8c4.2-0.8,8.3-2.4,12.5-3.3c3-0.6,3.4-1.9,2.5-4.5
		C117.8,1137.7,115.8,1131.1,113.7,1124.4z"/>
	<path class="st1" d="M86.1,1022c-2.9-12.6-6.1-25.1-8.6-37.8c-1.5-7.6-2-15.5-2.8-23.2c-0.4-3.3-1.8-4.7-5.3-4.1
		c-5,1-10.1,1.8-15.9,2.8c0.4,4.9,0.5,9.2,1.1,13.4c1.7,12.3,3.5,24.6,5.5,36.8c1,6.4,2.4,12.7,4,19c0.3,1.2,2.8,2.9,4,2.7
		c6.3-1.2,12.5-3,18.9-4.7C86.6,1024.9,86.4,1023.5,86.1,1022z"/>
	<path class="st1" d="M70.3,830.5c-7.8,0-14.8,0-21.3,0c-4.9,25.1-4.2,49.7-0.1,74.9c6.9,0,14,0,21.9,0
		C69.3,880.2,65,855.5,70.3,830.5z"/>
	<path class="st1" d="M83.7,706.1c-4.4-0.5-8.5-1-12.6-1.5c-6.7-0.8-7.1-0.7-8.3,6.2c-2.7,15.5-5.2,31.1-7.7,46.7
		c-0.8,5.2-1.2,10.5-1.8,16.2c6.8,1.8,12.9,3.5,19.2,5.4C76.3,754.3,79.9,730.5,83.7,706.1z"/>
	<path class="st1" d="M322.4,278.3c-4-3.9-8.3-8.2-13.7-13.6c-16.4,16.8-32.8,33.6-48.5,49.7c4.6,5.3,8.7,9.9,12.1,13.8
		C289.4,311.2,305.9,294.7,322.4,278.3z"/>
	<path class="st1" d="M97.5,651.1c4.2-12.9,8.8-25.7,13-38.7c2.8-8.7,5.3-17.6,8.1-27c-6.2-1.8-11.2-3.4-16.4-4.6
		c-1.3-0.3-3.8,0.6-4.2,1.6c-3.1,6.9-6.3,13.9-8.5,21.2c-3.3,10.9-5.8,22.1-8.8,33.1c-1.2,4.4-2.7,8.7-4.2,13.4
		c5.5,1.5,10.4,2.4,15,4.2C95.3,655.8,96.4,654.4,97.5,651.1z"/>
	<path class="st1" d="M903.9,1657.4c-15,3.2-30.1,2.6-45.2,1.7c-8.1-0.5-16.2-1.5-24.4-2c-1.3-0.1-3.8,1.4-3.9,2.3
		c-0.3,6.6-0.2,13.2-0.2,19.7c24.2,3.5,60.9,3.3,75.4-0.3c0-7,0-14.1,0-21.2C904.9,1657.5,904.3,1657.3,903.9,1657.4z"/>
	<path class="st1" d="M242,371.4c-5.8-4.8-11.1-9.2-17.4-14.3c-14.9,20.1-29.4,39.6-44.2,59.5c5.8,4.8,11,9.2,16.5,13.7
		C212.6,410.9,220.8,386.6,242,371.4z"/>
	<path class="st1" d="M209.8,1314.2c-5.9-8.7-6.1-9.2-14.4-3.8c-2.2,1.4-4.7,2.6-6.6,4.4c-0.9,0.9-1.7,3.5-1.1,4.3
		c7.9,11.8,15.9,23.5,24.2,35c5.1,7.1,10.8,13.8,16.5,21.2c5.5-4.6,10.8-9,16.3-13.6c-1.9-2.2-3.6-3.8-4.9-5.6
		C229.7,1342.2,219.5,1328.4,209.8,1314.2z"/>
	<path class="st1" d="M170.7,472.4c-4.5-2-9.6-3.8-14.4-6.4c-3.4-1.8-5-0.8-6.6,2.2c-6,11.1-12.1,22-18,33.1
		c-3.9,7.3-7.7,14.7-11.1,22.2c-0.9,1.9-1.1,5.8,0,6.5c5.4,3.7,11.3,6.6,16.5,9.6C148.3,517.1,159.4,495,170.7,472.4z"/>
	<path class="st1" d="M157.1,1228.2c-5-9.5-10-19-14.7-28.7c-1.5-3.1-3-3.4-5.8-2.2c-3.3,1.5-6.6,3.3-10,4.3
		c-5.3,1.6-4.4,3.9-2.1,7.8c3.9,6.5,7.1,13.5,10.4,20.3c6.6,13.7,13.1,27.5,19.9,41.8c6.4-3.6,12-6.7,17.5-10
		c0.8-0.5,1.3-2.7,0.8-3.6C167.9,1248,162.3,1238.2,157.1,1228.2z"/>
	<path class="st1" d="M1655,948.5c-3.8,24.4-7.4,48.2-11.2,72.9c4.3,0.5,8.7,0.6,12.8,1.7c5,1.4,7.1-0.6,7.9-5.1
		c3-18.5,6.1-37,9-55.6c0.4-2.7,0.1-5.6,0.1-8.7C1667.4,951.9,1661.2,950.2,1655,948.5z"/>
	<path class="st1" d="M1659.4,859.2c0.3,12.5-0.7,25.1-1.1,37.6c6.6,0,13.7,0,20.1,0c5.3-25,3.8-49.6,0.3-74.9c-6.9,0-14,0-22.1,0
		C1657.6,834.5,1659.1,846.9,1659.4,859.2z"/>
	<path class="st1" d="M1641.2,705.2c2.9,12.8,6.2,25.4,8.7,38.3c1.5,7.6,1.9,15.5,2.8,23.2c0.3,2.6,1.3,4.5,4.4,4
		c5.4-0.9,10.8-1.8,17.4-2.9c-3.7-24.3-7.4-48.2-11.2-72.9c-8.4,2-15.4,3.8-22.9,5.6C1640.8,702.6,1641,703.9,1641.2,705.2z"/>
	<path class="st1" d="M1613.8,603.1c4.6,14.4,9.1,28.7,13.6,43.1c0.8,2.6,2.1,3.8,5.1,2.8c5.1-1.7,10.2-3,16-4.7
		c-0.4-3.4-0.4-6.4-1-9.3c-4.2-20.3-12.5-39.1-20.6-57.9c-0.5-1.1-2.8-2.2-4-1.9c-4.1,0.8-7.9,2.6-12,3.2c-4.2,0.6-4.2,2.6-3.2,5.8
		C1609.8,590.5,1611.8,596.8,1613.8,603.1z"/>
	<path class="st1" d="M1630,1076.4c-5.2,15.9-10.7,31.7-15.9,47.7c-1.9,5.9-3.3,12-4.9,18.2c6,1.8,11.2,3.4,16.5,4.7
		c1.1,0.3,3.4-0.7,3.8-1.7c3-6.8,6.2-13.6,8.4-20.7c2.5-8.2,3.8-16.8,6.1-25.1c1.9-7.2,4.6-14.2,7.2-22c-5.6-1.5-10.5-2.5-15.1-4.2
		C1632.4,1071.9,1631.1,1072.9,1630,1076.4z"/>
	<path class="st1" d="M1485.5,1356c5.8,4.8,11.1,9.2,17.3,14.4c14.9-20.1,29.4-39.5,44.2-59.5c-5.7-4.8-11-9.2-16.4-13.7
		C1514.9,1316.6,1506.8,1340.9,1485.5,1356z"/>
	<path class="st1" d="M1518.2,414.2c5.6,8.2,5.7,8.4,13.5,3.3c2.3-1.6,4.9-2.8,7-4.7c1-0.9,1.7-3.5,1.1-4.3
		c-7.2-11.1-14.4-22.2-22.2-32.9c-5.7-7.9-12.2-15.2-18.7-23.2c-5.3,4.4-10.6,8.8-16.2,13.4c2.1,2.4,3.7,3.9,4.9,5.6
		C1497.8,385.6,1508.2,399.8,1518.2,414.2z"/>
	<path class="st1" d="M0-9.8v1753.9h1741V-9.8H0z M863.4,1727.4C384.1,1727.6-0.2,1341.6,0,863.5C0.2,383.7,386.3-0.4,864.4,0
		c479.7,0.4,863.5,386.6,863.1,864.3C1727.1,1343.8,1341.3,1728.2,863.4,1727.4z"/>
	<path class="st1" d="M1590.5,1187.9c-11.3,22.6-22.4,44.6-33.7,67.2c4.5,1.9,9.3,3.7,13.8,6.1c3.6,1.9,5.5,1.5,7.4-2.2
		c5.8-11.1,12.1-22,18-33.1c3.8-7.1,7.5-14.4,10.9-21.7c0.9-1.9,1.4-5.7,0.6-6.3C1601.9,1194.1,1595.8,1190.9,1590.5,1187.9z"/>
	<path class="st1" d="M1585.2,528.3c1.3,2.6,2.7,3.1,5,2.1c3.9-1.7,7.7-4,11.8-5.2c4.2-1.3,3.1-3.1,1.7-5.8
		c-3.9-7.1-7.7-14.3-11.2-21.6c-6.5-13.6-13-27.4-19.8-41.9c-6.5,3.7-12.1,6.7-17.4,10c-0.8,0.5-1.2,3-0.7,4
		C1564.7,489.4,1575.1,508.8,1585.2,528.3z"/>
	<path class="st1" d="M1023,71.5c0.9-7.4,0.8-7.5-6.7-8.8c-14.2-2.5-28.4-4.9-42.6-7.1c-6.5-1-13.1-1.5-19.8-2.3
		c-2,7-3.7,13.1-5.4,19.2c24.5,3.8,48.3,7.5,72.9,11.2C1021.9,79.7,1022.5,75.6,1023,71.5z"/>
	<path class="st1" d="M1149.4,1612.1c-0.6-5.6-3.4-5.6-7.7-4.2c-17.3,5.7-34.7,11.3-52,16.9c-3.8,1.4-7.7,2.6-11.8,3.9
		c0.5,1.5,0.6,2.3,0.9,3c7.7,19.1,7.8,19.4,27.7,12.3c14.5-5.1,28.6-11.2,43-16.7c3-1.2,3.8-2.5,2.5-5.6
		C1150.8,1618.6,1149.7,1615.4,1149.4,1612.1z"/>
	<path class="st1" d="M1121.9,112.5c6.6,2.4,13.3,4,20.2,5.9c1.8-6,3.4-11.2,4.7-16.5c0.3-1.1-0.4-3.3-1.1-3.6
		c-9.7-3.7-18.6-9.6-29.4-10.6c-4.4-0.4-8.8-1.7-13.1-3c-8.5-2.6-16.9-5.5-25.8-8.4c-1.6,5.6-2.6,10.7-4.4,15.5
		c-1.2,3.3-0.2,4.6,2.8,5.3c5.3,1.2,10.8,2,16,3.9C1101.9,104.6,1111.8,108.9,1121.9,112.5z"/>
	<path class="st1" d="M1261.4,156.4c1.8-3.4,1-5-2.1-6.7c-11.2-6-22.3-12.3-33.5-18.2c-7.3-3.9-14.7-7.6-22.2-11.1
		c-1.8-0.8-5.5-0.9-6.1,0c-3.7,5.4-6.6,11.3-9.6,16.6c22.5,11.3,44.5,22.3,67.2,33.7C1257.1,166,1258.9,161,1261.4,156.4z"/>
	<path class="st1" d="M1021.4,1641.7c-12.3,2.8-24.5,5.9-36.8,8.3c-7.8,1.5-15.8,2-23.7,2.9c-2.6,0.3-4.5,1.2-4,4.4
		c0.9,5.3,1.8,10.7,2.8,17.4c24.3-3.7,48.2-7.4,73-11.2c-2.2-8.6-3.9-15.7-5.8-23.1C1024.6,1640.9,1023,1641.3,1021.4,1641.7z"/>
	<path class="st1" d="M1449,325.4c4.5-4.3,8.9-8.7,14.2-13.9c-17.1-17.3-34.1-34.4-51.2-51.8c-5.3,5.3-10.5,10.6-16.4,16.7
		C1417.4,289,1431.5,309.1,1449,325.4z"/>
	<path class="st1" d="M1257.7,1554.6c-9.8,5.1-19.5,10.6-29.3,15.7c-9.5,5-19,10.1-28.7,14.7c-3.3,1.6-3.7,3.2-2.3,6.1
		c1.7,3.6,3.7,7.1,4.8,10.9c1.2,4,2.9,3.5,5.7,1.9c4.8-2.9,9.7-5.7,14.8-8.2c16-7.6,32.1-15,48.9-22.9c-3.7-6.6-6.7-12.1-10-17.4
		C1261.1,1554.6,1258.6,1554.1,1257.7,1554.6z"/>
	<path class="st1" d="M1311.1,1519.8c-1,0.6-1.9,1.3-2.8,2.1c-2,1.6-3,3.2-0.9,5.8c2.5,3.3,4.5,6.9,6.7,10.4c1.6,2.6,3.1,2.8,6,1.1
		c15.8-9.2,30.5-19.8,44.3-31.8c3.3-2.9,7.1-5.3,11-8.2c-4.7-5.7-9.2-11-13.7-16.4C1345.6,1496.9,1329.1,1509.5,1311.1,1519.8z"/>
	<path class="st1" d="M1404.6,1448.2c4.7,4.8,9,9.2,12.7,12.9c16.7-16.5,33.5-33,50.5-49.8c-4.2-4.9-8.6-10.1-12.6-14.9
		C1437.8,1414.2,1421.1,1431.4,1404.6,1448.2z"/>
	<path class="st1" d="M1356.1,241.9c4.7-5.6,9-10.7,14.4-17.2c-20-14.9-39.5-29.3-59.6-44.2c-4.7,5.6-9.2,11-13.7,16.4
		C1316.8,212.6,1341,220.9,1356.1,241.9z"/>
</g>
</svg>
