<?xml version="1.0" encoding="utf-8"?>
<!-- Generator: Adobe Illustrator 19.2.1, SVG Export Plug-In . SVG Version: 6.00 Build 0)  -->
<svg version="1.1" id="Layer_1" xmlns="http://www.w3.org/2000/svg" xmlns:xlink="http://www.w3.org/1999/xlink" x="0px" y="0px"
	 viewBox="0 0 1727.9 1733" style="enable-background:new 0 0 1727.9 1733;" xml:space="preserve">
<style type="text/css">
	.st0{opacity:0.8;}
	.st1{fill:#FFFFFF;}
</style>
<g class="st0">
	<path class="st1" d="M1671.3,823.9c1.7-2,2.9-3.6,4.2-5c10.7-11.4,21.3-22.7,32-34.1c3.6-3.8,3.4-5.3-0.8-8.2
		c-6.2-4.2-12.4-8.3-18.5-12.6c-8.5-6-16.8-12.3-25.4-18.6c1.3-1.8,2.2-3.2,3.2-4.5c9.8-12.8,19.6-25.5,29.3-38.3
		c4.2-5.6,3.8-6.2-2.4-9.8c-13.5-7.7-26.8-15.9-40.4-23.6c-3.9-2.2-3.3-3.9-1.1-6.9c9.5-13.3,19.4-26.5,25.7-41.8
		c2.2-5.4,2.3-6.1-3-8.4c-14.5-6.2-29-12.4-43.5-18.4c-7.5-3.1-7.5-2.9-3.4-10.2c7.6-13.6,15.3-27.2,19.9-42.3
		c0.9-3,0.9-4.2-2.5-5.4c-17.2-6-34.4-12.3-52.1-18.6c6.7-18.3,13.4-36.7,20.3-55.8c-20.5-4.9-39.8-9.5-59.5-14.2
		c0.5-2.3,0.8-4,1.4-5.8c4.6-15.1,9.2-30.2,13.7-45.3c2.3-7.8,2.1-8.4-5-9.5c-15.8-2.3-31.6-4.4-47.4-6.3c-3.6-0.4-5-1.3-4.5-5.1
		c2.4-17.5,4.5-35,7-52.4c0.6-4-0.2-5.3-4.4-5.3c-16.8,0.2-33.7,0.1-50.5,0.1c-1.9,0-3.8,0-6.2,0c0.3-5.4,0.6-9.8,0.8-14.3
		c0.7-14.1,1.4-28.3,2.1-42.4c0.2-3.2-0.4-4.9-4.4-4.5c-17.7,1.8-35.5,3.2-53.2,4.9c-3.5,0.3-4.8-0.7-4.8-4.3
		c0.2-10.2,0.4-20.4-0.1-30.5c-0.4-8.7-1.8-17.4-3-27.6c-19.9,3.9-39,7.6-58.5,11.4c-1.6-19.7-2.3-39.2-8.5-58.4
		c-18.8,4.7-37.1,9.2-55.9,13.9c-1.1-4.1-2.2-8-3.2-11.8c-3.7-13.3-7.5-26.5-11.2-39.8c-1-3.4-2.6-4.8-6.6-3.3
		c-15.6,5.8-31.3,11.1-46.9,16.8c-4.2,1.5-6,0.5-7.4-3.9c-5-15.5-10.6-30.7-15.9-46.1c-1.2-3.5-2.7-4.3-6.2-2.3
		c-6,3.5-12.3,6.5-18.4,9.8c-10.1,5.3-20.2,10.6-30.6,16.1c-1.4-3-2.7-5.5-3.8-8c-6.3-14.2-10.8-29.3-21.3-41.4
		c-2.3-2.7-3.9-3.7-7.3-1.6c-9.1,5.7-18.5,11.1-27.7,16.7c-6.1,3.7-12.2,7.6-18.4,11.6c-1.1-1.8-1.8-2.9-2.5-4
		c-8.4-13.9-16.8-27.7-25.2-41.6c-2.2-3.6-4.3-4.7-8.2-1.5c-5.6,4.7-11.9,8.5-17.6,13c-8.4,6.5-16.6,13.2-24.6,19.6
		c-12.5-16-24.6-31.5-37.8-48.3c-14.5,15-28.1,28.9-41.8,43C875.2,43.7,861.4,29,847.5,14c-13.6,15.5-26.6,30.3-39.6,45
		c-15.6-12-27.7-27.4-45.7-35.8c-11,15.5-22,31-33.3,47.1C713.5,58,699.2,45,680.2,37.6c-8.9,17-18.1,34.4-27.5,52.5
		c-10.8-7.1-21.3-14-31.8-20.8c-4.8-3.1-9.7-6.3-14.7-9c-4-2.2-7-0.9-9.1,3.6c-6.8,14.9-14.1,29.7-20.9,44.6
		c-1.5,3.3-2.6,3.8-5.9,2.4c-16.2-7-32.5-13.8-49.2-20.8c-1.1,2.6-1.8,4.1-2.3,5.7c-5.5,15.7-11,31.3-16.3,47
		c-1,2.8-2.4,3.6-5.4,3.8c-7.5,0.6-14-2.4-20.7-4.7c-10.4-3.5-20.6-7.4-31-10.8c-1.2-0.4-3.8,0.5-4.1,1.4c-2.9,8.6-5.9,17.3-8,26.2
		c-2.2,9.7-3.5,19.6-5.4,30.9c-11.6-2.8-22.7-5.7-34-8.1c-8-1.7-16.2-2.8-25-4.3c-2,20.4-3.9,39.6-5.9,60.3
		c-19.2-7.5-38.8-6.5-58.3-9.2c-0.4,1.7-0.9,3.1-0.9,4.5c-0.8,17.3-1.7,34.6-2.4,51.8c-0.2,5.7-0.8,6.6-6.5,5.3
		c-14.7-3.4-29.4-2.9-44.2-0.8c-4.2,0.6-5.6,2.1-5.4,6.3c0.9,16.1,1.4,32.3,2.3,48.4c0.2,3.8-0.5,5.4-4.6,5.5
		c-16,0.7-31.9,1.6-47.9,2.5c-1.9,0.1-3.9,0.2-6,0.3c0,1.5-0.1,2.5,0,3.4c2.4,16.8,4.9,33.6,7.4,50.4c0.8,5.2-0.8,7.3-6.1,7.6
		c-2.7,0.2-5.4-0.3-8,0.3c-13.4,3.2-26.7,6.8-40.1,10.1c-3.1,0.8-3.7,2-2.6,4.9c2.8,7.4,5.6,14.9,7.9,22.5
		c2.7,9.5,4.9,19.2,7.2,28.6c-18.9,6.1-37.2,11.9-56.1,17.9c7.6,19,14.9,37.5,22.4,56.2c-2.8,1.2-5.3,2.2-7.7,3.2
		c-14,6-28,12-42.1,17.8c-2.8,1.2-3,2.5-1.8,4.9c7.3,14.5,14.5,29.1,22,43.5c1.5,3,1.2,4.3-1.7,5.8c-9.5,5-19,10.2-28.4,15.4
		c-6.2,3.4-12.2,7.1-19.4,11.3c9.7,15,18.8,29.6,28.3,43.9c3.4,5.1,3.7,5.8-1.4,9.4c-13.1,9.3-26.2,18.7-39.5,27.8
		c-3,2.1-3.2,3.4-0.9,6.2c11.7,14,23.2,28.2,34.7,42.3c0.5,0.6,0.8,1.4,1.5,2.6c-15.7,12.1-31.2,24.1-47.5,36.6
		c14,14.9,27.8,29.5,42.2,44.8c-14,13.6-28.1,27.2-42.7,41.4c16.6,13.7,32.2,26.6,47.5,39.2c-12,14.2-23.6,28.1-35.4,41.8
		c-2.6,3-2.2,4.3,0.9,6.5c13.2,9.1,26.3,18.5,39.5,27.8c4.6,3.3,4.7,4.4,1.2,9c-5.3,7-10.5,14-15.4,21.3
		c-5.1,7.5-9.8,15.3-14.8,23.2c17.9,9.5,35.3,18.7,51.7,27.4c-8.8,16.9-17.2,33-25.4,49.2c-0.4,0.8,0.3,3.2,1,3.5
		c9.1,4.3,18.3,8.7,27.7,12.4c8.4,3.4,17.2,6,25.1,8.7c-7.3,19.1-14.3,37.6-21.6,56.9c17.6,4,32.2,14.3,50.1,13.9
		c5.6-0.1,6.5,2.4,4.9,8c-3.9,14.6-7.6,29.3-11.5,43.9c-0.7,2.7-0.4,4.5,2.7,5.1c15.4,3.2,30,9.9,46,10.4c5,0.2,6.4,2.4,5.7,7.5
		c-2.2,15.1-4.4,30.3-6.6,45.4c-0.4,2.7-0.7,5.4-1,8.6c5.4,0.5,10.2,0.9,15,1.3c12.8,1.1,25.5,2.3,38.3,3.3c4.4,0.4,5.9,2.2,5.3,6.8
		c-1.1,8.9-1.7,17.9-2,26.9c-0.3,8.6-0.1,17.2-0.1,26.4c18.9,0,37.1,0,55.6,0c0.2,2.4,0.5,4.2,0.6,6c0.8,16.1,1.5,32.3,2.5,48.4
		c0.1,1.7,1.7,4.7,2.6,4.7c11-0.2,21.9-0.6,32.8-1.6c7.7-0.7,15.3-2.6,23.4-4c1.9,19.9,3.8,39.2,5.7,58.8c20.4-4.2,40.3-6.2,59-14.2
		c4.5,19.1,8.8,37,13,55c0.7,2.8,1.4,4.6,5,3.6c11.8-3.3,23.7-6.3,35.6-9.6c5.7-1.6,11.2-3.7,17-5.6c6.4,18.4,12.8,36.6,19.2,54.7
		c10.1-3.7,19.2-6.7,28.1-10.3c7.7-3.1,15.2-6.6,22.7-10.1c2.3-1.1,3.5-0.6,4.6,1.8c6.9,14.9,14,29.7,21,44.6c3,6.3,3.5,6.7,9.6,3.4
		c14.3-7.8,28.4-15.7,42.5-23.8c3-1.7,4.6-1.5,6.2,1.7c3.3,6.5,7,12.8,10.4,19.2c5.2,9.8,10.2,19.7,15.8,30.5
		c17-12.3,33.5-24.3,50.3-36.5c11.1,16.4,19.9,33.5,34,47.2c4.4-3,9.1-5.5,13.1-8.9c10.4-8.9,20.5-18.2,31.2-27.7
		c13.3,15.9,24.6,32.3,40.5,45.5c13.1-14.1,26.1-27.9,38.7-41.5c15.1,14.2,29.7,27.9,44.1,41.4c13-16.4,25.2-31.8,37.8-47.6
		c15.2,12.3,29.9,24.1,45.1,36.4c6.4-9.4,12.5-18.2,18.4-27.2c5-7.6,9.8-15.5,14.8-23.5c17.5,10.6,33.9,20.6,51.3,31.2
		c5-8,10.6-15.3,14.6-23.4c4.7-9,8.2-19.4,12.3-29.8c1.9,0.9,2.8,1.3,3.7,1.8c14.7,8,29.1,16.6,45.2,21.9c3.4,1.1,5.7,1.6,7.4-2.6
		c6.1-14.9,12.6-29.6,18.5-44.6c1.5-3.7,3.1-4.1,6.3-2.8c8.1,3.4,16.2,7,24.3,10.2c8.9,3.6,17.9,6.9,27.5,10.6
		c4.8-20,9.5-39.4,14.4-59.8c20.2,5.6,39.5,11,59.6,16.5c0.6-3.6,1.5-7.7,2-11.9c1.7-13.8,3.2-27.7,4.8-41.6
		c0.4-3.7,2.2-4.5,5.8-3.9c10.6,1.9,21.3,3.7,32,5.2c7.1,1,14.4,1.6,21.2,2.4c1.2-20,2.4-39.1,3.6-58.7c3.5,0.2,6.5,0.4,9.4,0.5
		c14.6,0.7,29.3,1.4,43.9,2.2c4.7,0.3,6.6-1.1,6.3-6.1c-1.1-15.8-1.7-31.6-2.8-47.4c-0.3-4.4,0.8-6.2,5.5-6.3
		c17-0.5,33.9-1.4,50.9-2.1c3.3-0.1,5.6-0.4,5-4.6c-1.3-8.7-2.4-17.5-3.7-26.2c-1.4-9.3-2.9-18.6-4.5-28.8c17.9-2.5,35.2-5,52.5-7.2
		c6.9-0.9,7.7-1.5,5.8-8.1c-3.7-12.6-7.6-25.1-11.5-37.6c-1.4-4.5-2.9-9-4.5-14c2.9-0.7,5.1-1.3,7.3-1.8
		c16.2-3.7,32.5-7.1,47.8-13.7c3.2-1.4,4.3-2.7,2.8-6.3c-5-12.7-9.7-25.4-14.4-38.2c-1.6-4.3-2.8-8.7-4-12.2
		c17.8-5.7,34.8-11.1,51.9-16.5c2.9-0.9,3.7-2,2.5-5c-1.8-4.3-2.9-8.8-4.9-13c-5.5-11.9-11-23.7-16.9-35.4c-2-3.9-0.8-5.1,2.6-6.6
		c16.8-7.8,33.6-15.8,50.6-23.8c-0.4-1.1-0.7-2.2-1.2-3.2c-6.5-15.6-16.4-29.1-26.2-42.7c-1.9-2.6-2.6-4.4,1-6.2
		c2.8-1.4,5.3-3.4,7.9-5.2c12.6-8.2,25.3-16.3,39.1-25.3c-12.1-16.6-23.9-32.8-35.9-49.3c14.6-10.3,28.9-20.4,43.3-30.5
		c4.7-3.3,4.9-4.5,0.6-8.8c-5.8-5.9-11.7-11.8-17.3-17.9c-6.3-6.8-12.3-13.8-18.5-20.8c15.2-14.2,30-28,45.4-42.4
		C1701.1,851.8,1686.3,837.9,1671.3,823.9z M1668.3,948.1c-15.9,11.3-31.5,22.3-47.6,33.7c5.1,6.9,9.9,13.4,14.7,19.9
		c5.5,7.3,11,14.6,16.5,21.8c1.7,2.3,2,3.6-1.1,5.3c-14.3,7.7-28.4,15.8-42.7,23.6c-3.4,1.9-4.2,3.2-1.8,6.8
		c8.9,13.4,17.5,27,26.2,40.5c0.5,0.8,0.9,1.7,1.7,3.2c-17.6,8.4-35.1,16.7-52.9,25.2c8.4,17,16.6,33.4,25.1,50.5
		c-8,3-15.3,5.9-22.8,8.7c-8.9,3.3-17.8,6.4-26.7,9.6c-3,1.1-3.6,2.6-2.5,5.7c5.6,14.7,11,29.5,16.5,44.3c0.5,1.4,0.8,2.8,1.5,5
		c-18.6,4.7-36.8,9.3-55.8,14.1c4.6,18.8,9.2,37.2,13.8,56.1c-11.8,1.2-22.9,2.3-33.9,3.4c-6.8,0.7-13.6,1.3-20.4,1.8
		c-3,0.2-4.4,1-3.7,4.7c3.1,15.2,5.8,30.4,8.6,45.6c0.5,2.8,0.8,5.6,1.3,9.3c-19.7,0-38.9,0-58.5,0c0.9,20,1.7,39,2.5,59
		c-18.7-1.8-37-3.6-56-5.4c-1,19.9-2,39.1-3,58.9c-8.5-1.6-16.6-3.1-24.7-4.7c-9.8-1.9-19.6-3.6-29.4-5.7c-3.9-0.8-5.2,0.2-5.5,4.3
		c-1.3,15.9-3,31.8-4.6,47.7c-0.1,0.9-0.6,1.8-1,3.1c-10.3-2.6-20.4-5.1-30.5-7.6c-7.1-1.8-14.2-3.4-21.3-5.4
		c-3.1-0.8-4.3,0.6-4.9,3.2c-3.1,12.7-6.3,25.5-9.5,38.2c-1.1,4.5-2.3,9-3.5,13.9c-17.7-7.4-35.1-14.7-53.2-22.3
		c-3.1,8.5-6.1,16.7-9,24.9c-3.2,9.2-6.4,18.5-9.5,27.8c-1.1,3.4-2.8,2.8-5.3,1.5c-16.7-8.5-33.5-16.9-50.3-25.3
		c-0.7-0.2-1.2-0.2-2.4-0.5c-7.4,16.7-14.8,33.1-22.4,50.1c-17.1-10.4-33.6-20.4-50.6-30.7c-5.6,10.4-10.8,20.2-16,29.9
		c-2.3,4.4-4.6,8.8-6.8,13.2c-1.6,3.2-3,4.4-6.6,1.5c-13-10.4-26.3-20.3-39.4-30.4c-1.2-0.9-2.5-1.6-4.4-2.9
		c-11.1,14.7-22.1,29.4-33.4,44.3c-12.8-13.2-25.4-26.3-38.6-40c-14.1,15.1-27.1,28.9-40.4,43.1c-12.3-14.2-24.4-28-36.6-42
		c-14.2,12.3-28,24.1-42.2,36.4c-11.3-16-22.3-31.5-33.8-47.6c-15,11.2-29.7,22.2-44.9,33.5c-4.2-6.7-8.1-13-12-19.3
		c-5.5-8.9-11-17.8-16.3-26.8c-2-3.5-3.7-4-7.4-1.8c-13.6,8.3-27.4,16.2-41.1,24.3c-0.6,0.3-1.2,0.5-2.2,1
		c-7.5-17.6-14.9-35.1-22.5-53c-10.5,4.4-20.4,8.6-30.4,12.7c-6.4,2.7-12.9,5.2-19.3,8.1c-3.3,1.5-4.3,0.4-5.1-2.7
		c-5-17.9-10.1-35.8-15.5-54.6c-17.8,7.4-35.3,14.7-53.3,22.2c-2.1-10.5-4.1-20.4-6-30.3c-1.6-8.2-3.2-16.3-4.5-24.5
		c-0.6-3.9-2.4-3.9-5.5-3c-16.4,4.2-32.9,8.3-49.3,12.4c-0.4,0.1-1,0-2,0c-0.5-3.4-1.1-6.8-1.4-10.2c-1.2-13.8-2.4-27.5-3.6-41.3
		c-0.6-6.9-1.1-7.2-7.9-6.1c-14.9,2.4-29.9,4.6-44.9,6.9c-1.1,0.2-2.3,0-3.9,0c0-20.2,0-40.3,0-61.3c-19.1,1-37.6,2-56.7,3
		c1-19,2-37.4,3-56.3c-17-0.9-33.3-1.9-50.6-2.8c7.6-26.6,14.9-52.4,22.4-78.9c-23.7,0-46.5,0-70.1,0c4.7-14.2,9.1-27.7,13.9-42
		c-17.5-4.7-34.9-9.3-53.2-14.2c6.5-15.1,12.8-29.7,19.4-44.9c-15.9-6.6-31.3-13-47.6-19.7c11.2-15.9,22.2-31.6,33.6-47.8
		c-16-8.5-31.6-16.8-47.6-25.4c12.3-14.2,24.1-27.8,36.4-42.1c-19.6-13.1-38.9-26-58.9-39.4c13.4-13,26.4-25.5,40-38.7
		c-19.6-16.7-38.1-32.5-57.2-48.8c13.3-13.1,26.4-25.8,39.8-38.9c-12.5-13.4-24.4-26.4-36.7-39.6c18.8-15.1,37.2-29.8,56.1-45
		c-12.2-13.2-24-26.1-36.3-39.4c20.8-11.4,40.9-22.4,61.7-33.7c-15-16-29.5-31.4-44.8-47.7c16.9-8.5,33.3-16.8,50.4-25.4
		c-11.3-17-22.2-33.5-33.6-50.6c13.2-5.4,25.9-10.4,38.2-15.8c10.4-4.6,10.5-1.2,5.6-13.2c-4.8-11.7-9.6-23.3-14.4-35
		c-0.4-0.9-0.5-1.9-0.8-3.5c16.7-3.8,33.1-7.5,49.9-11.3c-3.7-15.9-7.3-31.3-11.1-47.7c19.1,0,37.4,0,56.2,0
		c-4.7-26.5-9.3-52.1-14-78.7c18.9-1,37.1-2,56.2-3c-0.7-6.6-1.3-13.2-1.9-19.7c-1.1-10.9-2.2-21.9-3.5-32.8
		c-0.4-3.7,1.4-3.6,4.2-3.3c15.6,1.7,31.1,3.4,46.7,5c1.6,0.2,3.2,0,5.1,0c1-21.4,2-42.4,3-64.3c8.9,1.3,17,2.5,25.2,3.7
		c8.7,1.3,17.5,2.5,26.2,3.9c3.6,0.6,5.1-0.5,5.4-4.2c1.1-13.8,2.5-27.5,3.8-41.3c0.4-3.9,0.8-7.9,1.3-12.6
		c5.9,1.7,11.1,3.2,16.2,4.8c11.1,3.5,22.2,7.1,33.2,10.7c2.8,0.9,4.2,0.5,4.9-2.7c3.8-16.5,7.8-33,11.8-49.5
		c0.4-1.7,1.1-3.4,1.8-5.6c16.8,6.5,33.2,12.8,50.1,19.4c3.2-9.4,6.4-18.5,9.5-27.7c3.1-9.3,6.3-18.6,9.1-27.9
		c1.4-4.6,4.1-1.8,5.8-1c10.9,5.3,21.6,10.8,32.5,16.2c4.3,2.1,8.6,4.2,13.5,6.7c7.6-17.9,15-35.4,22.6-53.3
		c11.8,6.6,23.1,12.8,34.4,19.1c4.2,2.3,8.4,4.7,12.6,7c2.4,1.4,3.9,1.4,5.5-1.5c7.3-14.2,15.3-28.1,23-42.3c2-3.6,3.4-4.8,7.3-1.7
		c13.1,10.2,26.5,20,40.5,30.5c11.2-15.9,22.3-31.5,33.8-47.6c14.1,12.2,27.9,24.1,42.2,36.4c13-14.8,25.9-29.5,39.4-44.8
		c12.3,14.2,24.4,28,36.6,42c14.2-13.2,28-26,42.2-39.2c10.4,16,20.5,31.6,31,47.7c16.1-12.3,31.6-24.1,47.7-36.4
		c9.4,15.9,18.6,31.4,28.2,47.6c16.7-10.2,33.2-20.2,50.6-30.7c7.6,17,15,33.5,22.6,50.5c18.7-9.3,37-18.4,56.1-28
		c5.7,17.8,11.3,35.4,17,53.3c19-6.6,37.4-13,56.2-19.5c3.8,18.9,7.5,37.1,11.3,55.9c7-2,13.6-3.7,20-5.6c10.5-3.1,21-6.2,31.4-9.6
		c3.5-1.1,5-0.7,5.6,3.4c2.4,17,5.1,33.9,7.7,51.4c18.7-2.8,37.1-5.5,56.2-8.3c0.1,2.5,0.3,4.4,0.4,6.4c0.8,15,1.6,29.9,2.2,44.9
		c0.2,4.1,1.7,5.2,5.8,4.9c15.8-1.1,31.6-1.8,47.4-2.6c1.8-0.1,3.6,0,5.9,0c-1.8,19.7-3.5,38.8-5.3,58.8c19.7,0,38.7,0,58.8,0
		c-2.8,19.1-5.4,37.3-8.2,56.3c19.5,2.8,38.6,5.6,58.9,8.5c-4.6,18.6-9.2,37-13.9,56.1c18.5,3.7,36.7,7.4,55.9,11.3
		c-1.3,3.8-2.5,7.3-3.8,10.7c-5.4,13.6-10.7,27.2-16.5,40.6c-2,4.6-0.5,5.6,3.6,6.7c15.6,4.5,31.2,9.3,46.8,14
		c1.1,0.3,2.1,0.9,3.8,1.5c-8.3,16.7-16.5,33.1-25,50.2c17.6,8.4,35,16.7,53.2,25.4c-4.5,7-8.6,13.5-12.8,20
		c-5.2,8.1-10.5,16.2-15.7,24.2c-1.7,2.5-1.7,4,1.3,5.8c14.4,8.6,28.5,17.7,42.9,26.1c4,2.3,3.2,3.8,1,6.7
		c-9.7,12.8-19.3,25.8-28.8,38.7c-0.4,0.5-0.7,1.1-1.5,2.3c14.7,11.1,29.3,22.1,44.6,33.6c-13,14-25.8,27.7-39.2,42.1
		c15,12.2,29.7,24.3,44.8,36.6c-15,13.2-29.7,26-44.8,39.3C1642.1,916.2,1655,931.9,1668.3,948.1z"/>
	<path class="st1" d="M-13-12v1763h1763V-12H-13z M1690.9,911.4c10.7,11.1,21,22.6,31.4,34c3.5,3.8,3.6,7-0.3,10.3
		c-12.5,10.4-25.3,20.4-37.9,30.6c-1.4,1.1-2.8,2.3-3.8,3.2c10,13.7,19.8,27.2,29.6,40.8c3.3,4.6,2.2,8.7-2.7,11.9
		c-13.3,8.7-26.4,17.7-39.9,26.1c-4.1,2.6-4,4.6-1.8,8.2c7.6,12.5,14.6,25.3,22.4,37.6c5.3,8.4,3.2,13.7-7.2,16.4
		c-7,1.8-13.4,5.7-20,8.8c-7.6,3.5-15.2,7.2-23,10.9c4.6,8.7,9.2,16.9,13.4,25.3c3.6,7.1,6.7,14.4,10,21.7c2.2,4.9,0.6,7.8-4.1,9.6
		c-16.6,6.3-33.1,12.8-50.6,19.6c6.2,17.9,12.2,35.6,18.6,54c-2.1,3.2-5.6,5.1-10.6,6c-14.7,2.6-29.3,6-43.9,9.1
		c-2.4,0.5-3.1,1.8-2.4,4.4c4.3,16.2,8.4,32.5,12.6,48.7c1.2,4.6-2.2,9.2-7.8,9.8c-13.6,1.5-27.2,2.9-40.7,4.3
		c-3.1,0.3-6.2,1-9.8,1.6c1.2,10.1,2.3,19.8,3.6,29.4c1.1,7.6,2.5,15.1,3.8,22.6c0.7,4.2-5.1,9.3-11.2,9.6
		c-14.6,0.9-29.3,1.6-43.9,2.4c-1.6,0.1-3.3,0.3-5.4,0.4c0.3,4.5,0.8,8.8,0.9,13c0.5,13.3,1,26.6,1.3,39.9c0.1,5.2-4,5.7-7.7,5.6
		c-8.7-0.1-17.3-0.5-26-0.9c-8-0.4-16-0.8-24-1.4c-3.1-0.2-4,0.8-4.1,3.9c-0.8,16.6-1.9,33.1-2.8,49.7c-0.3,4.3-2.4,5.9-7.1,5.2
		c-9.9-1.5-19.7-3.2-29.6-4.8c-6.1-1-12.2-1.7-18.2-2.9c-3.5-0.7-4.5,0.7-4.8,3.7c-0.4,4.8-0.8,9.6-1.5,14.4
		c-1.7,10.9-3.4,21.8-5.3,32.7c-1.1,6.3-5.2,8.7-11.5,7c-15.4-4.1-30.9-8.1-46.2-12.3c-3.8-1-5.3-0.1-6.3,3.7
		c-4,15.1-8.3,30.1-12.6,45.1c-1.5,5.4-5.2,7.4-10.5,5.7c-14.8-4.8-29.7-9.6-44.4-14.7c-3.5-1.2-4.7-0.8-6.1,2.8
		c-5.2,14.2-10.8,28.2-16.4,42.2c-2.5,6.3-4.6,6.7-10.6,3.9c-5.7-2.7-11.8-4.5-17.5-7.1c-8.4-3.9-16.7-8-24.8-12.6
		c-4.2-2.4-6.6-2-8.6,2.2c-6,12.6-12.2,25.1-17.9,37.8c-4.3,9.4-8,10.7-17,5c-12.1-7.6-24.3-15-36.2-22.7c-3.4-2.2-5.1-1.5-7.1,1.7
		c-8.4,13.5-16.9,27-25.5,40.3c-2.7,4.2-6.3,4.6-10.3,1.4c-13.2-10.3-26.3-20.7-40.2-31.6c-3.4,4.5-7.4,8.7-10.3,13.7
		c-6.4,11-16.6,18.3-25.1,27.3c-2.3,2.4-5.6,1.8-8.4-0.9c-11.2-10.6-22.7-20.9-33.9-31.5c-2.9-2.7-4.2-2.2-6.6,0.4
		c-10.7,11.8-21.6,23.4-32.6,35c-5.2,5.5-8.6,5.2-13.4-0.8c-10.2-12.7-20.3-25.4-30.4-38.1c-0.5-0.6-0.8-1.5-0.9-1.7
		c-1.3,0.3-1.8,0.2-1.9,0.4c-9.3,11.1-21.4,18.7-33.3,26.5c-2.6,1.7-4.8,4.1-6.8,6.4c-3,3.5-6,4-8.8,0.2c-5.9-8-11.5-16.2-17.2-24.4
		c-4.7-6.8-9.4-13.6-14.5-21c-5,4.2-9.4,8.4-14.3,11.9c-7.4,5.3-15.2,10-22.8,15c-2.1,1.4-4.3,2.5-6.2,4.1
		c-5.2,4.5-11.1,3.4-14.2-2.7c-7-13.5-14.1-27-21.3-40.5c-0.8-1.4-1.8-2.7-3.1-4.6c-7.1,4-13.9,8-20.9,11.6
		c-8.2,4.3-16.5,8.4-24.9,12.5c-5.6,2.7-8.8,1.3-11.2-4.6c-6-14.9-11.8-30-20.7-43.5c-0.3-0.4-0.6-0.7-1.3-1.4
		c-9.6,4.3-19.2,8.7-29,12.8c-5.5,2.3-11.1,4.3-16.8,6.2c-5,1.7-9.4-0.4-11.1-5.4c-4.7-13.7-9.3-27.4-13.7-41.1
		c-2-6.2-2.4-6.8-8.7-5.2c-2.7,0.7-5.2,2.3-7.8,3.2c-11.6,3.9-23.2,8-34.9,11.5c-6.4,1.9-8.5,0.2-10.3-6.2
		c-4-14.6-8.1-29.1-12.2-43.7c-1.5-5.2-4.8-7-9.9-4.7c-13.8,6.3-28.6,6.5-43.3,7.7c-4.7,0.4-6.9-2.3-7.7-7.2
		c-2.3-14.8-4.8-29.6-7.1-44.4c-0.5-3.5-2.1-4.7-5.6-4.5c-15.1,0.9-30.3,1.6-45.4,2.5c-7.8,0.5-8.5,0.2-8.9-7.4
		c-0.8-14.5-1.5-29-2.3-43.4c-0.1-2.3-0.2-4.6-0.3-6.9c-1-0.3-1.7-0.6-2.2-0.5c-16.6,2.4-33.1-1.4-49.7-0.2c-6,0.4-7.8-1.5-7.5-7.6
		c0.8-15.3,1.7-30.6,2.8-45.9c0.3-4.5-1-5.7-5.5-6.3c-16.2-2.1-32.2-4.9-48.3-7.4c-4.5-0.7-5.3-3.9-4.7-7.8
		c2.3-14.3,4.6-28.6,6.8-42.9c0.4-2.6,0.6-5.2,1.1-8.8c-14.8-3.2-29.2-6.3-43.6-9.4c-1.6-0.4-3.3-0.7-4.9-1c-6-1.3-8.6-5.2-7-11
		c4-14.7,8.2-29.4,12.3-44.2c1.4-5.1,0.4-6.9-4.6-8.3c-14.9-4-29.8-8.1-44.7-12.2c-4.5-1.2-6.8-6.4-4.9-11.4
		c3.5-9,7.2-17.8,10.6-26.9c2.1-6.8,4.3-13.9,6.9-21.7c-7.3-2.8-14.3-5.4-21.1-8.3c-9.6-4.1-19.2-8.4-28.7-12.7
		c-3.6-1.6-4-4.5-1.7-9.3c6.6-13.4,13.2-26.8,20-40.1c2-4,1.1-5.8-2.7-7.7c-13.3-6.8-26.4-13.9-39.6-20.8c-6.2-3.2-7-5.9-3.4-11.8
		c7.1-11.6,14-23.3,21.1-35c1.7-2.8,3.8-5.3,6.1-8.6c-1.8-1.2-4.1-2.6-6.3-4.1c-12.1-8.4-24.2-16.8-36.1-25.4
		c-3.1-2.3-3.6-8.3-1-11.6c9.2-11.8,18.4-23.6,27.7-35.2c4.5-5.6,4.4-5.2-1.3-9.8C25.3,935,14.2,926,3.2,916.9
		c-4.5-3.7-4.1-9.8,0.4-14.3c10.9-10.9,21.7-21.9,32.7-32.7c2.7-2.6,2.9-4,0.1-6.7c-11.1-10.7-21.8-21.8-32.7-32.7
		c-4.8-4.8-4.9-7.9,0.3-12.4c11.4-9.9,22.9-19.7,34.3-29.5c1.2-1.1,2.4-2.2,3.7-3.4c-11-14.1-21.8-27.9-32.8-41.9
		c1.8-1.4,3.3-2.5,4.8-3.7c-0.6-1.5-1.3-3-2.2-5.2c13.4-9.9,26.9-19.9,39.8-29.4c-9.3-15-18.3-29.5-27.2-44.1
		c-2.1-3.4,0-8.3,5.3-11.4c9.7-5.8,19.6-11.2,29.4-16.7c3.6-2,7.1-4.3,10.9-6c3.6-1.7,4-3.9,2.4-7.2c-6.4-13.7-12.7-27.4-19.1-41
		c-2.9-6.3-2-8.1,4.4-10.6c9.4-3.8,18.6-8.1,27.9-11.9c6-2.5,12-4.6,18.6-7.1c-3.3-9.1-6.5-17.8-9.6-26.4c-2.9-8-5.8-15.9-8.6-23.9
		c-1.7-4.7-0.2-7.4,4.5-9c16-5.4,32-10.9,48-16.6c0.9-0.3,1.8-2.9,1.5-4.2c-3.9-15.3-7.9-30.5-12-45.8c-1.5-5.5,0.1-8.5,5.6-9.8
		c14.9-3.4,29.8-6.9,44.8-10c3.9-0.8,5-2.5,4.4-6.1c-2.3-14.8-4.3-29.6-6.8-44.4c-1.1-6.7,2.5-11.8,9.5-12.5
		c15.2-1.6,30.5-3.1,45.7-4.7c0.6-0.1,1.2-0.3,2.5-0.6c-0.7-6-1.9-11.8-2.1-17.8c-0.5-11.1-0.8-22.3-0.6-33.4c0-1.7,3.2-4.6,5-4.7
		c17.3-1.3,34.5-2.3,51.8-3c4-0.2,5.2-1.3,5.1-5.2c-0.2-15.3-0.1-30.7,0-46c0-7.1,1-8.3,8.2-7.7c15.9,1.5,31.8,3.1,47.6,5.1
		c4.6,0.6,6.2-0.4,6.6-5.1c1.2-14.9,2.9-29.8,4.2-44.7c0.6-7,3.9-9.8,10.8-8.4c16.3,3.3,32.6,6.5,48.9,9.7c0.8,0.2,1.6,0.2,2.8,0.3
		c1.1-7.3,1.8-14.6,3.3-21.7c2.1-10.1,4.6-20.1,7.2-30c1.3-5.1,5-7.5,10.1-6.1c11,3.1,21.9,6.7,32.8,10c5.5,1.7,11.1,3.4,17.3,5.3
		c2.5-6.6,5.2-13.5,7.8-20.5c3.6-9.7,7-19.4,10.6-29c2.2-5.8,3.5-6,9.4-4.9c14,2.6,25.5,10.9,38.1,16.7c3.1,1.5,6.2,3,9.7,4.8
		c2.4-6.2,4.4-12.1,7-17.8c4.8-10.5,9.9-20.9,15.1-31.2c0.8-1.7,3.1-2.6,3.6-3c4.9,1.9,8.5,3.5,12.3,4.8c12.1,4,22.8,10.6,32.8,18.4
		c1.4,1.1,3,2,5.1,3.4c3.1-5.9,5.9-11.7,9-17.2C659,45.9,665,35.8,671,25.6c2.4-4.1,6.4-2.9,9.2-1.4c6.9,3.8,13.6,8.2,20,12.8
		c7.5,5.4,14.8,11.2,22.5,17.1c6.1-8.3,11.8-16.2,17.6-24c4.7-6.2,9.7-12.2,14.4-18.5c2.9-3.9,6.1-3.6,9.5-1.4
		c13.1,8.5,26.5,16.6,36.7,28.8c2.5,3,4.5,3.6,7.4,0.1c9.9-11.8,20.1-23.3,30.1-35c4-4.7,6.5-5.1,11.1-0.9
		C861.8,14,874,25.1,885.8,36.4c2.9,2.8,4.3,2.1,6.8-0.3c10.2-9.5,20.5-18.9,30.9-28.2c3.8-3.5,6.8-3.4,10.2,0.5
		c7.9,9.2,15.4,18.6,23.2,27.9c3.3,3.9,6.9,7.6,10.3,11.3c15.2-11.3,30.1-22.3,45.3-33.5c15.1,14.5,24.4,32.4,35.3,49.9
		c6-4.3,12.1-9,18.6-13.2c7.2-4.7,14.8-8.8,22.2-13.3c6.7-4.1,11.4-2.9,15.3,4.2c6.7,12.2,13.3,24.5,20,36.7c3.6,6.6,3.5,6.2,10,2.9
		c14-7.1,28.1-14.1,42.4-20.8c4.8-2.3,6.9,2.5,8.3,5.6c5.3,11.3,10,22.8,14.8,34.2c0.8,1.8,1.3,3.8,2.1,5.6c2.6,6.7,2.6,6.6,9.3,4.5
		c14.1-4.5,28.2-8.9,42.3-13.3c5.4-1.7,9.8,0.6,11.3,5.9c4,14.7,7.9,29.5,11.6,44.3c0.9,3.5,2.2,4.6,5.9,3.7
		c15.3-4,30.6-7.7,45.9-11.6c5.7-1.4,9.7,0.2,11.6,5.9c1.4,4.2,2.7,8.8,2.4,13.1c-0.7,11.4,2.2,22.1,5.1,32.9
		c0.3,1.2,2.8,2.7,4.2,2.6c14.9-1.5,29.8-3.4,44.7-4.9c2.6-0.3,5.6,0.3,8.1,1.3c1.3,0.6,2.3,2.8,2.7,4.5c3.6,16.3,3.2,32.9,3,49.5
		c0,3.1,1.7,3.6,4.1,3.4c11.6-0.5,23.3-1,34.9-1.6c3-0.1,6-0.6,9-0.7c9.4-0.4,13.9,3.9,13.7,13.6c-0.4,15.6-1,31.2-1.5,47.3
		c0.9,0.1,2.4,0.3,3.8,0.4c14.3,0.6,28.6,1.2,42.9,1.8c0.3,0,0.7,0,1,0.1c15.8,1.8,13.1,3.8,11,14.8c-2.7,14.7-4.4,29.5-6.5,44.8
		c11,1.6,21.3,3.1,31.7,4.6c6.4,1,12.8,2.2,19.2,3.1c3.7,0.5,5.1,1.9,5.4,6c0.6,10.8-3,20.7-5.4,30.8c-1.5,6.5-2.9,13-4.8,19.3
		c-1,3.4,0.4,4.4,3.3,5.1c14.5,3.7,29,7.4,43.4,11.4c8.9,2.4,10.3,7.4,6.8,16.4c-5.5,14.2-10,28.8-15.2,43.9c7.7,2.1,15,3.7,22,6
		c9.6,3.1,19.1,6.6,28.6,10c4.9,1.8,5.4,5,3.1,9.7c-3.1,6.4-5.2,13.3-8.2,19.7c-4.3,9.3-9.1,18.4-14,28.1
		c6.6,3.4,13.5,6.9,20.4,10.4c5.3,2.7,10.7,5.3,16.1,7.9c1,0.5,2.2,1.3,3.2,1.3c6.9-0.2,9.9,4.4,12.3,9.7
		c-9.5,16.5-19,32.9-28.9,49.8c6.9,4,14.3,8.2,21.7,12.6c8.2,4.9,16.4,9.9,24.6,15c3.9,2.5,4.1,7,1,11.8c-9,14-18.5,27.5-29.9,39.7
		c-0.4,0.5-0.7,1.1-1.4,2.1c12.2,8.4,24.4,16.6,36.4,25.1c3.8,2.7,7.6,5.6,10.6,9.1c0.9,1.1,0,5-1.3,6.5
		c-11.8,13.1-23.8,25.9-35.7,38.8c-0.4,0.5-0.8,1-1.5,1.9c6.9,5.9,13.6,11.7,20.4,17.5c6.1,5.3,12.3,10.7,18.3,16.1
		c5.1,4.6,4.9,12.6-0.1,17.2c-11,10.1-21.9,20.3-33,30.3C1688.6,907.4,1688.3,908.6,1690.9,911.4z"/>
</g>
</svg>
