<?xml version="1.0" encoding="utf-8"?>
<!-- Generator: Adobe Illustrator 19.2.1, SVG Export Plug-In . SVG Version: 6.00 Build 0)  -->
<svg version="1.1" id="Layer_1" xmlns="http://www.w3.org/2000/svg" xmlns:xlink="http://www.w3.org/1999/xlink" x="0px" y="0px"
	 viewBox="0 0 1729.3 1732.5" style="enable-background:new 0 0 1729.3 1732.5;" xml:space="preserve">
<style type="text/css">
	.st0{opacity:0.8;}
	.st1{fill:#FFFFFF;}
</style>
<g class="st0">
	<path class="st1" d="M467.4,1488.2c0,3.4,0,6.9,0,10.9c4.9-1.2,9-2.2,13.1-3.1C478.4,1483.9,478.3,1483.9,467.4,1488.2z"/>
	<path class="st1" d="M474.9,1465.5c-0.9-6.2-6.8-1.5-10.5-3.1c0,5,0,9,0,13.4C476.4,1474.5,476.2,1473.9,474.9,1465.5z"/>
	<path class="st1" d="M466.7,316.9c3.6-11.1,2.5-12.8-8.2-12.2C455.1,315.8,456.2,317.4,466.7,316.9z"/>
	<path class="st1" d="M462.5,1392.9c-1.2-1.5-8.1-1-8.5,0.2c-1.5,3.8-1.2,8.3-1.7,13.5c4.8-1.5,8.2-2.5,12.4-3.6
		C464,1399.3,464.4,1395.1,462.5,1392.9z"/>
	<path class="st1" d="M463.8,339.2c0.7-11.1,2.4-10.1-10.5-12.4C451.1,337.3,453.9,340.4,463.8,339.2z"/>
	<path class="st1" d="M472.6,1445.3c0.1-1.7-1-4.8-1.9-4.9c-3.9-0.6-7.8-0.3-12.3-0.3c1.2,5.3,2.2,9.5,3.3,14c3.3-1,6.4-1.2,8.6-2.7
		C471.8,1450.3,472.5,1447.4,472.6,1445.3z"/>
	<path class="st1" d="M494.9,214.7c2.6,2,6.9,1.7,11.1,2.5c0-5.6,0-9.9,0-15.5c-4.7,1.6-9.2,2.3-12.6,4.6
		C492.3,207,493.1,213.4,494.9,214.7z"/>
	<path class="st1" d="M466.5,1415.5c-10.1-0.2-11.4,1.5-9.1,10.8c0.4,1.5,0.9,3.1,1.3,4.6C470.9,1429.4,470.9,1429.4,466.5,1415.5z"
		/>
	<path class="st1" d="M482.6,1505.7c-3.3,0.6-6.2,3.8-9.3,5.9c2.6,2.9,5.3,5.9,7.9,8.8c2.6-2.2,5.2-4.6,8.4-7.5
		C486.8,1509.9,484.3,1505.5,482.6,1505.7z"/>
	<path class="st1" d="M824.4,154c2.5-2.3,5.1-4.7,8.2-7.6c-4.1-3.1-7.4-5.6-10.7-8.1C813.8,146.7,815.3,146.5,824.4,154z"/>
	<path class="st1" d="M781.7,197.5c-5.6-4-7.7-3.2-13.1,5.4c3.2,2.5,6.6,5,9.9,7.5C784.3,203.1,785,199.9,781.7,197.5z"/>
	<path class="st1" d="M493.6,1526.3c3.3,2.3,7.9,2.9,12.5,4.3c0-5.6,0-9.7,0-15.2c-4.2,0.7-8.5,0.2-11.1,2.1
		C493.2,1518.9,492.4,1525.5,493.6,1526.3z"/>
	<path class="st1" d="M837.2,138.1c10.2-8.8,10.2-8.9,1.2-14.9c-1.1-0.7-4.3-0.5-4.4-0.1c-0.8,2.7-5.7,4.2-2.5,8
		C833.3,133.4,835.2,135.7,837.2,138.1z"/>
	<path class="st1" d="M523.8,1513.8c-2.8,0.5-5.6,1.4-8.6,2c5.2,13.2,5,12.1,11.6,7.9c1.4-0.9,3.6-3.2,3.4-3.6
		C528.5,1517.6,528.3,1513.2,523.8,1513.8z"/>
	<path class="st1" d="M544.2,1505.4c-6.7,1.8-6.8,1.6-4.4,12.2c6.5-0.9,11.6-4,10.7-6.6C549.5,1508.2,549.5,1504.1,544.2,1505.4z"/>
	<path class="st1" d="M550.3,218.8c-3.3-1.5-6.6-3.1-10.1-4.8c-1.3,2.3-2.3,3.8-3,5.4c-0.8,1.7-1.4,3.5-2,5.3
		C546.1,228.7,548.3,227.8,550.3,218.8z"/>
	<path class="st1" d="M649.5,171.7c2.2-4.3,3.8-7.5,5.9-11.8c-4.3-1.6-8.2-4.5-11.3-3.8c-2.2,0.5-5.4,6.9-4.4,8.9
		C641.2,168,645.9,169.4,649.5,171.7z"/>
	<path class="st1" d="M395.4,320.7c-3.9,0-7.8,0-12.2,0c0,4.1,0,7.7,0,11.2C394.6,334.8,396.7,332.8,395.4,320.7z"/>
	<path class="st1" d="M360.6,1402.4c-1.6,2.8-0.2,7.2,0,11c4.4-0.4,8.8-0.7,13.7-1.1c-1.3-4.6-2.3-8.1-3.6-12.7
		C366.8,1400.5,361.8,1400.3,360.6,1402.4z"/>
	<path class="st1" d="M383.1,1400.9c0,3.5,0,7.1,0,11.1c3.4,0,6.3,0,9.2,0c1.1,0,2.2-0.2,3.6-0.4c-0.1-1.4-0.2-2.5-0.3-3.6
		C394.1,1396.4,394.5,1397.1,383.1,1400.9z"/>
	<path class="st1" d="M371,331.5c0-3.7,0-7.2,0-10.9c-3.5-0.8-6.8-1.5-10-2.3C357.1,330.1,359.4,333.2,371,331.5z"/>
	<path class="st1" d="M323.7,1313.5c0,4.1,0,7.7,0,11.1c11.8,3,11.8,3,10.9-8.1C331.1,1315.5,327.6,1314.6,323.7,1313.5z"/>
	<path class="st1" d="M335.5,1408.4c3.4,1.6,6.7,3.2,10.6,5.2c0.9-4.5,1.6-8.5,2.3-12.4C339.2,1397.9,338.5,1398.2,335.5,1408.4z"/>
	<path class="st1" d="M418.4,323.7c-3.6,0-7.1,0-10.7,0c-0.8,3.6-1.5,6.8-2.3,10.4C416.6,335.7,416.6,336.4,418.4,323.7z"/>
	<path class="st1" d="M461.1,292.9c3.8-0.6,8.3,4.6,11.2,0c2.8-4.2-0.1-8.9-5.2-10.3c-1.7-0.4-3.4-0.8-5.5-1.3
		c-0.8,2.9-1.9,5.5-2.2,8.2C459.2,290.6,460.7,293,461.1,292.9z"/>
	<path class="st1" d="M413,1397.6c-7.8-0.7-7.9-0.5-6,7.3c0.3,1.2,0.6,2.5,0.9,3.8c1.4,0.1,2.6,0.3,3.7,0.3c2.1,0.2,4.3,0.1,7.6,0.1
		c-0.9-3.4-1.4-6.2-2.5-8.7C416.1,1399.1,414.3,1397.7,413,1397.6z"/>
	<path class="st1" d="M474.6,271.8c2.3-9.9,1.4-11-9.8-12.3C462.6,269.6,464.9,272.4,474.6,271.8z"/>
	<path class="st1" d="M480.8,226.9c3.1-1.2,5.4-4.9,8.2-7.8c-3.9-2.8-6.9-5.1-10.9-8.1c-1.8,4.1-4.3,7.6-4.3,11.1
		C473.8,223.9,479.2,227.5,480.8,226.9z"/>
	<path class="st1" d="M476.9,249.6c0.9-0.3,1.8-1.5,2-2.5c0.7-3.4,1.1-6.8,1.7-10.6c-4.5,0-8.8,0-13.5,0c0,2,0,3.8,0,5.6
		C467.1,246.7,472.5,251,476.9,249.6z"/>
	<path class="st1" d="M519.5,218.2c3.4,0.8,7.2-1.9,8.1-5.8c0.5-2.3-4.5-5.3-10.1-6C514.3,216.5,514.4,216.9,519.5,218.2z"/>
	<path class="st1" d="M441.7,329.2c-0.1-0.8-0.3-1.4-0.4-2.7c-1.9-0.1-3.5-0.2-5.1-0.2c-5.5,0-8.4,3.2-7.8,8.8
		c0.1,0.9,1,2.1,1.8,2.4C438.3,340.2,442,337.4,441.7,329.2z"/>
	<path class="st1" d="M432,1395.6c-1.7,2.7-1.5,6.6-2.1,10.4c4.4,0,7.7,0,12.5,0c-0.9-4-0.8-7.9-2.7-10.5
		C438.8,1394.2,432.8,1394.3,432,1395.6z"/>
	<path class="st1" d="M792.9,175c-2.6,2.6-5.2,5.1-7.3,7.2c2.7,3.3,5,6,7.2,8.8C802.9,182.2,803.2,183.4,792.9,175z"/>
	<path class="st1" d="M792.8,1541.7c-2.5,1.5-4.9,3.1-8.1,5.2c3.1,3.9,5.7,7.3,8.4,10.8C802.9,1549.7,802.9,1549.1,792.8,1541.7z"/>
	<path class="st1" d="M742.9,167.9c-3.8-2.3-6.1-0.9-11,6.9c3.4,2.5,6.7,5,10.4,7.8C748.5,171.4,748.5,171.4,742.9,167.9z"/>
	<path class="st1" d="M752.3,187.5c1,2.6,4.2,4.5,6.8,7c3.1-3.3,5.5-5.9,8.6-9.3c-4.1-1.5-7.8-3.4-11.6-3.8
		C754.9,181.3,751.8,186.1,752.3,187.5z"/>
	<path class="st1" d="M768.4,1529.7c3,3.4,5.4,6,7.7,8.5c9.7-5.8,9.8-7,2.4-16.2C775.1,1524.6,771.8,1527.1,768.4,1529.7z"/>
	<path class="st1" d="M749.4,1544.5c7.5,9,5.9,9.3,17.8,2.2C759.3,1537.5,756.9,1537.2,749.4,1544.5z"/>
	<path class="st1" d="M730.4,1559.1c-0.2,0.3-0.8,0.5-0.7,0.6c1,2.6,1.9,5.3,3.3,7.6c0.3,0.5,3,0.3,4.1-0.4c2.6-1.5,5-3.6,7.4-5.5
		C739.4,1552.2,736.4,1551.8,730.4,1559.1z"/>
	<path class="st1" d="M706.4,1575.3c1.5,3.3,3.1,6.7,4.9,10.3c10.5-5.7,11.8-7.2,9.7-10.7C717.1,1568.6,716.5,1568.6,706.4,1575.3z"
		/>
	<path class="st1" d="M712.4,160.9c3.2,2.4,6.6,4.8,10.6,7.7c2.1-4.5,3.7-7.8,5.3-11C719.5,151.2,718,151.5,712.4,160.9z"/>
	<path class="st1" d="M816,1584.1c1.7,3.2,3.4,6.5,5.4,10.4c3.9-3,7.2-5.5,10.5-8C825.1,1577,822.9,1576.7,816,1584.1z"/>
	<path class="st1" d="M848.2,1617.6c-1.3,2.7-0.6,3.9,2.1,4.7c2.5,0.7,5,1.5,7.9,2.5c1.5-3,3.1-6.2,4.7-9.3
		C855,1610.3,851.5,1610.8,848.2,1617.6z"/>
	<path class="st1" d="M839.3,1595.9c-0.2-0.2-0.5-0.4-0.8-0.5c-0.5-0.4-1.1-0.7-1.6-1.1c-1.9,2.4-4.9,4.7-5.5,7.4
		c-0.5,2.4,1.4,5.5,2.8,8c0.3,0.5,3.1,0.4,4.1-0.4C847.7,1601.8,847.7,1604.6,839.3,1595.9z"/>
	<path class="st1" d="M855.8,107.6c-1.5-0.8-7.6,2.6-7.7,4.3c-0.3,3.6,2.1,7.3,3.5,11.2c4.2-2.3,7.7-4,12.2-6.3
		C861,113.4,859,109.4,855.8,107.6z"/>
	<path class="st1" d="M800.3,166.5c10.4,5.5,9.1,6.8,14.9-3.3C807.5,156.8,802.4,158,800.3,166.5z"/>
	<path class="st1" d="M709.4,148.3c0.6-0.7,0.4-3-0.3-3.6c-2.7-2.3-5.7-4.3-8.5-6.3c-7,7.6-6.9,8.4,2.7,15.8
		C705.5,152.2,707.7,150.4,709.4,148.3z"/>
	<path class="st1" d="M810.1,1558.9c-11.1,5.1-12.1,8-5,13.9c0.3,0.2,0.6,0.7,0.7,0.7c2.4-0.8,5-1.4,7.2-2.5
		c0.9-0.5,1.9-2.6,1.6-3.4C813.5,1564.5,811.7,1561.7,810.1,1558.9z"/>
	<path class="st1" d="M324.4,1336.8c-1.1-0.1-2.2-0.2-3.7-0.3c0,4.4,0,8.4,0,12.9c3.8,0,7.4,0,10.9,0
		C335.4,1337.8,335.9,1338.3,324.4,1336.8z"/>
	<path class="st1" d="M643.8,1575.3c1.7,3.8,3.4,7.4,5.3,11.4c4-3,7.1-5.4,10.2-7.7c-2.4-3.2-4.4-6-6.9-9.4
		C649.5,1571.5,646.9,1573.2,643.8,1575.3z"/>
	<path class="st1" d="M579.7,1491c1.8,3.5,3.5,6.9,5.4,10.8c4-2.1,7.4-3.9,10.8-5.7C590.5,1487.4,590.5,1487.4,579.7,1491z"/>
	<path class="st1" d="M557.3,1500.1c1.7,3.2,3.4,6.4,5.3,10.1c4-2,7.2-3.7,10.3-5.3C569.4,1495.6,565.6,1494.5,557.3,1500.1z"/>
	<path class="st1" d="M686.2,1587c1.1,4.4,2.1,8.6,3.3,13.3c4.7-2.1,8.6-3.9,13.2-6.1c-2.6-3.5-5.2-6.9-7.3-9.8
		C692,1585.4,689.3,1586.2,686.2,1587z"/>
	<path class="st1" d="M608.1,251.7c2.5,0.7,4.9,2.2,6.2-1.9c1.2-3.7,1.1-6.3-3.2-7.6c-1.9-0.6-3.7-1.7-5.6-2.6
		C600.8,247.9,601.2,249.9,608.1,251.7z"/>
	<path class="st1" d="M569,233.9c2.6-5.8,1.5-7.6-6.7-11c-1.6,3.1-3.3,6.3-5.1,9.8C565.2,236.6,567.8,236.8,569,233.9z"/>
	<path class="st1" d="M624.1,208.9c5.1,3.5,8,1.4,10.8-6.7c-3.2-1.6-6.3-3.2-11-5.6C624.6,201.5,619.3,205.6,624.1,208.9z"/>
	<path class="st1" d="M621.6,233.4c1.8-3.8,3.5-7.4,5.2-11.1c-11.6-3.3-12.7-2.9-15.6,5.6c0.6,0.4,1.2,0.9,1.9,1.3
		C615.8,230.5,618.4,231.8,621.6,233.4z"/>
	<path class="st1" d="M592.7,236.5c-0.2-0.2-0.4-0.5-0.7-0.7c-9.2-6.2-10.7-5.5-12.1,5.8C588.5,245.2,588.6,245.2,592.7,236.5z"/>
	<path class="st1" d="M613.9,1478.9c-1.9-3.2-4.2-0.7-5.8,0.3c-2.1,1.3-6.2,0.9-5.6,5c0.4,2.9,1.4,5.7,2.4,9.1
		c3.3-1.6,5.7-2.6,8-3.9C615.7,1487.9,616.3,1483,613.9,1478.9z"/>
	<path class="st1" d="M664.2,138.1c-3.6-3.5-5.8-3.5-9.1,0c-3,3.2-2.8,6,0.9,8.7c1.4,1,2.4,2.6,3.9,4.3c1.6-1.4,2.5-2.4,3.5-3.2
		C669.4,143.3,669.5,143.3,664.2,138.1z"/>
	<path class="st1" d="M668.9,1589.2c-2.2-0.1-7.6,6-7.7,8.7c-0.1,2.9,3.9,4.9,8.9,5.3c5.7,0.4,4.8-3.2,4.8-6.5
		C674.9,1591.4,673.2,1589.3,668.9,1589.2z"/>
	<path class="st1" d="M626,1510.6c-1.2-3.9-3-7.5-4.6-11.4c-8.9,5.7-9.5,7.7-4.7,16.3c2.6-0.5,4.9-0.7,7-1.6
		C624.8,1513.4,626.3,1511.4,626,1510.6z"/>
	<path class="st1" d="M680.7,130c-0.9-0.3-3,0.8-3.2,1.6c-1,3.6-1.4,7.4-2.2,11.5c3.8,0,7.1,0,10.8,0c0.9-3.3,1.8-6.5,2.7-9.7
		C685.8,132.1,683.3,130.8,680.7,130z"/>
	<path class="st1" d="M641.1,179.3c-5.7-2.9-5.9-2.4-10.6,9c3.7,1,7,2,11.6,3.3C640.2,186.7,647.8,182.6,641.1,179.3z"/>
	<path class="st1" d="M1020.4,162.6c-2.6-3.5-5.1-6.9-7.9-10.8c-3.1,3.1-5.6,5.7-8.3,8.4C1010.2,169.7,1010.3,169.7,1020.4,162.6z"
		/>
	<path class="st1" d="M643.7,1547.5c-11.5,3.9-12.5,7.1-4.7,15.4C647.6,1558.8,647.8,1558.3,643.7,1547.5z"/>
	<path class="st1" d="M632.8,1521.8c-3.8,1.8-7,3.3-10.5,5c3,11.8,7.2,13.8,15.8,7.7C636.4,1530.5,634.7,1526.4,632.8,1521.8z"/>
	<path class="st1" d="M148.7,918.6c7.4-10.5,6.9-10.8-2.3-14.8C139.7,910.1,140,912.3,148.7,918.6z"/>
	<path class="st1" d="M180.1,931.5c-6.3,8-7.7,7.1,2.8,15.4c0.3-0.2,0.6-0.3,0.8-0.5c1.4-2.1,2.9-4.3,4.7-7c-1.5-1.6-2.7-3-4-4.2
		C183,933.9,181.5,932.7,180.1,931.5z"/>
	<path class="st1" d="M318.8,1386.5c2.1,4.1,3.7,7.3,5.3,10.5c11.1-3.6,11.4-4.2,7-13C327.1,1384.8,323.1,1385.6,318.8,1386.5z"/>
	<path class="st1" d="M166.2,932.6c6.3-10.9,6.3-10.9-3-15C156.5,925.1,156.9,927.6,166.2,932.6z"/>
	<path class="st1" d="M167.5,804.4c-0.8-0.9-3.4-1.4-4.2-0.8c-2,1.4-6.2,1.8-4.7,5.7c1.1,3,3,5.7,4.6,8.8c1.6-1.5,2.8-2.6,4-3.7
		C171.7,809.8,171.8,809.3,167.5,804.4z"/>
	<path class="st1" d="M170.2,652.6c-0.3-10.5-5.5-13.3-14.8-7.8C159.4,655.7,159.4,655.7,170.2,652.6z"/>
	<path class="st1" d="M190.9,641.3c-5-12.5-6.4-12.9-16.2-5c1.7,3.3,3.4,6.6,5.4,10.4C184,644.8,187.5,643,190.9,641.3z"/>
	<path class="st1" d="M168.9,744.1c5.3,7.8,8.6-1.6,13.1-0.9c0.1-0.4,0.3-0.9,0.4-1.3c-2.6-3.4-5.3-6.9-8-10.3
		C165.5,739.4,165.6,739.4,168.9,744.1z"/>
	<path class="st1" d="M148.7,816.4c-9.1,4.3-9.4,6.4-2.1,15C155.4,825,155.7,822.7,148.7,816.4z"/>
	<path class="st1" d="M116.8,868.7c-3.4,2.7-7.4,4.7-9.2,8c-0.8,1.5,2.5,7.6,4.3,7.7c3.6,0.3,7.3-2.1,11.2-3.4
		C120.9,876.7,119.1,873.2,116.8,868.7z"/>
	<path class="st1" d="M138.2,895.3c-8.8-10.2-8.9-10.2-14.9-1.2c-0.7,1.1-0.5,4.3-0.1,4.4c2.7,0.8,4.2,5.7,8,2.5
		C133.4,899.2,135.7,897.3,138.2,895.3z"/>
	<path class="st1" d="M120.1,852.3c0-1.7-5.8-5.3-6.6-4.7c-3.5,2.5-6.2,6.2-9.5,9.9c4.2,2.3,7.5,4,12.5,6.5
		C118,859.7,120.2,856,120.1,852.3z"/>
	<path class="st1" d="M136.1,839.6c0.4-0.3,0.7-0.7,2.5-2.5c-2.7-2.1-4.9-4.9-7.7-5.7c-2.2-0.6-5.2,1.2-7.6,2.4
		c-0.7,0.4-1.1,2.7-0.7,3.6C127.1,846.5,129.2,846.8,136.1,839.6z"/>
	<path class="st1" d="M151,660.8c-6.9-9.5-8.2-9.5-15.3,0.2C143.2,670.6,144.8,670.6,151,660.8z"/>
	<path class="st1" d="M139.6,687.6c2.2-0.5,4.4-1.1,6.8-1.7c-1.4-3.6-2.6-6.7-3.8-9.9c-10,0-12.8,3.7-9.2,12.8
		C135.4,688.4,137.5,688.1,139.6,687.6z"/>
	<path class="st1" d="M138.7,700.9c8.3,12.3,6.7,12.2,15.1,2.7c0.1-0.2,0-0.4,0-0.5C145.8,692.8,146.2,693.7,138.7,700.9z"/>
	<path class="st1" d="M217,505.9c-0.6-3.9,0-8.3-1.9-10.9c-1.4-1.9-8-2.7-8.8-1.6c-2.4,3.3-3,7.9-4.5,12.8c4.5,0,7.4,0,10.4,0
		C213.4,506.2,214.7,506,217,505.9z"/>
	<path class="st1" d="M222.3,626c2.2-0.7,4.5-1.4,6.7-2.3c1.3-0.6,2.5-1.4,4.3-2.2c-1.5-2.4-2.3-4.7-3.9-5.8c-1.6-1.1-4.1-1.3-6.1-1
		c-1.2,0.1-3.3,1.9-3.2,2.8C220.4,620.4,221.5,623.1,222.3,626z"/>
	<path class="st1" d="M236.1,1136.8c-1.7,3.5-3.4,6.9-5.3,10.7c3.9,1.9,7.3,3.6,10.7,5.3C245.4,1141.4,245.4,1141.4,236.1,1136.8z"
		/>
	<path class="st1" d="M224,549.9c3.9-1.4,3.3-3.6,2.7-6.6c-0.9-4.6-2.8-6.9-7.7-4.4c-1.1,0.5-2.6,0.5-4.9,1c1.3,2.8,2.5,4.9,3.2,7.2
		C218.5,550.8,220.4,551.2,224,549.9z"/>
	<path class="st1" d="M219.7,1118c8.6,3.9,7.1,6.5,12.1-3.6c0.4-0.9,0.8-1.8,1.4-3c-9.5-7.1-12.1-6.7-15,2.6
		C217.8,1115.1,218.8,1117.6,219.7,1118z"/>
	<path class="st1" d="M205.5,1214.7c10.7,3.6,11.3,3.5,12.6-1.1c1.1-3.7-1.5-8.5-5.6-8.4C207.1,1205.4,208.3,1211.3,205.5,1214.7z"
		/>
	<path class="st1" d="M244.3,466.6c-3.4,1.3-8.2,1.6-9.8,4.1c-1.3,2,1.2,6.5,2,9.8C247.8,478.2,247.8,478.2,244.3,466.6z"/>
	<path class="st1" d="M218.4,522.3c-0.5-2.3-1.1-4.5-1.8-7.5c-2.9,1.4-5.1,2.6-7.3,3.5c-3.3,1.3-3.9,3.2-1.9,6.1
		c0.9,1.4,1.3,3,2.2,4.4c0.6,0.8,1.7,1.7,2.5,1.7C215.3,530.4,218.9,525.6,218.4,522.3z"/>
	<path class="st1" d="M199.4,786.7c10.1-7.5,9.9-7.9,2.5-15.6c-2.6,1.7-5.2,3.5-7.8,5.3C196,780.1,197.6,783.2,199.4,786.7z"/>
	<path class="st1" d="M182.2,784.6c-2.4,3.3-5.9,6.1-6.3,9.3c-0.2,2,4.6,6.5,6.6,6.2c3.1-0.5,5.8-4.1,9.1-6.8
		C188.3,790.2,185.7,787.8,182.2,784.6z"/>
	<path class="st1" d="M241.7,579.6c-3.7,1.8-7.1,3.6-11,5.5c2.1,4,3.8,7.4,5.6,10.8C245.8,589.9,245.3,592.3,241.7,579.6z"/>
	<path class="st1" d="M186.1,753.4c-6.9,4.7-6.6,6.6-0.8,13.2c3.1-2.5,6.1-4.8,9-7c-0.1-0.4-0.2-0.9-0.3-1.3
		C190.3,758.1,191.9,749.5,186.1,753.4z"/>
	<path class="st1" d="M207.6,634.9c1.2-1.1,2.8-2.7,2.7-4.1c-0.3-9-1.9-9.8-9.8-5.5c-1.1,0.6-2.1,1.3-3.5,2.1
		c1.9,3.7,3.6,7,5.5,10.8C204.6,636.9,206.3,636.2,207.6,634.9z"/>
	<path class="st1" d="M141.5,1056.7c1.3-0.2,1.7-6.1,2.6-9.4c-0.4-0.7-0.7-1.4-1.1-2.1c-3.7,0-7.9-1.1-10.8,0.4
		c-1.8,0.9-2.8,8-1.9,8.5C133.5,1056,137.8,1057.2,141.5,1056.7z"/>
	<path class="st1" d="M225.3,568.6c0.7,1.5,1.7,2.8,2.5,4.2c9-3.2,9.8-5.6,4.9-15.7c-3.6,1.9-6.8,3.7-10.1,5.5
		C223.7,565,224.4,566.9,225.3,568.6z"/>
	<path class="st1" d="M220,488c1.9,0.6,5.2-2.7,9-4.8c-3.6-4.1-5.7-8.1-9-9.8c-2.6-1.3-9.7,5.4-8.5,7.1
		C213.8,483.5,216.6,486.8,220,488z"/>
	<path class="st1" d="M162.5,712.2c-3.4,2.5-6.8,5-10.5,7.7c3,3,5.6,5.6,8.2,8.2C169.6,722.8,169.9,721.3,162.5,712.2z"/>
	<path class="st1" d="M341.3,456.7c-0.3-3.2-2.1-4-5-4.1c-10.9-0.3-11.2,0.1-7.2,10.4c0.1,0.2,0.3,0.5,0.5,0.8c4.5,0,8.6,0,13.1,0
		C342.1,461.1,341.5,458.9,341.3,456.7z"/>
	<path class="st1" d="M332.6,382.9c-3.7-0.3-7.4-0.1-11.9-0.1c1.1,5,1.9,9,2.9,13.5c3.4-0.8,6.2-1.2,8.8-2.1
		c4.3-1.5,2.1-5.4,2.4-8.2C334.9,385,333.5,383,332.6,382.9z"/>
	<path class="st1" d="M334.8,412.9c0.7-7.8,0.5-7.9-7.3-5.9c-1.2,0.3-2.5,0.6-3.9,0.9c0,3.7,0,7.1,0,11.2c3.1-0.9,5.9-1.3,8.4-2.5
		C333.3,416,334.7,414.2,334.8,412.9z"/>
	<path class="st1" d="M333.9,343.1c0.4-0.9-0.4-3-1.2-3.6c-2.7-1.7-5.7-3-8.4-4.3c-1.9,3.7-3.4,6.9-5.4,10.9c4.2,0.8,7.7,2,11.2,1.9
		C331.5,347.9,333,345,333.9,343.1z"/>
	<path class="st1" d="M326.5,1290.8c0,4.3,0,7.7,0,11.5c3.5,0.8,6.8,1.5,11.4,2.6c-0.5-5.1,0.1-9.7-1.7-13.1
		C335.4,1290.2,330,1291.1,326.5,1290.8z"/>
	<path class="st1" d="M336.8,428.7c-9.8-1-11.4,0.9-10.2,12.3C337.7,443,339.9,440.2,336.8,428.7z"/>
	<path class="st1" d="M329.4,1265.6c-1.1,3.9-2.1,7.4-3.1,10.8c12.1,3.6,11.3,6.1,13.4-7.9C336.5,1267.6,333.3,1266.7,329.4,1265.6z
		"/>
	<path class="st1" d="M320.7,370.8c3.7,0.1,7.3,0.1,11.4,0.1c0-2.1-0.2-3.9,0-5.7c0.6-4.2-1.3-5.5-5.4-5.5c-9.1,0.2-9.5-0.4-6.6,8.6
		C320.3,369.1,320.5,369.9,320.7,370.8z"/>
	<path class="st1" d="M342.6,334c2.1-0.9,5.3-2.4,5.4-3.9c0.2-3.5-1.1-7.1-1.8-11.3c-4.1,2-7.4,3.7-11,5.4c1.3,2.7,2.5,5.5,4,8
		C339.8,333.2,341.8,334.3,342.6,334z"/>
	<path class="st1" d="M304.2,1274c4.4,0.9,8.5,1.8,12.9,2.7c0.2-1.7,0.4-2.8,0.4-4c0.1-2.3,0-4.6,0-6.7
		C306.3,1262.3,306.3,1262.3,304.2,1274z"/>
	<path class="st1" d="M332.1,1361.4c-4.4,0-7.8,0-11.6,0c-0.7,3.5-1.4,6.8-2.5,11.5c5.1-0.5,9.7,0.1,13.1-1.7
		C332.7,1370.4,331.9,1365,332.1,1361.4z"/>
	<path class="st1" d="M281.4,1270.9c3.1,0.9,5.9,1.9,8.8,2.5c0.8,0.2,2.6-0.5,2.7-1.1c0.9-3.1,1.4-6.3,2.1-9.4
		C284,1260,284,1260,281.4,1270.9z"/>
	<path class="st1" d="M263.3,1258.1c-2.5,1.7-3.3,6-5.4,10.4c4.9,0.7,9,2.5,11.9,1.3c1.7-0.7,3-6.6,1.9-8.9
		C270.7,1258.9,264.9,1257,263.3,1258.1z"/>
	<path class="st1" d="M292.5,472.4c0.9-0.2,2.2-1.6,2.2-2.5c0.8-10.1-2.2-12.3-11.6-8.9c-0.5,0.2-0.9,0.4-1.8,0.8
		c0.5,1.8,0.9,3.2,1.3,4.6C284.2,472.4,286.6,473.9,292.5,472.4z"/>
	<path class="st1" d="M269.1,464.4c-4,0-8.1,0-13,0c1,4.9,1.8,9.1,2.7,13.3C270.6,475.9,271.5,474.6,269.1,464.4z"/>
	<path class="st1" d="M317.2,466.7c-0.4-11.2-2.8-12.6-12.9-7.5C306.3,469.9,306.3,469.9,317.2,466.7z"/>
	<path class="st1" d="M233.9,1163.5c-5.8-2.6-7.6-1.5-10.9,6.7c0.3,0.2,0.7,0.5,1.1,0.7c2.8,1.4,5.6,2.8,8.6,4.4
		C236.6,1167.4,236.8,1164.8,233.9,1163.5z"/>
	<path class="st1" d="M171.3,985.5c-9.4,9.7-9.4,9.7,2.8,15.5C181.1,992.8,180.5,989.9,171.3,985.5z"/>
	<path class="st1" d="M179.3,1091.4c-2.9,5.5-1.2,7.2,9,10.2c1-3,1.9-6.1,3.4-10.9C186.9,1092.5,182.8,1084.6,179.3,1091.4z"/>
	<path class="st1" d="M184.8,979.2c7,4.3,5.7-4.1,9.8-5.7c-3.3-3.1-6-5.6-8.7-8.2C179.4,974.8,179.3,975.7,184.8,979.2z"/>
	<path class="st1" d="M140,1029.3c-0.5,0.8-1,1.7-1.5,2.4c6.8,7.3,8.7,7,15.5-2.4C146.8,1019.8,146.5,1019.8,140,1029.3z"/>
	<path class="st1" d="M202.8,964.1c1.8-3.6,3.4-6.9,5.2-10.7c-3.6-1.4-5.6-7-9.8-3.2C192.9,955.1,193.9,957.7,202.8,964.1z"/>
	<path class="st1" d="M168.5,1009.6c-4.1-2.1-7.4-3.7-10.6-5.4c-6.9,8.1-6.5,10.4,3,15.9C163.3,1016.8,165.7,1013.5,168.5,1009.6z"
		/>
	<path class="st1" d="M156.2,1088.4c0.4,2.1,7,5.3,8.9,4.3c3-1.5,4.4-6.2,6.6-9.9c-4.3-2-7.5-3.6-11.8-5.7
		C158.4,1081.2,155.6,1085.1,156.2,1088.4z"/>
	<path class="st1" d="M142.5,1067.2c-2.5,0.3-5.4,3.4-6.7,6c-0.5,0.9,2.8,5.1,5,5.8c5.4,1.6,6.6-4.1,11.3-7.5
		C148.2,1069.6,145.2,1066.9,142.5,1067.2z"/>
	<path class="st1" d="M247.7,602.4c-2.7,0.6-5.3,1.5-8.4,2.5c1.5,3.2,2.6,5.6,3.8,7.9c1.5,2.8,6.3,3.4,10.4,1
		c3.3-1.9,0.8-4.2-0.3-5.8C251.8,605.8,252.2,601.4,247.7,602.4z"/>
	<path class="st1" d="M209.1,1108.4c2.5-5.6,1.7-7-6.7-11c-1.7,3.2-3.4,6.5-5.2,10.1C204.5,1111,207.9,1111.2,209.1,1108.4z"/>
	<path class="st1" d="M249.8,1118.2c-3.8-1.2-6.3-1.1-7.6,3.2c-0.6,1.9-1.7,3.7-2.6,5.6c8.3,4.8,10.3,4.3,12.1-2.6
		C252.4,1121.9,253.9,1119.5,249.8,1118.2z"/>
	<path class="st1" d="M237.6,1251.9c-0.1,0.1-0.3,0.2-0.9,0.3c-1.9,12.8,1.7,17.6,11.1,14.9C250,1253.7,250,1253.7,237.6,1251.9z"/>
	<path class="st1" d="M218.9,1182c-1.7,3.6-3.2,7-4.8,10.6c3.9,1.8,7.1,3.4,10.3,4.9C229,1187.8,228.2,1185.4,218.9,1182z"/>
	<path class="st1" d="M215.3,1237.2c1.8-2.6,1.1-7,1.5-10.8c-5.2,0-9.3,0-15.2,0c1.7,4.9,2.5,9.5,4.9,12.8
		C207.3,1240.3,213.9,1239.2,215.3,1237.2z"/>
	<path class="st1" d="M214.6,1249.7c-0.9,1.2-1.8,2.4-2.8,3.7c7.1,7.4,11.8,7.1,15-0.4c0.5-1.1,0.4-3.2-0.3-4
		C221,1242.8,219.6,1243,214.6,1249.7z"/>
	<path class="st1" d="M1564,722.7c4,2.1,7.2,3.8,10.6,5.5c7-8.1,6.5-10.4-3-16C1569.2,715.5,1566.7,718.9,1564,722.7z"/>
	<path class="st1" d="M1515.3,517.9c-2.8,8.2-3.4,8.1,6.4,12.9c1.8-4.3,3.4-8.5,5.7-14.4C1522.4,518.3,1517.7,510.9,1515.3,517.9z"
		/>
	<path class="st1" d="M1523.6,624.2c-3.3,5.2-1.9,6.9,6.6,10.9c1.7-3.4,3.4-6.8,5.7-11.5C1530.9,624.8,1526.8,619.1,1523.6,624.2z"
		/>
	<path class="st1" d="M1517.4,495.1c-1.9,2.6-1.2,7-1.7,10.9c5.1,0,9.2,0,15.1,0c-1.6-4.8-2.2-9.3-4.6-12.6
		C1525.4,492.3,1518.8,493.2,1517.4,495.1z"/>
	<path class="st1" d="M1513,487.9c2.9-0.4,5.4-4,9.2-7.2c-4.2-2.9-7.5-5.2-10.7-7.4c-2.1,3.2-5,6.1-5.7,9.5
		C1505.5,484.1,1510.8,488.3,1513,487.9z"/>
	<path class="st1" d="M1516,1217.7c2.7-1.4,4.4-2.6,6.4-3.2c4.6-1.4,4.6-3.9,2.2-7.4c-0.7-1.1-1-2.5-1.8-3.5
		c-0.6-0.8-1.8-1.6-2.6-1.6c-3.4,0.3-6.8,4.9-6.2,8.3C1514.6,1212.6,1515.3,1214.8,1516,1217.7z"/>
	<path class="st1" d="M1491.2,1152.7c3.3-1.7,6.7-3.4,10.5-5.3c-1.9-3.9-3.7-7.3-5.5-10.8
		C1486.8,1142.1,1486.8,1142.1,1491.2,1152.7z"/>
	<path class="st1" d="M1505.6,1186.4c-0.4,6.8,2.1,8.6,8.6,7c1-0.2,2.2-0.4,4.4-0.8c-1.6-3.4-2.6-6.2-4.2-8.6
		c-0.7-1.1-3-2.1-3.9-1.7C1508.6,1183.2,1505.7,1184.9,1505.6,1186.4z"/>
	<path class="st1" d="M1510.1,1117.6c6.1-3.2-0.6-7.3,1.1-11c-0.4-0.3-0.8-0.6-1.2-0.9c-3.5,1.7-7.1,3.4-10.6,5.1
		C1504.3,1119.1,1505.5,1120,1510.1,1117.6z"/>
	<path class="st1" d="M1000.8,174.6c-7-8.9-7.6-9.1-12.2-5.9c-4.8,3.4-4.8,3.4,1.8,13.7C993.9,179.8,997.3,177.2,1000.8,174.6z"/>
	<path class="st1" d="M1400.7,394.2c3.5,1,7.2,1.4,11.2,2.1c0-4.9,0-8.9,0-12.7c-8.9-2.7-12.2-0.9-13.1,7
		C1398.7,391.8,1399.8,393.9,1400.7,394.2z"/>
	<path class="st1" d="M1402.3,348c3.7,0.1,7.4-1.2,11.1-1.9c-0.8-3.2-0.9-5.7-2-7.6c-0.8-1.4-3-3.1-4.1-2.9
		c-2.6,0.6-5.2,2.2-7.4,3.8c-0.9,0.6-1.6,2.7-1.3,3.6C1399.4,344.9,1401,347.9,1402.3,348z"/>
	<path class="st1" d="M1513.7,550.2c1.5-3.2,3.1-6.5,4.9-10.3c-4-1.9-7.3-3.5-10.7-5.1C1503.7,545.9,1504.6,548.1,1513.7,550.2z"/>
	<path class="st1" d="M1413.1,360.3c-3.8,0-8.3-1.2-11.1,0.4c-1.9,1.2-1.5,6.3-2.1,10.1c4.6,0.1,8,0.1,12.6,0.1
		C1412.7,367.3,1412.9,363.8,1413.1,360.3z"/>
	<path class="st1" d="M1498.6,569c5.8,2.6,7.5,1.6,11-6.7c-3.3-1.7-6.5-3.4-9.8-5.1C1496,565,1495.7,567.7,1498.6,569z"/>
	<path class="st1" d="M1482.3,614c5.5,2.7,6.8,1.4,10.5-9c-8.1-3.4-11.1-3.5-11-0.9C1481.9,607.4,1476.8,611.4,1482.3,614z"/>
	<path class="st1" d="M1485.2,478.7c3.4,1,7,1.3,10.6,1.8c1.8-13.1,0.1-15.5-10.9-15.9c-0.7,3.5-1.7,6.7-1.9,10
		C1482.9,476,1484.1,478.3,1485.2,478.7z"/>
	<path class="st1" d="M1590,665.2c2.5-0.3,5.4-3.4,6.7-6c0.5-0.9-2.8-5.1-5-5.7c-5.4-1.7-6.6,4.1-11.3,7.4
		C1584.3,662.8,1587.3,665.5,1590,665.2z"/>
	<path class="st1" d="M1402.1,1371.6c2.9,1.6,7.3,0.4,11.1,0.4c-0.2-3.5-0.5-6.9-0.7-10.5c-4.3,0-7.9,0-12.8,0
		C1400.5,1365.6,1400.2,1370.6,1402.1,1371.6z"/>
	<path class="st1" d="M1588.5,686.9c4.7,0.2,8.9,1.4,11.8,0.1c1.7-0.8,2.6-8.2,1.9-8.5c-3.6-1.7-7.7-2.1-11.7-3
		C1589.9,678.9,1589.3,682.3,1588.5,686.9z"/>
	<path class="st1" d="M1592.5,703.2c0.6-0.8,1-1.7,1.5-2.5c-6.6-7.2-8.3-7-15.4,2.3C1585.6,712.6,1586.1,712.6,1592.5,703.2z"/>
	<path class="st1" d="M1594.1,910.6c-2.4-3.2-5-6.5-7.9-10.4c-3.1,2.8-5.7,5.2-8.1,7.5C1585.1,917.5,1587.7,918,1594.1,910.6z"/>
	<path class="st1" d="M1569.7,1020.4c3.5-2.6,7-5.1,10.7-7.8c-3-3.1-5.6-5.8-8.1-8.4C1563,1009.7,1563,1009.7,1569.7,1020.4z"/>
	<path class="st1" d="M1576.3,644c-0.4-2.1-7-5.3-8.9-4.3c-3,1.6-4.3,6.2-6.6,9.9c4.3,2.1,7.6,3.7,11.8,5.8
		C1574.1,651.3,1576.9,647.3,1576.3,644z"/>
	<path class="st1" d="M1590.6,822.4c-0.8-3.4-3.8-6.1-6.8-10.2c-2.4,4.8-4,8-6,11.9c2.8,1.6,5.5,4.3,8.1,4.3
		C1587.6,828.4,1591,824,1590.6,822.4z"/>
	<path class="st1" d="M1560.7,747.7c6.7-10.8,6.7-10.8-2.9-16.2c-2.3,2.5-4.7,5.2-7.6,8.5C1553.7,742.5,1557.1,745.1,1560.7,747.7z"
		/>
	<path class="st1" d="M1527.9,958.7c2.6,3.4,6.4,2.6,12.8-3.2c-2.5-3.3-5.1-6.6-7.6-9.9C1524.6,951.4,1523.9,953.4,1527.9,958.7z"/>
	<path class="st1" d="M1522,778.6c8.6,7.4,7.9,7,15.4-2c-2.3-2.8-4.5-5.6-7.2-8.9C1527.1,771.8,1524.6,775.2,1522,778.6z"/>
	<path class="st1" d="M1546.6,767.2c6.6-9.3,6.6-10.2,1.2-13.8c-7-4.5-5.8,3.9-9.5,5.4c1.9,2.1,3,3.5,4.3,4.8
		S1545.2,766,1546.6,767.2z"/>
	<path class="st1" d="M1544.3,630.7c-1,3.2-2,6.4-3.2,10.3c4.2,1.1,7.6,2,11,3C1556.1,635,1556.1,635,1544.3,630.7z"/>
	<path class="st1" d="M1496.2,595.9c1.8-3.5,3.5-6.9,5.5-10.8c-3.8-2-7.1-3.6-10.8-5.5C1486.9,592.5,1487.1,590.2,1496.2,595.9z"/>
	<path class="st1" d="M1549.6,784.9c-2.9,2.8-5.4,5.1-8.1,7.8c8.9,10.6,7.9,10.1,16.1,0.1C1555,790.2,1552.4,787.7,1549.6,784.9z"/>
	<path class="st1" d="M1546.3,935.3c-0.8,0.6-1.5,2.3-1.2,3.1c1.2,3,2.9,5.8,4.4,8.7c9.4-6.7,9.6-7.7,2.8-15.7
		C1550.3,932.6,1548.1,933.8,1546.3,935.3z"/>
	<path class="st1" d="M1409.1,1318.2c0.1-1.4-0.1-2.7-0.2-4.6c-2.4,0.5-4.1,0.9-5.9,1.4c-4.9,1.3-7.3,5.9-5.2,10.4
		c0.3,0.7,1.4,1.4,2.2,1.4C1406,1327.4,1409.2,1324.3,1409.1,1318.2z"/>
	<path class="st1" d="M1517.5,1236.7c2.7,1.7,8.1,1.7,10.8,0c1.9-1.2,1.4-6.4,2.1-10.2c-5.6,0-9.7,0-14.9,0
		C1516.1,1230.3,1515.6,1235.5,1517.5,1236.7z"/>
	<path class="st1" d="M1524.9,1097.4c-1.2,1.4-2.7,3.5-2.5,5.1c1.4,8.8,1.6,8.7,9.6,4.5c1-0.5,2-1,3.6-1.9c-2-3.9-3.8-7.3-5.7-10.9
		C1527.9,1095.5,1526,1096.1,1524.9,1097.4z"/>
	<path class="st1" d="M1551.1,973.7c0.5-2.5-2.4-5.7-3.6-8.5c-3.5,2.9-6.2,5.3-9.5,8c2.4,2.7,4.4,4.9,6.4,7.2
		C1546.8,978.2,1550.6,976.3,1551.1,973.7z"/>
	<path class="st1" d="M1541.5,1091.4c5.7,12.4,5.7,12.4,16.4,5c-1.8-3.6-3.5-6.9-5.5-10.6C1548.4,1087.8,1545,1089.6,1541.5,1091.4z
		"/>
	<path class="st1" d="M1480.2,1118.5c-1.2,0.4-2.4,2.5-2.7,4c-0.3,1.5,0.2,3.4,1,4.8c0.8,1.2,2.5,2.8,3.7,2.7
		c3.5-0.4,7-1.5,10.9-2.3C1488.1,1116.4,1488.1,1116.3,1480.2,1118.5z"/>
	<path class="st1" d="M1487.9,1264.9c10.9,0.3,12.7-2.7,7.7-12.7C1484.3,1253.6,1484.3,1253.6,1487.9,1264.9z"/>
	<path class="st1" d="M1563.7,988.4c-3.1-4.2-3.1-4.2-13.8,1.8c2.9,3.8,5.5,7.2,8.2,10.7C1567,993.1,1567,993.1,1563.7,988.4z"/>
	<path class="st1" d="M1403.1,417.6c1.6,0.4,3.4,0.7,6.1,1.4c0-3,0.2-5.3-0.1-7.6c-0.1-1.3-0.6-3.5-1.4-3.7
		c-2.9-0.9-6.1-1.2-9.1-1.6c-0.2,0-0.7,0.7-0.8,1.1C1395.8,411.8,1398.1,416.3,1403.1,417.6z"/>
	<path class="st1" d="M1505,1159.4c-9.3,3.8-10.1,6.6-5,15.8c3.3-1.7,6.6-3.5,10.2-5.4C1508.3,1166.1,1506.7,1162.9,1505,1159.4z"/>
	<path class="st1" d="M1614.6,872.3c-1.4,2.7-4.6,5.5-1.6,8.8c5,5.4,7.7,5,11.6-1.2c1-1.7,2-3.3,3.3-5.4c-2.6-1.3-5.2-2.3-7.4-3.9
		C1617.6,868.5,1615.8,870,1614.6,872.3z"/>
	<path class="st1" d="M1596.4,892.7c-0.4,0.5-0.8,1-2.3,2.9c2.5,1.9,5,3.9,7.5,5.7c3.6,2.6,5.1-1.7,7.6-2.6c0.6-0.2,1.2-2.7,0.7-3.6
		C1605.6,886,1603.1,885.6,1596.4,892.7z"/>
	<path class="st1" d="M-15.8-15.4V1745h1760.4V-15.4H-15.8z M1690.2,997.3c7.1,16.4,11.6,33.4,13.5,51.3c3,27.9-4.3,52.5-19.7,75.4
		c-11.4,16.9-24,32.6-41.5,43.6c-6.5,4.3-13.8,7.5-21.4,11.5c8.4,26.9,10.1,54.1,5.1,81.8c-6,33.1-24.6,57.2-51.6,76.1
		c-15.6,10.9-31.8,20.6-50.1,26c-3.4,1-7.1,1.1-11.4,1.7c3.9,42.7-10,79.9-37.3,112c-23.8,28-84.8,43.4-112,37.1
		c-1.8,6.2-3.4,12.5-5.4,18.7c-6,18.2-13,35.8-26.9,49.8c-8.1,8.1-15.2,17.3-24,24.5c-17.2,14-37.6,20.9-59.7,22.4
		c-19.3,1.4-38.6,0.9-57.7-2.7c-2.3-0.4-4.5-1.7-6.4-3c-3.8-2.5-5.1-0.1-6.9,2.6c-7.3,10.7-14.1,21.8-22.3,31.7
		c-12.6,15.2-27.7,27.7-45.6,36.5c-17.4,8.6-36,10.6-54.9,9.7c-20.1-0.9-39.5-5.5-58.2-12.9c-7.3-2.9-14-7.4-21.2-10.8
		c-1.5-0.7-5.1-0.4-5.4,0.4c-3.8,8.6-11.6,13.1-18.4,18.4c-17.2,13.2-36.2,23.5-57.2,29.4c-19.4,5.5-38.9,5-58.2-0.6
		c-26.4-7.6-49.1-21.5-69.2-39.9c-1.7-1.5-3.2-3.4-4.1-5.5c-1.6-3.7-3.5-4.3-6.9-2.2c-19.6,12.4-41.4,18.7-63.9,22.3
		c-32.5,5.2-62.3-1.2-88.9-21.5c-18.3-13.9-34.4-29.6-46-49.6c-0.9-1.5-1.5-3.3-1.9-5c-0.8-3.7-4.1-5.6-6.9-3.3
		c-7.3,6.1-16.4,6.6-24.9,7.4c-24.9,2.3-49.6,1.3-73.2-8.4c-14.6-6-27.9-13.8-38.4-26c-5-5.8-10.4-11.2-15.6-16.8
		c-10-10.8-15.6-24.2-20.8-37.6c-3.4-8.7-5.2-18-7.4-26.1c-3.6,0-7.8,0.2-12,0c-32.3-1.7-62.6-9.4-89.4-28.5
		c-14-9.9-23.2-23.6-30.9-38.4c-10.2-19.5-17.6-39.8-18.6-62c-0.3-7.3-0.1-14.6-0.1-22.3c-13.2-1.3-25.7-5.9-37.2-12.6
		c-20.3-11.8-41.1-23.3-55.1-43.3c-17-24.3-23.6-51.7-23.1-81.1c0.2-13.4,1.6-26.5,5.7-39.4c0.9-2.9,1.1-6.1,1.6-9.2
		c-7.1-4.1-14.9-7.8-21.6-12.9c-24.4-18.3-42.6-41.3-53.6-70.1c-11.2-29.4-8.5-58.1,2-86.6c3.5-9.6,7.9-19,12.1-28.4
		c1.2-2.6,3.4-4.8,5.5-7.7c-24.3-23.2-42.1-50.9-50-84.1c-6.1-25.9-1-50.5,9.9-74.3c8.3-18.1,18.6-34.7,33.5-48.3
		c2.3-2.1,3.7-5.3,5.4-7.8c-14.9-24.9-24.7-52-25.9-81.9c-0.4-11.3,1.3-22,5-32.8c4.4-12.8,9-25.3,16.7-36.5
		c13.6-19.8,29.6-37,50.8-48.9c3.3-1.8,6.9-3.1,10.7-4.8c-9.9-32.6-11.4-65.3-1.1-97.7c5.8-18.2,15.4-34.4,30.5-47
		c17.3-14.3,35-28.1,56.4-35.9c6.8-2.5,13.9-4.1,22-6.4c0-1.9,0.3-5,0-8.1c-2.1-21.9,3-42.5,12.1-61.9c5.9-12.5,12.8-24.8,20.8-36.1
		c10.2-14.2,25.1-23,41-29.8c20.7-8.8,42.4-13.8,64.9-14.2c4.2-0.1,8.4,1.1,12.9,1.7c-0.3-18,10.2-32.5,17.3-48.3
		c9.4-20.8,25.4-35.9,43-49.1c15.6-11.7,34.2-16.7,53.7-18.1c19.2-1.3,38.3-0.9,57.2,2.7c2.6,0.5,5.2,2,7.5,3.3
		c3.5,1.9,6.1,0.5,7.4-3.3c1.4-4.1,3.5-8.2,6-11.8c16.3-24,36.1-44.2,62.7-56.8c16.7-7.9,34.5-9.6,52.6-8.8c20.2,1,39.9,5.5,58.7,13
		c7.3,2.9,14,7.4,21.2,10.8c1.4,0.7,4.8,0.4,5.1-0.3c3.7-8.4,11.2-13,18-18.2c17.6-13.6,36.9-24.2,58.6-29.9
		c24.3-6.5,48.2-4.5,71.3,5.2c20.3,8.6,39,20,55.1,35.2c1.9,1.8,2.8,4.4,4.7,6.2c1.3,1.3,3.6,2.7,5.1,2.4c2.5-0.4,4.8-2,7-3.3
		c31.3-18.5,65.3-23.9,100.9-19.8c15.8,1.8,29.4,10.2,42.4,19c22.3,15.1,40.7,34,53.3,58.1c2.2,4.1,3.3,3.5,7.3,1.3
		c4.5-2.5,9.7-4.2,14.8-4.9c30.2-4.6,59.7-3.2,87.9,9.9c13.1,6.1,24.6,14.3,33.9,25.5c4.2,5,8.8,9.5,13.2,14.2
		c10.1,10.8,15.6,24.2,20.9,37.5c2.8,7,4.2,14.6,6.2,22c0.8,3,2.2,4.5,5.9,4.5c36.6,0.2,70.8,8.5,100.4,31.2
		c12.6,9.7,20.7,22.7,27.8,36.5c9.6,18.6,16.6,38.1,18,59.2c0.3,4.3,0,8.6,0,13c0,3.6,0,7.3,0,11.1c19.8,1.7,36.2,11.3,52.3,21.6
		c14.5,9.3,29.1,18.6,39.3,33.1c13.9,19.9,21.9,41.9,23.4,66.3c1.2,19.1,0.6,37.9-5.4,56.3c-0.9,2.8-1,5.8-1.3,8.2
		c8.7,5,17.7,9.2,25.7,14.9c19.2,13.6,32.3,32.5,44,52.6c15.3,26.3,15.1,54.1,9.3,82.7c-3.2,16-9.8,30.6-16.4,45.3
		c-1.6,3.6-4.2,6.7-6.4,10c33,28.1,51.3,64.6,51.3,107.6c0,42.8-18.2,79.3-50.3,106.7C1682.6,981.1,1686.6,989.1,1690.2,997.3z"/>
	<path class="st1" d="M1594,1031.9c-6.9-11.9-8.3-12.2-15.2-3c-0.1,0.1,0,0.3,0,0.5C1584.7,1038.5,1586.8,1038.9,1594,1031.9z"/>
	<path class="st1" d="M1586.1,1046.5c1.5,3.8,2.7,7,3.9,10.1c10.1-0.6,12.9-4.4,8.9-13.1C1594.8,1044.5,1590.7,1045.5,1586.1,1046.5
		z"/>
	<path class="st1" d="M1562.1,1079.9c1.5,10.9,5.6,13,15,7.8C1573.3,1076.8,1573.3,1076.8,1562.1,1079.9z"/>
	<path class="st1" d="M1581.6,1071.4c7.8,10.2,7.3,10,15.1,0C1589.8,1061.9,1588.4,1061.9,1581.6,1071.4z"/>
	<path class="st1" d="M1512.5,1244.5c-1.6-0.6-5.7,2.7-7,5.2c-1.1,2.1,4.9,9.9,8.1,9.6c2-2,4.8-4.7,7.5-7.5
		C1518.3,1249.2,1515.8,1245.7,1512.5,1244.5z"/>
	<path class="st1" d="M1393.3,332.3c1.4-2.6,2.7-5.2,4.1-8.1c-3.8-1.8-7.2-3.4-11.1-5.3c-0.8,4.5-1.5,8.5-2.2,12.5
		c2.9,1,5.4,1.8,7.8,2.6C1392.5,333.3,1393,332.9,1393.3,332.3z"/>
	<path class="st1" d="M1384,1401.3c0.8,3.9,1.6,8,2.5,12.2c4.1-1.9,7.3-3.5,10.5-5.2C1393.3,1397.1,1392.8,1396.9,1384,1401.3z"/>
	<path class="st1" d="M1397.4,1304c3-0.9,6.8-1.7,8.5-4c1.4-1.8,0.3-5.6,0.3-8.4c-10.5-2.2-11.8-1.3-11.2,8.3
		C1395.1,1301.4,1397,1304.1,1397.4,1304z"/>
	<path class="st1" d="M1566.4,814.7c3.2-1,5.6-4.6,8.9-7.6c-3.3-2.7-6.1-5-8.8-7.2c-2.5,3.2-5,6.3-7.4,9.5
		C1561.6,811.3,1564.6,815.2,1566.4,814.7z"/>
	<path class="st1" d="M1392.5,1270.5c-0.1,3.6,0.2,7.1,0.4,10.7c2.7-0.2,5.4-0.4,8.1-0.7c1.6-0.2,3.2-0.5,5.5-0.8
		c-1.2-4-2.2-7.6-3.3-11.4c-3.2,0-5.7-0.2-8.1,0.1C1394.1,1268.5,1392.5,1269.7,1392.5,1270.5z"/>
	<path class="st1" d="M1393.1,464.1c3.1,0.8,6.3,1.7,10,2.7c1.1-3.7,2.1-7.1,3.3-10.8C1393.9,452.3,1392.9,453,1393.1,464.1z"/>
	<path class="st1" d="M1406.1,441.6c0-4.3,0-7.7,0-11.5c-3.6-0.7-6.9-1.4-11.5-2.5c0.5,5.1,0,9.7,1.8,13.1
		C1397.2,442.3,1402.6,441.4,1406.1,441.6z"/>
	<path class="st1" d="M1473.5,463.9c-3.7-0.7-8.4-3-10.3-1.5c-2.3,1.7-2.3,6.5-3.3,10C1471.1,475.1,1471.1,475.1,1473.5,463.9z"/>
	<path class="st1" d="M1447,1260.1c-2.3,0-6.2,0.7-6.5,1.7c-0.8,3.8-0.3,7.9-0.3,12.4c5.4-1.3,9.5-2.3,13.9-3.3
		c-0.9-3.1-1.3-6-2.6-8.4C1450.8,1261.2,1448.6,1260.1,1447,1260.1z"/>
	<path class="st1" d="M1450.9,461.5c-2.8-0.8-5.6-1.8-8.5-2.4c-0.9-0.2-2.6,0.4-2.8,1c-0.9,3.1-1.4,6.3-2.1,9.4
		C1449.1,472.7,1449.1,472.7,1450.9,461.5z"/>
	<path class="st1" d="M1463.6,1268c4,0,8.1,0,12.8,0c-0.9-4.9-1.7-9-2.5-13C1462.6,1256,1460.7,1258.5,1463.6,1268z"/>
	<path class="st1" d="M1428.2,459c-10.4-4.1-11.6-5.4-12.8,7.8C1428.3,470.7,1426,470,1428.2,459z"/>
	<path class="st1" d="M1408.4,1396.9c1.7-3.2,3.2-6.5,5.2-10.6c-4.6-0.8-8.5-1.5-12.4-2.2
		C1397.3,1392.7,1398.1,1394.1,1408.4,1396.9z"/>
	<path class="st1" d="M1401,1348.7c2.6,1.8,7,0.9,10.7,1.2c0-5.1,0-9.1,0-14.2c-4.8,1.4-9.3,2.1-12.8,4.2
		C1398,1340.5,1399.1,1347.4,1401,1348.7z"/>
	<path class="st1" d="M1422.7,1264c-2.3,0.5-4.7,1.1-7.1,1.6c-0.7,9.9,1.3,11.7,10.4,9.5c1.7-0.4,3.3-1,5.1-1.5
		c-0.3-1.7-0.6-3-0.8-4.2C1429.2,1263,1428.8,1262.7,1422.7,1264z"/>
	<path class="st1" d="M1507.9,625.8c0.9,0.3,2.8-0.7,3.7-1.6c1.1-1.2,1.7-2.8,2.5-4.3c1.4-2.7,1.6-4.5-2-6c-7.4-3.1-7.2-3.4-11,3.8
		c-0.6,1-1.1,2.1-1.9,3.7C1502.3,623,1505,624.7,1507.9,625.8z"/>
	<path class="st1" d="M1045.2,1600.1c0.7,1.7,6.8,3.5,8.1,2.4c2.3-1.9,2.9-6,4.5-9.8c-4-1.6-7.2-2.9-11.9-4.8
		C1045.4,1593.1,1044,1597.1,1045.2,1600.1z"/>
	<path class="st1" d="M1108.8,229c0.6,1.3,1.4,2.6,2.3,4.2c2.4-1.5,4.7-2.3,5.8-3.9c1.1-1.6,1.2-4.1,0.9-6.1c-0.2-1.2-2-3.2-2.9-3.1
		c-2.8,0.3-5.6,1.4-8.4,2.2C1107.3,224.5,1108,226.8,1108.8,229z"/>
	<path class="st1" d="M1091.3,191c12.3-5.5,12.8-7.2,4.7-16.2c-3.2,1.7-6.5,3.4-10.3,5.3C1087.8,184.1,1089.6,187.5,1091.3,191z"/>
	<path class="st1" d="M1128.2,1481.8c-2-1.2-7.1-5.1-9.8,0.3c-2.7,5.6-1.7,6.6,9.8,11C1127.6,1488.8,1133.1,1484.8,1128.2,1481.8z"
		/>
	<path class="st1" d="M1129.8,252.6c-3.5-11.2-6.2-12.5-15-7.3C1117.1,255.5,1121.2,257.5,1129.8,252.6z"/>
	<path class="st1" d="M1057.2,142.6c-0.7-3.7-1.1-7.3-2.1-10.7c-0.3-0.9-2.4-2.1-3.4-1.8c-2.7,0.7-5.2,2-8.1,3.2
		c0.9,3.9,1.9,7.8,2.7,11.3C1050,143.9,1053.2,143.4,1057.2,142.6z"/>
	<path class="st1" d="M1029.3,1578.7c-9.3,6.6-9.3,7.3-0.1,13.7c0.8,0.5,1.7,1,2.5,1.5C1039,1587.5,1038.5,1584.3,1029.3,1578.7z"/>
	<path class="st1" d="M1028.5,138c-0.9,4.5-10,4.8-4.5,11.1c5.6,6.5,6.7,6.2,13.3-0.6c-2.1-2.9-4.2-5.8-6.4-8.7
		C1030.5,139.4,1029.9,139.1,1028.5,138z"/>
	<path class="st1" d="M1108.4,1523.6c-5-3.4-6.8-2-11,6.5c3.2,1.7,6.5,3.4,11.4,5.9C1107.9,1531,1113.3,1526.9,1108.4,1523.6z"/>
	<path class="st1" d="M1564.8,928c1,0.9,3.4,1.6,4.2,1.1c2-1.5,4.9-3.9,4.8-5.6c-0.4-3.1-2.8-5.9-4.5-9.2c-1.7,1.6-2.7,2.7-3.9,3.6
		C1561.2,921.1,1560.9,924.5,1564.8,928z"/>
	<path class="st1" d="M1080.2,171.6c3.9-2.3,8.6-3.5,10.3-6.5c1.3-2.2-1.4-6.6-2.4-10.2C1077.4,160.2,1077.4,160.2,1080.2,171.6z"/>
	<path class="st1" d="M1088.5,1552.2c9.1,3.3,10.4,2.5,13.2-8.2c-3.2-0.9-6.5-1.8-10.1-2.8
		C1090.4,1545.1,1089.5,1548.5,1088.5,1552.2z"/>
	<path class="st1" d="M1106.6,1507.9c-0.3,0.8,0.4,2.7,1.1,3.1c7,3.5,11.3,1.5,13.5-6.6c-3.1-1.7-6.3-3.4-10.1-5.3
		C1109.4,1502.3,1107.8,1505,1106.6,1507.9z"/>
	<path class="st1" d="M1083,1560.8c-2.1,4.2-3.7,7.4-5.9,11.7c4.2,1.6,8.1,4.6,11.2,3.9c2.2-0.5,5.4-6.9,4.5-8.8
		C1091.3,1564.6,1086.7,1563.1,1083,1560.8z"/>
	<path class="st1" d="M1071.3,151.7c8.9-7.7,9.8-9.9,6.2-13.6c-3.8-3.9-6.3-3.9-11.4,2.7C1060.4,148,1071.9,145.9,1071.3,151.7z"/>
	<path class="st1" d="M1072.6,1580.7c-0.7,0.1-1.4,0.1-2.1,0.2c-2,3.1-6,6.5-5.5,9.2c0.4,2.7,4.9,5.5,8.2,6.7
		c1.3,0.4,6.2-4.2,5.8-5.3C1077.7,1587.5,1074.9,1584.2,1072.6,1580.7z"/>
	<path class="st1" d="M1097.8,208.1c1.2,1.1,3.4,2.2,4.9,2c8.7-1.5,8.6-1.7,4.4-9.6c-0.5-1-1-2-1.8-3.4c-3.8,1.7-7.2,3.4-11.1,5.4
		C1095.6,204.8,1096.4,206.8,1097.8,208.1z"/>
	<path class="st1" d="M907.9,153.2c2.8-0.3,6.5-3.4,7.4-6.1c0.7-2.3-1.9-5.8-3.1-8.8c-0.7-0.1-1.5-0.2-2.2-0.3
		c-2.9,3-6.2,5.9-8.3,9.4C901.4,148,906,153.4,907.9,153.2z"/>
	<path class="st1" d="M868.7,1615.7c2.9,3.4,4.9,7.4,8.2,9.2c1.5,0.8,7.6-2.6,7.7-4.4c0.2-3.6-2.2-7.3-3.6-11.1
		C876.7,1611.6,873.4,1613.3,868.7,1615.7z"/>
	<path class="st1" d="M874.3,105.1c-1.7,3.3-3.4,6.6-5.4,10.7c4.2,1.6,7.9,3,11.5,4.4C887,111.8,888.4,112.6,874.3,105.1z"/>
	<path class="st1" d="M932.4,166c-3.8-8.3-6.7-9-14.8-3.2C921.2,172.3,922.8,172.6,932.4,166z"/>
	<path class="st1" d="M954.4,207c1.6,0.5,6.5-3.1,6.3-4.4c-0.4-3.7-2.7-7.3-4.4-11.4c-4.2,3.2-7.4,5.6-11.6,8.9
		C948.3,202.8,951,205.9,954.4,207z"/>
	<path class="st1" d="M902.4,129.6c-6.9-8.5-7.5-8.9-10.6-6.2c-6.6,5.7-6.6,6.5,0.2,14C895.4,134.9,898.7,132.4,902.4,129.6z"/>
	<path class="st1" d="M939.4,190.3c2.8-2.4,5.5-4.8,8.2-7.2c-2.8-3.1-5.2-5.7-7.8-8.6C929.8,182.7,929.9,184.2,939.4,190.3z"/>
	<path class="st1" d="M980.3,188.1c-2.2-2.4-4.1-6.1-6.7-6.7c-2.4-0.6-5.6,2.2-8.4,3.5c3,3.6,5.3,6.3,8,9.6
		C975.9,192.1,978.1,190.1,980.3,188.1z"/>
	<path class="st1" d="M993.1,1549.4c-3.1,4.2-5.6,7.7-8.2,11.2c10.8,6.7,10.8,6.7,16-2.4c-0.2-0.4-0.4-0.9-0.7-1.2
		C998,1554.7,995.8,1552.4,993.1,1549.4z"/>
	<path class="st1" d="M953.8,1522.2c-6.5,8.8-6.5,10.2-0.6,14.1c3.6,2.4,6.6,0.5,10.7-6.8c-2.3-1.8-4.6-3.6-7-5.4
		C956,1523.5,955,1522.9,953.8,1522.2z"/>
	<path class="st1" d="M894.7,1595.1c-9.6,7.4-9.7,7.7-0.7,13.9c1.1,0.8,4.3,0.8,4.4,0.4c0.9-2.7,5.7-4.3,2.8-8
		C899.3,1599.1,896.8,1597.2,894.7,1595.1z"/>
	<path class="st1" d="M972,1537.9c-1.7,2.2-3.4,4.5-5.1,6.7c-0.5,0.6-1,1.2-1.5,1.9c8.7,6.4,10.1,6.6,13.4,1.7
		C981.6,1544,981.6,1544,972,1537.9z"/>
	<path class="st1" d="M939.7,1557.2c2.6-2.4,5.2-4.9,7.7-7.3c-2.8-3.1-5.2-5.7-7.9-8.7C930,1550.2,930.1,1551.8,939.7,1557.2z"/>
	<path class="st1" d="M907.6,1578c-2.1,2.5-4.5,5.1-7.5,8.3c4,3,7.3,5.4,10.4,7.7C917.8,1587.7,917.4,1585,907.6,1578z"/>
	<path class="st1" d="M917.5,1569.1c7.2,7.1,11.1,6.4,14.8-2.7C922.4,1559.9,922.2,1559.9,917.5,1569.1z"/>
	<path class="st1" d="M1009.6,1563.9c-2.1,4.3-3.7,7.5-5.5,11c2.9,1.9,5.6,3.7,8.2,5.5c-0.3-0.5-0.5-1-0.8-1.5
		c3.1-2.1,6.3-4.2,9.8-6.5C1016.8,1569.1,1013.5,1566.7,1009.6,1563.9z"/>
	<path class="st1" d="M1292.6,337c3.7,0.2,7.4-0.1,11.2-0.2c-0.3-2.7-0.3-5.4-1-8c-0.3-1.1-2-2.4-3.3-2.5c-2.6-0.3-5.3-0.1-8.6-0.1
		c0,3-0.2,5.1,0.1,7.2C1291.2,334.7,1291.9,337,1292.6,337z"/>
	<path class="st1" d="M1279.6,326.2c-3.2,0.9-6.2,1.5-8.9,2.5c-1,0.4-2.2,1.9-2.3,3c-1,8.2-0.7,8.5,7.3,8.5c1,0,2,0,3,0
		c2.6,0.1,3.6-1.1,3.1-3.7C1281.1,333.4,1280.4,330.2,1279.6,326.2z"/>
	<path class="st1" d="M1268.8,1393.2c-1.6,10.1,0.1,12.1,10.3,12.3C1281,1394.5,1280.6,1394.1,1268.8,1393.2z"/>
	<path class="st1" d="M1291.8,1405.9c3.4,0,6.8,0,10.5,0c0.8-3.3,1.5-6.6,2.4-10.3C1290.2,1393.8,1289.8,1394.2,1291.8,1405.9z"/>
	<path class="st1" d="M1268.3,1473.3c1-3.6,2-6.8,3.1-10.8c-4.1-0.9-7.8-1.8-11.4-2.6C1257.5,1471.1,1257.5,1471.1,1268.3,1473.3z"
		/>
	<path class="st1" d="M1325.3,1397.7c-4.6-1.9-9.1,0.3-10.4,5.3c-0.4,1.7-0.8,3.5-1.4,6.1c3,0,5.4,0.2,7.6-0.1
		c1.3-0.1,3.5-0.6,3.7-1.4c0.9-2.9,1.2-6.1,1.6-9.1C1326.4,1398.3,1325.7,1397.9,1325.3,1397.7z"/>
	<path class="st1" d="M1265.9,1415.5c-3.8,11-3.8,11,7.7,12.6C1278.1,1417.1,1276.9,1415.2,1265.9,1415.5z"/>
	<path class="st1" d="M1272.2,1439.6c-3.1-0.9-6.3-1.4-9.4-2c-2.6,11-2.6,11,8.2,13.5c0.9-3,1.8-5.6,2.3-8.4
		C1273.5,1441.7,1272.9,1439.8,1272.2,1439.6z"/>
	<path class="st1" d="M1253.7,1485.3c-1,3.3-1.2,6.8-1.8,10.2c12.5,2.5,15.2,0.8,16.1-10.6c-3.6-0.7-6.9-1.7-10.4-2
		C1256.3,1482.8,1254.1,1484.2,1253.7,1485.3z"/>
	<path class="st1" d="M1615.6,863.5c3.3-2.5,7.4-4.4,9.3-7.5c0.9-1.4-2.3-7.6-4.1-7.8c-3.6-0.4-7.4,1.8-11.5,3.1
		C1611.5,855.6,1613.3,859,1615.6,863.5z"/>
	<path class="st1" d="M1313.8,323.8c2.1,11.8,2.2,11.8,13.3,10.6c-0.8-3.8-1.6-7.2-2.3-10.6C1320.9,323.8,1317.4,323.8,1313.8,323.8
		z"/>
	<path class="st1" d="M1594,837c10.8,11.5,8.2,10.1,15.4,1.2c0.7-0.9,0.6-4,0.3-4.1c-2.7-0.9-4.2-5.5-8-3
		C1599,832.9,1596.7,834.9,1594,837z"/>
	<path class="st1" d="M1361.6,320.3c-0.1,4.1-0.1,7.6-0.1,12.5c4.1-0.9,9.2-0.6,10.4-2.6c1.6-2.8,0.2-7.3,0.1-11
		C1368.5,319.6,1365.1,319.9,1361.6,320.3z"/>
	<path class="st1" d="M1349.5,1411.3c0-3.4,0-6.8,0-10.7c-3.6-0.8-6.8-1.6-10.1-2.4C1338,1413.7,1337.8,1412.9,1349.5,1411.3z"/>
	<path class="st1" d="M1342,320.5c-1.2,0.2-2.9,1.6-3,2.7c-0.4,3.5-0.1,7.1-0.1,11.3c4.2-1.1,7.5-1.9,10.7-2.7
		c-0.1-3.9-0.1-7.3-0.1-11.4C1346.5,320.4,1344.2,320.1,1342,320.5z"/>
	<path class="st1" d="M1361.5,1399.8c0.1,4.7,0.1,8.3,0.1,12.6c3.6,0.2,7,0.5,10.5,0.7c0-3.8,1.3-8.3-0.4-11.1
		C1370.5,1400.1,1365.4,1400.5,1361.5,1399.8z"/>
	<path class="st1" d="M1192,225.6c1-0.2,2.2-2.8,2.2-4.3c0-2.2-1-4.4-1.8-7.2c-2.7,1.2-4.5,2.4-6.6,3c-5.6,1.5-4.4,4.9-2.5,8.3
		C1185.8,229.9,1189.2,226.2,1192,225.6z"/>
	<path class="st1" d="M1260,286.6c-0.1,1.9,0.9,5.3,1.8,5.4c3.9,0.6,7.9,0.3,12.3,0.3c-1.2-5.3-2.1-9.4-3.1-14
		c-3.3,1-6.3,1.2-8.6,2.7C1261,281.9,1260.1,284.6,1260,286.6z"/>
	<path class="st1" d="M1266.2,317.9c3.3-1.2,8.2-1.5,9.5-3.8s-0.9-6.6-1.5-10.1C1262.5,306.5,1262.5,306.5,1266.2,317.9z"/>
	<path class="st1" d="M1152.7,241.2c-1.7-3.3-3.4-6.6-5.3-10.4c-3.9,1.9-7.3,3.7-10.8,5.5C1142.3,245.8,1142.3,245.8,1152.7,241.2z"
		/>
	<path class="st1" d="M1182.3,1513.4c2.1,1.2,4.2,2.4,6.4,3.5c1.1,0.5,2.4,0.8,4.1,1.3c1.7-3.4,3.3-6.8,4.9-10.1
		C1187.4,1503.5,1185.3,1504.3,1182.3,1513.4z"/>
	<path class="st1" d="M1164.4,1497.5c-0.9,0.1-2.8,5.1-2,6.5c1.5,2.5,4.7,4.1,7.5,6.4c2.1-4.2,3.7-7.4,5.9-11.5
		C1171.6,1498.3,1167.9,1497.2,1164.4,1497.5z"/>
	<path class="st1" d="M1139.3,1496.2c3,1.5,5.7,3.1,8.6,4.2c0.8,0.3,2.9-0.6,3.2-1.4c0.9-2.6,1.2-5.3,1.8-7.9
		C1145,1487.5,1145,1487.5,1139.3,1496.2z"/>
	<path class="st1" d="M1175.2,232.4c-1.8-3.3-3.5-6.5-5.4-10.1c-3.8,1.9-7,3.6-10.2,5.2C1162.8,236.8,1166.5,237.9,1175.2,232.4z"/>
	<path class="st1" d="M1264.9,244.4c-1.5-12.3-1.4-12.4-12.8-7.5C1254,248.2,1254,248.2,1264.9,244.4z"/>
	<path class="st1" d="M1226.4,212.9c2.1,1.1,4,2.7,6.1,3.1c1.7,0.3,4.9-0.4,5.2-1.5c1.3-3.5,1.5-7.3,2.2-11.4c-5,0-9.2,0-13.5,0
		C1226.4,206.7,1226.4,209.8,1226.4,212.9z"/>
	<path class="st1" d="M1249.6,227c1.6,1.1,9.9-4.9,10.7-7.5c-3-2.5-5.7-6.3-9.1-7c-1.7-0.4-5.9,4.3-6.6,7.2
		C1244.1,221.7,1247.3,225.3,1249.6,227z"/>
	<path class="st1" d="M1237.4,1517.5c-2.5-1.9-6.8-1.5-10.8-2.1c0,5.4,0,9.7,0,15.5c4.8-1.7,9.3-2.6,12.6-5
		C1240.3,1525.1,1239.3,1518.7,1237.4,1517.5z"/>
	<path class="st1" d="M1255.2,260.9c1.7,2.9-0.8,8.1,4.4,8.8c2.7,0.4,5.5,0.1,8.4,0.1c0-4.8,0-9,0-13.4c-3.3,0.5-6.3,0.6-9.1,1.4
		C1257.4,258.2,1255,260.6,1255.2,260.9z"/>
	<path class="st1" d="M1203.9,209.4c-0.9,0.5-1.9,1.6-2,2.4c-0.2,2.6,4.9,7,7.6,6.6c2.6-0.4,5.1-1.2,8-1.8
		C1212.5,204.5,1212.5,204.5,1203.9,209.4z"/>
	<path class="st1" d="M1253.1,1505.7c-1.1-0.5-3.2-0.3-4,0.4c-6.2,5.6-6,6.9,0.8,11.9c1.1,0.9,2.3,1.7,3.4,2.6
		C1260.8,1514.6,1260.7,1509,1253.1,1505.7z"/>
	<path class="st1" d="M1213.8,1514.5c-4-1.2-8.3,0.7-8.5,5.4c-0.2,5.3,6,4.1,9.1,7.2C1218.3,1517.1,1218.2,1515.8,1213.8,1514.5z"/>
</g>
</svg>
