<?xml version="1.0" encoding="utf-8"?>
<!-- Generator: Adobe Illustrator 19.2.1, SVG Export Plug-In . SVG Version: 6.00 Build 0)  -->
<svg version="1.1" id="Layer_1" xmlns="http://www.w3.org/2000/svg" xmlns:xlink="http://www.w3.org/1999/xlink" x="0px" y="0px"
	 viewBox="0 0 1724.1 1620.3" style="enable-background:new 0 0 1724.1 1620.3;" xml:space="preserve">
<style type="text/css">
	.st0{opacity:0.8;fill:#FFFFFF;}
</style>
<path class="st0" d="M-34.9-15.7v1665.5H1770V-15.7H-34.9z M1657.6,814.9c21.7,36.9,43.1,73.9,64.8,110.8c2.3,4,2.1,7-0.1,10.9
	c-26.7,46.1-53.3,92.2-79.8,138.4c-34.4,60-68.7,120-103.2,180c-32.5,56.7-65.2,113.3-97.7,170c-13.4,23.3-26.7,46.6-40,70
	c-1.8,3.2-4,4.3-7.6,4.3c-21.8-0.1-43.7-0.1-65.5-0.1c-21.5,0-43,0.1-64.5-0.1c-4,0-6.4,1.1-8.4,4.6c-21.3,36.9-42.7,73.8-64,110.7
	c-2.3,4-4.8,5.9-10,5.9c-213.2-0.2-426.3-0.2-639.5,0c-5.1,0-7.7-1.8-10-5.8c-21.3-36.9-42.7-73.8-64-110.7c-2-3.4-4.4-4.7-8.4-4.7
	c-43,0.1-86,0-129,0.2c-4.7,0-7-1.6-9.3-5.6c-23.4-41.1-47.1-82-70.6-123c-25.4-44.3-50.8-88.7-76.2-133
	c-21.4-37.3-42.8-74.5-64.2-111.7c-21.5-37.4-43-74.8-64.5-112.2C31.4,988.5,17,963.1,2.2,937.9c-3-5.1-2.9-8.8,0.1-13.9
	c20.7-35.1,41-70.6,61.8-105.7c3.6-6.1,3.7-10.4,0-16.5c-19.8-33.2-38.9-66.7-58.5-100.1c-7.4-12.6-7.4-12.4,0-25.4
	c24.6-42.7,49-85.5,73.6-128.2c28.5-49.6,57.1-99.2,85.6-148.8c28.5-49.6,56.9-99.3,85.4-148.9c24-41.9,48.1-83.7,72.1-125.6
	c1.9-3.3,4.4-3.8,7.8-3.8c43.2,0.1,86.3,0,129.5,0.1c3.7,0,5.9-0.9,7.9-4.3c12.7-22.3,25.7-44.5,38.6-66.8
	c8.7-14.9,17.6-29.7,26.1-44.7c2.2-3.8,4.7-5.4,9.3-5.4c140.8,0.1,281.7,0.1,422.5,0.1c72.8,0,145.7,0,218.5-0.1
	c3.9,0,6.2,0.9,8.2,4.5c21.3,37.1,42.9,74.1,64.3,111.1c2.2,3.8,4.6,5.6,9.4,5.6c42.7-0.2,85.3-0.1,128-0.2c4.7,0,7.3,1.3,9.8,5.6
	c27.4,48.1,55.2,96.1,82.8,144.1c29.5,51.4,58.8,102.8,88.3,154.1c28.5,49.6,57.1,99.2,85.7,148.8c21.2,36.8,42.3,73.7,63.5,110.4
	c2.2,3.8,2,6.7-0.1,10.5c-21.7,36.9-43.1,73.9-64.8,110.8C1655.6,808.7,1655.6,811.4,1657.6,814.9z"/>
</svg>
