<?xml version="1.0" encoding="utf-8"?>
<!-- Generator: Adobe Illustrator 19.2.1, SVG Export Plug-In . SVG Version: 6.00 Build 0)  -->
<svg version="1.1" id="Layer_1" xmlns="http://www.w3.org/2000/svg" xmlns:xlink="http://www.w3.org/1999/xlink" x="0px" y="0px"
	 viewBox="0 0 1089 907.6" style="enable-background:new 0 0 1089 907.6;" xml:space="preserve">
<style type="text/css">
	.st0{opacity:0.8;fill:#FFFFFF;}
</style>
<path class="st0" d="M-8-7v924h1108V-7H-8z M1085.8,275.7c-32.1,43.3-62.8,88-95,131.3c-23.7,30.7-47.5,61.4-71.2,92.2
	c-23.7,29.3-324,365.9-354.7,392.4c-5.6,4.2-11.2,9.8-18.2,14c-4.2,2.8-5.6,2.8-9.8,0C525.8,893,249.3,598.3,222.8,564.8
	c-34.9-43.3-69.8-88-103.3-131.3C95.7,402.8,17.5,292.4,2.1,270.1c-2.8-4.2-2.8-7,0-9.8C18.9,231,125,62,129.2,55
	c4.2-5.6,9.8-8.4,15.4-9.8c12.5-1.4,350.5-44.7,368.6-44.7c37.7-1.4,74,0,111.7,2.8c22.3,1.4,311.4,41.9,321.2,43.3
	c7,1.4,9.8,5.6,14,11.2c7,11.2,106.1,170.4,125.7,201.1C1090,264.5,1090,268.7,1085.8,275.7z"/>
</svg>
