<?xml version="1.0" encoding="utf-8"?>
<!-- Generator: Adobe Illustrator 19.2.1, SVG Export Plug-In . SVG Version: 6.00 Build 0)  -->
<svg version="1.1" id="Layer_1" xmlns="http://www.w3.org/2000/svg" xmlns:xlink="http://www.w3.org/1999/xlink" x="0px" y="0px"
	 viewBox="0 0 1724.6 1490.9" style="enable-background:new 0 0 1724.6 1490.9;" xml:space="preserve">
<style type="text/css">
	.st0{opacity:0.8;fill:#FFFFFF;}
</style>
<path class="st0" d="M-60.5-35.7v1559.2h1833.1V-35.7H-60.5z M1722.9,930.9c-31.1,53.6-62.1,107.4-93.1,161.1
	c-33,57.2-65.9,114.4-99,171.5c-28.5,49.4-57.2,98.7-85.7,148.1c-14.4,25-28.8,50-43,75.1c-2.2,3.8-5.1,4-8.7,4
	c-177,0-354,0-530.9,0c-176.6,0-353.3,0-529.9,0.1c-5.3,0-8.1-1.6-10.9-6.3c-36.7-64.2-73.8-128.2-110.7-192.3
	c-34-58.9-68-117.8-101.9-176.7c-30-52-60-104-90-156C13.1,949.4,7.2,939.1,1.2,929c-1.6-2.7-1.5-4.6,0-7.2
	c14.7-25.1,29.2-50.2,43.7-75.3c22.6-39,45.2-78.1,67.8-117.1c24.2-41.7,48.5-83.4,72.8-125.2c22.8-39.3,45.5-78.7,68.3-118
	c27.6-47.5,55.2-94.9,82.8-142.4c26.5-45.6,52.8-91.3,79.3-136.9c24.3-41.9,48.7-83.7,73.1-125.6c14.7-25.4,29.4-50.8,44-76.3
	C535,1.4,537.6,0,542,0C755.7,0.1,969.3,0.1,1183,0c4.5,0,7,1.5,9.1,5.2c26.8,46.4,53.7,92.7,80.5,139
	c29.5,50.9,59,101.9,88.5,152.8c28.5,49.1,57.1,98,85.5,147.1c36.5,63,73,126,109.5,189c37.6,64.7,75.2,129.3,112.8,194
	c17.9,30.8,35.7,61.7,53.7,92.5C1725,923.6,1725.4,926.7,1722.9,930.9z"/>
</svg>
