<?xml version="1.0" encoding="utf-8"?>
<!-- Generator: Adobe Illustrator 19.2.1, SVG Export Plug-In . SVG Version: 6.00 Build 0)  -->
<svg version="1.1" id="Layer_1" xmlns="http://www.w3.org/2000/svg" xmlns:xlink="http://www.w3.org/1999/xlink" x="0px" y="0px"
	 viewBox="0 0 1728 1681.4" style="enable-background:new 0 0 1728 1681.4;" xml:space="preserve">
<style type="text/css">
	.st0{opacity:0.8;fill:#FFFFFF;}
</style>
<path class="st0" d="M-30.3-40.2v1754.9h1798.7V-40.2H-30.3z M1727.2,1000c-0.9,43.6-3.3,87.3-5.2,130.9c-1.5,33.6-3.1,67.2-5,100.8
	c-2.1,35.9-4.6,71.8-7,107.7c-2.1,31.2-4.1,62.5-6.6,93.7c-2.4,29.9-5.5,59.7-8.3,89.5c-2.1,21.9-4.3,43.8-6.6,65.6
	c-1.8,16.9-4,33.7-5.9,50.6c-0.4,3.6-2.7,3.2-5,3.2c-17.3,0.2-34.7,0.1-52,0.5c-54,1.2-108,2-161.9,3.9
	c-45.5,1.6-90.9,4.4-136.3,6.9c-34.9,2-69.9,4.1-104.7,6.6c-32.2,2.3-64.4,5.4-96.6,7.9c-18.8,1.5-37.6,2.6-56.4,3.6
	c-59.4,3-118.8,6.7-178.2,8.5c-51.3,1.6-102.6,1.5-154,1.1c-33.1-0.2-66.3-1.6-99.4-3.6c-30.7-1.9-61.5-4.5-92-8.6
	c-30-4-59.8-9.4-89.4-15.6c-23.2-4.9-46.2-11.2-68.8-18.4c-23.8-7.6-47.4-16.4-70.6-25.7c-29.7-11.9-57.1-28.1-83.2-46.7
	c-55.2-39.3-98.3-89.6-133.3-147.3c-19.6-32.2-33.5-66.7-44.4-102.5c-7.2-23.7-14.3-47.4-20-71.5c-8.2-34.3-15.5-68.8-19.1-104
	c-2.6-25.5-5.9-50.9-8.2-76.5c-2.5-27.9-4.7-55.8-6.1-83.7c-3.6-71.6-4-143.3-1.4-214.9c1.8-51,4.3-101.9,6.7-152.8
	c2-42.3,4.1-84.5,6.5-126.8c1.1-18.6,3.1-37.2,4.7-55.8c1.8-20.9,3.6-41.8,5.5-62.7c3.4-37.2,6.8-74.3,10.3-111.4
	c2.5-27,5.1-54.1,8-81c3.1-29.1,6.7-58.2,10-87.3c1-9.1,2-18.2,3.1-27.9c10.7-0.4,20.7-0.9,30.7-1.2c58.8-1.7,117.6-2.9,176.4-5.2
	c43.8-1.7,87.5-4.4,131.2-7.4c29.7-2,59.4-5.6,89.1-8.1c28.7-2.4,57.5-4.4,86.2-6.6c24.8-1.8,49.5-3.6,74.3-5.4
	c16.6-1.2,33.2-2.2,49.9-3.5c35.4-2.8,70.7-5.8,106.1-8.6c27.2-2.2,54.5-5,81.7-5.9c60.3-2,120.6-3.5,180.9-4.2
	c39.3-0.5,78.6,1.3,117.7,6.5c28,3.7,56,8,84,11.8c44.3,6,86.4,19.9,127.4,36.9c60.9,25.3,115.3,60.5,160.1,109.6
	c23.9,26.2,44.5,54.9,61.5,86c12.2,22.2,23.6,44.9,34.1,67.9c11.7,25.7,19.4,53,26.2,80.4c4.6,18.9,9.9,37.7,13.8,56.7
	c5.9,28.5,11.4,57.1,16.1,85.8c3.6,22.5,6.1,45.2,8.4,67.9c2.2,21.4,3.8,42.8,5,64.3c2.8,53.6,4.7,107.2,8,160.7
	C1728.4,889.7,1728.4,944.9,1727.2,1000z"/>
</svg>
