<?xml version="1.0" encoding="utf-8"?>
<!-- Generator: Adobe Illustrator 19.2.1, SVG Export Plug-In . SVG Version: 6.00 Build 0)  -->
<svg version="1.1" id="Layer_1" xmlns="http://www.w3.org/2000/svg" xmlns:xlink="http://www.w3.org/1999/xlink" x="0px" y="0px"
	 viewBox="0 0 937.2 978.8" style="enable-background:new 0 0 937.2 978.8;" xml:space="preserve">
<style type="text/css">
	.st0{opacity:0.8;fill:#FFFFFF;}
</style>
<path class="st0" d="M-30.3-24.1V1005h990.1V-24.1H-30.3z M914.5,862c-10.3,16.8-22.6,31.9-37.9,44.4c-16,13-34,21.8-53.9,26.7
	c-12.4,3.1-24.8,6.6-37.2,9.5c-16.8,3.9-33.7,7.4-50.5,10.9c-11.3,2.3-22.6,4.4-33.9,6.3c-12.4,2.1-24.8,3.8-37.2,5.6
	c-11.8,1.6-23.6,3.1-35.4,4.4c-12.8,1.4-25.7,2.8-38.6,3.8c-15,1.2-29.9,2.2-44.9,2.9c-32.9,1.7-65.9,2.8-98.8,1.8
	c-24.9-0.8-49.8-1.6-74.7-3.1c-17.6-1-35.2-2.9-52.7-4.7c-12.7-1.3-25.3-2.7-38-4.4c-13.3-1.8-26.5-3.7-39.7-5.9
	c-14.5-2.4-29-4.9-43.4-7.8c-16.4-3.3-32.8-7-49.1-10.9c-15.5-3.8-31.1-7.6-46.4-12.3c-15.2-4.7-28.9-12.7-41.2-22.8
	c-21.7-17.8-37.7-40.1-49-65.6C3.7,822.6,0,803.3,0,783.2c0.1-97.9,0-195.9,0-293.8c0-97.7,0.1-195.5-0.1-293.2
	c-0.1-28.8,7.8-55.1,22.8-79.5c10.7-17.5,23.5-33.1,39.7-45.8c15.1-11.9,32-20.1,50.5-24.9c14.1-3.6,28.3-7.1,42.6-10.2
	c18.5-4,37.1-7.8,55.7-11.3c18-3.4,36-6.6,54.1-9.2c22.5-3.2,45.1-6.2,67.7-8.5c47.7-4.8,95.5-7.3,143.4-6.7c26,0.3,51.9,1.5,77.8,3
	c21.7,1.2,43.3,3.2,64.9,5.4c16,1.6,32,4,48,6.3c15.4,2.2,30.8,4.6,46.1,7.2c11,1.9,21.9,4.1,32.8,6.3c14.2,2.9,28.4,5.8,42.6,8.9
	c11.1,2.5,22.1,5.5,33.2,8.1c14.6,3.4,28.3,9.1,41,17c16.3,10.1,29.7,23.3,41.2,38.6c9.3,12.4,17.1,25.6,22.9,40
	c4.8,11.9,8.4,24.2,9.4,37.1c0.6,7.8,0.9,15.6,1,23.5c0.1,193.7,0,387.4,0.1,581.1C937.3,811.3,929.4,837.6,914.5,862z"/>
</svg>
