<?xml version="1.0" encoding="utf-8"?>
<!-- Generator: Adobe Illustrator 19.2.1, SVG Export Plug-In . SVG Version: 6.00 Build 0)  -->
<svg version="1.1" id="Layer_1" xmlns="http://www.w3.org/2000/svg" xmlns:xlink="http://www.w3.org/1999/xlink" x="0px" y="0px"
	 viewBox="0 0 1727.5 1726.5" style="enable-background:new 0 0 1727.5 1726.5;" xml:space="preserve">
<style type="text/css">
	.st0{opacity:0.8;fill:#FFFFFF;}
</style>
<path class="st0" d="M-16.5-12.1v1753.5H1752V-12.1H-16.5z M1727.5,1241.1c0,7.5,0,7.5-7.7,7.5c-154.3,0-308.7,0-463,0
	c-7.6,0-7.6,0-7.6,7.5c0,154.3,0,308.7,0,463c0,2.3,0,4.6,0,7.4c-257.2,0-513.6,0-770.7,0c0-2.7,0-5.2,0-7.6
	c0-154.2,0-308.3,0-462.5c0-8.7,0.7-7.8-7.8-7.8c-154.2,0-308.3,0-462.5,0c-1.5,0-3.2,0.5-4.4-0.1c-1.4-0.7-2.7-2.2-3.5-3.6
	c-0.5-1.1-0.1-2.6-0.1-3.9c0-250.7,0-501.3,0-752c0-8.1,0-8.1,8.2-8.1c154,0,308,0,462,0c9,0,8.1,0.8,8.1-8c0-155.2,0-310.3,0-465.5
	c0-7.4,0-7.4,7.2-7.4C737.8,0,990,0,1242.2,0c7,0,7,0,7,7.1c0,155.5,0,311,0,466.5c0,7.3,0,7.3,7.3,7.3c154.2,0,308.3,0,462.5,0
	c9.8,0,8.5-0.1,8.5,8.2C1727.5,739.8,1727.5,990.5,1727.5,1241.1z"/>
</svg>
