<?xml version="1.0" encoding="utf-8"?>
<!-- Generator: Adobe Illustrator 19.2.1, SVG Export Plug-In . SVG Version: 6.00 Build 0)  -->
<svg version="1.1" id="Layer_1" xmlns="http://www.w3.org/2000/svg" xmlns:xlink="http://www.w3.org/1999/xlink" x="0px" y="0px"
	 viewBox="0 0 1724.8 1724.7" style="enable-background:new 0 0 1724.8 1724.7;" xml:space="preserve">
<style type="text/css">
	.st0{opacity:0.8;fill:#FFFFFF;}
</style>
<path class="st0" d="M-27.8-21.1v1789.7h1789.7V-21.1H-27.8z M1438.4,1724.6c-160.6-153.7-352.1-237.5-576.1-237.5
	c-223.9,0-415.2,83.8-576,237.6C190.9,1629.2,95.6,1533.9,0,1438.3c153.7-160.7,237.6-352,237.6-575.8
	c0.1-223.9-83.6-415.2-237.2-576C95.8,191.2,191.2,95.8,286.8,0.2c160.3,153.4,351.6,237.2,575.5,237.2
	c223.9,0,415.2-83.7,576-237.4c95.4,95.4,190.8,190.8,286.4,286.4c-153.6,160.6-237.4,351.9-237.4,575.8
	c0,223.9,83.8,415.2,237.5,576C1629.4,1533.6,1534.1,1628.9,1438.4,1724.6z"/>
</svg>
