<?xml version="1.0" encoding="utf-8"?>
<!-- Generator: Adobe Illustrator 19.2.1, SVG Export Plug-In . SVG Version: 6.00 Build 0)  -->
<svg version="1.1" id="Layer_1" xmlns="http://www.w3.org/2000/svg" xmlns:xlink="http://www.w3.org/1999/xlink" x="0px" y="0px"
	 viewBox="0 0 1723.8 1726.3" style="enable-background:new 0 0 1723.8 1726.3;" xml:space="preserve">
<style type="text/css">
	.st0{opacity:0.8;fill:#FFFFFF;}
</style>
<path class="st0" d="M-26.8-18.1v1771.6h1771.6V-18.1H-26.8z M1.3,1726.3c-0.2-0.3-0.3-0.6-0.5-1c6.2-4.3,12.3-8.6,18.5-13
	c49.4-35.2,92.8-76.7,129.1-125.5c31.8-42.7,58.1-88.7,80.1-137.1c14.1-30.8,26.5-62.4,35.8-95c10.1-35.1,19.5-70.5,27.1-106.2
	c6.6-31,11.5-62.6,15.1-94.1c4.4-38.2,7-76.6,9.8-115c5.7-78,7.1-156.2,5.1-234.3c-1.3-50.6-4-101.2-7.4-151.8
	c-2.3-34.9-6.2-69.7-10.4-104.4c-2.7-21.9-7.1-43.7-11.1-65.4c-6.8-37.7-16.2-74.7-27.9-111.1c-8.3-25.7-17.8-51.1-27.8-76.2
	c-13-32.7-29.2-63.9-46.9-94.3C150.6,134.7,101.3,76.2,39.2,28.8c-12-9.1-24.4-17.7-36.7-26.6C1.9,1.8,1.4,1.3,0,0
	c575,0,1148.9,0,1723.5,0c-0.9,1-1.3,1.8-1.9,2.3c-43.2,29-82.5,62.5-117.1,101.6c-29.6,33.5-54.4,70.2-76.5,108.9
	c-16.7,29.3-31.3,59.6-44,90.8c-12.1,29.9-22.9,60.2-31.2,91.4c-6,22.3-12.2,44.6-17,67.1c-5.1,23.6-9.1,47.4-12.9,71.2
	c-3.3,21.2-6,42.5-8.3,63.9c-2.1,19-3.5,38.1-4.9,57.2c-6.7,88.6-9.4,177.4-7.1,266.3c1.3,50.8,4,101.6,7.4,152.3
	c2.3,34.9,6.2,69.7,10.4,104.4c2.7,21.9,7.1,43.7,11.1,65.4c6.8,37.7,16.2,74.7,27.9,111.1c8.3,25.7,17.8,51.1,27.8,76.2
	c13,32.5,29.1,63.5,46.7,93.8c37.6,64.5,84.3,121.2,143.1,167.4c14.6,11.5,29.9,22,44.9,33c0.5,0.3,0.8,0.9,1.8,2.1
	C1149.1,1726.3,575.2,1726.3,1.3,1726.3z"/>
</svg>
