<?xml version="1.0" encoding="utf-8"?>
<!-- Generator: Adobe Illustrator 19.2.1, SVG Export Plug-In . SVG Version: 6.00 Build 0)  -->
<svg version="1.1" id="Layer_1" xmlns="http://www.w3.org/2000/svg" xmlns:xlink="http://www.w3.org/1999/xlink" x="0px" y="0px"
	 viewBox="0 0 980 980.3" style="enable-background:new 0 0 980 980.3;" xml:space="preserve">
<style type="text/css">
	.st0{opacity:0.8;fill:#FFFFFF;}
</style>
<path class="st0" d="M-6-4.8v992h992v-992L-6-4.8L-6-4.8z M964,528.3c-11.8,15.2-15.4,25.6-15.6,45.9c-0.2,13.6,0.8,19.2,4.4,27.5
	c12.4,28.6,5.2,52.7-20.8,69.3c-15,9.6-22,17.4-29.5,33c-5.8,12-6.2,14.8-6.4,35.3c-0.4,18.6-1.2,24-4.8,31.3
	c-6.2,12.8-17.6,22.4-31.4,26.2c-36.1,10-53.5,27.4-63.5,63.5c-3.8,13.8-13.4,25.2-26.2,31.3c-7.4,3.6-12.8,4.4-31.4,4.8
	c-20.6,0.2-23.4,0.6-35.3,6.4c-15.6,7.6-23.4,14.6-33,29.5c-16.6,26-40.7,33.2-69.3,20.8c-8.4-3.6-14-4.6-27.5-4.4
	c-20.4,0.2-30.8,3.8-45.9,15.6c-17,13.2-23.2,16-37.9,16s-21-2.8-37.9-16c-15.6-12.2-25.4-15.4-46.9-15.4c-14.4-0.2-20,0.8-28,4.4
	c-27.2,12.2-51.5,4.8-67.9-21c-9.6-15-17.4-22-33-29.6c-12-5.8-14.8-6.2-35.3-6.4c-18.6-0.4-24-1.2-31.3-4.8
	c-12.8-6.2-22.4-17.6-26.2-31.4c-10-36.1-27.4-53.5-63.5-63.5c-13.8-3.8-25.2-13.4-31.3-26.2c-3.6-7.4-4.4-12.8-4.8-31.4
	c-0.2-20.6-0.6-23.4-6.4-35.3c-7.6-15.6-14.6-23.4-29.4-32.8c-17.8-11.4-27.2-26.6-27.4-44.1c0-4.6,2.8-16.2,6.2-26
	c5.4-15.4,6.2-19.8,5.2-30.9c-1.6-17.6-5.8-28.8-16.2-41.9c-13.2-17-16-23.2-16-37.9c0-14.4,3-21.6,14.2-35.3
	c10.2-12.8,16.6-28.5,18-43.9c0.8-11.6,0.2-16.2-5.2-32.2c-3.4-10.2-6.2-21.8-6.2-26c0.2-17,10-32.4,27.4-43.5
	c14.8-9.4,21.8-17.2,29.3-32.8c5.8-12,6.2-14.8,6.4-35.3c0.4-18.6,1.2-24,4.8-31.4c6.2-12.8,17.6-22.4,31.4-26.2
	c36.1-10,53.5-27.4,63.5-63.5c3.8-13.8,13.4-25.2,26.2-31.4c7.4-3.6,12.8-4.4,31.3-4.8c21-0.2,23.4-0.6,35.3-6.6
	c15-7.4,24-15.4,33.3-29.9c10.6-16.8,26.2-26.4,42.9-26.6c4.2,0,15.8,2.8,26,6.2c16,5.4,20.6,6,32.2,5.2c15.4-1.4,31.2-7.8,43.9-18
	c9.8-8,16-11.6,24.4-13.6c8.2-2.2,24.2-0.2,31.7,3.6c3.4,1.8,11.2,7,17.2,11.6c13.8,10.6,25.2,15,41.9,16.4c11.2,1,15.6,0.2,31-5.2
	c9.8-3.4,21.4-6.2,26-6.2c17.6,0.2,32.8,9.6,44.1,27.4c9.4,14.8,17.2,21.8,32.8,29.3c12,5.8,14.8,6.2,35.3,6.4
	c18.6,0.4,24,1.2,31.4,4.8c12.8,6.2,22.4,17.6,26.2,31.4c10,36.1,27.3,53.5,63.5,63.5c13.8,3.8,25.2,13.4,31.4,26.2
	c3.6,7.4,4.4,12.8,4.8,31.4c0.2,20.6,0.6,23.4,6.4,35.3c7.6,15.6,14.6,23.4,29.5,33c25.8,16.4,33.2,40.7,21,67.9
	c-3.4,7.6-4.6,14-4.6,27c-0.2,20.6,4,33.7,15.4,47.3c12.6,15.2,16.2,23.8,16.2,38.5C980,505.1,977.2,511.3,964,528.3z"/>
</svg>
