<?xml version="1.0" encoding="utf-8"?>
<!-- Generator: Adobe Illustrator 19.2.1, SVG Export Plug-In . SVG Version: 6.00 Build 0)  -->
<svg version="1.1" id="Layer_1" xmlns="http://www.w3.org/2000/svg" xmlns:xlink="http://www.w3.org/1999/xlink" x="0px" y="0px"
	 viewBox="0 0 263.2 220.5" style="enable-background:new 0 0 263.2 220.5;" xml:space="preserve">
<style type="text/css">
	.st0{opacity:0.3;fill:#FFFFFF;enable-background:new    ;}
	.st1{opacity:0.1;fill:#FFFFFF;enable-background:new    ;}
	.st2{opacity:0.2;fill:#FFFFFF;enable-background:new    ;}
	.st3{opacity:0.8;fill:#FFFFFF;}
</style>
<path class="st0" d="M142,39.6c1.9,12.9,10.5,26.4,23.5,27.5c11.9,1,23.1-8.6,34.8-6.2c14.4,2.9,18.9,20.5,24.9,33.9
	c6.7,15,19,26.9,33.6,34.4c8.3-29.8,6-62.6-12.4-86.8C226.2,15.8,182.7,4.7,141.7,1.3C142.6,14,140.1,27,142,39.6z"/>
<path class="st1" d="M237.4,165.4c-10.6-11.4-16.7-26.2-24.5-39.7s-18.7-26.6-33.8-30.5c-20.5-5.2-42.6,8.1-62.8,1.9
	C101.1,92.4,91,77.5,86.5,62.2S82,30.7,79.9,14.9c-0.6-4.4-1.4-8.9-2.5-13.3c-16.2,1.7-33,5.3-46.3,14c4,21.2-0.4,43.2,0.1,64.8
	c0.6,22.2,8.8,47,29.2,55.7c21.1,9.1,45.9-2.7,68.3,2.5c24.4,5.7,39.4,29.2,58.2,45.6c6.4,5.5,13.4,10.3,20.8,14.2
	c6.7-4.2,13-9,18.9-14.5c5-4.7,9.6-10,13.7-15.8C239.3,167.3,238.3,166.3,237.4,165.4z"/>
<path class="st2" d="M225.3,94.8c-6-13.4-10.6-31-24.9-33.9c-11.7-2.4-22.9,7.2-34.8,6.2C152.6,66,144,52.5,142,39.6
	c-1.9-12.7,0.6-25.6-0.4-38.4c-23-1.9-45.2-1.4-62.1,0.1c-0.8,0.1-1.5,0.1-2.3,0.2c1.1,4.4,1.9,8.8,2.5,13.3
	c2.1,15.8,2.2,32,6.6,47.3c4.5,15.3,14.6,30.2,29.8,34.9c20.2,6.2,42.3-7.1,62.8-1.9c15.1,3.8,26,17,33.8,30.5s13.8,28.3,24.5,39.7
	c0.9,1,1.9,1.9,2.9,2.9c8.2-11.5,14.6-24.9,18.5-39.1C244.3,121.7,232,109.7,225.3,94.8z"/>
<path class="st3" d="M-7.1-6.1v233.8h276.4V-6.1H-7.1z M258.6,129.1c-4,14.1-10.3,27.6-18.5,39.1c-4.1,5.8-8.7,11.1-13.7,15.8
	c-5.9,5.5-12.2,10.3-18.9,14.5c-38.4,24.1-88.9,27.7-132.8,14.2C49,204.8,23.8,190.4,11,166.9c-12.4-22.7-11.4-50-10.2-75.8
	c1.1-23,3-47.8,18.1-65.2c3.5-4,7.6-7.4,12-10.3C44.2,7,61,3.3,77.2,1.6c0.8-0.1,1.5-0.2,2.3-0.2c16.8-1.5,39-2,62.1-0.1
	c41,3.4,84.5,14.5,104.8,41.1C264.6,66.6,266.9,99.4,258.6,129.1z"/>
</svg>
