<?xml version="1.0" encoding="utf-8"?>
<!-- Generator: Adobe Illustrator 19.2.1, SVG Export Plug-In . SVG Version: 6.00 Build 0)  -->
<svg version="1.1" id="Layer_1" xmlns="http://www.w3.org/2000/svg" xmlns:xlink="http://www.w3.org/1999/xlink" x="0px" y="0px"
	 viewBox="0 0 288.2 201.5" style="enable-background:new 0 0 288.2 201.5;" xml:space="preserve">
<style type="text/css">
	.st0{opacity:0.3;fill:#FFFFFF;enable-background:new    ;}
	.st1{opacity:0.2;fill:#FFFFFF;enable-background:new    ;}
	.st2{opacity:0.1;fill:#FFFFFF;enable-background:new    ;}
	.st3{opacity:0.8;fill:#FFFFFF;}
</style>
<g>
	<g>
		<path class="st0" d="M69.9,167.6c-2.5,0.7-5,1.4-7.4,2.3c14.3,14.7,30.2,27.7,44.9,30.9c12.5,2.7,28-3.1,40.1-5.7
			c17.5-3.8,34.8-8.7,51.8-14.8c2.5-0.9,5.1-1.8,7.6-2.8c-25.7-5.4-51.7-9.4-77.9-12C109.3,163.6,89.1,162.5,69.9,167.6z"/>
		<path class="st1" d="M220.5,83c-12.4,18.1-21.9,40.2-40.2,51.1c-19.8,11.8-44.6,6.9-65.3-2.7c-20.8-9.6-39.9-23.5-61.7-30
			c-13.6-4-29.1-4.3-42.1,0.7c6.2,12.8,14.4,24.5,23,35.2c7.7,9.5,17.5,21.5,28.2,32.6c2.4-0.9,4.9-1.7,7.4-2.3
			c19.2-5.1,39.4-4,59.1-2.1c26.1,2.6,52.1,6.6,77.9,12c24.1-9.3,47.6-22.3,63.9-45.3c18-25.4,24.3-65.9,7.9-94.3
			c-0.5-0.9-1.1-1.7-1.6-2.6C254.9,45.6,235,62,220.5,83z"/>
		<path class="st2" d="M230.2,6c-12.9,16-24,33.9-37.5,49.3c-16.5,18.8-38.4,34.5-62.4,33.5C94.4,87.4,64.6,49.2,28.9,53.9
			C18.3,55.3,8.7,60.5,0.7,68c0.3,2.2,0.6,4.3,1,6.5c2,9.8,5.3,19,9.5,27.7c13.1-5,28.5-4.7,42.1-0.7c21.8,6.5,40.9,20.4,61.7,30
			s45.5,14.5,65.3,2.7c18.3-10.9,27.7-33,40.2-51.1C235,62,254.9,45.6,277.1,35.4C266,18.1,248,8.6,230.2,6z"/>
	</g>
</g>
<path class="st3" d="M-7.4-5.5v214.2h302.7V-5.5H-7.4z M270.8,132.2c-16.3,23-39.9,36-63.9,45.3c-2.5,1-5.1,1.9-7.6,2.8
	c-17,6.1-34.3,11-51.8,14.8c-12.1,2.6-27.6,8.4-40.1,5.7c-14.7-3.2-30.6-16.2-44.9-30.9c-10.8-11.1-20.6-23.1-28.2-32.6
	c-8.6-10.7-16.8-22.4-23-35.2C7,93.5,3.7,84.3,1.7,74.5c-0.4-2.1-0.8-4.3-1-6.5c-2.8-22.6,3-47,18.2-59.2
	c13.3-10.7,30.9-10.2,46.8-6S96.9,14.7,113,17.4c19.3,3.2,38.7-0.9,57.6-5.2s38.2-8.8,57.5-6.5c0.7,0.1,1.4,0.2,2.1,0.3
	C248,8.6,266,18.1,277.1,35.4c0.5,0.8,1.1,1.7,1.6,2.6C295.1,66.3,288.8,106.8,270.8,132.2z"/>
</svg>
