<?xml version="1.0" encoding="utf-8"?>
<!-- Generator: Adobe Illustrator 19.2.1, SVG Export Plug-In . SVG Version: 6.00 Build 0)  -->
<svg version="1.1" id="Layer_1" xmlns="http://www.w3.org/2000/svg" xmlns:xlink="http://www.w3.org/1999/xlink" x="0px" y="0px"
	 viewBox="0 0 287.9 258.3" style="enable-background:new 0 0 287.9 258.3;" xml:space="preserve">
<style type="text/css">
	.st0{opacity:0.8;fill:#FFFFFF;}
	.st1{opacity:0.1;fill:#FFFFFF;enable-background:new    ;}
	.st2{opacity:0.2;fill:#FFFFFF;enable-background:new    ;}
	.st3{opacity:0.3;fill:#FFFFFF;enable-background:new    ;}
</style>
<path class="st0" d="M-13.8-8.2v275H299v-275L-13.8-8.2L-13.8-8.2z M285.3,145.2c-0.9,2.6-1.9,5.1-3.1,7.5
	c-7.1,13.8-19.1,24.3-31.4,33.8c-9.5,7.3-19.3,14.2-29.4,20.6c-31.7,20.2-66.2,35.9-102.2,46.5c-15.6,4.6-33.3,8-47.4-0.2
	c-4.7-2.7-8.5-6.5-11.7-10.8c-4.3-5.7-7.7-12.3-10.8-18.7c-12.2-24.9-24.5-49.7-36.7-74.6c-4.7-9.6-9.5-19.3-11.5-29.7
	C-2.7,99.7,3.8,79,14.8,62c5.7-8.9,12.7-17.1,20.5-24.4c10.5-9.8,22.6-18,35.6-24.2C87,5.7,104.4,1,122,0.1
	c20.2-1.1,42.5,8.7,49.3,27.8c0,0.1,0.1,0.2,0.1,0.2c3.7,10.6,2.5,22.7,7.2,32.9c8.2,17.9,30.7,23.3,50.2,25.7
	c19.5,2.4,41.8,5.4,53,21.6C289.1,118.9,289.4,132.8,285.3,145.2z"/>
<path class="st1" d="M161.2,151c-11-23.5-15.9-53.2-38.7-65.6c-17.4-9.5-41.7-6-55-20.7c-9.6-10.7-9.3-27.6-3.1-40.5
	c1.8-3.8,4-7.3,6.5-10.6c-13,6.3-25.1,14.5-35.6,24.2c-0.8,1.2-1.5,2.5-2.2,3.8c-7.4,13.6-9.4,31.3-0.7,44.1
	c15.8,23.5,55.9,18.8,71.7,42.3c12.2,18.1,3.1,42.6-7.7,61.6c-10.6,18.6-22.8,36.4-36.2,53.1c3.3,4.3,7.1,8.1,11.7,10.8
	c14,8.2,31.8,4.8,47.4,0.2c36-10.6,70.5-26.4,102.2-46.5C195.4,196.6,173.1,176.4,161.2,151z"/>
<path class="st2" d="M122,0.2c-17.6,0.9-35,5.6-51.1,13.3c-2.5,3.3-4.7,6.8-6.5,10.6c-6.2,13-6.5,29.9,3.1,40.5
	c13.3,14.7,37.5,11.2,55,20.7c22.8,12.4,27.6,42.1,38.7,65.6c12,25.5,34.2,45.6,60.3,56.2c10.1-6.4,19.9-13.3,29.4-20.6
	c12.3-9.5,24.3-20,31.4-33.8c1.2-2.4,2.3-4.9,3.1-7.5c-16.5,4.3-34.2,3.7-50.1-2.3c-27.8-10.5-47.6-34.7-66.1-58
	c-6.6-8.4-13.6-17.7-13.3-28.4c0.3-9,5.8-16.9,11.6-23.7c1.3-1.6,2.7-3.2,4.1-4.7c0-0.1-0.1-0.2-0.1-0.2
	C164.5,8.9,142.2-0.9,122,0.2z"/>
<path class="st3" d="M155.7,56.6c-0.3,10.7,6.7,20,13.3,28.4c18.5,23.2,38.3,47.5,66.1,58c15.9,6,33.7,6.5,50.1,2.3
	c4.1-12.3,3.8-26.3-3.5-36.8c-11.2-16.2-33.4-19.2-53-21.6c-19.5-2.4-42-7.8-50.2-25.7c-4.7-10.2-3.4-22.3-7.2-32.9
	c-1.4,1.6-2.8,3.2-4.1,4.7C161.5,39.8,156,47.7,155.7,56.6z"/>
</svg>
