<?xml version="1.0" encoding="utf-8"?>
<!-- Generator: Adobe Illustrator 19.2.1, SVG Export Plug-In . SVG Version: 6.00 Build 0)  -->
<svg version="1.1" id="Layer_1" xmlns="http://www.w3.org/2000/svg" xmlns:xlink="http://www.w3.org/1999/xlink" x="0px" y="0px"
	 viewBox="0 0 293.7 223.9" style="enable-background:new 0 0 293.7 223.9;" xml:space="preserve">
<style type="text/css">
	.st0{opacity:0.8;fill:#FFFFFF;}
	.st1{opacity:0.2;fill:#FFFFFF;enable-background:new    ;}
	.st2{opacity:0.3;fill:#FFFFFF;enable-background:new    ;}
	.st3{opacity:0.1;fill:#FFFFFF;enable-background:new    ;}
</style>
<path class="st0" d="M-7.9-6.4v239.9h310.1V-6.4H-7.9z M293,130.4c-3.5,19.3-21,32.8-38.2,42.2c-37.1,20.4-78.6,31.2-119.7,41.5
	c-22.1,5.5-44.6,11-67.3,9.5c-0.8-0.1-1.5-0.1-2.3-0.2c-22-2-44.1-11.8-56.1-30.2c-8-12.4-10.6-27.3-9-42.1
	c0.9-8.9,3.3-17.6,6.8-25.7c5-11.4,12-21.7,20-31.2c7.2-8.5,15.1-16.5,23.2-24.1c17.1-16,35-31.1,53.8-45.1
	c12.2-9.1,25.2-18.3,39.8-23.3c15.3-5.3,26.6,3.9,39.9,11.4c18.2,10.2,35.6,21.8,52,34.6c6.9,5.4,13.6,10.9,20.1,16.7
	c2.3,2,4.6,4.1,6.8,6.2c6.6,6.1,13.2,12.9,18.5,20.4C290.1,102.7,295.6,116.2,293,130.4z"/>
<g>
	<path class="st1" d="M221,71.2c-16.7,8.8-29.5,23.3-41.6,37.7c-12.2,14.4-24.4,29.2-40.5,39.1c-27.5,16.9-62.1,16.6-94,11.5
		c-14.8-2.3-29.4-5.6-44.2-8.4c-1.5,14.8,1,29.7,9,42.1c12,18.4,34.1,28.2,56.1,30.2c31.1-4.2,61.5-13.9,87.2-31.7
		c25.3-17.6,44.7-42,67.1-63.2c17.7-16.7,38.5-31.8,61.7-37.8c-5.4-7.4-11.9-14.3-18.5-20.4c-2.3-2.1-4.5-4.1-6.8-6.2
		C244.5,62.7,231.7,65.5,221,71.2z"/>
	<path class="st2" d="M153,191.7c-25.6,17.8-56.1,27.5-87.2,31.7c0.8,0.1,1.5,0.1,2.3,0.2c22.7,1.6,45.2-3.9,67.3-9.5
		c41.1-10.3,82.6-21.1,119.7-41.5c17.2-9.5,34.7-22.9,38.2-42.2c2.6-14.2-2.9-27.7-11.6-39.6c-23.1,6-44,21.1-61.7,37.8
		C197.7,149.6,178.2,174.1,153,191.7z"/>
	<path class="st3" d="M0.7,151.1c14.7,2.8,29.4,6.1,44.2,8.4c31.9,5.1,66.5,5.3,94-11.5c16.1-9.8,28.3-24.7,40.5-39.1
		s25-28.9,41.6-37.7c10.7-5.7,23.5-8.5,35.4-6.9c-6.5-5.8-13.2-11.3-20.1-16.7c-15.4,0.3-30.5,4.3-43.5,12.4
		c-18.2,11.4-31.5,30.1-50.8,39.4c-26.2,12.6-57.1,5.3-85.5-0.7c-9.4-2-19.2-3.7-28.9-4.5c-8,9.6-15,19.8-20,31.2
		C4,133.4,1.6,142.2,0.7,151.1z"/>
</g>
</svg>
