<?xml version="1.0" encoding="utf-8"?>
<!-- Generator: Adobe Illustrator 19.2.1, SVG Export Plug-In . SVG Version: 6.00 Build 0)  -->
<svg version="1.1" id="Layer_1" xmlns="http://www.w3.org/2000/svg" xmlns:xlink="http://www.w3.org/1999/xlink" x="0px" y="0px"
	 viewBox="0 0 300.3 202.8" style="enable-background:new 0 0 300.3 202.8;" xml:space="preserve">
<style type="text/css">
	.st0{opacity:0.8;fill:#FFFFFF;}
	.st1{opacity:0.3;fill:#FFFFFF;enable-background:new    ;}
	.st2{opacity:0.2;fill:#FFFFFF;enable-background:new    ;}
	.st3{opacity:0.1;fill:#FFFFFF;enable-background:new    ;}
</style>
<path class="st0" d="M-9.8-11.7v224.3h318.2V-11.7H-9.8z M300.3,83.4c-0.1,2.4-0.3,4.7-0.6,7c-3.7,26.2-22.1,47.9-41.6,63.6
	c-4,3.2-8,6.2-12.2,9.1c-29.1,20.2-62.3,32.9-96.3,37.3c-15.6,2-36.8,5.5-51.5-2.2c-15.3-8.1-29.8-22.7-44.4-32.6
	c-15.7-10.6-31.3-22.4-42-39.2C1,109.5-3.9,86.7,3.6,67.9c3.1-7.7,8-14.2,13.9-19.5c5.4-4.9,11.7-8.7,18.2-11.6c6.8-3,13.8-5,21-6.7
	c7-1.7,14.1-3,21.1-4.5c4.9-1.1,9.7-2.2,14.5-3.5c23-5.9,45.8-13.3,69.1-17.9c28.2-5.6,57.7-6.9,84.8,3.6
	c14.6,5.7,28.3,14.8,38.4,27.9c3.2,4.1,6,8.7,8.4,13.5C297.9,59.8,300.7,71.5,300.3,83.4z"/>
<path class="st1" d="M292.9,49.3c-2.3-4.8-5.2-9.4-8.4-13.5c-10.1-13.1-23.8-22.3-38.4-27.9c-27-10.5-56.6-9.2-84.8-3.6
	c-23.3,4.6-46,12-69.1,17.9c25.2,7.4,48.1,21.7,73.4,29.3C206.7,64,250.4,58,292.9,49.3z"/>
<path class="st2" d="M116.1,83.9c11.3,12.1,26.2,22.4,42.8,22.4c13.8,0,26.4-7.2,39.2-12.4c32-13.1,68.7-14,101.6-3.5
	c0.3-2.3,0.5-4.6,0.6-7c0.4-11.8-2.4-23.6-7.4-34C250.4,58,206.7,64,165.7,51.5c-25.2-7.7-48.1-22-73.4-29.3
	c-4.8,1.2-9.7,2.4-14.5,3.5c-7,1.5-14.1,2.8-21.1,4.5c10.1,2.7,19.5,8.8,27.2,16.1C95.8,57.6,104.8,71.8,116.1,83.9z"/>
<path class="st3" d="M299.7,90.3c-32.9-10.5-69.6-9.6-101.6,3.5c-12.8,5.2-25.4,12.4-39.2,12.4c-16.6,0-31.4-10.3-42.8-22.4
	c-11.3-12.1-20.3-26.3-32.3-37.7C76.1,38.9,66.7,32.7,56.6,30c-7.1,1.7-14.2,3.7-21,6.7c-6.5,2.8-12.7,6.7-18.2,11.6
	c11.4,1.7,22.7,7.8,31,16C63.2,79,71,98.9,79.8,117.7c8.8,18.7,19.9,37.8,38.1,47.7c19.3,10.5,42.7,8.5,64.5,6
	c21.2-2.5,42.4-5.3,63.5-8.4c4.1-2.9,8.2-5.9,12.2-9.1C277.6,138.2,296,116.6,299.7,90.3z"/>
</svg>
