<?xml version="1.0" encoding="utf-8"?>
<!-- Generator: Adobe Illustrator 19.2.1, SVG Export Plug-In . SVG Version: 6.00 Build 0)  -->
<svg version="1.1" id="Layer_1" xmlns="http://www.w3.org/2000/svg" xmlns:xlink="http://www.w3.org/1999/xlink" x="0px" y="0px"
	 viewBox="0 0 287.4 233" style="enable-background:new 0 0 287.4 233;" xml:space="preserve">
<style type="text/css">
	.st0{opacity:0.2;fill:#FFFFFF;enable-background:new    ;}
	.st1{opacity:0.3;fill:#FFFFFF;enable-background:new    ;}
	.st2{opacity:0.1;fill:#FFFFFF;enable-background:new    ;}
	.st3{opacity:0.8;fill:#FFFFFF;}
</style>
<g>
	<path class="st0" d="M162.3,81.8c-0.3,19.6-7,40.1,0,58.4c8.5,21.9,33.1,32.2,55.2,40.1c18,6.5,36,12.9,54.1,19.4
		c1.2-2,2.4-4,3.6-6.2c16.3-30.8,14.3-68.1,5.5-101.9c-8.4-2.4-16.9-4.8-25.3-7.2c-21.3-6.1-43.6-12.8-59.1-28.6
		c-11.8-12-18.4-28-28.3-41.5c-2.8-3.9-6.1-7.5-9.8-10.8c-15.1-0.6-30.3-1.2-45.4-1.9C141.8,17,162.8,48.6,162.3,81.8z"/>
	<path class="st1" d="M196.2,55.8c15.5,15.8,37.8,22.5,59.1,28.6c8.4,2.4,16.9,4.8,25.3,7.2c-0.4-1.3-0.7-2.7-1.1-4
		c-8.1-29-22.4-58.9-49.2-72.7c-17.4-9-37.6-10-57.2-10.8c-5-0.2-10-0.4-15-0.6c3.7,3.3,7,7,9.8,10.8
		C177.9,27.8,184.5,43.8,196.2,55.8z"/>
	<path class="st2" d="M217.6,180.3c-22.1-7.9-46.8-18.2-55.2-40.1c-7.1-18.3-0.4-38.8,0-58.4c0.5-33.2-20.5-64.8-49.6-80.2
		c-12.3-0.5-24.6-1-36.8-1.5c-1.1,0-2-0.1-2.9-0.1c22.7,16.4,39.8,43.2,36.8,71c-2.8,25.9-22.1,51.1-13.4,75.7
		c5,14.2,18.6,23.7,32.8,28.8s29.3,6.5,44,9.9c27.5,6.4,53.1,20,74.2,38.7c9-5.2,17.2-13.1,24.2-24.4
		C253.6,193.2,235.6,186.8,217.6,180.3z"/>
</g>
<path class="st3" d="M-10.2-8.6v250h306.1v-250C295.9-8.6-10.2-8.6-10.2-8.6z M275.2,193.7c-1.2,2.2-2.3,4.2-3.6,6.2
	c-7,11.3-15.2,19.2-24.2,24.4c-30.5,17.8-70.2,4.9-105.8-8.2C84.5,195,35.9,151.6,10.6,95.9C-1.6,69.2-6.8,33.5,14.9,13.7
	C30.1,0,52.5-0.5,73.1,0.2c0.9,0,1.9,0.1,2.8,0.1c12.3,0.5,24.6,1,36.8,1.5C127.8,2.4,143,3,158.1,3.7c5,0.2,10,0.4,15,0.6
	C192.7,5.1,213,6.1,230.4,15c26.8,13.8,41.1,43.7,49.2,72.7c0.4,1.3,0.7,2.7,1.1,4C289.5,125.6,291.5,162.9,275.2,193.7z"/>
</svg>
