<?xml version="1.0" encoding="utf-8"?>
<!-- Generator: Adobe Illustrator 19.2.1, SVG Export Plug-In . SVG Version: 6.00 Build 0)  -->
<svg version="1.1" id="Layer_1" xmlns="http://www.w3.org/2000/svg" xmlns:xlink="http://www.w3.org/1999/xlink" x="0px" y="0px"
	 viewBox="0 0 1732.7 1730" style="enable-background:new 0 0 1732.7 1730;" xml:space="preserve">
<style type="text/css">
	.st0{opacity:0.8;fill:#FFFFFF;}
</style>
<path class="st0" d="M-37.3-33.4v1792.2h1792.2V-33.4H-37.3z M1730.5,181.5c-3.6,25-12.3,48.2-24.4,70.1
	c-9.7,17.6-24.7,30.2-40.4,41.9c-1.6,1.2-3.2,2.3-4.8,3.5c-0.4,0.3-0.5,0.8,0.6,0.1c6.1,6.9,12.2,13.9,18.4,20.8
	c20.6,22.6,35.9,48.2,43.5,77.9c6.7,26.1,7.7,52.6,4.1,79.3c-2,15-5.5,29.3-13.6,42.3c-12.8,20.3-28.5,38.3-45.5,55.1
	c-4,4-8.6,7.2-13.2,11c8.6,8.2,15.7,14.7,22.5,21.4c15.3,14.9,28.5,31.5,38.4,50.5c7,13.3,10,27.8,11.7,42.5
	c3.4,29.7,1.4,58.9-8.1,87.3c-10.6,31.6-30.6,56.3-56.9,76.2c-1.8,1.4-3.7,2.8-6.2,4.7c4.1,3.3,7.8,6.2,11.4,9.2
	c30.2,24.4,49,55.8,57.2,93.7c6.9,31.9,5.3,63.6-4.8,94.6c-8.6,26.1-24.1,47.9-44.2,66.5c-4.3,3.9-8.7,7.8-13.1,11.5
	c-5.3,4.4-5.4,5-0.2,9.2c16.2,12.9,30.3,27.7,41.3,45.4c12.4,19.9,19.6,41.6,22.9,64.7c3,20.8,2.8,41.5-0.3,62.2
	c-2.7,17.4-9.8,32.9-19.5,47.5c-13.3,20.1-30.4,36.8-47.1,53.9c-3.3,3.4-3.4,5,0.5,7.9c20.5,14.7,37.3,32.9,49.2,55.2
	c8.9,16.6,14.3,34.2,17.1,52.8c3,20.1,3,40.2-0.4,60.2c-3.8,22.2-12.6,42.5-24.8,61.4c-16.3,25.2-37.9,43.9-65.5,55.3
	c-29.2,12.1-59.8,15.1-91.1,10.7c-16.6-2.3-32.3-7.6-47.5-14.4c-17.5-7.8-31.1-20.9-43.9-34.6c-7.3-7.9-13.8-16.6-20.6-24.9
	c-0.6-0.7-1.3-1.3-2.5-2.6c-35,48.6-80.2,78.4-141.5,78.4c-61.4,0.1-106.6-29.8-141.9-78.6c-4.1,5-7.7,9.6-11.4,14.2
	c-14.1,17.2-30.6,32-49.5,43.5c-16.3,10-34.7,15.6-53.8,18.6c-14,2.1-28.1,3.2-42.3,1.6c-16.5-1.8-32.2-6.5-47.7-12.1
	c-32.4-11.8-55.9-34.2-74.6-62.4c-0.4-0.6-0.7-1.1-1.1-1.7c-0.2-0.2-0.5-0.4-1.3-0.9c-0.9,1-1.9,1.9-2.7,3
	c-15.8,21.6-35.1,39.7-57.6,53.8c-16.1,10.1-34.4,15.5-53.3,18.6c-14.5,2.3-29.1,3.5-43.8,1.6c-30.2-3.9-57.7-14.2-82.2-32.9
	c-15.2-11.6-30.4-23-42.8-37.8c-0.3-0.4-0.9-0.5-1.9-1c-3,3.2-5.8,6.9-9.2,9.9c-15.9,14-31.5,28.6-48.3,41.4
	c-7.5,5.7-17.8,7.9-26.9,11.4c-21,7.9-42.7,11-65.1,9.4c-37.3-2.7-69.5-16.3-96.3-42.4c-10.8-10.5-21.3-21.4-31.7-32.2
	c-2.5-2.7-3.7-3.4-6.2,0.2c-15,21.2-34.4,38.2-54.9,53.7c-7.7,5.8-17.8,8.9-27.1,12.1c-22.3,7.8-45.3,10.2-68.9,8.5
	c-39.6-2.8-73-17.9-99.8-47.6c-13.6-15.1-26.4-30.7-34.5-49.6c-11.7-27.4-15.2-55.9-11.2-85.5c2.7-19.9,9-38.6,19.2-55.6
	c13.5-22.5,30.5-42.1,51.8-57.9c0.7-0.5,1.3-1.1,2-1.5c3.5-1.9,3.3-3.4,0.4-6.2c-10.9-10.4-22-20.7-32-31.9
	c-16.1-18.1-30.1-37.7-36.8-61.4c-6.2-21.9-8.2-44.2-4.6-66.7c7.4-45.9,32.5-81.3,66.8-111.1c6.3-5.4,6.5-7.7,0.8-13.6
	c-15.6-16.3-31.5-32.3-44.3-51.2C3.4,1057.5-3,1022.3,1.9,984.1c4.3-33.8,21.5-60.6,43.5-84.9c9.3-10.3,19.6-19.9,29.8-29.4
	c3.2-3,2.8-4.1-0.2-6.8c-18.1-15.5-34.1-33-48.1-52.3c-17.6-24.2-26-51.4-26.6-81.1C-0.3,700.5,3.9,672,21,647.8
	c11.5-16.3,25.9-30.6,39.3-45.5c5.4-6.1,11.9-11.3,18.1-17c-7.8-7.4-15.5-14.4-22.8-21.8c-16.4-16.8-31.3-34.8-41.8-56
	C3,485.5,0,462,0.2,437.7c0.4-41.3,18.3-74.9,45.6-104.3c8.6-9.3,17.9-18.1,27.1-26.9c5.8-5.5,5.9-5.2-0.2-9.9
	c-17.8-13.5-33.7-28.9-46.5-47.4c-19.3-28-26.9-59-25.9-92.6c1.2-42.1,16.9-78,46.8-107.3c21.8-21.4,48-35.7,78.1-42.3
	c21.9-4.8,43.8-5.1,66-2c30.9,4.4,58.8,15.6,81.6,37.1c9.7,9.1,17.5,20.3,26.1,30.6c0.7,0.8,1.4,1.7,2.6,3.1
	C339,31,384.9,2.5,444.3,3.1c58.1,0.6,106,24.6,144.6,68.6c1.5-1.9,3.6-4.6,5.8-7.1c24.5-28.6,55-47.5,91.6-56.5
	c28.5-7,57.1-6.5,85.7-1.2c12.4,2.3,23.1,8.4,34.1,14.4c23.9,13,40.9,33.4,60,51.7c0.6,0.6,1.2,1.1,1.8,1.6c0.2,0.2,0.6,0.2,1.4,0.5
	c2.6-3.6,5.3-7.4,8-11.1c23.1-31.3,54.6-49.3,92.2-57.1c33.6-7,67-5.8,99.6,4.8c33.4,10.9,61.3,29.8,79.3,61.1
	c0.5,0.8,1.3,1.4,1.7,1.9c8.6-9.7,16.8-19.5,25.6-28.6c22.6-23.6,50.6-37.8,82.4-43.2c51-8.7,98,1.4,138.8,34.3
	c12.2,9.9,22.9,21.6,34.2,32.6c0.9,0.9,1.4,2.3,1.4,2.3c6.7-6,12.4-11.5,18.4-16.6c13.6-11.6,26.8-23.9,41.3-34.3
	c8.2-5.9,18.5-9,28.1-12.4c21.2-7.4,43-9.8,65.4-8c34.4,2.7,64,16.5,89.8,38.9c21.2,18.4,37.3,40.4,47.2,66.7
	C1731.8,130.7,1734.3,155.8,1730.5,181.5z"/>
</svg>
