<?xml version="1.0" encoding="utf-8"?>
<!-- Generator: Adobe Illustrator 19.2.1, SVG Export Plug-In . SVG Version: 6.00 Build 0)  -->
<svg version="1.1" id="Layer_1" xmlns="http://www.w3.org/2000/svg" xmlns:xlink="http://www.w3.org/1999/xlink" x="0px" y="0px"
	 viewBox="0 0 1729.9 1410.2" style="enable-background:new 0 0 1729.9 1410.2;" xml:space="preserve">
<style type="text/css">
	.st0{opacity:0.8;}
	.st1{fill:#FFFFFF;}
</style>
<g class="st0">
	<path class="st1" d="M760.1,1380.8C759.9,1380.6,759.6,1380.6,760.1,1380.8L760.1,1380.8z"/>
	<path class="st1" d="M-11.1-12.1v1432.3h1752V-12.1H-11.1z M1697,1061.1c9.6,1.5,11.7,8.5,12.1,16.9c0.6,14.5-0.2,28.7-9.2,41
		c-1.8,2.5-4.1,4.7-6.4,7.3c4,3.3,7.9,6.5,11.7,9.8c9.1,7.7,14.8,18,16.6,29.4c2.4,15.1-4.1,27.5-16,37c-3.3,2.6-7,4.8-10.7,7.3
		c13.4,8,22.4,19.4,27.7,33.4c1.6,4.2,1.2,10.2-0.6,14.4c-3.4,8.2-9.6,14.2-18.6,16.7c-2.6,0.7-5.1,1.9-8.6,3.3
		c18.4,4.8,26,28,22.2,42.2c-4.6,17.4-13.5,32.5-29.2,42.5c-11.4,7.2-24,8.3-37,7.2c-24.4-2.1-40.7-15.1-53.5-31.5
		c-5.8,6.2-11.2,12.9-17.6,18.6c-9.4,8.4-19.2,16.2-32.3,18.6c-14.3,2.7-27.5,0.7-39.9-6.4c-4.1-2.4-7-3.2-11.2,0.6
		c-9.4,8.4-21.3,11.3-33.5,12.6c-5.1,0.6-10.3,0.6-15.4,1.6c-16.9,3-29.8-4.5-41.3-15.4c-5.3-4.9-9.8-10.6-14-15.3
		c-5.3,4.8-10,10.4-15.8,14.3c-14.6,9.6-30.8,13.8-48.4,11.7c-13.7-1.6-27.5-3.5-39.3-11.6c-3.1-2.1-6.1-4.5-9-6.6
		c-3.7,5.3-6.5,10.9-10.7,15.2c-16.5,17.3-42.4,20.5-63.7,7.9c-8.5-5-16.3-11.2-24.1-16.6c-4,5.8-8.1,12.2-12.6,18.3
		c-7.4,10-17.5,13.8-29.8,12.1c-6.6-0.9-13.2-1.4-19.8-2.3c-18.4-2.5-33.7-10.7-46-24.6c-0.4-0.5-1-0.8-0.9-0.7
		c-5.6,6.5-11.1,12.8-16.5,19.1c-7,8.2-16.1,11.3-26.3,9.7c-11.4-1.8-23.5-1.3-33.9-7.3c-6.2-3.6-11.6-8.5-17.8-13.2
		c-2.8,4.6-6.1,9.7-9.1,14.9c-9.1,15.4-23.8,18.5-39.7,16.6c-26.3-3.2-46.9-16.7-62.9-37.4c-0.9-1.1-1.8-2.2-3.3-4.1
		c-3.3,3.8-6.2,7.1-9,10.5c-14.6,18.3-33.9,25.5-56.6,23c-13.1-1.4-23.6-9.2-33.3-17.7c-1.1-1-2.4-2.1-3.5-3.1
		c-7,6.2-13.5,11.7-19.9,17.5c-9.2,8.4-19.7,7.1-30.1,3.9c-14.7-4.6-25.3-14.7-33.5-27.5c-0.4-0.7-0.8-1.4-1.3-2.1
		c-0.3-0.4-0.7-0.7-1.1-1c-7.1,3.6-13.9,7.8-21.2,10.8c-21.7,9-44.2,3.7-60-13.7c-0.8-0.8-1.1-2-2.2-3.8c-2.7,6.8-4.2,12.3-6.8,17.1
		c-2.5,4.7-6.1,9-9.3,13.3c-2,2.6-4.2,5-6.3,7.5c-4.5,5.3-10.8,7.8-17,6c-16.5-4.9-34.1-9.2-44-24.9c-6.9-10.8-11.3-23.2-16.8-34.9
		c-0.8-1.8-1.3-3.7-1.7-5.1c-10.4,8.3-20.2,17.1-30.9,24.6c-10,7-20.8,13.6-33.5,14.3c-16,0.9-31.9-0.4-46.1-9.2
		c-4.6-2.9-9-5.9-14-9.3c-0.5,0.7-1.5,2.3-2.7,3.8c-4.9,6-9.7,12.1-15,17.8c-1.9,2-5,3.7-7.7,4.1c-19.5,2.7-37.7,0.2-51.7-15.4
		c-6.6-7.4-12.5-15.5-18.7-23.2c-0.2-0.9-0.7-1.5-1.6-2.5c-18.7,25.7-45.1,31.4-74,30c-10.5-0.5-16.9-8.4-22.8-16.2
		c-2.1-2.8-4.2-5.6-5.8-8.7c-1.3-2.6-2.8-2.3-4.8-1.2c-23.2,13.5-47.9,15.2-73.3,8.1c-11.8-3.3-21.8-10.4-30.8-18.7
		c-1.8-1.7-3.6-3.5-5.4-5.2c-9.7-9.7-12-26.1-7.4-39.2c3.8-10.7,9.6-19.9,15.9-29c2.6-3.8,6.1-6.9,9.6-10.9
		c-3.7-1.5-7.8-2.8-11.6-4.8c-8.8-4.5-18-8.6-26.1-14.3c-15.6-10.9-17.8-35.1-10-48.7c4-7,11.6-12,17.8-17.5
		c2.1-1.9,5.3-2.7,8.5-4.3c-3-1.9-5.6-3.5-8.2-5.2c-15.6-9.9-23.4-24.3-21.8-42.5c1.2-13.8,8.4-25.2,20.8-32.3
		c10.7-6.1,21.9-11.4,33-17.1c-2.5-1.8-5.7-4.3-9.1-6.6c-28.2-19.9-24-53.8-2.6-72.1c7.8-6.6,17.9-10.5,27.1-15.4
		c7.1-3.8,14.5-7.3,22.6-11.3c-7.6-4.5-14.6-8.4-21.4-12.7c-10.4-6.5-20.7-13.2-31-19.8c-8.7-5.6-11.8-14.4-13.3-24
		c-2.4-14.7-2.6-29.4,7-41.6c5.2-6.7,13-11.5,20.1-16.6c7.3-5.2,15.1-9.5,23.3-14.7c-9.6-1.4-17.8-5.1-25-10.7
		C58,817.7,52.6,805.8,48.9,793c-1.3-4.6-2.2-9.4-3.2-14.1c-2.1-10.1,0.3-18.5,7.1-26.8c8.3-10,16.6-19.8,27.7-27.6
		c-6.3-2.8-12.2-5.1-17.9-7.9c-7-3.4-14-7-20.7-11c-8.8-5.2-12.8-14-14.2-23.5c-2.4-16.1-0.9-31.8,7.4-46.4
		c10.5-18.5,22.5-35.6,43-46.6c-4.4-1.8-7.9-3.4-11.5-4.7c-17-6.1-26-18.4-27.1-36.1c-1.3-21.7,7.6-38.2,24.7-51
		c1.6-1.2,3.2-2.3,5.6-4c-3.4-1.9-6.3-3.4-9.2-5.1c-6.3-3.6-12.6-7.3-18.9-11C24.4,467,22.3,439.9,32.4,427
		c10.4-13.3,21.5-25.8,34.9-35.9c3.9-2.9,8.6-4.8,13.7-7.6c-4.4-3.4-8.5-6.4-12.5-9.5C57,365.4,48,354.8,43.3,340.9
		c-3.7-10.9-5.4-21.9-2.2-33.3c3.4-12,5.9-24.4,16.9-33.1c-5.4-2.8-10.5-5.4-15.5-8.1c-10.4-5.6-19.8-12.3-25.2-23.2
		c-7.3-14.8-3-34,10.3-45.8c1.6-1.5,3.3-3,5.3-4.8c-4.3-2-7.7-3.6-11.2-5.1C12.5,183.7,9,175.2,5,167.2c-11.5-22.6-3-49.2,17.8-61
		c8.3-4.7,15.5-11.3,25.4-13.1c13.3-2.5,26.4-2.8,39.4,1.7c4.2,1.4,8.8,1.6,13,3c4.4,1.5,8.5,3.9,12.8,5.9c1,0.5,2.1,0.7,4.2,1.4
		c-2.1-6.5-4.1-12-5.6-17.7c-5.9-21.7-6.3-42.6,6.4-62.8c8-12.7,20.4-16.1,33.3-19.3c10-2.5,20.3-2.4,29.9,1.8
		c10.7,4.7,16.3,14.4,21.1,24.3c3.7,7.7,6.2,15.9,9.2,23.9c2.7-4.1,5.9-8.6,8.5-13.3c8.8-15.5,22-23.5,39.8-24
		c11.5-0.3,22.9,0.5,33.8,4.9c11.3,4.5,14.9,15.1,19.8,24.4c2.7,5.1,4.3,10.8,6.2,15.6c4.8-6.4,9.6-12.9,14.6-19.4
		c12.4-16.2,29.7-19,48.4-16.7c23.1,2.9,38.9,16.6,50.8,35.6c0.5,0.8,1.1,1.6,2.3,3.4c4.5-6.1,9.1-11.5,12.8-17.4
		c11.8-18.3,36.8-27,55.9-19.5c10.3,4,17,11.2,21.4,21c3.7,8.3,7.2,16.6,11.1,25.4c1.3-1.7,3-3.4,4.3-5.4
		c7.4-11.3,18.1-18.5,31.1-20.5c12.7-2,22.6,3,29.1,17.4c0.8,1.8,1.4,3.7,2.6,6.8c3.5-5.1,6.4-9.6,9.5-13.9
		c6.5-8.9,11.5-18.9,20.4-26.1c9.9-8,21.1-11.3,33.2-11.6c4.9-0.1,10.9,1.6,14.8,4.5c8.6,6.5,16,14.6,18.8,25.6
		c0.3,1.2,1.1,2.4,1.9,4.3c6.9-14,19-22.3,29.7-31.6c5.4-4.7,13.1-7,19.9-9.9c11.7-5,23.9-7.4,36.5-3.8c10.3,3,19.8,7.1,26.2,16.7
		c6,9.1,14,16.9,16.6,29.9c11.6-19.3,24.8-34.6,47.7-33c20,1.4,39.1,6.4,50.7,25.8c5.7-9.6,10.7-18.9,16.5-27.6
		c7.7-11.5,17.5-20.8,32-22.5c25.9-2.9,38.4,3.3,48.7,25c3.4,7.2,4.5,15.5,6.6,23.3c0.3,1,0.5,2.1,1,4c3.9-5.3,7.3-9.9,10.8-14.4
		c6.8-8.5,14.8-15.7,24.3-21.1c7.6-4.4,16.1-3.6,24.3-3.7c11.4-0.2,19.7,4.6,24.5,15.4c1.5,3.4,3.8,6.5,6.1,10.2
		c5.3-3.9,10.8-7.8,16.2-11.7c6.8-4.9,13.3-10.6,20.7-14.5c14.2-7.5,29.6-11.3,45.7-8.8c12.8,1.9,21,10.7,27,21.5
		c1.9,3.5,3.4,7.2,5.6,12c3.5-4.6,6.5-8.7,9.5-12.6c4.2-5.5,8-11.5,12.7-16.5c13.1-13.9,38.4-8.4,44.7,9.4c1.7,4.8,3.8,9.6,5.4,14.5
		c1.5,4.9,2.6,9.9,4,15.2c4.3-3.5,8.6-7.3,13.3-10.6c10.4-7.3,20.5-15.3,33.1-18.9c18.2-5.2,34.5-0.1,44.6,15.3
		c4.4,6.7,6.8,14.7,10.2,22.1c0.5,1.2,1.2,2.3,1.3,2.6c7.4-7.6,14.3-15.9,22.5-22.5c7.5-6.1,16.5-10.4,25-15.3
		c3.7-2.1,7.1-1,9.7,2.2c2.6,3.2,5.2,6.4,7.7,9.7c4.3,5.6,6.5,11.8,6.2,19c-0.3,7-0.1,13.9-0.1,22.2c2.1-1.8,3.5-2.7,4.6-3.9
		c8.8-9,17-18.7,26.4-26.9c11-9.6,23.3-16.1,39.1-12.4c8,1.9,12.8,6.8,16.3,13.3c3.7,6.8,6.5,14.1,9.7,21.2c0.8,1.8,1.6,3.5,2.8,6.2
		c3.3-3.5,6.3-6.3,8.7-9.5c5.2-6.9,9.8-14.2,15.2-20.9c4.3-5.4,8.8-10.9,14.2-15.1c7.7-6.1,15.1-13.2,25.4-15
		c5.2-0.9,10.5-1.8,15.7-2.4c7.5-0.8,13.7,2.1,18.9,7.3c8.1,8.2,15.4,17,19.9,27.7c1.3,3,2.1,6.4,2.2,9.6c0.3,9.7,1.1,19.5-0.2,29
		c-1.2,8.4-4.6,16.5-7.7,24.4c-5.8,14.6-16,26.2-26.7,37.4c-2.6,2.7-4.7,6-7.3,9.4c14.1,10.7,20.2,24.7,19.6,41.8
		c-0.5,16-3.1,31.5-13.6,44.7c6.5,3.1,12.7,5.7,18.5,9c5.6,3.2,11.1,6.8,16.2,10.7c7.4,5.7,10.4,13.7,11.7,22.8
		c2.6,17.6-0.8,34.3-8.3,49.8c-5.4,11.3-12.9,21.7-23.5,28.7c3.2,4.5,7.3,8.3,8.9,13c1.9,5.4,2.6,11.7,1.9,17.5
		c-2.8,25.8-15.9,46.4-33.4,64.6c-1,1-1.8,2.2-2.8,3.5c30.3,4,44.4,43.4,29.5,68.7c-6,10.2-13.9,19.3-20.9,29c-0.8,1-1.6,2-2.1,2.6
		c11.8,3.8,23.4,7.7,35.1,11.3c12.3,3.9,20.2,14.4,20.4,27.5c0.2,16.1-3.6,30.9-16,42c-6.9,6.1-15,10.8-22.6,16.1
		c-3.9,2.7-7.9,5.3-11.8,8c5.8,3.9,11.7,7,16.6,11.3c17.4,15.6,18.6,35.3,13.1,56.3c-3.9,15.1-13.5,26.8-23.6,38.1
		c-1.2,1.3-2.5,2.6-4,4.3c2.4,1.7,4.7,3.3,6.9,5c5.9,4.4,9,10.3,10.8,17.3c4.7,18.2-1.9,32.9-13.6,46.2c-0.8,0.9-1.5,1.8-2.2,2.7
		c-0.3,0.4-0.4,0.9-0.7,1.7c1,0.3,1.8,0.8,2.7,0.9c17.2,1,29.1,12.2,30.1,29.5c1.2,20.7-3.4,39.6-18.3,55.1c-1.3,1.4-2.5,3-4.4,5.3
		c11,0.2,18.4,6.7,26.6,11.4c6.5,3.8,9.9,9.9,11.7,16.7c5.1,19.1,5.2,38.2-2.3,56.8c-5.5,13.7-14.5,25.2-24.9,35.6
		c-0.6,0.6-1.1,1.2-1.6,1.9C1696.9,1060.3,1697,1060.5,1697,1061.1z"/>
</g>
</svg>
