<?xml version="1.0" encoding="utf-8"?>
<!-- Generator: Adobe Illustrator 19.2.1, SVG Export Plug-In . SVG Version: 6.00 Build 0)  -->
<svg version="1.1" id="Layer_1" xmlns="http://www.w3.org/2000/svg" xmlns:xlink="http://www.w3.org/1999/xlink" x="0px" y="0px"
	 viewBox="0 0 1731.6 1723.9" style="enable-background:new 0 0 1731.6 1723.9;" xml:space="preserve">
<style type="text/css">
	.st0{opacity:0.8;}
	.st1{fill:#FFFFFF;}
</style>
<g class="st0">
	<path class="st1" d="M140.7,79.9c-11.7,1.3-23.7,5-33.5,12.7c-2.8,2.2-5.9,4.9-7.2,8c-4.8,12.1-10.8,24.1-9.3,36.6
		c0.7,14.1,2.1,27,8.3,38.4c8.9,16.4,21.2,28.4,41.8,27.7c3.4-0.1,6.8,1.1,10.1,2c4.5,1.2,10.5-3.4,9.5-7.9c-1-4.6-7-11.2-12.5-11.2
		c-6.2,0-12.5-1-18.5-2.6c-15.9-4.4-22.9-15.5-24.5-29.8c-1.8-15.8,5.2-29.2,13.2-41.9c3-4.7,7.4-9.2,12.3-12c6-3.4,12.7-5.2,19.9-1
		c4.9,2.9,11.7,3,15.9,6.5c15.3,12.4,16.1,20.8,7.9,36.1c-1.2,2.2-3.5,4.4-5.7,5.2c-8.5,3-17.2,1.8-25.2-1.6c-2.3-1-4.2-4.8-4.5-7.5
		c-0.2-1.6,2.8-4.5,4.9-5.3c3.8-1.4,8-1.7,12-2.2c4.7-0.6,6.1-3,3.6-7c-0.5-0.9-1-1.7-1.5-2.6c-6.3-11.7-18.5-12-26.3-0.9
		c-6.2,8.9-8.3,18.1-5.5,28.7c2.9,11,8.4,16.4,19.8,15.3c8.8-0.8,17.3-4.1,26-6.2c9.4-2.3,15.2-8.8,19.9-16.8
		c7.2-12,4.1-22.7-2.2-34.2C178.6,86.8,162.3,77.4,140.7,79.9z"/>
	<path class="st1" d="M147.4,1565.6c-10.8-6.1-22.7-6.1-34.4-6.7c-15.4-0.8-19.5,14.9-18,24.6c1.3,8.6,6.1,15.3,10.4,22.3
		c2.3,3.7,5.1,5.4,9.3,5.4c7,0,12.2-4.3,14.3-12.2c0.7-2.4,1.7-4.7-1.4-6.5c-2.6-1.6-4.5-3-8-1.3c-2.7,1.3-6.6,0.4-9.9-0.1
		c-0.8-0.1-2.2-3.1-1.8-3.8c2.2-3.5,4.3-8.3,7.7-9.5c5.7-2.1,12.2-2.7,18.3-2.5c8,0.4,12.5,6.5,15.3,13.3c2.7,6.8,3,13.9-2.7,19.5
		c-11,10.9-24.6,16.4-39.9,16.3c-4.5,0-9.9-2.6-13.2-5.9c-12.4-12.4-19.1-27.2-17.1-45.4c1.5-13.8,6-25.8,18.9-32.4
		c8-4.1,17-5.2,26.1-4.6c4.9,0.3,10.4-4,10.3-7.5c-0.1-4.7-4.6-8.9-10-9.1c-2.9,0-6.1,0.1-10.7,0.1c-7.9-1.7-16,1.2-23.2,6.8
		c-4.5,3.5-10,6.8-12.7,11.4c-4.7,8.1-8.2,17-11.2,25.9c-8.7,25.6-2.1,48,15.3,67.7c2.3,2.6,5.8,4.9,9.1,5.6
		c8.4,1.7,17,3.1,25.5,3.2c21.3,0.2,37.1-9.4,47.2-28.3C170,1594.8,164.3,1575.1,147.4,1565.6z"/>
	<path class="st1" d="M1576.1,123.3c7,2.1,14.1,3.9,21.1,5.7c15.9,4.1,28-3.2,31.2-18.6c2.3-10.9-6.8-30.7-16.8-35.9
		c-2-1.1-5.9-1.5-7.3-0.3c-4.2,3.3-8.1,7.2-11,11.7c-2.1,3.3,0.6,6.5,3.4,9c2.4,2.2,4.2,0.3,6.5-0.2c2.7-0.6,6.1,0.9,8.9,2.2
		c1.3,0.6,3,3.7,2.6,4.2c-1.9,2.3-4.1,5.4-6.6,6c-5.8,1.3-11.9,1.4-17.8,1.6c-5.8,0.2-9.6-3.3-12.1-8.2c-1.4-2.8-2.2-5.9-3.3-8.9
		c-2.1-5.6-0.8-10.6,4.2-13.5c9.3-5.3,18.7-10.8,28.8-14.3c6.8-2.4,15.2-1.6,20.8,3.6c9.6,8.8,14.9,20.7,18.2,33.1
		c3.2,12.2-2.8,23.4-5.6,35c-0.3,1.2-1.3,2.4-2.3,3.2c-9.9,7.3-19.2,15.9-33.2,14.5c-3.5-0.4-8.2,1.3-10.8,3.7
		c-1.9,1.7-2.2,6.6-1.2,9.4c0.6,1.6,5,2.7,7.6,2.7c4.9-0.1,9.7-1.5,14.6-2c10.6-0.9,20.7-4.3,27.9-11.7c6-6.1,11.2-14,13.9-22.1
		c5.7-17.2,7.7-35,1.1-52.8c-3.8-10.1-7.2-20.3-18-25c-6-2.6-12.4-4.6-18.7-6.7c-4.3-1.5-8.7-2.7-13-4c-13.6,0.9-25,5.5-34.2,15
		c-3.2,3.3-6.3,6.8-9.3,10.4c-14.6,17.3-8.7,34.8,3.2,49C1570.6,121.1,1573.5,122.5,1576.1,123.3z"/>
	<path class="st1" d="M1601.2,1553.6c-2.9-0.3-7.2,0-8,4.3c-0.9,4.7,1.5,8.3,4.7,11.4c0.7,0.6,1.8,0.9,2.8,1.1
		c5.4,0.8,10.7,2,16.1,2.2c7.4,0.2,13.6,2.8,18.8,7.8c9.9,9.8,14.2,21.7,13,35.8c1.6,10.3-2.2,19.5-7.8,28
		c-6,9.1-13.7,15.1-25.5,15.8c-14.6,0.8-25.7-6.1-35.7-15c-7.6-6.7-7.2-19.2,0.5-25.4c4.7-3.8,10.9-5.8,16.6-8.5
		c8.2-3.8,14,1.5,19.8,5.8c3.2,2.4,1.6,6-2.4,6.8c-4.8,0.9-9.7,1.8-14.5,3c-4.7,1.1-8.4,7.4-6,10.2c2.7,3.1,5.7,6,8.9,8.6
		c4.8,3.8,11.1,3.5,14.5-1.5c4.9-7.4,9.6-15.1,13.1-23.3c4.4-10.1-6.6-28-17.1-27.8c-19,0.3-34.8,8.3-49.9,18.5
		c-0.8,0.5-1.4,1.5-1.8,2.3c-3.5,7.6-5.4,15.4-3.3,23.7c4.4,18.1,26.9,39.5,50.9,39.8c4.4,0.1,8.9-0.2,13.2-1.2
		c5.1-1.1,9.9-3.6,15-4.5c5.6-0.9,9.7-3.4,13.5-7.5c8.9-9.7,11.3-21.3,12.2-33.9c1.7-21.8-3.6-41.2-17.1-58.7
		C1634.1,1556.4,1617.7,1555.1,1601.2,1553.6z"/>
	<path class="st1" d="M-31.1-18.1v1770h1793.9v-1770H-31.1z M1723.8,1690.1c-19.1,12.3-39.5,21.5-61.7,26.9
		c-22.4,5.5-44.9,8-67.8,6.7c-34.6-2-68.8-6.8-102.5-15.4c-32.2-8.2-64.8-14.7-97.3-22c-15.4-3.5-30.7-7.6-46.2-10.4
		c-16.2-3-32.5-5.7-48.9-7.1c-32.2-2.7-64.5-3.8-96.6-6.6c-15.7-1.3-31.2-5-46.9-7.2c-16-2.2-32.1-3.9-48.1-6
		c-24.9-3.3-49.8-6.5-74.7-10c-55.2-8-110.4-14.1-166.3-13.4c-31.1,1.3-62.3,2.1-93.4,4.1c-26.7,1.7-53.3,5.6-80.1,7.3
		c-29.1,1.9-58.3,2.7-87.4,3.3c-30.2,0.7-60.3,2-90.1,6.7c-26.3,4.2-52.6,8.6-79,12c-33.2,4.3-66.6,7-100.2,6.6
		c-16.3-0.2-32.7,0.1-49-0.1c-7.1-0.1-14.3-0.4-21.4-1.3c-24.2-2.8-48.2-0.6-72.1,3.4c-15.8,2.6-31.7,4.2-47.5,6.4
		c-17.3,2.5-34.8,4.3-52.2,3c-17.9-1.4-35.9-2.5-53.4-6.1c-10.9-2.2-21.4-8.1-31.3-13.7c-5.9-3.3-10-10-9.7-17.1
		c0.4-10,1.3-20.3,3.9-30c7.1-26.2,11.2-52.9,13.3-79.9c0.7-9.1,0.1-18.3,0.7-27.5c1.6-21.7,3.4-43.5,5.5-65.2
		c1.4-14.7,2.8-29.5,5.1-44.1c2.8-18.1,6.6-36,9.8-54c2.4-13.1,4.3-26.3,6.8-39.3c2.2-11.1,5.2-22,7.6-33.1
		c3.5-16.4,6.5-32.9,10.2-49.3c2.7-12.3,6.1-24.5,9.3-36.7c4.4-17.2,8.8-34.4,13.2-51.6c3.3-12.9,7.3-25.6,9.6-38.7
		c4.4-24.8,8.3-49.7,6.8-75c-1.1-18.5-5.2-36.5-10.6-54.2c-4.1-13.3-7-27-10-40.6c-3.1-14-5.8-28-8.3-42.1c-3.5-19.6-6.9-39.3-10-59
		c-3-19.1-5.7-38.2-8.3-57.3c-2.4-17.5-4.4-35-6.7-52.5c-2.4-18.2-5.5-36.2-7.3-54.4c-4.4-43.5-6.1-87.1-6-130.8
		c0-40.3,1.9-80.6,5.5-120.8c0.1-1.7,0.1-3.3,0.1-5c0.1-42.8-0.9-85.7,2.8-128.4c0.9-9.9,2.8-19.8,3.5-29.7
		c1-13.1,1.1-26.3,1.8-39.4c1.6-28.4,3.4-56.9,4.9-85.3c1.4-25.6,2.5-51.3,3.7-76.9c0.3-7.5,10.2-16.6,17.9-15.9
		c22.3,2.2,44.7,3.5,66.6,9.5c19.9,5.4,39.9,10.2,59.9,14.9c20.6,4.8,41.3,8.8,62.5,9.6c44.6,1.6,89.2,4.2,133.8,5.8
		c34.3,1.2,68.7,2.4,103,2c76.1-0.9,152.3-2.5,228.4-4.4c37.5-0.9,74.9-2.9,112.4-4.9c34.9-1.9,69.8-4.5,104.7-7
		c27.2-2,54.5-4,81.7-6.5c23.7-2.2,47.3-5.5,71-7.6c24.5-2.3,49.1-4.1,73.7-5.6c36.4-2.2,72.9-3.3,109.3-5.9
		c24.1-1.7,48.2-3.3,72.4-1.7c15.1,1,30.2,2.6,45.3,3.7c24.3,1.8,48.7,1.6,72.8-2.1c32.7-5,65.3-10.7,97.9-16.3
		c26.4-4.5,53.1-3.7,79.6-5.9c9.7-0.8,19.6-1,29.4-0.3c12.4,0.9,22,8.2,30.2,16.7c5.7,5.9,5.9,13.9,4.4,21.7
		c-1.6,8.3-4.3,16.5-5.2,24.8c-2,18.4-4.2,36.8-4.5,55.2c-1.1,67.1-1.1,134.3-2.2,201.5c-0.6,36.6-0.9,73.4-4.6,109.8
		c-5.2,51.6-2.4,102.8,0.4,154.2c2.6,47.2,5.4,94.5,7.9,141.7c1.8,34.6,4.2,69.2,4.7,103.8c0.4,27.8-1.8,55.6-2.8,83.4
		c-0.8,23.8-1.9,47.6-2.2,71.4c-0.4,32.8-0.5,65.7,0.1,98.5c0.3,15.9,2.4,31.8,3.6,47.8c0.5,6.5,1.1,12.9,1.4,19.4
		c0.9,19,1.7,37.9,2.3,56.9c0.6,17.3-2,34.1-6.6,50.8c-2.4,8.8-3.5,17.9-4.9,27c-2.8,19.4-5.6,38.9-8.1,58.4
		c-4.3,33.9-6.2,68-4.8,102.2c0.8,19,2,37.9,4,56.8c1.7,16.2,4.1,32.4,7.4,48.3c5.4,26,11.4,51.9,17.8,77.7
		c3.6,14.5,8.7,28.6,13.2,42.9C1733.1,1679.2,1730.9,1685.5,1723.8,1690.1z"/>
</g>
</svg>
