<?xml version="1.0" encoding="utf-8"?>
<!-- Generator: Adobe Illustrator 19.2.1, SVG Export Plug-In . SVG Version: 6.00 Build 0)  -->
<svg version="1.1" id="Layer_1" xmlns="http://www.w3.org/2000/svg" xmlns:xlink="http://www.w3.org/1999/xlink" x="0px" y="0px"
	 viewBox="0 0 1727 1727.2" style="enable-background:new 0 0 1727 1727.2;" xml:space="preserve">
<style type="text/css">
	.st0{opacity:0.8;fill:#FFFFFF;}
</style>
<path class="st0" d="M-18.5-19.6v1761h1761v-1761H-18.5z M1725.1,984.2c-4,36.3-14.1,70.7-30.9,102.9
	c-19.6,37.6-45.6,70.3-78.4,97.4c-29.3,24.3-62.1,42.3-98.3,54.1c-3.9,1.3-4.3,3.7-4.2,7.2c1,80.5,1.9,161,2.8,241.5
	c0.3,28.9-3.8,57.1-13.9,84.2c-10.2,27.5-25.6,52-45.5,73.6c-23.3,25.3-50.1,45.9-81.5,60.1c-22.4,10.1-45.8,17.2-70.3,19.2
	c-17.9,1.4-35.9,2.4-53.9,2.5c-164.4,0.3-328.7,0.2-493,0.2c-169.5,0-339,0-508.5,0c-31.3,0-62.1-4-91.6-14.9
	c-26.4-9.7-50.3-23.9-71.6-42.3c-25.7-22.1-46.8-47.9-61.4-78.7c-10.1-21.1-17.3-43.3-19.3-66.6C4,1506.7,3,1488.7,3,1470.8
	c-0.2-99-0.1-198-0.1-297c0-24.5,9.4-44.6,28.9-59.6c10.7-8.2,22.7-12.7,36.2-13.9c17.4-1.6,34.9-2.6,52-5.7
	c26.2-4.7,49.2-16.9,69.7-33.7c20.7-16.9,37.5-37,48.4-61.6c11.1-25.1,14.9-51.4,11-78.6c-9-63.1-47.2-103.3-103.1-128.5
	c-21.1-9.5-43.9-13-67.2-12.8c-13.3,0.1-26.2-2.1-37.9-8.8c-23-13.3-37.2-32.9-37.8-59.8c-1.5-62-2.6-124-2.9-186
	c-0.4-72.1,27.4-132,80.9-180.2c23.2-20.9,49.4-36.9,79-47.1c27.1-9.4,55.2-13.3,83.9-13.2c63.2,0.3,126.3,0,189.5,0.2
	c4.4,0,6.2-1.5,7.1-5.5c5-21.9,12.7-43,22-63.4c24.9-54.5,60.5-101.2,104.5-141.6c28.7-26.4,61.5-46.3,98.5-58.8
	C706.8,1.2,749.3-2.9,792.9,2c35.2,3.9,68.2,14.1,99.3,30.8c26.6,14.4,50.2,33,71.3,54.6c24.2,24.8,45.7,51.7,63.4,81.5
	c20.5,34.7,35.5,71.6,43.7,111.2c0.8,3.7,2.8,4.2,6,4.2c33.2-0.1,66.3,0,99.5,0c31.3,0,62.7,0,94,0c69.6,0,128,25.7,175.8,76.1
	c26.2,27.7,45.5,59.5,56,96.3c6.2,21.7,8.6,44,8.5,66.6c-0.1,42.7,0,85.3-0.1,128c0,4.7,0.9,7.1,6,8.9
	c57.6,19.8,105.7,53.3,143.9,100.9c22.6,28.2,40.5,59.2,51.7,93.5C1725.7,896.8,1729.9,940,1725.1,984.2z"/>
</svg>
