<?xml version="1.0" encoding="utf-8"?>
<!-- Generator: Adobe Illustrator 19.2.1, SVG Export Plug-In . SVG Version: 6.00 Build 0)  -->
<svg version="1.1" id="Layer_1" xmlns="http://www.w3.org/2000/svg" xmlns:xlink="http://www.w3.org/1999/xlink" x="0px" y="0px"
	 viewBox="0 0 1725.3 1726" style="enable-background:new 0 0 1725.3 1726;" xml:space="preserve">
<style type="text/css">
	.st0{opacity:0.8;fill:#FFFFFF;enable-background:new    ;}
</style>
<path class="st0" d="M-17.9-18.4v1764h1764v-1764L-17.9-18.4L-17.9-18.4z M1706.2,1714.5c-47.9-29.5-97.4-56.2-148.6-79.6
	c-36-16.4-72.8-30.7-110.7-42.2c-30.1-9.2-60.7-16.5-91.8-21.1c-37-5.5-74.3-7.3-111.6-3.8c-29.2,2.8-58.4,5.5-87.3,9.8
	c-22.5,3.3-44.8,8.2-66.9,14c-28.8,7.5-57.3,15.7-85.6,24.9c-22.2,7.2-44,16-65.6,24.9c-18.9,7.7-37.3,16.6-56,24.7
	c-1.4,0.6-4,0.4-5.3-0.5c-29.3-19.9-59.4-38.2-91.1-54c-33.7-16.8-68.6-30.5-104.9-40c-42.4-11.2-85.6-16.9-129.5-15.1
	c-17.9,0.8-35.8,3-53.7,5.1c-20,2.4-39.9,5.1-59.9,8.1c-21.1,3.1-42.1,6.6-63.1,10.1c-30.3,5.1-60.7,10.2-91,15.7
	c-24.5,4.5-49,9.5-73.4,14.4c-28.2,5.6-56.4,11.2-84.6,17c-27.2,5.6-54.3,11.6-81.4,17.4c-0.4,0.2-1.1,0.1-2.5,0.1
	c3.1-7.8,6.2-15.1,8.8-22.5c12.8-36.5,26-72.8,38.1-109.5c7.7-23.3,14.4-47,20.2-70.9c7.1-29.4,13.3-59,18.8-88.8
	c4.6-25,8.5-50.2,11.3-75.5c5.6-50.5,9.1-101.2,4.9-152.1c-2.6-31.1-7.3-61.8-16.5-91.7c-12.6-40.7-32-77.6-62.8-107.7
	c-2.6-2.5-3-4.8-2-8.3c10-34.3,20.1-68.5,29.3-103c5.6-21,10.3-42.3,14.3-63.7c4-21.7,6.9-43.7,9.9-65.6c4.4-32.2,6.3-64.7,5.5-97.2
	c-0.6-27.8-2.9-55.6-8.4-82.9c-7-34.9-14-69.8-21.8-104.5c-4.7-20.9-10.6-41.5-16.5-62.1c-9.2-31.6-18.6-63.1-28.4-94.4
	c-7.1-22.7-14.8-45.1-22.5-67.6c-7.7-22.3-15.6-44.5-23.4-66.7c-0.2-0.6-0.1-1.3-0.3-2.6c2.3,0.1,4.5,0.1,6.5,0.4
	c26.7,3.8,53.4,7.7,80.1,11.3c31.2,4.3,62.4,8.3,93.5,12.6c26.2,3.6,52.4,7.6,78.6,11.3c23.4,3.3,46.8,6.3,70.2,9.6
	c18.6,2.6,37.2,5.5,55.8,8.2c18.8,2.7,37.6,5.3,56.3,8.1c22.4,3.3,44.7,7,67.2,9.9c23,3.1,46.1,3.6,69.3,1.1
	c58.8-6.3,111-29.5,159.7-61.6C785,86.6,826.6,47.9,865.3,6c1.7-1.8,3.4-3.6,5.6-6c4.3,4.1,8.4,8,12.5,12
	c35.7,35,74.8,65.6,118,90.9c33.1,19.4,67.9,34.8,104.6,45.9c45.7,13.8,92.6,19.5,140.4,19.9c93.8,0.8,187.6,2.1,281.5,3.6
	c49.6,0.8,99.3,2.7,148.9,4.2c6.7,0.2,6.8,0.2,4.8,6.6c-5.6,17.9-11.8,35.6-16.7,53.8c-6.1,22.9-11.6,46.1-16.5,69.3
	c-4.3,20.7-7.8,41.5-10.7,62.5c-3,21.4-5.8,43-6.8,64.6c-1.8,37.9-3.3,75.9-2.9,113.9c0.3,32.8,3,65.6,5.2,98.3
	c1.6,23.9,3.9,47.8,6.6,71.6c2.2,19.8,5.2,39.6,8.2,59.3s6.1,39.5,9.8,59.1c3.3,17.8,6.9,35.6,11.1,53.2c7,29.4,14.5,58.7,21.9,88
	c2,7.9,4.6,15.6,7,23.8c-5.9,3.1-11.6,6-17.2,9.2c-25.2,14.4-42.1,36.1-53,62.6c-14.9,36.2-17.7,74.2-16.8,112.7
	c0.6,26.2,3.1,52.2,7.4,78c5.3,31.3,10.1,62.7,15.7,94c4.3,23.6,9.3,47,14.4,70.4c7.3,33.3,14.6,66.6,22.8,99.6
	c9.8,39.3,20.5,78.4,31.1,117.5c7,25.6,14.6,51.1,22,76.6c0.3,1.2,0.5,2.5,1.1,4.9C1718.3,1721.8,1712.2,1718.2,1706.2,1714.5z"/>
</svg>
