<?xml version="1.0" encoding="utf-8"?>
<!-- Generator: Adobe Illustrator 19.2.1, SVG Export Plug-In . SVG Version: 6.00 Build 0)  -->
<svg version="1.1" id="Layer_1" xmlns="http://www.w3.org/2000/svg" xmlns:xlink="http://www.w3.org/1999/xlink" x="0px" y="0px"
	 viewBox="0 0 1732.6 1722.3" style="enable-background:new 0 0 1732.6 1722.3;" xml:space="preserve">
<style type="text/css">
	.st0{opacity:0.8;fill:#FFFFFF;}
</style>
<path class="st0" d="M-30.7-15.2v1755.4h1786.8V-15.2H-30.7z M1696.8,824.5c7.8,6.7,15.5,13.4,23,20.5c3.8,3.6,6.8,8.1,10.4,12
	c2.3,2.6,2,4.5-0.5,6.7c-12.5,10.8-25,21.8-37.5,32.7c-1.2,1.1-2.5,2.2-3.7,3.3c13,15,25.8,29.9,38.4,44.5
	c-11.9,17.7-31.8,24.2-46.9,37.2c4,4.6,8.4,8.9,11.8,13.9c7.8,11.3,15.2,22.9,22.5,34.6c0.6,0.9,0,3.8-0.9,4.3
	c-3.3,2.1-7.5,3-10.5,5.5c-8.4,6.9-18.2,11.2-27.9,15.6c-4,1.8-9,4.1-10.7,7.5c-1,2,3.8,6.8,6,10.3c7.9,12.4,15.9,24.9,23.8,37.3
	c2,3.2,0.8,6-3.4,8c-4.3,2.1-8.5,4.5-12.9,6.3c-10.2,4.1-20.6,7.9-30.9,11.8c-2.1,0.8-4.3,1.6-6.8,2.5c4.5,9.2,9,17.6,12.9,26.4
	c4,8.9,7.4,18.1,11,27.2c1.1,2.8-0.7,3.3-2.9,4c-16.6,5.8-33.1,11.7-49.7,17.6c-0.6,0.2-1.2,0.5-2.8,1.2c2.8,7.5,5.6,14.9,8.4,22.3
	c2.8,7.6,5.7,15.1,8.4,22.7c1.2,3.4,2.3,6.9,2.9,10.4c0.2,1.1-1.4,3.4-2.5,3.7c-15.9,4.2-31.8,8.1-47.8,12c-2.5,0.6-5.1,1.1-8,1.6
	c1.7,5.7,3.5,10.9,4.7,16.2c2,8.7,3.7,17.5,5.6,26.3c0.6,2.9,1.3,5.8,2.3,8.6c2.2,6.2,1.4,7.7-4.9,8.6c-17.4,2.5-34.8,5.1-52.6,7.8
	c2.3,19.5,4.5,38.9,6.9,58.8c-19.4,4.4-39.6,2.2-60.1,3.1c0.3,4.1,0.8,7.9,0.9,11.6c0.5,14.5,0.9,28.9,1.4,43.4
	c0.1,3.2-1.5,4-4.3,3.8c-17.8-0.8-35.6-1.5-53.4-2.3c-1.1,0-2.3,0-3.1,0c-1.2,19.4-2.4,38.7-3.7,58.6c-4.6-0.7-8.3-1.2-12.1-1.7
	c-13.6-1.9-27.3-3.8-40.9-5.8c-6.3-0.9-6.6-0.9-7.3,5.7c-1.5,14-2.9,28-4.7,42c-0.4,3.3-2.2,6.5-3.6,10.5
	c-20.3-2.3-40-8.5-60.5-13.9c-0.6,2.4-1.1,4.4-1.6,6.4c-3.9,16.1-7.9,32.3-11.8,48.4c-0.9,3.9-2.8,4.7-6.5,3.2
	c-16.6-6.7-33.2-13.3-49.8-19.9c-1.1-0.4-2.1-0.7-3.9-1.3c-0.9,2.7-1.9,5.3-2.4,8c-2.8,15.7-10.8,29.5-16.1,44.3
	c-1.4,3.9-4,3.8-6.6,2.6c-10.1-4.3-20.1-8.6-30-13.3c-7.2-4-13.8-8-20.5-11.8c-9.8,18.1-19.1,35.5-29.2,54.1
	c-11.1-6.6-21.9-12.9-32.5-19.4c-6.5-3.9-12.7-8.2-19.8-12.8c-2.5,4.8-4.8,8.7-6.6,12.7c-5.8,12.9-13.4,24.7-22.5,35.6
	c-2.6,3.1-4.7,3.5-7.8,0.9c-12-9.9-24.1-19.7-36.2-29.5c-1.9-1.6-3.9-3-5.9-4.6c-10.7,13.8-21.2,27.4-31.8,41c-6.2,8-6,7.8-13.3,1
	c-13-12-26.3-23.7-40.3-36.3c-10.9,16.7-25.4,30.8-41.6,43.6c-13-14.4-26.2-28.9-39.9-43.9c-6.3,5.4-12.4,11-18.7,16.2
	c-8.1,6.6-16.3,13.1-24.7,19.2c-1,0.7-4.4-0.1-5.2-1.2c-7.2-9.9-14-20.1-20.9-30.2c-3.6-5.1-7.3-10.2-11-15.3
	c-10.3,7.6-19.8,15.1-29.8,21.9c-5.6,3.8-11.8,6.7-17.8,10c-2.2,1.2-3.5,1.1-5.1-1.6c-4.3-7-9.3-13.7-13.8-20.5
	c-1.3-2-2-4.5-3.1-6.7c-3.4-6.6-6.8-13.2-10.2-19.8c-1.5-2.8-3.3-2.3-5.7-0.9c-14.7,9-29.6,17.7-44.2,26.9c-4.2,2.7-6.1,1.6-7.8-2.4
	c-5.4-12.6-11-25.2-16.5-37.8c-2.1-4.7-4.3-9.3-6.6-14.3c-8.8,4.3-16.9,8.8-25.5,12.4c-8.9,3.7-18,6.6-27.2,9.6
	c-1.1,0.4-3.7-1.1-4.3-2.3c-1.7-3.8-2.8-7.8-4.1-11.7c-4.3-13.5-8.6-27.1-13.2-41.3c-2.8,0.8-6.1,1.8-9.4,2.8c-14,4-28.1,8-42.2,12
	c-6.5,1.9-7.1,1.6-8.8-5.2c-3.8-15.5-7.4-31-11-46.5c-0.4-1.6-0.8-3.2-1.2-4.9c-7,2.2-13.7,4.8-20.6,6.3
	c-11.2,2.5-22.5,4.1-33.7,6.4c-3.7,0.8-4.9-0.7-5.2-3.9c-0.6-8-1.3-15.9-1.9-23.9c-0.6-7.6-0.6-15.3-1.6-22.9
	c-1.1-8.7-0.9-9.3-10.8-7c-11.5,2.7-22.8,1.2-34.1,2.8c-5.7,0.8-11.5,1.2-17.9,1.8c0-19.5,0-38.7,0-58.6c-2.4,0-4.2,0-6,0
	c-16.2,0-32.3-0.1-48.5,0.1c-3.9,0-5.3-1.1-5.1-5.1c1-16.6,1.7-33.2,2.5-49.8c0.1-1.1,0-2.3,0-3.5c-19.3-2.4-38.5-4.9-58.6-7.4
	c2.6-19,5.1-38.2,7.9-58.5c-19.3-3.8-38.4-7.5-58.6-11.4c5.5-19.1,10.9-38.4,16.4-57.4c-17.6-5.7-34.9-11.2-52.1-17
	c-1.1-0.4-2.6-3.1-2.2-4.1c2.7-7.6,5.8-15.1,8.7-22.7c1.5-3.9,2.5-7.9,4.1-11.7c2.1-5.1,4.1-10.2,6.7-15c1.7-3.2,0.7-4.7-2-5.8
	c-5.6-2.4-11.3-4.7-17-7c-10.8-4.2-21.7-8.4-32.5-12.5c-3.1-1.2-3.4-2.8-1.8-5.7c8.5-15.5,16.9-31.1,25.1-46.8
	c0.5-0.9-0.4-3.3-1.4-4c-11.2-8.4-23-15.5-36.2-20.4c-4-1.5-7.4-4.4-11.1-6.6c-2.3-1.4-2.2-2.8-0.8-4.9
	c8.5-12.7,16.9-25.4,25.2-38.1c2-3,3.6-6.3,4.9-8.6c-14.2-10.6-28.2-21.3-42.4-31.7c-3-2.2-3.3-3.9-1-6.8
	c7.5-9.7,14.8-19.5,21.9-29.4c3.2-4.5,5.7-9.6,8.6-14.6C29.8,928.3,15.1,915.6,0,902.5c4.2-4.5,8.1-7.9,11.1-11.9
	c8.2-10.8,17.4-20.4,28.4-28.4c2.3-1.7,2.3-3.3,0.1-5.2c-8-7-16.1-13.8-23.7-21.1c-4.8-4.6-8.7-10-13.1-14.9
	c-2.3-2.6-1.9-4.4,0.7-6.6c12.4-10.7,24.7-21.6,37-32.4c1.3-1.2,2.7-2.3,5-4.2c-7.9-9.8-15.7-19.2-23-28.9
	c-3.7-4.9-6.6-10.3-9.4-15.7c-0.6-1.1,0.2-4,1.4-4.8c14.2-10.9,28.5-21.5,43.2-32.5c-9.8-15.8-20.2-32.7-31-50
	c6.5-5.3,14.5-8.8,22.6-12.7c9.7-4.6,18.5-10.8,27.6-16.5c0.6-0.4,0.8-2.4,0.3-3.3c-8.3-15.6-16.6-31.3-25.1-46.8
	c-1.5-2.8-1.6-4.4,1.6-5.8c12.9-5.6,25.7-11.4,38.7-16.9c4.5-1.9,9.3-3.1,13.8-4.5c-3.5-9.5-7.2-18.2-9.9-27.1
	c-2.4-8.1-3.8-16.5-5.6-24.8c-0.7-3.1,0.3-4.7,3.7-5.7c11.2-3.5,22.3-7.6,33.5-11.2c3-1,6.2-0.9,9.3-1.5c3-0.6,6-1.5,9.2-2.3
	c-5.5-19.1-10.7-37.6-16.2-56.5c18.6-6.6,37.5-11.8,59.1-11.8c-4.1-19.7-8-38.9-12.2-59c21.3-2.2,41.5-4.3,61.9-6.5
	c-2-18.8-4-37.9-6.1-57.7c21.2,0.7,41.3-7.1,62.6,0.8c0-21.6,0-41.8,0-62.7c20.2,2.1,39.4,4.1,59.3,6.2c0.9-5,2-11.1,2.9-17.3
	c1.6-11.5,3.3-23,4.6-34.6c0.4-4,1.5-5.3,5.6-4.2c3.4,0.9,7,0.7,10.4,1.3c14.5,2.6,28.9,5.3,43.3,8c4.6-18.8,9.3-37.9,14.1-57.7
	c5.7,1.6,10.6,3,15.5,4.4c12.6,3.7,25.2,7.3,37.7,11.2c3.1,1,4.3-0.3,5.1-2.8c2-6.5,3.8-13.1,6-19.5c2.3-6.6,5.1-12.9,7.6-19.4
	c0.7-1.7,1.3-3.4,1.8-5.1c2.6-8.8,2.8-9.1,11.6-5.8c8.4,3.1,16.5,6.9,24.8,10.3c7.5,3.1,15,5.9,24,9.5c3.7-8.9,7.1-18,11.1-26.8
	c3.9-8.7,8.5-17.2,13.1-26.4c18.1,9.1,35.6,17.9,53.8,27c1-1.9,2.2-4.3,3.5-6.7c7.9-13.6,15.8-27.2,23.7-40.8c2.1-3.6,4-4.5,8.1-1.7
	c13.9,9.7,28.1,18.8,42.2,28.2c2,1.3,3.4,2.5,5.3-0.2c7.8-10.9,15.8-21.7,23.6-32.5c2.8-3.9,5.4-7.9,8.2-12.2
	c18.7,9.5,31,26.9,48.3,38.8c4.3-5.6,8.2-11.4,12.8-16.6c7.8-8.8,16.1-17.1,23.9-25.8c3-3.3,4.8-0.4,6.6,1
	c10.2,7.8,18.9,17,26.8,27.2c3,3.9,6.6,9.6,10.4,10c3.3,0.4,7.4-5.4,11.1-8.6c10.4-8.8,20.7-17.6,31-26.5c2.6-2.3,4.9-2.5,7.2,0.1
	c4.7,5.1,9.4,10.2,13.8,15.5c7.3,8.7,14.5,17.6,22.2,27c14.1-11.7,27.9-23,41.7-34.4c4.4-3.6,5-3.1,8.1,1.7
	c5.7,8.9,12.1,17.4,17.8,26.3c3.3,5.1,5.9,10.7,8.8,16.2c1.3,2.5,2.4,4.1,5.7,2.1c14.2-8.7,28.7-17,42.9-26c6-3.8,6.3-4.2,9.5,1.9
	c7.8,14.7,15.6,29.3,23.2,44c1.9,3.6,3.5,4,7.3,2.2c15.9-7.7,32.1-14.9,49.3-22.9c4.9,11.3,10.1,22.5,14.7,33.9
	c2.5,6.3,4,13,6.2,19.4c0.3,0.9,2.7,1.8,3.7,1.5c6.7-2.3,13.3-5.1,20.1-7.4c10.8-3.7,21.7-7.3,32.6-10.7c1.1-0.3,3.9,1.3,4.3,2.5
	c1.9,6,3.4,12.2,4.7,18.3c2.5,11,4.8,22,7.1,33c0.8,3.5,1.9,4.7,6.1,3.4c17-5.2,34.2-9.6,51.3-14.5c3.3-1,4.4,0.6,4.8,3.1
	c3,16.3,6.1,32.6,8.8,48.9c1,6.2,0.7,6.2,6.9,5.3c16.3-2.4,32.5-4.7,48.8-7c1.1-0.2,2.3,0,3.3,0c0.3,0.4,0.7,0.6,0.7,0.9
	c1,17.6,2.2,35.1,2.9,52.7c0.2,4,1.3,5.3,5.2,5c14.3-1,28.5-2,42.8-2.6c11.5-0.4,12-2.9,12.3,11c0.4,14.1-0.7,28.2-1.4,42.3
	c-0.2,4.1,1,6.2,5.3,6.4c13.1,0.6,26.2,1.3,39.4,1.9c1.7,0.1,3.3,0,5,0c9.4,0,12,4.1,8.3,13.2c-0.3,0.8-0.7,1.5-1,2.3
	c-0.3,1-0.5,1.9-0.6,2.9c-1.7,14.3-3.4,28.6-5.1,43.3c19.8,2.7,39.6,5.4,60.3,8.2c-4.5,20.1-8.7,39.4-13.1,59.3
	c19.8,4.1,39.1,8,59,12.1c-6.5,19.1-13.1,38.5-19.9,58.6c17.9,6.2,35.1,12.3,52.4,18c4.5,1.5,4.5,3.6,2.9,7
	c-7.4,15.7-14.8,31.5-22.4,47.2c-1.4,2.9-0.7,4.3,1.9,5.4c14,6.1,27.9,12.2,41.9,18.3c1.1,0.5,2.1,1,3.2,1.4
	c4.2,1.9,4.7,4.5,2.6,8.6c-6.3,12.2-12.2,24.6-21.3,35.2c-2.5,2.9-3.8,7-5.8,10.4c-1.4,2.4-0.5,3.5,1.6,4.7
	c11.5,6.1,23.1,12.2,34.5,18.5c5.1,2.9,9.9,6.3,16.1,10.3c-11.7,15.7-23.7,32-36.2,48.8c6.2,4.8,12.7,10.2,19.4,15.2
	c7.1,5.2,14.4,10,21.6,15.1c1.1,0.8,1.9,1.8,3,2.6c3.7,2.8,4.1,5.6,0.7,9.1c-11.3,11.9-22.3,24-33.7,35.8
	C1693.9,820.7,1694,822.1,1696.8,824.5z"/>
</svg>
