<?xml version="1.0" encoding="utf-8"?>
<!-- Generator: Adobe Illustrator 19.2.1, SVG Export Plug-In . SVG Version: 6.00 Build 0)  -->
<svg version="1.1" id="Layer_1" xmlns="http://www.w3.org/2000/svg" xmlns:xlink="http://www.w3.org/1999/xlink" x="0px" y="0px"
	 viewBox="0 0 1200 1200" style="enable-background:new 0 0 1200 1200;" xml:space="preserve">
<style type="text/css">
	.st0{opacity:0.8;}
	.st1{fill:#FFFFFF;}
</style>
<g class="st0">
	<path class="st1" d="M1012.9,259.9c-30.4-11.8-62.7-14.5-94.6-16.6c-41.1-2.7-81.9,2.2-121.7,12.9c-64.5,17.2-116,52.2-150.3,110.7
		c-16.6,28.3-33.7,56.3-50.6,84.4c-6.2,10.2-12.4,20.4-18.9,31c-7.5-13.1-14.3-25.7-21.8-37.9c-28.8-47-65.5-85.9-114.5-112.4
		c-54.5-29.5-112-43.2-173.4-29.7c-70.3,15.5-122.8,56-154.9,120.6c-23.2,46.6-23.7,96.7-14.6,147c7.3,40.1,23.4,77,43.9,111.9
		c50.3,85.5,114.7,159,192.7,220.3c102.3,80.5,215.4,143.6,331.5,201.4c3.8,1.9,8.8,2.6,13,2.2c12.1-1.4,24.1-4.3,34.5-10.8
		c12.4-7.8,24.7-15.8,36.1-25c35.4-28.5,64.8-62.8,93.5-97.8c65.6-79.9,120.9-166.4,167.1-258.9c38.3-76.7,69.1-156.1,81.6-241.5
		c4.9-33.4,7.5-66.9,4.6-100.6C1091.4,316.9,1063.7,279.7,1012.9,259.9z M1075.6,523.5c-16.6,68.2-44.4,132.1-76.8,194
		c-51.6,98.4-111.4,191.4-184.1,275.7c-27.1,31.5-56.1,61.2-90,85.6c-11.5,8.3-23.8,15.3-37.9,18.5c-6.7,1.5-12.9,0.9-19.3-2.4
		c-54.2-28.2-108.8-55.7-161.1-87.2c-73.6-44.4-144.5-92.4-208.7-149.9c-55.7-50-106.1-104.4-145.3-168.6
		c-18.4-30.3-34.3-61.7-41.8-96.7c-7-32.9-11.5-66.2-7.4-99.7C114,406,160.8,346.2,242.9,317.5c75.6-26.4,147.1-12.5,212.7,32.8
		c44.3,30.6,77.7,71,104.4,117.4c3.1,5.5,6.2,11,9.4,16.5c2.2,3.8,5.4,6.5,10,6.3c4.5-0.3,6.3-3.7,7.9-7.4
		c5.5-12.3,10.5-24.9,16.6-36.8c44.9-87.3,112-149.6,206.6-179.3c54.4-17,110.2-20.6,166.3-7.9c30.5,6.9,58,19.8,79,43.9
		c18.9,21.7,28.7,47.5,32.1,75.6c1.8,15.3,1.9,30.9,2.8,46.3C1090.9,458.6,1083.5,491.1,1075.6,523.5z"/>
	<path class="st1" d="M-10.5-15.9v1233.5H1223V-15.9H-10.5z M1199.9,626c-0.3,1.8-0.7,3.6-0.8,5.4c-1.4,30.5-5,60.8-11.4,90.6
		c-31.6,147.7-107.3,267.8-227.8,358.8c-92.4,69.8-197.1,108.3-312.6,117.4c-6.8,0.5-13.5,1.2-20.3,1.8c-17.7,0-35.3,0-53,0
		c-2.1-0.3-4.2-0.7-6.4-0.8c-30.5-1.4-60.7-5.3-90.6-11.5c-103.2-21.6-195.1-66.5-273.8-136.8C82.7,943.3,15.8,808.4,1.9,647.3
		C1.2,640.2,0.6,633.1,0,626c0-17.3,0-34.7,0-52c0.3-1.8,0.7-3.6,0.8-5.4c1.6-32.8,5.9-65.3,12.9-97.4
		c22.3-101.5,67.2-191.7,136.5-269C257.7,82.3,392.2,15.8,552.7,1.9c7.1-0.7,14.2-1.3,21.3-1.9c17.3,0,34.7,0,52,0
		c1.6,0.3,3.2,0.6,4.8,0.8c26.1,3,52.5,4.5,78.3,9.3C839.5,34,950.3,94.6,1040.3,191.8c94.4,101.9,146.5,222.9,157.8,361.4
		c0.6,6.9,1.2,13.9,1.8,20.8C1199.9,591.3,1199.9,608.7,1199.9,626z"/>
</g>
</svg>
