<?xml version="1.0" encoding="utf-8"?>
<!-- Generator: Adobe Illustrator 19.2.1, SVG Export Plug-In . SVG Version: 6.00 Build 0)  -->
<svg version="1.1" id="Layer_1" xmlns="http://www.w3.org/2000/svg" xmlns:xlink="http://www.w3.org/1999/xlink" x="0px" y="0px"
	 viewBox="0 0 980 981.9" style="enable-background:new 0 0 980 981.9;" xml:space="preserve">
<style type="text/css">
	.st0{opacity:0.8;fill:#FFFFFF;}
</style>
<path class="st0" d="M-13.7-10.6V995H991.9V-10.6H-13.7z M979.4,333.1c-3.2,56-18.3,122.3-43.9,191.7
	c-24.8,67.4-54.9,124.8-92,175.4c-37.5,51.2-86,100.7-144.2,147C645.9,889.8,490,981.8,490,981.8l3.5-2.8l149.8-181l52.8,46.6
	l5.9-6.6l-51.2-45.2l193.3-94.4l-1.9-4l4.3,0.2l7.8-194.1l76.9,22.1l2.4-8.5l-76.3-21.9l119.3-167.9l-3.6-2.5l2.4-3.8l-117.1-73.9
	l94.2-57.9l-4.6-7.6l-94.5,58L827.3,27.8l-4.4,0.5l-1.5-4.1L643,90.4l-18.1-76.6l-8.6,2l18.3,77.7L494.5,149v-32.4h-8.9V149
	L345.5,93.5l18.3-77.7l-8.6-2l-18,76.5L158.8,24.2l-1.6,4.2l-4.4-0.6l-26.1,208.9l-94.5-58l-4.6,7.5l94.2,57.9L4.8,318l2.3,3.8
	l-3.6,2.5L123,492.1l-76.3,21.8l2.4,8.5l76.8-22l7.8,194.1l4.4-0.2l-2,4l193.3,94.4L278.1,838l5.9,6.6l52.8-46.6l149.8,181.1
	l3.4,2.8c0,0-155.9-92.1-209.2-134.7c-58.1-46.3-106.6-95.8-144.2-147c-37-50.4-67.1-107.8-92-175.4C19,455.4,3.8,389.1,0.7,333.1
	C-2.5,277.5,5.4,223.7,24,173.2c16-43.1,38-78.5,65.5-105c24.3-23.5,53-40.2,90.1-52.6C218.1,2.8,256.1-1.9,303,0.6
	c25.7,1.3,56.5,4.9,89.5,20.8c37.2,18,66.2,43,97,87.1l1.9,0.1c30.8-44.1,58.8-69.2,96-87.2c33.1-16,63.8-19.5,89.5-20.8
	c46.9-2.4,84.9,2.2,123.5,15c37.2,12.4,65.8,29.1,90.1,52.6c27.5,26.5,49.5,61.9,65.5,105C974.6,223.7,982.5,277.5,979.4,333.1z
	 M705.5,610.6l139.7-106.8l-7.5,187.8L650,783.2L705.5,610.6z M639.9,785.9l-139.6-50.2L693.8,618L639.9,785.9z M787.8,393.9
	l56.5,99.5L711.4,594.9L787.8,393.9z M786.7,373.4l-77.8-147.6l134.5,21.8L786.7,373.4z M792,383.3l59.8-132.8L966.7,323
	L850.5,486.5L792,383.3z M703.7,216L646,98.8l173.2-64.3l25.6,204.3L703.7,216z M692.2,212.7L503.4,155l134.2-53.1L692.2,212.7z
	 M697.9,223.8l84.3,159.9L698.1,605L490,731.5L281.9,605l-84-221.2l84.5-160.2l207.5-63.3L697.9,223.8z M278.4,608l-0.2,0.1V608
	H278.4z M136.7,247.5l134.6-21.7l-77.9,147.7L136.7,247.5z M268.7,595L135.8,493.4l56.5-99.5L268.7,595z M288,212.6l54.5-110.7
	L476.7,155L288,212.6z M276.4,215.9l-141,22.8l25.5-204.2l173.2,64.2L276.4,215.9z M188.1,383.3l-58.5,103.1L13.5,323l114.8-72.4
	L188.1,383.3z M274.6,610.7L330,783.1l-187.6-91.6l-7.5-187.6L274.6,610.7z M286.2,617.9l193.6,117.8l-139.6,50.2L286.2,617.9z
	 M490,741.4l145.3,52.2L490,969.3L344.7,793.6L490,741.4z"/>
</svg>
