<?xml version="1.0" encoding="utf-8"?>
<!-- Generator: Adobe Illustrator 19.2.1, SVG Export Plug-In . SVG Version: 6.00 Build 0)  -->
<svg version="1.1" id="Layer_1" xmlns="http://www.w3.org/2000/svg" xmlns:xlink="http://www.w3.org/1999/xlink" x="0px" y="0px"
	 viewBox="0 0 1680.5 1413.3" style="enable-background:new 0 0 1680.5 1413.3;" xml:space="preserve">
<style type="text/css">
	.st0{opacity:0.8;}
	.st1{fill:#FFFFFF;}
</style>
<g class="st0">
	<path class="st1" d="M705.7,249.4c20.8-18.2,41.6-36.4,62.5-54.5C742.6,207.7,720.5,224.3,705.7,249.4z"/>
	<path class="st1" d="M786.6,1300.8c-3.3,1.5-6.2,2.9-9.5,4.4C782.7,1309.1,784.3,1308.4,786.6,1300.8z"/>
	<path class="st1" d="M772,1337.2c3.8,1.8,7.5,3.6,12,5.7C781.5,1335.1,781.5,1335.1,772,1337.2z"/>
	<path class="st1" d="M529.8,1222.5c1.9,0.4,5.6-0.3,5.9-1.4c0.7-2.1,0.6-5.9-0.7-7c-6.8-5.6-12.7-12.7-22.2-15.1
		C512.1,1208,521,1220.4,529.8,1222.5z"/>
	<path class="st1" d="M507.1,1171.9c2.8,8,2.8,8,17.6,11.1C518.8,1179.3,512.9,1175.6,507.1,1171.9z"/>
	<path class="st1" d="M663.8,1217.2c7.1,3.1,14.3,6.2,21.4,9.3c0.4-1,0.7-1.9,1.1-2.9c-7.2-2.8-14.5-5.5-21.7-8.3
		C664.3,1215.9,664.1,1216.5,663.8,1217.2z"/>
	<path class="st1" d="M620.7,259.3c2.1,1.6,4.6,3,6,5.1c4.3,6.4,12.5,7.5,18,2c4.4-4.3,8.7-8.7,13-13c2.7-2.7,5.4-5.5,8-8.2
		c-7-3.7-13.4-7.2-19.9-10.2c-1.2-0.6-3.7,0.4-4.9,1.5c-6.9,6-13.4,12.2-20.3,18.2C618.4,256.6,618.6,257.7,620.7,259.3z"/>
	<path class="st1" d="M970.6,62.8c-0.9-0.3-1.7-0.4-2.5-0.3c-19.9,3.5-39.2,9-57.4,17.6c-26.4,12.5-52.6,25.3-78.9,38
		c-3.6,1.8-7.1,3.9-10.6,5.8c0.3,0.6,0.6,1.2,0.9,1.7C872.8,107.5,921.2,84.1,970.6,62.8z"/>
	<path class="st1" d="M917.9,1241.1c0.7-0.4,1.3-2.2,1.1-2.4c-0.9-0.8-2-1.5-3.2-1.6c-12.8-1-20.3,7.3-28.7,16.1
		c1.7,0.4,2.2,0.7,2.6,0.6C900.4,1252.6,909.1,1246.6,917.9,1241.1z"/>
	<path class="st1" d="M868.7,1275.9c-1,0.8-0.9,5-0.5,5.2c4.6,1.5,9.3,2.6,14,3.7c0.5,0.1,1.2-0.5,1.8-0.7c1.7-0.5,3.4-1.2,5.2-1.4
		c7.6-0.8,14.9-1.5,21.8-5.8c14.3-9,22.9-23.3,34.4-34.9c0.5-0.4,0.4-1.2,0.7-2.7c-2.2,0.7-3.9,1-5.5,1.7
		c-6.3,2.6-12.5,5.3-18.8,7.9c-12.3,5-24.8,9.5-36.8,15.1C879,1266.8,873.9,1271.6,868.7,1275.9z"/>
	<path class="st1" d="M583.2,1195.1c-3-3.3-5.6-7.4-9.2-9.8c-17.6-12.1-35.6-23.7-53.4-35.5c-6-4-11.9-8-17.8-12.1
		c20.6,27.8,47.2,46.9,78.9,59.1C582.2,1196.2,582.7,1195.7,583.2,1195.1z"/>
	<path class="st1" d="M784.1,1246.5c-4.3-1.1-7.9-2.1-12.3-3.2c4.8,3.7,8.8,6.9,13.7,10.7C784.9,1250.7,784.5,1248.5,784.1,1246.5z"
		/>
	<path class="st1" d="M961.3,1222.8c1-0.7,1.7-1.8,2.5-2.7c-1.3-0.8-2.8-2.5-3.9-2.3c-4.3,0.9-8.5,2.2-12.6,3.8
		c-1.1,0.4-1.6,2.1-2.6,3.5C951.2,1227.2,956.5,1226,961.3,1222.8z"/>
	<path class="st1" d="M726.5,1290.7c7.5,3,15.1,5.8,22.5,9.1c4,1.8,7.6,2.4,11.6-0.2c2.3-1.5,5.3-1.8,7.9-2.8c2-0.8,3.8-1.8,5.8-2.7
		c-0.1-0.5-0.2-0.9-0.2-1.4c-18.6-5-37.3-9.9-56.3-14.9C716.7,1284.8,718.6,1287.5,726.5,1290.7z"/>
	<path class="st1" d="M859.6,127.1c-0.3-0.6-0.7-1.2-1-1.9c-29.5,15-59.7,28.9-86.9,48.2c0.3,0.6,0.6,1.2,1,1.7
		C801.6,159.2,830.6,143.2,859.6,127.1z"/>
	<path class="st1" d="M576.1,230.4c-0.2,0.4-0.4,0.9-0.5,1.3c9.7,7.6,18.8,16.1,30.6,20.5c1.7,0.6,4.5-0.4,6.2-1.4
		c3.8-2.3,7.2-5.3,10.8-7.8c4.5-3.1,9.2-6,15-9.7c-10.8-3.2-20-6.4-30-5c-6.4,0.9-12.8,1.6-19.3,2
		C584.7,230.7,580.4,230.4,576.1,230.4z"/>
	<path class="st1" d="M504.9,237.1c-1.9-5.3-6.8-4.7-11.2-6.2C497.5,236.8,501.4,238.9,504.9,237.1z"/>
	<path class="st1" d="M474.6,190.4c-5.4-6.5-10.1-12.4-15.1-18.1c-4.1-4.6-5.1-4.4-9.7,0.2C457.7,178.5,460.7,190.6,474.6,190.4z"/>
	<path class="st1" d="M639.5,1233.8c-4.9-9.2-15.2-9.6-22.8-14.7C621.3,1228.8,631.6,1229.2,639.5,1233.8z"/>
	<path class="st1" d="M637.8,1266.6c1.5,0.5,3.3,0,5,0c-0.3-1.7-0.1-3.7-0.9-5.1c-4.3-7.4-11.6-10.3-19.7-12
		C626.6,1256,629.5,1263.8,637.8,1266.6z"/>
	<path class="st1" d="M485.3,188.2c1.7,1.3,3.4,2.7,4.7,4.3c9.8,13.3,19,13.9,35.2,11.3c-6.8-5.1-12.7-9.8-18.9-14.1
		c-10.9-7.6-24.3-11.7-32.8-22.8c-0.9-1.1-3.5-1-5.3-1.5c-0.3,0.4-0.5,0.8-0.8,1.3C471.9,175,477.6,182.4,485.3,188.2z"/>
	<path class="st1" d="M536.4,198.8c13.6,4.8,27.3,9,40.9,13.8c5.4,1.9,8.7-0.8,12.5-4.1c-28.2-14.5-55.9-28.8-83.6-43
		c6.7,9.6,14.1,18.6,21.9,27.3C530.3,195.3,533.3,197.7,536.4,198.8z"/>
	<path class="st1" d="M513.5,160.8c28.8,13.6,56.4,26.7,83.9,39.8C596.1,181.7,544.1,156.2,513.5,160.8z"/>
	<path class="st1" d="M611.9,279.5c3.4,4.3,7,8.3,10.8,12.1c0.4,0.5,1.7,0.3,3.5,0.6C623.3,284.9,619.1,280.5,611.9,279.5z"/>
	<path class="st1" d="M519.5,229.6c9.6,1.5,15.5,0.8,19-5c-11.6-2.6-22.9-5-34.3-7.4C509.8,220.8,511.7,228.4,519.5,229.6z"/>
	<path class="st1" d="M539.5,238.9c9.6,6.5,20.7,9,32.4,12.2C562.5,241.9,552.9,235.5,539.5,238.9z"/>
	<path class="st1" d="M499.8,1200.2c1.9-13.6-1.5-14.5-18.8-21.1C486.4,1186.8,491,1195.1,499.8,1200.2z"/>
	<path class="st1" d="M549.9,1215.5c-0.3,0.5-0.6,1-0.8,1.4c12.9,9,25.8,18.1,38.7,27.1c0.3-0.4,0.6-0.8,0.9-1.2
		c-4.5-5-9.7-9.6-13.5-15.1C568.9,1218.4,558,1220.2,549.9,1215.5z"/>
	<path class="st1" d="M548.4,1238.7c28,19.9,55.3,39.2,82.5,58.5C624.1,1283.8,565.9,1243.1,548.4,1238.7z"/>
	<path class="st1" d="M594.3,257.4c-4.5-3.3-8.9-6.7-13.4-10c-0.5,0.6-0.9,1.3-1.4,1.9c4.5,3.3,8.9,6.7,13.3,10.1
		C593.3,258.7,593.8,258.1,594.3,257.4z"/>
	<path class="st1" d="M548.6,254.7c9,6.9,19.7,8.1,30.4,9.1c0.1-0.4,0.2-0.8,0.3-1.2c-11-4.8-21.9-9.6-32.9-14.4
		c-0.3,0.4-0.6,0.7-0.8,1.1C546.6,251.1,547.1,253.5,548.6,254.7z"/>
	<path class="st1" d="M1015.5,61.9c-6.5,1.1-13,2.2-19.4,3.3c0.1,0.7,0.3,1.5,0.4,2.2c6.4-1.2,12.9-2.5,19.4-3.8
		C1015.8,63,1015.7,62.5,1015.5,61.9z"/>
	<path class="st1" d="M1423.2,175.7c-20.1-18.9-40.8-37-65.4-49.9C1376.6,146.3,1396.6,165.4,1423.2,175.7z"/>
	<path class="st1" d="M1450.7,859.3c-10.7,13.2-21.5,26.2-32,39.4c-1.7,2-2.3,4.9-3.8,8.3C1431.9,893.9,1448.3,881.9,1450.7,859.3z"
		/>
	<path class="st1" d="M1461.3,181.8c-5.8-6.5-11.2-12.6-16.6-18.8c-0.3,0.3-0.6,0.5-0.9,0.8c2.6,5,5.3,9.9,7.7,14.9
		C1453.6,183.2,1456.9,183.2,1461.3,181.8z"/>
	<path class="st1" d="M1451.5,151.9c8,9,16,18,24.1,26.8c4.5,4.9,5.2,4.8,11.5-0.6c-11.5-9.4-22.8-18.7-34.1-28
		C1452.5,150.7,1452,151.3,1451.5,151.9z"/>
	<path class="st1" d="M1478.5,156.2c-6.6-6.7-12.6-12.9-18.7-19.1c-2.5-2.6-5.9-4.7-7.6-7.7c-3.6-6.3-9-10-15-13.3
		c-8.3-4.5-16.4-9.2-26.2-11.3C1416.2,112.8,1472.4,156.1,1478.5,156.2z"/>
	<path class="st1" d="M1413.3,176.6c13.3,10.7,26.7,21.5,40,32.2C1443.7,193.3,1432.6,179.7,1413.3,176.6z"/>
	<path class="st1" d="M1020.3,1193.1c0.4-0.6,0.3-2.1-0.2-2.6s-1.9-0.7-2.7-0.4c-3.6,1.6-6.8,3.1-9.9,6.3c-5,5.2-10.2,9.7-12.6,17.4
		C1006.1,1209.9,1013.9,1202.3,1020.3,1193.1z"/>
	<path class="st1" d="M1627.4,387.5c0.5-0.1,0.9-0.3,1.4-0.4c-1.4-9.2-2.5-18.4-4.2-27.5c-1.2-6.7-2.1-13.8-5.2-19.6
		c-8-14.9-16.6-29.4-25.9-43.5c-21.2-32-47.3-59.7-76.8-84.2c-5.8-4.8-13.2-7.6-19.9-11.3c23.1,30.6,47.1,59.9,70.3,89.8
		C1590.4,321,1611.2,352.8,1627.4,387.5z"/>
	<path class="st1" d="M1602.4,560.1c0.6-0.1,1.2-0.1,1.8-0.2c4.7-16.9-1.4-33-5.1-49.3c-1,1.8-1.5,3.6-1.3,5.5
		c0.7,9.2,1.5,18.4,2.5,27.6C1600.7,549.2,1601.6,554.6,1602.4,560.1z"/>
	<path class="st1" d="M1489.8,811.6c-9.4,15.3-16.1,32.1-24.1,48.2c0.5,0.3,1.1,0.5,1.6,0.8c17.8-14.3,64.9-77.4,65.9-88.7
		C1516.1,782.4,1500.3,794.7,1489.8,811.6z"/>
	<path class="st1" d="M1517.4,252.4c-13.7-18.1-28-35.8-41.7-53.9c-6-7.9-5.7-8.2-16.1-7.3c6,10.7,12.2,21.5,18.1,32.4
		c2.9,5.4,6.8,9.3,12.3,11.7c3.8,1.7,7.6,3.4,11.1,5.6c1.4,0.9,3,3.1,2.8,4.5c-0.2,1.5-2.1,3.2-3.7,4c-1.7,0.8-3.9,0.7-6.4,1
		c2.5,9.5,6.2,18.3,11.7,25.8c13.6,18.6,27.8,36.8,42,54.9c13.3,17,22.9,36,30.9,56c3.9,9.8,1.8,20.1,2.1,30.1
		c0.1,6.6,0.9,12.7,3.9,18.8c3.7,7.6,6.6,15.6,9.8,23.4c4.2,10.6,8.3,21.3,12.6,32.2c1.1-0.5,2.3-1.1,2.3-1.1
		c0.5,5.1,0.8,10.2,1.6,15.2c2.1,13.3,6.1,26.4,4.5,40c-1.9,15.7-3.2,31.6-7,46.8c-5.3,21.2-12.5,42-19.1,62.9
		c-5.4,16.6-10.8,33-16,49.4c31.4-30.2,73.6-204.4,60.8-244.5c-1.9,1.4-4,2.8-6.1,4.3c-0.3-0.3-0.7-0.7-1-1c0.8-1.8,1.6-3.6,2.3-5.4
		c2.1-6,6.4-11.4,4.8-18.4c-1.2-5-2.1-10.1-3.4-15.1c-3.8-15.2-11.7-28.5-19.6-41.7C1583.1,337.1,1549.8,295.1,1517.4,252.4z"/>
	<path class="st1" d="M1513.3,774.7c16.4-6.3,43.9-49.1,45.4-71.4C1543.2,727.6,1528.4,751,1513.3,774.7z"/>
	<path class="st1" d="M1587.5,540.8c-1.3,11-3.3,22.1-3.7,33.2c-0.8,25.3-8.6,48.7-18.7,71.4c-5.6,12.6-12.8,24.4-19.1,36.6
		c-12.7,24.8-25.4,49.6-38,74.4c-1.6,3.2-3,6.5-4.5,9.7C1546.8,735.4,1602.8,585.3,1587.5,540.8z"/>
	<path class="st1" d="M1560.8,467.5c2.8,10,4.7,20.5,7,30.8c0.2-0.5,0.5-0.9,0.6-1.3c4.9-18,4.6-36.2,2.1-54.4
		c-0.8-6.2-1.7-12.7-4.4-18.1c-2.8-5.6-7.8-10.2-12-15.1c-1-1.1-2.3-1.9-4.6-3.8c0,8.1-0.4,14.9,0.1,21.6c0.5,6.2,1.5,12.5,3.2,18.4
		C1555,453,1558.7,460,1560.8,467.5z"/>
	<path class="st1" d="M1531.5,643.8c-6.9,22.2-12.5,44.7-18.5,67.2c-0.8,3-1.1,6.1-1.7,9.1c2.3-1.1,3.5-2.4,4.8-3.8
		c21.8-23.8,36.1-51.5,43.2-82.8c3.7-16.2,7-32.5,9.5-48.9c1.8-11.3,2-22.9,2.8-34.3c0.2-1.4,0.1-2.9,0.1-5.1
		c-1.1,0.8-1.5,0.9-1.6,1.1c-7.7,19.9-15.2,40-23.1,59.8C1542,618.7,1535.6,630.9,1531.5,643.8z"/>
	<path class="st1" d="M1341.9,97.4c-7.1-5.8-14.8-8.3-22.2-5.7c37.3,25.6,73.9,50.7,110.5,75.8c0.4-0.3,0.8-0.6,1.2-1
		c-0.6-2-0.9-4.2-1.9-5.9c-6.4-10.6-12.8-21.3-19.7-31.6c-5.7-8.5-12.9-15.3-22.7-19.3c-12-4.8-23-12.2-36.2-13.6
		C1348.4,95.8,1345.8,96.8,1341.9,97.4z"/>
	<path class="st1" d="M1308.4,115.2c-2-1.1-4-2.3-6.1-3.4c-10.6-5.8-20.9-12.1-31.8-17.2c-6-2.8-13-2.6-19.9-0.7
		c17.5,10.5,37.3,15.2,55.4,23.9C1306.8,116.9,1307.6,116,1308.4,115.2z"/>
	<path class="st1" d="M1095.8,68c-2.3-1.4-4.4-3.4-6.9-4.1c-8.8-2.7-17.2,0.4-25.6,2.6c10.6,1,21.1,2,31.7,3
		C1095.3,69,1095.5,68.5,1095.8,68z"/>
	<path class="st1" d="M1039.9,1237c3.4,0.1,6.5,0.6,9.7-2.5c8.3-7.8,17.3-14.9,25.8-22.4c1-1,1.3-2.9,2-4.4c-0.3-0.4-0.7-0.9-1-1.3
		c-3.8,1.3-8.5,1.5-11.2,4c-9.1,8-17.6,16.8-26.2,25.3C1039.3,1236.1,1039.6,1236.6,1039.9,1237z"/>
	<path class="st1" d="M1113.6,1138.3c-7,3.2-13.4,6.8-19.9,10.6c-1,0.6-2.3,1.2-2.7,2.1c-2.7,6.8-5.1,13.8-7.6,20.7
		c0.6,0.4,1.3,0.8,1.9,1.2C1092.8,1159.8,1106.5,1151.9,1113.6,1138.3z"/>
	<path class="st1" d="M1144,2.7c-1-0.2-2,0-3,0.1c-21.3,2.8-42.7,4.9-63.8,8.7c-18.4,3.3-36.6,8.1-54.7,13
		c-13.6,3.7-26.9,8.5-40.2,13s-27,8.3-39.8,13.9c-15.4,6.8-30.2,15.1-45.2,22.8c-6.3,3.2-12.6,6.4-18.8,9.6
		c92.6-38.2,190.1-58.3,287.8-76.9C1158.7,5.3,1151.4,3.9,1144,2.7z"/>
	<path class="st1" d="M1098.1,62.7c7.8,12.2,32.8,13.6,48.5,3.1C1140.1,62.3,1107,60.1,1098.1,62.7z"/>
	<path class="st1" d="M1146.1,1143c-9.9,6.8-19.8,13-27.1,23.1c-9.2,12.7-19.6,24.6-29.9,36.4c-2.9,3.4-2.9,5.4,0.1,8.6
		C1112.3,1196.5,1145,1157.4,1146.1,1143z"/>
	<path class="st1" d="M1048.5,1182.8c-0.4,4.8-1.6,9.5-2.5,14.7c10-3.3,18.2-7.1,24.4-14.5c3.7-4.2,5.7-20.7,2.7-27.4
		c-2.6,5.2-10.7,14.3-15.7,16.5S1049,1177,1048.5,1182.8z"/>
	<path class="st1" d="M1343.3,114.3c-17.4-8.9-35-17.5-52.5-26.1c-4.4-2.2-10-1.3-12.3,1.3c25.7,14.9,51.5,29.9,77.3,44.8
		C1354.4,122.3,1352.9,119.2,1343.3,114.3z"/>
	<path class="st1" d="M1289,123.4c0.3-0.4,0.5-0.9,0.8-1.3c-7.8-3.1-15.6-6.2-23.3-9.2c-0.2,0.5-0.4,1.1-0.7,1.6
		C1272.6,119.6,1280.7,121.7,1289,123.4z"/>
	<path class="st1" d="M1039.8,56.4c0.1,0.7,0.2,1.3,0.3,2c6.5-1.1,13-2.2,19.4-3.4c-0.1-0.6-0.2-1.2-0.3-1.8
		C1052.7,54.3,1046.3,55.4,1039.8,56.4z"/>
	<path class="st1" d="M1302.4,78.1c2.7,3,40.2,6.8,48.8,5.4C1335.8,76.8,1319.9,75.6,1302.4,78.1z"/>
	<path class="st1" d="M1287.5,62.9c14.5,5.5,29,8.1,43.4,5.1c-25.6-17.9-53.4-32-86.9-36.3c3.4,2.8,5.7,4.8,8.1,6.7
		C1263.6,47,1273.5,57.6,1287.5,62.9z"/>
	<path class="st1" d="M1082,40c-7.3,2.1-14.4,5-22.6,8c1.8,0.6,2.1,0.8,2.5,0.8c11.6,1.2,23.1,2.4,34.7,3.6
		c23.8,2.4,47.7,4.9,71.5,7.2c9.1,0.9,18.3,1.3,27.4,2c22.1,1.8,44.1,3.7,66.2,5.4c1.8,0.1,3.6-0.9,5.4-1.4c-0.7-1.9-1-4-2.1-5.6
		c-15.6-21-39-28.9-62.6-34.9c-26.4-6.6-53-2.1-79.1,3.6C1109.4,31.7,1095.7,35.9,1082,40z"/>
	<path class="st1" d="M633,1307c-6.8-5.9-15.4-9.8-22.6-15.3c-23.7-17.6-46.8-36-72.7-50.4c-9.1-5.1-17.9-10.8-29.4-9.1
		c-2.8,0.4-6.3-1.7-9-3.4c-3.2-2-6-4.7-8.8-7.3c-8.3-7.9-16.4-16-19-27.9c-0.3-1.4-2.1-2.5-3.1-3.8c-0.4,0.2-0.8,0.4-1.1,0.6
		c0.2,1,0.2,2.1,0.7,2.9c1.9,3.3,2.8,6.8-0.6,9.4c-3.5,2.7-5.5-1.1-7.4-2.9c-31.7-28.5-63.4-57.1-94.9-85.8
		c-18.1-16.5-35.9-33.5-53.9-50.2c-0.9-0.6-2.4-0.7-3.7-1.1c90.8,117.7,208.8,200.4,339.6,268.9C645.8,1320.3,639.9,1312.9,633,1307
		z"/>
	<path class="st1" d="M795.1,1346.3c3.7,1.2,7.4,2.3,11.1,3.4c0.2-0.8,0.4-1.6,0.6-2.4c-3.7-1-7.5-2-11.2-3
		C795.4,1345,795.2,1345.6,795.1,1346.3z"/>
	<path class="st1" d="M903.5,1299.9c11.8,0.7,22.8,1.6,33.7,2c1.9,0.1,3.8-1.6,5.8-2.6C938,1295.5,907,1295.4,903.5,1299.9z"/>
	<path class="st1" d="M781.6,1351.4c-7.7-4.8-16.1-8.7-24.4-12.3c-27.7-12-55.5-23.7-83.3-35.4c-7.6-3.3-15.4-5.9-23.1-8.7
		c-0.2,0.3-0.4,0.7-0.6,1c1.3,1.2,2.4,2.5,3.8,3.6c8.2,6.8,16.5,13.3,24.6,20.3c21.6,18.6,45,34.5,71.8,44.6
		c14.3,5.4,28.6,8,42.3-2.1C789.2,1358.8,786,1354.1,781.6,1351.4z"/>
	<path class="st1" d="M900,1324.3c-4.1-0.1-6,1.4-6.9,6.4c12.5-1.4,24.7-2.8,36.8-4.1c0-0.6,0-1.1,0.1-1.7c-1.7-0.2-3.4-0.5-5.1-0.5
		C916.6,1324.3,908.3,1324.6,900,1324.3z"/>
	<path class="st1" d="M673,1333.5c0.9,1.4,1.9,2.7,2.7,4.1c3.5,6.2,8.1,11.3,14.7,14.2c11.1,4.8,22.4,9.1,33.4,14.2
		c5.3,2.5,10.3,4.2,17.4,2.5c-23.1-12.4-45.3-24.4-67.4-36.3C673.5,1332.6,673.3,1333.1,673,1333.5z"/>
	<path class="st1" d="M887.8,1350.6c-4.8-1.1-9.5-3-14.1-4.8c-7.1-2.8-14.3-5.2-22.2-4.1c-5.8,0.8-10.6,3.4-14.4,7.9
		c-1.7,2.1-1.7,3.7,0.6,5.4c3.9,2.8,7.3,6.6,11.6,8.5c7.1,3.2,14.3,8.1,22.6,4.8c11.2-4.5,22-9.4,32.9-14c-0.2-0.4-0.3-0.7-0.5-1.1
		C898.8,1352.4,893.2,1351.9,887.8,1350.6z"/>
	<path class="st1" d="M842,1245.8c-3.6,0-7.2-0.1-10.7,0.1c-0.9,0-1.9,1-2.4,1.8c-3.4,4.9,0.8,6.5,3.7,8.7c3.3-3.3,6.5-6.4,9.7-9.4
		C842.2,1246.6,842.1,1246.2,842,1245.8z"/>
	<path class="st1" d="M826.5,1324.1c-5.1-1.1-10-1.7-16.8-2.8c-3.9,1.4-9.3,3.3-14.7,5.3c-2.9,1.1-2.5,2.9-0.6,4.5
		c1.3,1.2,3,2.3,4.7,2.8c6.9,2,12.5,6,17.5,11c2.5,2.6,6.3,1.2,7.5-2.4c1.5-4.9,3.2-9.7,4.4-14.7
		C828.8,1326.7,827.5,1324.4,826.5,1324.1z"/>
	<path class="st1" d="M79.1,294.3c-1.2,1-1.7,1.2-1.9,1.5c-5.9,11.9-11.7,23.7-17.5,35.6c-0.4,0.9-0.1,2.3,0.1,3.4
		c0.4,3.1,1,6.2,1.4,9.3c0.8,9.6,1.7,19.2,2.6,28.7c0.6,0,1.2,0.1,1.8,0.1c0.4-1.2,0.8-2.3,1.1-3.5c3.2-14.6,5.3-29.5,9.9-43.6
		C80,315.3,77.6,305.3,79.1,294.3z"/>
	<path class="st1" d="M459.6,1116.3c-9.2-10.2-17.6-19.6-26.2-29.2C432.5,1098.7,448.1,1113.8,459.6,1116.3z"/>
	<path class="st1" d="M103.4,635.9c-4.2-14.2-8.1-28.4-12.5-42.5c-2.4-7.2-5.6-14-8.4-21c-0.5,0.1-1,0.2-1.5,0.3
		c-1.5,4.5-3.4,9-4.2,13.6c-1.5,8.8-3.6,17.8-3.1,26.5c0.7,11.2,3.7,22.3,6,33.3c2.3,11.2,5.1,22.3,7.6,33.4
		c1.3,5.5,2.3,11,3.8,16.4c1.2,4.4,2.8,8.7,4.4,13c2.3,6.5,4.7,13,7,19.5c0.5-0.2,1-0.3,1.6-0.5c0-1.8,0-3.6,0-5.4
		c0-19.3-0.1-38.6,0.1-58c0-6.4-1.2-12.9,2-19.1c0.7-1.4-0.3-3.8-0.8-5.6C105,638.4,103.8,637.3,103.4,635.9z"/>
	<path class="st1" d="M63.6,488.3c1.1-8.2-3.8-14.5-6.5-21.4C55,475.2,60.4,481.4,63.6,488.3z"/>
	<path class="st1" d="M152.4,760.2c-1.9-6-5-11.6-7.3-17.4c-8.2-20.6-16.3-41.3-24.4-62c-0.4-1-1.3-1.9-2.7-3.7c0,3-0.1,4.9,0,6.7
		c1,27.4,1.9,54.9,3,82.3c0.1,3.2,0.7,6.7,2,9.6c5.1,11.5,10.6,23,16.4,35.4c0.9-1.6,1.3-2.1,1.5-2.7c4.2-12.2,8.6-24.4,12.3-36.7
		C154.2,768.2,153.5,763.8,152.4,760.2z"/>
	<path class="st1" d="M123.9,624.1c0.7-0.1,1.5-0.2,2.2-0.4c-0.9-4.1-1.9-8.2-2.9-12.4c-0.3,0-0.6,0-1,0.1
		C122.8,615.6,123.3,619.9,123.9,624.1z"/>
	<path class="st1" d="M148.5,303.9c-7.2,4.5-13.8,9.6-20.6,14.2c-4.3,2.9-7.6,6.1-8.7,11.2c-1.1,5-2,10.1-3,15.1
		c-1.3,5.3-2.6,10.7,5.8,12.3C128.3,338.2,136.8,320.3,148.5,303.9z"/>
	<path class="st1" d="M1283.7,1074.9c23-30.7,46-61.4,68.9-92C1319.1,1005.7,1299.4,1038.8,1283.7,1074.9z"/>
	<path class="st1" d="M49.9,366.5c-0.3,1.1-0.8,2.3-1,3.4c-2,12.3-3.9,24.6-5.7,36.9c-0.4,2.7-0.9,5.9,0,8.3
		c2.3,6.2,5.4,12.2,8.3,18.4c1.1-2.3,2.4-4.4,3.3-6.7c0.6-1.5,1.1-3.2,1.2-4.8c0.5-18.5-1.3-36.9-4.7-55.2
		C50.8,366.7,50.4,366.6,49.9,366.5z"/>
	<path class="st1" d="M1174.2,1160.1c0.5-4.5,1.1-9.1,1.6-13.6c-0.6-0.2-1.2-0.4-1.8-0.6c-0.6,0.8-1.2,1.6-1.8,2.3
		c-14.5,16-28.9,32-43.4,48c-6.9,7.6-14.1,14.9-20.5,22.9c-5.3,6.6-9.5,14-14.3,20.9c-4.7,6.7-9.7,13.2-14.6,19.8
		c0.3,0.3,0.6,0.6,0.9,0.8c32-26.2,64.1-52.3,96.3-78.6c-1-4.7-2.2-9.4-2.9-14.3C1173.4,1165.2,1173.9,1162.6,1174.2,1160.1z"/>
	<path class="st1" d="M1202.7,91.9c4.5-1.3,8.9-3.1,14.2-5c-5.5-1.8-10.3-3.5-15.1-4.9c-4.8-1.3-9.6-2.5-14.5-3.2
		c-3.9-0.6-5.5,2.4-5.9,5.7c-0.4,3.8,2.9,2.6,4.9,3.2c4.3,1.1,8.6,2.4,12.8,3.5C1200.3,91.5,1201.7,92.2,1202.7,91.9z"/>
	<path class="st1" d="M1299.1,1032.1c3.7-5.7,4.7-12.3,5.4-18.9c-0.5-0.3-0.9-0.7-1.4-1c-3.4,3-6.7,5.9-10.1,8.9
		c-31.6,28-61.1,58-84.5,93.3c-8.3,12.4-16.1,25.3-18.7,40.3c-0.8,4.5-0.1,9.3-0.1,15c2.8-1.7,4.4-2.5,5.8-3.6
		c5.4-4.4,11-8.6,16-13.4c15.9-14.9,32.3-29.5,45.1-47.5c5.3-7.4,10.9-14.7,9.2-24.9c-0.4-2.1,0.4-4.8,1.6-6.6
		c4.5-6.7,8.5-14.2,14.4-19.4C1289.1,1047.8,1294,1039.9,1299.1,1032.1z"/>
	<path class="st1" d="M1387.1,948.3c-21.2,30-41.8,60.5-62.6,90.9c-3.8,5.5-7.2,11.2-10.8,16.8c0.4,0.2,0.7,0.5,1.1,0.7
		c42.1-40.7,79-85.3,106-137.8C1408.3,927.3,1395.8,935.9,1387.1,948.3z"/>
	<path class="st1" d="M-19-16.9V1436h1722.3V-16.9H-19z M1678.9,574.8c-4,34.1-15.8,65.8-27.3,97.6c-6.5,17.9-13.4,35.9-22.1,52.7
		c-16.6,32-36.6,61.9-57.9,91c-38.3,52.3-83.5,98.2-131.4,141.6c-48.3,43.8-96.5,87.7-144.6,131.7c-25.6,23.4-50.6,47.5-76.5,70.5
		c-13.5,11.9-28.7,21.9-42.7,33.3c-21.1,17.4-41.6,35.6-62.7,53.1c-37.9,31.5-76.1,62.7-114.1,93.9c-1.6,1.3-3.4,2.4-5.4,3.4
		c9.5-9.6,19-19.2,28.6-28.8c-0.4-0.7-0.8-1.4-1.2-2.1c-11,2.3-22.1,4.2-33,7.1c-28.5,7.6-53.4,22.2-77.2,39.2
		c-12.7,9-25.8,18-41.6,20.6c-8.9,1.5-18.2,1.9-27.1,1c-8.9-0.9-15.7-6.6-20.2-14.6c-2.7-4.8-9.1-7.6-15.4-4.5
		c-12.3,6-23.9,13.2-35.8,20c0.2,0.7,0.3,1.4,0.5,2.1c6.2,1.9,12.3,4.4,18.6,5.6c20.5,4.1,41.1,8.1,61.8,11.3
		c20.8,3.3,41.2-0.2,60.9-7c8.1-2.8,16-6.3,24.1-9.5c0.7-0.3,1.6-0.2,2.4,0c-18.4,11.7-35.8,24.8-58.9,26.9
		c-17.3,1.6-34.4,3.2-51.8,1.2c-20.7-2.3-41.1-6.5-60.9-12.8c-18.2-5.8-36-12.6-54.3-18c-13-3.9-24.7-9.3-36-17.1
		c-12.1-8.3-26.7-13.1-40-19.8c-5.9-2.9-11.5-6.5-17.1-10c-54.7-34.8-108-71.8-160.8-109.5c-42.2-30.1-81.8-62.9-117.8-100.3
		c-16.3-17-29.3-36.4-43.8-54.8c-11.3-14.3-23.4-28-34.4-42.6c-9.1-12-17.1-24.9-25.6-37.3c-1.1-1.6-2.6-3-3.9-4.4
		c-2.9-3.3-6-6.5-8.8-9.9c-5-5.9-9.7-12.1-14.8-17.8c-29.5-32.6-56.6-67-76.3-106.5c-11.1-22.1-21.1-44.8-30-67.8
		c-6.7-17.1-10.6-35.3-16.3-52.8c-4.1-12.4-9.5-24.4-13.7-36.9C62.7,659,50.8,624.3,40.1,589.3c-6.7-21.9-12.3-44.2-17.2-66.6
		c-6-27.8-11.3-55.7-15.8-83.8c-3.1-19.2-4.8-38.7-6.2-58.1C-1,358.1,0.7,335,3.5,312c3.5-28.7,9.9-56.6,18.8-84
		c6.2-19.1,18-35,31.4-49.8c5.4-6,11.4-11.4,17.1-17.1c-10.7,12.4-20.3,25.4-27.6,40.1c-16.7,34-25.8,70.2-29,107.7
		c-1.8,21.5-2,43.3-1,64.9c1.2,25.9,4.1,51.8,7.1,77.5c1.6,13.5,4.9,26.8,7.7,40.2c4.1,19.8,8,39.8,13,59.4
		c4,15.8,9.3,31.2,14.3,46.7c3.3,10.4,7.1,20.6,10.7,30.8c-0.1-7.6-1.6-15.1-1.2-22.5c1.3-26.6,2.9-53.2,4.8-79.8
		c0.7-9.6,0.3-18.8-3.1-28c-4.1,3.9-8.4,2.1-11-1c-3-3.5-5.9-8.1-6.4-12.5c-1.2-11.1-1.3-22.3-1.2-33.4c0-5.1-1.1-9.3-5.2-12.1
		c-10.1-6.9-13.8-16.3-11.8-28.2c1.1-6.6-1.3-12.3-4.5-17.9c-2.7-4.9-5.9-9.9-7-15.3c-2.3-11.2-3.4-22.7-4.9-34.1
		c-0.1-1.1,0.3-2.3,0.5-3.4c0.4,0,0.9-0.1,1.3-0.1c4.7,13.9,9.3,27.9,14,41.8c2-2.2,2.7-4.4,3.4-6.5c3.3-9.7,6.1-19.7,10.1-29.1
		c2.7-6.3,4.1-12.4,4-19.2c-0.3-13,0.1-26-0.1-39c-0.4-19.8,2.5-39.2,7.7-58.2c7.9-29.2,21.6-55.6,40.6-79.2
		c4.3-5.3,8.8-10.5,13.2-15.7c-14.9,5.4-26.4,15.6-38.1,25.5c9.5-9.2,18.5-18.9,28.5-27.5c24.9-21.2,52.2-38.7,81.8-52.5
		c14-6.5,28.9-10.1,44-12.2c9.3-1.3,18.7-1.9,26.3-2.7c-37.9,9.5-76.4,21.3-107,51.5c7.7-1,14.6-1.9,21.6-2.7
		c18.6-2.2,36.9-0.4,55.2,2.8c9.7,1.7,19.2,4,28.8,5.8c1.5,0.3,3.4-0.5,4.9-1.3c4.2-2.1,8.1-5.5,12.5-6.4c5.9-1.1,7.6,1.5,6.3,7.3
		c-1.6,6.8-1.7,7.5,5.4,9.6c15.6,4.6,31.4,8.5,47.1,12.6c7.2,1.9,14.5,3.5,21.8,5.2c1.7,0.4,3.5,0.7,5.8,1.2
		c0.2-1.9,0.4-3.3,0.4-4.8c0.3-4.9,1.8-6.4,6.5-5.6c3.9,0.7,7.6,1.8,11.3,3.7c-3.6-0.4-7.3-0.8-11-1.2c0.2,8.5,22.7,16.2,36.2,16.2
		c-5.7-3.8-10.6-7.1-15.5-10.4c0.3-0.4,0.5-0.9,0.8-1.3c6.7,3.4,13.5,6.7,20.2,10.2c6.5,3.4,12.3,7.9,20.3,8.3
		c4.6,0.2,9.2,2.6,13.8,3.8c1.4,0.4,2.9,0.7,4.2,0.4c3.5-0.9,7-2.1,10.4-3.4c4.4-1.6,5.4-4,2.8-7.9c-5.6-8.6-11.1-17.4-17.5-25.4
		c-3.6-4.6-8.9-7.9-13.6-11.6c-11.8-9.1-23-19.5-35.9-26.5c-16.6-9.1-34.8-15.5-52.2-23.1c-1.3-0.6-2.6-1.2-3.8-2.3
		c36,9,71,20.1,101.3,43.8c0.2-3.3,0.4-6.1,0.6-9.6c7.7,3,14.9,4.6,20.7,11.3c10.3,12,21.1,24.2,36.5,30c7.4,2.8,15.2,4.6,23,5.8
		c17.8,2.7,36.1,3.7,52.4,11.5c15.4,7.4,31.4,14.9,39.7,31.6c1.8,3.7,2.9,7.7,4.6,11.4c0.8,1.7,2.2,3.4,3.8,4.3
		c10.2,5.4,20.5,10.7,30.9,15.8c1.2,0.6,3.6-0.4,4.9-1.4c5.2-3.9,10.2-8,15.3-12c0.8,0.9,1.6,1.8,2.4,2.6
		c-4.9,3.8-9.8,7.7-15.6,12.2c9,3.9,16.3,7.5,23.9,10.1c2.3,0.8,5.6-1.4,8.7-2.3c-0.9,1.4-2,2.8-2.6,4.3c-0.4,1.1,0,2.4,0.1,3.7
		c1.1-0.3,2.6-0.2,3.3-0.9c11.8-10.7,23.3-21.7,35.3-32.2c8.2-7.2,17.2-13.4,25.6-20.5c5.5-4.6,10.4-10,15.6-15
		c-0.4-0.5-0.7-0.9-1.1-1.4c-6.6,4.2-13.2,8.4-19.8,12.6c-0.2-0.2-0.4-0.4-0.6-0.6c25.4-21.3,50.8-42.5,76.2-63.8
		c-0.2-0.3-0.4-0.7-0.6-1c-6.6,2.5-13.2,4.9-19.7,7.4c-0.2-0.3-0.4-0.7-0.6-1c6-3.8,11.8-8,17.9-11.4c14-7.8,28.2-15.4,42.4-22.9
		c39.6-20.7,79.1-41.5,120.6-58.2c27.6-11.1,55.9-20.3,84.8-27.2c27.1-6.4,54.6-7.8,82.4-7.1c37.6,0.9,74,8,109.8,19
		c5.9,1.8,11.3,5,17,7.1c2.5,0.9,5.3,0.9,8.1,1.3c0.3,0.3,0.7,1.3,1.4,1.5c11.8,4.5,23.8,8.4,35.2,13.6c7.9,3.6,15.1,8.9,22.5,13.5
		c8.1,5.1,16.2,10.4,24.3,15.6c0.9,0.5,2,0.7,3,1c0.4-0.5,0.9-1.1,1.3-1.6c-4.2-3.4-8.5-6.9-12.7-10.3c0.4-0.6,0.9-1.1,1.3-1.7
		c6.7,3.9,13,8.6,20.1,11.3c8.6,3.3,14.1,10.7,22,14.7c4.5,2.3,9.3,4.2,15,6.7c-5.7-0.7-10.6-1.3-15.4-1.8c-0.2,0.5-0.3,1.1-0.5,1.6
		c2,0.7,4,1.6,6,2.1c16.7,4.8,34.5,7.3,49,17.5c8.6,6.1,15.3,15,22.6,23c12.1,13.2,20.7,28.8,29.6,44.1
		c6.3,10.9,14.2,20.3,24.6,27.7c18.1,12.9,33,29.2,47.2,46.1c8.9,10.5,17.5,21.2,26.1,32c2.8,3.5,5,7.5,7.4,11.3
		c0.4-0.2,0.8-0.3,1.3-0.5c-1.6-8.2-2.6-16.6-4.9-24.6c-4.2-14.7-8.4-29.4-14.2-43.5c-5.5-13.5-12.9-26.1-19.4-39.2
		c-17.3-34.3-45.5-58-86.2-76.9c5.9-1.7,10.7,0.3,15.3,1.6c8.1,2.4,16.1,5.3,24.1,8.1c1.2,0.4,2.5,0.9,3.4,1.7
		c13.1,12.4,27,24.1,39,37.6c17.7,19.9,31.8,42.4,41.7,67.3c7.9,19.9,13.2,40.4,17.3,61.3c2,10.4,2.8,21.1,4.4,31.6
		c2.4,16.3,10.2,30.8,15.9,46c4.7,12.7,9.3,25.4,8.8,39.1c-0.3,7.3-0.8,14.8-2.7,21.7c-2.6,9.2-0.8,17.2,2.7,25.6
		c6,14.2,12.3,28.4,17,43C1680.6,521.2,1682.1,547.7,1678.9,574.8z"/>
	<path class="st1" d="M1649.2,469.5c-0.9,2.1-1,3.6-0.9,5.1c1.2,25.4-0.2,50.6-4.8,75.6c-2.2,11.9-4.3,23.9-7.6,35.6
		c-6,21.6-11.5,43.4-19.3,64.3c-11.4,30.3-26.6,59-43.1,86.9c-32.2,54.4-68.7,105.6-114.6,149.6c-2.3,2.2-4.5,4.9-6.1,7.7
		c-9.9,17.1-19,34.6-29.4,51.3c-10.3,16.5-21.8,32.4-33,49c1-0.7,1.9-1.2,2.6-1.8c49.8-48.4,99.1-97.2,142.8-151.4
		c34.2-42.4,67-85.7,92.6-134c19.9-37.5,35.1-76.5,41-118.9c5.4-39,0.5-76.2-16.1-111.9C1652.1,474.1,1650.6,471.8,1649.2,469.5z"/>
	<path class="st1" d="M925.1,1287.2c12.7,1.2,25,2.5,37.4,3.5c1.8,0.1,3.7-1,5.9-1.6c-10.9-3-20.9-5.8-30.9-8.5
		C931.2,1278.8,927.7,1280.6,925.1,1287.2z"/>
	<path class="st1" d="M1014.8,1253c-6.1,5.6-12.2,11.3-18.9,17.4c3,1.4,5,2.4,7.3,3.4c4.5-6.7,8.8-13.1,13.1-19.5
		C1015.8,1253.9,1015.3,1253.5,1014.8,1253z"/>
	<path class="st1" d="M1015.1,1220.3c-4.4,1.2-7.6,2-10.7,3.1c-3.1,1.1-6.1,2.6-9.2,3.8c-8.8,3.5-11.1,12.5-4.8,21
		C1000.6,1240.8,1010.3,1233.5,1015.1,1220.3z"/>
	<path class="st1" d="M962.2,1247.2c-7.7,9.7-15.4,19.4-23.4,29.5c2.8,0,5.6-0.4,8.3,0.1c5.5,0.9,11.4,1.2,16.3,3.6
		c4.6,2.2,8.3,2.5,11.9-0.3c2.5-2.1,4.2-5.3,6.3-7.9c-5.8-7.8-11.2-14.9-16.6-22.1C964.1,1249.1,963.1,1248.1,962.2,1247.2z"/>
	<path class="st1" d="M1016.3,1289.6c6,4,11.9,8,18.4,12.3c3.8-5,7-9.2,10.4-13.6c-9.9,0-19,0-28.2,0
		C1016.7,1288.7,1016.5,1289.2,1016.3,1289.6z"/>
	<path class="st1" d="M1040,1275.2c0.4,0.6,0.8,1.1,1.1,1.7c8.4-5.7,16.8-11.3,25.1-16.9c-0.3-0.5-0.7-1-1-1.5
		C1056.8,1264.1,1048.4,1269.6,1040,1275.2z"/>
	<path class="st1" d="M1048.1,1262.3c2.7-1.3,4.8-2.1,6.7-3.3c5.5-3.3,10.6-8.2,16.5-9.8c7.5-2,9.1-8.5,13.6-12.7
		C1073.8,1240.2,1051.8,1255.8,1048.1,1262.3z"/>
	<path class="st1" d="M373.4,1097.4c7.7,4.5,15.2,9.5,22.9,14.4c0.3-0.4,0.6-0.8,0.8-1.2c-0.6-1-1.2-2-1.8-2.9
		c-20.4-29.4-45.5-54.5-71.9-78.3c-29.7-26.8-59.3-53.7-88.8-80.7c-6.9-6.3-6.7-6.6,0.7-11.5c0.2-0.1,0.6,0,1,0
		c17.3,18.2,79.9,73.5,85,75c-11.5-18-22.6-36.1-34.3-53.7c-8.5-12.8-16.9-25.8-26.8-37.6c-15.3-18.3-31.9-35.5-47.8-53.4
		c-6.1-6.9-11.5-14.3-17.2-21.5c-0.5,0.1-0.9,0.2-1.4,0.4c1.1,7.2,2.2,14.4,3.2,21.7c-0.3,0.1-0.7,0.1-1,0.2
		c-10.7-27.9-21.5-55.9-32.4-84.4c-2.8,10.7-10.2,19.1-10.1,30c-5.5,6.3-2.5,12,0.9,17.9c2.5,4.3,4.7,8.8,7.1,13.1
		c10.8,19.4,21.6,38.8,32.5,58.2c3.9,6.9,7.5,14.1,12.4,20.2c8.2,10.2,17.9,19.2,26,29.5c12.9,16.4,24.1,33.9,39.7,48.2
		c12.4,11.4,22.8,25,34.8,36.9C328,1058.9,347.3,1081.9,373.4,1097.4z"/>
	<path class="st1" d="M229.4,158.5c-2.6,2.7-1.2,6.3,2.6,7.1c11.5,2.6,18.3,0,24.4-10.4c2.5-4.1,3.6-9,5.4-13.6
		c-0.3-0.5-0.6-1-0.9-1.5c-5.8,1.5-12.3,1.7-17.2,4.7C238.2,148.1,233.9,153.7,229.4,158.5z"/>
	<path class="st1" d="M277.6,159.1c8.6-2.7,16.8-6.1,24.6-8.9c-5-4.8-25.9-11.1-33.3-9.6c-1.6,0.3-3.5,2.1-4.1,3.7
		c-2.2,5.9-4,11.9-6.4,19.1C265.5,161.8,271.7,160.9,277.6,159.1z"/>
	<path class="st1" d="M170.7,229.3c-24.1,20.4-44.3,43.3-49.6,77.1c5.4-2.1,10-3.7,14.6-5.7c11.5-5.1,22.7-11,28.6-22.7
		c3-6.1,5.3-13,5.9-19.7c0.6-6.7,0.4-14.2-7.4-18.6C170,238.2,172.1,235.2,170.7,229.3z"/>
	<path class="st1" d="M127.6,314.1c6.3-4.7,12.5-9.2,19.8-14.5C138.3,301.8,131.3,307.1,127.6,314.1z"/>
	<path class="st1" d="M279,193.2c10.9,4.3,17.1,4.3,26.7-0.3c-0.9-0.6-1.5-1.2-2.2-1.5c-4.8-1.6-9.7-3.2-14.6-4.8
		C283.4,184.9,280.1,187,279,193.2z"/>
	<path class="st1" d="M113.8,223.5c-2.1,4.4-4.3,8.8-6.4,13.2c0.6,0.3,1.1,0.5,1.7,0.8c2.1-4.4,4.1-8.9,6.1-13.3
		C114.7,224,114.3,223.8,113.8,223.5z"/>
	<path class="st1" d="M106.2,256.9c6.8-7.5,13.8-15,20.4-22.7c1-1.2,0.9-3.4,1.2-5.2c-2.3,0.1-5.2-0.6-6.7,0.5
		c-8.9,6.7-14,15.8-16,26.5C105.5,256.3,105.8,256.6,106.2,256.9z"/>
	<path class="st1" d="M381.6,187.4c2.3,0.8,4.4,2.1,6.7,3c0.8,0.3,2,0.3,2.8-0.1c3.3-1.8,6.4-3.8,10-6c-9.1-7.5-19.3-11.2-31.1-13
		C372.3,178.7,374.3,184.9,381.6,187.4z"/>
	<path class="st1" d="M404.4,1107.1c3.1,2.5,4.5,7.5,10.9,5c-3.5-2.1-6.8-4.2-10.2-6.2C404.9,1106.3,404.6,1106.7,404.4,1107.1z"/>
	<path class="st1" d="M295.9,172.4c22.1,6.2,44.5,11.2,67.6,13.1c0.3-0.6,0.6-1.3,1-1.9c-5.7-4.2-11.3-8.5-17.1-12.5
		c-1.8-1.2-4.2-2.3-6.3-2.3c-10.6-0.2-21.3-0.2-31.9,0.2c-4.4,0.1-8.9,1.2-13.3,1.8C295.9,171.3,295.9,171.9,295.9,172.4z"/>
	<path class="st1" d="M397.1,190.6c5.3,0,10.6,0,15.8,0c0-0.4,0-0.9,0.1-1.3c-5.2-0.3-10.5-0.7-15.8-1.1
		C397.2,189,397.1,189.8,397.1,190.6z"/>
	<path class="st1" d="M120.4,219.2c12.1-3.2,23.7-6.9,29.1-20.4c3.4-8.2,8.6-15.6,13.1-23.8c-8.2-1.1-15.2,0.8-21.7,4.1
		c-12.1,6.2-17.4,18-22.9,29.5c-1.3,2.7-1.5,5.9-2.4,9.8C116.9,218.6,118.9,219.6,120.4,219.2z"/>
	<path class="st1" d="M389.4,1069.4c0.6-0.5,1.2-1,1.8-1.5c-24-28.2-48.1-56.4-72.1-84.5c-0.5,0.4-0.9,0.8-1.4,1.2
		C337.6,1016.2,356.9,1048.4,389.4,1069.4z"/>
	<path class="st1" d="M352.1,191.1c0-0.4,0.1-0.9,0.1-1.3c-13.4-2-26.7-4-40.1-6c-0.2,0.5-0.5,1-0.7,1.4c2.7,1.9,5.3,5.4,8.1,5.6
		C330.3,191.5,341.2,191.1,352.1,191.1z"/>
	<path class="st1" d="M92.4,484.5c-5,4-5.2,8.6-4.1,13.6c2,9.1,3.8,18.2,5.9,27.3c0.6,2.7,1.7,5.1,2.6,7.6c0.5-0.1,1-0.3,1.5-0.4
		C98.1,516.5,100.4,500.1,92.4,484.5z"/>
	<path class="st1" d="M104,270.5c0.5,0.2,0.9,0.3,1.4,0.5c7.1-9.1,14.1-18.2,21.1-27.2c-0.4-0.3-0.8-0.6-1.2-0.9
		c-6.8,6.9-13.8,13.7-20.3,20.8C103.7,265.1,104.3,268.2,104,270.5z"/>
	<path class="st1" d="M249.7,205c-1.6-2-3.5-4.2-5.8-5.1c-2.9-1.2-5.3,0.3-6.7,3.5c-1.3,3.2-3,6.4-4.8,10c6.3,1.3,11.3-2.2,16.4-5
		C249.6,208,250.2,205.6,249.7,205z"/>
	<path class="st1" d="M159.5,125.1c14.8,6.7,29.6,13.3,44.4,19.8c1.9,0.8,4.3,1.3,6.3,0.9c12.4-2.6,23.6-7.8,34.1-16.7
		c-28.7-11.9-57.4-8.7-86.2-5.8C158.5,124.3,159,124.8,159.5,125.1z"/>
	<path class="st1" d="M62.6,310.7c4.5-6.7,9.2-13.4,13.4-20.3c1.6-2.7,2.8-6.1,2.6-9.2c-0.8-17.6-1.9-35.2-3.2-52.8
		c-0.3-4.8-1.5-9.6-2.2-14.4c-0.5,0-0.9,0.1-1.4,0.1c-11.4,32.1-12.3,65.4-12.7,98.7c0.6,0.3,1.2,0.6,1.7,0.9
		C61.4,312.7,62,311.7,62.6,310.7z"/>
	<path class="st1" d="M87.4,269.1c0,0.5,0.5,1,1.2,2.3c2.1-2.9,4.7-5.1,5.4-7.7c2.4-8.4,5.1-16.9,5.7-25.5c1.1-15,4-28.9,14.2-40.9
		c16.1-18.9,37-29.7,59.8-37.7c7.9-2.6,16-5.1,24-7.7c0.1-0.5,0.2-1,0.3-1.5c-11.4-3.5-22.7-7.4-34.2-10.4
		c-12.3-3.2-24.7-4.8-37.5-2.9c-22.8,3.4-36,19.9-38.8,37.9c-1.8,11.5-2.6,23.2-2.4,34.8C85.3,229.6,86.6,249.3,87.4,269.1z"/>
	<path class="st1" d="M82,462.7c4.4-7.7,3.3-27-2.6-33.5C77.4,441.4,82.5,451.9,82,462.7z"/>
	<path class="st1" d="M255.6,843.5c-21.5-36.1-43-72.1-64.6-108.2c-0.4,0.3-0.9,0.5-1.3,0.8c13.9,41.7,36.3,78.4,66,112.3
		C255.7,846,256.2,844.5,255.6,843.5z"/>
	<path class="st1" d="M256,188.7c-3.2-5-6.5-1.2-10.4,0.1c2.8,3.2,4.8,6.9,9.2,4.1C255.8,192.3,256.5,189.5,256,188.7z"/>
	<path class="st1" d="M248.7,901.3c-24.5-38.8-49.2-78-74-117.2C179.1,811.2,232.7,894.6,248.7,901.3z"/>
	<path class="st1" d="M198.9,163c-0.2-0.2-0.4-0.4-0.6-0.7c-3,2.1-6.1,4.1-9.1,6.3c-1.1,0.8-1.7,2.1-2.6,3.1
		c1.2,0.8,2.3,1.7,3.2,2.2C193.2,169.9,196.1,166.4,198.9,163z"/>
	<path class="st1" d="M181.7,180c-11.4,1.1-17.1,7.7-21.8,15.8C168.7,193.4,175.6,188.3,181.7,180z"/>
	<path class="st1" d="M180.7,244.9c0,0.2,0,1.2,0.3,1.8c2.7,4.5,16.4,5.8,19.7,1.6c6.1-7.8,12.1-15.8,17.6-24.1
		c4.6-6.9,4.3-7.4-1-13.8c-6.7-8.2-9.5-8.6-18-2.9c-1.4,0.9-2.5,2.3-4,2.9c-7.2,3.1-10.7,8.3-11.1,16.3
		C183.9,232.7,182,238.5,180.7,244.9z"/>
	<path class="st1" d="M183.7,266.8c3.5-3.9,6.4-7.3,10-11.2c-4.5-2.1-8.4-4-13.7-6.4C181.4,255.8,182.5,260.9,183.7,266.8z"/>
	<path class="st1" d="M226.6,210c0.4-4.2,0.8-8.4,1.4-13.7c-4.3,1.4-7.1,2.3-10.6,3.5c2.5,3.9,4.8,7.3,7,10.6
		C225.1,210.3,225.9,210.2,226.6,210z"/>
</g>
</svg>
