<?xml version="1.0" encoding="utf-8"?>
<!-- Generator: Adobe Illustrator 19.2.1, SVG Export Plug-In . SVG Version: 6.00 Build 0)  -->
<svg version="1.1" id="Layer_1" xmlns="http://www.w3.org/2000/svg" xmlns:xlink="http://www.w3.org/1999/xlink" x="0px" y="0px"
	 viewBox="0 0 1680.6 1535.7" style="enable-background:new 0 0 1680.6 1535.7;" xml:space="preserve">
<style type="text/css">
	.st0{opacity:0.8;}
	.st1{fill:#FFFFFF;}
</style>
<g class="st0">
	<path class="st1" d="M917.1,681c-4.7,2.3-9.3,4.7-13.9,7.1C907.8,685.7,912.5,683.4,917.1,681z"/>
	<path class="st1" d="M931.6,671.6c-4.5,2.8-8.9,5.8-13.3,8.7C922.8,677.4,927.2,674.4,931.6,671.6z"/>
	<path class="st1" d="M720.3,527.3c0.8-0.6,1.6-1.1,2.4-1.7C721.9,526.2,721.1,526.7,720.3,527.3z"/>
	<path class="st1" d="M959.4,860.8c-2.9,2-5.7,4.2-8.5,6.2C953.8,865,956.5,862.8,959.4,860.8z"/>
	<path class="st1" d="M705.1,535c4.6-2.3,9.3-4.7,13.9-7C714.3,530.3,709.7,532.7,705.1,535z"/>
	<path class="st1" d="M302.9,332.3c-1.1,0.4-2.3,0.7-3.4,1.2C300.6,333.1,301.8,332.7,302.9,332.3z"/>
	<path class="st1" d="M-20.9-14.5V1551H1697V-14.5H-20.9z M856.3,193.8c2.9-3.1,6.3-5.9,9.9-8.3c28.5-19.1,57-38.2,85.8-56.9
		c34.3-22.3,68.9-44.3,103.3-66.4c0.8-0.5,1.6-1,2.4-1.5c-0.3-0.4-0.5-0.7-0.8-1c-19.1,11.4-38.1,22.9-57.4,34.1
		c-26.1,15.1-52.4,30-78.7,44.8c-1.9,1.1-4.3,1.5-6.6,2.2c-1.9-4.3,0.6-6.4,2.8-8.2c12.3-10.4,24.7-20.7,37.1-30.9
		c5.7-4.7,11.7-9.2,17.6-13.8c-3.5-4-3.1-4.7,1.1-7.3c11.8-7.3,23.4-15,35.3-22.3c2.3-1.4,5.3-1.7,8-2.6c0.6,0.6,1.1,1.2,1.6,1.8
		c-1.1,1.5-1.9,3.3-3.3,4.5c-7.1,6.2-14.2,12.4-21.6,18.3c-13.1,10.5-26.4,20.6-39.3,31.6c6.7-3.9,13.5-7.6,20.1-11.6
		c39.6-23.9,79.1-48,118.7-71.9c5.4-3.3,11-6.2,16.6-9.1c2.7-1.4,5.7-4.2,8.4-0.6c3,4.1-0.7,6.5-3.4,8.5
		c-10.6,7.9-21.1,16.1-32.2,23.3c-52.6,34.1-105.4,67.9-158.1,101.8c-1.2,0.7-2.3,1.5-2.8,3.2c7.8-4.5,15.7-8.9,23.5-13.5
		c36.5-21.5,72.9-43,109.3-64.5c28-16.5,55.9-33.1,84.1-49.3c13.1-7.5,26.7-14.2,40-21.2c1-0.6,2.2-1.4,3.2-1.3
		c2.4,0.3,4.6,1,6.9,1.6c-0.8,1.8-1,4.3-2.4,5.4c-10.7,8.6-21,17.9-32.6,25.2c-48.3,30.6-96.9,60.9-145.7,90.7
		c-39.3,24-79.2,47.2-118.9,70.7c-7.6,4.6-15.3,8.9-23,13.4c-0.4-0.4-0.7-0.9-1.1-1.4c11.1-7.6,21.8-15.6,33.2-22.7
		c42.3-26.3,85-52.2,127.4-78.6c39.6-24.6,79-49.6,118.4-74.4c0.4-0.3,0.8-0.6,0.7-1.9c-6.9,4.1-13.9,8-20.8,12.1
		c-46.5,27.6-92.9,55.2-139.4,82.8c-34.7,20.5-69.5,41-104.2,61.4c-6.2,3.6-12.4,7-18.8,10.2c-1.5,0.7-3.7-0.1-5.6-0.2
		C855.4,197.9,855.1,195.1,856.3,193.8z M823.7,262.9c12-9,23.8-18.6,36.6-26.5C925.8,196,991.5,156,1057.2,116
		c47.9-29.2,95.9-58.1,143.8-87.1c1.6-1,3-2.2,4.1-4.1c-6.8,3.8-13.6,7.3-20.2,11.3c-59,35.4-117.8,71.1-176.9,106.4
		c-40.4,24.2-81,48-121.7,71.7c-9.6,5.6-19.9,9.9-29.9,14.7c-2.5,1.2-6,2.7-6.9-1.3c-0.3-1.7,2.2-4.8,4.2-6.2c3-2,6.7-2.8,9.9-4.6
		c24.6-13.8,49.5-27.2,73.6-41.7c61.4-37,122.2-74.9,183.6-111.7c32.7-19.6,66.2-37.8,99.5-56.4c4.9-2.7,10.3-4.7,15.6-6.5
		c1.5-0.5,3.7,0.8,5.6,1.2c-0.5,1.6-0.5,3.7-1.6,4.6c-9.5,7.8-18.6,16.2-28.9,22.7c-50.1,31.6-100.4,62.9-150.8,93.9
		c-46.6,28.6-93.6,56.7-140.4,85.1c-15.6,9.5-31.1,19.1-46.6,28.7c-0.9,0.5-1.6,1.2-2.4,1.8c0.1,0.2,0.3,0.5,0.4,0.8
		c21.5-12.2,43-24.2,64.3-36.6c33.2-19.4,66.3-39,99.4-58.7c34.2-20.4,68.2-41.1,102.5-61.3c43.2-25.6,86.7-50.8,130.1-76.1
		c4-2.4,8.2-4.5,12.5-6.2c1.5-0.6,4.1-0.3,5.4,0.7c1.1,0.8,1.5,3,1.6,4.7c0,0.7-1.3,2.1-2.1,2.2c-11.5,1.5-20.5,8.5-30,14
		c-52.9,30.4-105.7,61-158.4,91.7c-41.7,24.4-82.9,49.4-124.7,73.6c-43.9,25.5-88.2,50.2-132.4,75.2c-4,2.3-8.3,4.2-12.6,6
		c-1.8,0.7-3.8,0.8-5.6,1.1c-0.4-0.3-0.7-0.7-1.1-1.1C821.3,266.6,822,264.1,823.7,262.9z M62.8,494.9c0.9-0.6,1.8-1.2,2.7-1.9
		c-0.9,0.5-1.7,0.9-2.6,1.4c0.9-0.5,1.8-1,2.7-1.4c4.8-3.4,9.7-6.8,14.7-9.9c55.3-32.9,110.5-66,166-98.6
		c52-30.6,104.3-60.8,156.5-91.2c50.9-29.6,101.9-59.1,152.7-88.9c34-20,67.8-40.5,101.6-60.8c3.9-2.4,7.7-5.1,11.5-7.7
		c-0.2-0.4-0.4-0.8-0.6-1.2c-4.8,2.4-9.8,4.4-14.4,7.1c-42.1,24.2-84.2,48.4-126.1,73C482.9,241,438.6,267.7,394,294
		c-45,26.6-90.1,53-135.1,79.5s-89.9,53.3-135,79.7C95.8,469.7,67.4,486,39,502.1c-7.8,4.4-16.1,7.9-24.4,11.2
		c-2.7,1.1-6.3,0.2-9.5,0.2c1.5-2.7,2.3-6.3,4.6-8c13.5-9.9,26.9-20.1,41.2-28.7C115.2,438.2,179.7,400,244.3,362
		c44.6-26.2,89.6-51.8,134.3-77.8c43.5-25.3,87.1-50.7,130.5-76.4c42.4-25.1,84.5-50.6,126.7-76c9.8-6,19.3-12.3,28.9-18.5
		c0.8-0.5,1.5-1.3,2.2-1.9c-0.2-0.4-0.5-0.8-0.7-1.2c-5,2.4-10.2,4.5-15.1,7.3c-45.9,26.3-92,52.3-137.7,79
		c-42.8,25-85.1,50.7-127.6,76.3c-35.5,21.4-70.9,43-106.4,64.4c-39.3,23.6-78.5,47.1-118,70.3C132.8,424.3,104,440.9,75,457
		c-13.3,7.4-27.4,13.3-41.1,19.9c-2.7,1.3-5.3,0.8-6.2-1.9c-0.5-1.3,0.8-4.2,2.2-5.1c13.2-8.9,26.3-18,40-26.1
		c45.4-26.9,91-53.4,136.5-80.1c48.7-28.5,97.4-56.9,146-85.5c48.6-28.6,97.2-57.1,145.7-85.9c35.3-21,70.4-42.5,105.6-63.8
		c4-2.4,7.7-5.2,11.6-7.8c-0.2-0.4-0.5-0.7-0.7-1.1c-9.9,5.5-20,10.8-29.8,16.5c-45.4,26.5-90.8,52.9-136.1,79.7
		c-39.4,23.3-78.6,47.1-117.9,70.5c-49.7,29.7-99.4,59.4-149.3,88.6c-32.2,18.9-64.7,37.3-97.4,55.3c-17.4,9.6-35.5,17.7-53.4,26.4
		c-2.6,1.3-5.6,1.8-8.6,2.7c-1.9-4.6,0.8-7.3,3.4-9.3c10.8-8.2,21.4-16.8,32.8-24.1c24.2-15.6,49-30.4,73.5-45.6
		c0.9-0.5,1.6-1.3,1.9-2.7c-7.8,4.5-15.5,9.2-23.4,13.5c-24.4,13.1-48.8,26.1-73.3,39c-2.3,1.2-4.9,2-7.5,2.5
		c-1.6,0.3-3.3-0.4-5-0.6c0.5-1.5,0.5-3.5,1.5-4.4c5.3-4.8,10.4-10,16.3-13.8c23.4-15.2,47-29.9,70.6-44.8c1.2-0.8,2.5-1.5,3.2-3.3
		c-4.5,2.5-9.1,5.1-13.7,7.5c-19.1,10-38.2,19.9-57.4,29.8c-2,1-4.4,1.8-6.6,1.7c-1.7-0.1-4.2-1.3-4.8-2.6c-0.5-1.2,0.5-4,1.7-5
		c7.2-5.6,14.4-11.3,22.1-16.1c51.6-32.3,103-65,155-96.5c52.2-31.6,105.1-62.1,157.7-93.1c61-36,122-71.9,183-108
		c9.6-5.7,19-12,28.5-18c-0.2-0.4-0.4-0.7-0.6-1.1c-6.8,3.9-13.7,7.6-20.5,11.6c-54.3,31.7-108.6,63.3-162.8,95.2
		c-44.7,26.4-89.1,53.3-133.8,79.7c-45.1,26.6-90.4,53.1-135.8,79.2c-24,13.8-48.4,26.9-72.8,40.1c-5.9,3.2-12.4,5.3-18.6,8
		c-2.1-4.9,0.7-7.4,3.5-9.4c11.1-8.2,22-16.7,33.6-24c42.6-26.9,85.2-53.9,128.3-80c34.7-21.1,70.2-40.9,105.3-61.4
		c38.7-22.6,77.4-45.1,116-67.9c32.4-19.1,64.7-38.5,97-57.9c11.2-6.8,22.1-14.1,33.1-21.1c-0.3-0.4-0.5-0.9-0.8-1.3
		c-7.2,4-14.6,7.8-21.8,12c-53.6,31.6-107.2,63.1-160.7,94.8c-42.8,25.4-85.4,51.2-128.2,76.6c-44.9,26.7-90,53.2-135.1,79.5
		C80.1,333.6,53,348.8,26,364c-5.9,3.3-12.2,5.9-18.3,8.9c-3.3,1.6-5,0.1-6.8-2.7c-2-3.1,0.1-4.2,2-5.5
		c14.3-9.7,28.2-19.8,42.9-28.9c43.8-27,87.6-53.9,131.7-80.3c46.2-27.7,92.8-54.7,139.1-82.4c58.2-34.8,116.3-69.9,174.3-105
		c8.2-4.9,15.8-10.8,23.6-16.3c-0.3-0.4-0.5-0.8-0.8-1.2c-8.1,4.5-16.4,8.9-24.4,13.6c-48.5,28.6-97,57-145.3,85.8
		c-35.3,21-70.3,42.8-105.6,63.9c-41.7,24.9-83.6,49.6-125.6,74c-20.3,11.9-41.2,22.8-61.9,34c-4,2.2-8.3,4.1-12.7,5.6
		c-2.3,0.7-5,0.3-7.5,0.4c1.3-2.3,2.1-5.3,4-6.7c9.8-7.4,19.4-15,29.9-21.4c59.8-36.4,119.7-72.6,179.8-108.5
		c55.7-33.2,111.7-66,167.5-99c0.8-0.5,1.5-1.1,2.3-1.7c-0.2-0.4-0.4-0.7-0.6-1.1c-4.4,2.4-8.8,4.6-13,7.1
		c-69.8,40.9-139.6,81.9-209.5,122.7c-45.6,26.6-91.2,53.1-136.9,79.5c-5.6,3.2-11.3,6.2-17.2,8.8c-1.7,0.8-4.1-0.2-6.1-0.4
		c0.5-2.1,0.2-5,1.5-6.1c6.7-5.6,13.4-11.4,20.8-16.1c22.1-14.3,44.6-28.2,66.9-42.2c1.1-0.7,2.1-1.5,2.6-3.1
		c-6.3,3.5-12.5,7.1-18.9,10.4c-13.7,7-27.5,13.9-41.3,20.8c-1.1,0.5-2.2,1.2-3.3,1.2c-1.8-0.1-3.5-0.7-5.3-1.1
		c0.6-1.6,0.8-3.7,1.9-4.5c9.4-7.2,18.7-14.5,28.5-20.9c32.8-21.4,66-42.5,98.7-64.4c-5,2.9-9.9,5.8-14.9,8.5
		c-22.3,12.3-44.5,24.5-66.8,36.6c-2.6,1.4-5.4,2.7-8.3,3.3c-1.7,0.4-3.7-0.6-5.6-1c0.5-2.1,0.3-4.7,1.5-6.1
		c2.4-2.6,5.5-4.8,8.5-6.8c35.8-24,71.7-48.1,107.6-71.9c16.4-10.9,33.1-21.5,49.1-33.1c-5.7,3.2-11.3,6.4-16.9,9.7
		c-38,22.3-76,44.7-114.1,67c-5.3,3.1-10.9,5.7-16.5,8.2c-1.6,0.7-4,0.9-5.7,0.4c-3.6-1.1-3.8-4.8-0.4-7.2
		c11.2-8,22.4-15.9,33.7-23.8c30.4-21.2,60.9-42.4,91.4-63.7c1.1-0.7,2.5-1.8,2.6-2.8c0.8-5.4,4.6-7.4,9-9.5
		c11.2-5.3,22.2-11.2,33.3-16.7c3-1.5,6.5-3.9,8.8,2.9c-32.4,22.8-65.6,45.4-98.4,68.7c2.4-1.2,4.8-2.3,7.1-3.6
		c31.4-18.3,62.6-36.8,94.1-55c16.2-9.4,32.7-18.3,49.2-27.2c2.2-1.2,4.9-1.4,7.4-2.1c1.7,4.7-1.4,6.3-3.6,7.9
		c-11.9,8.7-23.7,17.6-36.1,25.7c-53.8,35.2-107.9,70.1-161.9,105.1c-1.5,1-3,2.2-4,4.1c10-5.8,20-11.6,29.9-17.5
		c50.1-29.7,100.1-59.5,150.3-89c23.5-13.8,47.4-26.8,71.1-40.1c2.9-1.7,6-3.1,9.1-4.1c1.5-0.4,3.3,0.4,5,0.6
		c-0.5,1.5-0.4,3.5-1.4,4.4c-4.9,4.3-9.6,8.8-15,12.3c-32.5,21.2-65,42.5-97.8,63.2c-44.1,27.8-88.6,54.9-132.8,82.4
		c-13.4,8.3-26.6,17-39.8,25.5c-1,0.7-2,1.5-2.5,3c9.3-5.5,18.7-10.9,28-16.5c46-27.5,91.9-55.1,137.9-82.7
		c34.1-20.5,68-41.3,102.4-61.4c23-13.5,46.6-26.1,70-38.9c2.9-1.6,6.1-2.8,9.3-3.4c1.7-0.3,3.8,1.2,5.7,1.9
		c-0.8,1.6-1.2,3.6-2.4,4.5c-11.7,8.7-23.1,18-35.5,25.5c-66.7,40.3-133.6,80.4-200.5,120.3c-43.9,26.1-87.9,52-131.9,78
		c-0.9,0.5-1.6,1.1-1.9,2.6c4.2-2.2,8.5-4.3,12.6-6.7c40-23.1,80.3-45.9,120.1-69.5c60.9-36.1,121.4-72.9,182.4-108.9
		c21.3-12.5,43.4-23.7,65.2-35.3c4.2-2.3,8.8-3.7,13.4-5.6c2.9,2.6,1.9,5.1-0.6,7c-7.7,6-15.2,12.4-23.5,17.6
		c-45.6,28.4-91.2,57-137.2,84.6c-48.5,29.1-97.5,57.4-146.3,86c-38.1,22.2-76.2,44.4-114.3,66.7c-7.1,4.2-14,8.8-21,13.3
		c-1.5,1-2.9,2.4-4.3,3.6c0.3,0.4,0.5,0.9,0.8,1.3c4.7-2.5,9.6-4.7,14.2-7.4c37.5-22.2,75-44.5,112.5-66.7
		c44.8-26.5,89.6-53.1,134.5-79.5c46.9-27.6,93.7-55.4,140.8-82.6C466,72,492.9,57.5,519.7,42.9c3.6-2,7.7-3,11.7-4.1
		c1.3-0.4,3,0.7,4.5,1.1c-0.5,1.5-0.5,3.5-1.5,4.4c-5.7,5.1-11.2,10.5-17.6,14.6c-36.1,23.3-72.1,46.8-108.7,69.3
		c-37.6,23.1-75.7,45.4-113.7,67.8c-38.3,22.5-76.8,44.8-115.1,67.3c-43.5,25.5-87,51.1-130.4,76.7c-8.4,4.9-16.6,10.2-24.9,15.3
		c0.3,0.5,0.5,0.9,0.7,1.3c4.6-2.3,9.3-4.4,13.8-6.9c30.1-17.1,60.4-34,90.3-51.5c33-19.2,65.6-38.9,98.4-58.5
		c32.7-19.6,65.3-39.3,98.1-58.8c50-29.7,100.1-59.5,150.3-88.9c25.3-14.8,51.1-28.9,76.8-43.1c4.6-2.5,9.6-4.7,14.6-6.3
		c2.5-0.8,5.5,0.2,8.3,0.4c-1.2,2.3-1.6,5.5-3.5,7c-9.4,7.3-18.7,15-28.8,21.2c-41.5,25.5-83.2,50.4-124.8,75.5
		c-37.5,22.6-74.9,45.3-112.6,67.6c-45,26.6-90.3,52.5-135.2,79.2c-36.3,21.6-72.3,43.8-108.5,65.7c-1.4,0.8-2.7,1.9-3.5,3.7
		c6.4-3.6,12.8-7,19.1-10.7c48.7-28.7,97.5-57.5,146.1-86.4c49.5-29.4,98.7-59.3,148.3-88.5c47.2-27.8,94.6-55.2,142.1-82.3
		c24.4-13.9,49.2-26.9,74.2-40.2c6.4-3.4,13.3-5.8,20.1-8.5c0.9-0.3,3.3,0.5,3.3,0.8c0,1.8,0.2,4.3-0.9,5.3c-3.9,3.6-8,7-12.5,9.8
		c-30.6,19-61.1,38.1-91.9,56.8c-35.8,21.7-71.8,42.9-107.7,64.3c-43.3,25.8-86.6,51.5-129.9,77.4c-60.3,36-120.5,72.1-180.6,108.2
		c-10.2,6.2-20,12.9-30,19.4c0.2,0.4,0.4,0.7,0.6,1.1c7.7-4.4,15.3-8.8,22.9-13.3c48.4-28.7,96.8-57.4,145.1-86.1
		c39.5-23.5,78.9-47,118.4-70.6c39-23.3,78-46.7,117-70C493,131,523.6,112.2,554.7,94c14.8-8.7,30.3-16.4,45.7-24.2
		c3.1-1.6,6.9-2.1,10.5-2.7c1.2-0.2,2.6,0.9,3.9,1.4c-0.5,1.3-0.7,3.1-1.6,3.8c-7.5,5.8-14.8,11.8-22.7,17
		c-15.8,10.5-31.9,20.4-47.8,30.6c-0.8,0.5-1.6,1.1-1.9,2.6c2.4-1.2,4.9-2.3,7.3-3.6c27.6-15.3,55.1-30.8,82.7-45.9
		c5.8-3.2,12-5.7,18.2-7.9c2.2-0.8,5.2,0.3,7.8,0.5c-1.3,2.4-1.9,5.5-3.8,7c-8.7,6.8-17.4,13.9-26.9,19.6
		c-47.2,28.4-94.5,56.6-142,84.5c-42.2,24.8-84.6,49.2-126.9,73.8c-43.6,25.4-87.2,50.6-130.6,76.3c-47.6,28.3-95,57-142.4,85.6
		C74,418.6,64,425,53.9,431.3c-1.1,0.7-2.1,1.5-2.6,3.1c7.9-4.3,15.9-8.4,23.7-12.9c51.7-29.8,103.5-59.5,155.1-89.7
		c58.5-34.3,116.7-69.2,175.1-103.7C463,194,521,159.9,579,125.9c18.2-10.5,37.2-19.7,55.9-29.3c1.9-0.9,5.6-0.9,6.9,0.3
		c2.8,2.7,0.8,5.6-1.7,7.6c-7.2,6-14.4,11.8-21.6,17.6c-1.6,1.3-3.1,2.4-4.2,4.5c7.3-4,14.5-8.1,21.9-12
		c15.1-7.9,30.2-15.7,45.5-23.4c3.5-1.7,8-4.1,10.8,0.4c2.9,4.8-1.8,7.3-4.9,9.4c-21.6,14.2-43.3,28.3-65.2,42.1
		c-13.6,8.6-27.6,16.6-41.4,24.9c-0.7,0.4-1.2,1.3-1.8,2.1c6-3.1,12.1-6.2,18.1-9.5c25.8-14.3,51.6-28.6,77.5-42.8
		c3.5-1.9,7.3-3.2,10.9-4.9c2.7-1.3,5.8-1.7,6.8,1.3c0.7,2.2,0,6-1.6,7.5c-4.7,4.6-9.8,9-15.4,12.5c-30.2,19.2-60.6,38.1-91,57.1
		c-7.1,4.4-14.3,8.4-21.4,12.7c-0.8,0.5-1.4,1.4-2,2.2c0,0,0,0,0,0l-0.1,0.1c0,0,0,0,0,0c0,0,0,0,0,0l-0.1,0.1
		c6.1-3.2,12.3-6.3,18.3-9.7c36.2-20.2,72.3-40.6,108.5-60.7c5.9-3.2,12.2-5.8,18.4-8.6c1.3-0.7,2.9-1.3,4.3-1.2
		c1.7,0.1,3.3,0.8,5,1.3c-0.8,1.4-1.2,3.3-2.4,4.3c-11,9.2-23.6,15.9-36.2,22.6c-22.9,12.3-45.7,24.9-68.2,38
		c-47.4,27.6-94.6,55.6-142,83.5c-51.7,30.5-103.3,61.3-155,91.7c-55.3,32.5-110.6,65-166.1,97.2c-32.3,18.8-64.8,37-97.4,55.2
		c-8.4,4.7-17.2,8.6-26.1,12.3c-3.3,1.3-7.3,1.2-11.1,1.8C11,527.7,31.6,511.2,41,509c0.8-0.9,1.6-1.7,2.4-2.6
		c6.6-4,13.2-8.1,19.6-11.6L62.8,494.9z M22.3,625.9c-0.8-1.6,0.9-5.5,2.6-6.8c10.1-7.8,20-16,30.9-22.6
		c49.8-30.4,99.6-60.8,149.8-90.6c46.8-27.8,93.9-55,141-82.3c47.8-27.7,95.8-55,143.6-82.7c41.7-24.2,83.5-48.4,125.1-72.9
		c38.1-22.4,76.1-45.2,114.1-67.9c8.9-5.4,17.5-11.2,26.3-16.8c-0.2-0.4-0.5-0.9-0.7-1.3c-4.9,2.4-9.9,4.6-14.7,7.3
		c-42.3,24-84.7,47.8-126.7,72.2c-40.3,23.4-80.3,47.4-120.4,71.2c-39.7,23.5-79.2,47.2-118.9,70.7c-46.3,27.5-92.8,54.8-139.2,82.2
		c-36.4,21.5-72.7,43.3-109.4,64.3c-30.5,17.4-61.6,33.9-92.4,50.8c-1.9,1-3.9,1.9-6,2.3c-1.5,0.3-4,0.1-4.7-0.8
		c-0.9-1.3-1.3-4.1-0.5-5.2c2.7-3.4,5.7-7,9.3-9.5c18-12.3,36.2-24.1,54.3-36.1c1.1-0.7,2.2-1.4,2.9-2.9
		c-6.3,3.4-12.7,6.9-19.1,10.2c-12.1,6.1-24.3,12.2-36.5,18.1c-1.9,0.9-4.1,1.4-6.2,1.6c-1.6,0.1-4.6-0.2-4.8-1
		c-0.5-1.8-0.5-4.8,0.7-5.9c5.5-5,10.7-11.8,17.3-13.8c19.6-5.8,36.8-16.1,54.2-26c62.9-35.8,125.5-72,187.8-108.7
		c62-36.5,123.6-73.8,185-110.3c24.9-14.8,49.8-29.6,74.6-44.7c4.7-2.8,9.3-5.9,13.6-9.5c5.4-4.5,12.6-6.8,18.9-10.3
		c2.9-1.6,5.1-4.2,8-5.8c4-2.3,8.6-3.8,12.6-6.2c12.9-7.7,25.8-15.6,38.5-23.7c28-17.7,56-35.6,83.9-53.5c4-2.5,7.6-5.7,11.4-8.6
		c-0.3-0.4-0.5-0.7-0.7-1.1c-4.8,2.7-9.6,5.3-14.4,8.1c-44.2,25.6-88.4,51.1-132.6,76.8c-38.3,22.2-76.5,44.7-114.7,67.1
		c-47.1,27.6-94.1,55.3-141.1,83c-48.5,28.5-96.8,57.2-145.4,85.5c-40.1,23.3-80.5,46.2-121,69c-9.3,5.3-19.4,9.3-29.2,13.9
		c-0.6,0.3-1.3,0.6-1.9,0.6c-2.1-0.1-4.1-0.3-6.1-0.4c0.7-1.9,0.9-4.4,2.3-5.5c8.4-6.7,16.6-13.8,25.8-19.4
		c46.8-28.4,93.7-56.5,140.7-84.6c44.5-26.7,89.1-53.2,133.8-79.7c41.3-24.5,82.8-49,124.2-73.4c48.6-28.6,97.2-57.2,145.8-85.8
		c18.9-11.1,37.8-22.2,56.7-33.2c0.5-0.3,1.2-0.3,1.8-0.4c0.3,0.5,0.5,0.9,0.7,1.3c-71.6,43.4-143.3,86.7-214.9,130.1
		c0.1,0.3,0.3,0.5,0.4,0.8c5.9-3.4,11.8-6.8,17.7-10.2c55-31.8,109.9-63.8,164.9-95.5c30.6-17.7,61.4-35,92.3-52.1
		c10.4-5.8,21.6-10.3,32.5-15.1c1.7-0.8,4-0.1,6-0.1c-0.6,2-0.7,4.9-2.1,6.1c-9.1,7.7-18.1,15.6-27.9,22.3
		c-15.2,10.4-31,19.9-46.5,29.8c-0.5,0.3-1,0.6-1,1.8c7.1-3.9,14-7.9,21.1-11.6c13.8-7.3,27.6-14.6,41.5-21.5c3.5-1.7,7.7-2,11.7-3
		c1.8,5.7-1.1,8.7-4,10.9c-10.8,8.1-22,15.9-33,23.8c-2.6,1.9-5.3,3.5-8,5.2c0.3,0.4,0.5,0.7,0.7,1.1c6.2-3.5,12.4-7.2,18.8-10.5
		c13.8-7.2,27.7-14.4,41.7-21.3c3.1-1.5,6.6-2.2,10-2.8c1.6-0.3,4.6,0.5,4.7,1.2c0.3,1.7-0.2,4-1.3,5.4c-1.9,2.5-4.1,4.8-6.7,6.6
		c-20.6,14.1-40.8,29-62.2,42c-51.3,31.2-103.1,61.6-154.8,92.1c-48.6,28.6-97.3,57-146,85.4c-45.6,26.6-91.1,53.2-136.8,79.6
		c-38.9,22.5-78.2,44.4-116.9,67.2c-34.7,20.4-69,41.7-103.4,62.6c-1.6,1-3.2,2.3-4.3,4.4c5.4-2.7,10.9-5.2,16.2-8.2
		c30.2-17,60.5-34,90.4-51.4c45.4-26.5,90.6-53.4,135.9-80.1c48.5-28.6,96.9-57.2,145.3-85.8c48.1-28.3,96.3-56.6,144.4-85.1
		c35.9-21.3,71.5-43.3,107.7-64.2c27-15.6,54.6-30.1,82-44.9c2.9-1.6,6.1-2.8,9.3-3.5c2.1-0.4,6.2,0,6.4,0.8
		c0.5,2.4,0.7,6.1-0.8,7.6c-5.2,5.2-10.9,10.2-17,14.4c-13.3,9.3-27,18.1-40.5,27.1c-0.9,0.6-1.7,1.4-2.2,2.9
		c6.4-3.5,12.8-7,19.2-10.4c7.2-3.8,14.4-7.5,21.7-11.1c1.3-0.7,2.9-1.4,4.2-1.2c1.8,0.3,4.2,1.1,4.9,2.5c0.6,1.3-0.1,4.3-1.2,5.2
		c-7.4,5.7-14.1,12.2-24,14.6c-8,1.9-15.7,6.3-23,10.5c-52.7,30.1-105.4,60.2-157.8,90.9c-53.1,31.1-105.8,62.9-158.6,94.4
		c-31.7,18.9-63.4,38-95.1,57c-0.8,0.5-1.6,1.1-1.8,2.7c139.7-80.9,279.3-161.8,418.8-242.9c0.1,0.2,0.2,0.3,0.3,0.4
		c-3.3,2.4-6.7,4.7-10,7.1c0.1,0.4,0.3,0.7,0.4,1c1.1-0.4,2.1-0.7,3.1-1.2c19.1-10.1,38-20.4,57.2-30.3c4.2-2.2,9.1-3.1,13.7-4.2
		c1-0.3,2.9,0.7,3.6,1.7c0.4,0.7-0.2,2.8-1,3.5c-6.4,6-12.3,12.3-21.6,14.8c-7.6,2.1-14.8,6.6-21.8,10.6
		c-50.9,29.3-101.8,58.5-152.5,88.1c-46.4,27.1-92.5,54.7-138.7,82.1c-17.1,10.1-34.2,20.3-51.3,30.5c-0.8,0.5-1.4,1.4-2,2.2
		c4.6-2.2,9.4-4.2,13.8-6.7c50.6-28.8,101.2-57.5,151.7-86.5c33.3-19.1,66.5-38.5,99.8-57.8c1.3-0.7,2.7-1.1,4.1-1.6
		c0.1,0,0.2-0.1,0.3-0.2c0.4-0.1,0.7-0.3,1.1-0.5c5.1-3.3,10.1-6.6,15.3-9.8c5.4-3.4,11-6.6,16.5-9.8c0.8-0.5,1.9-0.5,2.9-0.7
		c0.1,0,0.1-0.1,0.2-0.1s0.2,0,0.3,0c4.2-2.4,8.3-4.9,12.5-7.3c-2.1,1.4-4.3,2.9-6.4,4.4c-1.2,0.9-2.3,2.1-3.4,3.1
		c6.3-3.5,12.7-6.9,19.1-10.3c18.8-10.2,37.6-20.4,56.5-30.5c3.6-1.9,7.6-3.5,11.6-4.2c2.1-0.4,4.6,1.3,7,2.1
		c-0.9,2.3-1.3,5.2-2.9,6.7c-7.8,7.2-16.6,12.8-26.3,17.6c-20.5,10.1-41,20.5-60.8,32C673.9,324.2,623.9,354.1,574,384
		c-52.7,31.4-105.1,63.3-157.8,94.7c-51.3,30.6-102.7,61-154.2,91.2c-38.6,22.7-77.3,45.3-116.3,67.3c-17.6,9.9-36.1,18.3-54.4,26.9
		c-3.8,1.8-8.5,1.7-12.5,2.4c-2.4-6.5,0.8-9.8,4.5-12.5c9.7-7.2,19.6-14.2,29.4-21.3c1.7-1.3,3.5-2.4,4.8-4.5
		c-5.4,2.8-10.7,5.8-16.2,8.5c-7.7,3.8-15.6,7.2-23.3,11c-4.7,2.3-8.6,2.1-11.7-4.2c2.7-2.5,5.5-5.7,9-8c21.5-14.2,43.1-28,64.7-42
		c1.3-0.8,2.5-1.6,3.2-3.3c-6.2,3.5-12.4,7.1-18.7,10.5c-16.9,9.1-33.9,18.1-50.8,27.3c-3.7,2.1-5.9,0.7-8.1-2c-2.7-3.2,0-5,2.1-6.4
		c14.2-9.8,28-20.2,42.8-29c56.9-34.1,114-67.9,171.2-101.4c52.4-30.7,105.1-60.9,157.6-91.3c54.4-31.5,108.9-62.9,163.1-94.7
		c42.8-25,85.4-50.5,127.9-76c10.2-6.2,19.9-13.2,29.8-19.9c1.3-0.9,2.3-2,3.5-3c-0.3-0.4-0.5-0.8-0.8-1.2
		c-10.9,5.5-22.1,10.5-32.6,16.6c-60.4,35.1-120.7,70.3-180.8,105.8c-54.6,32.3-108.9,65-163.3,97.4
		c-51.3,30.6-102.5,61.3-154.1,91.4c-57.3,33.4-115,66.3-172.7,99.1c-9.2,5.2-19,9.5-28.3,14.5C27.2,629.9,23.9,629.4,22.3,625.9z
		 M357,371.3c0,0.2-0.1,0.2-0.2,0.2c-1.9,1.5-3.7,3.2-5.8,4.4c-44.2,25.6-88.5,51-132.7,76.6c-33.5,19.4-67,38.7-100.3,58.3
		c-20.9,12.2-41.5,24.9-62.3,37.3c-0.3,0.1-0.7,0-2.4,0c6.6-4.3,12.1-8.2,17.9-11.6c53-31.3,105.9-62.7,159.1-93.6
		c40.9-23.8,82.1-47,123.2-70.4c1-0.5,2.2-0.7,3.3-1C356.9,371.4,356.9,371.4,357,371.3c0.2-0.1,0.5-0.2,0.8-0.3
		C357.6,371.1,357.3,371.3,357,371.3z M376.1,360.5c-4,2.7-8,5.4-12.2,7.9c-1.9,1.1-4,1.8-6.2,2.7C363.8,367.5,370,364,376.1,360.5z
		 M377.9,359.3c0.4-0.2,0.9-0.4,1.3-0.6c6.3-3.9,12.7-7.9,19-11.8c0.3,0.6,0.7,1.2,1,1.8c-6.7,3.4-13.3,6.7-20,10
		c-0.4,0.2-0.8,0.5-1.1,0.7l0,0c-0.7,0.4-1.3,0.7-1.9,1.1C376.8,360.1,377.3,359.7,377.9,359.3L377.9,359.3z M746,264.4
		c-4.2,2.5-8.5,4.9-12.7,7.3c-0.3,0.3-0.7,0.6-1.2,0.8c-0.8,0.5-1.6,0.9-2.4,1.4c0.8-0.5,1.5-1,2.3-1.5c0.5-0.2,0.9-0.5,1.3-0.7
		c4-2.9,7.9-5.8,11.8-8.7C745.4,263.5,745.8,264,746,264.4z M55.7,701.2c1.3-1.8,2.3-3.9,4-5.2c12.6-10,27.1-16.7,41.2-24.1
		c25.3-13.4,50.6-27,75.5-41.3c49-28.3,97.8-56.8,146.5-85.6c44.7-26.4,89.1-53.2,133.7-79.8c51.1-30.5,102.2-61,153.5-91.2
		c45.4-26.8,91-53.3,136.8-79.5c18.6-10.7,38-20.2,57.2-30c3.6-1.8,7.7-2.9,11.8-4.4c2.6,3.4,0.9,5.5-1.4,7.1
		c-8.2,5.6-16.2,11.4-24.8,16.4c-25.8,15-51.9,29.4-77.7,44.5c-46.8,27.4-93.4,55-140.1,82.6c-46.7,27.6-93.4,55.2-140.1,82.7
		c-43.3,25.5-86.7,50.8-130,76.2c-38.2,22.4-76.2,45.1-114.6,67.2c-33.8,19.4-67.8,38.4-102,57.1c-7.1,4-15.3,6.2-23.1,8.7
		C60.3,703.1,57.8,701.7,55.7,701.2z M829.3,1368.5c-1.8,0.2-4.4-0.6-5.4-1.9c-0.7-0.8,0.2-4.1,1.4-5c6.9-5.1,13.5-11.5,21.3-14.5
		c25.2-9.8,47.4-24.9,70.6-38.2c36.7-20.9,72.9-42.8,109.2-64.5c34.1-20.4,68-41.4,102.3-61.5c43.5-25.5,87.4-50.3,131.2-75.3
		c3.7-2.1,7.8-3.8,11.9-4.9c2-0.6,4.5,0.8,8,1.7c-2.7,2.6-3.8,4-5.3,5c-12.3,7.9-24.3,16.2-36.9,23.5c-29.1,16.9-58.7,33-87.7,50.1
		c-42.7,25.2-85,51.1-127.5,76.6c-37.6,22.5-75,45.3-112.8,67.2c-23.9,13.8-48.5,26.2-72.8,39.1
		C834.4,1367.1,831.9,1368.2,829.3,1368.5z M909,1396.5c-2,0.7-4.4,0.7-6.6,1c-0.3-0.5-0.7-0.9-1-1.4c1.3-1.7,2.2-3.9,3.9-5
		c16-11,31.7-22.5,48.2-32.5c38-23,76.3-45.5,114.6-68c49.5-29.2,99.1-58.4,148.8-87.3c9-5.2,18.8-9.1,28.3-13.3
		c1.3-0.6,3.3,0.3,5,0.5c-0.6,1.5-0.9,3.6-2.1,4.5c-10,7.6-19.8,15.6-30.5,22.2c-38,23.3-76.4,46-114.6,69
		c-29.1,17.5-58.1,35.4-87.4,52.5c-30.3,17.6-60.9,34.4-91.5,51.4C919.3,1392.7,914.1,1394.6,909,1396.5z M904.3,1370.5
		c1.5-2,2.5-4.6,4.4-5.9c10.8-7.1,21.5-14.1,32.6-20.6c27.1-16,54.5-31.6,81.6-47.7c42.8-25.3,85.4-50.9,128.2-76.3
		c29.5-17.5,59.2-34.8,88.8-52.1c1.9-1.1,3.8-2.3,5.8-2.9c1.1-0.3,3.1,0.1,3.8,0.9c0.6,0.7,0.4,3-0.3,3.7c-4.1,4.1-8,8.5-12.8,11.7
		c-17,11.2-34.1,22.4-51.5,32.9c-42.7,25.8-85.5,51.6-128.6,76.9c-41.5,24.4-83.3,48.1-125,72c-5.6,3.2-11.6,5.7-17.6,8
		c-2.6,1-5.7,0.7-8.5,0.9C904.9,1371.5,904.6,1371,904.3,1370.5z M964.5,1410.8c-1.9-3.9,1.8-5.7,4.1-7.4
		c10.9-8.1,21.8-16.2,33.1-23.8c55.1-37.2,112.8-70.5,169.9-104.5c13.5-8.1,27.5-15.3,41.4-22.7c3.7-2,9,0.3,9.2,4.6
		c-1.1,1.3-2.4,3.5-4.3,4.9c-9.5,7.3-18.7,15-28.8,21.3c-29.2,18.3-58.8,35.9-88.3,53.8c-29,17.6-58,35.4-87.2,52.8
		c-12.9,7.7-26.3,14.8-39.6,21.9C971,1413.3,967,1415.8,964.5,1410.8z M967.4,1437.2c-2.4-3.7,0.4-6.3,2.7-8.1
		c11.2-8.8,22.2-18.1,34.3-25.5c41-25.1,82.2-49.8,123.7-74.1c31.1-18.3,62.7-35.8,94.2-53.6c5.2-3,7.4-2.7,11.4,0.9
		c-9.8,7-19.2,13.8-28.7,20.3c-24.7,16.8-48.9,34.3-74.2,50.1c-35.9,22.4-72.4,43.7-108.7,65.2c-15.2,8.9-30.9,16.8-46.4,25.1
		C973,1438.9,970,1441.2,967.4,1437.2z M990.2,1446.4c0.4-1.4,0.3-3.4,1.2-4.2c5.8-4.9,11.4-10.2,17.8-14.3
		c40.8-26.4,81.7-52.6,122.8-78.6c23.3-14.7,46.7-29.1,70.3-43.3c8.8-5.3,18.2-9.6,27.4-14.2c1.7-0.9,3.7-1,5.6-1.4
		c0.5,0.6,1,1.1,1.5,1.6c-1.3,2-2.3,4.6-4.1,5.9c-11.3,8.3-22.6,16.9-34.4,24.5c-40,25.7-80.1,51.5-120.5,76.6
		c-25.4,15.8-51.4,30.3-77.4,45.5c-1.9,1.1-3.8,2.1-5.9,2.6C993.2,1447.4,991.7,1446.7,990.2,1446.4z M998.5,1465.7
		c-0.6-0.7-1.1-1.5-1.6-2.2c1.5-2,2.5-4.5,4.4-5.9c14.1-10.3,28-20.8,42.6-30.2c44.8-28.9,89.9-57.5,135.1-85.9
		c13.3-8.4,27.2-15.9,41-23.5c1.9-1,5.7-1.3,6.9-0.1c2.8,2.7,0.8,5.7-1.7,7.6c-12.6,9.4-24.9,19.3-38,28
		c-30.7,20.3-61.4,40.6-92.8,60c-27.3,16.8-55.5,32.4-83.5,48.3C1007.2,1463.9,1002.6,1464.4,998.5,1465.7z M1040.7,1459.8
		c8.4-6.6,16.8-13.9,25.9-20.2c29.5-20.3,59.1-40.5,88.9-60.3c14.6-9.7,29.8-18.6,44.7-27.8c0.4-0.2,0.8-0.6,1.3-0.6
		c2.2-0.1,4.5-0.2,6.8-0.3c-0.8,2.5-0.8,6.1-2.5,7.4c-12,9.3-24.3,18.4-36.7,27.2c-20.8,14.8-41.4,29.9-62.7,43.8
		c-18.6,12.1-38,22.9-57.1,34.2C1045.7,1465.3,1042.7,1465.2,1040.7,1459.8z M1067.6,1477.2c-3.5,2.1-5.9,1.1-7.2-1.9
		c-0.7-1.5,0.1-4.6,1.4-5.7c6.9-5.9,13.7-12,21.2-17.2c26.9-18.8,53.9-37.5,81.2-55.6c9.1-6,19.3-10.2,29.1-15.1
		c1.8-0.9,4.1-0.8,6.1-1.2c0.4,0.4,0.8,0.9,1.2,1.3c-1.2,2.3-2,5.1-3.8,6.7c-8.1,7.1-16.3,14.1-24.9,20.5
		c-26.7,19.9-54.1,38.8-82.7,55.9C1082.1,1469.1,1074.7,1472.9,1067.6,1477.2z M1092.7,1480.2c1.3-1.7,2.2-3.9,3.8-5.2
		c14.7-11.9,29.5-23.7,44.1-35.6c18.3-14.9,38.5-27.1,59.5-37.7c4.1-2.1,8.7-3.4,13-5c0.5,0.6,0.9,1.3,1.4,1.9
		c-1.4,2-2.4,4.4-4.2,5.9c-14,11.4-28.1,22.7-42.3,33.9c-18.8,14.8-39,27.6-60.3,38.6c-4.2,2.2-8.9,3.7-13.3,5.5
		C1093.9,1481.7,1093.3,1481,1092.7,1480.2z M1111.3,1496.4c-0.3,0.1-0.7,0.2-0.9,0.4c-4.9,4.3-4.9,4.3-8.3-1.6
		c9.7-7.6,19.3-14.9,28.6-22.6c27.1-22.7,58.2-38.9,89-55.8c2.3-1.2,5.4-1,8.1-1.4c-1.3,2.3-2.1,5.2-3.8,6.8
		c-25,23-51.5,43.8-81.9,59.2C1131.9,1486.6,1121.6,1491.4,1111.3,1496.4z M1157.8,1495.8c-1.3,0.1-3.5-0.2-3.8-1
		c-0.5-1.2-0.4-3.5,0.4-4.4c3.1-3.6,6.4-7.2,10.1-10.2c13.6-11.2,26.9-22.8,41.3-32.8c10.2-7,21.8-12,32.8-17.7
		c1.6-0.9,3.6-1,5.5-1.5c0.5,0.5,0.9,0.9,1.4,1.4c-1.2,2.2-2.1,4.6-3.8,6.4c-15.5,16.4-31.6,32.1-52.1,42.4
		c-9.6,4.8-18.7,10.7-28.1,16C1160.3,1495,1159.1,1495.7,1157.8,1495.8z M1228.7,1492.2c-5.9,5-11,9.3-16,13.6
		c-0.3-0.4-0.6-0.8-1-1.2C1216.2,1499.6,1218.8,1492.2,1228.7,1492.2z M1181,1506c0-7.2,20.4-25.9,32.2-28.7
		C1203,1488.8,1197,1502.8,1181,1506z M1227.6,1535c-0.2-0.4-0.4-0.7-0.6-1c2.7-1.9,5.4-4,8.2-5.7c0.7-0.4,2.8-0.1,3,0.3
		c0.7,1.9,0.9,4,1.3,6.4C1235,1535,1231.3,1535,1227.6,1535z M1229.6,1524.3c-7.5,4.9-16.3,7.7-24.5,11.4c-0.3-0.5-0.6-1-1-1.5
		c13.9-10.3,24.8-24.4,41.5-31.4C1240.9,1510.5,1237.2,1519.3,1229.6,1524.3z M1251.7,1216.8c-5,4.4-10,8.8-15.6,12.3
		c-35,22.1-70.1,44.2-105.4,65.9c-30.5,18.8-61.1,37.5-92,55.6c-26.6,15.6-53.7,30.4-80.6,45.4c-3,1.7-6.4,2.8-10.2,4.4
		c-1.1-1-3-2-3.1-3.1c-0.2-2,0.2-4.9,1.5-6.1c5.8-5.2,11.6-10.5,18.2-14.6c21.9-13.5,44.1-26.4,66.1-39.6
		c33.9-20.3,67.5-40.8,101.5-60.9c34.7-20.5,69.6-40.5,104.5-60.7c3.5-2,7.1-3.8,10.8-5.1c1.4-0.5,4.5,0.2,4.9,0.9
		C1253,1212.8,1252.8,1215.8,1251.7,1216.8z M1260.9,1145.3c-19.8,12.4-40,24.2-60.1,36.1c-32.9,19.5-66,38.8-98.9,58.5
		c-42.7,25.5-85.1,51.5-127.9,76.9c-26.7,15.8-53.7,31-80.8,46.1c-7.8,4.3-16.2,7.6-24.4,11.1c-1.6,0.7-3.9-0.2-5.9-0.4
		c0.4-2.2,0.1-4.8,1.3-6.4c1.9-2.6,4.6-4.7,7.3-6.7c7.6-5.6,14.8-12.4,23.2-16.2c30.5-13.7,58.3-32.2,87.1-49
		c37.9-22.1,75.1-45.1,112.8-67.4c51.2-30.4,102.5-60.6,153.9-90.7c7.1-4.2,14.8-7.3,22.2-11.1c4-2,7.3-1.7,11.3,3.1
		C1274.8,1134.8,1268.3,1140.7,1260.9,1145.3z M1635.4,632.6c-1.3,3.1-3.5,6.2-6.1,8.2c-13.8,10.3-27.6,20.6-41.9,30.2
		c-43.2,28.8-89.7,51.8-134.1,78.5c-32.3,19.4-64.6,38.7-96.9,58.1c-39.2,23.5-78.4,47.2-117.7,70.6c-39.6,23.7-79.3,47.1-119,70.6
		c-7,4.2-14.1,8.4-21.2,12.6c0.2,0.4,0.4,0.7,0.6,1.1c6.3-3.5,12.6-6.9,18.8-10.4c38.6-21.7,77.2-43.4,115.8-65.1
		c40-22.6,80-45.2,120-67.9c39.2-22.2,78.6-44.3,117.5-67.1c35.4-20.7,70.9-41.1,103.9-65.6c1.3-1,2.7-2,3.8-3.2
		c6.8-6.9,8.6-7.2,18.1-1.8c-1.4,1.6-2.4,3.5-4,4.6c-16.8,12.1-33.6,24.2-50.5,36.2c-1,0.7-2.1,1.5-2.7,3.1c7-3.4,14-7,21-10.4
		c7.9-3.8,15.8-7.7,23.9-11c2.4-1,7.2-1.3,8.1,0c2.2,3.3,0.8,7.1-2.5,9.6c-9.5,7-18.9,14.1-28.7,20.6c-14.7,9.7-30.3,18-44.3,28.6
		c-7.5,5.6-15,10.8-23,15.3c-38.1,21.4-76.4,42.5-114.2,64.4c-34.6,20-68.8,40.8-103.1,61.3c-46.3,27.6-92.5,55.3-138.7,83
		c-26.7,16.1-53.4,32.2-80.1,48.3c-0.8,0.5-1.4,1.2-1.8,2.4c160.6-91.7,323.6-179.2,480-279.3c-1.3-0.8-2-1.2-3.5-2.1
		c8.2-2.8,15.5-5.3,22.8-7.8c1-0.3,2.1-0.5,3-0.3c1.4,0.2,2.7,0.8,4.1,1.3c-0.5,1.3-0.6,3.1-1.5,3.9c-7,5.9-13.6,12.3-21.2,17.2
		c-29.8,19.3-59.9,38.1-89.9,57.1c-1.2,0.8-2.4,1.6-4.4,3c1.8,0,2.6,0,3.4,0c-0.1,0.1-0.1,0.1-0.2,0.2c5.3-3.2,10.7-6.4,16.1-9.6
		c3.1-1.4,6.2-2.8,9.3-4.2c7.3-5.4,14.6-10.7,24-12.4c3.8-0.7,7.3-3.4,11.1-4.2c3.5-0.7,7.3-0.2,10.9-0.3c-1.9,2.8-3.3,6.5-6,8.3
		c-16.9,11.7-34,23-51.2,34.3c-5.9,3.9-12,7.4-17.4,12.1c6.8-3.5,13.5-7.3,20.5-10.5c8.5-4,17.3-7.5,26-11.2c1-0.4,2.4-0.8,3.4-0.5
		c1.5,0.4,3.6,1.1,4.1,2.2c0.4,0.9-0.7,3.2-1.8,4c-10.1,7.5-20,15.4-30.8,21.9C1408.6,896,1350,931.4,1291,966.2
		c-61.5,36.4-123.4,72.2-185.2,108.1c-61.2,35.6-122.6,70.8-183.8,106.5c-44.5,26-88.8,52.4-133.1,78.8c-7.4,4.4-14.5,9.3-21.7,13.9
		c0.2,0.4,0.4,0.7,0.6,1.1c4.2-2.2,8.5-4.2,12.6-6.5c37.3-21.2,74.7-42.4,111.9-63.9c42.3-24.5,84.5-49.3,126.7-74
		c45-26.3,89.8-52.9,134.7-79.2c48.8-28.6,97.6-57.2,146.5-85.6c31.8-18.5,63.7-37,95.8-55c15.6-8.8,31.8-16.5,47.8-24.5
		c2.6-1.3,5.6-2.3,8.5-2.6c1.9-0.2,3.9,1.2,5.8,1.9c-1,1.4-1.7,3.2-3,4.1c-14.2,9.5-28.2,19.3-42.8,28.2
		c-45.7,27.9-91.4,55.8-137.5,83.2c-51.8,30.7-103.9,60.8-155.9,91.2c-49,28.6-98,57.1-147,85.8c-43.2,25.3-86.5,50.5-129.5,76.2
		c-24.3,14.5-48.2,29.8-72.3,44.8c-0.9,0.5-1.7,1.4-2,3.1c5-2.3,10.1-4.4,14.9-7.1c38.1-21.4,76.3-42.4,114-64.3
		c44.8-26,89.1-52.7,133.5-79.3c35.2-21.1,69.9-42.8,105.1-63.8c50.1-30,100.3-59.8,150.7-89.2c28.9-16.9,58.4-32.8,87.7-49
		c5.1-2.8,10.5-5,16-6.9c1.8-0.6,4.3,0.6,6.4,1c-0.9,1.7-1.3,4.2-2.7,5.2c-13.3,9.8-26.7,19.6-40.3,29c-9.6,6.5-19.6,12.4-29.4,18.6
		c-0.8,0.5-1.4,1.2-1.5,2.6c6.7-3.5,13.2-7.2,20-10.5c8.3-4,16.7-7.9,25.3-11.4c1.6-0.6,4,0.8,6.1,1.3c-0.5,2.1-0.3,5.1-1.6,6.1
		c-10.8,8-21.4,16.3-32.8,23.3c-51.3,31.4-102.9,62.4-154.4,93.5c-0.9,0.6-1.7,1.3-2,2.9c4.2-2.4,8.4-4.8,12.6-7.2
		c34-19.2,68.1-38.5,102.2-57.6c4.6-2.5,9.7-4.4,14.6-6.3c1.5-0.5,3.3,0,5,0.1c-0.7,1.6-0.9,3.9-2.1,4.8
		c-9.6,7.1-19.1,14.5-29.2,20.8c-62.6,39-125.2,78.3-188.3,116.5c-57.7,35-116.2,68.7-174.3,103.1c-16.7,9.8-33.4,19.8-50,29.8
		c-1,0.6-1.8,1.4-2.2,3c6.4-3.5,12.9-6.9,19.2-10.6c42.1-24.5,84.4-48.9,126.4-73.6c37.9-22.3,75.3-45.3,113.3-67.5
		c48.8-28.5,97.9-56.6,147-84.6c7.5-4.3,15.6-7.4,23.5-10.8c1.6-0.7,3.7,0,5.6,0.1c-0.7,1.9-0.9,4.5-2.2,5.5
		c-7.5,5.7-15.3,10.9-23,16.3c-7.3,5-14.5,10.3-22.1,14.9c-45.4,27.7-90.6,55.4-136.2,82.6c-51.5,30.8-103.3,61.2-155,91.7
		c-28.1,16.6-56.2,33.2-84.3,49.8c-1.4,0.8-2.8,1.5-4.7,1.4c11.3-7.2,22.6-14.5,34.1-21.5c36.9-22.6,73.8-45.3,110.9-67.6
		c37.8-22.8,75.9-45.1,113.9-67.5c45.8-27,91.7-54.1,137.5-81.2c1.4-0.8,2.5-2,3.8-3.1c-6.9,3.4-14.1,6.5-20.8,10.3
		c-46.8,26.8-93.7,53.5-140.2,80.7c-46.4,27.1-92.2,55.2-138.5,82.4c-42.8,25.3-86,50-129.1,74.9c-3.8,2.2-7.7,4-11.5,6
		c-2.3,1.2-5.1,2.7-6.4-0.5c-0.7-1.7,0.1-5.1,1.5-6.3c6.7-5.7,13.5-11.3,20.9-16c43.4-27.2,86.8-54.5,130.5-81.3
		c45.5-27.9,91.3-55.4,137.2-82.7c39.6-23.6,79.6-46.6,119.3-70c15.5-9.1,30.7-18.6,46-27.9c1.2-0.8,2.3-1.7,3-3.6
		c-7.5,3.9-15.2,7.5-22.5,11.8c-49.9,29.2-100,58.4-149.7,88c-61.7,36.7-123,74.1-184.8,110.7c-36.4,21.5-73.4,42-110.2,62.8
		c-8.1,4.6-16.6,8.5-25.2,12.1c-2.6,1.1-7.9,1.5-8.7,0.2c-2.1-3.4,0.7-6.5,3.8-8.5c16.3-10.8,32.3-22.1,49-32.2
		c50.2-30.2,100.5-60.1,151-89.8c60.5-35.6,121-71,181.6-106.4c42.7-24.9,85.6-49.5,128.1-74.7c18.8-11.2,36.9-23.6,55.3-35.4
		c1.1-0.7,2-1.6,2.6-3.3c-4.5,2.2-9.3,4.3-13.7,6.8c-42.4,24.4-84.9,48.6-127.1,73.4c-46.2,27.1-92.1,54.7-138.1,82.2
		c-37.6,22.4-74.9,45.3-112.6,67.5c-53.1,31.3-106.5,62.3-159.9,93.2c-10.8,6.2-22.2,11.1-33.4,16.5c-1.4,0.7-3.2,1.1-4.8,0.9
		c-1.3-0.2-2.9-1.1-3.5-2.2c-0.4-0.7,0.4-2.6,1.2-3.4c3.2-2.9,6.6-5.6,10-8.2c9.9-7.5,19.8-14.9,29.7-22.3c0.3-0.2,0.4-0.7,0.2-1.8
		c-4.8,2.6-9.4,5.3-14.2,7.6c-11,5.4-22.1,10.7-33.3,15.7c-1.8,0.8-4.9,0.8-6.5-0.2c-3.4-2.1-3.2-5.5-0.2-7.9
		c8.9-7.1,17.6-14.7,27.3-20.7c39.4-24.4,79.1-48.6,118.9-72.5c49.8-29.8,99.8-59.4,149.8-88.8c51.9-30.5,103.9-60.9,156-91.1
		c51.4-29.8,103-59.2,154.4-88.9c27.9-16.1,55.6-32.4,83.4-48.6c1.2-0.7,2.4-1.6,3.6-2.4c-0.1-0.4-0.3-0.7-0.5-1.1
		c-5.4,2.2-11,4.1-16.1,6.9c-26.3,14.2-52.7,28.1-78.6,43c-43.7,25.2-87,51-130.4,76.7c-37.6,22.3-75,44.7-112.5,67
		c-41.5,24.7-82.9,49.4-124.5,73.9c-33.3,19.7-66.6,39.4-100.2,58.5c-41.2,23.5-82.7,46.4-124.1,69.6c-2.3,1.3-4.7,2.7-7.2,3.3
		c-2,0.5-4.3-0.3-6.4-0.5c0.4-2.2,0.1-5.3,1.4-6.5c5.4-4.9,11-9.8,17.1-13.6c35.5-22,71-44,106.9-65.5c34.9-20.8,70.1-41,105.2-61.5
		c49.2-28.8,98.5-57.5,147.8-86.3c50.7-29.6,101.4-59.2,152.2-88.7c42-24.5,84.3-48.5,126.1-73.2c26.3-15.5,52-32,77.9-48.1
		c1.3-0.8,2.5-2,3.3-4c-7.2,3.7-14.6,7.2-21.6,11.3c-52.2,30.4-104.4,60.7-156.5,91.3c-41.2,24.2-82.2,48.7-123.2,73.1
		c-39.2,23.4-78.3,46.9-117.5,70.1c-46.8,27.7-93.7,55.3-140.6,82.8c-33.5,19.6-66.9,39.3-100.8,58.2c-28,15.6-56.6,30-85,44.7
		c-3.9,2-8.4,3.2-12.7,4.2c-1.6,0.4-3.5-0.8-5.2-1.3c0.4-1.5,0.4-3.5,1.4-4.3c5.9-5,11.8-10.2,18.2-14.6
		c9.2-6.5,18.8-12.4,28.3-18.5c0.8-0.6,1.5-1.3,1.8-2.8c-1.1,0.5-2.4,1-3.5,1.6c-20.3,10.9-40.6,21.9-60.9,32.8
		c-2.2,1.2-4.6,1.9-6.9,2.9c-3.6,1.5-6.8,1.3-9-2.4s0.6-5.9,2.8-7.5c9.9-7.3,19.9-14.4,30-21.3c7.2-4.9,14.8-9.4,22.2-14
		c-0.2-0.4-0.4-0.8-0.6-1.2c-4.7,2.5-9.4,5.1-14.2,7.5c-16.8,8.2-33.7,16.5-50.6,24.6c-2.9,1.4-5.5,2.2-8-1.6
		c-2.1-3.2-0.9-4.3,1.1-6.6c8.9-10.3,20.2-17.5,31.6-24.6c0.6-0.4,1.1-1,1.1-2.5c-4.9,2.6-9.6,5.4-14.6,7.8
		c-16.9,8.2-33.8,16.3-50.8,24.2c-2.8,1.3-6.3,1.2-10.9,2.1c4-10.5,13.2-13.4,20.1-20.8c-5.2,2-9,3.5-12.9,5
		c-0.2-0.3-0.3-0.5-0.5-0.8c3-2.4,6.1-4.9,10-8c-4.2,0.7-7.3,1.6-10.3,1.5c-1.8,0-4.1-1.5-5.1-3c-0.4-0.8,1.1-3.5,2.4-4.7
		c3-3,6.4-5.5,9.2-8.9c-2.1,0.5-4.2,1-6.3,1.5c-0.1-0.3-0.3-0.6-0.4-0.9c3.7-2.9,7.5-5.7,11.2-8.6c-0.1-0.2-0.2-0.3-0.3-0.5
		c-7.6,3.1-15.1,6.2-22.7,9.3c-1.3,0.5-2.6,0.8-3.8,1.3c-3.6,1.4-7.2,1.4-9.2-2.2c-1.9-3.5,1.5-5.4,3.7-7.3c3.2-2.8,6.6-5.4,9.6-8.7
		c-3.4,1.2-6.7,2.5-10.1,3.7c-0.2-0.3-0.5-0.6-0.7-0.9c7.8-5.3,15.7-10.7,23.5-16c-0.2-0.3-0.3-0.6-0.5-0.9c-5,2.4-9.9,4.9-14.9,7.2
		c-3.2,1.5-6.4,2.9-9.6,4.2c-1.7,0.7-3.7,1.8-5.2,1.4c-2.5-0.6-5-1.9-6.7-3.6c-0.6-0.7,0.4-3.7,1.4-5.2c5-7.6,11.6-13.7,19.9-17.6
		c0.9-0.4,1.8-0.6,2.8-0.9c-2.5,2.1-5,4.3-7.5,6.4c0.1,0.3,0.3,0.6,0.4,0.9c3.7-1.7,7.6-3.1,11.1-5.1
		c34.8-19.3,69.8-38.2,104.3-58.1c41.8-24.1,83.1-49,124.6-73.7c39.1-23.2,78.1-46.6,117.1-69.9c42.8-25.6,85.5-51.6,128.6-76.8
		c63.5-37.1,127.3-73.5,191-110.2c40.2-23.2,80.5-46.2,120.8-69.3c0.6-0.3,1.2-0.3,2-0.1c-130.6,78.5-261.3,157-391.9,235.5
		c0.2,0.4,0.5,0.9,0.7,1.3c4.1-2.3,8.2-4.4,12.3-6.7c48.8-27.6,97.5-55.2,146.3-82.9c55.3-31.3,110.6-62.4,165.7-94.1
		c52.8-30.4,105.4-61,157.8-92c31.5-18.6,62.5-38.3,93.6-57.7c4.4-2.8,7.9-7.1,12.4-9.8c3.2-1.9,7.3-2.5,11.1-3
		c1.1-0.2,3.5,2,3.6,3.3c0.1,1.6-1,4-2.4,5c-6.8,5.2-13.8,10.3-21,15.1c-22.4,15-44.7,30.3-67.6,44.6
		c-16.3,10.2-33.5,18.9-50.1,28.7c-33.2,19.6-66.3,39.2-99.3,59c-42.3,25.3-84.5,50.8-126.7,76.2c-41.1,24.7-82.2,49.4-123.3,74.1
		c-15.5,9.3-31,18.6-46.5,27.9c-1.2,0.8-2.4,1.6-3.1,3.3c5.8-3.3,11.6-6.5,17.4-9.8c66.5-38,133-76.1,199.6-114.1
		c50.9-29,102.1-57.4,152.6-87c47.9-28.1,95.1-57.4,142.6-86.3c4.7-2.8,9.1-6.1,13.3-9.6c1.8-1.4,2.4-4.4,4.2-5.6
		c3.1-2.1,6.7-3.5,10.3-4.8C1633.6,626.1,1636.9,628.9,1635.4,632.6z M625.9,1172.6c0-0.1,0.1-0.1,0.2-0.2c0,0,0.1,0,0.2-0.1
		c0,0.1-0.1,0.1-0.1,0.2C626.1,1172.5,626,1172.6,625.9,1172.6z M1676.1,388.6c-11.7,10.5-24,20.4-36.1,30.5
		c-6.8,5.7-13.8,11.2-20.2,17.9c4.6-2,9.1-4.3,13.9-6c7-2.4,14.1-4.5,21.2-6.5c1.5-0.4,4.6,0.2,4.8,0.9c0.5,1.8,0.6,4.7-0.5,5.9
		c-3.9,4.3-8.2,8.1-12.7,11.8c-4.7,3.9-9.8,7.6-15.6,12c1.7-0.1,2.4,0,3-0.2c8.1-2.7,16.1-5.4,24.1-8.1c3.2-1.1,5.9-0.5,8.2,4.1
		c-6.9,5.2-13.7,10.9-21,16c-7.7,5.4-15.9,10.2-23.7,15.5c-1,0.7-1.4,2.4-2,3.6c1.8-0.4,3.6-0.7,5.4-1.1c5.3-5.5,12.7-5.7,19.4-7.1
		c2.2-0.5,5.1,2.4,7.6,3.8c-1.3,1.9-2.2,4.4-4,5.8c-19,14.6-38.6,28.1-59.7,39.5c-31.8,17.1-63.4,34.7-94.8,52.6
		c-35.7,20.3-71.3,40.9-106.8,61.7c-36,21.1-72,42.5-107.8,64c-50.8,30.6-101.6,61.4-152.4,92.1c-20,12.1-40.1,24.1-60.1,36.1
		c-0.8,0.5-1.5,1.1-1.8,2.6c6.1-3.4,12.2-6.8,18.3-10.2c55.4-30.8,110.8-61.4,166.1-92.4c45-25.2,89.9-50.7,134.6-76.4
		c44-25.3,88-50.5,131.6-76.5c37.5-22.4,74.3-45.8,111.3-68.8c3.3-2.1,7.5-4.2,9.2-7.4c4.3-8.2,13.3-6.1,19.5-9.8
		c0.8-0.5,4,0.7,4.3,1.7c0.6,1.7,0.5,4.6-0.6,5.7c-3.4,3.5-7.3,6.7-11.3,9.7c-33,24.5-67.9,46.2-104,66.1
		c-32.4,17.8-64.3,36.7-96.2,55.3c-47.2,27.6-94.4,55.4-141.5,83.2c-44.8,26.5-89.5,53.2-134.3,79.8c-25.5,15.2-51,30.4-76.5,45.6
		c-1.2,0.7-2.4,1.5-3,3.1c9.6-5.4,19.2-10.8,28.8-16.2c38-21.5,75.9-43,113.9-64.5c34.5-19.5,69-39,103.5-58.5
		c40.1-22.7,80.6-44.9,120.4-68.1c54-31.5,107.5-63.8,161.2-95.9c5.4-3.2,9.9-7.9,15.3-11.1c4.6-2.8,9.8-4.5,14.8-6.5
		c0.4-0.2,1.9,0.6,1.9,1c0.1,1.5,0.3,3.3-0.4,4.3c-1.9,2.5-4.1,4.9-6.5,6.8c-8.8,7-18.5,13.2-26.6,20.9c-9.7,9.2-22,13.3-33.1,19.8
		c-11.5,6.9-23.5,13-35.2,19.6c-32,18.1-64.1,36.2-96,54.6c-49.6,28.6-99,57.4-148.4,86.4c-46.6,27.4-93.1,55.1-139.6,82.6
		c-46.4,27.4-92.8,54.8-139.2,82.2c-9.4,5.6-18.7,11.2-27.6,17.8c2.4-1.2,4.8-2.2,7.1-3.5c41.8-23.5,83.6-47,125.4-70.5
		c40.2-22.6,80.5-44.9,120.7-67.6c41.3-23.3,82.5-46.7,123.7-70.3c47.6-27.3,95.3-54.5,142.5-82.5c30.5-18.1,60.3-37.4,90.2-56.5
		c4.2-2.7,6.8-8.2,11.2-10.3c6.2-2.9,12.7-6.7,20.2-5c1.1,3.9,0.8,7.1-2.5,9.6c-7.4,5.7-14.8,11.6-22.2,17.5c-1,0.7-1.9,1.6-2.4,3.3
		c3-0.7,6-1.4,9-2.1c1.4-0.3,3-1.2,4.3-0.8c2.1,0.6,4.3,1.7,5.6,3.3c0.5,0.6-1,3.7-2.3,4.7c-9.2,7.1-18.5,14-27.8,21
		c-6.2,4.7-12.1,9.7-18.7,13.8c-6.2,3.8-13.1,6.4-19.5,9.9c-16.4,9-32.8,18.1-49.2,27.2c-0.6,0.4-1.4,0.5-2.3,0.4
		c36.5-22.8,74.2-43.6,109-68.9c-0.3-0.5-0.6-1.1-0.9-1.6c-6.4,2.8-13,5.3-19.2,8.6c-33.7,18.1-67.6,36.1-100.9,54.9
		c-41,23.2-81.7,47-122.3,70.8c-41.8,24.5-83.4,49.2-125.1,73.9c-51.2,30.4-102.4,60.7-153.6,91.2c-44.4,26.4-88.6,53-132.9,79.4
		c-44.6,26.6-89.1,53.3-133.9,79.6c-53.3,31.2-106.8,61.9-160,93.1c-15,8.8-29.4,18.7-44,28.1c-0.9,0.5-1.9,0.9-2.9,1.3
		c0.4-0.8,0.8-1.6,1.5-3.3c-7.6,3.9-14.5,7.6-21.6,10.9c-8.7,4-17.6,7.8-26.5,11.3c-1.8,0.7-4.7,0.5-6.4-0.5c-3.7-2.1-4.2-5.1-0.3-8
		c2-1.6,3.9-3.4,5.8-5c-1.2-1.1-2.2-2.2-3.4-3.4c-6.4,2.6-13.2,5.6-20.2,8.1c-1.8,0.7-4.6,0.4-6.3-0.6c-3.5-2-4.6-4.5-0.3-7.4
		c2.9-1.9,5.3-4.7,7.4-7.9c-1.5,0.4-3,0.8-5.6,1.5c1.7-1.9,2.6-3,3.5-4c-5.8,2.4-12.4,5.4-16-2.1c-0.9-2,3.7-6.8,5.9-10.4
		c0,0-0.8-0.3-2.3-0.9c4.7-3.6,9-6.9,13.4-10.3c-0.1-0.2-0.2-0.4-0.3-0.6c-7.1,3.3-14.2,6.5-21.3,9.8c-4.6,2.2-8.9,3.7-14,0.5
		c-2.6-1.6-3.1-2.7-1.4-4.9c1.4-1.8,3.2-3.4,4.6-5.2c0.5-0.7,0.4-2,0.9-4.4c3.7-2.7,8.8-6.4,14.5-10.7c-8.5-0.3-14.9,9.5-23.7,3
		c0.9-1.4,1.4-2.3,2-3c9.3-11.2,21-19.7,33.3-27.3c5.9-3.6,11.6-7.5,17.4-11.2c-0.2-0.4-0.4-0.8-0.6-1.2c-4.9,2.6-9.7,5.3-14.6,7.7
		c-18.6,9.2-37.2,18.3-55.9,27.2c-2.7,1.3-6,1.4-9.4,1.3c3.2-10.1,8.8-18,18.5-22.8c-0.3-0.5-0.7-0.9-1-1.3
		c-1.6,0.5-3.1,1.1-4.7,1.7c-10,3.7-20.1,7.5-30.2,11.2c-0.9,0.3-2,0.6-2.9,0.4c-1.7-0.3-3.3-0.9-5-1.4c0.5-1.5,0.9-3.1,1.7-4.4
		c6.5-10.7,17.2-16.5,27.2-23.2c2.5-1.5,4.9-3,7.3-4.5c1.2-1.3,2.5-2.6,3.7-3.9c-0.1-0.2-0.2-0.4-0.3-0.6
		c-7.7,3.8-15.4,7.8-23.3,11.4c-5.2,2.5-10.8,4.3-16.1,6.6c-5.1,2.3-7.2-1.6-7.9-4.8c-0.4-1.9,1.9-5.6,3.9-6.8
		c7-4.1,14.6-7.2,21.8-11c30.7-16.4,61.5-32.6,91.9-49.7c48.6-27.4,97-55.1,145.2-83c37.9-21.9,75.5-44.4,113.1-66.8
		c43.1-25.6,86.1-51.3,129.1-77c40.8-24.5,81.6-49.1,122.4-73.7c22.2-13.3,44.3-26.7,66.4-40.1c1.2-0.7,2.2-1.5,2.9-3
		c-6,3.3-12,6.6-18,10c-41.7,23.7-83.3,47.4-125,71.1c-34.5,19.6-69,39.2-103.6,58.5c-35.3,19.7-70.9,38.9-106.2,58.7
		c-30.5,17.1-60.8,34.8-91.1,52.3c-40.6,23.4-81.1,47.1-121.9,70.4c-38.2,21.8-76.7,43.1-112.4,68.9c-2.4,1.7-4.3,4.2-6.8,5.8
		c-2.9,1.9-6.2,3.3-9.4,4.7c-10.9,4.9-21.8,9.7-32.8,14.4c-1.5,0.6-3.2,0.7-4.8,1.3c-3.4,1.3-4.5-1.1-6.1-3.4
		c-1.6-2.3-1.1-3.7,0.8-5.5c5.6-5.1,11-10.4,16.5-15.7c-5.6,2.7-11.4,5.5-17.2,8.1c-3.4,1.5-6.9,2.6-10.1,4.3
		c-4.2,2.2-7.5,0.2-10.4-2.1c-0.8-0.6,0.1-3.7,0.6-5.5c0.7-2.5,5.8-3.2,3.1-7.4c-0.1-0.3,1.5-2.1,2.6-2.8
		c6.9-4.8,13.9-9.5,20.9-14.3c0.6-0.3,1-0.7,1.3-1.9c-3,0.5-6.1,1.3-9.2,1.5c-1.8,0.1-4.8-0.4-5.2-1.5c-0.7-1.9-0.7-4.7,0.3-6.5
		c2-3.7,4.7-6.9,7.3-10.4c-5.1,2-10.1,4-15.2,5.8c-7.4,2.5-8.3,2.1-12.6-4.6c2-4.8,6.4-5.4,10.6-7.1c9.4-3.7,18.7-7.9,27.6-12.6
		c27.1-14.4,54.3-28.8,80.9-44c18.3-10.4,35.7-22.4,53.7-33.3c33-19.8,66-39.7,99.3-58.9c63.6-36.6,128-71.7,190.2-110.6
		c23.2-14.5,46.7-28.5,70.1-42.8c1.1-0.7,2.1-1.5,2.7-3.1c-5.8,3.2-11.7,6.4-17.5,9.7c-54,30.6-107.9,61.3-161.9,91.8
		C681.2,851,621.7,884,562.6,917.6c-36.1,20.5-71.6,41.9-107.7,62.4c-18.9,10.7-38.3,20.5-57.7,30.2c-9.6,4.8-19.8,8.3-29.7,12.4
		c-3.8,1.6-6.5-0.7-7.6-3.6c-0.6-1.5,1.3-5,3-5.9c5.5-3,11.5-5.1,17-8c23.7-12.5,47.6-24.8,71-38.1c48.3-27.4,96.5-55.1,144.4-83.2
		c56.6-33.2,113-66.9,169.4-100.6c45.7-27.3,91.3-54.8,136.9-82.3c2.4-1.4,4.8-3.1,6.8-5.3c-171,97.3-343.2,192.4-512.3,293
		c3.6-2.5,7.1-5,10.7-7.5c-0.2-0.2-0.3-0.5-0.5-0.7c-8.6,4.4-17,9.2-25.8,13.2c-13.6,6.1-27.5,11.6-41.2,17.4
		c-0.3,0.1-0.6,0.3-0.9,0.3c-3.1-0.3-6.2-0.8-9.3-1.2c1.4-2.4,2.1-5.5,4.1-7.2c7.1-6.1,14.6-11.6,22-17.3c0.3,0.4,0.7,0.9,1,1.3
		c-6,4.8-12,9.6-18,14.4c0.4,0.6,0.7,1.1,1,1.6c6.5-2.8,13.1-5.2,19.3-8.6c38.7-21.2,77.4-42.4,115.8-64.1
		c44.3-25.1,88.4-50.6,132.4-76.2c43.7-25.4,87.4-51,131-76.7c44.6-26.3,89.1-52.8,133.5-79.3c44.6-26.5,89.1-53.3,133.7-79.9
		c8.8-5.3,17.7-10.4,26.5-15.7c1.1-0.7,2.1-1.8,3.1-2.8c-4.8,2.4-9.8,4.7-14.5,7.3c-38.3,21.5-76.6,43.1-114.9,64.6
		c-36.8,20.6-73.6,41.1-110.3,61.8c-34.4,19.3-68.7,38.7-103,58.3c-33.6,19.3-67.2,38.8-100.8,58.2c-37.5,21.7-75,43.2-112.5,64.9
		c-32.2,18.6-64.1,37.7-96.4,56c-9,5.1-19.1,8.3-28.6,12.6c-8,3.6-15.9,7.6-23.9,11.1c-2.4,1-5.2,2.3-7.3-1.4
		c-2.3-4.2,0.3-9.5,6.8-10.5c11.9-1.8,22-7.6,32.1-13.1c50.4-27.8,100.9-55.5,150.7-84.3c60.2-34.8,119.7-70.6,179.4-106.2
		c46.4-27.7,92.7-55.7,139-83.6c1-0.7,2-1.5,2.5-3C677.4,781.1,521.9,870,366.4,958.8c-0.1-0.2-0.3-0.4-0.4-0.6
		c29-17.3,57.9-34.7,86.8-52c-0.2-0.4-0.4-0.7-0.6-1.1c-4,2.3-8.1,4.6-12.2,6.9c-36,20.4-72,41-108.3,61
		c-11.5,6.4-23.8,11.6-35.8,17.3c-1.5,0.7-3.2,1.7-4.7,1.5c-2.6-0.3-5.8-0.8-7.2-2.5c-0.9-1.1,0.4-5.3,2-6.7
		c5.9-5.1,12.3-9.6,18.5-14.3c1-0.7,1.8-1.6,3.6-3.2c-8,2-14.8,7.6-22.1,0c2.9-5.1,7.7-8.1,12.6-11c1.3-1.1,2.7-2.1,4-3.2
		c3.5-3.2,7-6.4,10.6-9.5c1-0.8,2.1-1.5,2.6-3.3c-5.1,2.2-10.2,4.5-15.3,6.7c-3.3,1.4-6.8,2.7-10.2,3.9c-4.5,1.6-8.9,2.8-12.1-2.8
		c3-4.1,6.8-6.9,12.1-8.9c11.4-4.3,22.8-9.2,33.5-15.2c69.4-39.1,138.7-78.2,207.7-117.9c53.8-30.9,107.1-62.6,160.5-94.2
		c56.6-33.5,113.2-67.2,169.8-100.9c35.4-21,70.6-42.3,105.9-63.4c1.3-0.7,2.5-1.6,3.3-3.3c-5.9,3.4-11.9,6.7-17.9,10.1
		c-59.4,33.9-118.8,67.7-178.1,101.6c-55,31.4-109.9,63-164.9,94.4c-46.6,26.6-93.4,52.7-139.7,79.6
		c-51.7,30.1-103.1,60.8-154.7,91.2c-0.7,0.4-1.4,1.2-2.1,1.2c-12.6,0.6-21.6,9.5-32.4,14.1c-8.1,3.4-16,7.4-24,11
		c-1.7,0.8-3.5,1.7-5.2,1.7c-2.8-0.1-6.5,2.4-8.1-2.1c-1.1-3.1,2.2-8.8,5.8-9.5c16.4-3.2,30.8-11.4,45-19.3
		c54-30.1,108.1-60.2,161.6-91.2c63.9-36.9,127.3-74.7,190.8-112.3c66.5-39.4,132.9-79,199.3-118.5c51-30.4,102.1-60.7,153.1-91
		c2.7-1.6,5.3-3.3,7.5-5.8c-4.1,2.2-8.2,4.2-12.2,6.5c-55.9,31.6-111.7,63.3-167.6,94.8C768,632,708.7,665.3,649.5,698.7
		c-50.7,28.6-101.5,57-152.1,85.9c-47.4,27.1-94.5,54.6-141.6,82.1c-18,10.5-35.6,21.7-53.4,32.7c-1.7,1-3.1,2.3-4.7,3.5
		c0-1.1,0-2.2,0-3.6c-11.4,5.4-22.7,11-34.1,16.3c-8.5,4-17.3,7.6-26,11.2c-1.3,0.6-3.2,1.2-4.3,0.7c-2.1-0.9-4.1-2.5-5.7-4.2
		c-0.2-0.3,1.5-2.9,2.7-4c7.4-6.3,15-12.5,21.9-19.7c-7,3.4-13.8,7-20.9,10.2c-5.3,2.4-10.8,4.4-16.3,6.1c-1.3,0.4-4.3-0.4-4.6-1.3
		c-0.5-1.6-0.3-4.4,0.8-5.5c1.8-1.8,4.5-3,7-4c11.1-4.3,22.9-7.2,33.3-12.8c35.9-19.1,71.5-38.7,106.7-59
		c47.8-27.5,95.4-55.6,142.8-83.9c33.7-20.2,66.9-41.3,100.7-61.4c36.8-21.9,73.9-43.2,110.9-64.7c1.3-0.7,2.5-1.6,3.4-2.9
		C568.5,700.9,421.2,782,275.2,865.5c2-1.5,3.9-2.9,5.9-4.4c-0.2-0.3-0.3-0.6-0.5-0.9c-4.6,2.4-9.1,5-13.8,7.3
		c-18.6,9.2-37.2,18.4-55.9,27.3c-2.7,1.3-5.9,1.4-9.9,2.2c1.5-9.3,8.3-12.3,13.9-16.4c-0.6,0.8-1.3,1.7-2,2.5
		c0.2,0.3,0.3,0.5,0.5,0.8c6.5-3.2,13.1-6.2,19.5-9.7c48.9-26.7,98-53.1,146.6-80.4c42.5-23.8,84.6-48.5,126.7-73.1
		c46.8-27.3,93.5-55,140.1-82.7c44.5-26.4,88.9-53,133.4-79.5s88.9-52.9,133.4-79.4c7.7-4.5,15.3-9.2,22.5-14.5
		C710.2,594.1,481.7,718,257.4,850.6c8.2-5.4,16.4-10.7,24.6-16.1c-0.2-0.3-0.3-0.6-0.5-0.9c-8.6,4.4-17.1,9-25.8,13.3
		c-8.8,4.3-17.6,8.6-26.6,12.4c-2.2,0.9-6.4,0.8-7.8-0.7c-4.4-4.5-4-6,1.1-9.8c5.6-4.1,11.3-8.1,16.9-12.2c1.1-0.7,1.9-1.7,2.9-2.5
		c-0.2-0.4-0.4-0.7-0.6-1.1c-5.4,2.6-10.7,5.3-16.2,7.8c-11,5-22,10.1-33.2,14.7c-3.6,1.4-7.8,1.6-11.7,1.8
		c-1.3,0.1-3.4-1.1-3.9-2.2s0.1-3.5,1.1-4.3c6.1-4.9,12.1-9.9,18.6-14.1c13.5-8.5,27.2-16.5,40.8-24.8c0.8-0.5,1.4-1.2,1.6-2.7
		c-5.1,2.5-10.2,5-15.3,7.5c-12.7,6.2-25.3,12.4-38.1,18.3c-3.2,1.5-7,2.7-10.5,2.6c-2.4,0-5.2-2.1-7-4c-0.6-0.7,1.1-4.4,2.6-5.7
		c5-4.3,10.4-8.2,15.6-12.3c1-0.8,2-1.6,2.6-3.2c-3.8,1.3-7.7,2.6-11.5,3.9c-1.7,0.6-3.6,1.8-5.2,1.6c-2.4-0.3-5.1-1.1-6.8-2.7
		c-0.7-0.7,0.4-4.7,1.8-5.8c9.1-7.2,18.4-14.1,27.7-21c3-2.2,6.3-4.2,9-7.2c-5.8,2.7-11.4,5.7-17.3,8.2c-10.5,4.6-21,9-31.7,13.2
		c-4.2,1.6-8.8,2.8-12-2.9c6.5-10.9,17-17.8,26.8-25.7c-17.4,6.4-33.3,16.7-51.9,19.3c-0.5-0.6-1-1.2-1.5-1.8
		c1.4-2.1,2.4-4.8,4.3-6.3c9.7-8,19.6-15.8,29.5-23.6c1.6-1.2,3.1-2.4,5.8-4.4c-5.9,1.7-10.5,3.4-15.2,4c-2.8,0.4-5.8-1-8.7-1.6
		c1.4-2.4,2.2-5.5,4.2-7.2c6.7-5.6,13.8-10.8,20.8-16.1c1-0.7,2-1.5,2.5-3.2c-10.4,5-20.7,10.1-31.2,14.8c-6.9,3.1-14.1,5.7-21.3,8
		c-1.8,0.6-4.3-0.8-6.4-1.3c0.6-2.6,0.3-6.2,2-7.7c7.1-6.4,14.8-12.2,22.3-18.2c1.6-1.2,3.4-2.3,4.5-4.5c-8.3,3.9-16.6,8-25,11.7
		c-3.3,1.4-6.9,2.8-10.4,3.2c-2.3,0.2-6.6-1-6.8-2.1c-0.3-2.6,0.4-6.4,2.2-7.9c6.6-5.5,13.4-10.8,20.7-15.4
		c18-11.4,36.1-22.3,54.2-33.5c0.8-0.5,1.5-1.3,1.7-2.8c-6.4,3.5-12.8,7-19.3,10.4c-17.8,9.2-35.6,18.5-53.6,27.3
		c-5.3,2.6-11.4,3.8-17.1,5.6c-0.5-0.6-0.9-1.3-1.4-1.9c1-1.9,1.6-4.1,3-5.5c8.3-8.5,18.2-14.8,28.7-20.3
		c25.4-13.3,50.8-26.7,75.8-40.7c34.3-19.2,68.3-38.9,102.4-58.5c33.7-19.4,67.2-38.9,100.7-58.5c44-25.6,88-51.3,131.9-77.1
		c48.4-28.4,96.6-56.9,144.9-85.4c50-29.5,100-59,150-88.5c38-22.4,76-44.9,114.1-67.2c43.8-25.6,87.6-51.2,131.5-76.7
		c36.8-21.4,73.5-43.2,110.7-64c38.8-21.8,78.1-42.7,117.2-63.8c4.5-2.5,9.4-4.3,14.2-6.1c1.6-0.6,3.9-1,5.2-0.3
		c6,3.4,7,4.5,1.3,9.5c-6.7,5.8-14,11.1-21,16.6c0.2,0.4,0.5,0.9,0.8,1.3c5.2-2.8,10.4-5.7,15.7-8.4c8.1-4.1,16.4-8.1,24.6-12
		c1.6-0.8,3.6-1.7,5.2-1.5c3.1,0.5,6.1,1.8,9.1,2.7c-1.3,2.5-2,5.6-3.9,7.4c-4.7,4.4-10,8.3-15,12.4c-0.3-0.4-0.5-0.7-0.8-1
		c2.2-1.8,4.4-3.7,6.6-5.5c-0.4-0.6-0.7-1.1-1.1-1.7c-3.8,1.6-7.9,2.8-11.5,4.7c-30,16-60.3,31.5-89.8,48.4
		c-62.7,35.8-124.6,73.4-187.8,108.5c-61.9,34.4-122.4,71.3-182.9,108.1c-56.9,34.5-113.9,68.8-170.8,103.2
		c-0.8,0.5-1.5,1.1-2.3,1.7c0.2,0.4,0.4,0.7,0.6,1.1c2.7-1.3,5.5-2.5,8.2-4c57.4-31.9,115-63.7,172.2-95.9
		c62.6-35.3,125-70.8,188.1-107.1c57.8-33.2,115.4-66.7,173-100.4c23.9-14,47.3-28.9,71.2-42.9c7-4.1,15-6.5,22.4-10.1
		c15.4-7.5,30.5-15.5,45.9-22.9c5.4-2.6,11.3-4.1,17-6.1c0.4,0.6,0.9,1.1,1.4,1.6c-0.7,2-0.8,4.4-2.1,5.9c-4,4.6-7.7,8.7-15,9.7
		c-7.6,1-14.8,5.7-21.9,9.3c-50.5,25.2-99.3,53.5-147.9,82.2c-58.1,34.3-116.2,68.8-174.2,103.3c-52.9,31.5-105.6,63.2-158.4,94.8
		c-17.2,10.3-34.5,20.6-51.7,30.9c-1,0.6-1.8,1.4-2.2,3c4.3-2.4,8.7-4.7,13-7.1c48.9-27.5,97.8-55,146.6-82.5
		c59.2-33.4,118.6-66.6,177.6-100.4c53.2-30.5,106.4-61.1,159-92.7c28-16.8,58.1-28.8,87.1-43.3c2.9-1.4,6.4-2.1,9.6-2.5
		c1.3-0.2,2.9,1.2,4.3,1.9c-0.7,1.2-1.2,2.6-2.2,3.5c-5,4.7-10.2,9.2-15.7,14.1c0-1.2,0-2,0-3.7c-8.2,3.7-16.3,6.8-23.8,10.9
		c-41.8,23-83.5,46-124.9,69.4c-41.2,23.2-82.1,46.8-123,70.6c-36.4,21.2-72.7,42.7-108.9,64.2c-37.8,22.4-75.5,45-113.1,67.7
		c-35.5,21.3-70.9,42.9-106.4,64.4c-6.8,4.1-13.6,8.3-20.4,12.5c0.2,0.4,0.4,0.7,0.6,1.1c8.1-4.6,16.3-9.2,24.4-13.8
		c48.9-27.6,97.7-55.1,146.5-82.7c43.4-24.6,87-49,130.4-73.7c39.4-22.3,78.7-44.7,117.9-67.4c41.9-24.3,83.5-49.1,125.3-73.6
		c7-4.2,13.5-10.3,21-12c11.4-2.5,20.1-9.3,30-14.1c13.6-6.6,26.6-14.2,40-21.2c3.2-1.7,6.7-3.1,10.2-3.8c1.9-0.4,4.6,0.5,6,1.9
		c0.7,0.7-0.2,4.1-1.3,5.4c-3.5,4.2-7.5,7-13.3,8.7c-8.3,2.5-16.2,6.9-23.8,11.2c-56.7,32.2-113.5,64.2-169.9,96.9
		c-57.1,33.1-113.7,67-170.6,100.5c-52.5,30.9-105,61.8-157.4,92.7c-1,0.6-1.9,1.3-2.3,2.9c4-2.2,8.2-4.2,12.2-6.5
		c36.2-20.3,72.3-40.6,108.5-60.9c37-20.7,74.1-41.4,111.1-62.2c45.1-25.4,90.2-50.7,135.1-76.4c35.1-20.1,69.9-40.8,104.7-61.4
		c4.8-2.9,9.1-6.6,13.9-9.6c3.9-2.4,8.1-4.6,12.3-6.5c13.6-6,27.2-12.1,41-17.8c3.3-1.4,7.1-1.9,10.7-2.1c4.3-0.3,5.3,1.6,2.8,5
		c-4.1,5.5-9.3,9.2-15.9,12.2c-22,10.1-43.7,20.8-64.9,32.5c-47.3,26.2-94.3,52.9-141.1,79.9c-40,23.1-79.6,46.6-119.3,70.1
		c-43.1,25.5-86.2,51.1-129.2,76.8c-37.5,22.4-74.9,44.9-112.3,67.3c-39.3,23.4-78.6,46.9-117.9,70.3c-4.6,2.7-9.2,5.5-13.2,9.2
		c6.1-3.4,12.3-6.8,18.4-10.2c51-28.8,102.1-57.4,153-86.3c40.8-23.2,81.5-46.6,122.2-70c41.2-23.6,82.3-47.2,123.4-70.9
		c35.2-20.3,70.3-40.7,105.5-61.1c40.9-23.7,81.8-47.4,122.8-70.9c23.6-13.6,47.1-27.3,71.1-40c13.8-7.3,28.5-12.7,42.8-18.8
		c1.9-0.8,4.3-1.2,6.3-0.7c6.4,1.5,7.4,5.2,3.2,10.5c-3.2,4-6.5,8-9.7,12c2-0.9,4-1.9,6.1-2.7c3.2-1.2,6.5-2.6,9.9-2.9
		c2.3-0.1,5.9,1,6.7,2.6c0.9,1.7,0,5.6-1.5,7c-6.1,5.5-12.6,10.8-19.4,15.4c-11,7.4-22.4,14.2-33.6,21.3c-0.9,0.6-1.8,1.4-2.2,2.8
		c7.2-3.4,14.3-7.1,21.7-10.3c8.4-3.6,16.9-6.9,25.5-9.9c2.1-0.7,4.7,0,7.1,0.1c-0.6,2.5-0.3,6-1.8,7.3c-5.5,4.8-11.7,8.9-17.6,13.3
		c-2.3,1.8-4.7,3.5-7,5.3c2.4-0.5,5.1-0.6,7.4-1.5c11.8-4.4,23.4-9.2,35.3-13.4c1.7-0.6,5.1,0.5,6.2,2c0.8,1.1-0.1,4.6-1.4,6
		c-8,8.7-18.2,14.5-28.6,19.8c5.8-4.2,11.6-8.5,17.4-12.7c-0.2-0.5-0.5-1-0.7-1.5c-5.1,1.8-10.5,3.1-15.3,5.5
		c-28.1,14-56.3,27.7-83.8,42.7c-40,21.9-79.5,44.6-119,67.5c-37.8,22-75.4,44.5-113.1,66.8c-55.2,32.8-110.4,65.5-165.6,98.3
		c-44.7,26.6-89.5,53.2-134.3,79.8c-46.2,27.4-92.5,54.8-138.7,82.2c-7.7,4.5-15.3,9.2-22.9,13.8c0.2,0.4,0.4,0.8,0.6,1.2
		c4.2-2.3,8.5-4.5,12.7-6.9c61.3-34.5,122.6-69,183.9-103.4c59.8-33.5,119.6-66.7,179.3-100.4c48.1-27.2,96-54.7,143.9-82.2
		c51.2-29.4,102.2-59.1,153.3-88.7c8.8-5.1,17.4-10.4,26.2-15.4c2.2-1.2,5-1.1,7.3-2.1c5.2-2.2,10.3-4.5,15.2-7.2
		c29.7-16.1,59.3-32.5,89.1-48.5c5.9-3.2,12.4-5.6,18.8-7.8c1.8-0.6,5.9,0.1,6,0.7c0.4,2.6,0.7,6.2-0.8,7.8
		c-5,5.5-10.7,10.4-16.1,15.5c-1.3,1.2-2.7,2.3-3.5,4.5c3.6-1.8,7.3-3.6,10.9-5.5c3.3-1.7,6.9-3.1,9.5,0.3c2.5,3.2,0.9,6.8-1.9,9.3
		c-3.5,3.2-7.3,6.1-11,9.2c0.5,0.7,1.1,1.3,1.7,2c5.8-3,11.5-6.3,17.4-9c7.6-3.5,15.3-6.5,22.9-9.8c4.5-2,8.2-0.1,9.9,3.7
		c0.8,1.8-0.8,6-2.6,7.5c-9.1,7.4-18.6,14.4-28.2,21.2c-7.4,5.3-15.2,10.1-22.8,15.1c-0.9,0.6-1.6,1.4-2.1,2.5
		c11.7-5.4,23.3-10.8,35.1-16c3.3-1.5,6.8-2.6,10.4-3.3c1.7-0.3,3.7,0.5,5.5,0.8c-0.4,2.3,0,5.4-1.4,6.8c-3.3,3.4-7.2,6.4-11.1,9.1
		c-12.9,9-26,17.9-39,26.8c-1,0.8-2.1,1.5-3.1,2.3c0.2,0.4,0.4,0.7,0.6,1.1c3-1.5,6-3.2,9.1-4.5c11.2-4.8,22.5-9.5,33.8-14.2
		c0.6-0.2,1.3-0.5,1.9-0.4c2.2,0.3,4.3,0.8,6.5,1.2c-0.8,2-1.1,4.7-2.6,6c-5.7,5.1-11.6,9.8-17.5,14.7c-0.9,0.7-1.9,1.5-2.2,3.2
		c7-3.6,14-7.2,21.2-10.5c5-2.3,10-4.6,15.3-5.8c2.5-0.6,6.7,0.5,8.2,2.4c2.2,2.7-0.7,5.6-3.1,7.4c-5.3,3.9-10.8,7.6-15.7,12.2
		c5.7-2.3,11.4-4.8,17.2-6.9c4.7-1.6,9.5-3.1,14.3-4.2c2.1-0.5,4.5,0.1,6.7,0.2c-0.3,2.5,0.2,5.9-1.2,7.4
		c-5,5.5-10.5,10.6-16.2,15.3c-4.4,3.7-9.6,6.5-14.2,10.1c8-2.5,15.9-5.2,24-7.3c2.5-0.7,5.3,0.2,8,0.4c-1.1,2.8-1.4,6.6-3.5,8.2
		c-8.5,6.6-17.5,12.6-26.4,18.7c-4.1,2.8-8.3,5.5-11.9,9.2c4.7-2.4,9.3-5,14-7.3c10.3-4.9,20.7-9.7,31.1-14.5
		c1.1-0.5,2.7-1.2,3.8-0.8c2.4,0.8,4.5,2.2,6.8,3.4c-1.1,1.7-1.8,3.8-3.3,5c-8.6,7.2-17.5,14.2-26,21.9c6.8-3.1,13.5-6.4,20.4-9.2
		s13.9-5.2,21-7.4c1.4-0.4,4.5,0.4,4.7,1.2c0.5,2.1,0.6,5-0.6,6.5c-3,3.8-6.5,7.1-10.2,10.2c-7,5.8-14.3,11.3-21.1,17.6
		c4.4-2,8.7-4,13.1-5.9c1.2-0.6,2.6-1.4,3.7-1.2c2.3,0.4,5.5,0.9,6.4,2.4s0,5.3-1.5,6.5c-8.3,6.9-16.5,13.9-25.6,19.6
		c-21.6,13.4-43.6,26-65.4,39c-1.2,0.7-2.3,1.5-2.9,3.3c7.2-3.5,14.4-6.9,21.6-10.6c19.5-9.9,39-20.1,58.5-29.9
		c2.8-1.4,6.1-1.7,9.4-2.6c1.3,4.8,1,8.1-2.3,10.8c-5.7,4.6-11.3,9.2-16.9,13.9c-0.9,0.7-1.6,1.5-2.3,2.1c8-2.8,15.9-5.9,24-8.5
		c6.6-2.1,7.2-1.7,13.1,4.2c-9.8,7.6-19.6,15.3-29.4,22.9c0.1,0.2,0.2,0.3,0.3,0.5c5.8-2.3,11.6-4.7,17.5-6.8c2.8-1,5.8-1.7,8.7-2
		c1.6-0.2,4.5,0.5,4.7,1.3c0.5,1.9,0.4,4.7-0.7,6c-3.6,3.9-7.6,7.5-11.7,10.8c-7.3,5.9-14.9,11.5-22.2,17.5
		c17.6-8,35.1-16,52.2-23.8C1681.7,382.5,1682.3,384.1,1676.1,388.6z M267.7,920.6c8.6-5.7,17.3-11.4,26-17c1-0.7,2.6-0.4,3.9-0.4
		c-8.5,5.3-16.9,10.6-25.4,15.9C270.9,919.9,269.5,920.7,267.7,920.6z"/>
	<path class="st1" d="M1039.8,822.3c-0.6,0.6-1.1,1.3-1.6,2C1038.8,823.7,1039.2,822.9,1039.8,822.3z"/>
	<polygon class="st1" points="561,206.3 561,206.3 561,206.3 	"/>
	<path class="st1" d="M473.9,257.5c0.4-0.1,0.9-0.1,1.3-0.1C474.7,257.4,474.3,257.4,473.9,257.5z"/>
	<path class="st1" d="M1042.7,801.2c-6.2,3.2-12.5,6.5-18.9,9.9C1030.1,807.8,1036.4,804.5,1042.7,801.2z"/>
	<path class="st1" d="M378.1,359.4L378.1,359.4c-0.1-0.1-0.1,0-0.1,0L378.1,359.4C378,359.4,378,359.4,378.1,359.4z"/>
</g>
</svg>
