<?xml version="1.0" encoding="utf-8"?>
<!-- Generator: Adobe Illustrator 19.2.1, SVG Export Plug-In . SVG Version: 6.00 Build 0)  -->
<svg version="1.1" id="Layer_1" xmlns="http://www.w3.org/2000/svg" xmlns:xlink="http://www.w3.org/1999/xlink" x="0px" y="0px"
	 viewBox="0 0 1732.2 983.6" style="enable-background:new 0 0 1732.2 983.6;" xml:space="preserve">
<style type="text/css">
	.st0{opacity:0.8;}
	.st1{fill:#FFFFFF;}
</style>
<g class="st0">
	<path class="st1" d="M760.6,492.4c-1.3-3.2-2.6-5.5-3.1-8c-0.6-2.7-1.5-4.3-4.6-3.5c-2.8,0.7-4.3,2.4-3.4,5.4
		c0.7,2.4,1.3,4.8,2.6,6.9c1.1,1.7,3,2.8,4.6,4.2C758,495.7,759.3,494,760.6,492.4z"/>
	<path class="st1" d="M754.4,467.8c-0.1-2,0-4,0-6c-0.1-5.6-1.4-6.6-8.2-5.6c0,3.8,0,7.7,0,11.6c0,2.6,0.4,4.4,3.8,4.4
		C753.2,472.2,754.6,471,754.4,467.8z"/>
	<path class="st1" d="M751,420.6c1-2,0.7-4.5,1.3-6.8c1.6-5.8,1.4-6.1-4.8-5.9c-1.4,3.8-3.1,7.1-3.6,10.5c-0.3,1.6,1.7,3.6,2.6,5.4
		C748.1,422.7,750.3,422,751,420.6z"/>
	<path class="st1" d="M751.6,438.5c0-3.4,0.7-8-4.2-8c-5.3,0-3.6,4.8-4,7.4c0,4-0.9,8.6,4.1,8.6
		C752.4,446.5,751.7,441.9,751.6,438.5z"/>
	<path class="st1" d="M765.2,516.1c-0.8-4.2-2.6-8.2-4.3-13c-2.2,1.8-3.5,2.9-4.4,3.6c0.3,3.6,0.1,6.7,0.9,9.7
		c0.4,1.4,2.6,3.6,3.5,3.3C762.6,519.2,765.4,517.1,765.2,516.1z"/>
	<path class="st1" d="M770.4,529.4c-0.8-1-3-1.3-4.4-1c-1.1,0.2-2.6,1.5-2.9,2.6c-1.3,4.2,2.5,11.9,6.6,14.2
		C774.4,539.9,774.7,534.9,770.4,529.4z"/>
	<path class="st1" d="M796.8,598.7c-3.9-0.1-6.4,2.5-4.9,5.3c1.3,2.4,2.9,4.8,4.7,6.8c2.9,3.2,6,2.4,7.3-1.7
		C805.2,605.3,800.7,598.8,796.8,598.7z"/>
	<path class="st1" d="M809.5,618.6c-7.2,3.5-7.2,3.5-3.7,9.6c0.9,1.6,1,3.9,2.3,4.8c1.7,1.3,4.1,1.5,6.2,2.2c0.5-1.7,2-3.8,1.4-5.1
		C814.1,626.1,811.7,622.4,809.5,618.6z"/>
	<path class="st1" d="M828.9,653.4c-1.2-3.2-2.5-6.4-4.4-9.2c-1-1.6-3.1-2.5-5.7-4.4c-1.1,2.1-2.3,3.3-2.5,4.7
		c-0.6,4,4.6,11.5,8.6,12.8C827.1,658,829.8,655.6,828.9,653.4z"/>
	<path class="st1" d="M788,576.5c-0.1-1.1-2.5-2.2-5.1-4.3c-1.3,3.1-3.6,5.8-3,7.6c1.3,3.6,3.8,6.8,6.4,9.7c0.7,0.8,4.4,0.4,5-0.5
		C794.5,584,788.3,581,788,576.5z"/>
	<path class="st1" d="M782.3,565.5c1-5-1.7-8.8-5.3-11.4c-1.5-1-4.4-0.1-7.3-0.1c1.9,4.5,3,7.9,4.8,10.7c0.9,1.4,3,2.3,4.8,2.7
		C780.1,567.6,782.1,566.4,782.3,565.5z"/>
	<path class="st1" d="M749.7,398.7c1.1,0.1,3.1-0.8,3.6-1.9c1.5-3.1,2.8-6.4,3.5-9.8c0.2-1.2-1.3-3.5-2.5-4.1
		c-1.3-0.6-4.1-0.4-4.7,0.6c-1.8,2.4-2.8,5.4-3.6,7.1c0.3,2.8,0.1,4.3,0.7,5.4C747.3,397.2,748.6,398.6,749.7,398.7z"/>
	<path class="st1" d="M827.3,256.1c0.2-0.2-1.2-2.6-2.2-3c-3.9-1.4-11.4,4.1-11.6,9.9c0.8,0.8,3.7,3.6,3.9,3.5
		C820.9,263.3,824.2,259.8,827.3,256.1z"/>
	<path class="st1" d="M833.8,248.2c3.5-2.9,7-5.4,10-8.4c0.4-0.4-0.9-3.2-1.9-4.4c-0.7-0.8-2.7-1.6-3.6-1.2
		c-2.3,1.1-4.8,2.5-6.4,4.4c-1.5,1.7-2.2,4.3-2.5,6.6C829.2,245.8,831.7,246.9,833.8,248.2z"/>
	<path class="st1" d="M897.3,208.2c3.3-1.3,6-1.9,8.1-3.4c1.5-1.2,2.2-3.5,3.2-5.3c-1.9-0.9-3.9-2.7-5.8-2.6
		c-2.3,0.1-4.8,1.3-6.8,2.7c-1.5,1.1-3.6,3.6-3.2,4.7C893.3,206,895.8,207,897.3,208.2z"/>
	<path class="st1" d="M854.7,231.7c3-2.1,6-3.7,8.2-6.1c1-1.1,0.9-3.8,0.4-5.5c-0.2-0.8-3.2-1.5-4.2-1c-2.6,1.4-5.1,3.3-7.3,5.3
		c-1,0.9-1.7,2.9-1.4,4.1S852.6,230.3,854.7,231.7z"/>
	<path class="st1" d="M801.4,285.9c4.6-2.9,7-7.5,9.1-12.4c-7.6-1.6-14.4,3.4-13.8,9.8C797,286.6,799,287.4,801.4,285.9z"/>
	<path class="st1" d="M759.1,373.2c5.1-2.4,5.2-11.4-1.4-15.5c-1.5,4.1-2.8,7.6-3.9,11.2c-0.3,1.1-0.3,3.4,0.2,3.6
		C755.5,373.2,757.7,373.8,759.1,373.2z"/>
	<path class="st1" d="M784.7,305.7c2-0.1,4.5-0.9,5.9-2.2c2-2,3.2-4.8,4.9-7.2c1.9-2.7,0.9-5.2-1.5-6.1c-1.4-0.6-4,0.7-5.5,1.9
		c-1.6,1.2-2.5,3.3-3.7,5.1c-1,1.1-2,2.5-3.2,4.3C782.9,303.3,783.8,305.7,784.7,305.7z"/>
	<path class="st1" d="M767.5,349.1c2.4-2.6,4.3-5.9,6.3-8.9c-5-6-7.3-5.8-10.6,0.5c-0.6,1.2-1.6,2.3-1.7,3.6c-0.1,2,0.5,4,0.8,6
		C764.1,350,766.5,350.2,767.5,349.1z"/>
	<path class="st1" d="M779.3,326.1c1.5-3.1,2.5-6.4,3.9-9.5c1.9-4.1-0.3-4.7-4.4-5.6c-1.8,1.8-4.4,3.4-5.3,5.6
		c-1.1,3-1.9,6.7-1.1,9.7C773.2,329.6,777.8,329.3,779.3,326.1z"/>
	<path class="st1" d="M969.9,180.2c-1.1,1-1.4,3.2-1.3,4.8c0.1,1.1,1.4,2.5,2.4,2.9c1.3,0.6,2.9,0.2,4.4,0.2c0,0.1,0,0.1,0,0.2
		c1.5-0.1,3.1,0.1,4.5-0.3c1.5-0.5,2.8-1.5,4.2-2.3c-0.7-1.2-1.3-2.5-2.3-3.5C979.9,180.1,971.8,178.5,969.9,180.2z"/>
	<path class="st1" d="M1101.3,204.1c-1.8-1.1-4-1.9-6.1-2c-1.6-0.1-3.8,0.8-4.8,2c-0.8,1-0.8,3.9,0,4.5c2.6,2,5.6,3.3,9,5.2
		c2.2-1.9,4.3-3.6,6.4-5.3C1104.3,207,1103.1,205.2,1101.3,204.1z"/>
	<path class="st1" d="M1126.5,216.2c-2.3-1.4-4.9-2.9-7.5-3.4c-1.7-0.3-3.9,0.9-5.5,2c-0.4,0.3,0.4,3.3,1.4,4.2
		c2.1,2,4.5,3.8,7.1,5.1c3.1,1.7,6.3-0.6,6.5-5.1C1128.1,218.4,1127.6,216.9,1126.5,216.2z"/>
	<path class="st1" d="M1080.4,196.6c-3.6-1.9-7.6-3.3-11.8-5c-2.3,4-3,7,1.6,8.5c2.8,0.9,5.6,1.7,8.4,2c1.3,0.1,2.8-1,4.2-1.5
		C1082,199.2,1081.5,197.3,1080.4,196.6z"/>
	<path class="st1" d="M1025.3,182.6c-2,0.1-4.3-0.4-5.8,0.5c-1.4,0.8-2.9,3.3-2.6,4.7c0.2,1.2,2.8,2.9,4.3,2.9
		c3.8,0.1,7.6-0.7,11.4-1.2c0.2,0,0.2-0.9,0.3-1.4C1033.6,183.4,1032.7,182.7,1025.3,182.6z"/>
	<path class="st1" d="M1000.2,179.9c-1.8,0-3.8-0.5-5.4,0.1c-1.5,0.7-3.6,2.5-3.6,3.8c-0.1,3.7,3.2,4.6,5.9,4.2
		c3.5-0.5,8.8,3.1,10.3-3.1C1008.5,180.5,1007.3,179.8,1000.2,179.9z"/>
	<path class="st1" d="M1053.4,188.3c-1.7-1.1-3.8-2-5.8-2.2c-1.7-0.2-4.2,0.2-5.1,1.4c-0.7,1-0.2,4.2,0.9,4.9c2.7,2,6,3.1,9.8,4.9
		c1.7-1.5,3.3-2.9,4.9-4.3C1056.6,191.4,1055.2,189.5,1053.4,188.3z"/>
	<path class="st1" d="M1177.8,254.6c-2.8,2.5-0.5,4.6,1.3,6.2c1.5,1.4,3.5,2.4,5.3,3.5c1.4,0.9,3,2.4,4.2,2.2c1-0.3,1.7-2.6,2.9-4.6
		c-2.2-2.7-4-5.1-6-7.4C1182.9,251.6,1180.2,252.4,1177.8,254.6z"/>
	<path class="st1" d="M1147.3,229.2c-0.5-0.4-1.1-0.8-1.5-1.3c-3.2-4.2-7.2-3.5-11.8-2.5c0.6,1.3,0.7,2.4,1.4,3
		c3.6,3.4,7.3,6.6,11.1,10C1152.8,233.8,1152.8,233.7,1147.3,229.2z"/>
	<path class="st1" d="M-18.2-10.1V1005h1764.8V-10.1H-18.2z M1725.4,610.6c-11.5,62.5-44.2,111.6-92.5,151.4
		c-48.4,39.9-101.2,72.9-156.9,101.3c-40.4,20.6-81.9,38.5-124.5,54.1c-39,14.3-78.8,26.2-118.9,36.8c-21.4,5.6-42.7,11.6-64.1,17
		c-17.7,4.5-35.6,8.4-53.4,12.4c-1.6,0.4-4-0.4-5.3-1.5c-47.6-40.7-93-83.6-134.7-130.3c-9.3-10.4-18.2-21.1-27.3-31.6
		c-0.9-0.6-1.4-1-2-1.3c-21.6,22.8-42.5,45.4-64,67.5c-33.1,34-67.9,66.3-105.2,95.6c-1.5,1.2-4,1.9-5.8,1.5
		c-20.6-4.4-41.3-8.8-61.8-13.8c-32.9-8.1-65.8-16.4-98.5-25c-19.6-5.1-39.1-10.5-58.5-16.6c-29.1-9.1-58.3-18.3-87-28.6
		c-26.7-9.6-53.2-19.8-79.2-31.2c-35.5-15.7-70.6-32.1-105.2-49.6c-41.7-21-81-46.1-118.7-73.6c-25.6-18.7-50.6-38.2-72.6-61.2
		c-26-27.3-47.8-57.5-61.1-93c-6.8-18.1-11.7-37-16.4-55.8c-3.6-14.3-6.2-29-8.2-43.6C0,464.4-1.2,437.1,2,409.8
		c2.9-24.8,8.5-48.7,17.9-71.8c12.9-31.6,31.7-59.3,55.8-83.4c36.6-36.6,79.4-63.4,128-81.2c33.4-12.2,67.8-19,103.3-20.8
		c32.8-1.7,65.2,0.4,97.5,5.9c28.8,4.8,57,11.5,84.6,21c21.5,7.4,42.7,15.7,63.9,23.7c3.5,1.3,5.5,1,7.9-2.2
		c36.2-48.1,76.9-91.8,125.8-127.4c32.3-23.5,67-42.5,105-55.2c50-16.7,101.2-22.1,153.7-16c32.6,3.8,64.2,11.2,94.1,24.7
		c37.1,16.7,68.4,41.1,94.1,72.7c27.5,33.8,46.8,72,60.5,113.1c4.7,14,9.3,28,13.6,42.2c1.5,5.2,1.6,10.8,2.7,16.2
		c0.5,2.3,1.3,5,2.9,6.4c24.3,21.1,45.7,44.8,65,70.5c1.8,2.5,3.4,2.7,6.2,1.4c30.2-13.1,61.3-23.8,93.4-31.4
		c33-7.8,66.5-12,100.5-10.8c64.2,2.2,121.5,23,171.7,63.3c24,19.2,43.9,41.9,58.3,69.2c12.4,23.5,19.8,48.4,22.7,74.9
		C1734.7,547.1,1731.3,578.8,1725.4,610.6z"/>
	<path class="st1" d="M835.4,661.9c-0.3-0.5-1.8-0.6-2.5-0.3c-1.8,0.8-3.4,2-5.5,3.2c2.5,3.9,4.4,7.5,6.9,10.8
		c0.8,1.1,3.7,2,4.5,1.4c1.3-1,2.8-3.6,2.3-4.8C839.7,668.6,837.5,665.3,835.4,661.9z"/>
	<path class="st1" d="M1161.9,237.4c-0.9-0.7-2.9-1.3-3.5-0.8c-1,0.8-1.6,2.4-1.7,3.7c-0.2,3,7.6,9.7,12.1,9.7
		c0.6-0.3,2.7-0.8,3.2-1.9c0.4-0.9-0.7-3-1.7-4C1167.7,241.7,1164.8,239.5,1161.9,237.4z"/>
	<path class="st1" d="M866.7,720.1c1-1.5,2.4-2.8,2.8-4.3c1.8-6.2-5.1-7.9-6.4-12.9C856.1,706.8,857.2,711.4,866.7,720.1z"/>
	<path class="st1" d="M877.8,724.5c-3.8-1.4-5.2-0.4-5.2,5.5c1.4,1.7,3.7,4.4,5.7,7.4c2.1,3.1,3.8,2.5,5.6-0.1
		C886.5,733.3,883.2,726.5,877.8,724.5z"/>
	<path class="st1" d="M951.4,183c-2.3,0-4.8,1.3-6.9,2.6c-1.7,1-2.8,2.9-4.1,4.4c1.6,1.5,3.2,2.9,4.6,4.1c3.4-1.2,5.9-2.5,8.4-3
		c3.1-0.6,4.3-2.5,3-4.9C955.6,184.6,953.1,183,951.4,183z"/>
	<path class="st1" d="M851,686.7c-3.8-4.9-5.2-4.8-7.7,0.3c1.2,2.9,1.8,5.7,3.4,8c1.3,1.9,3.5,3.3,5.6,4.5c0.4,0.2,2.9-1.7,3-2.6
		c0.1-2.3-0.5-4.7-1.3-6.9C853.5,688.7,851.9,687.9,851,686.7z"/>
	<path class="st1" d="M879,207c-3.3,0.9-6.1,3.1-10.9,5.7c3.9,2.5,6.5,5.3,9.4,5.7c1.9,0.3,4.7-2.4,6.4-4.4c1.2-1.4,1.4-3.7,2-5.6
		C883.6,207.9,881,206.4,879,207z"/>
	<path class="st1" d="M922.7,781c-1.6,1.7-2.3,2.7-3.2,3.3c-3.1,2.2-2.4,4.7-0.5,7.1c2.5,3.2,5.6,5.4,9.8,3.4
		c0.8-0.4,1.6-2.7,1.2-3.4C927.9,787.9,925.3,784.6,922.7,781z"/>
	<path class="st1" d="M923.1,189.7c-2.5,1-4.6,2.9-6.9,4.4c2.6,1.1,5.3,2.2,8,3.3c0.1-0.3,0.3-0.7,0.4-1c1.5,0,3,0.1,4.5,0
		c4.2-0.4,4.9-1.8,2.9-5.5C929.6,186.2,926,188.6,923.1,189.7z"/>
	<path class="st1" d="M905.4,762c-2.3-0.4-4.7,2.3-4.3,4.7c1,5.8,6.7,9.7,13.1,8.6C914.8,770.6,909.4,762.8,905.4,762z"/>
	<path class="st1" d="M891.8,741.8c-3.1,2.9-6.5,4.5-4.7,8.8c1.6,3.9,7.1,6.7,11.1,5.3c1-0.3,2.2-2.7,1.9-3.1
		C897.6,749,894.8,745.5,891.8,741.8z"/>
</g>
</svg>
