<?xml version="1.0" encoding="utf-8"?>
<!-- Generator: Adobe Illustrator 19.2.1, SVG Export Plug-In . SVG Version: 6.00 Build 0)  -->
<svg version="1.1" id="Layer_1" xmlns="http://www.w3.org/2000/svg" xmlns:xlink="http://www.w3.org/1999/xlink" x="0px" y="0px"
	 viewBox="0 0 980 863.9" style="enable-background:new 0 0 980 863.9;" xml:space="preserve">
<style type="text/css">
	.st0{opacity:0.8;fill:#FFFFFF;}
</style>
<path class="st0" d="M-19.8-13.4v898.3H995.5V-13.4H-19.8z M961.5,423.9c-20.4,61.8-58.3,119.9-116.3,177.7
	c-53.3,53.1-107.4,94.1-213.2,161.5c-70.1,44.6-92.1,60-117.3,81.6c-12.5,10.5-23.2,18.6-23.8,18c-0.6-0.8-1.2-0.2-1.2,1
	c0,1.4-11.9-7.5-26.7-19.8c-25.8-21.8-54.7-41.8-111.7-77.7C245.5,699.6,179.1,648.7,125,593C59.6,525.7,22,459.1,4.6,379.3
	c-4-18.4-4.4-26.9-4.6-67.4c0-40.6,0.6-49.3,4.6-69.5C30.1,116.8,111.5,30,226.3,6.2c11.1-2.2,23.2-4.4,27.1-5
	c3.8-0.4,23.4-0.6,43.4-0.2c39.4,0.8,59,3.8,88.8,14.1C417.4,26,491.4,57.4,490,63.7C486.4,79.5,457.4,254,457.4,254l154-31.9
	c0.2,0.2-13.8,117.5-13.8,117.5l156.7-30l-42,161.5L797,286.7c0,0-151.3,0.3-151.8,0c-0.4-0.2,32.6-112.1,32.2-112.5
	c-0.5-0.3-192.6,42.2-192.6,42.2l36.1-164.2l12.1-8.1c15.2-10.1,44.2-24.2,62-29.9C635.2,1.1,690.8-3.5,733.6,2.8
	c144.2,21.2,240.3,136.9,246.1,296C981.3,345.2,976.5,378.7,961.5,423.9z"/>
</svg>
