<?xml version="1.0" encoding="utf-8"?>
<!-- Generator: Adobe Illustrator 19.2.1, SVG Export Plug-In . SVG Version: 6.00 Build 0)  -->
<svg version="1.1" id="Layer_1" xmlns="http://www.w3.org/2000/svg" xmlns:xlink="http://www.w3.org/1999/xlink" x="0px" y="0px"
	 viewBox="0 0 980 896.5" style="enable-background:new 0 0 980 896.5;" xml:space="preserve">
<style type="text/css">
	.st0{opacity:0.8;fill:#FFFFFF;}
</style>
<path class="st0" d="M-24.9-35.8v956h1036.3v-956H-24.9z M975.8,343.2c-8.5,39.8-22.1,72-44.8,106.5c-11.9,18-41,47.9-226.7,234.1
	c-117,117.3-214,212.9-215.2,212.7c-4.7-1.3-419.5-422.7-430.1-436.9c-41.9-56.5-61.9-120-58.8-187.3c2-43.4,10.8-78.3,29.7-115.9
	C68.8,79.5,140.1,25.2,227,6.5c26.6-5.6,83.5-5.9,110.3-0.2c52,11,99.3,34.4,136.2,67.5L486.9,86l13.3-11.9
	c43-39.2,102.9-66.2,160.9-72.9c21.6-2.5,63.2-0.7,85.5,3.4c114.6,21.8,203.7,110.1,228.9,226.2
	C981.4,257.3,981.4,316.5,975.8,343.2z"/>
</svg>
