<?xml version="1.0" encoding="utf-8"?>
<!-- Generator: Adobe Illustrator 19.2.1, SVG Export Plug-In . SVG Version: 6.00 Build 0)  -->
<svg version="1.1" id="Layer_1" xmlns="http://www.w3.org/2000/svg" xmlns:xlink="http://www.w3.org/1999/xlink" x="0px" y="0px"
	 viewBox="0 0 1201 901" style="enable-background:new 0 0 1201 901;" xml:space="preserve">
<style type="text/css">
	.st0{opacity:0.8;fill:#FFFFFF;}
</style>
<path class="st0" d="M-11.5-15.8v929.3h1227.5V-15.8H-11.5z M1200.5,327.5c-0.3,1.4-0.7,2.9-0.8,4.3c-2.9,39.8-15.1,76.9-33.7,112
	c-23.6,44.5-55,83.3-88.2,120.8c-51.6,58.4-110.5,108.9-172.4,156.1c-62.7,47.8-130.1,88-198.5,126.8c-32.4,18.4-65.6,35.4-98.4,53
	c-1.7,0-3.3,0-5,0c-1.2-0.8-2.3-1.7-3.6-2.4c-48.5-26.2-97.5-51.4-145.3-78.7c-97.9-55.7-189.2-120.8-272.1-197.2
	C134.4,577.9,90.8,529.6,54,475.4c-24.7-36.5-42.7-76-50-119.8c-1.4-8.3-2.4-16.7-3.5-25.1c0-11,0-22,0-33c0.3-1.5,0.7-2.9,0.9-4.4
	c1.7-16,2.6-32.2,5.2-48.1c11.2-70.4,42.6-129.9,97.1-176.4C153.5,26,212.4,6.4,277,2.7c54.5-3.1,107.7,5,159.3,22.3
	c57.6,19.3,109.3,49.5,157.4,86.2c6.8,5.2,6.8,5.2,13.6,0c26.3-20.2,54.1-38.3,83.3-54.1C743.4,28.4,799.4,9.8,859.3,3.2
	c8.4-0.9,16.8-1.8,25.2-2.7c13.3,0,26.7,0,40,0c1.8,0.3,3.5,0.8,5.3,0.9c37,2.6,72.9,10.5,106.3,27
	c97.1,47.9,148.6,127.6,161.4,233.9c1.2,10.4,2,20.8,3,31.2C1200.5,304.8,1200.5,316.2,1200.5,327.5z"/>
</svg>
