<?xml version="1.0" encoding="utf-8"?>
<!-- Generator: Adobe Illustrator 19.2.1, SVG Export Plug-In . SVG Version: 6.00 Build 0)  -->
<svg version="1.1" id="Layer_1" xmlns="http://www.w3.org/2000/svg" xmlns:xlink="http://www.w3.org/1999/xlink" x="0px" y="0px"
	 viewBox="0 0 1727.8 1727.5" style="enable-background:new 0 0 1727.8 1727.5;" xml:space="preserve">
<style type="text/css">
	.st0{opacity:0.8;fill:#FFFFFF;}
</style>
<path class="st0" d="M-18-16.4v1760.2h1760.2V-16.4H-18z M105.6,450.4c22.2-43.1,48.5-83.6,80.3-120.2
	c16.6-19.1,35.3-36.5,53.1-54.6c27.9-28.5,55.3-57.4,83.8-85.1c11.1-10.7,24.4-19.4,37.2-28.2c33.6-23,68.7-43.5,104.3-63.1
	c0.4-0.2,1-0.3,1.7-0.5c-122.7,122.7-245.3,245.2-368.1,368C100.4,461.3,102.8,455.8,105.6,450.4z M57.5,555
	c6.5-16.2,12.7-32.5,20.6-47.9c3.6-7.1,10.6-12.6,16.4-18.4c59.4-59.4,118.9-118.9,178.3-178.3c51.5-51.5,102.9-103,154.4-154.5
	c24.4-24.5,48.7-49.1,73.6-73.1c6.1-5.8,14.2-9.7,21.8-13.5c19.5-9.7,39.9-17.2,61-22.7c0.7-0.2,1.6-0.2,2.2-0.2
	C406.1,226.1,226.5,405.6,46.9,585.2C50.4,575.2,53.5,564.9,57.5,555z M26.1,652.9c3.1-12.2,6.6-24.3,10.2-36.4
	c0.7-2.4,2.6-4.7,4.4-6.5c72.1-72.2,144.2-144.4,216.4-216.5c117.5-117.5,235-235,352.6-352.4c2.6-2.7,6.4-4.9,10-5.9
	c18.1-5,36.3-9.5,54.5-14.1c1.5-0.4,3.2-0.2,4.4-0.3c-219.2,219.1-438.4,438.3-658,658C22.4,669.9,23.9,661.3,26.1,652.9z
	 M13.8,709.4c0.5-3.6,2.6-7.6,5.2-10.2c66.7-67,133.5-133.8,200.4-200.6c86.6-86.6,173.3-173.1,260-259.7
	c73.4-73.4,146.7-146.8,219.9-220.4c4.8-4.8,10.6-5.4,16.3-6.2c14.9-2.1,30-3.7,46.4-5.6C510.1,259.6,258.9,511.7,7.7,763.8
	c-0.3-0.2-0.7-0.4-1-0.6C9,745.3,11.1,727.3,13.8,709.4z M1.8,809.9C2.3,802.6,3,795.3,3,788c0-4.3,1.5-7.1,4.4-10
	c39.2-39,78.3-78.1,117.3-117.1C315.2,470.3,505.8,279.8,696.3,89.3c27.4-27.5,54.8-54.9,82.2-82.4c2.8-2.8,5.6-3.9,9.6-4.1
	c12.8-0.5,25.6-1.6,38.4-2.4c2.5-0.2,4.9,0,6.7-0.1C555.6,277.9,278,555.5,0.2,833.3C0.7,825.7,1.3,817.8,1.8,809.9z M0.5,903.7
	c0-1.7,0-3.3,0-4.9c0-8.2-0.1-16.3,0-24.5c0-7.3-1.6-15.4,1-21.7c2.5-6.1,9.3-10.5,14.3-15.5c76.9-76.9,153.8-153.7,230.6-230.6
	c65.5-65.4,131-130.7,196.4-196.1c65.5-65.5,131-131.2,196.5-196.7c62.5-62.5,125.1-124.9,187.6-187.4c7.5-7.5,14.9-15,22.3-22.6
	c2.5-2.5,5.1-3.8,8.8-3.7c12.8,0.2,25.7,0.1,38.5,0.1c1.6,0,3.2,0.1,4.8,0.2c0.3,0.4,0.6,0.9,1,1.3c-300.1,301-600.1,602-900.2,903
	C1.5,904.3,1,904,0.5,903.7z M3.3,926.2c-0.4-4.1,0.9-7.1,3.9-10.1C66.4,857,125.5,797.9,184.6,738.8
	c130.5-130.6,261.1-261.1,391.7-391.7C689.7,233.7,803.1,120.3,916.4,6.8c2.8-2.8,5.5-4.3,9.6-3.9c13.4,1.3,26.8,2.3,39,3.3
	C645.8,325.5,325.9,645.3,6.7,964.5C5.6,952.7,4.6,939.4,3.3,926.2z M10.6,1003.8C7.8,983,7.9,983,22.8,968.2
	c68.5-68.5,136.8-136.9,205.3-205.4c70.5-70.5,141.1-141,211.6-211.5c63.4-63.4,126.7-126.8,190.1-190.2
	c59.6-59.5,119.1-119,178.6-178.5C864.7,126.2,921.2,70,977.3,13.4c5.1-5.1,10-5,15.7-4c10.8,1.8,21.5,4,31.9,6
	C688.5,351.8,351.8,688.5,14.4,1025.8C13.1,1018.4,11.6,1011.1,10.6,1003.8z M18.4,1040.8c-0.4-1.8,1.3-4.7,2.8-6.2
	c34.2-34.4,68.6-68.8,103-103.2C366,689.6,607.8,447.7,849.6,205.9c61.2-61.3,122.5-122.4,183.6-183.8c4-4,7.4-4.9,12.7-3.2
	c9.8,3.1,19.9,5.4,29.8,8.1c1.3,0.4,2.4,1,4.4,1.8C728.9,379.2,378,729.2,27.4,1078.9C24.2,1065.9,21.1,1053.4,18.4,1040.8z
	 M32.7,1097c-0.4-1.6,0.6-4.2,1.8-5.4c38-38.2,76.1-76.2,114.2-114.3c51.4-51.4,102.8-102.9,154.2-154.3
	c60.6-60.6,121.2-121.1,181.8-181.7c59.4-59.4,118.8-118.8,178.2-178.2C723.4,402.5,784,342,844.6,281.4
	C896,230,947.4,178.5,998.9,127c31-31,62-62.1,93.2-93c1.2-1.2,4.1-1.9,5.9-1.4c11.6,3,23,6.5,33.8,9.5
	C768.7,405.2,405.5,768.4,42.5,1131.4C39.3,1120.6,35.8,1108.8,32.7,1097z M54.6,1166.4c-2.4-5.6-4.1-11.6-6.9-17
	c-1.9-3.6-1.1-5.5,1.5-8.1c26.3-26.1,52.4-52.3,78.5-78.4C278.5,912,429.3,761.2,580.1,610.4C767,423.5,954,236.6,1140.8,49.5
	c3.1-3.1,5.3-3.6,9.3-1.6c8.9,4.4,18.3,7.9,27.4,11.8c1.2,0.5,2.3,1.3,3.3,2C807.7,434.8,435,807.5,61.7,1180.8
	C59.4,1176.1,56.8,1171.4,54.6,1166.4z M75.4,1218.6c-2.6-6.8-5.3-13.6-8.5-20.1c-1.3-2.8-0.4-4.1,1.4-5.9
	c21.7-21.6,43.3-43.3,65-65c56.4-56.5,112.9-112.9,169.4-169.4c64.5-64.5,128.9-129,193.3-193.4c60.6-60.5,121.2-121.1,181.8-181.6
	c60.4-60.5,120.8-120.9,181.3-181.4c59.5-59.5,119.1-119,178.6-178.5c51.4-51.4,102.8-102.9,154.2-154.4c2.9-2.9,4.9-3.4,8.8-1.1
	c6.9,3.9,14.5,6.6,21.7,9.9c2.2,1,4.2,2.4,5.5,3.2c-383,383-765.9,765.9-1149,1149C77.9,1226.7,76.9,1222.5,75.4,1218.6z
	 M93.2,1253.8c-5.9-13-5.6-13.1,4.5-23.2c95.7-95.6,191.3-191.3,286.9-286.9C506,822.2,627.5,700.8,749,579.3
	c126.4-126.3,252.8-252.7,379.3-379.1c36.3-36.3,72.6-72.6,108.8-109c2.5-2.5,4.4-3.3,8-1.4c8.2,4.3,16.7,7.9,25.1,11.9
	c1.3,0.6,2.4,1.6,3.3,2.1C883.6,493.7,494,883.3,103.8,1273.5C100.3,1267.1,96.3,1260.7,93.2,1253.8z M120.5,1303.2
	c-2.8-4.8-5.2-9.7-8.1-14.3c-1.6-2.6-1.4-4.1,0.8-6.3c29.7-29.5,59.3-59.3,88.9-88.9c57.5-57.5,115.1-115,172.6-172.5
	c60.6-60.5,121.1-121.1,181.7-181.7c61.5-61.5,123-123,184.5-184.5c65.5-65.5,131-131,196.5-196.5C1000,396,1062.5,333.4,1125,270.8
	c52.3-52.3,104.5-104.5,156.7-156.9c3.2-3.2,5.3-3.5,9.2-0.9c7.1,4.7,15,8.5,22.5,12.7c1.9,1.1,3.6,2.4,5.3,3.6
	C922.2,525.7,526.2,921.8,129.5,1318.4C126.6,1313.5,123.5,1308.4,120.5,1303.2z M147.1,1347.5c-2.9-4.4-5.3-9.2-8.6-13.3
	c-2.5-3.1-1.8-4.9,0.7-7.4c30.3-30.2,60.5-60.5,90.7-90.8c58.6-58.7,117.1-117.3,175.6-176c55.4-55.5,110.9-111,166.3-166.5
	c58.5-58.6,116.9-117.4,175.4-176c63.2-63.4,126.5-126.7,189.8-190.1c60-60.1,120-120.3,180-180.5c69.1-69.3,138.3-138.6,207.4-208
	c2.7-2.8,4.8-3.3,7.9-0.9c8.6,6.7,17.4,13.2,26.5,20C957.5,558.4,556.5,958.4,155,1358.9C152.1,1354.8,149.5,1351.2,147.1,1347.5z
	 M174.8,1382.5c-2.6-3.2-5.2-6.5-8.1-9.4c-2.5-2.5-2.1-4,0.3-6.4c40.9-40.7,81.6-81.5,122.4-122.3
	c69.5-69.7,139.1-139.3,208.7-208.9c63.4-63.4,126.8-126.7,190.2-190.1c64.4-64.4,128.9-128.9,193.3-193.3
	c63.5-63.5,127-127,190.5-190.5c72.6-72.6,145.3-145.3,217.9-217.9c25.7-25.7,51.4-51.2,77-77c2.7-2.7,4.1-2.5,6.8-0.1
	c7.7,6.7,15.8,13,23.9,19.6C994,590,590.4,993.6,186.4,1397.5C182.6,1392.6,178.8,1387.5,174.8,1382.5z M212.3,1430.9
	c-6.3-7.4-12.7-14.7-18.8-22.3c-0.7-0.8,0.3-3.6,1.3-4.7c20.8-21,41.7-41.9,62.6-62.8c131.6-131.6,263.1-263.2,394.7-394.8
	c121.3-121.4,242.7-242.7,364.1-364c128.8-128.8,257.5-257.5,386.2-386.4c3.6-3.6,6.1-4.3,9.7-0.8c6.8,6.5,13.7,13,20.6,19.5
	c0.6,0.6,1.1,1.5,1.8,2.5c-1.2,1.3-2.2,2.4-3.2,3.4c-25.3,25.3-50.6,50.7-75.9,76c-55.8,55.8-111.6,111.6-167.4,167.4
	c-72.5,72.5-145.1,145.1-217.7,217.6c-71.4,71.4-142.7,142.8-214.1,214.2c-72.5,72.5-145.1,145.1-217.7,217.6
	c-71.4,71.4-142.8,142.8-214,214.1c-34.4,34.4-68.7,68.7-102.9,103.2C218.1,1434.1,215.5,1434.7,212.3,1430.9z M248.4,1467.6
	c-7.6-7.5-14.7-14.6-22.3-22.1c6.9-6.9,13.7-13.9,20.6-20.8c73.7-73.6,147.3-147.2,221-220.8c81.6-81.6,163.2-163.2,244.8-244.8
	c81.4-81.3,162.7-162.7,244.1-244.1c78.6-78.7,157.3-157.3,236-236c83.3-83.2,166.5-166.5,249.7-249.8c3-3,4.8-3.4,7.9-0.2
	c5.7,5.9,12,11.4,18,17.1c3,2.9,2.7,5.3-0.4,8.3c-58.7,58.2-117.3,116.5-175.9,174.8c-52.5,52.3-105,104.6-157.5,156.9
	c-122.9,122.4-245.9,244.8-368.8,367.2c-90.3,89.9-180.5,179.8-270.8,269.7c-72.5,72.2-145.1,144.4-217.7,216.3
	c-8.5,8.4-16.9,16.9-25.4,25.3C250.7,1465.7,249.5,1466.6,248.4,1467.6z M281.8,1501.7c-1.3-1.2-2.3-2-3.2-2.9
	c-6.3-6.1-12.6-12.2-18.4-17.9c407.1-407.1,813.7-813.7,1221.1-1221.1c6.7,6.6,14.3,14.2,21.9,21.7c2.7,2.8,0.4,4.5-1.4,6.2
	c-14,13.9-27.9,27.8-41.9,41.7c-74.6,74.4-149.3,148.7-224,223c-85.5,85-171,170-256.4,255.1c-59.6,59.4-119.1,118.9-178.8,178.3
	c-143.2,142.5-286.5,285-429.8,427.5c-28.5,28.3-56.9,56.7-85.4,85C284.4,1499.5,283.1,1500.5,281.8,1501.7z M321.2,1535.6
	c-0.8-0.4-1.3-0.6-1.7-0.9c-8.8-6.2-17.7-12.3-24.3-21.1c-2.1-2.8-0.8-4.2,1.2-6.2c41.5-41.4,82.9-83,124.4-124.5
	c55.7-55.7,111.4-111.3,167.1-167c72.6-72.5,145.1-145,217.7-217.6C869,934.9,932.4,871.4,995.8,808c72.6-72.7,145.3-145.3,218-218
	c79.2-79.2,158.5-158.5,237.7-237.7c18.8-18.7,37.6-37.4,56.2-56.3c2.7-2.7,4.7-3,7-0.4c6.8,7.7,13.4,15.5,20.1,23.2
	c2.2,2.5-0.3,3.7-1.7,5.2c-19.8,19.8-39.5,39.6-59.2,59.3c-124.6,124.6-249.3,249.3-373.9,373.9
	c-121.2,121.2-242.5,242.5-363.7,363.7c-126.7,126.8-253.5,253.6-380.2,380.2c-10.6,10.6-21.2,21.2-31.8,31.7
	C323.3,1533.8,322.2,1534.7,321.2,1535.6z M350.1,1556.8c-6.4-5.2-13.1-10.2-19.8-15.4c403.9-403.9,807.5-807.5,1211.5-1211.5
	c3.9,5.1,7.9,10.3,11.9,15.4c2.1,2.8,4.1,5.8,6.7,8c4.1,3.3,3,5.4-0.2,8.6c-59.5,59.3-118.9,118.7-178.3,178.1
	c-66.4,66.4-132.9,132.9-199.3,199.3C1116.1,805.9,1049.5,872.4,983,939c-69.6,69.6-139.2,139.2-208.8,208.8
	c-63.4,63.3-126.8,126.7-190.1,190c-72.7,72.7-145.3,145.3-217.9,218C358.4,1563.7,358.5,1563.6,350.1,1556.8z M395.2,1589.4
	c-6.4-4.2-13.2-7.7-19.7-11.6c-2.2-1.3-4.1-3.2-6-4.7c401.4-401.4,802.5-802.5,1204-1204c2.5,3.5,5.1,7.1,7.5,10.8
	c2.9,4.4,5.3,9.2,8.6,13.3c2.5,3.1,1.8,4.9-0.7,7.4c-27.1,27.1-54.2,54.2-81.2,81.3c-53.8,53.9-107.5,107.8-161.2,161.6
	c-55.1,55.3-110.3,110.6-165.5,165.9c-93.7,94-187.4,188-281.3,282C734.4,1257,569.2,1422.6,404,1588.3
	C401,1591.4,398.8,1591.8,395.2,1589.4z M437.1,1614.5c-7.1-4.7-15-8.5-22.5-12.7c-1.8-1-3.6-2.3-4.7-3.1
	c396.2-396.2,792.4-792.4,1189.2-1189.2c3.6,6.3,7.6,13.4,11.5,20.4c1.3,2.3,2.1,5,3.9,6.9c3.6,3.8,2.3,6.3-0.9,9.5
	c-93.5,93.4-187.1,186.8-280.6,280.3c-107.4,107.4-214.8,215-322.2,322.4c-84.4,84.5-169,168.8-253.5,253.3
	c-70.6,70.5-141,141.1-211.5,211.7c-33.1,33.2-66.3,66.3-99.5,99.6C443.1,1616.8,441,1617.1,437.1,1614.5z M482,1638.1
	c-9.2-4.7-18.7-9.1-28.4-13.8C844.3,1233.6,1233.9,844,1624.2,453.7c3.6,6.7,7.7,13.3,10.8,20.3c5.7,12.8,5.4,12.9-4.5,22.8
	c-87.5,87.5-175.1,175-262.6,262.5c-121.5,121.6-243.1,243.2-364.7,364.8c-126.4,126.4-252.9,252.8-379.3,379.2
	c-44.3,44.3-88.6,88.6-132.8,133C488.2,1639.2,485.8,1640,482,1638.1z M526.1,1657.8c-9.7-3.8-19.6-7.3-28.5-10.6
	C880.9,1263.9,1264,880.8,1647.2,497.7c3.6,8.3,7.6,17.8,11.7,27.2c0.5,1.2,1.1,2.4,1.9,3.5c1.7,2.3,1.7,4-0.7,6.3
	c-26.8,26.6-53.5,53.3-80.2,80c-59.7,59.6-119.5,119.2-179.2,178.8c-101.7,101.4-203.3,202.7-305,304.1
	c-108,107.7-215.9,215.3-323.8,323c-78.5,78.3-156.9,156.6-235.3,235C533.3,1659,530.3,1659.5,526.1,1657.8z M577.9,1679.9
	c-8.9-4.3-18.2-8-27.3-12c-1.2-0.5-2.2-1.4-3.3-2.1C920.4,1292.7,1293.1,920,1666.5,546.7c2.4,5.4,4.9,10.9,7.3,16.5
	c2.1,4.8,3.5,10,6.1,14.6c2.1,3.8,1.6,5.9-1.4,8.9c-28.5,28.2-56.8,56.6-85.2,85c-140.4,140.5-280.9,280.9-421.3,421.4
	c-184,184-368,368-552,552c-11,11-22,21.8-32.7,32.9C584.3,1681,582,1681.9,577.9,1679.9z M633.4,1695.3
	c-12.7-3.1-25.3-6.6-37.1-9.7C959.6,1322.3,1322.9,959,1686.8,595c3.7,11.5,7.8,23.7,11.5,36c0.4,1.4-0.8,3.8-2,5
	c-35.7,35.9-71.5,71.8-107.3,107.6c-50.6,50.6-101.2,101.1-151.8,151.7c-54.5,54.4-108.9,108.9-163.3,163.3
	c-55.6,55.6-111.2,111.2-166.8,166.8c-51.5,51.5-103,103-154.5,154.5c-52.6,52.6-105.1,105.2-157.7,157.8
	c-51.9,51.9-103.9,103.9-156,155.8C637.7,1694.7,635,1695.7,633.4,1695.3z M681.8,1706.9c-11.2-2.4-22.3-4.8-34-7.3
	C998.9,1348.5,1349,998.4,1699.4,647.8c1.5,4.8,3.1,9.5,4.4,14.2c1.9,6.6,3.4,13.2,5.4,19.7c1,3.3,0.9,5.4-1.7,8
	c-63.9,63.8-127.6,127.6-191.4,191.4c-101.6,101.6-203.2,203.3-304.8,304.9c-90.4,90.3-180.8,180.7-271.1,271
	c-81.5,81.5-163.1,163.1-244.4,244.7C691.6,1705.9,687.6,1708.1,681.8,1706.9z M740.6,1718.8c-12-1.7-24.1-3.2-36.1-4.9
	c-0.7-0.1-1.5-0.6-1.7-0.7c336.8-336.8,673.5-673.5,1010.1-1010.1c2,12.1,4.1,25,6.1,37.9c0.5,3.2-0.5,5.5-2.9,7.9
	c-46.4,46.2-92.6,92.5-138.9,138.8c-55.6,55.6-111.3,111.2-167,166.9c-59.4,59.4-118.8,118.8-178.2,178.2
	c-60.6,60.5-121.2,121.1-181.8,181.7c-59.5,59.5-119.1,119-178.6,178.6c-40.5,40.5-81.1,81.1-121.5,121.7
	C747.3,1717.6,744.6,1719.4,740.6,1718.8z M803.5,1726.5c-12.2-2-24.4-3.2-36.6-4.7c-0.8-0.1-1.6-0.2-2.7-0.3
	c319.4-319.4,638.4-638.4,958-958c0.9,6.2,1.9,12.2,2.5,18.2c0.8,7.6,1.7,15.2,1.9,22.8c0.1,2.2-1.3,5.1-2.9,6.7
	c-24,24.3-48.2,48.4-72.3,72.5c-190.5,190.5-381.1,381-571.6,571.6c-89.2,89.3-178.5,178.5-267.7,267.8
	C809.7,1725.5,807.6,1727.2,803.5,1726.5z M1622.3,1278.3c-21.4,39.6-45.4,77.7-74.5,112.1c-14.3,17-30.4,32.5-45.9,48.4
	c-32.1,32.8-63.9,66-96.7,98.1c-11.1,10.9-24.3,20.1-37.6,28.4c-34.1,21.4-68.8,41.9-103.3,62.7c-0.6,0.4-1.4,0.5-1.9,0.6
	c123.1-123,246.3-246.2,370.1-370C1629,1265.5,1625.7,1271.9,1622.3,1278.3z M1677.1,1155.3c-8,20.1-15.9,40.1-23.9,60.1
	c-4.4,11.3-14.2,18.2-22.3,26.3c-50.4,50.6-101,101.1-151.6,151.6c-51.6,51.6-103.2,103.2-154.8,154.8
	c-32.5,32.5-64.8,65.3-97.7,97.4c-5.7,5.6-13.7,9.1-21.1,12.7c-19.7,9.7-40.2,17.3-61.5,22.8c-0.6,0.2-1.3,0.1-3.6,0.3
	c180.2-179.3,359.4-357.6,538.6-535.8c0.4,0.3,0.9,0.5,1.3,0.8C1679.4,1149.3,1678.3,1152.3,1677.1,1155.3z M1703.2,1070.3
	c-3.5,13.7-7.3,27.3-11.3,40.8c-0.7,2.5-2.8,4.9-4.7,6.8c-72.2,72.2-144.3,144.3-216.5,216.5c-117.4,117.5-234.9,235-352.5,352.4
	c-2.4,2.4-5.9,4.4-9.2,5.3c-18.1,5-36.3,9.6-54.5,14.2c-1.7,0.4-3.5,0.4-4.9,0.6c219.1-219.2,438.3-438.3,657.9-657.9
	C1706.1,1056.2,1705,1063.3,1703.2,1070.3z M1718.9,984.6c-1.5,11.4-2.7,22.8-4.6,34.1c-0.5,3.2-2.2,6.7-4.5,9
	c-47.1,47.4-94.4,94.6-141.7,141.9c-49.6,49.6-99.3,99.2-148.9,148.8c-54.4,54.4-108.8,108.9-163.2,163.3
	c-49.6,49.6-99.3,99.2-148.9,148.8c-26.2,26.2-52.5,52.4-78.5,78.8c-4.9,5-11,5.3-16.9,6.1c-14.6,2-29.3,3.5-45.6,5.4
	c252-253,503.2-505.1,754.4-757.2c0.3,0.2,0.6,0.4,0.9,0.6C1720.5,971,1719.8,977.8,1718.9,984.6z M1726.3,917.6
	c-0.5,7.1-1.2,14.3-1.2,21.4c0,4.3-1.2,7.4-4.3,10.5c-38.6,38.4-77.1,76.9-115.6,115.4c-159.2,159.2-318.4,318.4-477.6,477.6
	c-59.4,59.4-118.7,118.7-178,178.1c-2.8,2.8-5.6,3.9-9.6,4.1c-13.2,0.6-26.3,1.7-39.4,2.5c-2.1,0.2-4.2,0-5.4,0.1
	c277.4-277.4,555-555,832.6-832.6C1727.4,901.8,1726.8,909.7,1726.3,917.6z M1724.2,878.6c-98.5,98.3-196.9,196.7-295.4,295.1
	c-71.9,71.8-143.8,143.7-215.6,215.6c-67.5,67.5-135,135.1-202.5,202.7c-44,44-88,88-132.2,131.9c-1.9,2-5.4,3.3-8.2,3.4
	c-13.2,0.3-26.3,0.1-39.5,0.1c-1.4,0-2.9-0.1-4.3-0.2c-0.2-0.4-0.4-0.8-0.6-1.2c300-301,600.1-602,900.2-903
	c0.5,0.2,0.9,0.4,1.3,0.6c0.1,1.6,0.3,3.1,0.3,4.7c0,13.8-0.1,27.7,0.1,41.5C1727.9,873.5,1726.7,876.1,1724.2,878.6z"/>
</svg>
