<?xml version="1.0" encoding="utf-8"?>
<!-- Generator: Adobe Illustrator 19.2.1, SVG Export Plug-In . SVG Version: 6.00 Build 0)  -->
<svg version="1.1" id="Layer_1" xmlns="http://www.w3.org/2000/svg" xmlns:xlink="http://www.w3.org/1999/xlink" x="0px" y="0px"
	 viewBox="0 0 1200 900" style="enable-background:new 0 0 1200 900;" xml:space="preserve">
<style type="text/css">
	.st0{opacity:0.8;fill:#FFFFFF;}
</style>
<path class="st0" d="M-14.5-14.1v923.1h1228.8V-14.1H-14.5z M1199.8,330c-0.6,1-1.3,1.9-1.9,2.9
	c-61.6,102.4-123.3,204.8-184.8,307.2c-3.2,5.3-7.3,9.3-12.5,12.4c-94,56.8-188,113.6-282,170.5c-42.3,25.6-84.5,51.3-126.8,76.9
	c-1,0-2,0-3,0c-1-0.7-1.9-1.3-2.9-2C473.5,826,361,753.8,248.3,682c-10.6-6.8-19.2-14.9-26.5-25.1C149.6,556.2,77.2,455.7,4.9,355.1
	C3.4,353,1.6,351,0,349c0-2.7,0-5.3,0-8c0.3-1.8,0.8-3.6,1-5.4c1.5-17.8,2.9-35.5,4.4-53.3c3.2-37.8,6.5-75.6,9.6-113.5
	c0.4-4.4,1.7-7.9,4.9-11C56,122,91.9,86.1,128,50.4c3.4-3.3,8.1-6,12.6-7.2C183.9,31.9,227.2,21,270.5,9.9
	C282.7,6.7,294.9,3.3,307,0c1,0,2,0,3,0c0.8,0.5,1.6,1.1,2.5,1.6c46.1,24,92.3,47.5,138.1,71.9c48.3,25.8,96.9,51.1,142.1,82.2
	c2.9,2,5.1,1.3,7.7-0.5c8.1-5.3,16.1-10.7,24.4-15.6c74.2-43,150.8-81.4,227.1-120.3c1.3-0.7,2.8-1.1,4.2-1.3
	c8.1-0.8,16.3-1.4,24.4-2c35.7-2.8,71.4-5.4,107.1-8.5c6.4-0.6,11.5,0.7,16.7,4.4c49.9,35.5,100,70.8,149.9,106.4
	c2.9,2.1,5.6,6.1,6.3,9.6c10.7,52.8,21,105.8,31.4,158.6c2.5,12.5,5.3,25,7.9,37.5C1199.8,326,1199.8,328,1199.8,330z"/>
</svg>
