<svg width="600" height="300" viewBox="0 0 600 300" fill="none" xmlns="http://www.w3.org/2000/svg">
<path d="M75 212.5C68.0962 212.5 62.5 206.904 62.5 200L62.5 100C62.5 93.0965 68.0962 87.5 75 87.5L112.5 87.5L112.5 62.5L75 62.5C54.2887 62.5 37.5 79.2894 37.5 100L37.5 200C37.5 220.711 54.2887 237.5 75 237.5L112.5 237.5L112.5 212.5L75 212.5Z" fill="black" fill-opacity="0.5"/>
<path d="M237.5 200C237.5 206.904 231.903 212.5 225 212.5L187.5 212.5L187.5 237.5L225 237.5C245.711 237.5 262.5 220.711 262.5 200L262.5 100C262.5 79.2894 245.711 62.5 225 62.5L187.5 62.5L187.5 87.5L225 87.5C231.903 87.5 237.5 93.0965 237.5 100L237.5 200Z" fill="black"/>
<path d="M137.5 262.5L162.5 262.5L162.5 37.5L137.5 37.5L137.5 262.5Z" fill="black"/>
<path d="M387.5 75C387.5 68.0962 393.096 62.5 400 62.5L500 62.5C506.904 62.5 512.5 68.0962 512.5 75L512.5 112.5L537.5 112.5L537.5 75C537.5 54.2887 520.711 37.5 500 37.5L400 37.5C379.289 37.5 362.5 54.2887 362.5 75L362.5 112.5L387.5 112.5L387.5 75Z" fill="black" fill-opacity="0.5"/>
<path d="M400 237.5C393.096 237.5 387.5 231.903 387.5 225L387.5 187.5L362.5 187.5L362.5 225C362.5 245.711 379.289 262.5 400 262.5L500 262.5C520.711 262.5 537.5 245.711 537.5 225L537.5 187.5L512.5 187.5L512.5 225C512.5 231.903 506.904 237.5 500 237.5L400 237.5Z" fill="black"/>
<path d="M337.5 137.5L337.5 162.5L562.5 162.5L562.5 137.5L337.5 137.5Z" fill="black"/>
</svg>
