<svg width="600" height="300" viewBox="0 0 600 300" fill="none" xmlns="http://www.w3.org/2000/svg">
<path d="M18.7913 75H43.7913V137.5H95.9363L73.0805 114.644L90.7583 96.9665L143.791 150L90.7583 203.032L73.0805 185.355L95.9354 162.5H43.7913V225H18.7913V75Z" fill="black"/>
<path d="M256.209 75H281.209V225H256.209V162.5H204.064L226.92 185.356L209.241 203.034L156.209 150L209.241 96.9674L226.92 114.645L204.065 137.5H256.209V75Z" fill="black"/>
<path d="M525 18.7913V43.7913H462.5V95.9363L485.356 73.0805L503.034 90.7583L450 143.791L396.967 90.7583L414.645 73.0805L437.5 95.9354V43.7913H375V18.7913H525Z" fill="black"/>
<path d="M525 256.209V281.209H375V256.209H437.5V204.064L414.644 226.92L396.966 209.241L450 156.209L503.032 209.241L485.355 226.92L462.5 204.065V256.209H525Z" fill="black"/>
</svg>
