<svg width="600" height="300" viewBox="0 0 600 300" fill="none" xmlns="http://www.w3.org/2000/svg">
<path d="M164.324 138.124L162.145 113.219L191.828 110.622C180.589 99.7903 165.303 93.1288 148.461 93.1288C113.943 93.1288 85.9612 121.111 85.9612 155.629C85.9612 190.146 113.943 218.129 148.461 218.129C171.221 218.129 191.139 205.964 202.068 187.78L227.103 194.039C212.876 223.109 183.006 243.129 148.461 243.129C100.136 243.129 60.9612 203.954 60.9612 155.629C60.9612 107.304 100.136 68.1288 148.461 68.1288C172.791 68.1288 194.803 78.0593 210.663 94.0883L207.598 59.0516L232.503 56.8726L239.039 131.588L164.324 138.124Z" fill="black"/>
<path d="M435.676 138.124L437.855 113.219L408.172 110.622C419.411 99.7903 434.697 93.1288 451.539 93.1288C486.057 93.1288 514.039 121.111 514.039 155.629C514.039 190.146 486.057 218.129 451.539 218.129C428.779 218.129 408.861 205.964 397.932 187.78L372.897 194.039C387.124 223.109 416.994 243.129 451.539 243.129C499.864 243.129 539.039 203.954 539.039 155.629C539.039 107.304 499.864 68.1288 451.539 68.1288C427.209 68.1288 405.197 78.0593 389.337 94.0883L392.402 59.0516L367.497 56.8726L360.961 131.588L435.676 138.124Z" fill="black"/>
</svg>
