<?xml version="1.0" encoding="utf-8"?>
<!-- Generator: Adobe Illustrator 19.2.1, SVG Export Plug-In . SVG Version: 6.00 Build 0)  -->
<svg version="1.1" id="Layer_1" xmlns="http://www.w3.org/2000/svg" xmlns:xlink="http://www.w3.org/1999/xlink" x="0px" y="0px"
	 viewBox="0 0 1728.5 1724.2" style="enable-background:new 0 0 1728.5 1724.2;" xml:space="preserve">
<g>
	<path d="M432.1,1617c-9.6-20.4-19.2-40.4-28.5-60.5c-6.6-14.5-13.2-29-19.1-43.8c-4.8-12.2-8.4-24.9-12.8-37.2
		c-1-2.8-2.9-5.6-5.1-7.6c-10.6-9.4-21.4-18.4-32.1-27.6c-2.3-2-4.3-2.5-7.6-1.4c-22.3,7.7-44.6,15.2-67,22.5
		c-5.5,1.8-11.3,2.7-16.9,3.9c-3.4,0.7-5.1-0.7-5.9-4.1c-5.5-22.5-10.4-45.1-12.3-68.2c-2.1-26.1-3.7-52.2-6.3-78.2
		c-0.5-5.1-4.4-9.9-6.9-14.8c-0.3-0.6-1-0.9-1.4-1.4c-5.9-9.7-11.8-19.4-17.5-29.2c-1.9-3.3-4.5-3.8-7.9-3.3
		c-29.2,4.2-58.6,2.1-87.9,2.6c-0.5,0-1-0.2-2.2-0.4c0-1.5-0.1-3,0-4.6c1.9-20.9,3-41.9,5.9-62.6c2.6-18.6,7-36.9,10.9-55.3
		c2.3-10.9,5.2-21.6,7.8-32.5c0.3-1.4,0.2-3-0.3-4.4c-4.7-14.3-9.7-28.6-14.1-43c-1.4-4.6-4.1-6-8.3-7c-13.1-3.1-26.1-6.5-39.1-9.8
		c-10.8-2.7-21.6-5.3-32.3-8.3c-4.9-1.4-9.5-3.8-14.8-6c3.5-8.5,6.5-16.8,10.3-24.9c8.8-18.8,18-37.4,27-56.1
		c1.8-3.9,2.9-8.1,4.8-12c2-4.3,4.4-8.4,6.8-12.5c6.5-10.6,13.3-21,19.6-31.7c1.2-2,1.6-4.8,1.6-7.2c0.1-15,0-30,0.1-45
		c0-3.2-1-4.9-3.9-6.7C52.2,823.8,27.7,808.3,3,793c-3.3-2-3.7-3.5-2.1-7.5c2.9-7,8.2-11.2,13.1-16.3c6.4-6.7,11.2-14.8,17.1-22
		c4.7-5.6,10.2-10.4,15.1-15.8c8.2-8.9,16.1-18,24.2-27c2.4-2.7,4.7-5.6,7.3-8.1c4.7-4.4,9.4-9,14.5-12.9
		c10-7.6,14.2-18.4,17.3-29.9c2.7-10,3.3-20.6,9.2-29.7c0.6-1-0.2-3.7-1.3-4.9c-19.7-22.6-39.6-45.1-59.4-67.6
		c-0.6-0.7-1.1-1.6-2.1-3c3-2.3,5.8-4.4,8.7-6.6c10.8-8.2,21.1-17.3,32.6-24.5c22.1-14,44.8-27.2,67.6-40.1
		c6.4-3.6,13.9-5.3,20.9-7.8c3.7-1.3,5.7-4.1,7.5-7.4c5.1-9.3,10.7-18.2,15.7-27.6c2.2-4.2,3.7-8.6,7.5-11.8
		c0.8-0.6,0.5-3.4-0.1-4.7c-10-20-20.3-39.9-30.3-59.9c-3.2-6.4-5.3-13.2-8.2-19.7c-1.3-3-0.3-4.4,2.3-5.3
		c26.5-9.6,52.2-21.5,80.8-24.4c7.3-0.7,14.3-3.9,21.5-5.9c5.7-1.6,11.4-3.2,17.2-4.3c9.5-1.8,19.2-3.2,28.7-5
		c1.7-0.3,3.5-1.3,4.8-2.4c8.5-7.9,16.9-15.9,25.3-23.9c3.6-3.4,7.2-6.7,11.3-10.6c-5.1-30-10.4-61.2-15.8-92.9
		c13.1-1.1,25.6-2.4,38.2-3c9.3-0.5,18.7-0.2,28-0.1c19.8,0.4,39.6,0.6,59.4,1.5c6.2,0.3,12.5,1.7,18.6,3.2
		c10.2,2.5,19.2,0.1,28.3-4.4c10.2-5.1,20.9-9.2,31.1-14.3c2.2-1.1,4.4-4.3,4.7-6.7c2.4-22,4.2-44.1,6.6-66.1
		c0.8-7.6,2.8-15,4.1-22.1c21.1,1.2,41,5.3,60.4,12c11.9,4.1,24.2,7.2,36.1,11.2c8.5,2.8,16.7,6.5,25.1,9.5
		c10.6,3.8,21.2,7.8,32,10.9c3.6,1,7.9-0.2,11.8-0.6c11.8-1.2,23.5-2.6,35.3-3.8c3.3-0.3,5.2-1.7,6.4-4.9
		c5.2-14.2,10.3-28.4,16.4-42.2c5.9-13.4,12.8-26.2,19.4-39.3c0.6-1.2,1.4-2.2,2.7-4.2c8.2,4.7,16.4,9.2,24.5,13.9
		c6,3.5,11.9,7,17.8,10.8c10.8,7,21.7,14,32.3,21.4c12.8,8.9,25.3,18.2,37.9,27.4c4.7,3.5,9,7.8,14.1,10.4
		c5.7,2.8,12.1,4.4,18.3,5.6c11.8,2.3,23.7,3.7,35.5,5.8c3.3,0.6,5.3-0.2,7-3c15.3-24.4,33.9-46.2,52.5-68.1c3.2-3.7,5-3.7,8.4-0.2
		c15.3,16,31.7,31,46,47.8c18.2,21.5,35.2,44.1,51.8,66.8c3.2,4.3,7.2,5.3,10.9,7.3c11.3,6.2,23,11.6,34.4,17.7
		c3.3,1.8,5.4,1.7,8.2-0.9c19.8-18.1,42-32.9,65.6-45.7c3.3-1.8,6.3-4.2,10.6-7.1c5.1,9.1,10.7,17.9,15.2,27.2
		c17.7,36.3,31.6,74.2,45.6,112c1.8,4.8,4.4,8.6,8.4,11.9c10.3,8.4,20.2,17.3,30.2,25.9c2.1,1.8,3.9,2.5,7.1,1.4
		c19.3-7.1,38.7-14,58.2-20.5c9.9-3.2,20.1-5.3,30.8-8c0.8,4.1,1.8,8.4,2.6,12.8c3.7,20.8,7.8,41.5,10.9,62.4
		c2,13.5,2.9,27.1,4,40.7c0.9,11.3,1.3,22.6,1.9,33.9c0.2,4.1,1.6,7.7,3.2,11.6c5.7,13.5,16.7,23.5,23,36.5c1.5,3,3.7,3.5,7.3,3.3
		c20.3-1.1,40.6-1.8,60.9-2.4c9.8-0.3,19.6,0,29.7,0c-1,10-1.9,19.4-2.9,28.8c-1.8,16.6-3,33.2-5.5,49.7c-2.1,14.4-5.5,28.7-8.5,43
		c-2.4,11.4-5.4,22.6-7.7,34c-0.5,2.4,0.2,5.5,1.4,7.6c5.2,8.6,5.2,18.7,8.3,28c1.5,4.7,2,9.8,3.4,14.6c0.3,1.2,2.1,2.6,3.4,2.9
		c22.7,5.6,45.5,11.1,68.3,16.5c5.8,1.4,11.6,2.2,17.4,3.4c2.2,0.5,4.3,1.4,6.9,2.3c-5.7,12.8-11.2,25.1-16.6,37.3
		c-7.6,17.1-15.2,34.3-22.8,51.4c-0.8,1.8-1.8,3.6-2.8,5.3c-9.7,15.7-19.6,31.5-29.2,47.3c-0.9,1.4-1.2,3.5-1.1,5.1
		c1.6,15.4,2.6,30.9,0,46.3c-0.6,3.4,0.7,4.9,3.8,6.4c27.3,12.4,51.8,29.6,76.7,46.1c4.7,3.1,2.8,5.3,0.3,8.2
		c-14.7,16.9-29.6,33.7-43.8,51c-15.8,19.3-32,38.2-51.3,54c-7.5,6.2-10.3,13.3-12.3,22c-2.3,10.3-3.3,20.9-8.6,30.4
		c-1.9,3.4-1.7,6.6,1.6,9.7c9.7,9.2,19.4,18.5,28.5,28.4c8.3,9,15.6,18.9,23.3,28.5c3,3.7,5.9,7.6,9.4,12.2
		c-6.5,4.6-12.8,9.3-19.3,13.7c-12.1,8.1-24.3,16.1-36.6,23.9c-14.3,9.1-28.5,18.1-43.1,26.7c-7,4.1-14.4,7.6-22.1,10.3
		c-10.9,3.8-18,11.2-22.9,21.2c-2.2,4.6-4.4,9.2-7,13.7c-1.6,2.8-3.7,5.5-5.9,7.9c-5.3,5.7-5.9,9.1-2.4,16
		c9.6,18.8,19.2,37.5,28.5,56.5c3.3,6.7,5.9,13.7,8.4,20.7c0.3,0.9-0.9,3.4-1.9,3.7c-24.5,8.1-49.1,16.1-73.7,24
		c-2,0.7-4.3,0.5-6.4,1.1c-12.6,3.3-25.2,6.9-37.8,10c-5.1,1.3-10.4,2-15.6,2.7c-11.4,1.6-21.5,5.3-29.9,13.9
		c-7.4,7.5-15.9,14-24.1,20.9c-2.4,2-3,3.9-2.5,7.2c4.5,28.4,8.5,56.9,12.8,85.4c0.7,4.7-0.7,6-5.5,6.1c-8.6,0-17.3,1.2-25.9,1.3
		c-9.3,0.1-18.6-0.7-27.9-0.8c-18-0.3-36-0.8-54-0.5c-13.6,0.2-26.9-0.9-40-4.6c-2.3-0.6-5.4-0.5-7.5,0.5
		c-14.3,6.8-28.5,13.8-42.7,21c-1.1,0.6-1.8,2.7-2,4.1c-4.2,29-8.4,57.9-12.5,86.9c-0.4,3.1-1.6,4.2-5,3.4
		c-25-5.5-49.6-12.5-73.7-21c-11.7-4.1-24-6.7-35.8-10.7c-9.1-3-18.1-6.7-26.8-10.7c-7.9-3.6-15.5-4.5-24.1-2.7
		c-11.7,2.5-23.6,4.3-35.5,5.7c-4.8,0.6-6.3,3-7.5,7c-2.4,8.4-5.1,16.8-7.7,25.2c-0.2,0.6-0.4,1.3-0.8,1.8
		c-10.8,14.6-14,32.9-23.2,48.3c-1.1,1.8-2.2,3.6-3.6,5.9c-8.4-4.5-16.4-8.9-24.4-13.2c-0.7-0.4-1.4-1-2.2-1.2
		c-16.2-5-28-17.4-42.7-25c-6.8-3.5-12-9.9-18.4-14.3c-7.8-5.3-16.2-9.8-24.2-14.8c-1.5-0.9-2.9-2.2-4-3.6
		c-7.8-9.7-16.8-16.6-30.1-17.5c-11.2-0.8-22.3-3.4-33.5-5.2c-2.7-0.4-5.4-1.5-7.4,1.9c-9.8,17.1-24,30.8-36.6,45.8
		c-7.6,9-15.1,17.9-23.1,27.4c-2.7-3.2-4.9-5.9-7.4-8.5c-9.2-9.7-19.1-18.9-27.7-29.1c-17.4-20.7-34.1-41.9-51-63
		c-4.4-5.4-8.2-11.3-12.8-16.5c-4.4-5.1-9.4-9.5-16.8-9.6c-1.4,0-2.8-0.8-4.1-1.5c-8.3-4.3-16.6-8.7-25-13.1c-3.3-1.7-5.9-1.1-9,1.2
		c-19.4,14.2-39,28.2-58.7,41.9C445.3,1610.1,438.9,1613.1,432.1,1617z"/>
</g>
</svg>
