<?xml version="1.0" encoding="utf-8"?>
<!-- Generator: Adobe Illustrator 19.2.1, SVG Export Plug-In . SVG Version: 6.00 Build 0)  -->
<svg version="1.1" id="Layer_1" xmlns="http://www.w3.org/2000/svg" xmlns:xlink="http://www.w3.org/1999/xlink" x="0px" y="0px"
	 viewBox="0 0 1729.1 1729.6" style="enable-background:new 0 0 1729.1 1729.6;" xml:space="preserve">
<g>
	<path d="M348.6,312.2c-1.8-52.8,2.8-104.4,10.7-155.9c51.3,14.7,105.4,18.2,154.5,41.8c4.4-13.5,8-25.4,12.1-37.1
		c4.6-13.2,9.5-26.2,14.3-39.3c4.6-12.9,8.6-26.2,13.9-38.8c4.4-10.5,10.4-20.4,15.8-30.5c1-1.8,1.9-4.6,5.2-3
		c9,4.4,18.4,8.3,27.1,13.2c13.2,7.3,25.9,15.4,39,23c7.3,4.2,15.2,7.5,22.2,12.2c13.9,9.3,27.5,19.2,41.1,29c3,2.2,4.5,2.4,6.1-1.5
		c9.2-22,24.7-40,38.8-58.8C764.9,45.7,781,25.5,797,5.2c5.1-6.5,6-6.8,12.1-1.1C825,19,840.8,34,856.2,49.5
		c14.6,14.8,28.6,30.1,42.5,45.4c4.6,5.1,8.4,11.1,12.3,16.9c2,3,3.9,3.4,6.3,0.9c5.4-5.6,10.3-11.7,16.2-16.8
		c10.2-8.7,21-16.7,31.4-25.2c9.1-7.5,17.5-15.8,27-22.8c10.5-7.8,21.8-14.4,32.8-21.6c3.6-2.4,7-5,10.4-7.6c3-2.3,5.4-2.2,7.5,1.1
		c3.3,5.4,6.4,10.8,10,16c3.6,5.2,8.1,9.7,11.2,15.1c6.3,11.1,11.8,22.6,17.9,33.8c3.9,7.3,8.7,14.1,12.3,21.5
		c7.1,14.8,13.8,29.8,20.5,44.8c1.3,2.8,2.4,3,5.3,2c21.9-7.2,41-20.2,61.9-29.5c6.9-3.1,14.5-4.6,21.7-7.2
		c15.5-5.5,30.8-11.2,46.3-16.7c3.8-1.4,7.8-2.5,11.7-3.8c6.9,26.5,16.7,51.4,21.1,77.9c4.3,26.2,10.3,52.1,15.5,77.8
		c18.7-3.7,38.2-8.9,58-11.2c31.5-3.6,63-9,95-7c0.8,0.1,1.6,0.2,2.8,0.3c0.6,8.6,1.8,17,1.5,25.4c-0.9,30.5-2.1,60.9-3.6,91.3
		c-0.6,11.8-2.2,23.5-3.5,35.2c-0.5,4.5,1.3,6.4,5.6,6.8c3.5,0.3,7,1.4,10.4,1.2c18.3-0.9,36.1,3.2,54,5.4
		c19.6,2.4,39.2,5.5,58.6,8.8c7.1,1.2,14,4.1,21,6.3c2.5,0.8,4.9,1.9,8,3.1c-2.1,9.2-3.8,18.7-6.6,27.8
		c-4.9,16.4-11.3,32.3-15.3,48.9c-5.7,24.1-18,45.3-27.1,67.9c-1.1,2.7-1,4.2,2,5.3c3.9,1.4,7.6,3.2,11.5,4.8
		c17.5,7.1,35.2,13.7,52.4,21.5c23.1,10.5,45.8,22,68.6,33c0.3,0.1,0.6,0.2,0.9,0.4c7.6,3.7,7.6,4.1,3.3,11.3
		c-12.5,20.6-24.2,41.6-37.4,61.7c-9.4,14.4-20.7,27.6-31.2,41.1c-5.6,7.2-11.6,14.1-17.5,21.3c41.9,32.4,84.6,64.1,119.9,106.1
		c-35.4,37.9-75.1,71.2-118,101.1c14.5,18.5,27.7,36.3,41.9,53.3c5.2,6.2,8.2,13.1,12.2,19.8c6.7,11.3,14,22.2,20.9,33.3
		c4.8,7.6,9.4,15.2,14.1,22.8c1.3,2.1,1.6,3.7-1.4,5.1c-17.5,8.3-34.9,16.8-52.4,25.2c-11.6,5.6-23.1,11.7-34.9,16.8
		c-14.8,6.3-29.9,11.8-44.9,17.6c-0.6,0.2-1.3,0.4-1.9,0.6c-7,3.1-6.6,2.9-3.7,10c7.5,18.4,14.9,36.9,21.7,55.6
		c6.1,16.7,11.8,33.5,17,50.5c3.5,11.6,5.9,23.5,8.9,35.3c-16.7,6.9-33.3,11.5-50.7,13.4c-16.4,1.7-32.6,4.5-49,6.5
		c-12.7,1.5-25.4,2.5-38.1,3.8c-7.4,0.7-14.8,1.4-22.7,2.2c1.2,4.7,1.7,8.3,3,11.7c4.3,11.5,3.1,23.7,3.9,35.6
		c1.8,25.7,2.7,51.6,3.3,77.4c0.3,10.9-1.1,21.9-1.7,33.3c-2,0.1-3.8,0.2-5.6,0.3c-24.9,0.6-49.6-1.2-74.1-5.5
		c-9.3-1.6-18.9-1.3-28.2-3.1c-12.1-2.2-23.9-6-35.9-8.3c-17.2-3.3-14-6.1-15.7,10.9c-1.8,19-6.4,37.4-10.5,55.8
		c-5.2,23.8-12.1,47.3-18.3,70.9c-0.8,3.2-1.5,6.5-2,9.8c-0.6,4.1-2.5,4.9-6.5,3.9c-18.5-4.7-37-9.6-54.5-17.3
		c-20.5-9-41.1-17.8-61.5-27c-8.3-3.8-16.3-8.2-24.4-12.5c-2.6-1.4-3.9-0.9-4.8,1.8c-1.8,5.3-3.6,10.7-5.9,15.8
		c-2.6,5.9-5.9,11.5-8.8,17.2c-10,19.6-19.4,39.6-30.2,58.7c-7.5,13.4-16.9,25.8-25.4,38.6c-0.7,1.1-1.3,2.3-2,3.4
		c-1.8,3.3-4.1,4-7.2,1.6c-31.3-23.5-62.7-46.8-93.9-70.5c-5.6-4.3-10-10.1-15-15.2c-14.2-14.6-11.8-12.6-22.4-0.1
		c-12.7,15.1-24.5,31-38.3,45.1c-17.9,18.2-37.3,34.9-56.1,52.3c-0.7,0.7-1.7,1.1-2.4,1.8c-3.2,3.2-5.7,2.6-8.7-0.6
		c-16.1-17.2-31.6-34.9-44.8-54.6c-12.9-19.1-25.9-38.1-38.8-57.2c-1.7-2.5-3.3-5.1-4.3-7.8c-1.3-3.4-2.7-3.5-5.4-1.5
		c-27.2,20-56,37.3-86,52.8c-14.5,7.5-28.9,14.9-43.4,22.4c-2.6,1.3-4.6,2-6-1.3c-8.2-18.5-17.4-36.5-24.4-55.4
		c-10.4-27.8-19.3-56.2-28.8-84.3c-0.7-2-1.4-4-2-5.9c-8.7,2.8-17.2,5.6-25.6,8.4c-16.1,5.3-32,11.1-48.3,15.8
		c-10.2,3-20.8,4.5-31.2,6.6c-11.9,2.4-23.7,5.2-35.7,7c-13.4,2.1-13.1,1.7-14.6-11.6c-1-9.1-3.5-17.9-4.8-27
		c-1.3-9.4-1.8-18.9-2.8-28.3c-3-28.7-3.5-57.5-3.1-86.3c0-1-0.2-1.9-0.3-3.1c-4.5,0-8.8,0-13.1,0c-19.1,0-38.3,0-57.4-0.1
		c-18.8-0.1-37.7,0.2-56.5-0.5c-10.8-0.4-21.5-2.4-32.7-3.7c0-4.7-0.5-9.9,0.1-14.9c1.5-12.4,3.2-24.7,5.4-37
		c2.5-14.1,5.3-28.1,8.3-42.1c4.2-19.6,8.7-39.2,13.2-58.8c0.8-3.3-0.2-4.8-3.4-5c-21.4-0.8-41.3-8.3-61.4-14.4
		c-20.3-6.1-40.1-13.8-60.2-20.7c-7.2-2.5-14.5-4.6-21.8-7c-2.6-0.8-4.1-1.8-3-5.4c6.3-19.5,14.4-38.2,23.6-56.4
		c8.9-17.6,18.5-34.9,27.7-52.3c5.5-10.3,10.7-20.8,16.4-31.7c-5.7-2.9-12.2-6.1-18.5-9.6c-29.5-16.2-59.4-31.8-86-52.7
		c-5.3-4.2-11.6-7.1-17.2-10.9C-1,984-1.3,982.9,7.6,971.2c12.9-16.9,25.8-33.7,39.4-50c6.6-7.9,14.9-14.5,22.5-21.7
		c6.5-6.2,13.2-12,19.3-18.5c5.1-5.4,9.4-11.5,15-18.4c-10.8-10.9-22-21.6-32.5-33c-15.4-16.7-30.4-33.8-45.2-51
		c-8.3-9.7-15.9-20-24-29.9c-2.9-3.6-2.9-6.3,1.4-8.8c4.7-2.7,9.3-5.7,13.9-8.7c2.6-1.7,5.4-3.3,7.7-5.4
		c17.4-15.9,37-28.4,57.9-39.3c13.8-7.2,27.2-15.1,40.8-22.7c2.6-1.4,5.2-3,7.9-4.1c2.8-1.1,2.6-2.6,1.4-4.6c-1-1.7-1.6-3.8-3-5.2
		c-10.8-10.7-15.5-25-22.2-38c-12.1-23.6-23.4-47.5-34.8-71.5c-3.1-6.6-5.4-13.5-7.9-20.4c-0.7-2-1.8-4.5,1.6-5.8
		c9.8-3.6,19.4-7.6,29.3-10.8c13.9-4.5,27.8-8.8,41.9-12.7c20-5.7,40-11,60.1-16.4c5.7-1.6,11.5-2.9,18-4.6
		c-1.9-7.9-3.9-15.4-5.6-22.9c-4.1-19.2-8.4-38.3-12-57.6c-3-16.3-5.2-32.8-7.7-49.2c-1-6.7-1.9-13.5-2.8-20.2
		c-0.4-2.9,0.8-4,3.7-5.2c9.9-4.1,20.1-1.6,30.1-2.5c29.6-2.5,59.2-3.3,88.9-1.9C323,310.8,335.2,311.5,348.6,312.2z"/>
</g>
</svg>
