<?xml version="1.0" encoding="utf-8"?>
<!-- Generator: Adobe Illustrator 19.2.1, SVG Export Plug-In . SVG Version: 6.00 Build 0)  -->
<svg version="1.1" id="Layer_1" xmlns="http://www.w3.org/2000/svg" xmlns:xlink="http://www.w3.org/1999/xlink" x="0px" y="0px"
	 viewBox="0 0 1729.9 1727.5" style="enable-background:new 0 0 1729.9 1727.5;" xml:space="preserve">
<g>
	<path d="M677.2,1533.1c-6.8-5.6-10.8-5.5-16.5,0.1c-40.4,40.3-80.7,80.7-121,121c-5.6,5.6-5.7,5.9-13.1,2.3
		c-8.5-4-16.9-8.4-26.5-13.3c43.8-42.8,86.6-84.7,129.4-126.6c-5.9-6.8-12.5-7.2-18.3-1.5c-39.4,39.4-78.8,78.9-118.1,118.4
		c-2.7,2.8-5.1,3.5-8.7,1.6c-9.4-4.8-18.9-9.2-28.9-14c41.8-41.7,82.5-82.3,123.2-122.9c-0.8-1.3-0.9-1.8-1.3-2
		c-10.7-7.5-7.3-7.5-15.6,1.1c-37.7,38.4-75.2,76.9-112.7,115.5c-3.2,3.3-5.3,4.5-9.9,1.4c-7.1-4.9-15-8.5-22.5-12.7
		c-1.8-1-3.5-2.4-6.2-4.2c4.9-4.6,9.4-8.8,13.7-13c35.3-34.4,70.6-68.8,105.9-103.2c4.5-4.4,4.4-5.2-1.2-8.5
		c-6.3-3.7-6.3-3.7-11.8,1.9c-37.9,37.9-75.8,75.8-113.6,113.8c-3,3-4.8,3-8.2,0.5c-5.4-4.1-11.5-7.2-17.2-10.9
		c-2.3-1.5-4.4-3.4-7.1-5.5c15.7-15.6,31-30.7,46.2-45.9c23.9-23.9,47.8-47.9,71.8-71.7c3-2.9,2.5-4.3-0.7-6.4
		c-7.8-5-7.7-5.1-14.7,1.9c-36.8,36.8-73.6,73.5-110.3,110.4c-2.8,2.8-4.7,2.8-7.5,0.5c-6.7-5.5-13.5-10.8-20.2-16.1
		c-1.3-1-2.8-1.8-4.7-3c13.9-13.8,26.7-26.4,39.4-39c25.5-25.4,50.9-50.9,76.3-76.4c1.1-1.1,2.5-3.7,2.1-4.2
		c-2.1-2.5-4.6-4.7-7.3-6.5c-0.4-0.3-2.6,1.7-3.7,2.8c-35.4,35.4-70.8,70.9-106.2,106.3c-3.5,3.5-6.8,7.3-10.3,11.1
		c-8.6-7.5-16.3-14.5-24.3-21.2c-3.7-3.1-4-5.2-0.3-8.8c36.4-35.2,72.6-70.6,108.9-105.9c2.3-2.3,5.3-4,8-6
		c-4.9-4.1-8.1-6.9-12.1-10.3c-39.1,39.3-78.1,78.5-117.6,118.2c-7.6-7.3-14.8-14.1-21.9-21c-3-2.9-2.6-5.2,0.5-8.2
		c37-36.8,73.8-73.7,110.7-110.6c0.8-0.8,1.6-1.7,2.6-2.7c-2.3-3-4.6-5.8-8-10.2c-7.1,7.7-13.6,15-20.5,21.9
		c-31.1,31.3-62.3,62.4-93.4,93.7c-2.6,2.6-4.9,3.2-7.5,0.6c-6.3-6.3-12.6-12.6-18.8-19c-2.4-2.4-1.8-4.5,0.5-6.8
		c25.3-25.1,50.5-50.3,75.7-75.4c12.2-12.2,24.4-24.4,36.6-36.6c0.8-0.8,1.5-1.8,2.4-3c-2.5-3.6-4.9-7.3-7.7-11.4
		c-39.5,40.5-78.7,80.5-117.7,120.4c-8.8-9.5-17-18.5-26.2-28.4c4.6-4.2,9.2-8.2,13.5-12.5c34.2-34.1,68.3-68.3,102.5-102.4
		c6-6,5.6-4.5-0.3-10.4c-0.9-0.9-1.9-1.7-3.1-2.9c-39.3,39.4-78.4,78.5-118.4,118.6c-7.2-9.3-14.1-18-20.6-26.9
		c-0.6-0.8,0.3-3.5,1.3-4.5c22.9-23,45.8-46,68.8-68.9c15.2-15.2,30.4-30.4,45.7-45.6c2.5-2.4,3.3-4.5,0.8-7.5
		c-1.5-1.7-2.3-4-3.7-6.7c-40,40.9-79.9,81.7-120.4,123.1c-2.9-4.2-5.5-7.7-7.9-11.4c-2.9-4.4-5.3-9.2-8.6-13.3
		c-2.5-3.2-1.8-4.9,0.7-7.4c20.3-20.1,40.4-40.3,60.6-60.5c18.2-18.2,36.3-36.4,54.7-54.5c3.4-3.4,4.6-5.7,1.1-10.1
		c-4.8-6.2-4.2-6.6-9.7-1c-37.3,38.2-74.7,76.5-112,114.7c-1,1.1-2.2,2-4,3.7c-3.3-5.6-6.4-10.7-9.4-16c-2.5-4.3-4.3-9.1-7.3-13
		c-2.9-3.8-1.8-5.9,1.1-8.7c31.2-31.1,62.4-62.3,93.5-93.5c6.9-6.9,13.8-13.8,20.7-20.7c6.8-6.8,6.8-6.8,1.7-15.6
		c-41.6,40.6-83.1,81.2-125.1,122.2c-2.9-6.3-5.4-12-8.2-17.5c-2-4-4.2-7.9-6.7-11.6c-2-3-1.9-5,0.9-7.6
		c23.2-22.4,46.2-45,69.2-67.5c17.7-17.3,35.2-34.6,53-51.7c2.8-2.7,3.3-4.7,1.1-8c-1.7-2.5-2.3-5.8-3.6-9.2
		c-42.8,42.8-85.4,85.3-128.4,128.3c-4.7-10.5-8.9-19.8-13-29.2c-1.2-2.8-0.7-5,1.8-7.5c40.7-41.4,81.1-83.2,122.1-124.4
		c5.5-5.5,2.8-9.5,0.9-15.3c-43.8,42.9-87.4,85.5-131.6,128.7c-4.8-12.2-9.3-23.4-13.3-34.7c-0.5-1.3,1.6-4,3-5.5
		c20.2-20.4,40.6-40.7,60.9-61c21.4-21.4,42.8-42.8,64.1-64.1c7-7,7.2-8.7,2.2-18.9c-45.5,45.4-90.7,90.7-136.5,136.4
		c-3.8-13.1-7.4-25.1-10.7-37.2c-0.3-1.3,0.8-3.4,2-4.6c29.8-30,59.7-59.9,89.5-89.7c16-16.1,32.2-32,48.1-48.2
		c1.1-1.1,1.3-3.6,1.2-5.4c-0.2-3.1-0.9-6.2-1.3-8.5c-46.6,46.9-93.6,94.1-140.6,141.3c-0.8-0.5-1.6-1-2.4-1.5
		c-1.5-5.2-3.1-10.3-4.5-15.5c-1.9-6.9-3.6-13.8-5.6-20.7c-1.1-3.6-0.4-6.1,2.4-8.8c47.6-46.5,94.8-93.4,142.7-139.6
		c7-6.8,5.4-13.6,5.6-22.6c-51.8,50.9-102.5,100.6-154,151.1c-2.2-13.9-4.1-26.7-6.2-39.6c-0.6-3.5,0.9-5.9,3.3-8.3
		c39.5-39.4,79-78.8,118.5-118.3c12-11.9,23.9-23.9,35.7-35.9c1.5-1.5,2.4-4,2.6-6.1c0.4-3.8,0.1-7.6,0.1-11.4
		c-0.4-0.3-0.8-0.5-1.2-0.8C116.7,856.7,63,910.4,8.1,965.2c-1-7.9-1.9-14.4-2.6-20.9c-0.7-6.3-0.7-12.6-1.7-18.9
		c-0.7-4,0-6.7,3-9.7c32.3-32,64.4-64.2,96.5-96.4c23.1-23.1,45.8-46.6,69.5-69c7.8-7.4,7.8-16.2,9.7-24.9c-0.4-0.3-0.8-0.6-1.1-0.9
		C122,783.8,62.8,843,2.8,903c-0.8-4.3-1.9-7.5-2-10.9C0.3,880,0,867.8,0,855.6c0-2.1,1.5-4.8,3.2-6.3
		C68.2,785,133.4,720.8,198.4,656.5c2.4-2.3,3.5-6.1,4.7-9.3c2.1-5.5,3.9-11.2,6.3-18.2C139.4,698,70.5,766,0.7,834.8
		c-0.4-2.5-0.8-3.7-0.7-4.9c1.7-15.4,3.3-30.8,5.4-46.1c0.3-2,2.4-3.9,4-5.5C75.6,712,141.9,645.7,208.2,579.4
		c12.4-12.4,25.2-24.3,36.9-37.2c6-6.6,10-15.1,14.7-22.8c3.6-5.9,7.1-11.8,10.6-17.8c-0.4-0.4-0.8-0.7-1.3-1.1
		C182.5,587.3,95.8,674.1,7.9,762.1c0.6-6.7,1-12.1,1.6-17.5c1.5-13.2,3-26.4,4.7-39.6c0.2-1.4,1.4-2.9,2.5-4
		c30.6-30.7,61.2-61.4,91.9-92.1c53.6-53.6,107.2-107.2,160.8-160.8c50.4-50.4,100.9-100.9,151.4-151.3
		c53.4-53.4,106.8-106.7,160.2-160.1C620.5,97,660,57.5,699.4,17.8c4.5-4.6,10.2-4.8,15.5-5.6c15-2.2,30-3.7,46.4-5.6
		c-87.3,88.3-174,175.9-260.6,263.4c0.2,0.3,0.4,0.7,0.6,1c5.2-2.7,10.4-5.4,15.5-8.1c5.6-3,10.9-6.3,16.6-9
		c10.1-4.8,16.5-13.8,24-21.4C632.2,157.3,706.7,81.9,781.2,6.4c2.5-2.6,5.1-3.5,8.7-3.7c13-0.6,25.9-1.6,38.9-2.4
		c2.4-0.1,4.9,0,8,1.2c-68.1,68.2-136.3,136.3-205.1,205.2c13.3-2.3,23.9-6.4,33.1-15.8c62-62.8,124.5-125.1,186.9-187.4
		c1.7-1.7,4.5-3.2,6.8-3.2c14.2-0.3,28.3-0.2,42.5-0.1c0.8,0,1.6,0.2,4.1,0.5C845.7,61.1,787,120.6,727.3,181.4
		c7.9-1.6,14.7-0.7,20.3-6.2c35.4-35,71-69.9,106.5-104.8c21.7-21.4,43.5-42.8,65.1-64.3c2.5-2.4,5-3.5,8.4-3.2
		c12.6,1.2,25.2,2.2,39.3,3.5c-54,55-107.5,109.5-161,163.9c8.1-0.1,15.1-0.8,21.3-7C877.3,112.7,927.7,62.4,978,12
		c2.6-2.6,5-3,8.7-2.2c11.9,2.6,23.9,4.4,35.8,6.5c0.8,0.1,1.6,0.5,3.7,1.2c-50.5,50.5-100.4,100.4-151.4,151.4
		c8.9-0.1,15.7,1.5,22.5-5.4c45.9-47.5,92.4-94.4,138.5-141.6c3.8-3.8,6.9-4.4,11.8-2.9c10,3.1,20.2,5.4,30.3,8.2
		c1.3,0.3,2.4,1,4.6,1.9c-47.6,47.4-94.8,94.5-142.4,142c5,1.1,8.9,2.2,12.8,2.8c1.1,0.1,2.5-1.3,3.5-2.2
		c45.8-45.6,91.5-91.3,137.2-137c2.2-2.2,3.9-2.9,6.9-1.9c11.3,3.5,22.6,6.6,35.4,10.2c-46,46-91.5,91.6-137.1,137.2
		c4.9,4.5,12.7,4.1,17.2-0.4c42.2-42.2,84.4-84.3,126.4-126.7c3.5-3.5,6.3-4.8,11.2-2.7c8.5,3.6,17.4,6.4,26.1,9.6
		c1.2,0.4,2.2,1.4,4.1,2.6c-43,44-85.7,87.7-128.4,131.3c0.5,0.6,0.6,0.8,0.7,0.8c7.3,4.4,11.9,0.8,17.3-4.5
		c40.3-39.8,80.9-79.2,121.3-118.9c2.6-2.6,4.9-3,7.9-1.6c9.2,4.1,18.4,8.2,28.8,12.8c-42.9,43-85.5,85.5-128.1,128.2
		c4.1,1.8,7.7,3.8,11.6,5c1.3,0.4,3.6-0.9,4.8-2.1c16.4-16.6,32.8-33.3,49.1-50c23.6-24.1,47.1-48.3,70.8-72.3
		c1.2-1.3,4-2.6,5.2-2.1c10.2,5.1,20.2,10.5,31,16.3c-40.4,41.4-81,83-122,124.9c2.2,1,4,1.7,5.7,2.6c2.7,1.4,4.6,1.1,7-1.3
		c38.7-38.9,77.6-77.5,116.3-116.4c3.7-3.7,6.2-4.8,11.1-1.5c8.7,5.7,18,10.3,27.8,15.8c-1.7,2-2.8,3.3-4.1,4.6
		c-38.4,37.4-76.7,74.9-115.1,112.3c-4.8,4.7-4.3,4.6,1.2,8.9c5,4,7.5,2.2,11.3-1.6c38-38.3,76.2-76.3,114.3-114.5
		c2.9-2.9,4.7-2.6,7.8-0.4c5.7,4,11.8,7.4,17.6,11.2c2.2,1.4,4.2,3.2,6.9,5.4c-10.7,10.6-21.1,20.7-31.4,31
		c-29,28.9-57.9,58-86.9,86.8c-2.7,2.7-2.4,4.3,0.7,6c2.6,1.5,5,3.2,8.6,5.4c8.1-8.4,16.1-17,24.4-25.3
		c30.8-30.9,61.6-61.7,92.5-92.4c1.2-1.2,4.3-2.2,5.2-1.6c8.8,6.4,17.3,13.2,26.8,20.6c-9.6,9.4-18.4,17.9-27.1,26.6
		c-29.4,29.3-58.7,58.6-88,88c-1.3,1.3-3.1,4-2.7,4.6c1.9,2.6,4.5,4.8,7.1,6.7c0.4,0.3,2.6-1.5,3.7-2.7
		c30.4-30.4,60.8-60.8,91.1-91.2c8.5-8.6,17-17.2,25.9-26.2c9,8,17.6,15.7,26.3,23.4c2.7,2.4,0.6,3.5-0.9,5.1
		c-27.4,26.8-54.8,53.6-82.3,80.4c-10.5,10.2-20.9,20.4-31.4,30.6c-1,1-1.9,2.2-3,3.4c3.4,2.9,6.6,5.7,10.3,8.8
		c7.2-7.2,14.3-14.2,21.4-21.3c31.1-31.1,62.1-62.2,93.1-93.3c2.3-2.3,4-2.7,6.5-0.2c6.2,6.2,12.7,12.1,19.1,18.1
		c2.9,2.8,2.4,5.1-0.4,7.9c-37,36.8-73.8,73.7-110.7,110.6c-0.9,0.9-1.8,1.9-2.7,2.9c2.3,3,4.5,5.8,7.1,9c1.5-1.3,2.7-2.4,3.9-3.5
		c37.1-37,74.2-74.1,111.1-111.2c2.5-2.5,4.6-3,7.1-0.6c6.3,6.3,12.7,12.6,18.9,18.9c2.4,2.5,1.9,4.7-0.5,7.1
		c-36.4,36.2-72.7,72.5-109.1,108.8c-1.8,1.8-3.6,3.8-5.4,5.9c2.6,3.8,5,7.3,7.8,11.5c39.5-40.4,78.6-80.5,117.7-120.5
		c8.6,9.4,16.9,18.4,26.8,29.1c-1.8,1-4,1.7-5.5,3.2c-36.9,36.8-73.8,73.7-110.6,110.5c-6.6,6.6-6.2,4.8,0,11.2
		c0.8,0.8,1.1,2,1.7,3.2c40.1-40.2,79.1-79.3,119.1-119.4c6.6,8.2,12.6,15.4,18.3,22.8c4.7,6.2,4.4,6.2-1,11.6
		c-37.4,37.3-74.8,74.6-112.1,112c-1,1-1.9,2.3-2.7,3.3c1.9,3.5,3.8,6.8,5.8,10.5c39.9-40.8,79.8-81.7,120.5-123.3
		c3.6,5.5,6.8,10.6,10.2,15.7c2.1,3.2,3.9,6.5,6.3,9.5c2.3,2.8,1.8,4.6-0.6,7c-16.4,16.2-32.7,32.6-49,48.9
		c-22.4,22.4-44.9,44.8-67.2,67.2c-1.4,1.4-3.3,4-2.8,5.1c1.7,3.3,4.2,6.2,6.7,9.1c0.1,0.2,2.5-1.2,3.4-2.1
		c17.5-17.8,35-35.7,52.5-53.6c20.4-20.9,40.9-41.9,61.3-62.8c1.1-1.2,2.4-2.2,4.4-4c4.2,7.4,8,14.3,11.9,21.2
		c1.4,2.5,2.3,5.3,4.1,7.3c4.1,4.3,1.8,6.9-1.5,10.2c-38.5,38.3-76.9,76.9-115.5,115.1c-5.3,5.3-2,9.1,0.1,14.2
		c41.8-40.8,83.4-81.5,125.4-122.5c3,6.4,5.5,12.2,8.3,17.7c2,4,4.1,8,6.7,11.6c2.1,3.2,1.4,5.1-1.2,7.6
		c-21.1,20.5-42.1,41-63.2,61.6c-19.6,19.1-39,38.3-58.7,57.3c-2.9,2.8-3.6,4.9-1.1,8.4c1.7,2.3,2.1,5.5,3.3,9.1
		c42.9-42.8,85.4-85.4,128.4-128.4c4.7,10.6,9,20.2,13.3,29.9c1.2,2.8-0.1,4.8-2.2,6.9c-40.6,41.4-80.9,83-121.7,124.1
		c-5.4,5.4-3.4,9.4-1,15.3c43.7-42.7,87.2-85.3,131.3-128.4c3.1,7.4,5.9,14,8.6,20.7c1.4,3.4,2.2,7,3.9,10.2
		c2.4,4.4,0.5,6.8-2.5,9.8c-41.8,41.6-83.5,83.4-125.2,125.1c-6.3,6.3-6.7,9.4-1.5,18.3c45.2-45.4,90.3-90.7,136.3-136.8
		c2.6,9.3,4.8,17.2,7,25c0.2,0.6,0.1,1.4,0.4,1.9c5.5,9.3,1.8,15.3-5.4,22.3c-43.8,43.1-87,86.9-130.5,130.3
		c-2.3,2.2-2.9,3.8-1.5,6.8c1.1,2.6,0.9,5.8,1.3,8.8c47.1-47.3,94.2-94.6,141.2-141.8c0.6,0.4,1.2,0.8,1.8,1.1
		c1.5,5.1,3,10.1,4.4,15.2c2,7,3.7,14.1,5.8,21.2c1,3.4,0.4,5.8-2.3,8.4c-47.7,46.6-95.1,93.6-143,140c-6.9,6.6-5.2,13.5-4.4,21.4
		c50.7-49.8,101.4-99.5,152.7-149.9c1.1,6,2.1,11.2,2.9,16.5c1.2,7.7,2.7,15.4,3.3,23.2c0.2,2.5-1.2,5.9-3.1,7.7
		c-33.3,33.5-66.7,66.8-100.1,100.2c-18,18-36.1,36-54,54.2c-1.6,1.6-2.5,4.2-2.8,6.5c-0.5,3.7-0.1,7.5-0.1,11.9
		c54.2-54.3,107.8-108,161.3-161.7c0.7,0.3,1.5,0.6,2.2,0.9c0.9,5.8,1.9,11.5,2.5,17.3c0.9,7.9,1.7,15.9,2,23.8
		c0.1,2.2-1.5,5-3.1,6.6c-28,28.2-56.2,56.4-84.3,84.5c-27.8,27.8-55.4,55.8-83.5,83.2c-7.1,6.9-5.1,15.4-8.2,22.8
		c0.5,0.3,1.1,0.6,1.6,0.9c59-59,118-118,178.1-178.1c0.3,3,0.5,4.5,0.5,6c0,13.2,0.2,26.3-0.1,39.5c-0.1,2.7-1.3,6-3.2,7.8
		c-50.1,50.3-100.4,100.5-150.6,150.7c-14.4,14.4-28.9,28.7-43.2,43.2c-1.9,1.9-3.6,4.5-4.4,7c-2,5.9-3.5,12-4.3,18.6
		c68.1-68.1,136.3-136.3,205.1-205.1c0.4,2,0.8,2.7,0.7,3.4c-0.8,15.3-1.5,30.6-2.6,45.8c-0.2,2.2-1.6,4.7-3.2,6.3
		c-36.2,36-72.5,71.8-108.7,107.7c-44.4,43.9-88.9,87.8-133.3,131.8c-1.8,1.8-2.6,4.5-3.9,6.7c-4.4,7.9-8.8,15.9-13.3,23.8
		c-1.9,3.4-3.9,6.8-5.9,10.2c0.3,0.3,0.7,0.5,1,0.8c87.5-87.5,175.1-175,262.6-262.6c0.3,0.2,0.5,0.4,0.8,0.7
		c-2.3,17.6-4.5,35.2-7.2,52.8c-0.5,3-2.5,6.1-4.7,8.3c-132.4,133.1-264.9,266-397.4,399c-85,85.3-170,170.5-255,255.8
		c-8.5,8.6-17.2,17-25.3,25.9c-4.2,4.6-9.5,5-14.9,5.7c-16.5,2.2-32.9,4.2-51,6.5c85.8-86.7,170.6-172.4,255.4-258.1
		c-0.2-0.3-0.4-0.6-0.7-0.8c-7.2,3.9-14.5,7.7-21.5,11.8c-3.7,2.2-7.4,4.5-10.4,7.5c-79.5,78.5-158.9,157-238.2,235.6
		c-3.7,3.7-7.8,5.4-12.7,5.9c-6.3,0.6-12.6,1.1-18.9,1.5c-8.1,0.5-16.2,1-25.2,1.5c68.9-68.8,137.2-137,205.5-205.2
		c-0.3-0.5-0.5-0.9-0.8-1.4c-1.3,0.2-2.7,0.2-3.9,0.6c-11.7,3.1-20.2,10.8-28.5,19c-62.3,61.7-124.7,123.3-187,184.9
		c-2.5,2.5-5.1,3.6-8.8,3.6c-12.8-0.2-25.7-0.1-38.5-0.1c-1.6,0-3.2-0.2-5.6-1.5c58.6-59.6,117.3-119.2,176.9-179.8
		c-8.4,1.4-15.5,1.3-21.5,7.2c-56.1,55.6-112.5,110.9-168.7,166.4c-3.6,3.6-7.1,5.3-12.3,4.7c-11.9-1.3-23.8-2.3-37.1-3.5
		c54-55,107.6-109.5,161.1-164c-8.7,0.1-15.8,1.5-22.2,8c-49.6,50.2-99.6,99.9-149.5,149.9c-2.8,2.8-5.2,3.8-9.5,2.8
		c-11.7-2.7-23.5-4.3-35.3-6.4c-0.9-0.2-1.8-0.6-3.9-1.3c50.5-50.5,100.4-100.4,151-151.1c-9.1-0.7-16-1.3-22.8,5.6
		c-45.2,45.9-91.1,91.3-136.5,137c-4.5,4.5-8.8,6.7-14.9,5.4c-10.9-2.4-21.9-4.8-32.8-7.2c-0.2-0.7-0.4-1.4-0.7-2.1
		c47.3-47.1,94.6-94.3,142-141.6c-1.5-0.5-2.9-0.8-4.3-1.4c-5.4-2.2-9.4-1-13.7,3.3c-44.9,45.3-90.1,90.3-135.2,135.5
		c-2,2-3.7,2.7-6.5,1.8c-11.7-4-23.6-7.8-36.2-11.9c46.5-46.3,91.9-91.5,137.4-137c-8.4-5.9-12.4-5.6-18.4,0.5
		c-41.9,42.8-83.9,85.6-125.7,128.5c-3.1,3.2-5.2,3.4-9.3,1.5c-7.6-3.5-15.8-6-23.7-8.9c-2.2-0.8-4.4-1.4-7.6-2.4
		c2.4-2.7,4.3-4.8,6.3-6.9c20.3-20.8,40.6-41.6,61-62.5c0.1-0.1-0.1-0.3-0.1-0.5c0,0.2,0.1,0.4,0.1,0.5
		c20.1-20.5,40.1-40.9,60.2-61.4C676.6,1534.3,676.8,1533.8,677.2,1533.1z"/>
	<path d="M22.7,678.3c1.8-8.6,3.4-17.3,5.6-25.8c3.1-12.1,6.5-24,10.1-36c0.8-2.5,2.7-4.9,4.6-6.9c96-96.1,192.1-192.2,288.2-288.2
		c93.4-93.4,186.7-186.7,280.2-280c2.8-2.8,6.6-5.2,10.3-6.3c18.1-5,36.3-9.5,54.5-14.2c1.6-0.4,3.3-0.3,4.2-0.4
		C461.4,239.6,242.3,458.8,22.7,678.3z"/>
	<path d="M1709.6,1048.9c-1.4,7.1-2.5,14.2-4.3,21.2c-3.5,13.7-7.3,27.3-11.3,40.8c-0.7,2.5-2.8,4.9-4.7,6.8
		c-72,72.1-144.1,144.1-216.1,216.2c-117.5,117.5-235,235-352.6,352.4c-2.6,2.6-6.1,4.7-9.5,5.7c-18.1,5-36.3,9.6-54.5,14.2
		c-1.7,0.4-3.5,0.4-4.9,0.5C1270.9,1487.6,1490.1,1268.4,1709.6,1048.9z"/>
	<path d="M49.1,584.7c2.2-6.3,4.7-13.1,7.1-19.9c6.9-19.7,12.6-40,23.9-57.8c4.3-6.8,10.7-12.5,16.5-18.3
		c59.4-59.5,118.9-118.9,178.3-178.3c51.6-51.6,103.2-103.2,154.8-154.8c24.3-24.3,48.4-48.9,73.2-72.8c6-5.8,14.1-9.7,21.8-13.5
		c19.5-9.7,39.9-17.2,61-22.7c0.8-0.2,1.6-0.2,1.8-0.2C408.1,225.8,228.6,405.3,49.1,584.7z"/>
	<path d="M1142.8,1681.2c180.2-179.3,359.4-357.5,538.6-535.8c0.4,0.3,0.9,0.6,1.3,0.8c-1.2,3.2-2.4,6.4-3.5,9.5
		c-5.8,15.4-11.8,30.7-17.3,46.1c-5.7,16.2-16.9,28.1-28.7,39.8c-50.7,50.3-101.2,101-151.7,151.5
		c-51.6,51.6-103.2,103.1-154.8,154.7c-32.5,32.5-64.8,65.3-97.7,97.4c-5.7,5.6-13.7,9.1-21.1,12.7c-19.7,9.7-40.2,17.3-61.5,22.8
		C1145.7,1681.1,1145,1681,1142.8,1681.2z"/>
	<path d="M1264.1,1628.8c123.5-123.5,246.8-246.7,370.8-370.8c-2.7,5.5-4.9,10.2-7.4,14.7c-20.6,38.4-43,75.7-70.8,109.2
		c-16.4,19.7-34.5,38.1-52.4,56.5c-31.9,33-63.9,66-96.7,98.2c-11.1,10.9-24.3,20.1-37.6,28.5c-34.3,21.5-69.1,42-103.8,62.9
		C1265.7,1628.4,1265.1,1628.5,1264.1,1628.8z"/>
	<path d="M100.4,465.4c4.1-8.2,8.6-17.7,13.6-26.8c20.7-38.4,44.8-74.6,73.3-107.6c14.7-17,31.3-32.5,47.1-48.7
		c30-30.7,59.7-61.7,90.5-91.7c11.2-10.9,24.3-20.1,37.6-28.5c34.3-21.5,69.1-42,103.8-62.9c0.5-0.3,1.2-0.4,0.7-0.2
		C344.9,221,222.4,343.5,100.4,465.4z"/>
</g>
</svg>
