<?xml version="1.0" encoding="utf-8"?>
<!-- Generator: Adobe Illustrator 19.2.1, SVG Export Plug-In . SVG Version: 6.00 Build 0)  -->
<svg version="1.1" id="Layer_1" xmlns="http://www.w3.org/2000/svg" xmlns:xlink="http://www.w3.org/1999/xlink" x="0px" y="0px"
	 viewBox="0 0 1727.1 1716.1" style="enable-background:new 0 0 1727.1 1716.1;" xml:space="preserve">
<g>
	<path d="M5,959.8c573.1,0,1144.7,0,1717.8,0c-2.1,11.6-4,22.5-6.3,33.3c-0.2,1.2-2.4,2.2-3.9,2.7c-1.2,0.4-2.6,0.1-4,0.1
		c-563.3,0-1126.6,0-1690,0.2c-5.8,0-8.5-1.7-9.3-7.2C8,979.4,6.5,969.9,5,959.8z"/>
	<path d="M4.7,756.1c2.1-11.5,3.9-22.3,6.1-32.9c0.3-1.3,2.6-2.3,4.2-3c1.1-0.5,2.6-0.1,4-0.1c562.8,0,1125.6,0,1688.4,0
		c2.7,0,5.3,0,9.3,0c1.3,11.9,2.7,23.7,4,36C1149.3,756.1,577.9,756.1,4.7,756.1z"/>
	<path d="M1715.8,1007.6c-2.5,11.1-4.9,21.8-7.2,32.5c-0.7,3-2.4,4.1-5.4,3.8c-2.1-0.2-4.3,0-6.5,0c-556.8,0-1113.6,0-1670.3,0.1
		c-4.1,0-7.1-0.3-8-5.1c-2-10.2-4.3-20.4-6.6-31.2C579.7,1007.6,1147.3,1007.6,1715.8,1007.6z"/>
	<path d="M11.6,708.4c2.5-11.1,4.9-21.8,7.2-32.5c0.7-3,2.4-4.1,5.4-3.8c2.1,0.2,4.3,0,6.5,0c556.8,0,1113.6,0,1670.3-0.1
		c4.1,0,7.1,0.3,8,5.1c2,10.2,4.3,20.4,6.6,31.2C1147.7,708.4,580.1,708.4,11.6,708.4z"/>
	<path d="M1727.1,863.8c0,12.5,0,23.9,0,35.9c-2.4,0.1-4.7,0.3-6.9,0.3c-373.1,0-746.3,0-1119.4,0c-197.8,0-395.6,0-593.4,0
		c-8.1,0-7.3,0.7-7.3-7.2c0-8.3,0.1-16.7-0.1-25c0-3,0.9-4.4,4-4.1c1.2,0.1,2.3,0,3.5,0c570.8,0,1141.6,0,1712.3,0
		C1722.1,863.8,1724.4,863.8,1727.1,863.8z"/>
	<path d="M0.1,816.3c575.9,0,1151.3,0,1726.9,0c0,11.8,0,23.4,0,35.5c-2.3,0.1-4.6,0.4-6.9,0.4c-66.3,0-132.7,0-199,0
		c-504.4,0-1008.9,0-1513.3,0c-1.7,0-3.4,0.3-5-0.1c-1.1-0.3-2.7-1.7-2.7-2.6C0,838.5,0.1,827.6,0.1,816.3z"/>
	<path d="M1726.3,911.7c-1.4,12.6-2.7,24.3-4,36.1c-572.6,0-1144.3,0-1716.2,0C1.8,936.9,3,925.6,3,914.3c0-0.9,1.7-2.1,2.8-2.5
		c1.4-0.4,3-0.1,4.5-0.1c569.6,0,1139.2,0,1708.8,0C1721.3,911.7,1723.6,911.7,1726.3,911.7z"/>
	<path d="M1721.3,768.4c4.2,10.8,3.1,21.9,3,32.8c0,1.1-1.9,2.5-3.2,3.1c-1.1,0.5-2.6,0.1-4,0.1c-568.9,0-1137.9,0-1706.8,0
		c-8.8,0-7.6,0.3-7.4-7.5c0.3-9.4,1-18.8,1.6-28.5C577.6,768.4,1149.3,768.4,1721.3,768.4z"/>
	<path d="M1704.3,1055.2c-2,9.6-3.8,18.7-5.7,27.7c-0.3,1.5-0.7,2.9-1,4.4c-0.7,3-2.1,4.8-5.5,4.4c-1.6-0.2-3.3,0-5,0
		c-549,0-1097.9,0-1646.9,0c-9.3,0-8.8,2.1-11.3-8.3c-2.1-9.2-3.9-18.4-5.9-28.1C583.8,1055.2,1143.7,1055.2,1704.3,1055.2z"/>
	<path d="M1704.4,660.8c-560.8,0-1120.6,0-1681.2,0c1.9-9.6,3.8-18.6,5.6-27.7c0.3-1.5,0.7-2.9,1-4.4c0.6-2.9,2.1-4.8,5.5-4.4
		c1.3,0.2,2.7,0,4,0c549.6,0,1099.3,0,1648.9,0c7.9,0,8.2-0.1,10.1,7.9C1700.5,641.5,1702.3,651,1704.4,660.8z"/>
	<path d="M33.8,1103c552.9,0,1104.4,0,1656.8,0c-2.7,11.8-5.2,23-8,34.3c-0.2,0.9-1.9,1.8-3,2c-1.9,0.3-4,0.2-6,0.2
		c-539.9,0-1079.9,0-1619.8,0c-8.3,0-8.4,0.1-11-7.7C39.7,1122.4,36.9,1113.1,33.8,1103z"/>
	<path d="M1690.9,613.1c-552,0-1102.5,0-1653.6,0c0.5-2.9,0.9-5.5,1.5-8c1.8-8.1,3.8-16.2,5.4-24.3c0.7-3.5,2.5-4.3,5.6-4.1
		c2.2,0.1,4.3,0,6.5,0c538.8,0,1077.6,0,1616.5-0.1c5,0,7.4,1.4,8.8,6.3C1684.2,592.7,1687.5,602.4,1690.9,613.1z"/>
	<path d="M1676.6,1153.9c-4.6,10.7-8.9,20.8-13.3,30.8c-0.5,1.1-2.1,2.1-3.3,2.3c-1.9,0.4-4,0.1-6,0.1c-526.8,0-1053.6,0-1580.4,0
		c-10.1,0-8.1,0.4-11.3-7.6c-3.4-8.4-7.4-16.6-11.5-25.6C592.9,1153.9,1134.2,1153.9,1676.6,1153.9z"/>
	<path d="M50.9,562.2c4.6-10.7,8.9-20.8,13.3-30.8c0.5-1.1,2.1-2,3.4-2.3c1.9-0.4,4-0.1,6-0.1c526.8,0,1053.6,0,1580.4,0
		c10.1,0,8.1-0.4,11.3,7.6c3.4,8.4,7.4,16.6,11.5,25.6C1134.5,562.2,593.2,562.2,50.9,562.2z"/>
	<path d="M71.2,1201.6c528.7,0,1056.6,0,1585.8,0c-3,6.8-5.4,12.9-8.4,18.7c-7.7,14.7-7.9,14.6-24.4,14.6
		c-509.3,0-1018.6,0-1527.9,0.1c-6.6,0-10.9-1.3-13.6-7.7c-3.1-7.2-6.9-14-10.3-21C71.8,1205,71.7,1203.5,71.2,1201.6z"/>
	<path d="M1655.6,514.5c-528.1,0-1055.9,0-1585.2,0c3-6.8,5.4-12.9,8.4-18.7c7.7-14.7,7.9-14.6,24.4-14.6
		c508.8,0,1017.6,0,1526.4-0.2c8.5,0,13.2,2.3,16.1,10.1C1648.5,498.9,1652.1,506.3,1655.6,514.5z"/>
	<path d="M1608.6,1297.3c-2.6,3.9-4.7,6.8-6.5,9.8c-4.6,7.5-9.3,14.9-13.6,22.6c-1.5,2.7-3.2,4.1-6.2,3.7c-1-0.1-2,0-3,0
		c-477,0-953.9,0-1430.9,0.1c-5.7,0-8.4-1.8-11-6.7c-4.7-8.8-10.5-16.9-15.8-25.3c-0.7-1.1-1.3-2.3-2.4-4.2
		C615.7,1297.3,1111.5,1297.3,1608.6,1297.3z"/>
	<path d="M1608.4,419c-496.8,0-992.6,0-1489.6,0c2.5-3.8,4.5-6.7,6.3-9.7c4.7-7.6,9.4-15.2,13.8-23c1.5-2.7,3.2-4,6.3-3.6
		c1,0.1,2,0,3,0c477,0,953.9,0,1430.9-0.1c5.7,0,8.3,1.8,11,6.7c4.7,8.7,10.5,16.9,15.8,25.3C1606.6,415.6,1607.2,416.8,1608.4,419z
		"/>
	<path d="M1578,1344.8c-3.7,5.1-6.9,9.3-9.9,13.6c-4.6,6.5-9,13.1-13.8,19.5c-1.2,1.6-3.4,2.5-5.4,3.2c-1.1,0.5-2.6,0.1-4,0.1
		c-454.2,0-908.3,0-1362.5,0.1c-5.8,0-8.7-1.9-11.7-6.7c-5-8.2-11.1-15.7-16.8-23.4c-1.3-1.8-2.6-3.7-4.5-6.4
		C625.9,1344.8,1101.2,1344.8,1578,1344.8z"/>
	<path d="M1577.9,371.3c-476.6,0-951.9,0-1428.5,0c3.8-5.2,7-9.5,10.1-13.9c4.5-6.4,8.8-12.9,13.5-19.1c1.3-1.7,3.7-2.5,5.7-3.5
		c0.8-0.4,2-0.1,3-0.1c454.2,0,908.3,0,1362.5-0.1c4.1,0,6.8,1.2,9.2,4.4c6.6,8.7,13.5,17.3,20.2,25.9
		C1574.9,366.8,1576,368.6,1577.9,371.3z"/>
	<path d="M93.8,466.5c6.1-10.8,11.8-21,17.7-31.1c0.7-1.1,2.7-1.7,4.2-1.9c2.1-0.3,4.3-0.1,6.5-0.1c495.6,0,991.2,0,1486.9-0.1
		c5.8,0,9.1,0.9,11.5,7.1c2.9,7.7,7.8,14.6,11.8,21.8c0.6,1.1,0.9,2.4,1.5,4.3C1120.4,466.5,607.5,466.5,93.8,466.5z"/>
	<path d="M93.9,1249.4c513.6,0,1026.2,0,1539.8,0c-6.2,10.9-11.9,21.1-17.8,31.2c-0.6,1-2.4,1.7-3.8,1.9c-1.9,0.3-4,0.1-6,0.1
		c-495,0-989.9,0-1484.9,0.2c-6.8,0-10.7-2.1-13.6-8C103.5,1266.5,98.8,1258.3,93.9,1249.4z"/>
	<path d="M1541.3,1392.6c-2.8,3.7-4.9,6.5-7.1,9.3c-6.5,8.3-13.1,16.7-19.7,24.9c-0.8,1-2.3,1.8-3.7,2c-1.9,0.4-4,0.1-6,0.1
		c-427.5,0-855,0-1282.5,0.1c-6.1,0-10-1.5-13.6-6.7c-5.7-8.4-12.5-15.9-18.7-23.9c-1.3-1.6-2.2-3.5-3.7-5.9
		C638.3,1392.6,1089.1,1392.6,1541.3,1392.6z"/>
	<path d="M185.9,323.3c4-4.9,7.4-8.8,10.6-12.9c5.4-6.9,10.7-13.9,16.2-20.7c0.9-1.1,2.5-2.1,3.9-2.4c1.7-0.4,3.6-0.1,5.5-0.1
		c427.8,0,855.7,0,1283.5-0.1c5.7,0,9.4,1.6,12.7,6.4c5.8,8.4,12.7,16.2,19,24.3c1.2,1.5,2.1,3.3,3.7,5.6
		C1089.3,323.3,638.5,323.3,185.9,323.3z"/>
	<path d="M226.8,275.7c0.2-0.7,0.2-1.3,0.5-1.6c9.9-10.9,19.8-21.9,29.9-32.7c1.1-1.2,3.1-1.7,4.8-1.9c3-0.3,6-0.1,9-0.1
		c394.5,0,788.9,0,1183.4-0.3c10.9,0,18.4,3,24.9,11.5c6,7.9,13.2,14.9,19.9,22.3c0.6,0.7,1,1.6,1.8,2.8
		C1076,275.7,651.5,275.7,226.8,275.7z"/>
	<path d="M1500.9,1440.4c-0.5,0.9-0.6,1.6-1,2c-9.5,10.4-18.9,20.9-28.6,31.2c-1.6,1.7-4.5,2.5-6.9,2.9c-2.7,0.5-5.6,0.1-8.5,0.1
		c-394.5,0-788.9,0-1183.4,0.3c-10.6,0-17.8-3-24.1-11.1c-6.1-7.8-13.2-14.9-19.9-22.3c-0.7-0.8-1.3-1.8-2.2-3.1
		C651.5,1440.4,1076,1440.4,1500.9,1440.4z"/>
	<path d="M274.8,1488.3c392.5,0,785.1,0,1178.8,0c-3.3,2.7-5.8,4.7-8.2,6.9c-9.2,8.7-18.2,17.6-27.5,26.2c-1.7,1.6-4.5,2.5-6.9,2.9
		c-3.3,0.5-6.6,0.1-10,0.1c-361,0-721.9,0-1082.9,0.1c-4.2,0-7.8-0.8-10.9-3.7c-11.1-10.5-22.2-20.8-33.3-31.2
		C274.3,1489.1,274.6,1488.7,274.8,1488.3z"/>
	<path d="M1452.5,227.8c-392.5,0-785,0-1178.7,0c3.2-2.7,5.8-4.6,8.1-6.8c8.7-8.2,17.5-16.4,25.9-24.9c3.2-3.3,6.4-4.4,10.9-4.4
		c72.3,0.1,144.6,0.1,217,0.1c288.9,0,577.9,0,866.8-0.1c7.1,0,12.7,1.5,17.9,6.4c10.4,9.8,21.2,19.1,31.8,28.7
		C1452.4,226.7,1452.4,227.2,1452.5,227.8z"/>
	<path d="M1398.9,179.8c-356.2,0-711.7,0-1068.7,0c3.7-2.9,6.3-5,8.9-7.1c11.6-8.9,23.1-17.8,34.9-26.5c1.8-1.4,4.4-2,6.8-2.3
		c2.9-0.4,6-0.1,9-0.1c316.5,0,632.9,0,949.4-0.1c8,0,14.9,1.2,21.2,6.3C1372.9,160,1385.7,169.6,1398.9,179.8z"/>
	<path d="M330.7,1536.2c355.7,0,710.4,0,1066.7,0c-6.4,4.9-11.7,9-17,13.1c-9,6.9-17.8,13.8-26.9,20.5c-1.8,1.4-4.4,2-6.8,2.3
		c-2.9,0.4-6,0.1-9,0.1c-318.3,0-636.7,0-955-0.1c-3.3,0-7.3-1.2-10-3.1c-13.4-9.8-26.5-20-39.6-30.1
		C332.5,1538.3,332,1537.6,330.7,1536.2z"/>
	<path d="M1331.5,131.8c-311.3,0-621.8,0-932.3,0c-0.2-0.4-0.4-0.8-0.5-1.1c6.6-4.5,13.1-9.3,19.9-13.5c11.5-6.9,23.2-13.5,35-19.9
		c2-1.1,4.8-1.3,7.2-1.3c75.8-0.1,151.7-0.1,227.5-0.1c189.8,0,379.6,0,569.5-0.1c9.2,0,17.6,0.9,25.6,6c15.4,9.8,31.1,19,46.7,28.4
		C1330.4,130.5,1330.7,130.9,1331.5,131.8z"/>
	<path d="M399.3,1584c309.6,0,619.2,0,928.7,0c0.6,0.6,1.2,1.2,1.7,1.9c-1.2,0.4-2.6,0.6-3.7,1.2c-14.7,8.9-29.6,17.6-44,27.1
		c-7.5,4.9-15.2,6-23.9,6c-263.3-0.1-526.6-0.1-789.9,0c-8.2,0-15.4-1.2-22.5-5.8c-13.2-8.6-27-16.2-40.5-24.3
		c-2.3-1.4-4.4-3.3-6.6-4.9C399,1584.7,399.2,1584.4,399.3,1584z"/>
	<path d="M480.8,1632.1c255.6,0,510.1,0,764.6,0c0.1,0.3,0.2,0.7,0.3,1c-7.5,3.6-14.9,7.5-22.6,10.8c-18.3,7.8-36.7,15.3-55.2,22.8
		c-2.1,0.8-4.5,1.3-6.7,1.3c-198.3,0.1-396.6,0.1-595-0.2c-6.3,0-12.8-3.2-18.8-5.8c-21.2-9-42.3-18.4-63.4-27.7
		C483.2,1634,482.5,1633.3,480.8,1632.1z"/>
	<path d="M481.7,82.9c7.7-3.7,15.3-7.6,23.1-10.9c18.2-7.7,36.4-15.2,54.7-22.7c2.1-0.8,4.5-1.3,6.7-1.3
		c198.3-0.1,396.6-0.1,595,0.2c6.6,0,13.4,3.3,19.8,6c20.9,8.9,41.6,18.2,62.4,27.4c0.8,0.4,1.5,1.1,3.2,2.3
		c-255.6,0-510.1,0-764.6,0C481.9,83.6,481.8,83.3,481.7,82.9z"/>
	<path d="M1126,1680.8c-4.6,1.6-9.1,3.6-13.7,4.8c-17.5,4.7-34.8,9.9-52.5,13.7c-21.6,4.7-43.5,8-65.2,12.2
		c-20.4,3.9-40.9,4.6-61.6,4.5c-53.6-0.3-107.3,0.2-160.9-0.3c-13.9-0.1-27.8-2.6-41.5-5c-22.9-3.9-45.9-8-68.6-13
		c-15.7-3.5-31-8.6-46.5-13c-3.9-1.1-7.7-2.6-11.3-4.9c173.9,0,347.8,0,521.6,0C1125.8,1680.2,1125.9,1680.5,1126,1680.8z"/>
	<path d="M1123.2,36.3c-173.8,0-347.7,0-521.5,0c-0.1-0.3-0.2-0.7-0.2-1c4.4-1.6,8.7-3.5,13.2-4.7c19.1-5.2,38.1-10.8,57.4-15
		c20.1-4.4,40.6-7.2,60.9-11.1c20.2-3.8,40.6-4.6,61.1-4.5c53.7,0.3,107.3-0.2,161,0.3c14,0.2,28.1,2.6,42.1,5
		c22.8,3.8,45.6,7.8,68.1,13c19.7,4.5,38.9,10.7,58.4,16.2C1123.5,35.1,1123.3,35.7,1123.2,36.3z"/>
</g>
</svg>
