<?xml version="1.0" encoding="utf-8"?>
<!-- Generator: Adobe Illustrator 19.2.1, SVG Export Plug-In . SVG Version: 6.00 Build 0)  -->
<svg version="1.1" id="Layer_1" xmlns="http://www.w3.org/2000/svg" xmlns:xlink="http://www.w3.org/1999/xlink" x="0px" y="0px"
	 viewBox="0 0 1727.5 1727.4" style="enable-background:new 0 0 1727.5 1727.4;" xml:space="preserve">
<path d="M863.6,1727.4C384.8,1727.8,0,1342.4,0,863.7C0,384.5,385.6-0.3,864.1,0c479.3,0.3,863.6,385.9,863.4,864
	C1727.3,1343.1,1342,1728,863.6,1727.4z M48,863.4c-0.3,452.5,361.8,815.7,815.1,816.2c452.6,0.4,816.2-361.6,816.5-815.2
	C1680,411.7,1317.7,48.3,864.2,48C411.4,47.7,48,410,48,863.4z"/>
<path d="M863.6,1667.9C423.9,1670.6,58.9,1303.3,59,863.6c0.1-440,365.6-805,805.4-804.6c439.9,0.4,804.5,366,804.1,805.4
	C1668.2,1304,1303,1670.7,863.6,1667.9z M1620.1,863.8c2.6-417.1-338.7-756.7-756-756.9C446.8,106.7,107,446.2,106.9,863.8
	c0,417.1,339.3,756.8,756.6,756.9C1280.8,1620.8,1622.6,1281.3,1620.1,863.8z"/>
<path d="M863.4,1609.1c-406.3,2.1-745.6-339.8-745.5-745.6c0.2-406.6,340.6-746,746.5-745.6c406.6,0.4,745.5,340.8,745.2,746.3
	C1609.3,1270.7,1269,1611.6,863.4,1609.1z M863.7,169.1C479.3,167.6,169,478.8,168.8,863.3c-0.2,384.8,310.1,695.4,695,695.4
	c384.5,0,694.9-310.3,694.9-695C1558.7,479.2,1248.5,167.5,863.7,169.1z"/>
<path d="M863.6,1547.4c-379.2-0.7-683.7-305.7-683.4-684.2c0.3-379.1,305.7-683.2,683.9-683c379.1,0.3,683.3,305.7,683.1,683.8
	C1547.1,1242.9,1241.9,1546.9,863.6,1547.4z M863.6,228c-351-1.1-635.8,284.7-635.9,635.6c-0.1,351.1,284.9,636.2,635.9,636.3
	c351,0.1,636.2-284.9,636.2-636.1C1499.8,512.7,1214.7,226.7,863.6,228z"/>
<path d="M863.8,1487.9c-343,1.9-624.7-281.2-624.6-624.4c0.1-342.8,281.5-624.3,624.5-624.4c343.2,0,624.8,281.8,624.6,624.8
	C1488.2,1206.9,1206.6,1489.7,863.8,1487.9z M1440.1,864c1.6-316.6-258.1-576.6-575.9-576.8c-316.6-0.3-576.4,258.1-577.1,575.4
	c-0.7,317.2,258.3,577.6,576.2,577.8C1180.1,1440.7,1441.3,1181.9,1440.1,864z"/>
<path d="M863.7,1429.1c-309.3,1.4-565.7-255.8-565.6-565.6c0.1-309.1,256.1-565.4,565.7-565.3c309.7,0,565.5,256.4,565.6,565.4
	C1429.5,1173.5,1172.9,1430.5,863.7,1429.1z M863.6,349.1c-53.8-0.1-106.5,7.1-157.9,23.1c-45,14-87,34.4-125.9,60.8
	c-48.3,32.8-90.2,72.4-126.1,118.4c-39.3,50.4-68.1,106.2-85.3,167.9c-10.9,38.8-16.9,78.4-18.7,118.5c-2.7,62.5,3.9,124,22.6,183.9
	c14.1,45.3,34.7,87.5,61.4,126.8c30.7,45,67.4,84.5,109.6,118.8c52.5,42.6,110.9,73.6,176.1,91.8c38.8,10.9,78.4,16.9,118.5,18.7
	c62.5,2.7,124-3.9,183.9-22.6c45.3-14.1,87.5-34.7,126.8-61.4c45.2-30.8,84.6-67.7,119.1-110c22.3-27.4,41.5-56.8,57.5-88.2
	c13.2-25.9,24.3-52.8,32-80.9c5.1-18.6,10-37.3,13.1-56.3c3.5-21.3,6.2-42.9,6.9-64.5c0.9-27.4,0.5-55-1.3-82.4
	c-1.8-27.5-7-54.7-13.9-81.5c-8.8-34.4-21.2-67.4-37.3-99c-20-39.2-45-75.1-74.4-107.8c-48.3-53.8-104.1-97.7-170-128.3
	c-35.1-16.3-71.6-28-109.6-35.6C935.4,352.3,899.6,349.3,863.6,349.1z"/>
<path d="M1367.4,864c3.8,274.4-229.6,507.5-503.9,503.4c-274.3,3.8-507.5-229.6-503.4-503.9C356.3,589.1,589.7,356,864,360.1
	C1138.4,356.3,1371.5,589.7,1367.4,864z M863.5,1319.5c248.3,3.8,456.5-207.2,456.8-455.2c0.3-248.6-208-457-456.1-457.2
	c-248.5-0.2-456.9,208.1-457.1,456.2C407,1111.9,615.3,1323.1,863.5,1319.5z"/>
<path d="M863.7,1307.9c-239.4,5.4-449.6-204.8-444.1-444.4c-5.3-239.3,204.8-449.5,444.5-444c239.3-5.2,449.5,204.9,443.8,444.6
	C1313.1,1103.3,1103.2,1313.4,863.7,1307.9z M863.8,467.4c-213.5-5.1-401.2,182.7-396.4,395.8c-5.3,213.9,182.8,401.9,396.3,396.9
	c213.5,5.1,401.4-182.9,396.4-396.3C1265.2,650.4,1077.3,462.4,863.8,467.4z"/>
<path d="M1249.1,863.9c3.4,211-174.6,386.2-385.7,386c-210.8-0.2-385.8-175.3-385.7-386.3c0.1-211,175.4-386.2,386.5-386
	C1074.9,477.8,1252.7,653,1249.1,863.9z M529.1,855.1c0,31.5,1.9,54.2,6.1,76.7c5.4,28.4,14.3,55.6,27,81.5
	c17.7,36,41.8,67.2,70.7,94.8c28.3,26.9,60.1,48.6,96,64c33.8,14.4,69,22.5,105.7,25.2c44.3,3.2,87.8-0.4,130.4-13
	c35.1-10.4,67.5-26.7,96.8-48.8c52-39.2,91.6-88.1,115.1-149.3c10.3-26.7,16.6-54.4,19.4-82.8c3.2-32.3,2.7-64.5-2.4-96.6
	c-4.4-27.9-11.9-54.8-23.3-80.7c-15-34-35.7-64.3-61.1-91.4c-53.1-56.6-117.6-91.7-194.8-102.2c-39.9-5.5-79.7-4.6-119.4,2.8
	c-28.1,5.2-55,14.1-80.6,26.6c-36.3,17.8-67.9,42-95.7,71.2c-28.8,30.3-51.5,64.5-67,103.3C536.1,777.3,529,819.9,529.1,855.1z"/>
<path d="M863.8,1187.4c-178.4,2.2-324.3-145.4-324.2-323.8c0.1-178.1,145.8-323.9,324-323.9c178.4,0,324,145.8,324.2,323.8
	C1188,1042,1042,1189.5,863.8,1187.4z M1139.5,870.5c4.9-156-120.1-279.5-268.6-282.9C714.6,584,591,708,587.6,856.6
	c-3.5,156.3,120.5,279.8,269.2,283.1C1013.1,1143.3,1137.9,1019.3,1139.5,870.5z"/>
<path d="M863.5,1127.9c-143.3,3.4-264.7-120.7-264.7-264.3c0.1-143.4,121.5-265,265.5-264.8c143.1,0.2,264.9,121.6,264.4,265.8
	C1128.3,1007.5,1007.1,1131.5,863.5,1127.9z M864.1,647.4c-117.6-3.2-216.9,98.3-217.3,215.5c-0.4,118,99,217.6,216.6,217.8
	c117.7,0.2,217.1-99.1,217.3-216.6C1080.9,746.4,981.6,644.6,864.1,647.4z"/>
<path d="M863.9,1069.1C752.8,1071,658,974.9,658,863.7c0-110.9,94.6-205.6,205.5-205.6c111.2-0.1,205.7,94.6,205.9,205.3
	C1069.7,974.7,974.9,1070.8,863.9,1069.1z M1018.4,864c1.7-85-69.3-155.1-154.4-155.2c-85.2-0.1-154.8,69.8-155.2,154.2
	c-0.4,85.5,69.7,155.6,154.7,155.7C948.7,1018.8,1019.8,948.9,1018.4,864z"/>
<path d="M1007.4,863.6c0.1,78.8-64.4,143.5-143.3,143.7c-78.9,0.3-143.9-64.5-144-143.5C720,784.9,784.9,720.1,863.9,720
	C942.1,719.9,1007.8,785.5,1007.4,863.6z M863.7,959.5c52.4,0,95.7-43.1,95.9-95.3c0.1-52.7-43-96.1-95.5-96.2
	c-52.6-0.1-96,43.1-96.1,95.6C767.9,916.2,811.1,959.5,863.7,959.5z"/>
<path d="M863.4,947.9c-43.2,1.7-84.3-40.6-84.2-84.4c0.1-43.2,41-84.4,84.7-84.4c43.4,0,84.7,41.1,84.5,85.1
	C948.1,907.3,907.3,949.9,863.4,947.9z"/>
</svg>
