<?xml version="1.0" encoding="utf-8"?>
<!-- Generator: Adobe Illustrator 19.2.1, SVG Export Plug-In . SVG Version: 6.00 Build 0)  -->
<svg version="1.1" id="Layer_1" xmlns="http://www.w3.org/2000/svg" xmlns:xlink="http://www.w3.org/1999/xlink" x="0px" y="0px"
	 viewBox="0 0 1727.4 1727" style="enable-background:new 0 0 1727.4 1727;" xml:space="preserve">
<g>
	<path d="M407.9,863.2c0-21.3,0.5-42.7-0.2-64c-0.4-12.3,2.5-23.5,6.8-34.8c16-41.8,31.5-83.9,47.6-125.7c2.1-5.4,5.9-10.3,9.7-14.8
		c31.4-37.5,62.9-75,94.7-112.2c4-4.7,10.3-7.7,15.8-11c37.9-22.5,76.1-44.7,113.8-67.6c9.2-5.6,19.1-7.3,29.2-9.1
		c30.1-5.5,60.2-10.9,90.3-16.3c14.7-2.6,29.4-6,44.3-7.4c8.4-0.8,17.1,1.5,25.6,2.9c22.3,3.7,44.6,7.8,66.8,11.7
		c22.8,4,45.6,7.6,68.3,12.2c5.9,1.2,11.4,5.1,16.8,8.3c40.2,23.7,80.4,47.2,120.2,71.4c6.8,4.2,11.9,11.4,17.2,17.7
		c29.4,34.7,58.7,69.4,87.6,104.5c4.1,4.9,6.4,11.5,8.8,17.7c13.1,34.3,26,68.6,38.9,102.9c3.8,10.1,7.6,20.2,11.3,30.3
		c0.8,2.3,1,4.9,1,7.3c0.1,46.7-0.3,93.3,0.2,140c0.1,12.1-2.2,23.2-6.5,34.3c-16.1,42.2-31.6,84.6-48.1,126.6
		c-2.9,7.4-8.9,13.8-14.2,20.1c-29.9,35.8-59.7,71.6-90.3,106.8c-5.3,6.1-13.7,9.7-20.9,14c-37.9,22.5-75.7,45.2-114,67.1
		c-7.2,4.1-16.3,5-24.7,6.6c-30.3,5.6-60.6,10.9-90.9,16.2c-15.1,2.7-30.1,6.1-45.3,7.4c-8.9,0.8-18.1-1.7-27.1-3.1
		c-19.2-3.2-38.3-6.6-57.5-10.1c-14.6-2.6-29.1-5.3-43.7-8c-7.7-1.4-15.4-3-23.1-3.9c-9-1-16.2-5.5-23.6-9.9
		c-40.3-23.8-80.7-47.4-120.6-71.7c-6.9-4.2-12-11.8-17.4-18.2c-29.2-34.6-58.4-69.2-87.2-104.1c-3.9-4.7-6.1-11-8.3-16.8
		c-12-31.5-23.8-63-35.7-94.6c-5-13.2-10-26.4-14.8-39.6c-0.7-1.8-0.8-3.9-0.8-5.9C407.9,914.8,407.9,889,407.9,863.2z"/>
	<path d="M1322.4,219.4c0,28.2-0.1,56.3,0.1,84.5c0,4-0.9,5.9-5.2,6.6c-24.7,4.2-49.4,8.8-74.1,13.3c-19.8,3.6-39.6,7.3-59.4,11
		c-2.5,0.5-5,0.6-7.4,1.1c-11.2,2.3-8.3,3.1-12.2-7.2c-11.2-29.6-21.8-59.5-32.6-89.3c-5.4-14.8-10.6-29.7-16.1-44.5
		c-1.1-2.9-0.3-4.2,2.1-5.6c28.5-16.2,57-32.5,85.5-48.8c21.7-12.4,43.5-24.8,65.2-37.3c2.3-1.3,3.9-1.6,6.2,0.1
		c13.5,10.1,28.2,18,43.7,24.5c3.4,1.4,4.3,3.2,4.3,6.7C1322.3,162.7,1322.4,191,1322.4,219.4z"/>
	<path d="M1488.3,509.2c9.4,1.6,18.4,3.2,27.4,4.8c22.4,3.9,44.9,7.9,67.3,11.8c26.4,4.6,52.8,9.1,79.1,14c1.9,0.4,4.2,3.1,5,5.2
		c4.4,12.3,8.4,24.8,12.6,37.2c0.2,0.6,0.2,1.4,0.5,1.9c5.9,8.9,2.6,15.4-3.8,23c-34.9,40.9-69.2,82.2-103.7,123.4
		c-0.9,1.1-2,2.2-3.2,3.6c-12.5-7.3-24.7-14.4-37-21.6c-30.5-17.8-61-35.5-91.6-53.3c-6.3-3.7-6.4-3.6-3.8-10.7
		c8-22.1,16.2-44.3,24.3-66.4c8-21.8,15.9-43.7,23.9-65.5C1486,514.2,1487.1,512,1488.3,509.2z"/>
	<path d="M157.8,734.1c-9.7-11.5-19.2-22.7-28.5-33.8c-27.9-33.3-55.7-66.7-83.6-100c-2.3-2.7-2.7-4.9-1.5-8.4
		c5.5-15.1,10.4-30.4,15.5-45.7c1.3-3.8,2.7-6.2,7.6-7c26.8-4.3,53.4-9.4,80.1-14.1c29.2-5.1,58.3-10.2,87.5-15.3
		c1.3-0.2,2.6-0.2,4.4-0.3c4,10.8,8.1,21.6,12.1,32.5c7.5,20.6,15,41.2,22.5,61.7c5.8,15.9,11.4,31.9,17.4,47.7
		c1.2,3.3,0.5,4.6-2.3,6.2c-28.5,16.5-57,33.2-85.5,49.9C188.4,716.3,173.4,725,157.8,734.1z"/>
	<path d="M158,993c24.8,14.4,49.1,28.6,73.4,42.9c19.2,11.2,38.3,22.5,57.6,33.5c2.9,1.7,3.4,3.1,2.2,6.3
		c-9,24.3-17.8,48.6-26.6,72.9c-7.4,20.4-14.8,40.9-22.2,61.3c-0.9,2.5-2,4.9-3.3,7.8c-7.6-1.2-15.3-2.4-23-3.7
		c-22.3-3.9-44.6-7.7-66.8-11.7c-20.8-3.7-41.6-7.4-62.4-11.1c-6.7-1.2-13.4-2.8-20.2-3.4c-4.1-0.3-5.5-2.4-6.6-5.6
		c-4.2-12.4-8.3-24.8-12.5-37.3c-0.2-0.6-0.2-1.4-0.5-1.9c-5.8-8.8-2.7-15.4,3.7-23c35-41,69.4-82.5,104-123.8
		C155.8,995.3,156.7,994.3,158,993z"/>
	<path d="M1488,1217.5c-8.1-22.1-16.2-43.9-24.1-65.7c-7.6-20.9-15.2-41.8-22.8-62.7c-1.7-4.7-3.2-9.4-5.1-14
		c-1.2-2.9-0.3-4.1,2.1-5.5c21.1-12.2,42.1-24.6,63.2-36.9c21.9-12.8,43.8-25.5,65.8-38.3c0.7-0.4,1.5-0.7,2.7-1.3
		c5.3,6.3,10.7,12.5,16,18.8c32.1,38.4,64.2,76.9,96.4,115.3c2,2.4,2.4,4.4,1.3,7.6c-5.5,15.3-10.5,30.8-15.7,46.2
		c-1.3,3.8-2.7,6.2-7.6,7c-26.8,4.3-53.4,9.4-80.1,14.1c-29.1,5.1-58.3,10.2-87.5,15.3C1491.2,1217.5,1489.8,1217.4,1488,1217.5z"/>
	<path d="M399.7,393.8c0,24.2-0.2,48.3,0.1,72.5c0.1,5.1-2,6.4-6.5,7.1c-17.3,2.7-34.5,5.7-51.7,8.5c-20,3.3-40.1,6.4-60.1,9.7
		c-10.2,1.7-20.4,3.4-30.5,5.4c-4.6,0.9-6.7-0.2-8.3-4.9c-7.1-21.2-14.6-42.4-22-63.5c-11.3-32.3-22.6-64.5-33.8-96.8
		c-0.5-1.3-0.4-3.5,0.4-4.5c10.6-13.4,21.3-26.7,31.9-40c2.3-2.9,5.1-3.1,8.4-2.5c32.4,5.8,64.8,11.7,97.3,17.4
		c23.8,4.2,47.5,8.3,71.3,12.2c3.8,0.6,3.4,3,3.4,5.4c0,16.8,0,33.7,0,50.5C399.6,378.1,399.6,386,399.7,393.8z"/>
	<path d="M405.1,1507.6c0-28.2,0.1-56.3-0.1-84.5c0-4.1,1.1-5.8,5.3-6.5c24.7-4.2,49.4-8.8,74.1-13.3c20-3.6,39.9-7.4,59.8-11.1
		c2.3-0.4,4.6-0.6,6.9-1c8.9-1.5,9-1.5,11.9,6.9c15.1,43.4,30.2,86.8,45,130.3c2.8,8.1,4.2,6.2-4.5,11.3
		c-48.4,28.2-96.9,56.4-145.4,84.5c-1.3,0.7-3.6,0.8-4.9,0.1c-14.9-8.1-29.6-16.4-44.4-24.5c-3.1-1.7-3.9-3.9-3.9-7.2
		C405.1,1564.2,405,1535.9,405.1,1507.6z"/>
	<path d="M558.2,337.3c-14.6-2.4-27.7-4.6-40.8-6.8c-20.5-3.4-41-6.7-61.5-10.1c-14.8-2.5-29.5-5-44.3-7.4c-3.4-0.5-3.7-2.5-3.7-5.3
		c0.1-15.7,0-31.3,0-47c0-41.7,0.1-83.3-0.1-125c0-5.5,1-8.9,6.3-11.6c13.3-6.8,26.2-14.3,39.4-21.4c1.3-0.7,3.6-0.6,4.9,0.1
		c37.2,21.1,74.3,42.4,111.5,63.7c12.8,7.3,25.5,14.9,38.5,21.8c4.3,2.3,4.7,4.6,3.2,8.6c-6.3,16.8-12.3,33.7-18.5,50.5
		c-10.6,28.8-21.2,57.6-31.9,86.4C560.5,335.3,558.9,336.5,558.2,337.3z"/>
	<path d="M1319.8,1507.8c0,29.7,0,59.3-0.1,89c0,1.1-1.1,2.8-2.1,3.3c-14.6,8.2-29.2,16.4-43.9,24.4c-1.1,0.6-3.3,0.4-4.5-0.3
		c-36.9-21-73.8-42.1-110.7-63.1c-13-7.4-25.9-14.9-38.8-22.3c-5.7-3.3-5.7-3.2-3.2-10c5.9-16.1,11.6-32.2,17.5-48.2
		c10.6-29,21.4-57.9,31.9-86.9c1.3-3.5,2.9-4.1,6.2-3.5c25.4,4.4,50.8,8.7,76.3,13c21.8,3.7,43.6,7.4,65.5,10.6
		c4.8,0.7,5.8,2.7,5.8,7.1c-0.2,29-0.1,58-0.1,87C1319.6,1507.8,1319.7,1507.8,1319.8,1507.8z"/>
	<path d="M1104.2,186.1c-1.6,0.6-3.3,0.9-4.8,1.7c-30.7,18.2-61.3,36.4-91.9,54.6c-11,6.5-22,13-32.9,19.7c-3,1.8-4.6,1.7-7-1.1
		c-31.8-37.3-63.8-74.6-95.9-111.8c-1.8-2.1-2.1-3.4-0.1-5.8c36.8-43.8,73.4-87.7,110.1-131.7c2-2.3,3.9-3.7,7.1-3.3
		c11.8,1.7,23.7,3.3,35.5,5.1c5.1,0.7,10.2,1.4,15.2,2.8c2,0.5,4.6,2.4,5.3,4.2c8.8,24.3,17.3,48.8,25.8,73.2
		c6.5,18.5,12.9,37,19.4,55.4c3.9,11.1,7.8,22.2,11.7,33.4c0.2,0.5,0.3,0.9,0.5,1.4C1102.8,184.7,1103.5,185.4,1104.2,186.1z"/>
	<path d="M736,7.8c5.7-0.9,8.4,2.6,11.5,6.4c35.9,43.1,71.8,86.1,107.9,129c2.1,2.5,2.2,3.7,0.1,6.1c-31.8,37-63.5,74-95.1,111.1
		c-3,3.5-4.9,3.3-8.6,1.1c-40.9-24.6-82-48.9-123.1-73.3c-2.8-1.6-4-3-2.7-6.7c10.1-28.3,19.9-56.7,29.8-85
		c8.4-24.1,16.8-48.2,25.1-72.4c1.7-5,4.1-7.8,9.9-8.6C705.9,13.5,721,10.5,736,7.8z"/>
	<path d="M991.6,1718.6c-5.7,1.5-8.6-2-11.9-5.9c-35.9-43.1-71.8-86.1-107.9-129c-2.2-2.6-1.9-3.8,0.1-6.2
		c31.8-37,63.5-73.9,95.1-111.1c2.9-3.4,4.7-3.2,8.2-1.2c41,24.5,82,48.9,123.1,73.3c2.9,1.7,4.3,3,2.9,7
		c-10.1,28.1-19.7,56.4-29.6,84.6c-8.7,25.1-17.6,50.1-26.2,75.2c-1.3,3.7-3.3,5.2-7.1,5.7c-12.6,2-25.2,4.4-37.8,6.5
		C997.6,1718.1,994.6,1718.3,991.6,1718.6z"/>
	<path d="M735.7,1719c-10.8-1.8-21.6-3.7-32.4-5.5c-5.1-0.9-10.1-1.9-15.2-2.6c-3-0.4-4.7-1.8-5.7-4.7c-9.5-27.3-19-54.5-28.6-81.8
		c-7.3-21-14.7-42-22-63c-1.9-5.5-3.5-11.1-5.7-16.4c-1.3-3.1-0.2-4.6,2.2-6c25.7-15.2,51.3-30.4,77-45.7c16-9.5,31.9-19,47.8-28.6
		c2.7-1.7,4.3-1.7,6.6,1c32,37.5,64.1,74.8,96.2,112.1c1.7,2,1.9,3.3,0.1,5.5c-36,42.9-72,85.9-107.9,129
		C744.7,1716.2,741.9,1720.5,735.7,1719z"/>
	<path d="M245.1,1226.3c9.7,1.8,19,3.6,28.3,5.3c23.7,4.4,47.4,8.6,71.2,13c16.4,3,32.7,6,49,9.2c1.3,0.3,2.4,2.2,3.2,3.6
		c0.5,0.9,0.1,2.3,0.1,3.5c0,47.3-0.1,94.6,0.1,142c0,4.6-1,6.5-6,7.3c-28.1,4.6-56.1,9.6-84.1,14.5c-21,3.7-41.9,7.5-62.9,11.2
		c-6.9,1.2-13.8,2.5-20.7,3.4c-1.6,0.2-4-0.1-4.9-1.1c-10.5-12-20.7-24.2-31-36.3c-3.4-4-4.4-7.9-2.2-13.5
		c8.1-20.7,15.4-41.7,23-62.6c11.5-31.5,23-63,34.5-94.4C243.5,1229.9,244.2,1228.4,245.1,1226.3z"/>
	<path d="M1330.5,395.5c0-23.8,0.1-47.7-0.1-71.5c0-4.2,0.5-6.3,5.6-7.1c34.1-5.6,68.2-11.7,102.2-17.7c20.8-3.7,41.6-7.4,62.4-11.3
		c4.8-0.9,8-0.1,11.4,4.1c7.8,9.9,16.3,19.2,24.8,28.5c6.5,7.1,7.1,13.9,3.5,23.2c-13.2,34-25.3,68.5-37.9,102.7
		c-6.1,16.7-12.3,33.3-18.3,50c-1.2,3.2-2.8,4.1-6.3,3.5c-32-6.1-64.1-11.9-96.1-17.8c-15.9-2.9-31.7-6-47.6-8.8
		c-3.8-0.7-3.6-3.2-3.6-5.9C1330.5,443.5,1330.5,419.5,1330.5,395.5z"/>
	<path d="M1727.4,863.6c0,7.8-0.1,15.7,0.1,23.5c0.1,3.2-1,5-3.9,6.7c-50,28.5-99.9,57-149.8,85.7c-4,2.3-5.7,0.4-7.8-2.1
		c-25.1-30.2-50.3-60.4-75.4-90.6c-5.5-6.6-10.9-13.3-16.6-19.8c-2.2-2.6-2-4.3,0.1-6.8c30.5-36.5,61-73,91.4-109.7
		c3.3-4,5.5-4.3,10.1-1.7c49.3,28.4,98.7,56.5,148.1,84.6c2.6,1.5,3.9,3.1,3.8,6.2C1727.2,847.6,1727.4,855.6,1727.4,863.6z"/>
	<path d="M158.8,744.6c0.9,1.8,1.6,3.8,2.8,5.3c20.1,24.3,40.2,48.5,60.4,72.7c10.5,12.6,21,25.2,31.6,37.8c2,2.4,2,4.1,0,6.5
		c-30.8,36.9-61.6,73.8-92.3,110.8c-2.6,3.1-4.6,3.6-8.3,1.5c-32.1-18.6-64.4-37-96.6-55.4c-17.7-10.1-35.5-20.1-53.1-30.4
		c-1.6-0.9-3-3.6-3.1-5.5c-0.2-16.2-0.3-32.3,0-48.5c0-2,1.7-4.7,3.5-5.7c50-28.8,100.1-57.4,150.2-86c1-0.6,2.1-1,3.1-1.5
		C157.6,745.6,158.2,745.1,158.8,744.6z"/>
	<path d="M1330.5,1331.8c0-23.8,0.1-47.7-0.1-71.5c0-5,1.7-6.3,6.5-7c16.1-2.3,32.2-5.3,48.2-8c20.2-3.3,40.4-6.6,60.6-9.9
		c10.3-1.7,20.7-3.5,30.9-5.5c4.5-0.9,6.5,0.3,7.9,4.7c6.1,18.4,12.6,36.7,19,55.1c12.3,35.2,24.7,70.5,36.9,105.8
		c0.5,1.6,0.2,4.1-0.8,5.4c-7.6,9.6-15.4,19-23.2,28.5c-0.3,0.4-0.8,0.7-1,1.1c-4.7,9.7-12.2,9.4-21.5,7.6c-27.9-5.5-56-10-84-14.9
		c-25.4-4.5-50.8-9-76.2-13.3c-3.9-0.7-3.3-3-3.3-5.4C1330.5,1380.1,1330.5,1355.9,1330.5,1331.8z"/>
	<path d="M765.6,269.7c32.6-39.1,65.1-78.1,98.1-117.8c32.8,39.4,65.4,78.4,98.4,118c-6.5,3.8-12.4,7.4-18.4,10.8
		c-25.5,14.5-51.1,29-76.5,43.6c-2.5,1.4-4.1,1.6-6.7,0.2c-30.5-17.5-61.1-34.8-91.6-52.2C767.8,271.7,767,270.8,765.6,269.7z"/>
	<path d="M961.8,1457.4c-32.6,39.1-65.1,78.1-98,117.7c-32.9-39.5-65.4-78.5-98.4-118c8.4-4.9,16-9.4,23.8-13.8
		c23.8-13.5,47.6-27,71.3-40.6c2.6-1.5,4.2-1.3,6.7,0.1c30.5,17.5,61.1,34.8,91.6,52.2C959.7,1455.4,960.5,1456.3,961.8,1457.4z"/>
	<path d="M1170.6,1380.6c3-8.2,5.8-16,8.7-23.7c9.7-25.4,19.3-50.8,29.2-76.2c0.7-1.9,3.1-4,5-4.3c27-4.9,54-9.4,81-14.1
		c7.5-1.3,15.1-2.7,22.6-4.2c3.8-0.8,5.4,0.1,5.3,4.4c-0.1,47.1-0.1,94.3,0,141.4c0,4-0.8,5.3-5.1,4.4c-23.6-4.6-47.3-9-71-13.4
		c-23.4-4.3-46.8-8.4-70.2-12.7C1174.4,1381.9,1172.7,1381.2,1170.6,1380.6z"/>
	<path d="M556.6,1381c-8.4,1.5-16.6,3-24.7,4.4c-16.7,2.8-33.5,5.5-50.2,8.3c-20.3,3.3-40.7,6.7-61,10c-3.8,0.6-7.6,1.1-11.3,2.1
		c-3.5,0.9-4.4-0.4-4.4-3.7c0.1-13.5,0-27,0-40.5c0-32.6,0-65.3,0-97.9c0-6.3,0.1-6.5,6-5.6c21.7,3.3,43.4,6.7,65.1,9.9
		c11.8,1.8,23.7,3.5,35.6,5.1c4.1,0.5,6.6,1.9,8.1,6.3c11.9,33.1,24.2,66,36.3,99C556.3,1378.9,556.4,1379.4,556.6,1381z"/>
	<path d="M556.9,346.4c-6.1,16.3-11.8,31.9-17.7,47.4c-6.6,17.5-13.5,35-20,52.6c-1.1,3.1-3,4-5.7,4.5c-23.1,4-46.2,8-69.3,12.1
		c-11,1.9-21.9,3.8-32.9,5.8c-5.9,1-6.2,0.8-6.2-5.3c0-46.5,0-93,0-139.5c0-6,0-6.1,5.8-5.1c23.2,4.3,46.4,8.7,69.6,13
		c23.4,4.3,46.8,8.5,70.2,12.7C552.6,345,554.4,345.7,556.9,346.4z"/>
	<path d="M1170.8,346.1c8.5-1.5,16.6-3,24.7-4.4c17-2.9,34.1-5.7,51.2-8.5c20-3.3,40-6.5,60-9.8c3.6-0.6,7.3-1,10.8-2
		c4-1.2,4.9,0.3,4.9,4.1c-0.1,15.8,0,31.6,0,47.5c0,30.1,0,60.3,0,90.4c0,6.3-0.1,6.4-6,5.5c-21.7-3.3-43.4-6.7-65.1-9.9
		c-11.3-1.7-22.7-3.6-34.1-4.8c-5.4-0.6-8.3-2.6-10.2-8c-11.7-32.6-23.8-65.1-35.8-97.6C1171.1,348.1,1171.1,347.5,1170.8,346.1z"/>
	<path d="M1431.9,1063.1c-5.6-15-10.8-28.9-16-42.9c-6.5-17.6-12.9-35.2-19.4-52.8c-0.7-2-1.1-4.3-2.2-6.1c-2.3-4-0.7-6.6,1.9-9.7
		c18.9-21.6,37.6-43.3,56.4-65c4.1-4.7,8.2-9.5,12.8-14.8c32.8,38.5,65.4,76.6,98.4,115.3C1519.7,1012.7,1476,1037.8,1431.9,1063.1z
		"/>
	<path d="M261.8,872c9.5,10.9,18.5,21.2,27.5,31.6c14.1,16.3,28.2,32.6,42.4,48.9c2.3,2.7,2.9,4.8,1.6,8.4
		c-11.1,29.5-21.8,59.1-32.7,88.7c-1.5,4.2-3.1,8.3-5,13.6c-44.1-25.3-87.8-50.4-132.2-75.9C196.4,948.6,228.8,910.6,261.8,872z"/>
	<path d="M163.4,739.8c8.8-5,16.8-9.6,24.8-14.3c34.1-19.6,68.2-39.1,102.1-58.8c4-2.3,5.6-2.3,7.3,2.4c11.8,32.8,24,65.4,35.9,98.1
		c0.6,1.7,0.3,4.5-0.8,5.8c-23.2,27.1-46.6,54-70,80.9c-0.2,0.2-0.6,0.2-1.5,0.5C228.9,816.5,196.4,778.4,163.4,739.8z"/>
	<path d="M750.9,273.2c-9,10.8-17.5,21.1-26.1,31.5c-13.6,16.3-27.3,32.5-40.8,48.9c-2.1,2.5-4.1,3.5-7.2,3
		c-18.4-2.8-36.9-5.6-55.3-8.3c-15.6-2.3-31.3-4.7-46.9-6.8c-5.8-0.8-6.3-1.3-4.3-6.9c14.6-41.1,29.2-82.3,43.8-123.4
		c1.2-3.4,2.6-6.8,3.5-10.4c0.8-3.3,2-3.6,4.8-1.9c24.1,13.9,48.3,27.8,72.5,41.6c17.1,9.8,34.3,19.6,51.4,29.5
		C747.7,270.7,749,271.8,750.9,273.2z"/>
	<path d="M976.7,272.6c10.4-6,20.5-11.9,30.5-17.7c32.4-18.6,64.7-37.1,97-55.8c3.4-1.9,4.4-1.7,5.7,2.2c8.1,23.7,16.6,47.3,25,70.9
		c7.4,21,14.9,41.9,22.3,62.9c1.7,4.8,1.1,5.4-4.3,6.2c-18.8,2.7-37.5,5.6-56.3,8.4c-15.5,2.3-30.9,4.6-46.4,6.6
		c-2,0.3-5-0.8-6.3-2.4c-22-26.1-43.9-52.4-65.8-78.7C977.7,274.8,977.4,274,976.7,272.6z"/>
	<path d="M750.6,1454.4c-43.7,25.1-87.4,50.2-131.5,75.6c-2.5-6.9-4.9-13.2-7.2-19.6c-7.7-21.9-15.4-43.9-23.1-65.8
		c-6.2-17.7-12.5-35.4-18.9-53c-1.4-4-0.3-5.5,4-6.1c19.1-2.6,38.2-5.7,57.3-8.5c15.3-2.3,30.6-4.5,46-6.5c1.9-0.2,4.8,0.7,6,2.2
		c22.1,26.3,44.1,52.7,66.1,79.1C749.8,1452.4,750,1453.2,750.6,1454.4z"/>
	<path d="M1107.9,1529.8c-43.8-25.2-87.4-50.2-131.6-75.6c5.8-7,11.1-13.5,16.5-20c16.8-20.1,33.7-40.2,50.3-60.4
		c2.3-2.8,4.6-3.8,8.1-3.3c18.3,2.8,36.5,5.6,54.8,8.3c15.6,2.3,31.3,4.7,46.9,6.8c5.7,0.8,6.1,1.3,4.2,7
		c-15.8,44.9-31.7,89.8-47.5,134.7C1109.2,1528,1108.7,1528.6,1107.9,1529.8z"/>
	<path d="M298.6,1077.4c12.8,7.3,25,14.2,37.2,21.2c18.7,10.7,37.4,21.4,56.2,32c3,1.7,5,3.5,5,7.6c-0.2,34.1-0.1,68.3-0.1,102.4
		c0,1.5-0.2,2.9-0.3,4.9c-3.6-0.4-6.8-0.7-10-1.3c-24.6-4.7-49.3-9.6-73.9-14.3c-19.8-3.8-39.5-7.5-59.3-10.9
		c-4.6-0.8-5.2-2.4-3.7-6.6c14.9-41.2,29.7-82.4,44.5-123.6C295.4,1085.1,297,1081.5,298.6,1077.4z"/>
	<path d="M1330.5,481.1c11.7,2.2,22.3,4.1,32.9,6.1c20.7,3.9,41.5,7.9,62.2,11.8c16.2,3.1,32.3,6.2,48.5,9c4.6,0.8,5.2,2.4,3.6,6.6
		c-15.9,43.6-31.5,87.4-47.2,131c-0.4,1.2-1.2,2.3-2,3.8c-12.7-7.2-25-14.3-37.4-21.3c-18.4-10.5-36.8-21.2-55.3-31.5
		c-3.8-2.1-5.5-4.3-5.4-8.9c0.2-33.3,0.1-66.6,0.1-99.9C1330.5,485.9,1330.5,484,1330.5,481.1z"/>
	<path d="M1564,739.7c-33,38.7-65.5,76.7-98.4,115.3c-6.7-7.9-13.1-15.5-19.4-23.1c-15.8-19-31.6-38-47.5-56.9
		c-2.5-3-3.1-5.5-1.7-9.4c11.5-33.2,22.8-66.6,34.1-99.8c0.1-0.3,0.5-0.5,1.5-1.5C1475.9,689.1,1519.5,714.2,1564,739.7z"/>
	<path d="M1328.2,1245.7c0-37.4,0-74.2,0-110.9c32.4-19,64.7-38,97.8-57.4c1.6,4.1,3.2,7.6,4.5,11.3c9.7,27,19.4,54,29.1,81
		c5.2,14.5,10.5,29,15.8,43.5c1.1,3.1,0.6,4.9-3.1,5.6c-24.9,4.5-49.7,9.1-74.5,13.8c-19.1,3.6-38.2,7.3-57.3,11
		C1336.5,1244.4,1332.6,1244.9,1328.2,1245.7z"/>
	<path d="M301.3,649.6c-2.6-7.1-5.1-13.4-7.3-19.7c-7.5-20.9-15-41.9-22.5-62.8c-6.4-17.8-12.8-35.6-19.4-53.3
		c-1.5-4.1,0.4-5.2,4-5.8c21.7-4,43.5-8.1,65.2-12.2c25.2-4.7,50.3-9.5,75.5-14.2c0.6-0.1,1.3,0,2.4,0c0,37.2,0,74.2,0,110.6
		C366.7,611.3,334.4,630.2,301.3,649.6z"/>
	<path d="M1727.1,824.1c-51.2-29.4-101.1-58-151.8-87.1c37.5-44.1,74.6-87.7,112.5-132.2C1710.3,676.5,1723.3,748.7,1727.1,824.1z"
		/>
	<path d="M39.6,604.8c37.7,44.3,74.7,87.8,112.5,132.2c-50.5,29-100.5,57.7-151.8,87.2C4.1,748.8,17.1,676.7,39.6,604.8z"/>
	<path d="M1575.3,990.1c50.7-29.1,100.6-57.8,151.8-87.1c-3.8,75.2-16.8,147.4-39.3,219.3C1650.1,1078,1613.1,1034.5,1575.3,990.1z"
		/>
	<path d="M39.6,1122.2C17.1,1050.4,4.2,978.3,0.3,902.9c51.1,29.3,101.1,58,151.8,87.1C114.5,1034.3,77.3,1077.9,39.6,1122.2z"/>
	<path d="M1330.8,309.4c0-58.4,0-115.4,0-174.2c60.7,42.8,119.7,86.1,168.3,143.3C1442.6,288.9,1387.1,299.1,1330.8,309.4z"/>
	<path d="M1111.2,182.9c-19.7-54.3-39.1-108.1-59.1-163.1c72.2,18.5,141.8,40.6,208,75.9C1210.2,125,1161.1,153.7,1111.2,182.9z"/>
	<path d="M1330.9,1591.8c0-58.7,0-115.9,0-174.1c56.1,10.3,111.6,20.4,168.2,30.8C1450.6,1505.6,1391.7,1548.8,1330.9,1591.8z"/>
	<path d="M228.2,1448.5c56.7-10.4,112.2-20.5,168.2-30.8c0,58.2,0,115.4,0,174C335.9,1549,277.1,1505.8,228.2,1448.5z"/>
	<path d="M467.2,95.8c66-35.4,135.7-57.4,208-76c-19.9,55.1-39.4,108.9-59.1,163.1C566.5,153.8,517.5,125.1,467.2,95.8z"/>
	<path d="M467.2,1631.3c50.1-29.3,99-57.9,149-87.1c19.6,54.1,39.1,107.9,59.1,163.1C603.1,1688.7,533.4,1666.6,467.2,1631.3z"/>
	<path d="M1052.1,1707.3c19.9-55.1,39.4-108.8,59.1-163.1c49.7,29.1,98.9,57.8,148.9,87.1
		C1194.1,1666.6,1124.4,1688.6,1052.1,1707.3z"/>
	<path d="M1490.9,500.7c19.8-53.8,39.3-106.5,59-160.2c46.9,58.3,81.3,122.8,112.6,191.1C1604.6,521.2,1548.1,511,1490.9,500.7z"/>
	<path d="M177.5,340.5c19.8,53.7,39.2,106.4,59,160.2c-57,10.3-113.6,20.5-171.7,31C96,463.4,130.5,398.9,177.5,340.5z"/>
	<path d="M1549.9,1386.5c-19.9-54-39.3-106.7-59-160.2c57-10.3,113.6-20.5,171.6-30.9C1631.4,1263.6,1596.9,1328,1549.9,1386.5z"/>
	<path d="M236.5,1226.3c-19.8,53.8-39.3,106.5-59,160.2c-46.9-58.4-81.3-122.8-112.6-191.1C122.8,1205.8,179.3,1216,236.5,1226.3z"
		/>
	<path d="M228.2,278.5c49-57,106-102.5,168.3-143.2c0,57.6,0,113.9,0,171.3C340.5,297.2,285,288,228.2,278.5z"/>
	<path d="M863.7,1589.1c36.6,44.1,72.7,87.7,109.7,132.2c-73.5,7.6-145.7,7.6-219.3,0C790.9,1676.9,827,1633.4,863.7,1589.1z"/>
	<path d="M754.1,5.7c73.6-7.6,145.6-7.6,219.3,0c-36.8,44.4-73,88-109.6,132.2C827.2,93.8,791,50.3,754.1,5.7z"/>
	<path d="M967.8,275.7c23.3,28,46.3,55.6,70,84c-2.7,0.7-4.4,1.3-6.3,1.6c-25.8,5-51.6,10-77.4,14.9c-1.7,0.3-3.8,0.3-5.2-0.5
		c-24.7-14-49.3-28.1-73.9-42.2c-0.7-0.4-1.3-1-2.4-1.8C904.5,312.9,936,294.4,967.8,275.7z"/>
	<path d="M405,1136.3c10.4,5.9,19.7,11.1,28.8,16.3c14.8,8.5,29.4,17.6,44.6,25.3c7.2,3.6,7.7,10.1,9.7,15.8
		c7.8,22.4,15,45,22.5,67.6c0.4,1.1,0.5,2.2,1,4.1c-7.1-1.2-13.8-2.3-20.4-3.5c-26.7-4.9-53.3-9.8-80-14.7c-4.4-0.8-6.4-2.2-6.3-7.3
		c0.3-32.3,0.1-64.7,0.1-97C405,1141.2,405,1139.4,405,1136.3z"/>
	<path d="M1322.1,590.1c-2.4-1.1-4.2-1.8-5.9-2.8c-23.2-13.2-46.4-26.4-69.5-39.8c-2-1.1-3.9-3.4-4.6-5.5c-8.6-25.5-17-51-25.4-76.5
		c-0.3-1.1-0.5-2.2-0.8-4c7.1,1.2,13.8,2.3,20.4,3.5c26.5,4.8,52.9,9.8,79.4,14.5c4.3,0.8,6.9,1.8,6.8,7.4
		c-0.4,32.3-0.2,64.6-0.2,96.9C1322.4,585.7,1322.2,587.5,1322.1,590.1z"/>
	<path d="M1389.7,779.3c6.8,8.1,13,15.4,19.2,22.8c15.8,19,31.5,38.1,47.5,56.9c3,3.6,2.8,5.7-0.1,9.2
		c-20.9,24.9-41.7,49.9-62.5,74.9c-1.1,1.4-2.4,2.6-4.1,4.4c-4.4-11.7-8.6-22.8-12.7-33.9c-5.7-15.4-11.3-30.9-16.8-46.3
		c-0.6-1.8-1.3-4-0.7-5.6C1369.3,834.4,1379.3,807.4,1389.7,779.3z"/>
	<path d="M337.6,947.4c-4.3-5.1-8.3-9.8-12.3-14.6c-18.3-21.9-36.5-43.8-54.8-65.7c-2-2.3-2.8-4-0.5-6.8
		c21.6-25.8,43.2-51.7,64.7-77.5c0.8-1,1.8-1.8,3.2-3.1c5.3,14.2,10.5,28,15.5,41.7c4.8,12.9,9.5,25.9,14,38.9
		c0.6,1.8,0.7,4.3,0.1,6.1c-9.5,26.4-19.2,52.7-28.9,79C338.5,945.9,338.2,946.2,337.6,947.4z"/>
	<path d="M529.6,1277.1c4.8,0.7,9,1.4,13.2,2c22.3,3.5,44.7,7.1,67,10.6c4.1,0.6,7.3,2.2,10.1,5.6c17.8,21.4,35.8,42.7,53.7,64.1
		c0.3,0.4,0.4,0.8,1,1.9c-10,1.6-19.8,3.1-29.5,4.7c-25.2,3.9-50.3,7.7-75.4,11.7c-3.1,0.5-4.6-0.3-5.6-3.2
		c-10.9-30.4-22-60.9-32.9-91.3C530.5,1281.5,530.3,1279.7,529.6,1277.1z"/>
	<path d="M1319.5,1137c0,4.5,0,8.3,0,12.1c0,30.8-0.1,61.6,0.1,92.4c0,4-1.2,5.4-5.2,6c-15.4,2.5-30.8,5.4-46.1,8.2
		c-18.1,3.2-36.3,6.4-55.5,9.8c1.9-5.6,3.5-10.5,5.2-15.4c8-22,16-43.9,24.2-65.8c0.6-1.7,2.1-3.5,3.7-4.5
		c23.6-14.1,47.3-28.1,71-42.1C1317.4,1137.5,1318.1,1137.4,1319.5,1137z"/>
	<path d="M514.7,461.8c-4.2,11.4-8.1,22.2-12,32.9c-5.7,15.7-11.4,31.5-17.3,47.2c-0.8,2-2.3,4.2-4.1,5.3
		c-23.6,14.2-47.3,28.1-71,42.1c-0.4,0.2-0.9,0.3-2.1,0.6c-0.1-1.7-0.3-3.2-0.3-4.8c0-33.1,0-66.3-0.1-99.4c0-3.7,0.7-5.6,4.9-6.3
		c15.4-2.4,30.8-5.4,46.2-8.1c17.7-3.2,35.3-6.4,53-9.6C512.5,461.6,513.2,461.8,514.7,461.8z"/>
	<path d="M689.4,1367c9.1-1.5,16.6-2.7,24.1-3.9c20-3.2,40.1-6.5,60.1-9.7c1.4-0.2,3.1-0.3,4.3,0.4c25,13.3,50,26.8,75,40.2
		c0.5,0.3,1,0.7,2,1.4c-31.8,18.7-63.2,37.2-95.2,56C736.5,1423.5,713.4,1395.8,689.4,1367z"/>
	<path d="M1198.2,1277.3c-4.2,12-8.1,22.9-11.9,33.9c-7.6,21.8-15.3,43.5-22.7,65.3c-1.4,4-3.2,4.2-7,3.5
		c-30.9-5.8-61.8-11.4-92.7-17c-2.6-0.5-5.2-1.1-8.6-1.8c3.5-4.3,6.6-8.2,9.8-12c14.6-17.4,29.1-34.9,43.8-52.2
		c1.4-1.7,3.6-3.3,5.6-3.7c16.4-3.4,32.9-6.4,49.4-9.6c9.1-1.8,18.3-3.6,27.4-5.3C1193.2,1277.9,1195.2,1277.7,1198.2,1277.3z"/>
	<path d="M672.3,365.9c-12.9,15.5-25.2,30.2-37.5,45c-5.4,6.5-10.8,13.1-16.3,19.4c-1.3,1.5-3.3,3.1-5.2,3.5
		c-16.6,3.4-33.3,6.5-49.9,9.7c-9,1.7-17.9,3.5-26.9,5.2c-2.1,0.4-4.2,0.6-7.1,1c3-8.6,5.6-16.4,8.3-24.2
		c8.8-25,17.6-50.1,26.3-75.1c1.1-3.2,2.4-4.2,6.2-3.5c29.1,5.5,58.2,10.6,87.3,15.9C662,363.6,666.7,364.7,672.3,365.9z"/>
	<path d="M1198.1,449.9c-7.8-1.4-14.8-2.6-21.8-3.9c-20.1-3.8-40.1-7.7-60.2-11.7c-2.2-0.4-4.8-1.2-6.2-2.8
		c-18.2-21.5-36.2-43.2-54.9-65.6c8.6-1.7,16.5-3.2,24.3-4.7c26.3-4.8,52.6-9.6,78.9-14.5c2.8-0.5,4,0.5,4.8,2.8
		c8.2,23.5,16.4,47,24.6,70.5c2.6,7.5,5.3,15,7.9,22.5C1196.5,444.6,1197.1,446.8,1198.1,449.9z"/>
	<path d="M340.8,965c11.6,13.9,22.8,27.3,33.9,40.6c6.5,7.8,13,15.4,19.3,23.4c1.4,1.8,2.7,4.4,2.7,6.6c0.2,27.6,0.1,55.3,0.1,82.9
		c0,0.8-0.2,1.6-0.4,3.3c-6.1-3.4-11.8-6.5-17.5-9.7c-23.7-13.7-47.3-27.5-71.1-41c-2.9-1.7-3.6-2.9-2.5-6.2
		c6.6-18.4,13-36.9,19.4-55.4c4.6-13.3,9.3-26.6,13.9-39.9C339.2,968.3,339.9,967.2,340.8,965z"/>
	<path d="M1330.5,1121.7c0-2.7,0-4.8,0-6.9c0-25.1,0.1-50.3-0.1-75.4c0-4.7,1-8.5,4.2-12.2c17.3-20.3,34.2-40.9,52-62.2
		c0.9,2.5,1.7,4.3,2.4,6.2c9.6,27.2,19.3,54.4,28.9,81.6c0.4,1.2,0.8,2.5,1.1,3.8c1.2,4.1,4.1,8.7,3,12c-1,3-6.4,4.7-10,6.7
		c-26.1,15.1-52.3,30.1-78.4,45.1C1332.9,1120.9,1332.1,1121.1,1330.5,1121.7z"/>
	<path d="M396.9,605.3c0,2.7,0,4.8,0,6.9c0,25.1-0.1,50.3,0.1,75.4c0,4.7-1.1,8.5-4.2,12.2c-17.3,20.3-34.2,40.9-51.9,62.2
		c-1.8-4.5-3.4-8.3-4.8-12.3c-9.8-28-19.6-56-29.5-84c-2.6-7.4-2.8-7.4,3.7-11.1c27.8-16.1,55.7-32.1,83.6-48.2
		C394.5,606.1,395.3,605.9,396.9,605.3z"/>
	<path d="M1331.1,605.2c7.8,4.4,15.2,8.5,22.4,12.7c22.1,12.8,44.2,25.6,66.3,38.3c2.5,1.4,3.2,2.6,2.2,5.4
		c-5.5,15.5-10.8,31-16.2,46.5c-5.8,16.6-11.6,33.2-17.4,49.8c-0.4,1.2-1.2,2.3-2,3.9c-10.4-12.4-20.5-24.5-30.6-36.5
		c-7.6-9.2-15.3-18.3-22.8-27.5c-1.3-1.6-2.4-3.8-2.4-5.7c-0.1-28.1-0.1-56.3,0-84.4C1330.6,607.1,1330.8,606.6,1331.1,605.2z"/>
	<path d="M692.4,359.8c23.7-28.5,46.8-56.2,70.1-84.1c30.9,18.8,61.5,37.3,92.7,56.2c-13,7.3-25.2,14.3-37.5,21.1
		c-11.7,6.5-23.5,13.1-35.3,19.3c-2,1-4.7,1.4-7,1c-23.5-3.6-47-7.3-70.5-11.1C701,361.7,697.2,360.8,692.4,359.8z"/>
	<path d="M1035,1367.2c-23.8,28.6-46.8,56.2-70.1,84.1c-30.9-18.7-61.4-37.2-92.8-56.2c10.8-6,20.9-11.7,31-17.3
		c13.5-7.5,27-14.9,40.4-22.5c3.2-1.8,6.1-2.3,9.8-1.7c25.3,4.3,50.6,8.2,75.8,12.3C1030.9,1366.2,1032.4,1366.7,1035,1367.2z"/>
	<path d="M792.2,376.1c9.3-5.4,18.5-10.9,27.8-16.3c13.3-7.7,26.7-15.4,40.2-22.9c1.7-1,4.7-1.4,6.3-0.5
		c22.6,12.8,45.1,25.9,67.6,39c0.4,0.2,0.7,0.7,1.6,1.7c-8.6,1.7-16.8,3.3-24.9,4.9c-14.8,2.9-29.6,6.2-44.6,8.3
		c-5.7,0.8-11.8-1.2-17.6-2.3c-18.7-3.5-37.4-7.2-56.2-10.8C792.3,376.9,792.2,376.5,792.2,376.1z"/>
	<path d="M791.7,1349.9c23.6-4.5,46.4-9.4,69.3-13c6.2-1,13.1,1.2,19.6,2.4c18.1,3.4,36.2,7,55.5,10.7c-2.4,1.6-4,2.8-5.8,3.8
		c-21.2,12.3-42.4,24.6-63.7,36.8c-1.5,0.8-4.1,1-5.5,0.3c-22.6-12.9-45.1-25.9-67.6-39C793,1351.5,792.7,1350.9,791.7,1349.9z"/>
	<path d="M1322.1,1045.8c0.1,1.3,0.2,2.6,0.2,3.9c0,24.5,0.1,49-0.1,73.5c0,2.2-1.5,5.4-3.2,6.4c-22.3,13.1-44.8,25.9-67.2,38.8
		c-0.4,0.2-0.9,0.3-2.3,0.8c3-8.4,5.7-16.1,8.5-23.8c4.7-13.1,8.9-26.5,14.3-39.3c2.5-6.1,7-11.5,11.2-16.7
		c11.5-14,23.3-27.6,35-41.5c0.8-1,1.1-2.4,1.7-3.7C1320.7,1044.7,1321.4,1045.3,1322.1,1045.8z"/>
	<path d="M477.7,558.6c-2.6,7.5-5.3,14.9-7.9,22.4c-4.8,13.4-9.1,27.1-14.6,40.2c-2.5,6.1-7,11.5-11.3,16.7
		c-11.5,14-23.4,27.6-35,41.4c-0.7,0.9-1,2.1-1.5,3.1c-0.6-0.3-1.1-0.7-1.7-1c-0.2-1.2-0.5-2.3-0.5-3.5c0-24.8-0.1-49.7,0.1-74.5
		c0-2,1.2-4.8,2.7-5.7c22.9-13.4,45.9-26.6,68.8-39.9C477,558.2,477.4,558.4,477.7,558.6z"/>
	<path d="M477.5,1169.5c-9.8-5.6-19-10.9-28.1-16.2c-13.4-7.7-26.8-15.3-40.1-23.2c-1.9-1.2-4.1-3.9-4.2-5.9
		c-0.3-25.7-0.2-51.3-0.2-77c0-0.5,0.2-1,0.5-2.3c1.2,1,2.3,1.5,3,2.4c14.3,16.8,28.6,33.6,42.9,50.4c1,1.2,1.9,2.8,2.5,4.3
		c7.6,20.9,15.1,41.8,22.7,62.8C477,1166.1,477.1,1167.4,477.5,1169.5z"/>
	<path d="M1249.7,557.4c10.1,5.8,19.4,11.2,28.7,16.5c13.2,7.6,26.5,15.1,39.6,22.9c1.9,1.2,4.2,3.8,4.2,5.8
		c0.3,25.5,0.2,51,0.2,76.5c0,0.8-0.2,1.5-0.6,3.7c-3.6-4.2-6.5-7.5-9.3-10.8c-11.5-13.5-23.4-26.7-34.4-40.6
		c-4.1-5.2-6.5-11.8-8.8-18.1c-6.2-16.5-12-33.1-17.9-49.6C1250.7,562,1250.4,560.2,1249.7,557.4z"/>
	<path d="M495.6,1189.9c19.7,11.1,37.9,21.6,56.3,31.7c6.5,3.5,11.3,8.4,15.9,13.9c12.3,14.6,24.7,29,37.1,43.6
		c0.5,0.6,0.8,1.3,1.8,3c-5-0.7-9.2-1.1-13.4-1.8c-22.1-3.8-44.3-7.7-66.4-11.3c-3.3-0.5-4.3-2.2-5.3-4.9
		c-7.5-21.4-15.2-42.9-22.8-64.3C497.9,1197.1,497,1194.3,495.6,1189.9z"/>
	<path d="M1120.5,444.7c7.5,1.2,13.8,2.2,20.1,3.2c20,3.4,40,6.9,60,10.1c3,0.5,4.2,2,5.1,4.5c7.6,21.6,15.3,43.2,23,64.8
		c1,2.8,1.8,5.6,3.2,9.7c-10.8-6.1-20.4-11.5-29.9-16.9c-10-5.6-20.3-10.7-29.8-17c-5.8-3.9-10.4-9.5-15.1-14.8
		c-11.6-13.2-22.9-26.7-34.3-40.1C1122.1,447.4,1121.7,446.6,1120.5,444.7z"/>
	<path d="M1330.5,1016.1c0-5.8,0-11.6,0-17.4c0-15.3-0.4-30.6,0.2-45.9c0.3-6.8,2.1-13.7,4.3-20.2c5.9-17.3,12.3-34.3,18.5-51.5
		c0.5-1.5,1.3-2.9,2.5-5.5c3.1,8.3,5.8,15.4,8.3,22.5c5.8,16.2,11.4,32.6,17.4,48.7c1.7,4.5,1.6,7.7-1.7,11.6
		c-15.3,18.1-30.3,36.5-45.4,54.7c-0.9,1.1-2,2.1-3,3.2C1331.3,1016.3,1330.9,1016.2,1330.5,1016.1z"/>
	<path d="M396.9,710.8c0,1.7,0,3.5,0,5.2c0,17.1-0.1,34.3,0.1,51.4c0.1,8.7-0.7,17-3.9,25.3c-6.9,17.6-12.9,35.5-19.3,53.3
		c-0.5,1.3-1.2,2.6-2.4,5.3c-3.1-8.5-5.9-15.6-8.4-22.8c-5.8-16.2-11.4-32.5-17.4-48.7c-1.6-4.3-1.6-7.4,1.7-11.2
		c15.4-18.2,30.5-36.7,45.6-55.1c0.9-1.1,1.8-2.2,2.7-3.4C396,710.4,396.4,710.6,396.9,710.8z"/>
	<path d="M963.1,382.4c12.8-2.2,24.7-4.3,36.7-6.4c13.4-2.3,26.9-4.8,40.3-7c1.7-0.3,4.2,0.3,5.2,1.4c17.4,18.9,34.7,37.9,52,56.9
		c0.4,0.5,0.6,1.1,1.4,2.7c-8.7-1.3-16.5-2.4-24.2-3.6c-14.5-2.2-29-4.2-43.4-7c-4.9-0.9-9.5-3.5-14-5.9
		c-16.7-9.2-33.3-18.7-49.9-28.1C966.1,384.8,965,383.8,963.1,382.4z"/>
	<path d="M607.1,448c-7.4,8.8-14,16.6-20.6,24.4c-7.7,9.1-14.9,18.7-23.3,27.2c-4.8,4.8-11.3,8-17.3,11.2
		c-16.2,8.7-32.5,17.1-50.2,26.3c2.3-5.9,4-10.6,5.8-15.2c7.7-19.1,15.6-38,23.2-57.2c1.5-3.7,4.4-3.8,7.2-4.3
		c11.9-2.2,23.9-4.2,35.9-6.2c11.3-1.9,22.6-3.9,33.9-5.8C603,448.1,604.4,448.1,607.1,448z"/>
	<path d="M628.7,1296.9c8.6,1.3,16.2,2.4,23.9,3.6c14.5,2.3,29,4.2,43.4,7c5,1,9.9,3.5,14.4,6c16.7,9.2,33.3,18.7,49.9,28.1
		c1.1,0.6,2.2,1.5,4.2,2.9c-6.8,1.2-12.7,2.3-18.6,3.4c-19.5,3.4-39,6.9-58.5,10.1c-1.7,0.3-4.4-0.6-5.5-1.9
		c-17.1-18.5-34.1-37.2-51-55.8C630.1,1299.6,629.7,1298.6,628.7,1296.9z"/>
	<path d="M1121.2,1278c7.6-9,15.1-17.9,22.7-26.9c6.7-8,12.9-16.6,20.4-23.7c5.2-5,12.1-8.5,18.6-12c15.3-8.3,30.8-16.2,46.3-24.2
		c0.4-0.2,0.9-0.3,2.4-0.7c-3.3,8.3-6.4,15.9-9.4,23.5c-6.5,16-12.9,32-19.6,47.9c-0.7,1.8-2.9,3.7-4.8,4.1
		c-15.7,3-31.4,5.7-47.2,8.4c-7.7,1.3-15.4,2.6-23.1,3.9c-1.9,0.3-3.8,0.6-5.8,0.9C1121.6,1278.8,1121.4,1278.4,1121.2,1278z"/>
	<path d="M764.8,382.7c-9.1,5.5-17.2,10.4-25.3,15.2c-11,6.5-21.9,13.1-33.1,19.2c-3.6,2-8.1,2.7-12.2,3.4
		c-19.9,3.2-39.8,6.2-59.7,9.2c-0.7,0.1-1.5-0.1-3.3-0.2c6-7,11.4-13.4,16.8-19.8c10.9-12.7,22-25.3,32.8-38
		c2.2-2.6,4.4-3.1,7.8-2.5c22.1,4,44.2,7.7,66.3,11.5C757.8,381.1,760.5,381.8,764.8,382.7z"/>
	<path d="M1096.2,1297.6c-6.9,7.9-13.1,15.1-19.4,22.4c-10.1,11.7-20.2,23.3-30.1,35.1c-2.3,2.8-4.6,3.3-8.2,2.7
		c-22.1-4-44.2-7.7-66.4-11.5c-2.8-0.5-5.5-1.2-9.3-2c3.6-2.3,6.4-4.2,9.3-5.9c16.7-9.9,33.4-19.8,50.2-29.4
		c2.7-1.6,6.3-1.8,9.5-2.3c20.5-3.2,41.1-6.4,61.6-9.5C1094.1,1297.1,1094.6,1297.4,1096.2,1297.6z"/>
	<path d="M396.5,1017.6c-7.2-8.2-13.5-15.4-19.7-22.6c-10-11.5-19.7-23.3-29.9-34.6c-2.6-2.9-3.1-5.5-1.9-8.9
		c5.3-14.6,10.6-29.3,15.9-44c3.3-9.2,6.6-18.4,11.1-27.9c1.5,4,3.2,7.9,4.6,11.9c6.5,18.3,13,36.5,19.5,54.8
		c0.5,1.4,0.8,2.9,0.8,4.4c0,21,0,42,0,62.9C396.9,1014.5,396.7,1015.3,396.5,1017.6z"/>
	<path d="M1331,709.7c3.5,3.8,6.4,6.9,9.1,10.1c13.5,15.7,26.9,31.5,40.6,47c2.5,2.8,2.9,5.3,1.8,8.5c-6.4,17.6-12.7,35.2-19,52.9
		c-2.3,6.4-4.5,12.7-7.1,19.9c-1.1-1.7-1.9-2.5-2.2-3.5c-7.6-21.2-15.2-42.4-22.7-63.7c-0.5-1.5-0.8-3.2-0.9-4.9
		c-0.1-20.6,0-41.3,0-61.9C1330.6,712.9,1330.8,711.8,1331,709.7z"/>
	<path d="M443.3,653.3c-12.3,33.2-24.5,66.5-36.8,99.7c-0.5-0.1-1-0.2-1.5-0.4c0-12.1,0.7-24.2-0.2-36.2c-1-12.9,2-23.3,11.4-32.7
		c8.8-8.7,16-19,23.9-28.7c0.7-0.9,1-2.1,1.5-3.2C442.2,652.4,442.8,652.9,443.3,653.3z"/>
	<path d="M1285.1,652.7c5,6.1,10,12.1,15,18.2c6.6,8.1,13.3,16.1,19.8,24.2c1.2,1.5,2.3,3.5,2.3,5.2c0.2,17.4,0.1,34.9,0.1,52.3
		c-0.5,0.2-1,0.3-1.4,0.5c-12.2-33.2-24.5-66.4-36.7-99.5C1284.5,653.3,1284.8,653,1285.1,652.7z"/>
	<path d="M441.6,1073.4c-5.7-6.9-11.5-13.9-17.2-20.8c-5.7-6.9-11.4-13.8-17-20.8c-1.1-1.3-2.2-3.1-2.2-4.7
		c-0.2-17.6-0.1-35.2-0.1-52.7c0.5-0.1,1-0.3,1.5-0.4c12.1,32.9,24.3,65.9,36.4,98.8C442.5,1073,442,1073.2,441.6,1073.4z"/>
	<path d="M1322.3,974.3c0,17.7,0,35.5-0.1,53.2c0,1.2-0.7,2.6-1.5,3.6c-11.4,14-22.9,27.9-34.4,41.8c-0.2,0.2-0.6,0.1-2.1,0.4
		c12.4-33.5,24.5-66.5,36.6-99.4C1321.3,974,1321.8,974.2,1322.3,974.3z"/>
	<path d="M1053.3,1294.3c29.5-17.3,59-34.7,88.4-52c0.3,0.3,0.5,0.6,0.8,0.9c-4.2,5.2-8.3,10.5-12.5,15.7
		c-6.4,7.9-12.7,15.7-19.3,23.4c-1.4,1.7-3.5,3.3-5.6,3.7c-16,3.2-32,6.2-48,9.2c-1.2,0.2-2.6,0-3.9,0
		C1053.3,1295,1053.3,1294.6,1053.3,1294.3z"/>
	<path d="M673.8,1295.8c-9.1-1.7-18.2-3.4-27.3-5.2c-7.7-1.4-15.4-2.7-23-4.3c-2-0.4-4.4-1.2-5.7-2.6c-11.1-13.3-22-26.8-32.9-40.3
		c0.3-0.4,0.5-0.7,0.8-1.1c29.5,17.4,59.1,34.7,88.6,52.1C674.1,1294.8,673.9,1295.3,673.8,1295.8z"/>
	<path d="M1141.6,484.7c-29.5-17.3-59-34.7-88.5-52c0.1-0.3,0.1-0.6,0.2-1c1.2,0,2.4-0.2,3.6,0c16.2,3,32.3,6.1,48.5,9.2
		c1.5,0.3,3.2,1.2,4.2,2.4c11,13.4,22,26.9,32.9,40.4C1142.2,484,1141.9,484.3,1141.6,484.7z"/>
	<path d="M674.3,432.6c-29.5,17.4-59.1,34.7-88.6,52.1c-0.3-0.3-0.5-0.7-0.8-1c7.4-9.2,14.9-18.4,22.3-27.6c0.2-0.3,0.6-0.4,0.7-0.7
		c6.8-13.6,19.5-16.3,33-18c9-1.2,18-3.4,26.9-5.1c2-0.4,4.1-0.6,6.1-0.8C674,431.8,674.1,432.2,674.3,432.6z"/>
	<path d="M731.6,1313.9c34.7,5.4,68.8,10.6,102.9,15.9c0,0.5-0.1,0.9-0.1,1.4c-17.4,3.2-34.8,6.5-52.2,9.6c-1.7,0.3-3.8,0.2-5.2-0.6
		c-14.7-8-29.3-16.1-43.9-24.3C732.6,1315.7,732.4,1315,731.6,1313.9z"/>
	<path d="M893,1329.8c34-5.2,68.1-10.5,102.1-15.7c0.2,0.3,0.4,0.7,0.6,1c-3.2,1.8-6.3,3.6-9.5,5.4c-10.4,5.8-21.1,11.1-31.2,17.4
		c-5.4,3.4-10.5,3.3-16.1,2.2c-15.3-3-30.6-6-45.9-9.1C893,1330.6,893,1330.2,893,1329.8z"/>
	<path d="M995.7,413.1c-34.7-5.3-68.7-10.6-102.8-15.8c0-0.4,0-0.8,0-1.3c10.9-2.1,21.8-4.3,32.8-6.4c6.5-1.2,13.1-2.4,19.6-3.4
		c1.5-0.2,3.5-0.2,4.8,0.5c14.8,8.1,29.5,16.3,44.3,24.6C994.9,411.4,995,412,995.7,413.1z"/>
	<path d="M731.9,412.3c1-0.7,1.9-1.5,2.9-2.1c13.7-7.7,27.3-15.6,41.3-22.8c3.1-1.6,7.7-1.2,11.5-0.6c15.7,2.8,31.2,6,47,10.3
		c-34.1,5.3-68.2,10.5-102.4,15.8C732.1,412.8,732,412.5,731.9,412.3z"/>
	<path d="M1331.6,811c1.9,5,3.9,10,5.7,15.1c3.3,9.5,6,19.4,9.9,28.6c2.7,6.4,2.2,11.8-0.2,18.1c-4.9,12.7-9,25.6-13.5,38.5
		c-0.6,1.6-1.4,3.2-2.8,6.1c0-36.4,0-71.3,0-106.2C1331.1,811.1,1331.3,811,1331.6,811z"/>
	<path d="M395.7,916c-2.8-7.7-5.7-15.4-8.4-23.2c-2.4-6.7-4.1-13.7-6.9-20.2c-2.8-6.3-2.6-11.7,0-18.1c4.9-12.5,8.9-25.3,13.3-38
		c0.6-1.8,1.5-3.6,3-5.2c0,34.8,0,69.6,0,104.4C396.2,915.8,396,915.9,395.7,916z"/>
	<path d="M1255.4,1124c-1.8,4.7-3.4,9.4-5.3,14.1c-4.7,11.7-9.4,23.4-14.3,35c-0.6,1.4-1.6,3-2.9,3.7c-14.9,9.3-29.9,18.4-44.9,27.5
		c-0.3-0.3-0.7-0.6-1-1c22.4-26.7,44.7-53.4,67.1-80C1254.6,1123.5,1255,1123.8,1255.4,1124z"/>
	<path d="M471.9,603.2c2.8-7.2,5.4-14.4,8.3-21.6c3.7-9.2,7.5-18.4,11.4-27.6c0.6-1.4,1.6-3,2.8-3.8c14.7-9.1,29.4-18,44.1-27
		c0.4-0.2,0.9-0.2,2.6-0.5c-23.1,27.6-45.6,54.3-68,81.1C472.6,603.7,472.3,603.4,471.9,603.2z"/>
	<path d="M1254.3,603.8c-22.4-26.7-44.8-53.5-67.3-80.2c0.3-0.3,0.5-0.6,0.8-1c6.3,3.8,12.6,7.5,18.9,11.3
		c6.8,4.1,13.2,9.1,20.4,12.3c8.9,4,10.6,12.1,13.7,19.6c4.7,11.5,9.2,23.1,13.8,34.6c0.3,0.9,0.5,1.8,0.7,2.7
		C1255,603.4,1254.6,603.6,1254.3,603.8z"/>
	<path d="M539.6,1204.4c-8-4.8-16.1-9.7-24.1-14.5c-5-3-9.6-6.6-14.9-8.9c-8.5-3.7-10.7-11.5-13.7-19c-4.7-11.9-9.5-23.7-14.2-35.6
		c-0.3-0.7-0.4-1.5,0.4-3c22.4,26.7,44.8,53.4,67.2,80C540.1,1203.7,539.8,1204.1,539.6,1204.4z"/>
</g>
</svg>
