<?xml version="1.0" encoding="utf-8"?>
<!-- Generator: Adobe Illustrator 19.2.1, SVG Export Plug-In . SVG Version: 6.00 Build 0)  -->
<svg version="1.1" id="Layer_1" xmlns="http://www.w3.org/2000/svg" xmlns:xlink="http://www.w3.org/1999/xlink" x="0px" y="0px"
	 viewBox="0 0 1727.3 1727.2" style="enable-background:new 0 0 1727.3 1727.2;" xml:space="preserve">
<g>
	<path d="M961.9,692.2c0,75.2,0,149.3,0,224.8C897,879.3,833,842.3,768,804.6C833,766.9,897,729.8,961.9,692.2z"/>
	<path d="M959.3,1159c-65,37.7-128.9,74.7-193.8,112.3c0-75.3,0-149.4,0-224.6C830.1,1084.1,894.1,1121.2,959.3,1159z"/>
	<path d="M765.3,326.4c0-75.5,0-149.5,0-224.8C830,139,894,176.1,959.3,213.9C894.4,251.6,830.4,288.6,765.3,326.4z"/>
	<path d="M765.5,810.4C830.4,848,894.3,885,959.3,922.7c-65,37.7-129,74.8-193.8,112.3C765.5,960.1,765.5,886,765.5,810.4z"/>
	<path d="M961.9,1401c0,75.4,0,149.4,0,224.7c-64.5-37.4-128.5-74.5-193.9-112.3C832.9,1475.7,896.9,1438.6,961.9,1401z"/>
	<path d="M765.5,337.9c64.8,37.6,128.8,74.7,193.8,112.4c-64.9,37.6-128.9,74.7-193.8,112.3C765.5,487.3,765.5,413.3,765.5,337.9z"
		/>
	<path d="M962.1,219.6c0,75.6,0,149.5,0,224.9c-64.9-37.6-129-74.8-194.1-112.5C833,294.4,897,257.3,962.1,219.6z"/>
	<path d="M959.3,1395.2c-65.1,37.7-129.1,74.8-193.9,112.4c0-75.4,0-149.4,0-224.8C830.1,1320.3,894.1,1357.4,959.3,1395.2z"/>
	<path d="M360.2,1513.3c65.1-37.7,129-74.8,193.8-112.4c0,75.4,0,149.6,0,224.7C489.6,1588.3,425.6,1551.3,360.2,1513.3z"/>
	<path d="M1173.2,337.8c64.8,37.5,128.8,74.7,193.9,112.4c-65,37.7-129,74.8-193.9,112.4C1173.2,487.3,1173.2,413.3,1173.2,337.8z"
		/>
	<path d="M1173.3,101.6c64.5,37.4,128.5,74.5,193.7,112.3c-65,37.7-128.9,74.7-193.7,112.3C1173.3,251,1173.3,176.9,1173.3,101.6z"
		/>
	<path d="M973.3,1395.2c65.1-37.7,129-74.8,193.6-112.2c0,75,0,149,0,224.4C1102.3,1469.9,1038.3,1432.9,973.3,1395.2z"/>
	<path d="M754,804.6c-65,37.7-128.9,74.7-193.5,112.2c0-75.2,0-149.4,0-224.4C625,729.8,688.9,766.9,754,804.6z"/>
	<path d="M560.4,444.3c0-75,0-149,0-224.4C625,257.3,688.9,294.4,754,332.1C689,369.7,625.1,406.8,560.4,444.3z"/>
	<path d="M1166.8,1034.9c-64.5-37.4-128.4-74.4-193.5-112.1c64.8-37.6,128.8-74.6,193.5-112.2
		C1166.8,885.6,1166.8,959.8,1166.8,1034.9z"/>
	<path d="M560.4,1625.6c0-75.1,0-149.1,0-224.4c64.7,37.5,128.6,74.6,193.6,112.2C689,1551,625.2,1588,560.4,1625.6z"/>
	<path d="M754,568.3C689,606,625.2,643,560.6,680.4c0-75,0-149,0-224.2C625.1,493.6,688.9,530.6,754,568.3z"/>
	<path d="M1166.8,1046.8c0,75,0,149,0,224.3c-64.6-37.4-128.5-74.5-193.5-112.1C1038.3,1121.3,1102.2,1084.3,1166.8,1046.8z"/>
	<path d="M1166.8,326.1c-64.8-37.6-128.6-74.6-193.5-112.2c65-37.7,128.8-74.7,193.5-112.2C1166.8,176.9,1166.8,250.9,1166.8,326.1z
		"/>
	<path d="M562.7,1395.2c65-37.7,129-74.8,193.8-112.3c0,75.2,0,149.2,0,224.6C691.8,1470,627.8,1432.9,562.7,1395.2z"/>
	<path d="M1369.5,219.8c0,75.5,0,149.5,0,224.6c-64.7-37.5-128.6-74.6-193.7-112.3C1240.7,294.5,1304.7,257.4,1369.5,219.8z"/>
	<path d="M1369.4,916.8c-64.7-37.5-128.5-74.5-193.6-112.2c64.9-37.6,128.8-74.7,193.6-112.2
		C1369.4,767.3,1369.4,841.3,1369.4,916.8z"/>
	<path d="M1572.4,804.6c-64.8,37.6-128.8,74.7-193.7,112.3c0-75.2,0-149.4,0-224.5C1443.3,729.7,1507.4,766.9,1572.4,804.6z"/>
	<path d="M348.8,810.3c0,75.5,0,149.6,0,224.8c-64.7-37.5-128.7-74.6-193.9-112.4C219.7,885.2,283.7,848,348.8,810.3z"/>
	<path d="M346.2,804.6c-65.1,37.7-128.9,74.7-193.5,112.1c0-75.2,0-149.4,0-224.3C217.2,729.8,281.1,766.9,346.2,804.6z"/>
	<path d="M346.2,568.3c-65.2,37.8-128.9,74.7-193.4,112.1c0-74.9,0-149,0-224.2C217.3,493.7,281.2,530.7,346.2,568.3z"/>
	<path d="M1381.1,922.7c65.1-37.7,129-74.8,193.6-112.2c0,75.2,0,149.2,0,224.4C1510.2,997.5,1446.2,960.4,1381.1,922.7z"/>
	<path d="M1574.7,1046.8c0,75.1,0,149.1,0,224.4c-64.6-37.4-128.5-74.5-193.5-112.2C1446,1121.3,1509.9,1084.3,1574.7,1046.8z"/>
	<path d="M961.9,1386.6c-64.8-36.6-128.8-72.8-193.8-109.5c64.9-37.6,128.9-74.7,193.8-112.3C961.9,1239,961.9,1312,961.9,1386.6z"
		/>
	<path d="M962,928.4c0,74.6,0,147.6,0,222c-64.8-36.6-128.7-72.7-194-109.6C833,1003.2,896.9,966.1,962,928.4z"/>
	<path d="M768,568.3c65.1-36.8,129-72.9,193.9-109.6c0,74.5,0,147.6,0,221.9C897.3,643.2,833.3,606.2,768,568.3z"/>
	<path d="M959.3,686.4c-65.1,37.7-129,74.8-193.8,112.3c0-74.3,0-147.3,0-221.8C830.1,613.4,894,649.6,959.3,686.4z"/>
	<path d="M554.3,1164.6c0,74.6,0,147.5,0,222.2c-64.9-36.7-128.9-72.8-194.1-109.7C425.2,1239.4,489.3,1202.3,554.3,1164.6z"/>
	<path d="M1166.9,577c0,74.3,0,147.3,0,221.6c-64.7-37.5-128.6-74.6-193.6-112.2C1038.3,649.7,1102.2,613.6,1166.9,577z"/>
	<path d="M560.3,1150.3c0-74.4,0-147.3,0-221.7C625,966.1,689,1003.1,754,1040.8C689,1077.6,625.1,1113.7,560.3,1150.3z"/>
	<path d="M973.3,450.2c64.9-36.7,128.8-72.8,193.4-109.3c0,74,0,147.1,0,221.4C1102.2,524.9,1038.3,487.9,973.3,450.2z"/>
	<path d="M754,1277.1c-64.9,37.6-128.8,74.7-193.4,112.1c0-73.9,0-147.1,0-221.4C625,1204.2,689,1240.3,754,1277.1z"/>
	<path d="M1367.1,922.7c-64.2,37.8-127.3,74.9-191,112.4c0-75,0-149.2,0-224.7C1239.8,847.8,1302.9,884.9,1367.1,922.7z"/>
	<path d="M1176,1507.6c0-75.5,0-149.6,0-224.8c63.8,37.5,126.9,74.6,191.1,112.4C1303.1,1432.9,1240,1470,1176,1507.6z"/>
	<path d="M360.2,804.6c64.1-37.7,127.2-74.8,190.9-112.3c0,75,0,149.2,0,224.6C487.4,879.4,424.3,842.3,360.2,804.6z"/>
	<path d="M756.4,798.7c-64.6-37.4-128.6-74.5-193.7-112.2c65-36.7,128.9-72.9,193.7-109.5C756.4,651.2,756.4,724.4,756.4,798.7z"/>
	<path d="M1369.3,1389.2c-64.6-37.4-128.5-74.5-193.5-112.2c64.8-36.7,128.7-72.7,193.5-109.4
		C1369.3,1241.8,1369.3,1314.9,1369.3,1389.2z"/>
	<path d="M1369.4,1150.2c-64.7-36.5-128.5-72.6-193.5-109.4c64.9-37.6,128.7-74.6,193.5-112.2
		C1369.4,1002.8,1369.4,1075.9,1369.4,1150.2z"/>
	<path d="M1161.8,568.3c-64.2,37.8-127.2,74.8-190.9,112.3c0-75.1,0-149.2,0-224.5C1034.7,493.6,1097.7,530.7,1161.8,568.3z"/>
	<path d="M348.7,576.9c0,74.4,0,147.5,0,221.9C284,761.3,220,724.2,154.9,686.5C219.9,649.7,283.8,613.6,348.7,576.9z"/>
	<path d="M756.5,101.6c0,75.1,0,149.1,0,224.6c-63.8-37.5-126.9-74.6-191-112.3C629.6,176.2,692.7,139.2,756.5,101.6z"/>
	<path d="M970.9,1401.1c63.8,37.5,126.8,74.6,190.8,112.2c-64,37.6-127,74.7-190.8,112.3C970.9,1550.5,970.9,1476.5,970.9,1401.1z"
		/>
	<path d="M565.5,922.7C629.6,885,692.6,848,756.4,810.5c0,75.3,0,149.4,0,224.5C692.7,997.5,629.7,960.4,565.5,922.7z"/>
	<path d="M971,692.3c63.8,37.5,126.8,74.6,190.8,112.2c-63.9,37.6-126.9,74.7-190.8,112.2C971,841.6,971,767.4,971,692.3z"/>
	<path d="M1378.7,1389.4c0-74.2,0-147.4,0-221.8c64.7,36.6,128.8,72.8,193.7,109.5C1507.6,1314.7,1443.5,1351.8,1378.7,1389.4z"/>
	<path d="M1378.6,1150.3c0-74.2,0-147.3,0-221.8c64.7,37.5,128.8,74.6,193.8,112.3C1507.4,1077.6,1443.4,1113.8,1378.6,1150.3z"/>
	<path d="M348.6,1046.7c0,74.2,0,147.5,0,221.8c-64.8-36.6-128.8-72.8-193.7-109.5C220,1121.2,284,1084.1,348.6,1046.7z"/>
	<path d="M348.6,559.7c-64.9-36.7-128.9-72.8-193.7-109.5c64.9-37.6,128.9-74.7,193.7-112.3C348.6,412.1,348.6,485.3,348.6,559.7z"
		/>
	<path d="M970.8,444.4c0-75.3,0-149.3,0-224.6c63.9,37.6,126.9,74.6,191,112.3C1097.8,369.7,1034.8,406.8,970.8,444.4z"/>
	<path d="M357.8,562.5c0-75.5,0-149.4,0-224.5c63.8,37.5,126.8,74.6,190.9,112.3C484.7,487.8,421.7,524.9,357.8,562.5z"/>
	<path d="M357.9,810.5c63.9,37.6,126.8,74.6,190.7,112.2c-63.9,37.6-126.9,74.7-190.7,112.2C357.9,960.1,357.9,886,357.9,810.5z"/>
	<path d="M1369.3,680.5c-63.8-37.5-126.7-74.5-190.7-112.2c63.9-37.6,126.8-74.6,190.7-112.2
		C1369.3,531.2,1369.3,605.3,1369.3,680.5z"/>
	<path d="M358,1046.8c63.9,37.6,126.7,74.5,190.7,112.2c-63.9,37.6-126.8,74.6-190.7,112.2C358,1196.1,358,1122,358,1046.8z"/>
	<path d="M357.8,1283c63.7,37.5,126.7,74.5,190.8,112.2c-63.9,37.6-126.9,74.7-190.8,112.3C357.8,1432.2,357.8,1358.1,357.8,1283z"
		/>
	<path d="M1378.6,680.6c0-75.1,0-149.1,0-224.6c63.8,37.5,127,74.7,191,112.3C1505.5,606,1442.4,643.1,1378.6,680.6z"/>
	<path d="M959.2,1631.4c-7.7,4.5-14.2,8.3-20.8,12.1c-39.9,22.7-79.9,45.4-119.8,68.1c-6.9,3.9-13.7,8-20.7,11.9
		c-1.2,0.7-2.9,1-4.3,0.8c-8.6-0.8-17.2-1.7-25.8-2.8c-1-0.1-2.1-1.6-2.7-2.7c-0.4-0.8-0.1-2-0.1-3c0-63.6,0-127.3,0-190.9
		c0-1.5,0.1-2.9,0.3-6C830.1,1556.6,894,1593.6,959.2,1631.4z"/>
	<path d="M152.6,928.7c64.6,37.5,128.5,74.5,193.5,112.2c-65,36.8-129,72.9-193.5,109.4C152.6,1075.9,152.6,1002.9,152.6,928.7z"/>
	<path d="M1381.1,686.5c65.1-36.8,128.9-72.9,193.5-109.4c0,74.2,0,147.2,0,221.5C1510.1,761.2,1446.3,724.2,1381.1,686.5z"/>
	<path d="M551.3,442.8c-63.8-37-126.9-73.6-191.1-110.7c64-37.7,127.2-74.8,191.1-112.4C551.3,294.4,551.3,368,551.3,442.8z"/>
	<path d="M959.2,208.2c-64.7-37.5-128.7-74.6-193.8-112.3c6-3.5,10.9-6.4,15.9-9.2c32.4-18.4,64.9-36.9,97.3-55.3
		c16-9.1,32-18.2,48-27.2c1.5-0.8,3.5-1.3,5.2-1.2c9.1,0.9,18.1,2.1,27.4,3.2C959.2,73.2,959.2,140.1,959.2,208.2z"/>
	<path d="M1378.6,444.4c0-75.2,0-149.2,0-224.3c5.3,2.9,10.3,5.4,15.1,8.1c40.5,23,81.1,45.9,121.3,69.4
		c6.1,3.6,10.6,10.2,15.3,15.9c7.1,8.8,13.6,18,20.3,27c0.6,0.8,0.9,1.7,1.6,3C1494.4,377.2,1436.9,410.6,1378.6,444.4z"/>
	<path d="M360.2,568.3c64.3-36.9,127.3-73,191-109.6c0,74.3,0,147.6,0,221.9C487.7,643.3,424.7,606.2,360.2,568.3z"/>
	<path d="M1175.9,1268.6c0-74.4,0-147.7,0-222.1c63.6,37.4,126.7,74.5,191.2,112.4C1303,1195.7,1239.9,1231.9,1175.9,1268.6z"/>
	<path d="M1176.1,576.9c63.7,36.5,126.7,72.7,191,109.5c-64.1,37.7-127.2,74.8-191,112.3C1176.1,724.6,1176.1,651.4,1176.1,576.9z"
		/>
	<path d="M1574.5,562.3c-64.6-37.4-128.5-74.5-193.3-112c7.7-4.5,14.5-8.5,21.3-12.4c37.7-21.6,75.5-43.1,113.2-64.6
		c12.8-7.3,25.6-14.7,38.4-22.1c3-1.7,4.5-1.5,6.5,1.9c3.8,6.7,8.7,12.9,12.9,19.4c0.8,1.3,1.4,3,1.4,4.6c0.1,60.7,0.1,121.3,0,182
		C1575,559.7,1574.8,560.3,1574.5,562.3z"/>
	<path d="M212.8,1427.3c3.3,3.7,6.5,7.4,9.8,11c-0.4,0.4-0.7,0.8-1.1,1.2c-0.6-0.1-1.4,0-1.7-0.3c-14.5-17.6-28.8-35.3-43.3-53
		c-2.4-3-2.5-4.7,1.2-6.9c56.1-32.5,112.1-65.1,168.2-97.6c0.7-0.4,1.5-0.6,2.7-1.2c0,74.6,0,148.8,0,224.1
		c-45.4-26.3-90.3-52.3-135.1-78.3C213.2,1426.7,213,1427,212.8,1427.3z"/>
	<path d="M756.3,1268.4c-63.6-36.5-126.6-72.6-190.8-109.4c64-37.6,127-74.7,190.8-112.2C756.3,1120.9,756.3,1194.1,756.3,1268.4z"
		/>
	<path d="M565.5,450.2c64-37.7,127.1-74.8,191-112.3c0,74.2,0,147.3,0,221.8C692.6,523.1,629.5,486.9,565.5,450.2z"/>
	<path d="M970.9,1167.6c63.8,36.6,126.9,72.7,190.9,109.5c-64,37.6-127,74.7-190.9,112.3C970.9,1315.2,970.9,1242,970.9,1167.6z"/>
	<path d="M970.8,1150.3c0-74.4,0-147.4,0-221.8c63.9,37.6,126.9,74.6,191,112.3C1097.7,1077.6,1034.6,1113.8,970.8,1150.3z"/>
	<path d="M357.8,798.7c0-74.3,0-147.3,0-221.7c63.7,36.5,126.7,72.6,190.9,109.4C484.7,724.1,421.7,761.1,357.8,798.7z"/>
	<path d="M551.4,928.4c0,74,0,146.8,0,220.5c-63.7-36-126.8-71.6-191.1-108C424.3,1003.1,487.4,966,551.4,928.4z"/>
	<path d="M169.3,1375.4c-5-6.7-9.9-13.2-14.7-19.9c-1.1-1.5-2.2-3.5-2.2-5.2c-0.1-60.6-0.1-121.2-0.1-181.9c0-0.8,0.2-1.6,0.5-3.4
		c64.3,36.3,128.1,72.4,193.3,109.2C286.3,1308.5,227.5,1342.1,169.3,1375.4z"/>
	<path d="M968.1,208.1c0-68,0-134.7,0-201.6c10,1.5,19.7,2.9,29.3,4.4c3.6,0.5,7.2,1.1,10.9,1.5c12.9,1.2,22.5,9.4,33.1,15.4
		c37.7,21.6,75.3,43.4,112.9,65.2c1.2,0.7,2.3,1.7,4.3,3.2C1094.9,133.5,1031.9,170.6,968.1,208.1z"/>
	<path d="M756.5,1519.1c0,68,0,134.7,0,201.7c-10.1-1.5-19.9-3.8-29.7-4.3c-17.9-1-31.6-11.5-46.2-19.7
		c-36.9-20.7-73.6-41.7-110.3-62.6c-1.3-0.7-2.4-1.7-4.2-3.1C629.6,1593.8,692.6,1556.7,756.5,1519.1z"/>
	<path d="M1176.1,1510.4c64.8-36.6,128.6-72.7,193.4-109.3c0.3,3.1,0.6,5.1,0.6,7.1c0,48.8,0,97.6,0.1,146.4c0,2.6,0.4,5.1,0.8,8.8
		c-6.5,4.6-13.7,9.8-21.2,14.8c-7.2,4.8-14.6,9.2-21.8,13.9c-3.9,2.5-7.3,2.2-11.3-0.2c-22.1-13-44.5-25.7-66.7-38.6
		c-22.8-13.2-45.6-26.4-68.4-39.6C1179.9,1512.8,1178.5,1511.9,1176.1,1510.4z"/>
	<path d="M357.8,326.2c-0.2-3-0.5-4.9-0.5-6.8c0-49.3,0-98.6-0.1-147.9c0-3.9,1-6.9,4.1-9.1c10.5-7.2,21-14.4,31.6-21.6
		c0.5-0.4,1.3-0.5,1.7-1c7.6-8.3,14.5-5.6,23.2-0.5c42.1,24.9,84.6,49,127,73.4c1.8,1.1,3.6,2.3,6.4,4.1
		C486.6,253.4,422.7,289.5,357.8,326.2z"/>
	<path d="M143.5,693c0,73.4,0,146.7,0,220.9c-5.8-3.2-11.2-6.1-16.4-9c-40.2-22.8-80.4-45.7-120.7-68.5c-4.4-2.5-5.9-5-5.3-10.5
		c1.6-13.4,2-26.9,3-40.3c0.2-3.3,0.7-6.6,1.6-9.8c0.4-1.5,1.8-3.1,3.2-3.9C53.2,745.5,97.6,719.3,142,693
		C142.2,692.9,142.6,693,143.5,693z"/>
	<path d="M1583.8,1035.1c0-74.2,0-147.5,0-221.6c3.9,2,7.3,3.7,10.7,5.6c42.4,24.1,84.7,48.2,127.1,72.2c4,2.3,5.1,4.6,4.6,9.4
		c-1.5,13.5-2,27.2-3,40.8c-0.2,2.8-0.5,5.7-1.4,8.3c-0.7,2.1-1.9,4.7-3.7,5.7c-36.2,21.6-72.5,42.9-108.7,64.3
		C1601.1,1024.8,1592.9,1029.7,1583.8,1035.1z"/>
	<path d="M973.9,1631.1c64.4-37.3,128.3-74.4,193-111.9c0.2,2.8,0.4,4.5,0.4,6.3c0,47.7,0,95.3,0.1,143c0,3.8-1.1,5.5-4.8,6.7
		c-22.1,7-44.2,14.3-66.3,21.6c-5,1.7-9.1,1.4-13.9-1.4c-34.8-20.6-69.8-40.9-104.8-61.3C976.5,1633.4,975.6,1632.5,973.9,1631.1z"
		/>
	<path d="M753.5,96.1c-64.6,37.4-128.4,74.4-193.2,112c-0.1-3-0.3-4.7-0.3-6.5c0-47.5,0-94.9-0.1-142.4c0-4.2,1.3-6.1,5.3-7.4
		c22.4-7.3,44.7-14.9,67.1-22.1c2.2-0.7,5.3-0.1,7.4,1c36.7,20.7,73.2,41.6,109.8,62.5C750.6,93.8,751.6,94.7,753.5,96.1z"/>
	<path d="M143.4,929.2c0,73.7,0,146.9,0,221.1c-7.3-4-14.1-7.7-20.8-11.5c-30.1-16.9-60.2-33.7-90.2-50.7c-2.1-1.2-4.3-3.5-4.8-5.7
		c-4.6-19.9-8.8-39.9-13-59.9c-1-4.6-1.7-9.2-2.6-13.7c-0.6-3,0.1-4.9,2.9-6.5c41.8-23.9,83.4-47.8,125.2-71.7
		C140.9,929.9,142,929.7,143.4,929.2z"/>
	<path d="M1584,577.1c7.7,4.3,14.7,8.2,21.8,12.1c29.5,16.5,58.9,33.2,88.6,49.4c4.5,2.5,5.1,6.4,6,10.2
		c5.1,22.8,9.9,45.8,14.9,68.6c0.9,4-0.2,6.2-3.9,8.3c-37.7,21.5-75.4,43.2-113,64.9c-4.5,2.6-9.1,5.1-14.3,8
		C1584,724.6,1584,651.4,1584,577.1z"/>
	<path d="M146.3,456.5c0,75,0,149.2,0,224.1c-7.9-4.3-15.2-8.3-22.5-12.4c-27.6-15.6-55.1-31.3-82.7-46.8c-3.1-1.8-4-3.1-3.1-6.9
		c8.8-36,23.6-69.7,38.3-103.5c1.3-3,3.1-5.9,4.1-9.1c2-6.7,6.2-11.1,12.4-14.5c16.9-9.5,33.5-19.5,50.2-29.4
		C143.8,457.6,144.7,457.2,146.3,456.5z"/>
	<path d="M238,268.3c35.3,20.8,71.1,42,108.1,63.8c-64.8,37.6-128.8,74.6-193.4,112.1c-0.2-2.4-0.4-4-0.4-5.6
		c0-20.8-0.1-41.7,0.1-62.5c0-3,1.2-6.6,3.1-8.9c22.8-28.3,45.8-56.4,68.8-84.4C228.6,277.8,233.4,273.3,238,268.3z"/>
	<path d="M1575,1282.8c0,2.9,0,4.7,0,6.4c0,20.5,0.1,41-0.1,61.5c0,3.2-1.3,6.9-3.2,9.4c-23.3,29.8-45.7,60.3-71.9,87.7
		c-9,9.4-9,9.3-20.1,3c-31.6-17.9-63.3-35.7-94.9-53.6c-0.8-0.5-1.6-1.1-3.3-2.4C1446,1357.6,1510,1320.5,1575,1282.8z"/>
	<path d="M1583.9,1271.3c0-75.4,0-149.6,0-224.6c9.2,5.5,18,10.8,26.7,16c24.4,14.7,48.8,29.5,73.2,44.2c6,3.6,6.1,4.1,4.3,11.1
		c-9.2,33.9-22.9,66.1-37,98.2c-0.7,1.7-1.6,3.3-2.1,5c-3,10.1-9.7,16.5-18.8,21.7C1614.7,1251.6,1599.9,1261.4,1583.9,1271.3z"/>
	<path d="M1313.6,1600.5c-46,26.5-91.3,51.5-140.4,70.1c0-50.5,0-100.3,0-151.6C1220.1,1546.3,1266.3,1573.1,1313.6,1600.5z"/>
	<path d="M554.1,208.2c-46.9-27.2-93.1-54-140.3-81.3c44.6-28.6,91.8-49.6,140.3-68.7C554.1,108,554.1,157.5,554.1,208.2z"/>
	<path d="M140.8,922.7c-43.5,25.5-86,50.5-129.3,75.9c-9-52-12-103.7-11.5-157.5C47.5,868.6,93.8,895.4,140.8,922.7z"/>
	<path d="M1725.9,885.4c-46.2-26.8-92.4-53.6-139.4-80.8c43.4-25.5,85.8-50.4,128.8-75.6c9.7,51.8,12.3,103.4,12,155.3
		C1726.8,884.6,1726.3,885,1725.9,885.4z"/>
	<path d="M140.8,686.4C95.4,713,51.1,738.8,5.7,765.3C14,717.6,18,670.4,34.1,624.7C69.6,645.2,104.6,665.5,140.8,686.4z"/>
	<path d="M1586.7,1040.7c45.3-26.4,89.6-52.2,134.8-78.6c-1.6,10.1-2.9,18.9-4.3,27.7c-3,18.5-5.4,37.2-9.2,55.6
		c-3.7,18-8.9,35.7-13.4,53.6c-1.1,4.5-3.6,2.4-5.6,1.3c-10.8-6.1-21.5-12.4-32.3-18.7c-21.8-12.6-43.6-25.3-65.4-37.9
		C1590.2,1042.9,1589,1042.1,1586.7,1040.7z"/>
	<path d="M242.1,264.6c33.8-33.9,68.8-65.3,106.6-95.3c0,52.7,0,104.1,0,157C312.8,305.5,277.7,285.2,242.1,264.6z"/>
	<path d="M1378.7,1401.1c35.8,20.7,70.9,41,106.4,61.6c-33.8,33.9-68.8,65.2-106.4,95.3C1378.7,1505.2,1378.7,1453.7,1378.7,1401.1z
		"/>
	<path d="M1178.7,95.9c8.8-5.5,17.1-9.7,24.1-15.3c8.8-7.1,16.3-5.9,26-1c42,21.1,83.4,43.1,122,70c5.6,3.9,11.1,7.8,16.5,12
		c1.3,1,2.5,2.9,2.5,4.4c0.2,13,0.1,26,0,39c0,0.6-0.4,1.2-0.9,2.8C1305.7,170.6,1242.8,133.6,1178.7,95.9z"/>
	<path d="M548.6,1631.4c-8.3,4.5-15.4,8.4-22.6,12.2c-0.6,0.3-1.2,0.5-1.7,0.9c-8.2,6.7-16.1,5.5-25.5,1.4
		c-49.1-21.4-94-49.7-137.9-79.8c-1.6-1.1-3.4-3.2-3.4-4.9c-0.3-13-0.1-26-0.1-39c0-0.6,0.4-1.2,0.9-2.8
		C421.6,1556.7,484.5,1593.7,548.6,1631.4z"/>
	<path d="M962,1637.2c0.2,2.6,0.3,4,0.3,5.5c0,24.5-0.1,49,0.1,73.4c0,4.4-1.3,5.4-5.5,5.9c-33.8,3.7-67.7,5.5-101.7,5.2
		c-13.3-0.1-26.6-0.9-39.9-1.5c-2.2-0.1-4.4-0.6-6.8-2C859.3,1695,910.2,1666.4,962,1637.2z"/>
	<path d="M765.3,90.1c-0.2-2.6-0.3-4.1-0.3-5.5c0-24.5,0.1-49-0.1-73.4c0-4.3,1.2-5.4,5.5-5.9c39.8-4.7,79.7-5.6,119.6-5.2
		c8.4,0.1,16.7,1.5,25.1,2.2c0.1,0.5,0.2,1.1,0.3,1.6C865.7,32.5,816,61.1,765.3,90.1z"/>
	<path d="M143.5,1168.4c0,58.1,0,115.8,0,174.6c-1.2-1.4-2.1-2.2-2.7-3.2c-17.6-32.3-35.4-64.5-52.8-96.9
		c-5.6-10.5-10.6-21.4-15.6-32.2c-0.6-1.4-0.1-4.6,0.9-5.2c22.8-12.5,45.8-24.8,68.7-37.2C142.3,1168.3,142.6,1168.4,143.5,1168.4z"
		/>
	<path d="M1584.7,384.7c4.6,7.8,9.3,15.5,13.6,23.5c13.6,25,27.2,50.1,40.5,75.3c5.7,10.8,10.8,22,16.1,33c1.2,2.5,1.4,4.2-1.8,5.9
		c-22.3,11.8-44.4,23.8-66.6,35.7c-0.7,0.4-1.4,0.6-2.6,1.1c0-58.4,0-116.2,0-174.1C1584.2,385,1584.5,384.9,1584.7,384.7z"/>
	<path d="M140.8,1159c-25,14.4-48.8,28.1-73,42.1c-15.7-34.2-25.2-69.8-36.1-104.8c0.3-0.3,0.7-0.7,1-1
		C68.4,1116.2,104,1137.2,140.8,1159z"/>
	<path d="M647.3,28.5c36-12.7,72.9-14.5,109.1-22.7c0,28.2,0,55.7,0,84.2C720.2,69.5,684.4,49.4,647.3,28.5z"/>
	<path d="M971,1637.4c36.2,20.4,71.9,40.6,108.8,61.4c-35.9,11.9-72.6,14.7-108.8,22.7C971,1693.4,971,1665.8,971,1637.4z"/>
	<path d="M1693.2,631.3c-35.2-20.7-70.3-41.5-106.7-63c24.8-13.4,48.6-26.2,72.9-39.3c15.3,33,24.6,67.6,35.2,101.7
		C1694.2,630.9,1693.7,631.1,1693.2,631.3z"/>
	<path d="M351.6,1519.7c0,13.4,0,25.6,0,37.9c-0.4,0.3-0.8,0.7-1.2,1c-44.8-35.3-89.9-70.3-125.7-115.5c0.2-0.4,0.5-0.8,0.7-1.2
		c40.8,22.6,81.6,45.3,123.4,68.5c-11.1,6.6-21.3,12.6-32.6,19.2c2.1,1.7,3.5,3.2,5.2,3.9c1.5,0.6,3.7,1.1,5,0.4
		c7-3.9,13.7-8.1,20.6-12.1C348.2,1521.1,349.6,1520.6,351.6,1519.7z"/>
	<path d="M1166.9,89.9c-40.7-23.5-80.6-46.6-120.6-69.7c0.1-0.4,0.2-0.7,0.3-1.1c3,0.6,6.1,1,9.1,1.8c34.8,9.9,69.6,20,104.3,29.9
		c5.2,1.5,8.1,3.7,7.5,10c-0.7,7.8-0.2,15.6-0.2,23.5C1167.3,85.9,1167,87.5,1166.9,89.9z"/>
	<path d="M560.1,1637.2c41,23.7,81,46.8,121,69.9c-0.1,0.4-0.2,0.8-0.4,1.2c-3.2-0.7-6.5-1.2-9.7-2.1c-31.5-8.8-63-17.7-94.4-26.6
		c-4.6-1.3-9.1-3.1-13.6-4.9c-1.2-0.5-2.8-1.9-2.8-2.9C560,1660.6,560.1,1649.5,560.1,1637.2z"/>
	<path d="M1498.9,279.3c-38.9-21.6-77.7-43.2-117.7-65.4c10.4-6.7,19.8-12.7,29-18.5c32.2,25.4,62.1,52.7,89.4,82.8
		C1499.3,278.6,1499.1,279,1498.9,279.3z"/>
	<path d="M1635.9,1251.2c-4.9,9.8-9.8,19.6-14.6,29.4c-1.7,3.4-3.1,7-5.2,10.2c-0.7,1-3.3,2-4.1,1.6c-8.3-4.8-16.5-9.8-25.4-15.3
		c16.6-9.2,32.4-18,48.3-26.8C1635.2,1250.5,1635.6,1250.9,1635.9,1251.2z"/>
	<path d="M1583.9,1342c0-19.4,0-38.7,0-59.1c8.1,5.5,15.7,10.3,23,15.7c0.8,0.6,0.5,4-0.3,5.5c-5.1,9.1-10.4,18.1-15.7,27.1
		c-2.1,3.7-4.2,7.4-6.3,11.1C1584.4,1342.2,1584.2,1342.1,1583.9,1342z"/>
	<path d="M143.3,444.3c-8.1-5.4-15.6-10.3-22.9-15.6c-0.8-0.6-0.5-4,0.3-5.5c5.1-9.1,10.4-18.1,15.7-27.1c2.1-3.7,4.2-7.4,6.9-12.2
		C143.3,404.5,143.3,423.9,143.3,444.3z"/>
	<path d="M91.4,476.1c6.7-13.4,13.4-26.8,20.3-40.5c9.7,4.9,18.9,9.6,29.1,14.7c-16.6,9.2-32.4,18-48.3,26.9
		C92.1,476.7,91.7,476.4,91.4,476.1z"/>
	<path d="M1206.3,70.8c-11.3,6.6-21.9,12.7-33.1,19.3c0-11.5,0-22.1,0-33.8C1184.3,61.1,1194.9,65.7,1206.3,70.8z"/>
	<path d="M1378.6,208.1c0-13.3,0-25.3,0-38.4c10.5,5.8,18.8,13.3,27.8,21.7C1397,197.1,1388.2,202.3,1378.6,208.1z"/>
	<path d="M554.1,1669.4c-10.9-4.3-21.4-8.5-32.8-13c11.1-6.5,21.6-12.6,32.8-19.2C554.1,1648.6,554.1,1659,554.1,1669.4z"/>
</g>
</svg>
