<?xml version="1.0" encoding="utf-8"?>
<!-- Generator: Adobe Illustrator 19.2.1, SVG Export Plug-In . SVG Version: 6.00 Build 0)  -->
<svg version="1.1" id="Layer_1" xmlns="http://www.w3.org/2000/svg" xmlns:xlink="http://www.w3.org/1999/xlink" x="0px" y="0px"
	 viewBox="0 0 1727.5 1727.4" style="enable-background:new 0 0 1727.5 1727.4;" xml:space="preserve">
<g>
	<path d="M863.6,1679.5c-453.2,0.1-815.9-363.1-815.7-816C48,410.1,411.3,47.7,864.1,47.9c453.5,0.2,815.8,363.6,815.5,816.3
		C1679.2,1317.4,1316.2,1679.8,863.6,1679.5z"/>
	<path d="M978.9,1721.6c-2.8,0-5-0.1-7.3,0c-12.5,0.9-25,1.8-37.5,2.9c-4.8,0.4-6.1-1.5-5.8-5.9c0.3-4,0.2-8,0-12
		c-0.2-3.2,0.7-4.8,4.2-5.2c12.5-1.5,25-3.3,37.4-5.1c4.4-0.6,6.8,0.2,7,5.3C977.2,1708.1,978.2,1714.5,978.9,1721.6z"/>
	<path d="M5.8,978.9c0-7.1,0.4-13.6-0.1-20c-0.6-8.2-1.8-16.3-2.8-24.5c-0.6-4.8,1.2-6.6,6-6.2c4.3,0.4,8.6-0.1,12.9,0.2
		c1.3,0.1,3.4,1.3,3.6,2.3c2.2,14.9,4.2,29.8,6.3,45.4C22.7,977.1,14.6,978,5.8,978.9z"/>
	<path d="M1696.6,751.2c8.1-0.9,16.1-1.7,25.1-2.6c0,3-0.2,5.6,0,8.2c0.9,12,1.8,24,2.9,36c0.5,5-1,7.1-6.2,6.5
		c-2.8-0.4-5.6,0-8.5-0.1c-8.8-0.2-7.4,1.4-8.9-7.9c-1.7-10.6-3-21.3-4.4-32C1696.3,756.7,1696.6,754.2,1696.6,751.2z"/>
	<path d="M751.2,30.9c-0.9-8.1-1.7-16.1-2.6-25.1c3,0,5.6,0.2,8.2,0c12-0.9,24-1.8,36-2.9c5-0.5,7.1,1,6.5,6.2
		c-0.3,2.8,0,5.6-0.1,8.5c-0.2,8.8,1.4,7.4-7.9,8.9c-10.6,1.7-21.3,3-32,4.4C756.7,31.1,754.2,30.9,751.2,30.9z"/>
	<path d="M1721.6,978.9c-8.9-0.9-16.9-1.8-25.4-2.6c0.3-2.9,0.5-5.1,0.7-7.4c0.7-6.9,1.6-13.8,2.1-20.8c0.3-3.6-0.1-7.3,0.2-11
		c0.7-7.9,1.6-8.5,9.4-7.6c4.3,0.5,8.6,0.8,12.9,1.6c1.1,0.2,2.9,2,2.8,3c-0.4,5.7-1.2,11.5-1.9,17.2c-0.3,2.3-0.8,4.6-0.8,6.9
		C1721.6,964.8,1721.6,971.4,1721.6,978.9z"/>
	<path d="M978.9,5.8c-0.9,8.9-1.8,16.9-2.7,25.4c-2.7-0.2-4.8-0.3-7-0.6c-7.6-0.7-15.2-1.6-22.8-2.2c-3.5-0.3-7.1,0.3-10.5-0.4
		c-8.6-1.8-8.1-2.3-6.7-8.8c0.9-4.4,0.9-8.9,1.8-13.3c0.2-1.1,2-2.7,3.1-2.8c3.8-0.3,8-0.9,11.4,0.3c8.9,3.2,18,2.2,27.1,2.4
		C974.5,5.8,976.3,5.8,978.9,5.8z"/>
	<path d="M5.8,748.5c8.9,0.9,16.9,1.8,25.4,2.6c-0.2,2.7-0.3,4.8-0.5,6.9c-0.7,7.8-1.6,15.5-2.3,23.3c-0.3,3,0.1,6-0.2,9
		c-0.7,7.9-1.6,8.5-9.4,7.6c-4.3-0.5-8.6-0.8-12.9-1.6c-1.1-0.2-2.9-2-2.8-3c0.4-5.7,1.2-11.5,1.9-17.2c0.3-2.3,0.8-4.6,0.8-6.9
		C5.9,762.7,5.8,756,5.8,748.5z"/>
	<path d="M796.1,1725.5c-7.2-1.1-13.7-2.3-20.1-3.1c-4.4-0.5-8.9-0.6-13.4-0.7c-4.4-0.1-8.9,0-14,0c0.9-8.2,1.7-15.8,2.6-23.3
		c0.1-0.8,1.5-2,2.2-1.9c13.7,1.2,27.4,2.5,41.1,3.8c4,0.4,4.6,2.6,3.9,6.3C797.4,1712.4,796.9,1718.3,796.1,1725.5z"/>
	<path d="M1263.5,123.3c3.6-6.3,7.1-12.4,11-19.2c10.9,5.7,21.4,11.2,31.9,16.9c3.3,1.8,8.1,3.6,8.8,6.4c0.7,2.8-2.6,6.8-4.2,10.2
		c-1,2.1-2.1,4.1-3.1,6.2c-2.7,5.6-3,5.7-8.3,2.4c-11.4-7-22.9-14-34.3-21.1C1264.7,124.8,1264.3,124.1,1263.5,123.3z"/>
	<path d="M422.1,1578.2c14.3,8.7,27.9,17,42,25.5c-3.4,5.9-6.4,11.5-9.8,17c-0.5,0.8-2.9,1.5-3.9,1c-12.3-6.5-24.6-13.1-36.7-19.8
		c-0.9-0.5-2-2.2-1.7-2.8C415.1,1592.2,418.6,1585.4,422.1,1578.2z"/>
	<path d="M1407.3,1506.4c11.2-10.9,21.9-21.2,32.4-31.7c2.6-2.6,4-3.2,6.5,0.2c4,5.4,8.7,10.3,13.3,15.5
		c-11.6,10-22.6,19.8-33.8,29.3c-0.9,0.7-3.5,0.6-4.4-0.2C1416.2,1515,1411.5,1510.4,1407.3,1506.4z"/>
	<path d="M237.1,1459.5c-9.9-11.4-19.4-22.3-28.9-33.1c-1.9-2.1-2.1-3.6,0.1-5.8c4.6-4.5,8.9-9.3,12.6-13.4
		c11.1,11.3,21.4,22,31.9,32.5c2.7,2.7,2.8,4.1-0.4,6.5C247.2,1450.3,242.4,1454.9,237.1,1459.5z"/>
	<path d="M268,237.1c11.3-9.8,21.9-19,32.4-28.4c2.6-2.3,4.3-2.8,7,0.1c4.1,4.5,8.8,8.5,12.7,12.3c-11.3,11.1-22.1,21.7-32.8,32.3
		c-2.1,2-3.5,2.4-5.6-0.3C277.4,247.7,272.7,242.6,268,237.1z"/>
	<path d="M1506.2,319.9c-10.9-11.1-21.2-21.8-31.7-32.3c-2.3-2.3-3-3.8,0.1-6.2c5.4-4.1,10.3-8.7,15.8-13.4
		c10,11.5,19.8,22.7,29.4,34c0.7,0.8,0.3,3.5-0.6,4.4C1514.9,311.2,1510.3,315.8,1506.2,319.9z"/>
	<path d="M171.3,388c-5.8-4.1-11.6-8.2-17.2-12.5c-0.7-0.6-1-2.7-0.5-3.7c1.2-2.5,2.7-5,4.4-7.2c7.4-9.7,15-19.2,22.8-29.2
		c6.2,4.5,12.4,8.9,18.6,13.3C189.9,361.8,180.9,374.5,171.3,388z"/>
	<path d="M1528.1,1378.8c9.6-13.5,18.6-26.1,28-39.3c5.8,4.1,11.7,8.3,17.4,12.6c0.7,0.5,0.7,2.8,0.2,3.7c-2,3.6-4.2,7.2-6.7,10.4
		c-6.5,8.5-13.3,16.9-20.4,25.8C1540.5,1387.7,1534.3,1383.2,1528.1,1378.8z"/>
	<path d="M1727.4,863.7c0,6.8-0.1,13.6,0.1,20.4c0.1,3.6-0.9,5.2-4.8,5c-4.6-0.2-9.3-0.2-14,0c-3,0.1-4.1-1.2-4.1-4.1
		c0.1-14.1,0.1-28.3,0-42.4c0-3.3,1.3-4.4,4.5-4.3c4.6,0.2,9.3,0.1,14,0c3.2-0.1,4.5,1.1,4.4,4.4
		C1727.3,849.7,1727.4,856.7,1727.4,863.7z"/>
	<path d="M1378.8,199.3c-13.3-9.5-26-18.6-39.3-28.1c4.1-5.8,8.3-11.7,12.7-17.4c0.5-0.6,3.1-0.5,4.1,0.2c9.4,6.7,18.7,13.6,28,20.5
		c2.5,1.9,5,3.8,7.9,6.1C1387.8,186.8,1383.4,192.9,1378.8,199.3z"/>
	<path d="M387.9,1556.2c-4.1,5.7-8,11.5-12.4,17.1c-0.6,0.8-3.4,0.8-4.4,0.1c-9.4-6.7-18.7-13.6-28-20.5c-2.5-1.9-5-3.8-7.9-6
		c4.4-6.2,8.8-12.3,13.3-18.6C361.8,1537.5,374.6,1546.7,387.9,1556.2z"/>
	<path d="M1678.7,1153c-6.4-1.5-13-2.8-19.4-4.8c-1.1-0.3-1.9-4.3-1.4-6.2c2.3-8.4,5.2-16.7,7.7-25.1c1.4-4.6,2.5-9.3,4.1-13.8
		c0.4-1.1,2.7-2.5,3.5-2.2c6.6,2.2,13,4.8,19.6,7.3C1688,1123.3,1683.4,1137.9,1678.7,1153z"/>
	<path d="M619.2,34.6c2.5,6.6,5.1,13,7.3,19.6c0.3,0.9-1.1,3.2-2.2,3.6c-7.8,2.8-15.7,5.2-23.6,7.8c-4.1,1.3-8.1,2.8-12.2,4.1
		c-3.8,1.3-6.5,1.1-7.8-3.7c-1.7-5.8-4.1-11.5-6.3-17.2C589.4,44.1,603.9,39.5,619.2,34.6z"/>
	<path d="M1153,1678.6c-15.2,4.8-29.5,9.4-44.7,14.2c-2.5-6.5-5.1-13.2-7.4-20c-0.3-0.8,1.4-2.9,2.6-3.4c6.8-2.6,13.7-4.9,20.7-7.2
		c4.9-1.6,9.8-2.9,14.7-4.5c3.8-1.2,6.5-1.2,7.9,3.6C1148.4,1667.2,1150.9,1672.8,1153,1678.6z"/>
	<path d="M1678.6,574.4c4.8,15.1,9.4,29.5,14.2,44.8c-6.6,2.5-13.4,5.1-20.2,7.4c-0.7,0.2-2.7-1.3-3-2.4c-2.7-7.8-5.1-15.7-7.7-23.6
		c-1.3-3.9-2.6-7.8-4-11.7c-1.4-4-1.3-6.8,3.7-8.2C1667.4,579,1673,576.5,1678.6,574.4z"/>
	<path d="M48.8,1153c-4.8-15-9.3-29.5-14.2-44.8c6.6-2.5,13.3-5.1,20.2-7.4c0.7-0.2,2.7,1.3,3.1,2.3c2.7,7.8,5.1,15.7,7.7,23.6
		c1.3,3.9,2.6,7.8,4,11.7c1.4,3.9,1.4,6.8-3.6,8.3C60.1,1148.5,54.5,1150.9,48.8,1153z"/>
	<path d="M579.6,1654.9c15.7,4.6,31.1,9.2,47.4,14c-1.6,4.4-3.2,9.1-5,13.8c-3.5,8.8-4,8.8-12.8,5.8c-8.9-3.1-17.8-6-26.8-8.7
		c-7.7-2.3-8-2.4-6.5-10.3c0.1-0.8,0.3-1.6,0.5-2.4C577.3,1663.1,578.4,1659.2,579.6,1654.9z"/>
	<path d="M1148,72.6c-15.8-4.7-31.3-9.3-47.5-14.1c1.6-4.4,3.2-9.2,5-13.8c3.5-8.7,4-8.8,12.9-5.7c8.9,3.1,17.8,6,26.8,8.7
		c7.5,2.2,8,2.5,6.5,9.9C1150.7,62.5,1149.3,67.4,1148,72.6z"/>
	<path d="M1641,545.3c-6.1-14.9-11.9-29.1-18.1-44.2c6.5-2.8,12.5-5.4,18.5-7.7c0.6-0.2,2.2,1.4,3,2.5c7.7,10.9,12.9,23.1,16.7,35.8
		c0.4,1.2-0.5,3.7-1.5,4.3C1653.5,539.3,1647.3,542.2,1641,545.3z"/>
	<path d="M86.5,1182.1c6.1,14.8,11.9,29.2,18.1,44.2c-6.5,2.8-12.3,5.4-18.3,7.7c-0.7,0.3-2.4-1.2-3.1-2.2
		c-7.9-11-13-23.4-16.9-36.3c-0.4-1.2,0.7-3.6,1.8-4.2C74,1188.1,80.1,1185.2,86.5,1182.1z"/>
	<path d="M501.1,104.5c-2.8-6.5-5.3-12.2-7.6-18c-0.3-0.7,0.7-2.4,1.5-3c11.3-8,23.9-13.4,37.2-17.4c1.1-0.3,3.3,0.6,3.9,1.6
		c3.3,6.1,6.2,12.4,9.3,18.7C530.6,92.5,516.1,98.4,501.1,104.5z"/>
	<path d="M1182.1,1641c14.9-6.1,29.3-11.9,44.3-18.1c3,7,5.7,13.3,8.3,19.3c-12.2,9.2-25.4,14.8-39.2,19.1c-1.1,0.3-3.4-0.6-3.9-1.5
		C1188.2,1653.7,1185.3,1647.4,1182.1,1641z"/>
	<path d="M48.9,574.4c6.4,1.5,12.9,2.8,19.2,4.6c3.8,1.1,2.2,4.4,1.5,6.7c-2.4,8.2-5.2,16.4-7.7,24.6c-1.3,4.1-2.3,8.3-3.5,12.5
		c-1,3.7-2.8,4.9-6.5,2.8c-3.2-1.8-6.5-3.5-10-4.4c-4.7-1.2-5.8-4.1-4.7-8.1c2.6-9.4,5.3-18.8,8-28.2
		C46.3,581.6,47.5,578.4,48.9,574.4z"/>
	<path d="M711.5,1691.5c-1.5,6.3-2.9,12.6-4.7,18.8c-0.3,1.1-2.3,2.5-3.5,2.4c-3.6-0.2-7.5-0.3-10.7-1.8c-9-4.1-18.7-3.9-28.1-5.8
		c-1.7-0.3-3.5-0.5-5.8-0.8c1.6-6.8,2.9-13.1,4.6-19.3c0.3-1.1,2.8-2.5,4-2.4c8,1.2,15.9,2.7,23.9,4.3
		C697.7,1688.3,704.1,1689.9,711.5,1691.5z"/>
	<path d="M268.2,1490c3.7-5.2,7.4-10.5,11.1-15.8c1.5-2.2,2.9-2.2,4.9-0.5c10.9,9.8,21.8,19.5,33,29.6c-3.6,5.1-7.5,11-11.8,16.5
		c-0.6,0.8-3.9,0.7-5-0.2c-4.8-4-9.3-8.4-13.9-12.7C280.5,1501.4,274.6,1495.9,268.2,1490z"/>
	<path d="M1068.7,23.2c-1.6,6.9-3,13.3-4.7,19.6c-0.3,1-2.6,2.2-3.8,2c-8-1.2-15.9-2.7-23.9-4.3c-6.5-1.3-12.9-2.9-20.3-4.6
		c1.5-6.3,3.1-13,4.9-19.6c0.2-0.8,2.1-1.7,3-1.6c3.6,0.3,7.5,0.3,10.7,1.8c9.1,4.2,19.1,4,28.6,5.8
		C1064.8,22.7,1066.4,22.8,1068.7,23.2z"/>
	<path d="M1409.6,225.1c4.2-6,8.2-12,12.7-17.7c0.6-0.7,3.9-0.3,5.1,0.7c4.7,3.9,9.1,8.2,13.6,12.4c5.9,5.5,11.8,11.1,18.2,17.1
		c-3.6,5.2-7.5,10.9-11.7,16.3c-0.5,0.6-3.4,0.4-4.3-0.4c-8.6-7.4-17-15.1-25.6-22.5C1415.3,228.8,1412.6,227.2,1409.6,225.1z"/>
	<path d="M862,1727.4c-6.3,0-12.6-0.1-19,0.1c-3.4,0.1-4.9-1-4.8-4.5c0.2-4.6,0.1-9.3,0-14c-0.1-2.8,0.7-4.3,3.9-4.3
		c13.5,0.1,26.9,0.1,40.4,0c2.5,0,3.7,0.9,3.6,3.5c-0.1,5.2-0.1,10.3,0,15.5c0.1,3.2-1.4,3.9-4.3,3.8
		C875.3,1727.3,868.7,1727.4,862,1727.4z"/>
	<path d="M22.8,862.7c0,6.3-0.1,12.6,0.1,19c0.1,3.4-0.9,4.9-4.5,4.7c-4.6-0.3-9.3-0.2-14,0C1.2,886.4,0,885.4,0,882
		c0.2-13,0.1-25.9,0-38.9c0-3.3,0.9-4.9,4.5-4.8c4.6,0.2,9.3,0.2,14,0c3.3-0.1,4.4,1.2,4.3,4.4C22.7,849.4,22.8,856,22.8,862.7z"/>
	<path d="M864.9,22.8c-6.3,0-12.6-0.2-18.9,0.1c-3.8,0.2-5-1.3-4.8-4.9c0.2-4.5,0.2-9,0-13.5c-0.1-3.1,0.8-4.5,4.2-4.4
		c13.1,0.2,26.3,0.1,39.4,0c3.3,0,4.4,1.3,4.3,4.4c-0.1,4.7-0.2,9.3,0,14c0.1,3.2-1.1,4.5-4.3,4.4C878.2,22.7,871.5,22.8,864.9,22.8
		z"/>
	<path d="M534.9,1661.8c-15.2-6.6-29.6-12.9-44.8-19.5c3.5-7,7.1-14.3,10.9-22.1c6.7,3.9,12.4,7.9,18.7,10.8
		c6,2.8,12.4,4.6,18.7,6.7c3.7,1.2,5,2.8,3.1,6.9C538.9,1650.2,537,1656,534.9,1661.8z"/>
	<path d="M1192.6,65.7c15,6.5,29.5,12.8,44.8,19.5c-3.4,6.9-7,14.2-10.9,22.1c-5.7-3.4-10.6-6.8-16-9.2c-7-3.2-14.4-5.7-21.7-8.4
		c-3.3-1.2-4.8-2.6-3-6.5C1188.5,77.5,1190.4,71.5,1192.6,65.7z"/>
	<path d="M1714,1018.5c-3.5,16-6.8,31.4-10.2,47.3c-6.3-1.5-12.8-2.8-19.1-4.6c-1-0.3-2.2-2.6-2-3.8c1.3-8.1,2.9-16.2,4.5-24.3
		c0.9-4.5,1.9-9,3.2-13.5c0.4-1.3,1.9-3.4,2.8-3.4C1699.7,1016.7,1706.1,1017.6,1714,1018.5z"/>
	<path d="M23.2,661.5c6.8,1.6,13.1,2.9,19.3,4.6c1.1,0.3,2.5,2.5,2.3,3.6c-1.2,8-2.7,15.9-4.3,23.9c-0.9,4.7-2.6,9.3-3.3,14
		c-0.5,3.3-1.5,4.1-4.8,3.6c-5.7-0.9-11.5-1.3-18.7-2.1c1.1-6.3,1.9-12,3.1-17.7c1.7-8.2,3.6-16.4,5.4-24.6
		C22.7,665.2,22.9,663.6,23.2,661.5z"/>
	<path d="M661.8,23.8c15.8-3.4,31.1-6.7,47.1-10.2c0.9,7.8,1.7,14.4,2.3,20.9c0.1,0.7-1.4,2.1-2.3,2.4c-10.6,2.6-21.3,5-31.9,7.4
		c-0.5,0.1-1,0.2-1.5,0.3c-8.1,1.2-8.2,1.1-10.4-6.7c-0.7-2.6-1.5-5.1-2.2-7.7C662.5,28.1,662.2,26,661.8,23.8z"/>
	<path d="M23.8,1065.8c-3.4-15.9-6.8-31.2-10.3-47.4c7.8-0.9,14.3-1.8,20.9-2.3c0.8-0.1,2.2,1.6,2.5,2.7c2.5,10.1,4.7,20.3,7,30.5
		c0.2,1,0.5,1.9,0.6,2.9c1.1,7.9,1.1,7.9-6.6,10C33.2,1063.6,28.4,1064.7,23.8,1065.8z"/>
	<path d="M1703.6,661.6c3.5,16.2,6.8,31.4,10.2,47.4c-8.3,0.9-15.4,1.8-22.8,2.6c-2.9-13.4-5.6-26.3-8.4-39.2
		c-0.9-4.1,0.2-6.4,5.1-7C1693.1,664.8,1698.3,662.9,1703.6,661.6z"/>
	<path d="M1640.5,1184.6c7.2,3.6,14.2,7.2,20.7,10.5c-4.6,9.9-9.2,19.3-13.4,28.7c-1.6,3.5-2.3,7.3-3.9,10.7c-0.5,1.1-2.8,2.4-3.9,2
		c-6.4-2.1-12.7-4.6-19.1-7C1627.6,1214.5,1633.9,1199.9,1640.5,1184.6z"/>
	<path d="M86.9,542.8c-7.2-3.6-14.2-7.2-20.9-10.5c4.5-9.1,8.8-17.6,12.8-26.3c1.9-4.2,2.9-8.8,4.7-13.1c0.5-1.1,2.9-2.3,3.9-2
		c6.4,2.1,12.7,4.6,19.1,7C99.9,513,93.5,527.6,86.9,542.8z"/>
	<path d="M1065.9,1703.6c-16,3.5-31.3,6.8-47.4,10.2c-1-8.3-1.8-15.3-2.7-22.9c13.8-2.9,27.2-5.7,40.6-8.4c3.2-0.6,4.8,0.5,5.4,4
		C1062.8,1692.3,1064.5,1697.9,1065.9,1703.6z"/>
	<path d="M149.2,422.1c-1.4,2.4-2.1,4.6-3.6,6c-7.7,7.4-12,17-16.7,26.3c-0.1,0.3-0.2,0.6-0.4,0.9c-3.4,6.3-3.9,6.5-10,3.1
		c-4.6-2.6-9.1-5.3-13.7-8c6.8-12.2,13.6-23.9,20.1-35.9c1.6-3,3-3.2,5.8-1.7C136.6,416,142.7,418.9,149.2,422.1z"/>
	<path d="M1578.3,1305.3c1.4-2.4,2.1-4.6,3.6-6c7.7-7.4,12-17,16.7-26.3c0.1-0.3,0.2-0.6,0.4-0.9c3.4-6.3,3.9-6.5,10-3.1
		c4.6,2.6,9.1,5.3,13.7,8c-6.8,12.2-13.6,23.9-20.1,35.9c-1.6,3-3,3.2-5.8,1.7C1590.8,1311.5,1584.7,1308.5,1578.3,1305.3z"/>
	<path d="M1302.4,1580.9c4,6.9,7.6,13.2,11.4,20c-13.4,7.8-26.5,15.4-40.3,23.4c-2.8-5.7-6.2-12.4-9.4-19.1
		c-0.3-0.6,0.5-2.3,1.2-2.8C1277.5,1595.2,1289.7,1588.2,1302.4,1580.9z"/>
	<path d="M1490.1,1459.3c-5.3-3.8-10.9-7.5-16.3-11.7c-0.7-0.5-0.6-3.4,0.2-4.3c2.3-2.8,5.3-5,7.6-7.7c7-8.3,13.8-16.7,21.2-25.6
		c5.9,5.1,12.1,10.3,18.1,15.5C1510.5,1436.8,1500.6,1447.7,1490.1,1459.3z"/>
	<path d="M206.6,302c10.6-11.6,20.5-22.5,30.8-33.8c5.3,3.7,10.9,7.6,16.3,11.5c2.5,1.8,1,3.2-0.5,4.8c-9.5,10.7-19,21.4-29,32.6
		C218.8,312.5,212.6,307.2,206.6,302z"/>
	<path d="M413.6,126.7c13.6-7.9,26.7-15.6,40.3-23.5c2.9,5.8,6.2,12.3,9.3,19c0.3,0.7-0.5,2.7-1.3,3.1
		c-11.7,6.9-23.5,13.6-35.3,20.3c-0.4,0.2-0.9,0.2-1.9,0.4C421.2,139.8,417.6,133.5,413.6,126.7z"/>
	<path d="M103.2,1273.6c5.7-2.8,12-6.1,18.4-9.1c0.9-0.4,2.9,0,3.3,0.6c7.2,12.2,14.3,24.6,21.6,37.3c-6.7,3.9-12.9,7.5-19.9,11.5
		C118.9,1300.5,111.2,1287.3,103.2,1273.6z"/>
	<path d="M1624.3,453.9c-5.7,2.8-12.1,6.1-18.7,9.2c-0.8,0.4-2.8-0.2-3.2-0.9c-7.1-12.1-14.1-24.3-21.4-37.1
		c6.7-3.9,13-7.5,19.9-11.5C1608.7,427.1,1616.4,440.3,1624.3,453.9z"/>
	<path d="M152.3,1353.1c5.1-4.3,9.9-8.2,14.7-12.3c2.8-2.4,4.9-0.4,6.3,1.4c3,3.7,5.5,7.8,8.2,11.7c4.9,7.2,9.8,14.4,15,22.1
		c-5.5,4-11,8.2-16.8,11.9c-0.9,0.6-3.8-0.4-4.6-1.5C167.4,1375.5,160,1364.5,152.3,1353.1z"/>
	<path d="M1575,374.5c-5.1,4.2-9.8,8.1-14.4,12.1c-2.7,2.3-4.9,0.7-6.4-1.1c-3-3.7-5.5-7.8-8.2-11.7c-4.9-7.2-9.8-14.5-15-22.2
		c5.5-4,11.1-8.3,17-12.2c0.8-0.5,3.7,0.8,4.5,2c6.6,9.4,12.9,19.1,19.3,28.7C1572.8,371.3,1573.8,372.6,1575,374.5z"/>
	<path d="M351.4,196.5c-4.4-6.1-8.7-12.2-13.2-18.4c12.1-8.8,23.8-17.3,35.9-26.1c4.6,5.5,8.9,10.3,12.6,15.6
		c0.8,1.1-0.2,4.6-1.5,5.7c-3.6,3.1-7.8,5.6-11.7,8.3C366.3,186.4,359,191.3,351.4,196.5z"/>
	<path d="M1353.3,1575.5c-4.6-5.5-8.5-10.2-12.5-14.8c-2.4-2.7-0.7-4.9,1.2-6.4c3.7-3,7.8-5.5,11.8-8.2c7.2-4.9,14.5-9.8,22.2-15
		c4.3,6,8.7,12.1,13.2,18.4C1377.1,1558.2,1365.5,1566.6,1353.3,1575.5z"/>
</g>
</svg>
