<?xml version="1.0" encoding="utf-8"?>
<!-- Generator: Adobe Illustrator 19.2.1, SVG Export Plug-In . SVG Version: 6.00 Build 0)  -->
<svg version="1.1" id="Layer_1" xmlns="http://www.w3.org/2000/svg" xmlns:xlink="http://www.w3.org/1999/xlink" x="0px" y="0px"
	 viewBox="0 0 384.9 384.7" style="enable-background:new 0 0 384.9 384.7;" xml:space="preserve">
<path d="M192.3,384.7C85.5,384.8-0.1,298.8,0,192.3C0,85.4,86-0.1,192.6,0C299.5,0.1,385,86.1,384.9,192.5
	C384.7,299.2,298.8,384.8,192.3,384.7z M27.8,259.8c2.4,0,4.4-1.3,6.1-3.1c3.8-3.9,5.9-8.7,7.8-13.7c0.4-0.9,0.1-1.5-0.6-2.1
	c-3.2-2.5-6.9-4.4-10.6-5.9c-2.4-0.9-4.8-1.5-7.4-1c-2.3,0.4-4.5,1.3-5.3,3.8c-1.1,3.7-0.8,7.3,3.1,9.4c0.9,0.5,1.1,1,0.6,2
	c-0.6,1.2-1.2,2.5-0.7,3.9c0.4,1,0.7,2,1.2,2.9C23.2,258.1,24.8,259.9,27.8,259.8z M94.5,320.5c-1.3,0.2-3.7,0.4-6.1,0.8
	c-2.8,0.5-5.7,1.3-7.9,3.3c-1.9,1.7-3.4,3.7-3.4,6.4c0.1,3.3,4.1,8.2,8.4,6.8c0.7-0.2,1.1,0,1.2,0.7c0.5,3.3,2.5,5.2,5.6,6
	c2.5,0.7,4.7,0.4,6.6-1.7c1.9-2.1,2.3-4.8,2.5-7.4c0.2-3.9-0.5-7.8-1.5-11.5C99,320,99.8,320.7,94.5,320.5z M96.5,65.3
	c0.4,0,0.8,0,1.2,0c2,0,2.1,0,2.5-2c0.7-3.3,1.4-6.6,1.8-9.9c0.4-3.2,0-6.3-1.9-9.1c-1.9-2.7-4.9-4-7.7-3.1c-2.7,0.9-4.4,2.8-5,5.6
	c-0.2,1-0.5,1.3-1.6,1.1c-2.5-0.4-4.8-0.2-6.3,2.2c-1,1.6-2.2,3.2-1.8,5.2c0.7,3.3,2.5,5.7,5.5,7.3C87.5,64.7,92,65,96.5,65.3z
	 M151.3,26.9c-0.3-1.4-0.7-2.7-1-4.1c-0.9-4.3-6.3-6.5-9.9-3.9c-1.1,0.8-1.9,1.9-2.7,3c-0.4,0.5-0.6,0.7-1.2,0.5
	c-0.8-0.3-1.6-0.4-2.4-0.6c-4.9-1.1-9.2,3.8-8.5,7.5c0.5,2.5,1.6,4.6,3.6,6.2c3.9,3.3,8.4,5.4,13.3,6.9c0.9,0.3,1.4,0.1,1.9-0.6
	c1.3-2,2.7-3.9,3.8-6C149.7,33,151.1,30.2,151.3,26.9z M359.7,151.9c0.2,0,0.6,0,1.1-0.1c2.5-0.4,4.8-1.2,5.6-3.8
	c1.1-3.7,0.9-7.3-2.9-9.4c-1-0.6-1.2-1.1-0.7-2.2c1.8-4.4-0.2-8.5-4.6-9.8c-3.2-0.9-5.7,0.3-7.9,2.6c-3.7,3.9-5.9,8.8-7.8,13.8
	c-0.3,0.9-0.1,1.4,0.6,1.8c3.1,1.8,6.1,3.7,9.3,5.3C354.5,151.2,356.9,151.9,359.7,151.9z M51.6,283c-0.8,0-2,0-3.1,0.2
	c-2.6,0.4-5,1.2-6.8,3.4c-2.4,2.9-2,7.4,1,9.5c1.1,0.8,2.5,1.3,3.8,1.7c0.9,0.3,1.2,0.6,1,1.5c-0.2,0.7-0.1,1.5-0.1,2.2
	c0.1,3.4,4.1,6.6,7.4,5.8c3.6-0.8,6-3.3,7.3-6.7c1.8-4.6,2.1-9.4,2.5-14.3c0.1-0.7-0.3-1-0.9-1.3C59.9,283.6,56,283.2,51.6,283z
	 M241.1,17.8c-2,0.1-3.8,0.5-5.4,1.8c-2.2,1.8-2.5,4.3-2.3,6.9c0.2,3.2,1.3,6.1,2.7,8.9c1.2,2.4,2.5,4.6,4.4,6.5
	c0.5,0.5,1,0.7,1.9,0.5c3.8-1.3,7.3-3.1,10.6-5.2c2.6-1.7,4.7-3.9,5.4-7c0.8-3.5,0.2-5.9-3.4-7.7c-1.9-1-4-1-5.9-0.2
	c-1.1,0.4-1.9,0.3-2.4-0.8c-0.2-0.3-0.4-0.6-0.6-0.9C244.8,18.6,243.2,17.8,241.1,17.8z M17.3,143.8c0,3.9,1,5.7,4,6.8
	c1.4,0.5,3,0.7,4.6,0.6c3.2-0.1,6.1-1.3,9-2.7c2.2-1.1,4.4-2.3,6-4.2c0.5-0.6,0.7-1.2,0.4-1.9c-1.5-3.4-2.8-6.9-4.6-10.2
	c-1.9-3.5-4.8-5.9-9-6.2c-3.6-0.2-6.7,2.4-7,5.9c-0.1,1.6,0.4,3,1.1,4.4c0.3,0.6,0.3,1-0.4,1.3c-0.9,0.4-1.7,0.9-2.4,1.5
	C17.3,140.4,17.5,142.4,17.3,143.8z M371,192.9c0.4-0.5,0.8-0.9,1.2-1.3c3.5-3.3,1.6-8.3-1.2-10.1c-2.6-1.7-5.4-1.6-8.1-0.4
	c-5.1,2.2-8.8,6.1-12,10.5c-0.6,0.9-0.5,1.7,0.2,2.5c1.7,1.9,3.3,4,5.1,5.9c2,2.2,4.2,4.2,7.1,5.4c3.1,1.3,7.3,0.9,9.3-2.3
	c1.9-3,2.4-6.4-0.7-9.3C371.6,193.5,371.3,193.2,371,192.9z M136.6,362.7c0.4,0.7,0.7,1.3,1.1,1.9c0.7,1.2,1.6,2.2,3.1,2.5
	c0.5,0.1,1.1,0.3,1.6,0.4c2.2,0.7,4.2,0.3,5.9-1.2c2.1-1.9,2.8-4.5,2.4-7.3c-0.3-2.2-1-4.5-1.8-6.6c-1.2-3.1-2.9-6.1-5.4-8.4
	c-0.3-0.3-1-0.5-1.4-0.4c-4.1,1.3-8,2.9-11.5,5.3c-3.4,2.3-5.3,5.4-5,9.6c0.2,2.7,2.7,5.3,5.4,5.7
	C133,364.4,134.8,363.8,136.6,362.7z M336.6,298.2c0.5-0.1,1-0.3,1.5-0.3c3.4-0.1,4.8-1.8,5.6-4.7c1.2-4.4-1.1-8.3-5.5-9.4
	c-3.2-0.9-6.3-0.7-9.5-0.2c-2.6,0.4-5.2,0.9-7.6,2.1c-0.8,0.4-1.1,0.9-1.1,1.7c0.1,2,0.1,4.1,0.4,6.1c0.4,3.4,1.1,6.8,2.9,9.8
	c2,3.4,4.9,4.8,8.4,3.9c2.8-0.8,5.4-3,5-6.8C336.7,299.8,336.7,299.1,336.6,298.2z M191.4,371.3c0.2,0.1,0.4,0.1,0.6,0.2
	c0.4,0.5,0.7,1,1.2,1.4c2.8,2.7,8.7,2,10.6-1.4c1.8-3.2,1.4-6.4-0.4-9.4c-2.8-4.5-6.7-7.8-10.9-10.9c-0.6-0.4-1-0.3-1.5,0
	c-4.1,3-7.7,6.4-10.4,10.8c-1.6,2.7-1.9,5.7-0.8,8.7c1.3,3.8,7.4,5.1,10.4,2.2C190.7,372.5,191,371.9,191.4,371.3z M289.7,65.3
	c1.6-0.2,4.4-0.6,7.3-1.1c2.7-0.5,5.3-1.5,7.2-3.6c1.5-1.7,3-3.5,2.7-6c-0.4-4-4.2-7.1-8.1-6.6c-1.1,0.1-1.3-0.2-1.5-1.1
	c-1.3-5.6-7.4-7.5-11.7-3.6c-2.2,2-3,4.8-2.9,7.5c0.2,3.8,0.7,7.6,1.5,11.3C285,65.6,284.4,65.3,289.7,65.3z M64.1,96.5
	c-0.1-4.6-1-9.5-2.7-12.8c-1.3-2.7-3.1-4.9-6.3-5.3c-4.8-0.6-8.4,3.3-7.6,8.3c0.2,0.9-0.2,1.2-0.9,1.4c-0.9,0.2-1.8,0.4-2.5,0.8
	c-1.1,0.5-2.4,1.1-2.9,2c-1.1,1.9-1.4,4.1-0.6,6.3c1.2,3.3,3.9,4.8,7.2,5.3c5,0.7,9.7-0.4,14.4-1.9c1.5-0.5,2.3-1.4,2-3
	C64.1,97.1,64.1,96.8,64.1,96.5z M14,192.5c-0.8,0.7-1.6,1.2-2.3,1.9c-1,1.1-1.8,2.3-1.6,3.9c0.7,5,4.1,8.1,9.7,6.8
	c2.8-0.7,5.1-2.3,7.2-4.2c2.5-2.2,4.9-4.6,6.4-7.7c0.4-0.8,0.3-1.4-0.3-2c-1.6-1.8-3.3-3.5-4.9-5.3c-2.1-2.2-4.2-4.2-7-5.5
	c-3.3-1.5-7.6-1-9.7,2.3c-2,3.1-2,6.1,1.1,8.4C13,191.5,13.3,191.9,14,192.5z M288.4,321.2c-0.6,0-1.2,0.1-1.8,0
	c-1.2-0.1-2,0.3-2.3,1.5c-0.7,2.6-1.5,5.2-2,7.8c-0.7,3.5-0.7,7.1,0.9,10.5c1.1,2.3,3.9,4.8,7.3,4.1c3.3-0.6,5.3-2.5,6-6.1
	c0.2-1.1,0.6-1.4,1.7-1.1c5.1,1,9.2-3.6,7.8-8.6c-0.7-2.7-2.7-4.1-4.9-5.2C297.2,321.9,292.8,321.5,288.4,321.2z M246.9,362.7
	c0.9,0.4,1.8,0.8,2.6,1.1c3.8,1.5,8.7-1.8,9-5.9c0.2-2.8-1-4.9-2.9-6.6c-4-3.7-8.7-6.1-13.8-7.8c-0.9-0.3-1.6-0.2-2.1,0.6
	c-1.8,2.9-3.7,5.7-5.2,8.7c-1.9,3.7-2.3,7.6-0.1,11.5c1.2,2.2,3,3.5,5.5,3.3c2.4-0.1,4.7-0.9,6.1-3.2
	C246.3,363.9,246.6,363.3,246.9,362.7z M336.8,85.4c0.6-5-5.1-8.2-8.6-6.6c-2.9,1.3-5.1,3.4-6.2,6.5c-1.6,4.3-2.1,8.8-2,13.4
	c0,1.3,0.5,1.8,1.7,2c3.5,0.6,6.9,1.4,10.4,1.8c3.1,0.4,6.2-0.1,9-1.8c2.6-1.6,3.4-3.8,2.8-7.2c-0.5-2.4-1.8-4.7-5.1-5
	c-2.1-0.2-2-0.3-1.9-2.4C336.8,85.9,336.8,85.6,336.8,85.4z M356.6,259.8c3.2,0,6.6-2.9,7-5.6c0.3-1.7-0.1-3.2-1-4.7
	c-0.4-0.6-0.3-1,0.4-1.3c0.3-0.1,0.7-0.3,1-0.5c1.7-1,3.1-2.2,3.2-4.3c0-1.7-0.3-3.4-0.8-5c-0.3-1-1.2-2-2.1-2.6
	c-1.8-1.2-4-1.7-6.2-1.3c-2.2,0.5-4.4,0.9-6.4,1.9c-2.8,1.3-5.4,3-8.1,4.6c-0.7,0.4-1,1-0.6,1.9c0.9,2.1,1.5,4.2,2.5,6.3
	c1.3,2.7,2.8,5.4,5,7.6C352.3,258.5,354.5,259.6,356.6,259.8z M179.7,18.2c0.4,1.4,0.5,2.9,1.1,4.3c2.1,4.8,5.9,8.2,10,11.1
	c1.1,0.8,2.1,0.7,3.2,0c3.2-2.2,5.9-4.8,8.2-7.9c1.5-2.1,2.6-4.4,2.7-7.1c0.1-2.5-0.3-4.8-2.8-6.2c-2.8-1.7-6.3-1.9-8.8,1.1
	c-0.6,0.7-1.1,0.8-1.7,0c-0.6-0.6-1.3-1.3-2.1-1.6C184.9,9.6,179.8,13,179.7,18.2z"/>
</svg>
