<?xml version="1.0" encoding="utf-8"?>
<!-- Generator: Adobe Illustrator 19.2.1, SVG Export Plug-In . SVG Version: 6.00 Build 0)  -->
<svg version="1.1" id="Layer_1" xmlns="http://www.w3.org/2000/svg" xmlns:xlink="http://www.w3.org/1999/xlink" x="0px" y="0px"
	 viewBox="0 0 1727.5 1727.4" style="enable-background:new 0 0 1727.5 1727.4;" xml:space="preserve">
<path d="M863.4,1727.4C384.3,1727.7-0.2,1341.8,0,863.6C0.2,384,386.1-0.4,864.3,0c479.6,0.4,863.5,386.4,863.2,864.2
	C1727.2,1343.6,1341.5,1728.1,863.4,1727.4z M441.9,158.8c-10.9,0-14.8,3.2-17.8,13.5c-1.9,6.7,1.3,11.5,3.7,17.2
	c4.2,9.8,16.2,11,24.3,6.9c7.7-3.9,12.5-13.6,10.7-21.2C460,163.8,453.7,158.8,441.9,158.8z M1495.5,1389.2
	c0-13.2-6.2-21.3-16.4-21.2c-13,0.1-23.7,8.6-23.6,18.7c0.1,10.3,11.1,21.5,21.1,21.5C1487.1,1408.2,1495.4,1399.8,1495.5,1389.2z
	 M232,338.3c0,13.2,6.2,21.3,16.4,21.2c13.3-0.1,23.4-8.6,23.6-20c0.2-9.2-11.4-20.3-21.1-20.2C240.4,319.4,232.1,327.7,232,338.3z
	 M1284.9,1531.4c-11.8,0.2-20.7,8.4-20.6,19.1c0.1,10.5,9.9,21.1,19.3,21c10.8-0.1,21.5-9.9,20.5-20.2
	C1303,1539.4,1297.1,1531.6,1284.9,1531.4z M1550,463.2c7.2,0.1,17.9-6.8,20.3-13c2.5-6.6,0.1-16.6-5.1-21.1
	c-7.5-6.5-16.1-7.3-24.8-2.3c-8.1,4.7-10.6,11.4-7.9,21.8C1535,458,1541,463,1550,463.2z M177.9,1264.3c-7.4-0.3-18.3,6.5-20.7,13.1
	c-2.5,6.5,0,16.6,5.1,21.1c7.4,6.4,15.8,7.3,24.4,2.5c7.6-4.2,10.9-11.6,8.8-20.1C192.9,1270,187.3,1264.7,177.9,1264.3z
	 M322,1474.6c0.8,13.4,5.1,21.2,17.6,21c12.1-0.2,21.7-8,21.6-18.1c-0.2-9.8-11.4-22-20.3-21.9C330.4,1455.6,322,1464,322,1474.6z
	 M197.9,443c0.1-8.9-9.3-19.1-18-19.3c-11.9-0.3-22.8,9.3-22.9,20.3c-0.1,9.4,10.1,19,20,19C187.8,463,197.7,453.5,197.9,443z
	 M1405.5,253c-0.8-13.4-5.1-21.2-17.6-21c-12.1,0.2-21.7,8-21.6,18.1c0.1,9.8,11.4,22,20.3,21.9C1397.1,272,1405.5,263.5,1405.5,253
	z M807.6,1688.7c13.4,0.1,21.9-8.1,22.2-21.3c0.2-8.3-11.2-18.5-20.9-18.8c-8.1-0.2-19.2,11.3-19.2,19.9
	C789.9,1679.4,798,1688.7,807.6,1688.7z M360.1,250.4c0-11.3-8.3-19.6-19.4-19.6c-11.1,0-19.9,8.8-19.8,20
	c0.1,11.1,8.4,19.2,19.7,19.2C352.5,270.1,360.1,262.4,360.1,250.4z M1477.1,360.1c11.2,0,19.5-8.3,19.5-19.4
	c0-11.1-8.8-19.7-20-19.8c-8.5-0.1-19.7,7.2-19.3,19.8C1457.8,352.5,1465.2,360.1,1477.1,360.1z M1367.5,1476.8
	c0,11.3,8,19.7,19.1,19.8c11.2,0.1,19.9-8.6,20.1-19.7c0.2-8.7-7.2-19.9-19.5-19.6C1375.2,1457.7,1367.5,1464.9,1367.5,1476.8z
	 M781.2,58.4c-0.1,12.7,4.3,19.6,14.2,21.4c3.1,0.6,6.6-0.3,9.8-0.7c8.7-1.3,13.3-5.1,14.2-13.4c0.9-7.5-0.9-18.2-7.7-21.8
	c-5.9-3.1-11.6-2.4-17.5-1.2C786,44.3,781.2,50.2,781.2,58.4z M924.9,1686.1c2.6-0.4,5.3-0.7,7.9-1.2c7.8-1.6,12.8-6,13.3-13.4
	c0.6-8.6-1.4-18.8-8.7-22.3c-6.6-3.1-12.7-1.5-18.9-0.1c-5.2,1.2-8.6,4.8-9.6,9.8c-0.8,3.9-0.4,8.2,0,12.2
	C909.6,1680.8,915.4,1685.9,924.9,1686.1z M41.6,924.6c-0.1,18.3,13.5,27.3,29.8,19.5c10.8-5.1,12.1-25,2.2-32.8
	c-5.4-4.3-11.3-3.6-17.6-2.7C46.9,910,41.7,915.4,41.6,924.6z M1685.9,802.8c0.1-18.1-12.7-26.6-29.5-19.6c-11,4.6-12.5,25.2-2.5,33
	c5.2,4.1,10.9,3.1,17.1,2.8C1679.5,818.6,1686.6,810.6,1685.9,802.8z M270,1386.9c0-11.3-7.6-19.5-18.1-19.5
	c-12.1,0-21,8.1-21.1,19.3c-0.1,11.2,8.7,19.8,19.9,20C259.3,1406.8,270.8,1399.5,270,1386.9z M1191.1,1605.9
	c-0.1-8.2-4.1-12.9-13.3-16.2c-7-2.5-14-3-19.6,2.6c-10.7,10.8-7.9,26.3,5.7,32.7c6,2.8,12.9,4.4,18.4-0.3
	C1187.9,1619.8,1191.5,1613.3,1191.1,1605.9z M1605.9,536.4c-8.1,0-12.8,3.8-16.2,13.4c-2.5,7-3,14,2.6,19.5
	c10.9,10.7,26.3,8,32.7-5.7c2.8-6,4.4-12.9-0.3-18.4C1620,539.7,1613.6,536.2,1605.9,536.4z M121.4,1191.1c8.2,0.1,13-3.7,16.4-13.1
	c2.5-6.9,3.1-14-2.4-19.6c-10.7-10.9-26.9-8-33,5.8c-2.6,5.9-4.2,12.6,0.3,18C107.3,1187.7,113.7,1191.3,121.4,1191.1z M536.4,121.7
	c0,8,4,12.8,13.4,16.1c7,2.5,14,3,19.5-2.7c10.6-10.9,7.8-26.4-5.8-32.7c-6-2.8-12.9-4.4-18.4,0.4
	C539.6,107.6,536.1,114,536.4,121.7z M443.4,1568.7c11.1,0.1,19.4-7.5,19.6-18c0.2-11-9.5-21.1-20.3-21.1c-8.9,0-19.4,9.6-18.9,18.3
	C424.5,1560.8,430.1,1568.7,443.4,1568.7z M1568.7,1283.8c0-11-7.9-19.3-18.3-19.2c-10.8,0-20.6,9.6-20.8,20.1
	c-0.1,9,9.5,19.5,18.2,19.1C1560.7,1303.1,1568.9,1297.5,1568.7,1283.8z M1070.3,78c-0.2-9.4-6.9-15.8-16.3-15.6
	c-14.3,0.3-22.4,7.8-22.3,20.6c0.1,6.8,10.9,18.6,17.1,18.5C1061.8,101.5,1070.6,91.8,1070.3,78z M1303.9,178
	c0.1-10.8-9.4-20.8-20-21c-8.7-0.2-19.1,9.7-19.3,18.3c-0.3,11.5,7.5,20.4,17.8,20.4C1293.4,195.8,1303.8,187.2,1303.9,178z
	 M1627.4,675.3c-0.2,10.2,8.9,20.3,18.5,20.6c10,0.3,20.3-9.4,20.4-19.3c0.2-10.8-7.5-19.4-17.7-19.6
	C1636.6,656.6,1627.6,664.4,1627.4,675.3z M79.6,1070.6c12.1-0.1,20.6-8.1,20.5-19.2c-0.1-10.2-9.6-19.9-19.3-19.8
	c-10,0.1-19.8,10.2-19.7,20.1C61.3,1062.5,69.3,1070.7,79.6,1070.6z M1666.2,1050.1c0.1-6.8-9.9-17.2-16.7-17.4
	c-13-0.4-21.7,8.8-21.8,22.8c0,7.6,8.7,16.2,16.7,16.3C1657.3,1072,1666,1063.4,1666.2,1050.1z M61.3,677.5
	c-0.1,6.8,10,17.2,16.7,17.4c13.1,0.3,21.7-8.8,21.8-22.9c0-7.6-8.8-16.2-16.7-16.3C70.1,655.6,61.5,664.2,61.3,677.5z M674.9,1665
	c10.1-0.3,20.2-9.4,19.9-18c-0.3-9.6-10.7-21.2-18.8-21c-9.8,0.2-20.3,9.9-20.3,18.6C655.8,1655.2,665.2,1665.2,674.9,1665z
	 M1607.1,1190.9c10.3,0.8,19.5-10.5,19.8-19.9c0.3-8.7-10.1-18.9-18.7-18.9c-9.6,0-19.6,9.7-20,18.8
	C1588,1178.8,1597.2,1192.3,1607.1,1190.9z M120.4,536.6c-10.2-0.8-19.5,10.4-19.8,19.9c-0.3,8.7,10.1,18.8,18.8,18.8
	c9.6,0,19.6-9.7,19.9-18.8C139.5,548.7,130.3,535.2,120.4,536.6z M536.6,1606.9c0,9,7.7,18.9,14.9,18.8c13.1,0,23.6-8.2,23.8-18.5
	c0.2-8.6-11.3-19-21.1-19.2C544.2,1587.9,536.6,1596,536.6,1606.9z M1666,945c10.9-0.1,19-8.4,19-19.5c0-10.8-8.6-19.7-19-19.7
	c-9.2,0-17.7,9.6-17.5,20C1648.6,936.3,1656.6,945.1,1666,945z M61.8,782.5c-10.9-0.1-19.1,8.1-19.3,19.2
	c-0.2,10.9,8.7,20.1,19.2,20c8.9-0.1,17.3-9.6,17.3-19.7C79.1,791.5,71.1,782.5,61.8,782.5z M1190.9,120.7c0.1-9-7.7-18.9-14.8-18.9
	c-12.1,0-22.3,6.9-22.5,15.3c-0.3,12,9.1,22.4,20.1,22.4C1183.5,139.4,1190.8,131.4,1190.9,120.7z M656.9,79.3
	c-0.1,11.6,7.7,20.7,17.8,20.8c10,0.1,18.5-8,18.6-17.7c0.1-10.1-9.7-21.2-18.8-21.3C665.3,61.1,657,69.7,656.9,79.3z
	 M1070.6,1648.1c0-11.6-7.8-21-17.9-20.7c-8.3,0.3-18.5,5.5-18.6,17.6c-0.1,10.1,9.8,21.2,18.9,21.2
	C1062.2,1666.4,1070.6,1657.8,1070.6,1648.1z M945,61.8c0.7-11.5-10.2-19.4-17-19.3c-10.3,0-19.2,8.7-19.2,19
	c-0.1,8.9,9,17.2,18.8,17.7C935.4,79.5,946.2,69.2,945,61.8z"/>
</svg>
