<?xml version="1.0" encoding="utf-8"?>
<!-- Generator: Adobe Illustrator 19.2.1, SVG Export Plug-In . SVG Version: 6.00 Build 0)  -->
<svg version="1.1" id="Layer_1" xmlns="http://www.w3.org/2000/svg" xmlns:xlink="http://www.w3.org/1999/xlink" x="0px" y="0px"
	 viewBox="0 0 1727.5 1727.4" style="enable-background:new 0 0 1727.5 1727.4;" xml:space="preserve">
<path d="M863.4,1727.4C384.1,1727.6-0.2,1341.6,0,863.5C0.2,383.7,386.3-0.4,864.4,0c479.7,0.4,863.5,386.6,863.1,864.3
	C1727.1,1343.8,1341.3,1728.2,863.4,1727.4z M48.9,905.4c6.9,0,14,0,21.9,0c-1.5-25.2-5.8-49.9-0.5-74.9c-7.8,0-14.8,0-21.3,0
	C44.1,855.6,44.8,880.2,48.9,905.4z M830.2,1679.1c24.2,3.5,60.9,3.3,75.4-0.3c0-7,0-14.1,0-21.2c-0.7-0.1-1.3-0.3-1.7-0.2
	c-15,3.2-30.1,2.6-45.2,1.7c-8.1-0.5-16.2-1.5-24.4-2c-1.3-0.1-3.8,1.4-3.9,2.3C830.1,1666,830.2,1672.6,830.2,1679.1z
	 M1678.7,821.9c-6.9,0-14,0-22.1,0c1,12.6,2.5,25,2.8,37.3c0.3,12.5-0.7,25.1-1.1,37.6c6.6,0,13.7,0,20.1,0
	C1683.7,871.8,1682.2,847.2,1678.7,821.9z M821.9,70.3c17.8-3.5,35.2-2.9,52.7-1.5c6.3,0.5,12.6,1.3,18.9,1.6
	c1.3,0.1,3.7-1.2,3.7-1.9c0.3-6.7,0.2-13.5,0.2-19.4c-25.7-5-50.5-4.1-75.4-0.2C821.9,55.7,821.9,62.7,821.9,70.3z M79,1083.2
	c0.3,3.3,0.4,6.3,1,9.2c4.2,20.3,12.4,39.1,20.6,57.9c0.5,1.1,3.1,2.1,4.4,1.8c4.2-0.8,8.3-2.4,12.5-3.3c3-0.6,3.4-1.9,2.5-4.5
	c-2.2-6.6-4.2-13.2-6.3-19.9c-4.5-14.4-9.1-28.7-13.6-43.1c-0.9-3-2.5-3.8-5.6-2.8C89.7,1080.3,84.7,1081.6,79,1083.2z
	 M1648.5,644.3c-0.4-3.4-0.4-6.4-1-9.3c-4.2-20.3-12.5-39.1-20.6-57.9c-0.5-1.1-2.8-2.2-4-1.9c-4.1,0.8-7.9,2.6-12,3.2
	c-4.2,0.6-4.2,2.6-3.2,5.8c2.1,6.3,4.1,12.6,6.1,18.9c4.6,14.4,9.1,28.7,13.6,43.1c0.8,2.6,2.1,3.8,5.1,2.8
	C1637.6,647.3,1642.7,646,1648.5,644.3z M649.9,98.7c-2.4-5.6-4.6-10.2-6.3-15.1c-1.5-4.3-4.1-5.1-8-4c-8.8,2.4-17.7,4.4-26.3,7.4
	c-10.5,3.6-20.7,7.8-31,11.9c-2.9,1.2-4.6,3-3,6.6c1.4,3.2,2.5,6.6,2.8,10c0.5,5.7,3.6,5.2,7.4,3.9c0.8-0.3,1.5-0.7,2.3-0.9
	c14.7-4.7,29.3-9.3,44-14C637.6,102.7,643.4,100.8,649.9,98.7z M1077.9,1628.7c0.5,1.5,0.6,2.3,0.9,3c7.7,19.1,7.8,19.4,27.7,12.3
	c14.5-5.1,28.6-11.2,43-16.7c3-1.2,3.8-2.5,2.5-5.6c-1.2-3.1-2.3-6.3-2.6-9.6c-0.6-5.6-3.4-5.6-7.7-4.2c-17.3,5.7-34.7,11.3-52,16.9
	C1085.9,1626.2,1082,1627.4,1077.9,1628.7z M472.4,1556.8c-2,4.5-3.7,9.5-6.2,14.1c-1.9,3.6-1,5.3,2.3,7c11.1,5.9,22,12.1,33.1,18
	c7.3,3.9,14.7,7.6,22.2,11.1c1.8,0.8,5.6,1.1,6.2,0.2c3.7-5.5,6.8-11.5,9.7-16.8C517.1,1579.2,495.1,1568.2,472.4,1556.8z
	 M1556.8,1255.1c4.5,1.9,9.3,3.7,13.8,6.1c3.6,1.9,5.5,1.5,7.4-2.2c5.8-11.1,12.1-22,18-33.1c3.8-7.1,7.5-14.4,10.9-21.7
	c0.9-1.9,1.4-5.7,0.6-6.3c-5.6-3.8-11.7-7-17-10C1579.2,1210.5,1568.1,1232.5,1556.8,1255.1z M170.7,472.4c-4.5-2-9.6-3.8-14.4-6.4
	c-3.4-1.8-5-0.8-6.6,2.2c-6,11.1-12.1,22-18,33.1c-3.9,7.3-7.7,14.7-11.1,22.2c-0.9,1.9-1.1,5.8,0,6.5c5.4,3.7,11.3,6.6,16.5,9.6
	C148.3,517.1,159.4,495,170.7,472.4z M1255.1,170.7c2-4.7,3.8-9.7,6.3-14.3c1.8-3.4,1-5-2.1-6.7c-11.2-6-22.3-12.3-33.5-18.2
	c-7.3-3.9-14.7-7.6-22.2-11.1c-1.8-0.8-5.5-0.9-6.1,0c-3.7,5.4-6.6,11.3-9.6,16.6C1210.4,148.3,1232.4,159.3,1255.1,170.7z
	 M773.9,73.7c-1.3-4.3-2.3-7.2-3-10.3c-2.4-10.2-3.1-10.8-13.7-9.3c-13.1,1.9-26.2,3.8-39.3,6c-5.6,0.9-11,2.3-16.5,3.8
	c-1.2,0.3-3,2-3,3c0.4,6.6,1.3,13.1,2,19.5C725.2,82.2,749.3,78,773.9,73.7z M53.5,959.7c0.4,4.9,0.5,9.2,1.1,13.4
	c1.7,12.3,3.5,24.6,5.5,36.8c1,6.4,2.4,12.7,4,19c0.3,1.2,2.8,2.9,4,2.7c6.3-1.2,12.5-3,18.9-4.7c-0.4-2-0.6-3.4-0.9-4.9
	c-2.9-12.6-6.1-25.1-8.6-37.8c-1.5-7.6-2-15.5-2.8-23.2c-0.4-3.3-1.8-4.7-5.3-4.1C64.4,957.9,59.3,958.7,53.5,959.7z M959.7,1674.7
	c24.3-3.7,48.2-7.4,73-11.2c-2.2-8.6-3.9-15.7-5.8-23.1c-2.3,0.5-3.9,0.9-5.5,1.3c-12.3,2.8-24.5,5.9-36.8,8.3
	c-7.8,1.5-15.8,2-23.7,2.9c-2.6,0.3-4.5,1.2-4,4.4C957.8,1662.6,958.7,1668,959.7,1674.7z M1640.4,700.5c0.4,2.1,0.6,3.4,0.8,4.7
	c2.9,12.8,6.2,25.4,8.7,38.3c1.5,7.6,1.9,15.5,2.8,23.2c0.3,2.6,1.3,4.5,4.4,4c5.4-0.9,10.8-1.8,17.4-2.9
	c-3.7-24.3-7.4-48.2-11.2-72.9C1654.9,696.9,1647.9,698.7,1640.4,700.5z M118.6,585.4c-6.2-1.8-11.2-3.4-16.4-4.6
	c-1.3-0.3-3.8,0.6-4.2,1.6c-3.1,6.9-6.3,13.9-8.5,21.2c-3.3,10.9-5.8,22.1-8.8,33.1c-1.2,4.4-2.7,8.7-4.2,13.4
	c5.5,1.5,10.4,2.4,15,4.2c3.8,1.5,4.9,0.1,6-3.2c4.2-12.9,8.8-25.7,13-38.7C113.3,603.7,115.8,594.8,118.6,585.4z M1651.2,1077.5
	c-5.6-1.5-10.5-2.5-15.1-4.2c-3.7-1.4-5-0.4-6.1,3.1c-5.2,15.9-10.7,31.7-15.9,47.7c-1.9,5.9-3.3,12-4.9,18.2
	c6,1.8,11.2,3.4,16.5,4.7c1.1,0.3,3.4-0.7,3.8-1.7c3-6.8,6.2-13.6,8.4-20.7c2.5-8.2,3.8-16.8,6.1-25.1
	C1645.9,1092.3,1648.6,1085.3,1651.2,1077.5z M1142.1,118.4c1.8-6,3.4-11.2,4.7-16.5c0.3-1.1-0.4-3.3-1.1-3.6
	c-9.7-3.7-18.6-9.6-29.4-10.6c-4.4-0.4-8.8-1.7-13.1-3c-8.5-2.6-16.9-5.5-25.8-8.4c-1.6,5.6-2.6,10.7-4.4,15.5
	c-1.2,3.3-0.2,4.6,2.8,5.3c5.3,1.2,10.8,2,16,3.9c10.1,3.6,20,7.9,30.1,11.5C1128.5,114.9,1135.2,116.5,1142.1,118.4z M650,1651.1
	c1.7-6,2.8-11,4.5-15.8c1.1-3.2-0.1-4.3-2.8-5c-5.3-1.3-10.8-2-16-3.8c-10.1-3.6-20-7.9-30.1-11.5c-6.5-2.3-13.3-4-20.2-6
	c-1.8,6.1-3.5,11.4-4.8,16.9c-0.3,1,0.7,3.2,1.5,3.5c9.8,3.6,18.6,9.6,29.4,10.4c4.2,0.3,8.5,1.6,12.6,2.8
	C632.6,1645.3,641.1,1648.2,650,1651.1z M1572.7,455.9c-6.5,3.7-12.1,6.7-17.4,10c-0.8,0.5-1.2,3-0.7,4
	c10.1,19.5,20.5,38.9,30.6,58.4c1.3,2.6,2.7,3.1,5,2.1c3.9-1.7,7.7-4,11.8-5.2c4.2-1.3,3.1-3.1,1.7-5.8c-3.9-7.1-7.7-14.3-11.2-21.6
	C1586,484.2,1579.5,470.4,1572.7,455.9z M154.8,1271.5c6.4-3.6,12-6.7,17.5-10c0.8-0.5,1.3-2.7,0.8-3.6c-5.2-9.9-10.8-19.7-16-29.7
	c-5-9.5-10-19-14.7-28.7c-1.5-3.1-3-3.4-5.8-2.2c-3.3,1.5-6.6,3.3-10,4.3c-5.3,1.6-4.4,3.9-2.1,7.8c3.9,6.5,7.1,13.5,10.4,20.3
	C141.5,1243.4,148,1257.2,154.8,1271.5z M1271.6,1572.8c-3.7-6.6-6.7-12.1-10-17.4c-0.5-0.8-3-1.3-3.9-0.8
	c-9.8,5.1-19.5,10.6-29.3,15.7c-9.5,5-19,10.1-28.7,14.7c-3.3,1.6-3.7,3.2-2.3,6.1c1.7,3.6,3.7,7.1,4.8,10.9c1.2,4,2.9,3.5,5.7,1.9
	c4.8-2.9,9.7-5.7,14.8-8.2C1238.7,1588.1,1254.8,1580.7,1271.6,1572.8z M455.8,154.6c3.7,6.6,6.7,12.1,10,17.4
	c0.5,0.8,3,1.4,3.9,0.9c9.7-5,19.2-10.4,28.8-15.5c9.8-5.2,19.6-10.3,29.6-15.1c2.9-1.4,3.2-2.9,2.1-5.4c-1.6-3.6-3.7-7.1-4.8-10.9
	c-1.4-5-3.6-3.8-6.8-1.8c-4.5,2.8-9.2,5.4-13.9,7.6C488.8,139.4,472.7,146.8,455.8,154.6z M364.8,243.5
	c17.8-12.4,34.8-24.2,51.9-36.1c0.7-0.5,1.4-0.9,2-1.4c2.5-1.8,3.4-3.7,1.1-6.6c-2.3-2.8-4.3-5.9-6-9.1c-1.8-3.2-3.3-3.9-6.9-1.7
	c-15.6,9.1-30.2,19.7-43.9,31.6c-3.3,2.9-7.1,5.3-11,8.3C356.8,234,361.3,239.3,364.8,243.5z M416.6,1547c4.7-5.7,9.2-11,13.7-16.5
	c-19.7-15.7-43.8-24-58.9-45c-4.9,5.9-9.2,11.1-14.3,17.3C377.1,1517.7,396.6,1532.1,416.6,1547z M1361.7,1482.8
	c-16.1,14.1-32.6,26.7-50.6,37c-1,0.6-1.9,1.3-2.8,2.1c-2,1.6-3,3.2-0.9,5.8c2.5,3.3,4.5,6.9,6.7,10.4c1.6,2.6,3.1,2.8,6,1.1
	c15.8-9.2,30.5-19.8,44.3-31.8c3.3-2.9,7.1-5.3,11-8.2C1370.7,1493.5,1366.2,1488.2,1361.7,1482.8z M244.7,1361.7
	c-1.9-2.2-3.6-3.8-4.9-5.6c-10.1-13.9-20.3-27.7-30-41.9c-5.9-8.7-6.1-9.2-14.4-3.8c-2.2,1.4-4.7,2.6-6.6,4.4
	c-0.9,0.9-1.7,3.5-1.1,4.3c7.9,11.8,15.9,23.5,24.2,35c5.1,7.1,10.8,13.8,16.5,21.2C233.9,1370.7,239.2,1366.3,244.7,1361.7z
	 M1485.5,1356c5.8,4.8,11.1,9.2,17.3,14.4c14.9-20.1,29.4-39.5,44.2-59.5c-5.7-4.8-11-9.2-16.4-13.7
	C1514.9,1316.6,1506.8,1340.9,1485.5,1356z M1482.7,365.8c2.1,2.4,3.7,3.9,4.9,5.6c10.2,14.2,20.6,28.4,30.6,42.8
	c5.6,8.2,5.7,8.4,13.5,3.3c2.3-1.6,4.9-2.8,7-4.7c1-0.9,1.7-3.5,1.1-4.3c-7.2-11.1-14.4-22.2-22.2-32.9
	c-5.7-7.9-12.2-15.2-18.7-23.2C1493.6,356.8,1488.3,361.2,1482.7,365.8z M1370.5,224.7c-20-14.9-39.5-29.3-59.6-44.2
	c-4.7,5.6-9.2,11-13.7,16.4c19.6,15.7,43.8,24,58.9,45C1360.8,236.3,1365.1,231.2,1370.5,224.7z M277.5,1401.1c-3,3.4-5.7,7.1-9,10
	c-3.4,3-3.6,5.4-0.4,8.5c6.1,6.1,12.1,12.3,18.2,18.4c9.7,9.8,19.5,19.7,29.2,29.5c5.3-5.3,10.5-10.5,16.4-16.4
	C310.4,1438.7,296.3,1418.6,277.5,1401.1z M242,371.4c-5.8-4.8-11.1-9.2-17.4-14.3c-14.9,20.1-29.4,39.6-44.2,59.5
	c5.8,4.8,11,9.2,16.5,13.7C212.6,410.9,220.8,386.6,242,371.4z M1395.6,276.4c21.8,12.6,35.9,32.7,53.4,49
	c4.5-4.3,8.9-8.7,14.2-13.9c-17.1-17.3-34.1-34.4-51.2-51.8C1406.7,265,1401.5,270.3,1395.6,276.4z M779.1,1655
	c-24.6-3.8-48.4-7.4-72.5-11.1c-0.2,0.7-0.6,1.5-0.7,2.2c-0.5,3.3-0.9,6.6-1.3,9.9c-0.9,7.4-0.9,7.5,6.7,8.8
	c15.7,2.6,31.4,5.2,47.1,7.7c4.9,0.8,9.8,1.1,15.2,1.7C775.5,1667.5,777.2,1661.3,779.1,1655z M1021.4,83.7c0.5-4,1.1-8.1,1.6-12.2
	c0.9-7.4,0.8-7.5-6.7-8.8c-14.2-2.5-28.4-4.9-42.6-7.1c-6.5-1-13.1-1.5-19.8-2.3c-2,7-3.7,13.1-5.4,19.2
	C973,76.3,996.8,80,1021.4,83.7z M1643.8,1021.4c4.3,0.5,8.7,0.6,12.8,1.7c5,1.4,7.1-0.6,7.9-5.1c3-18.5,6.1-37,9-55.6
	c0.4-2.7,0.1-5.6,0.1-8.7c-6.2-1.8-12.4-3.5-18.6-5.2C1651.2,972.9,1647.6,996.7,1643.8,1021.4z M72.5,779.1
	c3.8-24.8,7.4-48.6,11.2-73c-4.4-0.5-8.5-1-12.6-1.5c-6.7-0.8-7.1-0.7-8.3,6.2c-2.7,15.5-5.2,31.1-7.7,46.7
	c-0.8,5.2-1.2,10.5-1.8,16.2C60.1,775.5,66.2,777.2,72.5,779.1z M1455.2,1396.4c-17.4,17.8-34.1,35-50.6,51.8
	c4.7,4.8,9,9.2,12.7,12.9c16.7-16.5,33.5-33,50.5-49.8C1463.6,1406.4,1459.2,1401.2,1455.2,1396.4z M308.7,264.7
	c-16.4,16.8-32.8,33.6-48.5,49.7c4.6,5.3,8.7,9.9,12.1,13.8c17.1-17,33.6-33.5,50.1-49.9C318.4,274.4,314.1,270.1,308.7,264.7z"/>
</svg>
