<?xml version="1.0" encoding="utf-8"?>
<!-- Generator: Adobe Illustrator 19.2.1, SVG Export Plug-In . SVG Version: 6.00 Build 0)  -->
<svg version="1.1" id="Layer_1" xmlns="http://www.w3.org/2000/svg" xmlns:xlink="http://www.w3.org/1999/xlink" x="0px" y="0px"
	 viewBox="0 0 1727.5 1727.4" style="enable-background:new 0 0 1727.5 1727.4;" xml:space="preserve">
<path d="M863.5,1727.4C384.5,1727.8-0.1,1342.1,0,863.6C0.1,384.2,385.8-0.3,864.2,0c479.4,0.3,863.5,386.1,863.3,864.1
	C1727.3,1343.3,1341.8,1728.1,863.5,1727.4z M807.6,1659.6c8.6,2.7,16,6,23.8,7.3c10.3,1.7,16,7.9,20.7,16.4
	c3.4,6.1,7.5,11.9,11.7,18.4c6.1-8.3,12-15.5,16.9-23.3c4-6.3,9.5-9,16.3-10.8c8.5-2.2,16.7-5.1,25.7-7.9
	c-5.5-7.6-10.2-14.8-15.6-21.5c-5-6.2-7.8-12.6-7.6-20.8c0.1-8.1-1.3-16.2-2-24.5c-1.5,0.1-2.5,0-3.4,0.3c-7.6,2.5-15.1,5-22.6,7.8
	c-5,1.9-9.8,2.3-14.9,0.2c-4.5-1.8-9.1-3.3-13.6-4.8c-4-1.3-8.1-2.5-12.8-4c0,10.5-0.2,20.1,0.1,29.7c0.1,4.6-1.2,8.3-3.9,11.9
	C820.1,1642.2,814.2,1650.6,807.6,1659.6z M1561.4,1046.7c0.7,10.6,1.3,20.5,2.2,30.4c0.4,3.9-0.1,7-2.5,10.2
	c-6.5,8.6-12.7,17.4-19.2,26.4c1.6,0.7,2.9,1.5,4.3,1.9c8.3,2.8,16.8,5.4,25,8.5c2.6,1,5.1,2.9,6.8,5.1c5.4,6.9,10.4,14.2,15.6,21.3
	c1.3,1.8,2.8,3.4,4.5,5.4c6.6-9,12.8-17.4,18.8-25.9c2.1-2.9,4.2-5.2,8-6c6.1-1.4,12.1-3.5,18.1-5.4c4.4-1.4,8.7-3,13.4-4.6
	c-1.2-1.6-1.8-2.7-2.6-3.7c-6.5-8-13.1-15.9-19.3-24c-1.5-1.9-2.5-4.6-2.6-7c-0.3-10.6-0.1-21.3-0.1-32.1c-1.2,0.2-2.1,0.1-2.8,0.4
	c-7.4,2.5-14.8,5.1-22.2,7.5c-4.8,1.6-9.4,3.2-14.9,1.1C1582.2,1052.5,1572.2,1049.9,1561.4,1046.7z M1533.3,602.3
	c4.7,6.5,8.5,12.8,13.2,18.2c7.4,8.5,10.9,17.8,10.4,29.1c-0.3,6.4,1,12.8,1.6,20c6.3-2.1,11.8-3.6,17.2-5.7c9.6-3.7,19-7,29-1.3
	c2,1.1,4.4,1.5,6.6,2.2c4.6,1.5,9.3,2.9,14.5,4.6c0-11.5-0.1-22,0.1-32.5c0-2.2,0.8-4.6,2-6.4c5.7-8.2,11.6-16.1,17.4-24.2
	c0.9-1.2,1.4-2.7,2.3-4.4c-9.5-2.9-18.1-5.8-26.9-8.1c-5.9-1.6-10.3-4.1-13.4-9.8c-4.4-8.1-9.8-15.6-15.2-24
	c-5.2,7.2-10.2,13.6-14.6,20.3c-4.7,7.2-10.3,12.4-19.3,14.1C1550.1,596.2,1542.2,599.4,1533.3,602.3z M169,1057.9
	c-9.4,3.1-18,5.7-26.4,8.8c-5.1,1.9-9.8,2-14.8-0.1c-4.1-1.8-8.4-3-12.7-4.4c-4.2-1.4-8.5-2.6-13.4-4.1c0,10.6-0.2,20.4,0.1,30.2
	c0.1,4.3-1.1,7.7-3.6,11c-3.7,4.7-7.2,9.5-10.7,14.4c-2.6,3.7-5.1,7.5-8.1,11.8c6.5,2,12,3.6,17.5,5.4c9.5,3.1,20.7,3.7,24.9,15.4
	c0.2,0.6,0.6,1.2,0.9,1.8c4.1,6.3,8.2,12.6,12.6,19.4c6.4-8.8,12.5-16.6,17.9-24.9c3.2-4.9,7.5-7.2,12.8-8.6
	c4.5-1.2,8.9-2.5,13.4-3.9c4.7-1.5,9.3-3,14.7-4.8c-4.7-6.5-8.4-12.6-13-17.9c-7.4-8.6-11.1-18-10.6-29.5
	C170.8,1071.5,169.6,1065.2,169,1057.9z M349.2,264.7c5.7,1.9,10.3,3.9,15.1,5c12.4,2.9,22.6,8.3,28.8,20.3
	c3,5.9,7.9,10.8,12.3,16.7c6-8.1,12-15.3,16.8-23.1c3.8-6.1,8.9-9.2,15.6-11c7.8-2.1,15.3-5.1,23.6-7.9c-5.8-8-10.8-15.7-16.6-22.7
	c-4.7-5.7-6.7-11.6-4.9-18.8c0.2-0.8,0.3-1.6,0.3-2.5c0.4-7.5,0.8-15.1,1.3-23.3c-6.4,1.9-12,3.3-17.4,5.4c-11.1,4.2-22,7.2-33.4,1
	c-1.9-1-4-1.5-6.1-2.2c-4.1-1.3-8.3-2.6-13-4.1c0,10.2-0.3,19.5,0.1,28.8c0.2,5.3-1.3,9.5-4.6,13.6
	C361.1,247.7,355.5,255.9,349.2,264.7z M821.7,143.7c8.6-2.9,16.4-5.7,24.3-8.1c3.9-1.2,8-2.3,12-2.1c3.9,0.2,7.6,2.2,11.4,3.3
	c7.2,2.2,14.4,4.4,22.4,6.8c-0.8-10.6-1.4-20.3-2.3-30.1c-0.4-4.4,0.5-8,3.2-11.5c6.2-8.1,12.1-16.5,18.7-25.6
	c-4.9-1.7-9.2-3.2-13.5-4.7c-10.2-3.7-22-4.8-27.4-16.6c-0.3-0.6-0.7-1.1-1.1-1.7c-4.6-6.2-9.2-12.5-13.9-19c-1.2,1.3-2.1,2.1-2.7,3
	c-5.5,7.5-10.7,15.2-16.4,22.5c-2.1,2.7-5.1,5.1-8.2,6.3c-8.3,3.3-16.9,5.8-25.4,8.7c-1,0.3-1.9,1.1-3.1,1.9
	c6.2,8.5,12,16.7,18.1,24.8c2.8,3.7,4.3,7.5,4.1,12.3C821.4,123.6,821.7,133.2,821.7,143.7z M1693,855.6c-1.4-1.3-2.2-2.1-3.1-2.8
	c-7.4-5.4-14.7-10.8-22.1-16c-3.3-2.3-5.9-4.9-7.1-9.1c-2.4-8.3-5.3-16.4-8.1-24.6c-0.4-1.2-1.1-2.2-1.9-3.6
	c-6.9,5-13.6,9.3-19.6,14.5c-7.1,6.1-14.7,8.8-24.1,7.9c-7.5-0.7-15.1-0.1-23.2-0.1c2.9,8.7,5.8,16.4,8.1,24.4
	c1.2,4,2.2,8.3,1.9,12.4c-0.2,3.9-2.3,7.6-3.4,11.4c-2.1,7-4.2,14.1-6.5,21.9c10.8-0.8,20.7-1.4,30.6-2.4c4.1-0.4,7.3,0.6,10.6,3
	c8.3,6.3,16.8,12.3,25.5,18.6c0.9-1.4,1.6-2.2,2-3.3c3-8.8,5.8-17.7,9-26.4c0.8-2.2,2.3-4.4,4.1-5.8
	C1674.5,868.9,1683.5,862.5,1693,855.6z M34.5,872c1.5,1.3,2.3,2.2,3.2,2.8c7.5,5.5,15.1,10.8,22.5,16.4c2,1.5,4.4,3.3,5.3,5.6
	c2.5,6.3,4.3,12.9,6.5,19.3c1.3,3.9,2.8,7.6,4.4,12c4.4-3.1,8.5-5.3,11.8-8.5c12.1-11.8,26.4-16.2,43-13.9c4,0.5,8.1,0.1,12.5,0.1
	c-2.9-8.7-5.4-16.4-8.1-24c-2-5.5-3.3-10.7-1.1-16.8c3.4-9.3,5.9-18.9,8.9-28.7c-1.4-0.1-2.4-0.4-3.3-0.3c-9,0.6-17.9,1.2-26.9,2.1
	c-4.2,0.4-7.7-0.5-11.1-3.1c-8.2-6.3-16.7-12.3-25.3-18.5c-0.9,1.1-1.6,1.7-1.8,2.4c-2.2,6.6-4.4,13.2-6.4,19.9
	c-2,6.8-4.7,12.6-11.4,16.5C49.4,860.1,42.4,866.2,34.5,872z M1462.8,352c-2.9,8.7-5.7,16.5-8,24.4c-1.7,5.9-4.3,10.6-9.8,14.2
	c-8.2,5.3-15.8,11.4-24.3,17.6c8.5,6.2,16.2,12.2,24.3,17.5c5,3.2,7.7,7.5,9.3,12.8c1.2,4.1,2.4,8.3,3.8,12.4
	c1.4,4.3,3.1,8.5,4.8,13.3c6.5-4.7,12.7-8.3,17.9-13.1c8.4-7.6,17.4-10.4,28.6-7.9c6.4,1.4,13.2,0.8,20,1.2
	c-0.1-1.3,0.1-2.2-0.2-2.9c-2.6-8.2-5-16.5-7.9-24.7c-2-5.7-2.4-11.1,0.1-16.8c1.9-4.2,3.2-8.7,4.6-13.1c1.3-3.8,2.4-7.7,3.7-12.2
	c-8.2,0-15.8-0.5-23.2,0.1c-9.2,0.9-16.6-1.9-23.6-7.8C1477.1,361.6,1470,357.2,1462.8,352z M1375.5,1462.8
	c-5.7-1.9-10.3-3.9-15.1-5c-12.4-2.9-22.6-8.3-28.8-20.2c-3.1-5.9-7.8-10.9-12.2-16.8c-6.1,8.3-12,15.6-17.1,23.5
	c-3.8,5.9-8.9,8.8-15.3,10.6c-7.8,2.2-15.3,5.1-23.6,7.9c5.2,7.3,9.4,14.7,15,20.6c7,7.4,7.7,15.4,6.2,24.8
	c-1.1,6.9-0.9,14.1-1.4,21.9c6.5-2,12.4-3.2,17.8-5.6c12-5.2,23.7-5.8,35.7,0.1c4.8,2.4,10.3,3.5,16.2,5.5c0-10.1,0.3-19.6-0.1-29
	c-0.2-5.2,1.3-9.2,4.4-13.2C1363.4,1480,1369.1,1471.7,1375.5,1462.8z M132.7,571.7c-1.4,1.6-2.4,2.7-3.3,3.9
	c-5.4,7.4-10.6,14.8-16.1,22.1c-1.4,1.9-3.1,4.2-5.2,4.9c-9.2,3.3-18.6,6-28,9c-2,0.6-3.9,1.2-6.5,2.1c5.9,8.2,11,16.1,16.9,23.2
	c4.3,5.1,5.7,10.4,5.4,16.9c-0.4,8.9-0.1,17.8-0.1,27.3c8.7-2.9,16.7-5.1,24.3-8.2c6.6-2.7,12.6-2.5,19.2-0.2
	c8.6,3,17.3,5.5,26.7,8.4c-0.8-10.7-1.3-20.8-2.3-30.9c-0.3-3.7,0.2-6.7,2.5-9.7c6.5-8.6,12.8-17.5,19.5-26.8
	c-5-1.7-9.3-3.4-13.8-4.7c-18.8-5.3-18.8-5.2-29.3-21.4C139.5,582.3,136.2,577.2,132.7,571.7z M197.3,1355.9c5.1-0.4,9.6-0.3,14-1.1
	c14.3-2.7,27.4-1.7,38.3,9.7c4.1,4.3,9.7,7.1,15.1,10.9c2.6-8.3,5.8-15.6,7.1-23.2c1.8-10.3,7.6-16.5,16.6-21.1
	c6.2-3.2,11.9-7.5,18.3-11.7c-7.2-5.2-13.4-10.3-20.1-14.5c-7.5-4.7-12.7-10.4-14.6-19.5c-1.6-7.3-4.8-14.3-7.4-22
	c-8.5,6.1-16.5,11.5-24,17.5c-4.6,3.6-9.3,5.1-15.1,4.9c-9.1-0.4-18.2-0.1-28.3-0.1c2,6,3.5,11.2,5.5,16.3c4,10.3,7,20.3,1.6,31.5
	C200.9,1340.1,199.7,1347.8,197.3,1355.9z M1535.9,1347.4c-3.1-9.1-5.8-16.9-8.3-24.8c-1.5-4.7-3.2-9-1.2-14.4
	c3.6-9.8,6.2-19.9,9.4-30.7c-5.7,0-11-0.5-16.2,0.1c-13.6,1.6-25.4-1.5-35.4-11.4c-4.4-4.3-10-7.2-15.7-11.2
	c-2.7,10.6-5,20.3-7.7,29.8c-0.6,2-1.9,4.2-3.5,5.5c-5.2,4.1-10.7,7.8-16.1,11.8c-3.8,2.8-7.6,5.7-11.7,8.7c1.6,1.3,2.4,2.1,3.3,2.8
	c8.2,6,16.4,11.9,24.5,17.9c1.4,1,2.8,2.5,3.3,4.1c1.4,5,2.2,10.1,3.4,15.1c1.4,6.1,3,12.2,4.6,19.1c6.1-4.4,11.9-8,16.9-12.4
	c9-7.9,18.8-11.7,30.9-10.2C1522.6,1348,1528.9,1347.4,1535.9,1347.4z M1113.9,188.6c2.6-8.1,5.8-15.5,7.3-23.2
	c1.9-9.9,7.1-16.6,15.5-21.7c6.6-4,12.5-9,19.3-13.9c-2.5-1.7-4.3-2.9-6-4c-7.4-4.8-14.8-9.4-22.2-14.3c-1.3-0.8-2.6-2.2-3-3.6
	c-2.2-6.8-4.2-13.7-6.3-20.5c-1.4-4.4-2.9-8.7-4.6-13.7c-7.7,6.2-15,11.6-21.9,17.5c-4,3.5-8.2,4.9-13.5,4.7
	c-10.4-0.4-20.8-0.1-32-0.1c2.9,7,4.9,13.6,8.2,19.4c5.7,9.8,5.7,19,0,28.8c-3.3,5.8-5.3,12.3-8,18.9c2,0.3,3.5,0.7,4.9,0.8
	c10,0.8,20,1.3,29.9,2.3c2.8,0.3,5.7,1.6,8,3.3C1097.6,175.4,1105.3,181.7,1113.9,188.6z M613.6,1538.9c-2.6,8.2-5.8,15.5-7.3,23.3
	c-1.9,9.9-7.1,16.5-15.5,21.6c-6.6,4-12.5,9-19.2,13.9c2.3,1.6,3.9,2.8,5.5,3.9c7.5,4.8,15.1,9.6,22.6,14.5c1.3,0.8,2.5,2.2,3,3.6
	c2.2,6.8,4.2,13.7,6.3,20.5c1.4,4.4,2.9,8.7,4.6,13.7c7.5-5.9,14.7-11,21.1-16.9c4.5-4.1,9.2-5.6,15.3-5.4c10.1,0.4,20.2,0.1,31,0.1
	c-2.9-7.1-4.9-13.7-8.2-19.5c-5.7-9.8-5.6-19,0-28.8c3.3-5.8,5.3-12.3,8-18.9c-2.1-0.3-3.5-0.7-5-0.8c-10-0.8-19.9-1.3-29.9-2.3
	c-2.8-0.3-5.7-1.6-8-3.3C629.9,1552.1,622.2,1545.8,613.6,1538.9z M1058.1,1625.8c11.3,0,21.7-0.1,32.2,0.1c2.3,0,4.9,0.8,6.8,2.1
	c6.7,4.6,13.2,9.5,19.8,14.2c2.6,1.9,5.3,3.6,8.6,5.8c3-9.8,5.9-18.6,8.3-27.5c1.5-5.7,4-10,9.5-13.1c8.1-4.6,15.8-10,24.2-15.4
	c-9-6.6-17.1-12.9-25.6-18.6c-3.9-2.6-6.2-5.8-7.4-10.1c-1.2-4.1-2.5-8.3-3.9-12.3c-1.6-4.8-3.4-9.5-5.3-14.9
	c-5.2,3.7-10,6.4-13.9,10.1c-10.7,10.2-23.1,14.1-37.7,12.1c-4.8-0.6-9.8-0.1-15.1-0.1c0.4,2.2,0.5,3.6,0.9,4.8
	c2.5,7.6,5,15.1,7.8,22.6c1.6,4.3,1.7,8.3,0.1,12.5c-1.7,4.5-3.3,9-4.8,13.6C1060.9,1616.3,1059.6,1620.7,1058.1,1625.8z
	 M602.2,191.4c6.6-4.7,12.7-8.6,18.3-13.3c7.7-6.5,15.7-10.4,26.2-9.2c7.2,0.9,14.6,0.2,22.9,0.2c-2.1-6.5-3.7-12.2-5.9-17.7
	c-3.7-9.4-6.8-18.7-1.2-28.5c1.1-2,1.5-4.4,2.2-6.6c1.5-4.7,3-9.3,4.7-14.6c-11,0-20.9,0.2-30.9-0.1c-3.2-0.1-6.8-1.3-9.5-3.1
	c-7.7-5.1-15.1-10.8-22.6-16.2c-1.2-0.9-2.7-1.5-4.4-2.5c-3.5,11.2-6.5,21.7-10,32.1c-0.8,2.3-2.6,4.6-4.6,6
	c-8.8,5.9-17.8,11.5-27.3,17.6c8.5,6.1,16.2,12.1,24.3,17.5c5.2,3.4,7.9,7.9,9.6,13.8C596.2,174.8,599.3,182.6,602.2,191.4z
	 M191.7,453c5.8-0.4,11.1-0.6,16.3-1.2c19.2-2.1,19.2-2.1,34.9,9.3c5.1,3.7,10.4,7.3,16.2,11.4c2.1-8.2,4.5-15.4,5.5-22.7
	c1.2-8.7,5.9-14.2,13.3-18.4c3.7-2.1,7-5.1,10.4-7.6c3.1-2.3,6.2-4.6,10-7.3c-9.8-6.3-18.6-11.9-27.3-17.6c-1.6-1-3.5-2.4-4-4.1
	c-2.3-6.7-4.2-13.6-6.3-20.5c-1.4-4.5-2.9-8.9-4.6-13.9c-5.9,4.7-11.3,8.3-15.9,12.8c-7.6,7.5-16.1,11-26.9,9.6
	c-5.6-0.7-11.3-0.2-17-0.1c-1.4,0-2.8,0.3-4.6,0.5c2.8,8.4,5.5,16.2,8,24.1c1.5,4.6,3.5,8.9,1.5,14.4
	C197.6,431.8,195,442.1,191.7,453z M1344.7,191.6c-6,2-11,3.4-15.7,5.3c-10.8,4.3-21.4,7-32.9,1.4c-6.5-3.1-13.8-4.3-21.6-6.6
	c0.9,11,1.8,21.4,2.4,31.9c0.1,2.6-0.7,5.6-2,7.7c-4.4,6.6-9.3,12.9-13.9,19.4c-1.8,2.6-3.6,5.2-5.8,8.5c8,2,15,4.2,22.2,5.4
	c8.7,1.4,14.6,5.8,18.8,13.4c2.9,5.2,6.9,9.7,10.5,14.5c1.3,1.8,2.8,3.4,4.6,5.6c6.1-9.5,11.7-18.3,17.4-27.1c1-1.6,2.5-3.4,4.1-4
	c6.7-2.3,13.6-4.2,20.5-6.3c4.5-1.4,8.9-2.9,13.9-4.6c-4.8-6-8.7-11.5-13.2-16.3c-6.9-7.3-10.4-15.2-9.2-25.5
	C1345.4,207,1344.7,199.7,1344.7,191.6z M472.7,1468.5c-6.6-1.7-12.6-3.6-18.7-4.7c-9.6-1.7-18.2-4.6-22.6-14.4c-1-2.2-2.9-4-4.4-6
	c-3.3-4.5-6.6-8.9-10.2-13.8c-1.3,1.5-2.1,2.2-2.7,3.1c-5.1,8-10.1,16-15.3,23.9c-1,1.6-2.5,3.4-4.1,3.9c-6.9,2.4-14,4.2-20.9,6.4
	c-4.3,1.3-8.5,2.9-13.3,4.5c6.8,8.5,13.1,15.9,18.9,23.8c1.8,2.5,3.1,5.9,3.2,9c0.4,8.6,0.1,17.3,0.2,26c0,1.7,0.3,3.4,0.4,5.6
	c8.6-2.9,16.4-5.6,24.2-8.1c4.6-1.5,8.9-3.5,14.4-1.5c9.9,3.7,20.2,6.3,31.2,9.6c-0.8-10.5-1.2-20.4-2.4-30.2
	c-0.6-4.6,0.7-7.9,3.3-11.4C460.2,1486,466.1,1477.6,472.7,1468.5z"/>
</svg>
