<?xml version="1.0" encoding="utf-8"?>
<!-- Generator: Adobe Illustrator 19.2.1, SVG Export Plug-In . SVG Version: 6.00 Build 0)  -->
<svg version="1.1" id="Layer_1" xmlns="http://www.w3.org/2000/svg" xmlns:xlink="http://www.w3.org/1999/xlink" x="0px" y="0px"
	 viewBox="0 0 1727.5 1727.4" style="enable-background:new 0 0 1727.5 1727.4;" xml:space="preserve">
<path d="M863.8,1727.4C385.2,1727.9,0.1,1342.8,0,863.9C-0.1,384.9,385.1-0.1,864,0c479,0.1,863.6,385.4,863.5,863.8
	C1727.4,1342.6,1342.4,1727.9,863.8,1727.4z M1620.2,672.3c-19.7-74.1-48.7-143.5-87.7-208.6C1458.2,339.7,1357.7,243,1230,175
	c-119.5-63.7-247.3-93.4-382.5-90c-221.1,5.6-407.6,89.8-557.9,251.6c-89,95.8-147.9,208.8-182.3,335.8c7,0,13-0.4,18.9,0.1
	c5.4,0.5,7.1-2,8.4-6.6c5.1-18.1,9.8-36.2,15.8-54c12.9-38.1,29-74.9,48.3-110.2c26.8-49,58.9-94.2,95.7-136.1
	c33.2-37.7,69.7-71.8,109.6-102.4c37.6-28.9,77.6-54,119.9-75.4c33.8-17.1,68.7-31.7,104.7-43.7c32.3-10.7,65.2-19.7,99-24.8
	c25.7-3.8,51.4-7.7,77.2-9.8c43.2-3.5,86.5-3,129.8,0.8c34.2,3,68,8.3,101.5,15.8c30.8,6.9,61,16.1,90.6,27.1
	c40.2,14.9,78.9,32.9,116.1,54.4c54.3,31.4,103.6,69.3,148.4,113.1c42.6,41.7,80,87.7,112.2,137.9c21.6,33.6,40.3,68.7,55.6,105.5
	c8.1,19.6,15.2,39.7,22,59.8c5,14.6,8.7,29.6,13.2,44.4c0.4,1.5,1.9,3.7,3,3.7C1604.5,672.4,1611.9,672.3,1620.2,672.3z
	 M107.1,1055.2c42.2,152.9,118.3,284.6,236.6,389.4c175.4,155.5,381.7,218.9,613.8,192.4c206.3-23.5,375.9-118.5,508.3-278.3
	c73.9-89.2,124.2-191,154.5-303.6c-6.9,0-12.7,0.4-18.5-0.1c-5.5-0.5-7.5,1.7-8.8,6.8c-7.8,32.4-18.6,63.7-31.1,94.5
	c-17.7,43.5-39.6,84.7-65.7,123.7c-44.1,65.9-96.8,124.2-158.4,174.3c-34.1,27.7-70.3,52.2-108.8,73.2
	c-34.1,18.6-69.2,35.1-106,47.6c-24.8,8.4-49.8,16.4-75.2,23.2c-28.4,7.6-57.4,13-86.8,15.8c-22.4,2.2-44.8,4.6-67.2,5.4
	c-43.2,1.6-86.2,0.2-129.2-5.5c-28.7-3.8-57.3-8.5-85.2-16.1c-25.8-7-51.4-14.7-76.5-23.8c-52.9-19.3-102.9-44.5-150.1-75.2
	c-50-32.5-95.6-70.3-136.8-113.4c-34.2-35.8-64.8-74.6-91.6-116.4c-20.2-31.5-38-64.3-52.6-98.7c-8.1-19.1-15.4-38.5-22.2-58.1
	c-6-17.4-10.6-35.3-16-52.9c-0.5-1.7-2.4-4-3.8-4.1C122.7,1055,115.5,1055.2,107.1,1055.2z M1693.1,855.5c-2.1-1.5-3.7-2.7-5.3-3.7
	c-7.5-4.8-15.1-9.6-22.6-14.5c-1.4-0.9-2.8-2.4-3.4-4c-3.1-9.3-5.9-18.7-8.9-28c-0.6-1.8-1.2-3.6-2-6c-8.9,6.5-17.2,12.2-25.2,18.4
	c-3.7,2.9-7.5,4.3-12.3,4.1c-9.7-0.3-19.5-0.1-29.8-0.1c1.8,5.9,3.2,11.2,5.1,16.3c4.8,12.4,7.2,24.6,0.7,37.3
	c-2.5,4.9-3.8,10.5-5.9,16.6c9,0,17.1,0.4,25.2-0.1c8.1-0.6,14.7,1.5,20.9,6.9c6.5,5.5,13.8,10.1,21,15.3c0.8-1.7,1.4-2.7,1.7-3.8
	c2.6-8.4,5.4-16.7,7.6-25.3c1.4-5.6,4.6-9.1,9.2-12.2C1677.3,867.3,1684.9,861.5,1693.1,855.5z M34.4,872.1c2.2,1.5,3.8,2.7,5.4,3.7
	c7.5,4.8,15.1,9.6,22.6,14.5c1.3,0.9,2.7,2.1,3.2,3.5c2.3,6.8,4.2,13.6,6.3,20.5c1.4,4.5,3,8.9,4.6,13.9c4.8-3.5,9.2-6,12.9-9.3
	c10.7-9.4,22.2-15.7,37.3-13.2c5.4,0.9,11.1,0.1,17.2,0.1c-1.9-6-3.4-11.3-5.2-16.4c-6.3-19.1-6.4-19.1-0.5-37.2
	c1.7-5.3,3.6-10.5,5.7-16.6c-11,0-21.2,0.3-31.3-0.2c-3.4-0.1-7.1-1.4-10-3.3c-8.6-5.8-16.9-12.1-26.1-18.8
	c-1.7,5.4-3.1,10.1-4.7,14.7c-3.7,10.7-4.1,23.3-16.5,29c-0.6,0.3-1.1,0.7-1.7,1.1C47.3,862.6,41,867.2,34.4,872.1z"/>
</svg>
