<?xml version="1.0" encoding="utf-8"?>
<!-- Generator: Adobe Illustrator 19.2.1, SVG Export Plug-In . SVG Version: 6.00 Build 0)  -->
<svg version="1.1" id="Layer_1" xmlns="http://www.w3.org/2000/svg" xmlns:xlink="http://www.w3.org/1999/xlink" x="0px" y="0px"
	 viewBox="0 0 1729.3 1732.5" style="enable-background:new 0 0 1729.3 1732.5;" xml:space="preserve">
<path d="M1621.1,1179.1c8.4,26.9,10.1,54.1,5.1,81.8c-6,33.1-24.6,57.2-51.6,76.1c-15.6,10.9-31.8,20.6-50.1,26
	c-3.4,1-7.1,1.1-11.4,1.7c3.9,42.7-10,79.9-37.3,112c-23.8,28-84.8,43.4-112,37.1c-1.8,6.2-3.4,12.5-5.4,18.7
	c-6,18.2-13,35.8-26.9,49.8c-8.1,8.1-15.2,17.3-24,24.5c-17.2,14-37.6,20.9-59.7,22.4c-19.3,1.4-38.6,0.9-57.7-2.7
	c-2.3-0.4-4.5-1.7-6.4-3c-3.8-2.5-5.1-0.1-6.9,2.6c-7.3,10.7-14.1,21.8-22.3,31.7c-12.6,15.2-27.7,27.7-45.6,36.5
	c-17.4,8.6-36,10.6-54.9,9.7c-20.1-0.9-39.5-5.5-58.2-12.9c-7.3-2.9-14-7.4-21.2-10.8c-1.5-0.7-5.1-0.4-5.4,0.4
	c-3.8,8.6-11.6,13.1-18.4,18.4c-17.2,13.2-36.2,23.5-57.2,29.4c-19.4,5.5-38.9,5-58.2-0.6c-26.4-7.6-49.1-21.5-69.2-39.9
	c-1.7-1.5-3.2-3.4-4.1-5.5c-1.6-3.7-3.5-4.3-6.9-2.2c-19.6,12.4-41.4,18.7-63.9,22.3c-32.5,5.2-62.3-1.2-88.9-21.5
	c-18.3-13.9-34.4-29.6-46-49.6c-0.9-1.5-1.5-3.3-1.9-5c-0.8-3.7-4.1-5.6-6.9-3.3c-7.3,6.1-16.4,6.6-24.9,7.4
	c-24.9,2.3-49.6,1.3-73.2-8.4c-14.6-6-27.9-13.8-38.4-26c-5-5.8-10.4-11.2-15.6-16.8c-10-10.8-15.6-24.2-20.8-37.6
	c-3.4-8.7-5.2-18-7.4-26.1c-3.6,0-7.8,0.2-12,0c-32.3-1.7-62.6-9.4-89.4-28.5c-14-9.9-23.2-23.6-30.9-38.4
	c-10.2-19.5-17.6-39.8-18.6-62c-0.3-7.3-0.1-14.6-0.1-22.3c-13.2-1.3-25.7-5.9-37.2-12.6c-20.3-11.8-41.1-23.3-55.1-43.3
	c-17-24.3-23.6-51.7-23.1-81.1c0.2-13.4,1.6-26.5,5.7-39.4c0.9-2.9,1.1-6.1,1.6-9.2c-7.1-4.1-14.9-7.8-21.6-12.9
	c-24.4-18.3-42.6-41.3-53.6-70.1c-11.2-29.4-8.5-58.1,2-86.6c3.5-9.6,7.9-19,12.1-28.4c1.2-2.6,3.4-4.8,5.5-7.7
	C28.3,950,10.5,922.3,2.6,889.1c-6.1-25.9-1-50.5,9.9-74.3c8.3-18.1,18.6-34.7,33.5-48.3c2.3-2.1,3.7-5.3,5.4-7.8
	c-14.9-24.9-24.7-52-25.9-81.9c-0.4-11.3,1.3-22,5-32.8c4.4-12.8,9-25.3,16.7-36.5c13.6-19.8,29.6-37,50.8-48.9
	c3.3-1.8,6.9-3.1,10.7-4.8c-9.9-32.6-11.4-65.3-1.1-97.7c5.8-18.2,15.4-34.4,30.5-47c17.3-14.3,35-28.1,56.4-35.9
	c6.8-2.5,13.9-4.1,22-6.4c0-1.9,0.3-5,0-8.1c-2.1-21.9,3-42.5,12.1-61.9c5.9-12.5,12.8-24.8,20.8-36.1c10.2-14.2,25.1-23,41-29.8
	c20.7-8.8,42.4-13.8,64.9-14.2c4.2-0.1,8.4,1.1,12.9,1.7c-0.3-18,10.2-32.5,17.3-48.3c9.4-20.8,25.4-35.9,43-49.1
	c15.6-11.7,34.2-16.7,53.7-18.1c19.2-1.3,38.3-0.9,57.2,2.7c2.6,0.5,5.2,2,7.5,3.3c3.5,1.9,6.1,0.5,7.4-3.3c1.4-4.1,3.5-8.2,6-11.8
	c16.3-24,36.1-44.2,62.7-56.8c16.7-7.9,34.5-9.6,52.6-8.8c20.2,1,39.9,5.5,58.7,13c7.3,2.9,14,7.4,21.2,10.8
	c1.4,0.7,4.8,0.4,5.1-0.3c3.7-8.4,11.2-13,18-18.2c17.6-13.6,36.9-24.2,58.6-29.9c24.3-6.5,48.2-4.5,71.3,5.2
	c20.3,8.6,39,20,55.1,35.2c1.9,1.8,2.8,4.4,4.7,6.2c1.3,1.3,3.6,2.7,5.1,2.4c2.5-0.4,4.8-2,7-3.3c31.3-18.5,65.3-23.9,100.9-19.8
	c15.8,1.8,29.4,10.2,42.4,19c22.3,15.1,40.7,34,53.3,58.1c2.2,4.1,3.3,3.5,7.3,1.3c4.5-2.5,9.7-4.2,14.8-4.9
	c30.2-4.6,59.7-3.2,87.9,9.9c13.1,6.1,24.6,14.3,33.9,25.5c4.2,5,8.8,9.5,13.2,14.2c10.1,10.8,15.6,24.2,20.9,37.5
	c2.8,7,4.2,14.6,6.2,22c0.8,3,2.2,4.5,5.9,4.5c36.6,0.2,70.8,8.5,100.4,31.2c12.6,9.7,20.7,22.7,27.8,36.5
	c9.6,18.6,16.6,38.1,18,59.2c0.3,4.3,0,8.6,0,13c0,3.6,0,7.3,0,11.1c19.8,1.7,36.2,11.3,52.3,21.6c14.5,9.3,29.1,18.6,39.3,33.1
	c13.9,19.9,21.9,41.9,23.4,66.3c1.2,19.1,0.6,37.9-5.4,56.3c-0.9,2.8-1,5.8-1.3,8.2c8.7,5,17.7,9.2,25.7,14.9
	c19.2,13.6,32.3,32.5,44,52.6c15.3,26.3,15.1,54.1,9.3,82.7c-3.2,16-9.8,30.6-16.4,45.3c-1.6,3.6-4.2,6.7-6.4,10
	c33,28.1,51.3,64.6,51.3,107.6c0,42.8-18.2,79.3-50.3,106.7c3.8,8.2,7.8,16.2,11.4,24.4c7.1,16.4,11.6,33.4,13.5,51.3
	c3,27.9-4.3,52.5-19.7,75.4c-11.4,16.9-24,32.6-41.5,43.6C1636,1171.9,1628.7,1175.1,1621.1,1179.1z M1484.9,464.6
	c-0.7,3.5-1.7,6.7-1.9,10c-0.1,1.4,1.1,3.7,2.2,4.1c3.4,1,7,1.3,10.6,1.8C1497.6,467.4,1495.9,465,1484.9,464.6z M236.7,1252.2
	c-1.9,12.8,1.7,17.6,11.1,14.9c2.2-13.4,2.2-13.4-10.2-15.2C237.5,1252,237.3,1252.1,236.7,1252.2z M1268,1484.9
	c-3.6-0.7-6.9-1.7-10.4-2c-1.3-0.1-3.5,1.3-3.9,2.4c-1,3.3-1.2,6.8-1.8,10.2C1264.4,1498,1267.1,1496.3,1268,1484.9z M323.6,396.3
	c3.4-0.8,6.2-1.2,8.8-2.1c4.3-1.5,2.1-5.4,2.4-8.2c0.1-1-1.3-3-2.2-3.1c-3.7-0.3-7.4-0.1-11.9-0.1
	C321.8,387.8,322.6,391.8,323.6,396.3z M622.3,1526.8c3,11.8,7.2,13.8,15.8,7.7c-1.7-4-3.4-8.1-5.3-12.7
	C629,1523.6,625.8,1525.1,622.3,1526.8z M329.6,463.8c4.5,0,8.6,0,13.1,0c-0.6-2.7-1.2-4.9-1.4-7.1c-0.3-3.2-2.1-4-5-4.1
	c-10.9-0.3-11.2,0.1-7.2,10.4C329.2,463.2,329.4,463.5,329.6,463.8z M331.6,1349.4c3.8-11.6,4.3-11.1-7.2-12.6
	c-1.1-0.1-2.2-0.2-3.7-0.3c0,4.4,0,8.4,0,12.9C324.5,1349.4,328.1,1349.4,331.6,1349.4z M1411.7,1349.9c0-5.1,0-9.1,0-14.2
	c-4.8,1.4-9.3,2.1-12.8,4.2c-0.9,0.6,0.2,7.5,2.1,8.8C1403.6,1350.5,1408,1349.6,1411.7,1349.9z M383.1,1400.9c0,3.5,0,7.1,0,11.1
	c3.4,0,6.3,0,9.2,0c1.1,0,2.2-0.2,3.6-0.4c-0.1-1.4-0.2-2.5-0.3-3.6C394.1,1396.4,394.5,1397.1,383.1,1400.9z M1415.6,1265.6
	c-0.7,9.9,1.3,11.7,10.4,9.5c1.7-0.4,3.3-1,5.1-1.5c-0.3-1.7-0.6-3-0.8-4.2c-1.1-6.4-1.5-6.7-7.6-5.4
	C1420.4,1264.5,1418,1265.1,1415.6,1265.6z M458.7,1430.9c12.2-1.5,12.2-1.5,7.8-15.4c-10.1-0.2-11.4,1.5-9.1,10.8
	C457.8,1427.8,458.3,1429.4,458.7,1430.9z M1239.9,203.1c-5,0-9.2,0-13.5,0c0,3.6,0,6.7,0,9.8c2.1,1.1,4,2.7,6.1,3.1
	c1.7,0.3,4.9-0.4,5.2-1.5C1239,211,1239.2,207.2,1239.9,203.1z M1411.9,383.6c-8.9-2.7-12.2-0.9-13.1,7c-0.1,1.2,1,3.3,1.9,3.6
	c3.5,1,7.2,1.4,11.2,2.1C1411.9,391.4,1411.9,387.4,1411.9,383.6z M383.2,320.7c0,4.1,0,7.7,0,11.2c11.4,2.9,13.5,0.9,12.2-11.2
	C391.5,320.7,387.6,320.7,383.2,320.7z M506,217.2c0-5.6,0-9.9,0-15.5c-4.7,1.6-9.2,2.3-12.6,4.6c-1.1,0.7-0.3,7.1,1.5,8.4
	C497.5,216.7,501.8,216.4,506,217.2z M201.6,1226.4c1.7,4.9,2.5,9.5,4.9,12.8c0.8,1.1,7.4,0,8.8-2c1.8-2.6,1.1-7,1.5-10.8
	C211.6,1226.4,207.5,1226.4,201.6,1226.4z M1530.8,506c-1.6-4.8-2.2-9.3-4.6-12.6c-0.8-1.1-7.4-0.2-8.8,1.7c-1.9,2.6-1.2,7-1.7,10.9
	C1520.8,506,1524.9,506,1530.8,506z M217,505.9c-0.6-3.9,0-8.3-1.9-10.9c-1.4-1.9-8-2.7-8.8-1.6c-2.4,3.3-3,7.9-4.5,12.8
	c4.5,0,7.4,0,10.4,0C213.4,506.2,214.7,506,217,505.9z M1279.6,326.2c-3.2,0.9-6.2,1.5-8.9,2.5c-1,0.4-2.2,1.9-2.3,3
	c-1,8.2-0.7,8.5,7.3,8.5c1,0,2,0,3,0c2.6,0.1,3.6-1.1,3.1-3.7C1281.1,333.4,1280.4,330.2,1279.6,326.2z M1226.6,1515.4
	c0,5.4,0,9.7,0,15.5c4.8-1.7,9.3-2.6,12.6-5c1.1-0.8,0.1-7.2-1.8-8.4C1234.9,1515.6,1230.6,1516,1226.6,1515.4z M506.1,1515.4
	c-4.2,0.7-8.5,0.2-11.1,2.1c-1.8,1.4-2.6,8-1.4,8.8c3.3,2.3,7.9,2.9,12.5,4.3C506.1,1525,506.1,1520.9,506.1,1515.4z M1403.2,1268.3
	c-3.2,0-5.7-0.2-8.1,0.1c-1,0.1-2.6,1.3-2.6,2.1c-0.1,3.6,0.2,7.1,0.4,10.7c2.7-0.2,5.4-0.4,8.1-0.7c1.6-0.2,3.2-0.5,5.5-0.8
	C1405.3,1275.7,1404.3,1272.1,1403.2,1268.3z M370.7,1399.6c-3.9,0.9-8.9,0.7-10.1,2.8c-1.6,2.8-0.2,7.2,0,11
	c4.4-0.4,8.8-0.7,13.7-1.1C373,1407.7,372,1404.2,370.7,1399.6z M1476.4,1268c-0.9-4.9-1.7-9-2.5-13c-11.3,1-13.2,3.5-10.3,13
	C1467.6,1268,1471.7,1268,1476.4,1268z M1077.1,1572.5c4.2,1.6,8.1,4.6,11.2,3.9c2.2-0.5,5.4-6.9,4.5-8.8c-1.5-3-6.1-4.5-9.8-6.8
	C1080.9,1565,1079.3,1568.2,1077.1,1572.5z M256.1,464.4c1,4.9,1.8,9.1,2.7,13.3c11.8-1.8,12.7-3.1,10.3-13.3
	C265.1,464.4,261,464.4,256.1,464.4z M655.4,159.9c-4.3-1.6-8.2-4.5-11.3-3.8c-2.2,0.5-5.4,6.9-4.4,8.9c1.5,3,6.2,4.4,9.8,6.7
	C651.7,167.4,653.3,164.2,655.4,159.9z M1268,256.4c-3.3,0.5-6.3,0.6-9.1,1.4c-1.5,0.4-3.9,2.8-3.7,3.1c1.7,2.9-0.8,8.1,4.4,8.8
	c2.7,0.4,5.5,0.1,8.4,0.1C1268,265,1268,260.8,1268,256.4z M1572.6,655.4c1.5-4.1,4.3-8.1,3.7-11.4c-0.4-2.1-7-5.3-8.9-4.3
	c-3,1.6-4.3,6.2-6.6,9.9C1565.1,651.7,1568.4,653.3,1572.6,655.4z M674.9,1596.7c0-5.3-1.7-7.4-6-7.5c-2.2-0.1-7.6,6-7.7,8.7
	c-0.1,2.9,3.9,4.9,8.9,5.3C675.8,1603.6,674.9,1600,674.9,1596.7z M1072.6,1580.7c-0.7,0.1-1.4,0.1-2.1,0.2c-2,3.1-6,6.5-5.5,9.2
	c0.4,2.7,4.9,5.5,8.2,6.7c1.3,0.4,6.2-4.2,5.8-5.3C1077.7,1587.5,1074.9,1584.2,1072.6,1580.7z M159.9,1077.1
	c-1.5,4.1-4.3,8-3.7,11.3c0.4,2.1,7,5.3,8.9,4.3c3-1.5,4.4-6.2,6.6-9.9C167.4,1080.8,164.2,1079.2,159.9,1077.1z M229,483.2
	c-3.6-4.1-5.7-8.1-9-9.8c-2.6-1.3-9.7,5.4-8.5,7.1c2.3,3,5.1,6.3,8.5,7.5C221.9,488.6,225.2,485.3,229,483.2z M1557.9,1096.4
	c-1.8-3.6-3.5-6.9-5.5-10.6c-4,2-7.4,3.8-10.9,5.6C1547.2,1103.8,1547.2,1103.8,1557.9,1096.4z M1627.9,874.5
	c-2.6-1.3-5.2-2.3-7.4-3.9c-2.9-2.1-4.7-0.6-5.9,1.7c-1.4,2.7-4.6,5.5-1.6,8.8c5,5.4,7.7,5,11.6-1.2
	C1625.6,878.2,1626.6,876.6,1627.9,874.5z M190.9,641.3c-5-12.5-6.4-12.9-16.2-5c1.7,3.3,3.4,6.6,5.4,10.4
	C184,644.8,187.5,643,190.9,641.3z M116.5,864c1.5-4.3,3.7-8,3.6-11.7c0-1.7-5.8-5.3-6.6-4.7c-3.5,2.5-6.2,6.2-9.5,9.9
	C108.2,859.8,111.5,861.5,116.5,864z M1091.3,191c12.3-5.5,12.8-7.2,4.7-16.2c-3.2,1.7-6.5,3.4-10.3,5.3
	C1087.8,184.1,1089.6,187.5,1091.3,191z M702.7,1594.2c-2.6-3.5-5.2-6.9-7.3-9.8c-3.4,1-6.1,1.8-9.2,2.6c1.1,4.4,2.1,8.6,3.3,13.3
	C694.2,1598.2,698.1,1596.4,702.7,1594.2z M868.7,1615.7c2.9,3.4,4.9,7.4,8.2,9.2c1.5,0.8,7.6-2.6,7.7-4.4c0.2-3.6-2.2-7.3-3.6-11.1
	C876.7,1611.6,873.4,1613.3,868.7,1615.7z M1615.6,863.5c3.3-2.5,7.4-4.4,9.3-7.5c0.9-1.4-2.3-7.6-4.1-7.8
	c-3.6-0.4-7.4,1.8-11.5,3.1C1611.5,855.6,1613.3,859,1615.6,863.5z M116.8,868.7c-3.4,2.7-7.4,4.7-9.2,8c-0.8,1.5,2.5,7.6,4.3,7.7
	c3.6,0.3,7.3-2.1,11.2-3.4C120.9,876.7,119.1,873.2,116.8,868.7z M1499.2,621.4c3.1,1.6,5.8,3.3,8.7,4.4c0.9,0.3,2.8-0.7,3.7-1.6
	c1.1-1.2,1.7-2.8,2.5-4.3c1.4-2.7,1.6-4.5-2-6c-7.4-3.1-7.2-3.4-11,3.8C1500.5,618.7,1500,619.8,1499.2,621.4z M467.1,236.5
	c0,2,0,3.8,0,5.6c0,4.6,5.4,8.9,9.8,7.5c0.9-0.3,1.8-1.5,2-2.5c0.7-3.4,1.1-6.8,1.7-10.6C476.1,236.5,471.8,236.5,467.1,236.5z
	 M863.8,116.8c-2.8-3.4-4.8-7.4-8-9.2c-1.5-0.8-7.6,2.6-7.7,4.3c-0.3,3.6,2.1,7.3,3.5,11.2C855.8,120.8,859.3,119.1,863.8,116.8z
	 M1454.1,1270.9c-0.9-3.1-1.3-6-2.6-8.4c-0.7-1.3-2.9-2.4-4.5-2.4c-2.3,0-6.2,0.7-6.5,1.7c-0.8,3.8-0.3,7.9-0.3,12.4
	C1445.6,1272.9,1449.7,1271.9,1454.1,1270.9z M233.2,1111.4c-9.5-7.1-12.1-6.7-15,2.6c-0.4,1.1,0.6,3.6,1.5,4
	c8.6,3.9,7.1,6.5,12.1-3.6C232.2,1113.5,232.6,1112.6,233.2,1111.4z M1271,278.3c-3.3,1-6.3,1.2-8.6,2.7c-1.4,0.9-2.3,3.6-2.4,5.6
	c-0.1,1.9,0.9,5.3,1.8,5.4c3.9,0.6,7.9,0.3,12.3,0.3C1272.9,287,1272,282.9,1271,278.3z M458.4,1440.1c1.2,5.3,2.2,9.5,3.3,14
	c3.3-1,6.4-1.2,8.6-2.7c1.5-1.1,2.2-4,2.3-6.1c0.1-1.7-1-4.8-1.9-4.9C466.8,1439.8,462.9,1440.1,458.4,1440.1z M1071.3,151.7
	c8.9-7.7,9.8-9.9,6.2-13.6c-3.8-3.9-6.3-3.9-11.4,2.7C1060.4,148,1071.9,145.9,1071.3,151.7z M659.9,151.1c1.6-1.4,2.5-2.4,3.5-3.2
	c6-4.6,6.1-4.6,0.8-9.8c-3.6-3.5-5.8-3.5-9.1,0c-3,3.2-2.8,6,0.9,8.7C657.4,147.8,658.4,149.4,659.9,151.1z M1513.6,1259.3
	c2-2,4.8-4.7,7.5-7.5c-2.8-2.6-5.3-6.1-8.6-7.3c-1.6-0.6-5.7,2.7-7,5.2C1504.4,1251.8,1510.4,1259.6,1513.6,1259.3z M1530.4,1226.5
	c-5.6,0-9.7,0-14.9,0c0.6,3.8,0.1,9,2,10.2c2.7,1.7,8.1,1.7,10.8,0C1530.2,1235.5,1529.7,1230.3,1530.4,1226.5z M1493.1,1127.7
	c-5-11.3-5-11.4-12.9-9.2c-1.2,0.4-2.4,2.5-2.7,4c-0.3,1.5,0.2,3.4,1,4.8c0.8,1.2,2.5,2.8,3.7,2.7
	C1485.7,1129.6,1489.2,1128.5,1493.1,1127.7z M868.9,115.8c4.2,1.6,7.9,3,11.5,4.4c6.6-8.4,8-7.6-6.1-15.1
	C872.6,108.4,870.9,111.7,868.9,115.8z M144.1,1047.3c-0.4-0.7-0.7-1.4-1.1-2.1c-3.7,0-7.9-1.1-10.8,0.4c-1.8,0.9-2.8,8-1.9,8.5
	c3.2,1.9,7.5,3.1,11.2,2.6C142.8,1056.5,143.2,1050.6,144.1,1047.3z M1588.5,686.9c4.7,0.2,8.9,1.4,11.8,0.1
	c1.7-0.8,2.6-8.2,1.9-8.5c-3.6-1.7-7.7-2.1-11.7-3C1589.9,678.9,1589.3,682.3,1588.5,686.9z M1057.2,142.6
	c-0.7-3.7-1.1-7.3-2.1-10.7c-0.3-0.9-2.4-2.1-3.4-1.8c-2.7,0.7-5.2,2-8.1,3.2c0.9,3.9,1.9,7.8,2.7,11.3
	C1050,143.9,1053.2,143.4,1057.2,142.6z M464.7,1403c-0.7-3.7-0.3-7.9-2.2-10.1c-1.2-1.5-8.1-1-8.5,0.2c-1.5,3.8-1.2,8.3-1.7,13.5
	C457.1,1405.1,460.5,1404.1,464.7,1403z M1260.3,219.5c-3-2.5-5.7-6.3-9.1-7c-1.7-0.4-5.9,4.3-6.6,7.2c-0.5,2,2.7,5.6,5,7.3
	C1251.2,228.1,1259.5,222.1,1260.3,219.5z M1253.3,1520.6c7.5-6,7.4-11.6-0.2-14.9c-1.1-0.5-3.2-0.3-4,0.4c-6.2,5.6-6,6.9,0.8,11.9
	C1251,1518.9,1252.2,1519.7,1253.3,1520.6z M211.8,1253.4c7.1,7.4,11.8,7.1,15-0.4c0.5-1.1,0.4-3.2-0.3-4c-5.5-6.2-6.9-6-11.9,0.7
	C213.7,1250.9,212.8,1252.1,211.8,1253.4z M489.6,1512.9c-2.8-3-5.3-7.4-7-7.2c-3.3,0.6-6.2,3.8-9.3,5.9c2.6,2.9,5.3,5.9,7.9,8.8
	C483.8,1518.2,486.4,1515.8,489.6,1512.9z M1004.2,160.2c6,9.5,6.1,9.5,16.2,2.4c-2.6-3.5-5.1-6.9-7.9-10.8
	C1009.4,154.9,1006.9,157.5,1004.2,160.2z M1522.2,480.7c-4.2-2.9-7.5-5.2-10.7-7.4c-2.1,3.2-5,6.1-5.7,9.5c-0.3,1.3,5,5.5,7.2,5.1
	C1515.9,487.5,1518.4,483.9,1522.2,480.7z M711.3,1585.6c10.5-5.7,11.8-7.2,9.7-10.7c-3.9-6.3-4.5-6.3-14.6,0.4
	C707.9,1578.6,709.5,1582,711.3,1585.6z M1569.7,1020.4c3.5-2.6,7-5.1,10.7-7.8c-3-3.1-5.6-5.8-8.1-8.4
	C1563,1009.7,1563,1009.7,1569.7,1020.4z M1574.6,728.2c7-8.1,6.5-10.4-3-16c-2.4,3.3-4.9,6.7-7.6,10.5
	C1568,724.8,1571.2,726.5,1574.6,728.2z M1550.2,740c3.5,2.5,6.9,5.1,10.5,7.7c6.7-10.8,6.7-10.8-2.9-16.2
	C1555.5,734,1553.1,736.7,1550.2,740z M816,1584.1c1.7,3.2,3.4,6.5,5.4,10.4c3.9-3,7.2-5.5,10.5-8
	C825.1,1577,822.9,1576.7,816,1584.1z M152,719.9c3,3,5.6,5.6,8.2,8.2c9.4-5.3,9.7-6.8,2.3-15.9C159.1,714.7,155.7,717.2,152,719.9z
	 M1009.6,1563.9c-2.1,4.3-3.7,7.5-5.5,11c2.9,1.9,5.6,3.7,8.2,5.5c-0.3-0.5-0.5-1-0.8-1.5c3.1-2.1,6.3-4.2,9.8-6.5
	C1016.8,1569.1,1013.5,1566.7,1009.6,1563.9z M993.1,1549.4c-3.1,4.2-5.6,7.7-8.2,11.2c10.8,6.7,10.8,6.7,16-2.4
	c-0.2-0.4-0.4-0.9-0.7-1.2C998,1554.7,995.8,1552.4,993.1,1549.4z M953.8,1522.2c-6.5,8.8-6.5,10.2-0.6,14.1
	c3.6,2.4,6.6,0.5,10.7-6.8c-2.3-1.8-4.6-3.6-7-5.4C956,1523.5,955,1522.9,953.8,1522.2z M742.3,182.6c6.2-11.2,6.2-11.2,0.6-14.7
	c-3.8-2.3-6.1-0.9-11,6.9C735.3,177.3,738.6,179.8,742.3,182.6z M1000.8,174.6c-7-8.9-7.6-9.1-12.2-5.9c-4.8,3.4-4.8,3.4,1.8,13.7
	C993.9,179.8,997.3,177.2,1000.8,174.6z M778.5,210.4c5.8-7.3,6.5-10.5,3.2-12.9c-5.6-4-7.7-3.2-13.1,5.4
	C771.8,205.4,775.2,207.9,778.5,210.4z M723,168.6c2.1-4.5,3.7-7.8,5.3-11c-8.8-6.4-10.3-6.1-15.9,3.3
	C715.6,163.3,719,165.7,723,168.6z M168.5,1009.6c-4.1-2.1-7.4-3.7-10.6-5.4c-6.9,8.1-6.5,10.4,3,15.9
	C163.3,1016.8,165.7,1013.5,168.5,1009.6z M768.4,1529.7c3,3.4,5.4,6,7.7,8.5c9.7-5.8,9.8-7,2.4-16.2
	C775.1,1524.6,771.8,1527.1,768.4,1529.7z M1549.9,990.2c2.9,3.8,5.5,7.2,8.2,10.7c8.9-7.8,8.9-7.8,5.6-12.5
	C1560.6,984.2,1560.6,984.2,1549.9,990.2z M767.2,1546.7c-7.9-9.2-10.3-9.5-17.8-2.2C756.9,1553.5,755.3,1553.8,767.2,1546.7z
	 M174.1,1001c7-8.2,6.4-11.1-2.8-15.5C161.9,995.2,161.9,995.2,174.1,1001z M182,743.2c0.1-0.4,0.3-0.9,0.4-1.3
	c-2.6-3.4-5.3-6.9-8-10.3c-8.9,7.8-8.8,7.8-5.5,12.5C174.2,751.9,177.5,742.5,182,743.2z M810.1,1558.9c-11.1,5.1-12.1,8-5,13.9
	c0.3,0.2,0.6,0.7,0.7,0.7c2.4-0.8,5-1.4,7.2-2.5c0.9-0.5,1.9-2.6,1.6-3.4C813.5,1564.5,811.7,1561.7,810.1,1558.9z M478.1,211
	c-1.8,4.1-4.3,7.6-4.3,11.1c0,1.8,5.4,5.4,7,4.8c3.1-1.2,5.4-4.9,8.2-7.8C485.1,216.3,482.1,214,478.1,211z M944.7,200.1
	c3.6,2.7,6.3,5.8,9.7,6.9c1.6,0.5,6.5-3.1,6.3-4.4c-0.4-3.7-2.7-7.3-4.4-11.4C952.1,194.4,948.9,196.8,944.7,200.1z M1540.7,955.5
	c-2.5-3.3-5.1-6.6-7.6-9.9c-8.5,5.8-9.2,7.8-5.2,13.1C1530.5,962.1,1534.3,961.3,1540.7,955.5z M138.2,895.3
	c-8.8-10.2-8.9-10.2-14.9-1.2c-0.7,1.1-0.5,4.3-0.1,4.4c2.7,0.8,4.2,5.7,8,2.5C133.4,899.2,135.7,897.3,138.2,895.3z M1594,837
	c10.8,11.5,8.2,10.1,15.4,1.2c0.7-0.9,0.6-4,0.3-4.1c-2.7-0.9-4.2-5.5-8-3C1599,832.9,1596.7,834.9,1594,837z M138.6,837.1
	c-2.7-2.1-4.9-4.9-7.7-5.7c-2.2-0.6-5.2,1.2-7.6,2.4c-0.7,0.4-1.1,2.7-0.7,3.6c4.5,9.1,6.6,9.4,13.5,2.2
	C136.5,839.3,136.8,838.9,138.6,837.1z M1594.1,895.6c2.5,1.9,5,3.9,7.5,5.7c3.6,2.6,5.1-1.7,7.6-2.6c0.6-0.2,1.2-2.7,0.7-3.6
	c-4.3-9.1-6.8-9.5-13.5-2.4C1596,893.2,1595.6,893.7,1594.1,895.6z M1581.6,1071.4c7.8,10.2,7.3,10,15.1,0
	C1589.8,1061.9,1588.4,1061.9,1581.6,1071.4z M135.7,661c7.5,9.6,9.1,9.6,15.3-0.2C144.1,651.3,142.8,651.3,135.7,661z
	 M838.5,1595.4c-0.5-0.4-1.1-0.7-1.6-1.1c-1.9,2.4-4.9,4.7-5.5,7.4c-0.5,2.4,1.4,5.5,2.8,8c0.3,0.5,3.1,0.4,4.1-0.4
	c9.4-7.5,9.4-4.7,1-13.4C839.1,1595.7,838.8,1595.5,838.5,1595.4z M461.6,281.3c-0.8,2.9-1.9,5.5-2.2,8.2c-0.2,1.1,1.3,3.5,1.7,3.4
	c3.8-0.6,8.3,4.6,11.2,0c2.8-4.2-0.1-8.9-5.2-10.3C465.4,282.2,463.7,281.8,461.6,281.3z M902.4,129.6c-6.9-8.5-7.5-8.9-10.6-6.2
	c-6.6,5.7-6.6,6.5,0.2,14C895.4,134.9,898.7,132.4,902.4,129.6z M837.2,138.1c10.2-8.8,10.2-8.9,1.2-14.9c-1.1-0.7-4.3-0.5-4.4-0.1
	c-0.8,2.7-5.7,4.2-2.5,8C833.3,133.4,835.2,135.7,837.2,138.1z M894.7,1595.1c-9.6,7.4-9.7,7.7-0.7,13.9c1.1,0.8,4.3,0.8,4.4,0.4
	c0.9-2.7,5.7-4.3,2.8-8C899.3,1599.1,896.8,1597.2,894.7,1595.1z M1537.4,776.6c-2.3-2.8-4.5-5.6-7.2-8.9c-3.1,4.1-5.6,7.5-8.2,10.9
	C1530.6,786,1529.9,785.6,1537.4,776.6z M1527.4,516.4c-5,1.9-9.7-5.5-12.1,1.5c-2.8,8.2-3.4,8.1,6.4,12.9
	C1523.5,526.5,1525.1,522.3,1527.4,516.4z M281.3,461.8c0.5,1.8,0.9,3.2,1.3,4.6c1.6,6,4,7.5,9.9,6c0.9-0.2,2.2-1.6,2.2-2.5
	c0.8-10.1-2.2-12.3-11.6-8.9C282.6,461.2,282.2,461.4,281.3,461.8z M371,331.5c0-3.7,0-7.2,0-10.9c-3.5-0.8-6.8-1.5-10-2.3
	C357.1,330.1,359.4,333.2,371,331.5z M1361.5,332.8c4.1-0.9,9.2-0.6,10.4-2.6c1.6-2.8,0.2-7.3,0.1-11c-3.5,0.4-6.9,0.7-10.4,1.1
	C1361.5,324.4,1361.5,327.9,1361.5,332.8z M1412.5,370.9c0.2-3.6,0.4-7.1,0.6-10.6c-3.8,0-8.3-1.2-11.1,0.4
	c-1.9,1.2-1.5,6.3-2.1,10.1C1404.5,370.9,1407.9,370.9,1412.5,370.9z M332.1,370.9c0-2.1-0.2-3.9,0-5.7c0.6-4.2-1.3-5.5-5.4-5.5
	c-9.1,0.2-9.5-0.4-6.6,8.6c0.2,0.8,0.4,1.6,0.6,2.5C324.4,370.9,328,370.9,332.1,370.9z M1361.6,1412.4c3.6,0.2,7,0.5,10.5,0.7
	c0-3.8,1.3-8.3-0.4-11.1c-1.2-1.9-6.3-1.5-10.2-2.2C1361.6,1404.5,1361.6,1408.1,1361.6,1412.4z M318,1372.9
	c5.1-0.5,9.7,0.1,13.1-1.7c1.6-0.8,0.8-6.2,1-9.8c-4.4,0-7.8,0-11.6,0C319.8,1364.9,319.1,1368.2,318,1372.9z M1399.7,1361.5
	c0.8,4.1,0.5,9.1,2.4,10.1c2.9,1.6,7.3,0.4,11.1,0.4c-0.2-3.5-0.5-6.9-0.7-10.5C1408.2,1361.5,1404.6,1361.5,1399.7,1361.5z
	 M1575.3,807.1c-3.3-2.7-6.1-5-8.8-7.2c-2.5,3.2-5,6.3-7.4,9.5c2.5,1.9,5.5,5.8,7.3,5.3C1569.6,813.7,1572,810.1,1575.3,807.1z
	 M652.4,1569.6c-2.9,1.9-5.5,3.6-8.6,5.7c1.7,3.8,3.4,7.4,5.3,11.4c4-3,7.1-5.4,10.2-7.7C656.9,1575.8,654.9,1573,652.4,1569.6z
	 M1129.8,252.6c-3.5-11.2-6.2-12.5-15-7.3C1117.1,255.5,1121.2,257.5,1129.8,252.6z M239.3,604.9c1.5,3.2,2.6,5.6,3.8,7.9
	c1.5,2.8,6.3,3.4,10.4,1c3.3-1.9,0.8-4.2-0.3-5.8c-1.4-2.2-1-6.6-5.5-5.6C245,603,242.4,603.9,239.3,604.9z M604.9,1493.3
	c3.3-1.6,5.7-2.6,8-3.9c2.8-1.5,3.4-6.4,1-10.5c-1.9-3.2-4.2-0.7-5.8,0.3c-2.1,1.3-6.2,0.9-5.6,5
	C602.9,1487.1,603.9,1489.9,604.9,1493.3z M1413.4,346.1c-0.8-3.2-0.9-5.7-2-7.6c-0.8-1.4-3-3.1-4.1-2.9c-2.6,0.6-5.2,2.2-7.4,3.8
	c-0.9,0.6-1.6,2.7-1.3,3.6c0.8,1.9,2.4,4.9,3.7,5C1406,348.1,1409.7,346.8,1413.4,346.1z M464.4,1475.8c12-1.3,11.8-1.9,10.5-10.3
	c-0.9-6.2-6.8-1.5-10.5-3.1C464.4,1467.4,464.4,1471.4,464.4,1475.8z M744.5,1561.4c-5.1-9.2-8.1-9.6-14.1-2.3
	c-0.2,0.3-0.8,0.5-0.7,0.6c1,2.6,1.9,5.3,3.3,7.6c0.3,0.5,3,0.3,4.1-0.4C739.7,1565.4,742.1,1563.3,744.5,1561.4z M616.7,1515.5
	c2.6-0.5,4.9-0.7,7-1.6c1.1-0.5,2.6-2.5,2.3-3.3c-1.2-3.9-3-7.5-4.6-11.4C612.5,1504.9,611.9,1506.9,616.7,1515.5z M182.2,784.6
	c-2.4,3.3-5.9,6.1-6.3,9.3c-0.2,2,4.6,6.5,6.6,6.2c3.1-0.5,5.8-4.1,9.1-6.8C188.3,790.2,185.7,787.8,182.2,784.6z M1541.5,792.7
	c8.9,10.6,7.9,10.1,16.1,0.1c-2.6-2.6-5.2-5.1-8-7.9C1546.7,787.7,1544.2,790,1541.5,792.7z M1028.5,138c-0.9,4.5-10,4.8-4.5,11.1
	c5.6,6.5,6.7,6.2,13.3-0.6c-2.1-2.9-4.2-5.8-6.4-8.7C1030.5,139.4,1029.9,139.1,1028.5,138z M1586.1,1046.5c1.5,3.8,2.7,7,3.9,10.1
	c10.1-0.6,12.9-4.4,8.9-13.1C1594.8,1044.5,1590.7,1045.5,1586.1,1046.5z M1080.2,171.6c3.9-2.3,8.6-3.5,10.3-6.5
	c1.3-2.2-1.4-6.6-2.4-10.2C1077.4,160.2,1077.4,160.2,1080.2,171.6z M1562.1,1079.9c1.5,10.9,5.6,13,15,7.8
	C1573.3,1076.8,1573.3,1076.8,1562.1,1079.9z M155.4,644.8c4,10.9,4,10.9,14.8,7.8C169.9,642.1,164.7,639.3,155.4,644.8z
	 M133.4,688.8c2-0.4,4.1-0.7,6.2-1.2c2.2-0.5,4.4-1.1,6.8-1.7c-1.4-3.6-2.6-6.7-3.8-9.9C132.6,676,129.8,679.7,133.4,688.8z
	 M912.2,138.3c-0.7-0.1-1.5-0.2-2.2-0.3c-2.9,3-6.2,5.9-8.3,9.4c-0.3,0.6,4.3,6,6.2,5.8c2.8-0.3,6.5-3.4,7.4-6.1
	C916,144.8,913.4,141.3,912.2,138.3z M832.6,146.4c-4.1-3.1-7.4-5.6-10.7-8.1c-8.1,8.4-6.6,8.2,2.5,15.7
	C826.9,151.7,829.5,149.3,832.6,146.4z M900.1,1586.3c4,3,7.3,5.4,10.4,7.7c7.3-6.3,6.9-9-2.9-16
	C905.5,1580.5,903.1,1583.1,900.1,1586.3z M467.4,1499.1c4.9-1.2,9-2.2,13.1-3.1c-2.1-12.1-2.2-12.1-13.1-7.8
	C467.4,1491.6,467.4,1495.1,467.4,1499.1z M688.8,133.4c-3-1.3-5.5-2.6-8.1-3.4c-0.9-0.3-3,0.8-3.2,1.6c-1,3.6-1.4,7.4-2.2,11.5
	c3.8,0,7.1,0,10.8,0C687,139.8,687.9,136.6,688.8,133.4z M1349.5,1400.6c-3.6-0.8-6.8-1.6-10.1-2.4c-1.4,15.5-1.6,14.7,10.1,13.1
	C1349.5,1407.9,1349.5,1404.5,1349.5,1400.6z M1349.5,320.4c-3,0-5.3-0.3-7.5,0.1c-1.2,0.2-2.9,1.6-3,2.7c-0.4,3.5-0.1,7.1-0.1,11.3
	c4.2-1.1,7.5-1.9,10.7-2.7C1349.5,327.9,1349.5,324.5,1349.5,320.4z M1045.9,1587.9c-0.5,5.2-1.9,9.2-0.7,12.2
	c0.7,1.7,6.8,3.5,8.1,2.4c2.3-1.9,2.9-6,4.5-9.8C1053.8,1591.1,1050.6,1589.8,1045.9,1587.9z M1578.1,907.7c7,9.8,9.6,10.3,16,2.9
	c-2.4-3.2-5-6.5-7.9-10.4C1583.1,903,1580.5,905.4,1578.1,907.7z M784.7,1546.9c3.1,3.9,5.7,7.3,8.4,10.8c9.8-8,9.8-8.6-0.3-16
	C790.3,1543.2,787.9,1544.8,784.7,1546.9z M1578.6,703c7,9.6,7.5,9.6,13.9,0.2c0.6-0.8,1-1.7,1.5-2.5
	C1587.4,693.5,1585.7,693.7,1578.6,703z M153.8,703.1c-8-10.3-7.6-9.4-15.1-2.2c8.3,12.3,6.7,12.2,15.1,2.7
	C153.9,703.4,153.8,703.2,153.8,703.1z M154,1029.3c-7.2-9.5-7.5-9.5-14,0c-0.5,0.8-1,1.7-1.5,2.4
	C145.3,1039,147.2,1038.7,154,1029.3z M1594,1031.9c-6.9-11.9-8.3-12.2-15.2-3c-0.1,0.1,0,0.3,0,0.5
	C1584.7,1038.5,1586.8,1038.9,1594,1031.9z M1031.7,1593.9c7.3-6.4,6.8-9.6-2.4-15.2c-9.3,6.6-9.3,7.3-0.1,13.7
	C1030,1592.9,1030.9,1593.4,1031.7,1593.9z M703.3,154.2c2.2-2,4.4-3.8,6.1-5.9c0.6-0.7,0.4-3-0.3-3.6c-2.7-2.3-5.7-4.3-8.5-6.3
	C693.6,146,693.7,146.8,703.3,154.2z M304.2,1274c4.4,0.9,8.5,1.8,12.9,2.7c0.2-1.7,0.4-2.8,0.4-4c0.1-2.3,0-4.6,0-6.7
	C306.3,1262.3,306.3,1262.3,304.2,1274z M792.9,175c-2.6,2.6-5.2,5.1-7.3,7.2c2.7,3.3,5,6,7.2,8.8
	C802.9,182.2,803.2,183.4,792.9,175z M939.8,174.5c-10,8.2-9.9,9.7-0.4,15.8c2.8-2.4,5.5-4.8,8.2-7.2
	C944.8,180,942.4,177.4,939.8,174.5z M939.5,1541.2c-9.5,9-9.4,10.6,0.2,16c2.6-2.4,5.2-4.9,7.7-7.3
	C944.6,1546.8,942.2,1544.2,939.5,1541.2z M1290.9,326.2c0,3-0.2,5.1,0.1,7.2c0.2,1.3,0.9,3.6,1.6,3.6c3.7,0.2,7.4-0.1,11.2-0.2
	c-0.3-2.7-0.3-5.4-1-8c-0.3-1.1-2-2.4-3.3-2.5C1296.9,326,1294.2,326.2,1290.9,326.2z M216.6,514.8c-2.9,1.4-5.1,2.6-7.3,3.5
	c-3.3,1.3-3.9,3.2-1.9,6.1c0.9,1.4,1.3,3,2.2,4.4c0.6,0.8,1.7,1.7,2.5,1.7c3.2-0.1,6.8-4.9,6.3-8.2
	C217.9,520,217.3,517.8,216.6,514.8z M1217.5,216.6c-5-12.1-5-12.1-13.6-7.2c-0.9,0.5-1.9,1.6-2,2.4c-0.2,2.6,4.9,7,7.6,6.6
	C1212.1,218,1214.6,217.2,1217.5,216.6z M515.2,1515.8c5.2,13.2,5,12.1,11.6,7.9c1.4-0.9,3.6-3.2,3.4-3.6c-1.7-2.5-1.9-6.9-6.4-6.3
	C521,1514.3,518.2,1515.2,515.2,1515.8z M643.7,1547.5c-11.5,3.9-12.5,7.1-4.7,15.4C647.6,1558.8,647.8,1558.3,643.7,1547.5z
	 M1580.4,660.9c3.9,1.9,6.9,4.6,9.6,4.3c2.5-0.3,5.4-3.4,6.7-6c0.5-0.9-2.8-5.1-5-5.7C1586.3,651.8,1585.1,657.6,1580.4,660.9z
	 M152.1,1071.5c-3.9-1.9-6.9-4.6-9.6-4.3c-2.5,0.3-5.4,3.4-6.7,6c-0.5,0.9,2.8,5.1,5,5.8C146.2,1080.6,147.4,1074.9,152.1,1071.5z
	 M1304.7,1395.6c-14.5-1.8-14.9-1.4-12.9,10.3c3.4,0,6.8,0,10.5,0C1303.1,1402.6,1303.8,1399.3,1304.7,1395.6z M441.3,326.5
	c-1.9-0.1-3.5-0.2-5.1-0.2c-5.5,0-8.4,3.2-7.8,8.8c0.1,0.9,1,2.1,1.8,2.4c8.1,2.7,11.8-0.1,11.5-8.3
	C441.6,328.4,441.4,327.8,441.3,326.5z M1406.2,1291.6c-10.5-2.2-11.8-1.3-11.2,8.3c0.1,1.5,2,4.2,2.4,4.1c3-0.9,6.8-1.7,8.5-4
	C1407.3,1298.2,1406.2,1294.4,1406.2,1291.6z M1394.6,427.6c0.5,5.1,0,9.7,1.8,13.1c0.8,1.6,6.2,0.7,9.7,0.9c0-4.3,0-7.7,0-11.5
	C1402.5,429.4,1399.2,428.7,1394.6,427.6z M337.9,1304.9c-0.5-5.1,0.1-9.7-1.7-13.1c-0.8-1.6-6.2-0.7-9.7-1c0,4.3,0,7.7,0,11.5
	C330,1303.1,333.3,1303.8,337.9,1304.9z M1516,1217.7c2.7-1.4,4.4-2.6,6.4-3.2c4.6-1.4,4.6-3.9,2.2-7.4c-0.7-1.1-1-2.5-1.8-3.5
	c-0.6-0.8-1.8-1.6-2.6-1.6c-3.4,0.3-6.8,4.9-6.2,8.3C1514.6,1212.6,1515.3,1214.8,1516,1217.7z M326.6,441
	c11.1,2,13.3-0.8,10.2-12.3C327,427.7,325.4,429.6,326.6,441z M1408.9,1313.6c-2.4,0.5-4.1,0.9-5.9,1.4c-4.9,1.3-7.3,5.9-5.2,10.4
	c0.3,0.7,1.4,1.4,2.2,1.4c6,0.6,9.2-2.5,9.1-8.6C1409.2,1316.8,1409,1315.5,1408.9,1313.6z M334.6,1316.5c-3.5-1-7-1.9-10.9-3
	c0,4.1,0,7.7,0,11.1C335.5,1327.6,335.5,1327.6,334.6,1316.5z M257.9,1268.5c4.9,0.7,9,2.5,11.9,1.3c1.7-0.7,3-6.6,1.9-8.9
	c-1-2-6.8-3.9-8.4-2.8C260.8,1259.8,260,1264.1,257.9,1268.5z M405.4,334.1c11.2,1.6,11.2,2.3,13-10.4c-3.6,0-7.1,0-10.7,0
	C406.9,327.3,406.2,330.5,405.4,334.1z M1473.5,463.9c-3.7-0.7-8.4-3-10.3-1.5c-2.3,1.7-2.3,6.5-3.3,10
	C1471.1,475.1,1471.1,475.1,1473.5,463.9z M1327.1,334.4c-0.8-3.8-1.6-7.2-2.3-10.6c-3.9,0-7.4,0-11,0
	C1315.9,335.6,1316,335.6,1327.1,334.4z M1268.3,1473.3c1-3.6,2-6.8,3.1-10.8c-4.1-0.9-7.8-1.8-11.4-2.6
	C1257.5,1471.1,1257.5,1471.1,1268.3,1473.3z M1313.5,1409.1c3,0,5.4,0.2,7.6-0.1c1.3-0.1,3.5-0.6,3.7-1.4c0.9-2.9,1.2-6.1,1.6-9.1
	c0-0.2-0.7-0.6-1.1-0.8c-4.6-1.9-9.1,0.3-10.4,5.3C1314.5,1404.7,1314.1,1406.5,1313.5,1409.1z M419.2,1409.1
	c-0.9-3.4-1.4-6.2-2.5-8.7c-0.6-1.3-2.4-2.7-3.7-2.8c-7.8-0.7-7.9-0.5-6,7.3c0.3,1.2,0.6,2.5,0.9,3.8c1.4,0.1,2.6,0.3,3.7,0.3
	C413.7,1409.2,415.9,1409.1,419.2,1409.1z M323.6,419.1c3.1-0.9,5.9-1.3,8.4-2.5c1.3-0.6,2.7-2.4,2.8-3.7c0.7-7.8,0.5-7.9-7.3-5.9
	c-1.2,0.3-2.5,0.6-3.9,0.9C323.6,411.6,323.6,415,323.6,419.1z M1409.2,419c0-3,0.2-5.3-0.1-7.6c-0.1-1.3-0.6-3.5-1.4-3.7
	c-2.9-0.9-6.1-1.2-9.1-1.6c-0.2,0-0.7,0.7-0.8,1.1c-2,4.6,0.3,9.1,5.3,10.4C1404.7,418,1406.5,418.3,1409.2,419z M453.3,326.8
	c-2.2,10.5,0.6,13.6,10.5,12.4C464.5,328.1,466.2,329.1,453.3,326.8z M281.4,1270.9c3.1,0.9,5.9,1.9,8.8,2.5
	c0.8,0.2,2.6-0.5,2.7-1.1c0.9-3.1,1.4-6.3,2.1-9.4C284,1260,284,1260,281.4,1270.9z M329.4,1265.6c-1.1,3.9-2.1,7.4-3.1,10.8
	c12.1,3.6,11.3,6.1,13.4-7.9C336.5,1267.6,333.3,1266.7,329.4,1265.6z M1279.1,1405.5c1.9-11,1.5-11.4-10.3-12.3
	C1267.2,1403.3,1268.9,1405.3,1279.1,1405.5z M1406.4,456c-12.5-3.7-13.5-3-13.3,8.1c3.1,0.8,6.3,1.7,10,2.7
	C1404.2,463.1,1405.2,459.7,1406.4,456z M1450.9,461.5c-2.8-0.8-5.6-1.8-8.5-2.4c-0.9-0.2-2.6,0.4-2.8,1c-0.9,3.1-1.4,6.3-2.1,9.4
	C1449.1,472.7,1449.1,472.7,1450.9,461.5z M1271,1451.1c0.9-3,1.8-5.6,2.3-8.4c0.2-1-0.4-2.9-1.1-3.1c-3.1-0.9-6.3-1.4-9.4-2
	C1260.2,1448.6,1260.2,1448.6,1271,1451.1z M232.7,557.1c-3.6,1.9-6.8,3.7-10.1,5.5c1.1,2.4,1.8,4.3,2.7,6c0.7,1.5,1.7,2.8,2.5,4.2
	C236.8,569.6,237.6,567.2,232.7,557.1z M202.5,638.2c2.1-1.3,3.8-2,5.1-3.3c1.2-1.1,2.8-2.7,2.7-4.1c-0.3-9-1.9-9.8-9.8-5.5
	c-1.1,0.6-2.1,1.3-3.5,2.1C198.9,631.1,200.6,634.4,202.5,638.2z M1490.9,579.6c-4,12.9-3.8,10.6,5.3,16.3c1.8-3.5,3.5-6.9,5.5-10.8
	C1497.9,583.1,1494.6,581.5,1490.9,579.6z M241.7,579.6c-3.7,1.8-7.1,3.6-11,5.5c2.1,4,3.8,7.4,5.6,10.8
	C245.8,589.9,245.3,592.3,241.7,579.6z M862.9,1615.5c-7.9-5.2-11.4-4.7-14.7,2.1c-1.3,2.7-0.6,3.9,2.1,4.7c2.5,0.7,5,1.5,7.9,2.5
	C859.7,1621.8,861.3,1618.6,862.9,1615.5z M579.7,1491c1.8,3.5,3.5,6.9,5.4,10.8c4-2.1,7.4-3.9,10.8-5.7
	C590.5,1487.4,590.5,1487.4,579.7,1491z M1094.2,202.5c1.4,2.3,2.2,4.3,3.6,5.6c1.2,1.1,3.4,2.2,4.9,2c8.7-1.5,8.6-1.7,4.4-9.6
	c-0.5-1-1-2-1.8-3.4C1101.5,198.8,1098.1,200.5,1094.2,202.5z M562.6,1510.2c4-2,7.2-3.7,10.3-5.3c-3.5-9.3-7.3-10.4-15.6-4.8
	C559,1503.3,560.7,1506.5,562.6,1510.2z M218.9,1182c-1.7,3.6-3.2,7-4.8,10.6c3.9,1.8,7.1,3.4,10.3,4.9
	C229,1187.8,228.2,1185.4,218.9,1182z M1136.6,236.3c5.7,9.5,5.7,9.5,16.1,4.9c-1.7-3.3-3.4-6.6-5.3-10.4
	C1143.5,232.7,1140.1,234.5,1136.6,236.3z M540.2,214c-1.3,2.3-2.3,3.8-3,5.4c-0.8,1.7-1.4,3.5-2,5.3c10.9,4,13.1,3.1,15.1-5.9
	C547,217.3,543.7,215.7,540.2,214z M1505,1159.4c-9.3,3.8-10.1,6.6-5,15.8c3.3-1.7,6.6-3.5,10.2-5.4
	C1508.3,1166.1,1506.7,1162.9,1505,1159.4z M1496.2,1136.6c-9.4,5.5-9.4,5.5-5,16.1c3.3-1.7,6.7-3.4,10.5-5.3
	C1499.8,1143.5,1498,1140.1,1496.2,1136.6z M241.5,1152.8c3.9-11.4,3.9-11.4-5.4-16c-1.7,3.5-3.4,6.9-5.3,10.7
	C234.7,1149.4,238.1,1151.1,241.5,1152.8z M1192.8,1518.2c1.7-3.4,3.3-6.8,4.9-10.1c-10.3-4.6-12.4-3.8-15.4,5.3
	c2.1,1.2,4.2,2.4,6.4,3.5C1189.8,1517.4,1191.1,1517.7,1192.8,1518.2z M1159.6,227.5c3.2,9.3,6.9,10.4,15.6,4.9
	c-1.8-3.3-3.5-6.5-5.4-10.1C1166,224.2,1162.8,225.9,1159.6,227.5z M1518.6,539.9c-4-1.9-7.3-3.5-10.7-5.1
	c-4.2,11.1-3.3,13.3,5.8,15.4C1515.2,547,1516.8,543.7,1518.6,539.9z M1535.6,1105.1c-2-3.9-3.8-7.3-5.7-10.9c-2,1.3-3.9,1.9-5,3.2
	c-1.2,1.4-2.7,3.5-2.5,5.1c1.4,8.8,1.6,8.7,9.6,4.5C1533,1106.5,1534,1106,1535.6,1105.1z M317.2,466.7c-0.4-11.2-2.8-12.6-12.9-7.5
	C306.3,469.9,306.3,469.9,317.2,466.7z M1415.4,466.8c12.9,3.9,10.6,3.2,12.8-7.8C1417.8,454.9,1416.6,453.6,1415.4,466.8z
	 M621.6,233.4c1.8-3.8,3.5-7.4,5.2-11.1c-11.6-3.3-12.7-2.9-15.6,5.6c0.6,0.4,1.2,0.9,1.9,1.3C615.8,230.5,618.4,231.8,621.6,233.4z
	 M466.7,316.9c3.6-11.1,2.5-12.8-8.2-12.2C455.1,315.8,456.2,317.4,466.7,316.9z M244.3,466.6c-3.4,1.3-8.2,1.6-9.8,4.1
	c-1.3,2,1.2,6.5,2,9.8C247.8,478.2,247.8,478.2,244.3,466.6z M1273.6,1428.1c4.5-11,3.3-12.9-7.7-12.6
	C1262.1,1426.5,1262.1,1426.5,1273.6,1428.1z M1266.2,317.9c3.3-1.2,8.2-1.5,9.5-3.8c1.3-2.3-0.9-6.6-1.5-10.1
	C1262.5,306.5,1262.5,306.5,1266.2,317.9z M1252.1,236.9c1.9,11.3,1.9,11.3,12.8,7.5C1263.4,232.1,1263.5,232,1252.1,236.9z
	 M1111.1,1499.1c-1.7,3.2-3.3,5.9-4.5,8.8c-0.3,0.8,0.4,2.7,1.1,3.1c7,3.5,11.3,1.5,13.5-6.6
	C1118.1,1502.7,1114.9,1501,1111.1,1499.1z M1495.6,1252.2c-11.3,1.4-11.3,1.4-7.7,12.7C1498.8,1265.2,1500.6,1262.2,1495.6,1252.2z
	 M1413.6,1386.3c-4.6-0.8-8.5-1.5-12.4-2.2c-3.9,8.6-3.1,10,7.2,12.8C1410.1,1393.7,1411.6,1390.4,1413.6,1386.3z M331.1,1384
	c-4,0.8-8,1.6-12.3,2.5c2.1,4.1,3.7,7.3,5.3,10.5C335.2,1393.4,335.5,1392.8,331.1,1384z M1397,1408.3c-3.7-11.2-4.2-11.4-13-7
	c0.8,3.9,1.6,8,2.5,12.2C1390.6,1411.6,1393.8,1410,1397,1408.3z M318.9,346.1c4.2,0.8,7.7,2,11.2,1.9c1.4-0.1,2.9-3,3.8-4.9
	c0.4-0.9-0.4-3-1.2-3.6c-2.7-1.7-5.7-3-8.4-4.3C322.4,338.9,320.9,342.1,318.9,346.1z M346.2,318.8c-4.1,2-7.4,3.7-11,5.4
	c1.3,2.7,2.5,5.5,4,8c0.6,1,2.6,2.1,3.4,1.8c2.1-0.9,5.3-2.4,5.4-3.9C348.2,326.6,346.9,323,346.2,318.8z M1397.4,324.2
	c-3.8-1.8-7.2-3.4-11.1-5.3c-0.8,4.5-1.5,8.5-2.2,12.5c2.9,1,5.4,1.8,7.8,2.6c0.6-0.7,1.1-1.1,1.4-1.7
	C1394.7,329.7,1396,327.1,1397.4,324.2z M348.4,1401.2c-9.2-3.3-9.9-3-12.9,7.2c3.4,1.6,6.7,3.2,10.6,5.2
	C347,1409.1,347.7,1405.1,348.4,1401.2z M202.8,964.1c1.8-3.6,3.4-6.9,5.2-10.7c-3.6-1.4-5.6-7-9.8-3.2
	C192.9,955.1,193.9,957.7,202.8,964.1z M464.8,259.5c-2.2,10.1,0.1,12.9,9.8,12.3C476.9,261.9,476,260.8,464.8,259.5z M146.6,831.4
	c8.8-6.4,9.1-8.7,2.1-15C139.6,820.7,139.3,822.8,146.6,831.4z M972,1537.9c-1.7,2.2-3.4,4.5-5.1,6.7c-0.5,0.6-1,1.2-1.5,1.9
	c8.7,6.4,10.1,6.6,13.4,1.7C981.6,1544,981.6,1544,972,1537.9z M1192.4,214.1c-2.7,1.2-4.5,2.4-6.6,3c-5.6,1.5-4.4,4.9-2.5,8.3
	c2.5,4.5,5.9,0.8,8.7,0.2c1-0.2,2.2-2.8,2.2-4.3C1194.2,219.1,1193.2,216.9,1192.4,214.1z M539.8,1517.6c6.5-0.9,11.6-4,10.7-6.6
	c-1-2.8-1-6.9-6.3-5.6C537.5,1507.2,537.4,1507,539.8,1517.6z M1518.6,1192.6c-1.6-3.4-2.6-6.2-4.2-8.6c-0.7-1.1-3-2.1-3.9-1.7
	c-1.9,0.9-4.8,2.6-4.9,4.1c-0.4,6.8,2.1,8.6,8.6,7C1515.2,1193.2,1516.4,1193,1518.6,1192.6z M214.1,539.9c1.3,2.8,2.5,4.9,3.2,7.2
	c1.2,3.7,3.1,4.1,6.7,2.8c3.9-1.4,3.3-3.6,2.7-6.6c-0.9-4.6-2.8-6.9-7.7-4.4C217.9,539.4,216.4,539.4,214.1,539.9z M1088.5,1552.2
	c9.1,3.3,10.4,2.5,13.2-8.2c-3.2-0.9-6.5-1.8-10.1-2.8C1090.4,1545.1,1089.5,1548.5,1088.5,1552.2z M630.5,188.3c3.7,1,7,2,11.6,3.3
	c-1.9-4.9,5.7-9-1-12.3C635.4,176.4,635.2,176.9,630.5,188.3z M1128.2,1493.1c-0.6-4.3,4.9-8.3,0-11.3c-2-1.2-7.1-5.1-9.8,0.3
	C1115.7,1487.7,1116.7,1488.7,1128.2,1493.1z M767.7,185.2c-4.1-1.5-7.8-3.4-11.6-3.8c-1.2-0.1-4.3,4.7-3.8,6.1c1,2.6,4.2,4.5,6.8,7
	C762.2,191.2,764.6,188.6,767.7,185.2z M194.6,973.5c-3.3-3.1-6-5.6-8.7-8.2c-6.5,9.5-6.6,10.4-1.1,13.9
	C191.8,983.5,190.5,975.1,194.6,973.5z M191.7,1090.7c-4.8,1.8-8.9-6.1-12.4,0.7c-2.9,5.5-1.2,7.2,9,10.2
	C189.3,1098.6,190.2,1095.5,191.7,1090.7z M199.4,786.7c10.1-7.5,9.9-7.9,2.5-15.6c-2.6,1.7-5.2,3.5-7.8,5.3
	C196,780.1,197.6,783.2,199.4,786.7z M239.6,1127c8.3,4.8,10.3,4.3,12.1-2.6c0.7-2.5,2.2-4.9-1.9-6.2c-3.8-1.2-6.3-1.1-7.6,3.2
	C241.6,1123.3,240.5,1125.1,239.6,1127z M1538.3,758.8c1.9,2.1,3,3.5,4.3,4.8c1.3,1.3,2.6,2.4,4,3.6c6.6-9.3,6.6-10.2,1.2-13.8
	C1540.8,748.9,1542,757.3,1538.3,758.8z M605.5,239.6c-4.7,8.3-4.3,10.3,2.6,12.1c2.5,0.7,4.9,2.2,6.2-1.9c1.2-3.7,1.1-6.3-3.2-7.6
	C609.2,241.6,607.4,240.5,605.5,239.6z M1541.1,641c4.2,1.1,7.6,2,11,3c4-9,4-9-7.8-13.3C1543.3,633.9,1542.3,637.1,1541.1,641z
	 M1492.8,605c-8.1-3.4-11.1-3.5-11-0.9c0.1,3.3-5,7.3,0.5,9.9C1487.8,616.7,1489.1,615.4,1492.8,605z M163.2,818.1
	c1.6-1.5,2.8-2.6,4-3.7c4.5-4.6,4.6-5.1,0.3-10c-0.8-0.9-3.4-1.4-4.2-0.8c-2,1.4-6.2,1.8-4.7,5.7C159.7,812.3,161.6,815,163.2,818.1
	z M442.4,1406c-0.9-4-0.8-7.9-2.7-10.5c-0.9-1.3-6.9-1.2-7.7,0.1c-1.7,2.7-1.5,6.6-2.1,10.4C434.3,1406,437.6,1406,442.4,1406z
	 M1569.3,914.3c-1.7,1.6-2.7,2.7-3.9,3.6c-4.2,3.2-4.5,6.6-0.6,10.1c1,0.9,3.4,1.6,4.2,1.1c2-1.5,4.9-3.9,4.8-5.6
	C1573.4,920.4,1571,917.6,1569.3,914.3z M1583.8,812.2c-2.4,4.8-4,8-6,11.9c2.8,1.6,5.5,4.3,8.1,4.3c1.7,0,5.1-4.4,4.7-6
	C1589.8,819,1586.8,816.3,1583.8,812.2z M965.2,184.9c3,3.6,5.3,6.3,8,9.6c2.7-2.4,4.9-4.4,7.1-6.4c-2.2-2.4-4.1-6.1-6.7-6.7
	C971.2,180.8,968,183.6,965.2,184.9z M1538,973.2c2.4,2.7,4.4,4.9,6.4,7.2c2.4-2.2,6.2-4.1,6.7-6.7c0.5-2.5-2.4-5.7-3.6-8.5
	C1544,968.1,1541.3,970.5,1538,973.2z M185.3,766.6c3.1-2.5,6.1-4.8,9-7c-0.1-0.4-0.2-0.9-0.3-1.3c-3.7-0.2-2.1-8.8-7.9-4.9
	C179.2,758.1,179.5,760,185.3,766.6z M148.7,918.6c7.4-10.5,6.9-10.8-2.3-14.8C139.7,910.1,140,912.3,148.7,918.6z M917.5,1569.1
	c7.2,7.1,11.1,6.4,14.8-2.7C922.4,1559.9,922.2,1559.9,917.5,1569.1z M815.2,163.2c-7.7-6.4-12.8-5.2-14.9,3.3
	C810.7,172,809.4,173.3,815.2,163.2z M917.6,162.8c3.6,9.5,5.2,9.8,14.8,3.2C928.6,157.7,925.7,157,917.6,162.8z M1549.5,947.1
	c9.4-6.7,9.6-7.7,2.8-15.7c-2,1.2-4.2,2.4-6,3.9c-0.8,0.6-1.5,2.3-1.2,3.1C1546.3,941.4,1548,944.2,1549.5,947.1z M166.2,932.6
	c6.3-10.9,6.3-10.9-3-15C156.5,925.1,156.9,927.6,166.2,932.6z M1139.3,1496.2c3,1.5,5.7,3.1,8.6,4.2c0.8,0.3,2.9-0.6,3.2-1.4
	c0.9-2.6,1.2-5.3,1.8-7.9C1145,1487.5,1145,1487.5,1139.3,1496.2z M579.9,241.6c8.6,3.6,8.7,3.6,12.8-5.1c-0.2-0.2-0.4-0.5-0.7-0.7
	C582.8,229.6,581.3,230.3,579.9,241.6z M188.4,939.4c-1.5-1.6-2.7-3-4-4.2c-1.4-1.3-2.9-2.5-4.3-3.7c-6.3,8-7.7,7.1,2.8,15.4
	c0.3-0.2,0.6-0.3,0.8-0.5C185.1,944.3,186.6,942.1,188.4,939.4z M1214.4,1527.1c3.9-10,3.8-11.3-0.6-12.6c-4-1.2-8.3,0.7-8.5,5.4
	C1205.1,1525.2,1211.3,1524,1214.4,1527.1z M517.5,206.4c-3.2,10.1-3.1,10.5,2,11.8c3.4,0.8,7.2-1.9,8.1-5.8
	C528.1,210.1,523.1,207.1,517.5,206.4z M232.7,1175.3c3.9-7.9,4.1-10.5,1.2-11.8c-5.8-2.6-7.6-1.5-10.9,6.7c0.3,0.2,0.7,0.5,1.1,0.7
	C226.9,1172.3,229.7,1173.7,232.7,1175.3z M205.5,1214.7c10.7,3.6,11.3,3.5,12.6-1.1c1.1-3.7-1.5-8.5-5.6-8.4
	C207.1,1205.4,208.3,1211.3,205.5,1214.7z M623.9,196.6c0.7,4.9-4.6,9,0.2,12.3c5.1,3.5,8,1.4,10.8-6.7
	C631.7,200.6,628.6,199,623.9,196.6z M1509.6,562.3c-3.3-1.7-6.5-3.4-9.8-5.1c-3.8,7.8-4.1,10.5-1.2,11.8
	C1504.4,571.6,1506.1,570.6,1509.6,562.3z M233.3,621.5c-1.5-2.4-2.3-4.7-3.9-5.8c-1.6-1.1-4.1-1.3-6.1-1c-1.2,0.1-3.3,1.9-3.2,2.8
	c0.3,2.9,1.4,5.6,2.2,8.5c2.2-0.7,4.5-1.4,6.7-2.3C230.3,623.1,231.5,622.3,233.3,621.5z M1530.2,635.1c1.7-3.4,3.4-6.8,5.7-11.5
	c-5,1.2-9.1-4.5-12.3,0.6C1520.3,629.4,1521.7,631.1,1530.2,635.1z M1175.8,1498.9c-4.2-0.6-7.9-1.7-11.4-1.4
	c-0.9,0.1-2.8,5.1-2,6.5c1.5,2.5,4.7,4.1,7.5,6.4C1172,1506.2,1173.6,1503,1175.8,1498.9z M1499.4,1110.8c4.9,8.3,6.1,9.2,10.7,6.8
	c6.1-3.2-0.6-7.3,1.1-11c-0.4-0.3-0.8-0.6-1.2-0.9C1506.5,1107.4,1502.9,1109.1,1499.4,1110.8z M197.2,1107.5
	c7.3,3.5,10.7,3.7,11.9,0.9c2.5-5.6,1.7-7-6.7-11C200.7,1100.6,199,1103.9,197.2,1107.5z M1111.1,233.2c2.4-1.5,4.7-2.3,5.8-3.9
	c1.1-1.6,1.2-4.1,0.9-6.1c-0.2-1.2-2-3.2-2.9-3.1c-2.8,0.3-5.6,1.4-8.4,2.2c0.8,2.2,1.5,4.5,2.3,6.7
	C1109.4,230.3,1110.2,231.6,1111.1,233.2z M1108.8,1536c-0.9-5,4.5-9.1-0.4-12.4c-5-3.4-6.8-2-11,6.5
	C1100.6,1531.8,1103.9,1533.5,1108.8,1536z M557.2,232.7c8,3.9,10.6,4.1,11.8,1.2c2.6-5.8,1.5-7.6-6.7-11
	C560.7,226,559,229.2,557.2,232.7z"/>
</svg>
