<?xml version="1.0" encoding="utf-8"?>
<!-- Generator: Adobe Illustrator 19.2.1, SVG Export Plug-In . SVG Version: 6.00 Build 0)  -->
<svg version="1.1" id="Layer_1" xmlns="http://www.w3.org/2000/svg" xmlns:xlink="http://www.w3.org/1999/xlink" x="0px" y="0px"
	 viewBox="0 0 1728.3 1202.1" style="enable-background:new 0 0 1728.3 1202.1;" xml:space="preserve">
<g>
	<path d="M819.4,0c38.5,1.6,80.9,2.4,123.1,5.3c37.2,2.5,74.4,6.3,111.3,11.4c32.6,4.5,64.9,11.2,97.1,17.8
		c36.2,7.4,71.4,18.1,106.5,29.6c49.4,16.2,97.5,35.9,144.4,58.1c38.9,18.4,76.6,38.9,111,65.1c45.5,34.8,83.8,76.3,115.4,124
		c21.1,31.9,38.7,65.7,53.3,101c13.9,33.6,25.5,68.1,34,103.5c11,45.8,14.4,92.3,12.2,139.3c-2,42.4-10.2,83.5-24.9,123.2
		c-15.7,42.7-38.5,81.5-67.1,116.9c-35.2,43.6-77.1,79.7-123.1,111.4c-39.5,27.2-80.6,51.9-123.3,73.7
		c-38.6,19.7-78.2,37.3-119,51.6c-29.3,10.3-59.1,19.1-88.9,27.8c-18.2,5.3-36.6,9.8-55.1,13.6c-23.8,4.9-47.7,9.3-71.6,13.1
		c-19.4,3.1-38.9,5.7-58.4,7.7c-22.9,2.4-45.8,4.2-68.7,5.6c-42.8,2.6-85.6,2.7-128.4-0.1c-25.4-1.7-50.9-3.6-76.1-7.2
		c-33.6-4.7-67.2-9.9-100.3-16.9c-31.6-6.8-62.9-15.6-93.9-24.7c-49.3-14.3-97-33.4-143.5-55c-47.9-22.3-94.7-46.5-137.8-77.4
		c-51-36.6-95.2-79.9-131.7-131.2C91,852.7,70.6,815.5,54.1,776c-14.5-34.9-26.4-70.6-34-107.7c-5.3-25.9-10.6-51.9-14.2-78
		c-5.2-37.5-7.8-75.1-4.3-113.1c3.6-39.8,10.2-78.8,21.9-116.9c15.1-48.9,37.4-94.3,67-136.1c26.9-38,58.1-72,94.7-100.9
		c34.2-27,71.9-47.6,113.4-61c31.5-10.2,63.9-16.1,97-16.9c19.4-0.4,38.4-4,57.4-6.9c21.4-3.3,42.8-6.6,64.1-9.9
		c16.3-2.5,32.5-5.3,48.8-7.7c24.4-3.6,48.7-7.6,73.2-10.2c29.3-3.2,58.7-5.8,88.1-7.5C756.6,1.4,786.1,1.1,819.4,0z"/>
</g>
</svg>
