<?xml version="1.0" encoding="utf-8"?>
<!-- Generator: Adobe Illustrator 19.2.1, SVG Export Plug-In . SVG Version: 6.00 Build 0)  -->
<svg version="1.1" id="Layer_1" xmlns="http://www.w3.org/2000/svg" xmlns:xlink="http://www.w3.org/1999/xlink" x="0px" y="0px"
	 viewBox="0 0 1729.6 1475.3" style="enable-background:new 0 0 1729.6 1475.3;" xml:space="preserve">
<g>
	<path d="M571.1,0c37.4,0.4,82.5,2.2,127.4,7.2c28,3.1,56,6,83.8,9.7c23.2,3.1,46.4,7.2,69.4,11.3c29.5,5.3,58.9,10.7,88.2,16.9
		c32,6.8,64,14,95.7,22c41.7,10.5,83.3,21.6,124.7,33.2c28.6,8,57,16.8,85.1,26.4c34.1,11.7,68,23.9,101.5,37.1
		c41.4,16.2,81.7,34.9,121,55.9c38.2,20.5,75.1,43.1,109.6,69.5c39.3,30,74.5,64,102.3,105.1c20,29.6,34.8,61.6,42.9,96.4
		c8.1,34.9,8.8,70.2,3.8,105.7c-5.4,37.7-17,73.3-32.6,107.9c-28.1,62.2-66.8,117.6-110.3,169.8c-55.5,66.6-117.8,126.4-183.2,183.1
		c-61.7,53.5-126,103.8-191.8,152.1c-57.1,41.9-116,81.3-177,117.3c-46.7,27.6-94.4,53.5-144.3,74.9c-33.2,14.2-67,27.2-101.1,39.3
		c-30.4,10.8-61.8,18.3-93.5,24.4c-45.2,8.6-90.8,11.8-136.8,9c-24.3-1.5-48.2-5.4-71.9-11.1c-57.2-13.8-108.7-39.3-155.3-75
		c-36.6-28-68.3-61-96.5-97.3c-33.3-43.1-61.5-89.4-84.3-138.8c-14.5-31.3-28.2-63-40.8-95.1c-15.9-40.5-29.1-82-40.3-124
		c-6.8-25.7-14-51.3-20.1-77.2c-7.6-32.2-14.9-64.5-21.1-96.9c-5.8-30.2-10.8-60.6-14.9-91.1c-9.1-67.3-13-135-9.1-202.9
		c1.7-30.1,5.5-60,11.1-89.6c9.9-52.1,26.1-102,51.9-148.4C96.1,169.9,139.3,123.7,194,88.2c35.2-22.8,73-40,112.7-53
		c31.3-10.3,63.3-17.7,95.8-23.1C455.8,3.2,509.4-0.1,571.1,0z"/>
</g>
</svg>
