<?xml version="1.0" encoding="utf-8"?>
<!-- Generator: Adobe Illustrator 19.2.1, SVG Export Plug-In . SVG Version: 6.00 Build 0)  -->
<svg version="1.1" id="Layer_1" xmlns="http://www.w3.org/2000/svg" xmlns:xlink="http://www.w3.org/1999/xlink" x="0px" y="0px"
	 viewBox="0 0 1724.8 1724.7" style="enable-background:new 0 0 1724.8 1724.7;" xml:space="preserve">
<g>
	<path d="M286.3,1724.7C190.9,1629.2,95.6,1533.9,0,1438.3c153.7-160.7,237.6-352,237.6-575.8c0.1-223.9-83.6-415.2-237.2-576
		C95.8,191.2,191.2,95.8,286.8,0.2c160.3,153.4,351.6,237.2,575.5,237.2c223.9,0,415.2-83.7,576-237.4
		c95.4,95.4,190.8,190.8,286.4,286.4c-153.6,160.6-237.4,351.9-237.4,575.8c0,223.9,83.8,415.2,237.5,576
		c-95.4,95.4-190.7,190.7-286.4,286.3c-160.6-153.7-352.1-237.5-576.1-237.5C638.5,1487.1,447.2,1570.8,286.3,1724.7z"/>
</g>
</svg>
