<?xml version="1.0" encoding="utf-8"?>
<!-- Generator: Adobe Illustrator 19.2.1, SVG Export Plug-In . SVG Version: 6.00 Build 0)  -->
<svg version="1.1" id="Layer_1" xmlns="http://www.w3.org/2000/svg" xmlns:xlink="http://www.w3.org/1999/xlink" x="0px" y="0px"
	 viewBox="0 0 1619.7 1727.5" style="enable-background:new 0 0 1619.7 1727.5;" xml:space="preserve">
<g>
	<path d="M1223.7,1463.1c0,2.6,0,4.7,0,6.8c0,83.7,0,167.3,0,251c0,6.5,0,6.5-6.6,6.5c-63.3,0-126.7-0.1-190,0.1
		c-4.9,0-6.1-1.5-6.1-6.2c0.2-24,0.1-48,0.1-72c0-6.5,0-6.5-6.7-6.5c-63.7,0-127.3,0-191,0c-2.3,0-4.6,0-7.5,0
		c0-60.1,0-119.6,0-179.7c-2.5-0.1-4.5-0.3-6.4-0.3c-64.2,0-128.3,0-192.5,0c-6.6,0-6.6,0-6.6,6.6c0,12-0.1,24,0.1,36
		c0.1,3.7-0.8,5.3-4.9,5.2c-64.3-0.1-128.7-0.1-193-0.1c-1.3,0-2.6-0.2-4.7-0.4c0-2.9,0-5.6,0-8.4c0-11-0.3-22,0.1-33
		c0.2-4.9-1.4-6.1-6.2-6.1c-63.5,0.2-127,0.1-190.5,0.1c-9.8,0-8.7,0.6-8.7-8.5c0-18.5-0.2-37,0.1-55.5c0.1-5-1.3-6.5-6.5-6.5
		c-63,0.2-126,0.1-189,0.1c-2.3,0-4.6-0.3-7.3-0.4c0-2.2,0-4.1,0-5.9c0-339.8,0-679.6,0-1019.5c0-6.5,0-6.5,6.6-6.5
		c63.2,0,126.3,0,189.5,0c6.5,0,6.5,0,6.5-6.5c0-19.7,0-39.3,0-59c0-7.1,0-7.1,6.9-7.1c63.8,0,127.7,0,191.5,0c2,0,3.9,0,6.6,0
		c0-19.8,0-39.2,0-59c67.7,0,134.8,0,202.4,0c0.1,1.8,0.4,3.7,0.4,5.6c0,16.2,0.1,32.3,0,48.5c0,3.6,1.1,5,4.9,5
		c65.5-0.1,131-0.1,196.5-0.1c1.1,0,2.3-0.2,3.9-0.3c0-63.6,0-127.1,0-191.1c68.6,0,136.6,0,205.2,0c0.1-2.5,0.3-4.4,0.3-6.3
		c0-27.8,0.1-55.7-0.1-83.5c0-4.8,1.3-6.2,6.2-6.1c63.5,0.2,127,0.2,190.5,0c4.8,0,6.1,1.4,6.1,6.2c-0.1,91.3-0.1,182.7-0.1,274
		c0,2.1,0,4.3,0,7c2.2,0.1,3.9,0.3,5.7,0.3c64.3,0,128.7,0,193,0c6.5,0,6.6,0,6.6-6.7c0-31.3,0-62.7,0-94c0-6.6,0-6.6,6.6-6.6
		c59.3,0,118.7,0,178,0c1.9,0,3.9,0,6.1,0c0,464.3,0,927.9,0,1392c-2,0.1-4,0.2-5.9,0.2c-59.5,0-119,0-178.5,0.1
		c-5,0-6.5-1.2-6.4-6.4c0.2-32.3,0-64.7,0.2-97c0-5.2-1.5-6.4-6.5-6.4c-64.2,0.2-128.3,0.1-192.5,0.1
		C1228.1,1462.8,1226.2,1463,1223.7,1463.1z"/>
</g>
</svg>
