<?xml version="1.0" encoding="utf-8"?>
<!-- Generator: Adobe Illustrator 19.2.1, SVG Export Plug-In . SVG Version: 6.00 Build 0)  -->
<svg version="1.1" id="Layer_1" xmlns="http://www.w3.org/2000/svg" xmlns:xlink="http://www.w3.org/1999/xlink" x="0px" y="0px"
	 viewBox="0 0 1920 1920" style="enable-background:new 0 0 1920 1920;" xml:space="preserve">
<g>
	<path d="M1920,567c0,262,0,524,0,786c-0.7,0.1-1.4,0.1-1.9,0.4c-14.4,7.1-28.9,13.9-43.1,21.4c-57.2,29.8-111.8,63.7-163.4,102.3
		c-62.6,46.8-119.9,99.4-171.9,157.8c-39.7,44.5-75.6,91.9-108,142c-24.2,37.5-46.1,76.3-66.1,116.2c-4.4,8.9-8.3,18-12.5,27
		c-262,0-524,0-786,0c-0.1-0.7-0.1-1.4-0.4-1.9c-7.1-14.4-13.9-28.9-21.4-43.1c-29.8-57.2-63.6-111.8-102.3-163.4
		c-46.7-62.4-99.2-119.6-157.5-171.5c-44.8-39.9-92.4-76.1-142.8-108.6c-37.2-24-75.7-45.9-115.4-65.5c-9-4.5-18.2-8.5-27.4-12.8
		c0-262,0-524,0-786c0.8-0.2,1.7-0.2,2.4-0.6c49.6-23.7,97.6-50.1,143.7-80c59.3-38.5,114.6-82,165.9-130.6
		c37.4-35.4,72.3-73.1,104.5-113.2c32.1-39.8,61.9-81.3,87.8-125.4c17.4-29.6,33.5-59.9,49.9-90C559,18.5,562.7,9.1,567,0
		c262,0,524,0,786,0c0.1,0.7,0.1,1.4,0.4,1.9c7.1,14.4,13.9,28.9,21.4,43.1c29.8,57.2,63.6,111.8,102.3,163.4
		c46.7,62.4,99.2,119.7,157.5,171.6c44.8,39.9,92.4,76.1,142.8,108.6c37.2,24,75.7,45.9,115.4,65.5
		C1901.7,558.7,1910.9,562.8,1920,567z"/>
</g>
</svg>
