<?xml version="1.0" encoding="utf-8"?>
<!-- Generator: Adobe Illustrator 19.2.1, SVG Export Plug-In . SVG Version: 6.00 Build 0)  -->
<svg version="1.1" id="Layer_1" xmlns="http://www.w3.org/2000/svg" xmlns:xlink="http://www.w3.org/1999/xlink" x="0px" y="0px"
	 viewBox="0 0 980 980.3" style="enable-background:new 0 0 980 980.3;" xml:space="preserve">

	<g transform="translate(0.000000,511.000000) scale(0.100000,-0.100000)">
		<path d="M4790.2,5100.9c-83.9-20-145.8-55.9-243.6-135.8c-127.8-101.8-285.5-165.7-439.3-179.7c-115.8-8-161.7-2-321.5,51.9
			c-101.8,33.9-217.7,61.9-259.6,61.9c-167.7-2-323.5-97.8-429.3-265.6c-93.9-145.8-183.7-225.6-333.5-299.5
			c-119.8-59.9-143.8-63.9-353.4-65.9c-185.7-4-239.6-12-313.5-47.9c-127.8-61.9-223.6-175.7-261.6-313.5
			c-99.8-361.4-273.6-535.1-635-635c-137.8-37.9-251.6-133.8-313.5-261.6c-35.9-73.9-43.9-127.8-47.9-313.5
			c-2-205.7-6-233.6-63.9-353.4c-75.9-155.7-145.8-233.6-293.5-327.5c-173.7-111.8-271.6-265.6-273.6-435.3
			c0-41.9,28-157.7,61.9-259.6c53.9-159.7,59.9-205.7,51.9-321.5c-14-153.8-77.9-311.5-179.7-439.3C30,422.6,0,350.7,0,206.9
			C0,59.1,28-2.8,159.7-172.5c103.8-131.8,145.8-243.6,161.7-419.3c10-111.8,2-155.7-51.9-309.5c-34-97.9-61.9-213.7-61.9-259.6
			c2-175.7,95.8-327.5,273.6-441.3c147.8-93.8,217.6-171.7,293.5-327.5c57.9-119.8,61.9-147.8,63.9-353.4
			c4-185.7,12-239.6,47.9-313.5c61.9-127.8,175.7-223.6,313.5-261.6c361.4-99.8,535.1-273.6,635-635
			c37.9-137.8,133.8-251.6,261.6-313.5c73.9-35.9,127.8-43.9,313.5-47.9c205.7-2,233.6-6,353.4-63.9
			c155.7-75.9,233.6-145.8,329.5-295.5c163.7-257.6,407.3-331.5,678.9-209.7c79.9,36,135.8,45.9,279.5,43.9
			c215.6,0,313.5-31.9,469.2-153.8c169.7-131.8,231.6-159.7,379.4-159.7s209.7,28,379.4,159.7c151.7,117.8,255.6,153.8,459.3,155.8
			c135.8,2,191.7-8,275.5-43.9c285.5-123.8,527.1-51.9,692.9,207.7c95.8,149.8,173.7,219.6,329.5,295.5
			c119.8,57.9,147.8,61.9,353.4,63.9c185.7,4,239.6,12,313.5,47.9c127.8,61.9,223.6,175.7,261.6,313.5
			c99.8,361.4,273.5,535.1,634.9,635c137.8,37.9,251.6,133.8,313.5,261.6c35.9,73.9,43.9,127.8,47.9,313.5
			c2,205.7,6,233.6,63.9,353.4c75.9,155.7,145.8,233.6,295.5,329.5c259.6,165.7,331.5,407.3,207.6,692.9
			c-35.9,83.8-45.9,139.8-43.9,275.5c2,203.7,37.9,307.5,155.8,459.2C9772-2.7,9800,59.2,9800,206.9s-36,233.6-161.8,385.4
			c-113.8,135.8-155.7,267.6-153.7,473.2c0,129.8,12,193.7,45.9,269.6c121.8,271.5,47.9,515.2-209.7,678.9
			c-149.8,95.8-219.6,173.7-295.5,329.5c-57.9,119.8-61.9,147.7-63.9,353.4c-4,185.7-12,239.6-47.9,313.5
			c-61.9,127.8-175.7,223.6-313.5,261.6c-361.4,99.8-535.1,273.6-634.9,635c-37.9,137.8-133.8,251.6-261.6,313.5
			c-73.9,35.9-127.8,43.9-313.5,47.9c-205.6,2-233.6,6-353.4,63.9c-155.8,75.9-233.6,145.8-327.5,293.5
			c-113.8,177.7-265.6,271.5-441.3,273.6c-45.9,0-161.7-28-259.6-61.9c-153.8-53.9-197.7-61.9-309.5-51.9
			c-167.7,14-281.5,57.9-419.3,163.7c-59.9,45.9-137.8,97.8-171.7,115.8C5031.8,5102.9,4872,5122.9,4790.2,5100.9z"/>
	</g>

</svg>
