<?xml version="1.0" encoding="utf-8"?>
<!-- Generator: Adobe Illustrator 19.2.1, SVG Export Plug-In . SVG Version: 6.00 Build 0)  -->
<svg version="1.1" id="Layer_1" xmlns="http://www.w3.org/2000/svg" xmlns:xlink="http://www.w3.org/1999/xlink" x="0px" y="0px"
	 viewBox="0 0 263.2 220.5" style="enable-background:new 0 0 263.2 220.5;" xml:space="preserve">
<style type="text/css">
	.st0{opacity:0.7;enable-background:new    ;}
	.st1{opacity:0.5;enable-background:new    ;}
</style>
<path class="st0" d="M246.2,42.3c-20.3-26.5-63.8-37.6-104.8-41c-23-1.9-45.2-1.4-62.1,0.1c-0.8,0.1-1.5,0.1-2.3,0.2
	c-16.2,1.7-33,5.3-46.3,14c-4.4,2.9-8.4,6.2-12,10.3c-15,17.3-16.9,42.2-18,65.2c-1.3,25.8-2.2,53.1,10.2,75.8
	c12.8,23.6,38.1,37.9,63.7,45.8c43.9,13.5,94.4,9.8,132.8-14.2c6.7-4.2,13-9,18.9-14.5c5-4.7,9.6-10,13.7-15.8
	c8.2-11.5,14.6-24.9,18.5-39.1C266.9,99.4,264.6,66.6,246.2,42.3z"/>
<path class="st1" d="M225,94.8c-6-13.4-10.6-31-24.9-33.9c-11.7-2.4-22.9,7.2-34.8,6.2c-13-1.1-21.6-14.6-23.5-27.5
	c-1.9-12.7,0.6-25.6-0.4-38.4c-23-1.9-45.2-1.4-62.1,0.1c-0.8,0.1-1.5,0.1-2.3,0.2c-16.2,1.7-33,5.3-46.3,14
	c-4.4,2.9-8.4,6.2-12,10.3c-15,17.4-16.9,42.3-18,65.3c-1.3,25.8-2.2,53.1,10.2,75.8c12.8,23.6,38.1,37.9,63.7,45.8
	c43.9,13.5,94.4,9.8,132.8-14.2c6.7-4.2,13-9,18.9-14.5c5-4.7,9.6-10,13.7-15.8c8.2-11.5,14.6-24.9,18.5-39.1
	C244,121.7,231.7,109.7,225,94.8z"/>
<path class="st1" d="M237.2,165.4c-10.6-11.4-16.7-26.2-24.5-39.7S194,99.1,178.9,95.2c-20.5-5.2-42.6,8.1-62.8,1.9
	c-15.2-4.7-25.4-19.6-29.8-34.9c-4.5-15.3-4.5-31.5-6.6-47.3C79,10.4,78.2,6,77.1,1.6c-16.2,1.7-33,5.3-46.3,14
	c-4.4,2.9-8.4,6.2-12,10.3C3.7,43.2,1.8,68.1,0.7,91.1c-1.3,25.8-2.2,53.1,10.2,75.8c12.8,23.6,38.1,37.9,63.7,45.8
	c43.9,13.5,94.4,9.8,132.8-14.2c6.7-4.2,13-9,18.9-14.5c5-4.7,9.6-10,13.7-15.8C239,167.3,238.1,166.3,237.2,165.4z"/>
<path d="M128.3,138.6c-22.4-5.2-47.2,6.6-68.3-2.5c-20.4-8.8-28.6-33.6-29.2-55.7c-0.6-21.6,3.9-43.6-0.1-64.8
	c-4.4,2.9-8.4,6.2-12,10.3c-15,17.3-16.9,42.2-18,65.2c-1.3,25.8-2.2,53.1,10.2,75.8c12.8,23.6,38.1,37.9,63.7,45.8
	c43.9,13.5,94.4,9.8,132.8-14.2c-7.4-3.9-14.5-8.7-20.8-14.2C167.7,167.8,152.7,144.2,128.3,138.6z"/>
</svg>
