<?xml version="1.0" encoding="utf-8"?>
<!-- Generator: Adobe Illustrator 19.2.1, SVG Export Plug-In . SVG Version: 6.00 Build 0)  -->
<svg version="1.1" id="Layer_1" xmlns="http://www.w3.org/2000/svg" xmlns:xlink="http://www.w3.org/1999/xlink" x="0px" y="0px"
	 viewBox="0 0 288.2 201.5" style="enable-background:new 0 0 288.2 201.5;" xml:space="preserve">
<style type="text/css">
	.st0{opacity:0.7;enable-background:new    ;}
	.st1{opacity:0.5;enable-background:new    ;}
</style>
<path class="st0" d="M278.6,37.9c-0.5-0.9-1-1.6-1.5-2.5l0,0C266,18.1,248,8.6,230.2,6c-0.7-0.1-1.4-0.2-2.1-0.3
	c-19.4-2.3-38.6,2.2-57.5,6.5s-38.3,8.4-57.6,5.2C96.9,14.7,81.6,7,65.7,2.8s-33.5-4.7-46.8,6C3.7,21-2.1,45.4,0.7,68
	c0.3,2.2,0.6,4.3,1,6.5c2,9.8,5.3,19,9.5,27.7l0,0c6.2,12.8,14.4,24.4,23,35.1c7.7,9.5,17.5,21.5,28.2,32.6c0,0,0,0,0.1,0.1
	c14.3,14.7,30.2,27.6,44.9,30.8c12.5,2.7,28-3.1,40.1-5.7c17.5-3.8,34.8-8.7,51.8-14.8c2.5-0.9,5.1-1.8,7.6-2.8c0,0,0,0-0.1,0
	c24.1-9.3,47.6-22.3,63.9-45.3C288.7,106.8,295,66.3,278.6,37.9z"/>
<path class="st1" d="M278.6,37.9c-0.5-0.9-1-1.6-1.5-2.5l0,0C266,18.1,248,8.6,230.2,6c-0.7-0.1-1.4-0.2-2.1-0.3
	c-19.4-2.3-38.6,2.2-57.5,6.5s-38.3,8.4-57.6,5.2C96.9,14.7,81.6,7,65.7,2.8s-33.5-4.7-46.8,6C3.7,21-2.1,45.4,0.7,68
	c0.3,2.2,0.6,4.3,1,6.5c2,9.8,5.3,19,9.5,27.7l0,0c6.2,12.8,14.4,24.4,23,35.1c7.7,9.5,17.5,21.5,28.2,32.6c2.4-0.9,4.9-1.7,7.4-2.3
	c19.2-5.1,39.4-4,59.1-2.1c26.1,2.6,52.1,6.6,77.9,12c24.1-9.3,47.6-22.3,63.9-45.3C288.7,106.8,295,66.3,278.6,37.9z"/>
<path class="st1" d="M230.2,6c-0.7-0.1-1.4-0.2-2.1-0.3c-19.4-2.3-38.6,2.2-57.5,6.5s-38.3,8.4-57.6,5.2C96.9,14.7,81.6,7,65.7,2.8
	s-33.5-4.7-46.8,6C3.7,21-2.1,45.4,0.7,68c0.3,2.2,0.6,4.3,1,6.5c2,9.8,5.3,19,9.5,27.7c13.1-5,28.5-4.7,42.1-0.7
	c21.8,6.5,40.9,20.4,61.7,30s45.5,14.5,65.3,2.7c18.3-10.9,27.7-33,40.2-51.1C235,62,254.9,45.6,277.1,35.4
	C266,18.1,248,8.6,230.2,6z"/>
<path d="M130.3,88.8c23.9,1,45.9-14.7,62.4-33.5C206.2,39.8,217.3,22,230.2,6c-0.7-0.1-1.4-0.2-2.1-0.3c-19.4-2.3-38.6,2.2-57.5,6.5
	s-38.3,8.4-57.6,5.2C96.9,14.7,81.6,7,65.7,2.8s-33.5-4.7-46.8,6C3.7,21-2.1,45.4,0.7,68c8-7.5,17.6-12.7,28.2-14.1
	C64.6,49.2,94.4,87.4,130.3,88.8z"/>
</svg>
