<?xml version="1.0" encoding="utf-8"?>
<!-- Generator: Adobe Illustrator 19.2.1, SVG Export Plug-In . SVG Version: 6.00 Build 0)  -->
<svg version="1.1" id="Layer_1" xmlns="http://www.w3.org/2000/svg" xmlns:xlink="http://www.w3.org/1999/xlink" x="0px" y="0px"
	 viewBox="0 0 287.9 258.3" style="enable-background:new 0 0 287.9 258.3;" xml:space="preserve">
<style type="text/css">
	.st0{opacity:0.7;enable-background:new    ;}
	.st1{opacity:0.5;enable-background:new    ;}
</style>
<path class="st0" d="M281.4,108.4c-11.2-16.2-33.4-19.2-53-21.6c-19.5-2.4-42-7.8-50.2-25.7c-4.7-10.2-3.4-22.2-7.2-32.8
	c0.1-0.1,0.2-0.2,0.3-0.3c0-0.1-0.1-0.2-0.1-0.2c-7-19-29.3-28.8-49.5-27.7c-17.6,0.9-35,5.6-51.1,13.3c0,0.1-0.1,0.1-0.1,0.2
	c-13,6.3-25,14.5-35.5,24.1c-0.1,0.1-0.1,0.1-0.1,0.1C27,45.2,20.3,53.2,14.5,62C3.5,79-3,99.7,0.8,119.5c2,10.5,6.8,20.2,11.5,29.7
	c12.2,24.9,24.5,49.7,36.7,74.6c3.2,6.4,6.5,13,10.8,18.7c0-0.1,0.4,0.1,0.1,0.1c3.3,4.3,7.1,8.1,11.7,10.8
	c14,8.2,31.8,4.8,47.4,0.2c36-10.6,70.4-26.4,102.1-46.5c0,0,20-13.4,29.5-20.7c12.3-9.5,24.3-20,31.4-33.8c1.2-2.4,2.3-4.9,3.1-7.5
	c0-0.1,0.1-0.2,0.1-0.2C289.2,132.6,288.7,118.9,281.4,108.4z"/>
<path class="st1" d="M284.9,145c-16.4,4.2-34.2,3.7-50.1-2.3c-27.8-10.5-47.6-34.8-66.1-58c-6.6-8.4-13.6-17.7-13.3-28.4
	c0.3-8.9,5.8-16.8,11.5-23.6c1.3-1.5,2.7-3.1,4.1-4.7c0,0.1,0.1,0.2,0.1,0.3c0.1-0.1,0.1-0.2,0.2-0.2c0-0.1-0.1-0.2-0.1-0.2
	c-7-19-29.3-28.8-49.5-27.7c-17.6,0.9-35,5.6-51.1,13.3c0,0.1-0.1,0.1-0.1,0.2c-13,6.3-25,14.5-35.5,24.1c-0.1,0.1-0.1,0.1-0.1,0.1
	C27,45.2,20.3,53.2,14.5,62C3.5,79-3,99.7,0.8,119.5c2,10.5,6.8,20.2,11.5,29.7c12.2,24.9,24.5,49.7,36.7,74.6
	c3.2,6.4,6.5,13,10.8,18.7c0-0.1,0.4,0.1,0.1,0.1c3.3,4.3,7.1,8.1,11.7,10.8c14,8.2,31.8,4.8,47.4,0.2c36-10.6,70.4-26.4,102.1-46.5
	c0,0,20-13.4,29.5-20.7c12.3-9.5,24.3-20,31.4-33.8c1.2-2.4,2.3-4.9,3.1-7.5C285.1,145,285.1,144.9,284.9,145z"/>
<path class="st1" d="M161.2,150.8c-11-23.5-15.9-53.2-38.7-65.6c-17.4-9.5-41.7-6-55-20.7c-9.6-10.7-9.3-27.6-3.1-40.5
	c1.8-3.8,4-7.3,6.5-10.6c-13,6.3-25.1,14.5-35.6,24.2c-7.2,7-14.7,15.5-20.5,24.3c-11,17-17.5,37.7-13.7,57.5
	c2,10.5,6.8,20.2,11.5,29.7c12.2,24.9,24.5,49.7,36.7,74.6c3.2,6.4,6.5,13,10.8,18.7c0,0.1,0,0.1,0.1,0.1c3.3,4.3,7.1,8.1,11.7,10.8
	c14,8.2,31.8,4.8,47.4,0.2c36-10.6,70.5-26.4,102.2-46.5C195.4,196.4,173.1,176.2,161.2,150.8z"/>
<path d="M104.1,127.8C88.3,104.3,48.2,109,32.4,85.5c-8.6-12.8-6.7-30.5,0.7-44.1c0.7-1.3,1.5-2.5,2.2-3.8
	C27.5,45,20.6,53.2,14.8,62C3.8,79-2.7,99.7,1.1,119.5c2,10.5,6.8,20.2,11.5,29.7c12.2,24.9,24.5,49.7,36.7,74.6
	c3.2,6.4,6.5,13,10.8,18.7c13.5-16.7,25.6-34.5,36.2-53.1C107.2,170.4,116.3,145.9,104.1,127.8z"/>
</svg>
