<?xml version="1.0" encoding="utf-8"?>
<!-- Generator: Adobe Illustrator 19.2.1, SVG Export Plug-In . SVG Version: 6.00 Build 0)  -->
<svg version="1.1" id="Layer_1" xmlns="http://www.w3.org/2000/svg" xmlns:xlink="http://www.w3.org/1999/xlink" x="0px" y="0px"
	 viewBox="0 0 293.8 223.8" style="enable-background:new 0 0 293.8 223.8;" xml:space="preserve">
<style type="text/css">
	.st0{opacity:0.7;enable-background:new    ;}
	.st1{opacity:0.5;enable-background:new    ;}
</style>
<path class="st0" d="M67.9,223.5c22.7,1.6,45.2-3.9,67.3-9.5c41.1-10.3,82.6-21.1,119.7-41.5c17.2-9.5,34.7-22.9,38.2-42.2
	c2.6-14.2-2.9-27.7-11.6-39.6l-0.1-0.1c-5.4-7.4-11.9-14.3-18.5-20.4c-2.3-2.1-4.5-3.9-6.8-6c-0.1-0.1-0.2-0.1-0.4-0.3
	c-6.4-5.7-12.9-11-19.7-16.3c-0.1-0.1-0.1-0.1-0.1-0.1c-16.5-12.8-33.9-24.4-52-34.6C170.6,5.4,159.3-3.7,144,1.6
	c-14.5,5-27.5,14.2-39.8,23.3C85.6,38.9,67.6,54,50.5,70c-8.1,7.6-23.2,24-23.2,24.1c-8,9.6-15,19.8-20,31.2
	c-3.5,8.1-5.9,16.8-6.8,25.7c0,0.1,0,0.2,0,0.2C-1,166,1.4,180.7,9.4,193.1c12,18.4,34.1,28.2,56.1,30.2
	C65.5,223.3,67.3,223.4,67.9,223.5z"/>
<path class="st1" d="M263.1,70.3c-2.3-2.1-4.5-3.8-6.8-5.9c-0.1-0.1-0.2-0.2-0.4-0.3c-6.4-5.7-13-11.1-19.7-16.4
	c-0.1-0.1-0.1-0.1-0.1-0.1c-16.5-12.8-33.9-24.4-52-34.6c-13.3-7.5-24.6-16.6-39.9-11.3c-14.5,5-27.5,14.2-39.8,23.3
	C85.7,39,67.7,54.1,50.6,70.1c-8.1,7.6-16.1,15.6-23.2,24.1l0,0c-8,9.6-15,19.8-20,31.2c-3.5,8.1-6.1,16.8-7,25.7v0.1
	c-1.5,14.8,1.1,29.6,9.1,42c12,18.4,34.1,28.2,56.1,30.2c31.1-4.2,61.5-13.9,87.2-31.7c25.3-17.6,44.7-42,67.1-63.2
	c17.7-16.7,38.4-31.8,61.6-37.8C276.2,83.4,269.7,76.4,263.1,70.3z"/>
<path class="st1" d="M236.1,47.6C236,47.5,236,47.5,236.1,47.6c-16.6-12.9-34-24.5-52.1-34.7c-13.3-7.5-24.6-16.6-39.9-11.3
	c-14.5,5-27.5,14.2-39.8,23.3C85.6,38.9,67.6,54,50.5,70c-8.1,7.6-16.1,15.6-23.2,24.1l0,0c-8,9.6-15,19.8-20,31.2
	c-3.5,8.1-5.9,16.9-6.8,25.8c14.7,2.8,29.4,6.1,44.2,8.4c31.9,5.1,66.5,5.3,94-11.5c16.1-9.8,28.3-24.7,40.5-39.1s25-28.9,41.6-37.7
	c10.7-5.7,23.5-8.5,35.4-6.9C249.7,58.5,243,53,236.1,47.6z"/>
<path d="M141.7,99.4c19.4-9.3,32.6-28,50.8-39.4c13-8.1,28.2-12.1,43.5-12.4c-16.5-12.8-33.9-24.4-52-34.6
	c-13.3-7.5-24.6-16.6-39.9-11.3c-14.5,5-27.5,14.2-39.8,23.3C85.6,39,67.6,54.1,50.5,70.1c-8.1,7.6-16.1,15.6-23.2,24.1
	c9.8,0.8,19.6,2.5,28.9,4.5C84.7,104.8,115.5,112,141.7,99.4z"/>
</svg>
