<?xml version="1.0" encoding="utf-8"?>
<!-- Generator: Adobe Illustrator 19.2.1, SVG Export Plug-In . SVG Version: 6.00 Build 0)  -->
<svg version="1.1" id="Layer_1" xmlns="http://www.w3.org/2000/svg" xmlns:xlink="http://www.w3.org/1999/xlink" x="0px" y="0px"
	 viewBox="0 0 300.3 202.8" style="enable-background:new 0 0 300.3 202.8;" xml:space="preserve">
<style type="text/css">
	.st0{opacity:0.7;enable-background:new    ;}
	.st1{opacity:0.5;enable-background:new    ;}
</style>
<path class="st0" d="M292.9,49.4C292.9,49.3,292.9,49.4,292.9,49.4c-2.3-4.9-5.2-9.5-8.4-13.6c-10.1-13.1-23.8-22.3-38.4-27.9
	c-27-10.5-56.6-9.2-84.8-3.6c-23.3,4.6-46,12-69.1,17.9l0,0c-4.8,1.2-9.7,2.4-14.4,3.5c-6.9,1.5-13.9,2.8-20.8,4.4
	c-0.1,0-0.3,0.1-0.4,0c-7.1,1.7-14.2,3.5-21,6.5c-6.5,2.8-12.5,6.7-18,11.6c0,0,0,0-0.1,0.1C11.6,53.7,6.7,60.2,3.6,67.9
	c-7.5,18.8-2.6,41.6,8,58.4c10.7,16.8,26.3,28.6,42,39.2c14.6,9.9,29.1,24.6,44.4,32.6c14.7,7.8,36,4.2,51.5,2.2
	c34-4.3,67.1-17,96.3-37.3h0.1c4.1-2.9,8.2-5.9,12.2-9.1c19.5-15.7,37.9-37.2,41.6-63.5l0,0c0.3-2.3,0.5-4.6,0.6-7
	C300.7,71.6,297.9,59.8,292.9,49.4z"/>
<path class="st1" d="M292.7,49.4C250.2,58,206.5,64,165.5,51.5c-25.2-7.7-48.1-22-73.4-29.3c-4.8,1.2-9.7,2.4-14.5,3.5
	c-6.9,1.5-13.9,2.8-20.8,4.4c-0.1,0-0.3,0.1-0.4,0c-7.1,1.7-14.2,3.5-21,6.5c-6.5,2.8-12.3,6.8-17.8,11.7c1.5,0.2,1.3,0.2,0,0
	C11.7,53.7,6.8,60.2,3.7,67.9c-7.5,18.8-2.6,41.6,8,58.4c10.7,16.8,26.3,28.6,42,39.2c14.6,9.9,29.1,24.6,44.4,32.6
	c14.7,7.8,36,4.2,51.5,2.2c34-4.3,67.1-17,96.3-37.3l0,0c4.1-2.9,7.9-5.9,11.9-9.1c19.5-15.7,37.9-37.2,41.6-63.5l0,0
	c0.3-2.3,0.5-4.6,0.6-7C300.5,71.6,297.7,59.8,292.7,49.4z"/>
<path class="st1" d="M198.2,93.8c-12.8,5.2-25.4,12.4-39.2,12.4c-16.6,0-31.4-10.3-42.8-22.4c-11.3-12.1-20.3-26.3-32.3-37.7
	C76.2,38.9,66.8,32.7,56.7,30c-7.1,1.7-14.2,3.7-21,6.7c-6.5,2.8-12.3,6.8-17.8,11.7l0,0C12.1,53.7,7.2,60.2,4.1,67.9
	c-7.5,18.8-2.6,41.6,8,58.4c10.7,16.8,26.3,28.6,42,39.2c14.6,9.9,29.1,24.6,44.4,32.6c14.7,7.8,36,4.2,51.5,2.2
	c34-4.3,67.1-17,96.3-37.3c0.1-0.1,0.1,0,0.1-0.1c4.1-2.9,7.8-5.8,11.8-9c19.5-15.7,37.9-37.3,41.6-63.6
	C266.9,79.8,230.2,80.7,198.2,93.8z"/>
<path d="M118.3,165.4c-18.2-9.9-29.3-29-38.1-47.7C71.5,98.9,63.7,79,49,64.4c-8.3-8.2-19.6-14.3-31-16C12.1,53.7,7.2,60.2,4.1,67.9
	c-7.5,18.8-2.6,41.6,8,58.4c10.7,16.8,26.3,28.6,42,39.2c14.6,9.9,29.1,24.6,44.4,32.6c14.7,7.8,36,4.2,51.5,2.2
	c34-4.3,67.1-17,96.3-37.3c-21.1,3.1-42.3,5.9-63.5,8.4C161,173.9,137.6,175.9,118.3,165.4z"/>
</svg>
