<?xml version="1.0" encoding="utf-8"?>
<!-- Generator: Adobe Illustrator 19.2.1, SVG Export Plug-In . SVG Version: 6.00 Build 0)  -->
<svg version="1.1" id="Layer_1" xmlns="http://www.w3.org/2000/svg" xmlns:xlink="http://www.w3.org/1999/xlink" x="0px" y="0px"
	 viewBox="0 0 287.4 233" style="enable-background:new 0 0 287.4 233;" xml:space="preserve">
<style type="text/css">
	.st0{opacity:0.7;enable-background:new    ;}
	.st1{opacity:0.5;enable-background:new    ;}
</style>
<path class="st0" d="M247.6,224.3c9-5.2,16.9-13,23.9-24.3c-0.1,0,0.1-0.1,0.1-0.1c1.2-2,2.4-4,3.6-6.1
	c16.3-30.8,14.3-68.1,5.5-101.9h-0.1c-0.4-1.3-0.7-2.7-1.1-4c-8.1-29-22.4-58.9-49.2-72.7c-17.4-9-37.6-10-57.2-10.8
	c-5-0.2-9.9-0.4-14.9-0.6l0,0c-15.1-0.6-30.3-1.2-45.4-1.9c-12.3-0.5-24.6-1-36.8-1.5c-0.9,0-1.9-0.1-2.8-0.1H73
	C52.5-0.5,30.1,0,14.9,13.7C-6.8,33.5-1.6,69.2,10.6,95.9c25.4,55.6,74,99.1,131.1,120.2C177.3,229.2,216.9,242.1,247.6,224.3
	L247.6,224.3z"/>
<path class="st1" d="M73,0.2C52.5-0.5,30.1,0,14.9,13.7C-6.8,33.5-1.6,69.2,10.6,95.9c25.4,55.6,74,99.1,131.1,120.2
	c35.6,13.1,75.2,26,105.8,8.2h0.1c9-5.2,17-13,24-24.3c-0.1,0,0.1-0.1,0-0.2c1.2-2,2.4-4,3.6-6.1c16.3-30.8,14.3-68.1,5.5-101.9
	c-8.4-2.4-16.9-4.8-25.3-7.2c-21.3-6.1-43.6-12.8-59.1-28.6c-11.8-12-18.4-28-28.3-41.5c-2.8-3.9-6.1-7.5-9.8-10.8
	c-15.1-0.6-30.3-1.2-45.4-1.9c-12.3-0.5-24.6-1-36.8-1.5c-0.9,0-1.9-0.1-2.8-0.1C73.2,0.2,73,0.2,73,0.2z"/>
<path class="st1" d="M271.5,199.9c-18.2-6.5-36.2-12.9-54.2-19.4c-22.1-7.9-46.8-18.2-55.2-40.1c-7.1-18.3-0.4-38.8,0-58.4
	c0.5-33.2-20.5-64.8-49.6-80.2c-12.3-0.5-24.6-1-36.8-1.5c-0.9,0-1.8-0.1-2.7-0.1l0,0C52.5-0.5,30.1,0,14.9,13.7
	C-6.8,33.5-1.6,69.2,10.6,95.9c25.4,55.6,74,99.1,131.1,120.2c35.6,13.1,75.2,26,105.8,8.2c0,0,0,0-0.1-0.1
	C256.4,219.1,264.6,211.2,271.5,199.9z"/>
<path d="M173.2,185.6c-14.7-3.4-29.8-4.8-44-9.9c-14.2-5.1-27.7-14.6-32.8-28.8c-8.7-24.5,10.6-49.8,13.4-75.7
	c3-27.8-14.1-54.6-36.8-71C52.5-0.5,30.1,0,14.9,13.7C-6.8,33.5-1.6,69.2,10.6,95.9c25.4,55.6,74,99.1,131.1,120.2
	c35.6,13.1,75.2,26,105.8,8.2C226.4,205.5,200.7,191.9,173.2,185.6z"/>
</svg>
