<?xml version="1.0" encoding="utf-8"?>
<!-- Generator: Adobe Illustrator 19.2.1, SVG Export Plug-In . SVG Version: 6.00 Build 0)  -->
<svg version="1.1" id="Layer_1" xmlns="http://www.w3.org/2000/svg" xmlns:xlink="http://www.w3.org/1999/xlink" x="0px" y="0px"
	 viewBox="0 0 1730 1733.6" style="enable-background:new 0 0 1730 1733.6;" xml:space="preserve">
<g>
	<path d="M971.9,1669.3c-5.9,18.5-17.9,32.7-32.8,44.2c-8.5,6.5-17.3,13.7-29.1,14.7c-5,0.4-9.7,3.5-14.7,4.3
		c-23.7,3.9-45-3.2-65-15.3c-11.4-6.9-20.8-15.8-28.4-26.7c-0.6-0.9-2.8-1.7-3.9-1.4c-5.7,1.6-11.2,3.8-16.8,5.4
		c-2.2,0.6-4.6,0.2-7,0.1c-4.6-0.3-9.3-1.2-13.9-1c-19.9,0.9-38.2-4.9-55.6-13.6c-12.6-6.3-21.6-17-30.2-27.8
		c-11.2-14.2-19.9-29.8-24.8-48.1c-74.4,14.8-119.4-19.2-144.1-87.1c-6.1,0.9-12.3,1.9-18.6,2.5c-44.1,4.4-79-10.9-104.1-47.9
		c-8.1-11.9-15-24.3-19-38.2c-0.9-3-1.8-3.8-5.2-3.2c-24.1,4.5-48.1,4.2-71.3-4.8c-22.1-8.6-39.3-23.5-51-44.1
		c-6.3-11-10.9-23-15.6-34.9c-1.7-4.3-4.1-4-7.6-4c-17.6,0.1-35.3,0.7-52.8-0.5c-16.7-1.1-31.6-8.9-43.8-19.8
		c-8.9-8-18.2-16.9-22.9-28.2c-4.7-11.4-7.7-23.7-10.5-35.7c-1.7-7.2-1.6-14.8-2.4-22.1c-27.3-5.3-46-22.4-60.2-44.7
		c-14.2-22.3-17.2-47-13.5-73.3c2.4-17.3,13-29.8,20.5-44.2c2.1-3.9,5-7.4,6.7-10c-7.5-12-15.6-22.8-21.5-34.7
		c-16.3-32.8-17.3-66.4-2.8-100.3c5.8-13.6,13.3-26,23.4-36.8c2.5-2.6,1.8-4.2-0.3-6.6c-19.4-22.1-29.9-48-32.9-77
		c-1.9-18.4,2.5-36,8.9-53.2c5.6-15.1,13.5-28.8,24.5-40.7c2.2-2.4,1.7-3.7-0.4-5.7c-18-17.5-26.2-39.8-31.5-63.7
		c-4-18.1-1.9-35.8,4.5-52.5c7.5-19.8,18.8-37.7,37.5-49.4c4.6-2.9,9.9-4.7,14.3-6.7c-3.4-15.5-2.5-30.5-0.2-45.6
		c0.6-3.6,1.1-7.3,1.1-10.9c-0.1-7,2-13.2,6.2-18.6c7.9-10.2,14.7-21.9,24.4-29.9c24.6-20.3,53.3-28.1,85.1-21.4
		c0.6,0.1,1.3,0.2,1.9,0.4c6.2,2.6,6.1,2.6,8.3-4.1c9.2-27.8,24.6-51.6,48.2-69.1c7.6-5.6,17.7-8.4,27-10.8
		c15.9-4,32.3-4.8,48.6-3.4c5.6,0.5,11.1,1.6,16.8,2.4c3.1-7.7,5.8-15.9,9.6-23.6c10.7-21.5,24.1-41.1,44.6-54.4
		c14-9.1,30.1-12.4,46.6-12.8c13.1-0.3,26.3,0.7,39.4,1.1c1.1,0,2.3,0,3.6,0c7.1-21.3,18.6-39.8,32.8-57
		c14.5-17.5,33.2-27.1,55.1-31.1c17.5-3.2,35.1-3.7,52.6,0.3c1.2,0.3,3.5-1.1,4.2-2.3c9.1-15.6,16.6-32.3,27.1-46.9
		c22.5-31.2,54.2-43.6,92.2-40.4c6.6,0.6,13.1,2.2,19.6,3.2c3.3,0.5,5.3,0.4,6.5-4.2c1.5-5.7,5.1-11.1,8.6-16
		c9.4-13.4,21.7-23.9,35.4-32.4c6.4-4,14.3-6.2,21.9-7.6c35.5-6.5,67,1.6,92.6,28c4.2,4.3,7.7,9.4,11.6,14.3
		c13.6-5.6,27.8-9.4,42.3-7c15.3,2.5,31.2,2.5,45.7,9.1c13.7,6.2,24,16.5,33.2,28c13,16.2,23.1,34,28.7,54.8
		c2.9-0.3,5.8-0.5,8.7-1.1c15.1-3.1,30.2-3.1,45.2-0.2c10.4,2,20.8,4.5,30.7,8.1c12.3,4.4,20.6,14.3,28.7,24
		c13.1,15.7,23.2,33.1,29.1,52.8c0.4,1.2,0.9,2.4,1.5,3.9c15.4-3,30.7-4.6,46.3-2.6c38.9,5,68.4,23.3,85.1,59.6
		c4,8.6,7.2,17.5,10.4,26.3c1,2.8,1.8,3.8,5.2,3.2c24.5-4.5,48.7-4.2,72.2,5.2c21.5,8.7,38.2,23.4,49.9,43.2
		c6.9,11.7,12.5,24.1,18.5,36.2c1.3,2.5,2.5,3.1,5.4,2.5c29.2-5.6,57.5-3.1,83.8,11.3c7.1,3.9,12.5,11,18.6,16.8
		c1.4,1.3,2.7,2.9,4,4.4c17.9,19.4,28.2,41.8,27.5,68.7c0,1,0,2-0.3,3c-0.2,0.9-0.7,1.8-0.9,2.3c36.5,10.8,59,35.5,71.3,70.4
		c5.2,14.6,3.7,29.5,1.3,44.4c-0.1,0.5-0.3,1-0.3,1.5c0.8,14.3-7.7,25-14.2,36.4c-3.3,5.8-7.8,10.9-11.8,16.3
		c-1.8,2.5-2.6,4.2,0.4,7.1c17.6,16.9,26.3,38.5,30.8,61.8c7.9,40.8-6,75.5-31.4,106.6c-1.9,2.3-2,3.6,0.1,5.8
		c15.7,16.8,25.4,36.8,30.9,58.9c4.4,18.1,4,36.3-1,54.3c-5.8,20.8-15.3,39.6-30.1,55.5c-1.9,2.1-1.9,3.4-0.1,5.4
		c13.4,14.2,21.9,31.1,27.8,49.5c5.7,17.8,9.6,36,3.6,54.4c-2.9,9-2.2,19.2-8.6,27.2c-5.9,7.4-10.8,15.5-17,22.5
		c-7.9,9-18.2,15.1-28.8,20.5c-0.6,0.3-1.1,0.7-0.8,0.5c1.5,8.6,3.8,16.6,4,24.7c0.2,7.7-1.3,15.5-2.8,23.1
		c-1.4,7.1-3.6,14.1-5.6,21.1c-0.6,2-1.6,4.3-3.2,5.5c-5,3.7-6,9.7-9.3,14.3c-3.6,5.2-8,10.1-13,14c-6.9,5.5-14.3,10.8-22.2,14.7
		c-9,4.4-17.9,10.1-28.8,9.2c-12.1-1-24.2-1.6-36.3-2.8c-7.4-0.7-7.7-0.4-10.5,8.1c-7.3,22.5-19.1,42.3-37.2,57.9
		c-21.7,18.6-47.4,25.5-75.5,24.3c-9.3-0.4-18.5-1.6-28.2-2.5c-3.9,13.3-9.7,26.4-18.1,38.4c-11,15.8-23.5,30.1-40.5,39.7
		c-11.9,6.7-25,9.8-38.6,11c-15.1,1.4-30.3,1.5-45.1-2.4c-0.3-0.1-0.6,0.2-1.2,0.4c-5.4,19.6-15.1,37.2-27.7,53.2
		c-13.9,17.6-32.3,27.6-53.7,32.9c-16,4-32.2,5-48.6,2.9c-3.1-0.4-6.3-0.8-9.3-1.7c-3.1-0.9-4.4,0.1-5.3,3.1
		c-9,29.2-25.2,53.7-49.3,72.5c-8.8,6.9-19.9,9.1-30.6,11.3c-17.2,3.5-34.7,4.2-52.2,2.8C979.3,1671.5,975.5,1670.1,971.9,1669.3z"
		/>
</g>
</svg>
