<?xml version="1.0" encoding="utf-8"?>
<!-- Generator: Adobe Illustrator 19.2.1, SVG Export Plug-In . SVG Version: 6.00 Build 0)  -->
<svg version="1.1" id="Layer_1" xmlns="http://www.w3.org/2000/svg" xmlns:xlink="http://www.w3.org/1999/xlink" x="0px" y="0px"
	 viewBox="0 0 1728.3 1439.2" style="enable-background:new 0 0 1728.3 1439.2;" xml:space="preserve">
<g>
	<path d="M979.4,154.6c4.8-6,9.1-11.6,13.5-17.1c23.2-29,51.6-51.3,84.6-68.2c35.8-18.3,73.4-22,112.6-15.4
		c18.3,3.1,36.5,6.7,52.7,15.8C1256,77,1268.2,86,1280.3,95c18.3,13.6,34.5,29.6,48,48.1c2,2.8,3.8,2.7,7.1,2.1
		c13.3-2.6,26.8-5.5,40.3-6.4c30.3-1.8,60.6-0.1,90.5,5.8c22.4,4.4,43.9,11.4,64.3,22.1c16.5,8.6,33,16.9,47.8,28.5
		c28.2,22.2,53.5,47.1,69.3,79.6c7.8,16,12.8,33.5,17.2,50.8c5.4,21,4.4,42.6,1.9,64.1c-2.2,19.5-7,38.2-15.6,55.9
		c-1.7,3.4-1.5,5.7,1.4,8.7c19.4,20.3,33.2,44,43,70.3c7.8,21,14.3,42.2,16.7,64.5c2.2,20.1,1.7,40.2-1.1,60.3
		c-1.9,13.1-6.3,25.4-11.4,37.5c-4.8,11.4-8.1,23.6-13.2,34.9c-3.9,8.7-9.2,16.9-14.6,24.8c-2.4,3.6-2.8,6-0.4,9.6
		c13.4,20.1,24.5,41.4,33.5,63.8c8.8,22,14.9,44.7,18.7,68.1c3.8,23.6,5.8,47.4,4,71.2c-1.2,15.5-4,31-7.1,46.3
		c-5.4,26.1-14.7,51-27.4,74.5c-20.3,37.8-47.4,69.9-81.7,95.9c-27.8,21.1-57.8,38.3-90.4,50.7c-30.8,11.7-62.6,19.1-95.5,21.7
		c-4.4,0.4-5.3,2.8-5.9,5.9c-3.8,17.3-10.2,33.6-18.2,49.4c-14.7,28.7-35.9,51.5-61.6,70.6c-16.6,12.3-33.9,23.4-52.9,31.6
		c-22.6,9.7-46,16-70.3,19.9c-23.5,3.7-47.2,3.8-70.8,2.5c-21-1.1-41.6-4.9-61.8-10.9c-30.2-8.9-58.4-21.8-84.4-39.5
		c-2.8-1.9-4.6-1.2-7.1,0.6c-19.1,13.9-39,26.5-60.4,36.5c-41.7,19.6-85.5,27.7-131.5,23c-32.8-3.3-64.6-10.5-95.5-21.8
		c-32.6-11.9-62.2-29.1-87.3-53.4c-1.1-1-2.2-2-3.3-3c-0.1-0.1-0.3-0.1,0.7,0.1c-6.7,6.2-12.8,12-19.1,17.5
		c-28,24.6-60.9,34.4-97.9,33.7c-53.5-1-93-27.6-125.9-66.8c-11.8-14-20.7-30-27.4-47.1c-0.6-1.5-2.3-3.2-3.7-3.5
		c-23.9-5.2-47.3-12.1-70-21.3c-20.7-8.4-41.5-17-61.8-26.2c-41.7-19-80.4-43.1-116.5-71.3c-22.4-17.5-40.4-39.4-56.8-62.4
		c-11.5-16.1-22.1-32.6-28.5-51.6c-7.6-22.7-10.1-45.6-5-69.3C7.7,967.6,16,945.2,30,925.2c10.8-15.3,24.7-27.1,40.6-36.8
		c0.8-0.5,1.5-1.2,2.7-2.1c-5-6.5-10.1-12.8-14.8-19.3c-16.8-22.8-29.8-47.6-36.8-75.1c-5.9-23.1-6.9-46.6-4.2-70.4
		c2.1-18.4,5.6-36.4,12.3-53.8c7.4-19.3,18.4-36.2,31.1-52.4c27.4-35,63.1-58.3,103.4-75.3c3.8-1.6,6-3.8,5.3-8.2
		c-1.2-7.4-2.2-14.8-3.3-22.2c-4.4-30.8-8.4-61.6-5.8-93c2.6-32,12-61.8,27-90c12.6-23.8,32.9-39.4,55.2-53.2
		c27.5-17.1,58.2-23.6,89.7-27.3c20.8-2.4,41.5-3.2,62.4-1.3c4.5,0.4,6.2-1.4,7.2-5.3c6.2-23,13.6-45.5,24-66.9
		c5-10.3,10.7-20.3,16.9-29.8c9.1-14,17.9-28.5,28.8-41.1c27.7-31.9,60.1-58.3,100.1-73.3c24.4-9.2,49.2-17.4,74.3-24.2
		c19.2-5.3,39.3-4.7,59.1-3c28.6,2.4,56.8,7.3,84.5,14.5c47.1,12.2,89.2,33.8,125.1,67c22.5,20.8,43.1,43.2,61.3,67.8
		C976.9,151.7,977.9,152.8,979.4,154.6z"/>
</g>
</svg>
