<?xml version="1.0" encoding="utf-8"?>
<!-- Generator: Adobe Illustrator 19.2.1, SVG Export Plug-In . SVG Version: 6.00 Build 0)  -->
<svg version="1.1" id="Layer_1" xmlns="http://www.w3.org/2000/svg" xmlns:xlink="http://www.w3.org/1999/xlink" x="0px" y="0px"
	 viewBox="0 0 1373.1 1731.7" style="enable-background:new 0 0 1373.1 1731.7;" xml:space="preserve">
<g>
	<path d="M834.1,1676.7c-17.7,17.8-37.4,30.7-63.3,30.6c-25.5-0.1-46.2-10.3-63.1-30.2c-1.1,2.6-1.9,4.7-2.7,6.8
		c-5.4,14-16,22-30.3,24.7c-18.9,3.6-37.1,1.4-52.2-11.6c-6.3-5.4-11.2-12.5-16.9-19.1c-3.2,3.7-6.6,8.1-10.5,12.1
		c-9.4,9.8-20.6,16.7-34.3,18.9c-15.5,2.5-33.6-11.6-41.1-25.2c-2.3-4.2-5.2-8.2-8.4-13.1c-3.6,6.3-6.3,11.3-9.3,16.2
		c-5.8,9.7-14,16.7-24.1,21.5c-13.9,6.6-32.6,1-42.3-12.8c-2.3-3.2-4.4-6.6-6.9-10.5c-11.1,14.6-24.3,25.3-44,25.1
		c-18.7-0.3-33.8-7.2-45.7-22.4c-12.1,23.4-31.2,37.3-56.4,38.8c-25.2,1.6-45.8-9.3-58.8-32.8c-10.3,20.5-27.2,28-48.5,27.4
		c-21.2-0.6-36.9-10.4-46.9-29.9c-3.7,8.3-6.8,15.6-10,22.8c-5.2,11.7-14.2,17.6-27,17.6c-13.1,0-21.8-6.9-26.9-18
		c-4.1-9-7.2-18.6-9.7-28.2c-3.6-14.3,0.7-27.6,7-40.4c4.7-9.5,3.9-11.3-6.8-13.4c-14.3-2.8-26.1-10-35.2-21.3
		c-7.7-9.6-11.4-20.4-10.5-32.9c0.9-12,1.1-24,6.5-35.1c4.4-9,9.6-17.4,19.5-21.6c1.8-0.8,3.2-2.7,4.9-4.2c-5.6-3-10.9-5.4-15.7-8.5
		C13,1501,6.4,1490,4.6,1476.9c-1.3-9.6,3.7-18.4,10.3-25c5.9-5.9,13.2-10.4,19.9-15.6c0.6-0.5,1.3-0.9,2.7-1.8
		c-14.9-10.1-27.2-21.5-30.3-40.2c-3.1-18.7,2.4-34,16.6-46.1c-19.6-21.5-18.8-40.6,2.4-62.8c-3-2.5-6-4.9-9.1-7.4
		c-15-12.1-19.2-28.2-16-46.5c1.7-9.5,8.4-16.4,15.4-22.6c13.5-11.9,29.5-18.2,46.8-21.8c4.9-1,9.7-2.2,14.9-3.3
		c-5.4-3.8-10.8-7.1-15.7-11.2c-16.7-13.8-26.8-31.9-32.8-52.3c-2.4-8.2,0.5-16,5.4-23.1c8.5-12.3,20.2-20.9,31.6-30.1
		c1.3-1,2.5-2.1,4.7-3.8c-4.4-1.1-8-1.6-11.3-2.8c-10.6-3.8-21.3-7.6-31.6-12c-9-3.9-13.5-12.4-18.6-20.2
		c-5.7-8.7-6.5-17.7-2.7-27.5c4.4-11.4,12.4-19.4,23.5-23.6c10.7-4.1,21.8-6.8,32.9-10.2c-2.7-1.4-5.9-3-9-4.5
		c-13.8-6.8-23.6-16.9-27-32.4c-0.7-3.2-2.1-6.3-3.1-9.5c-4.9-16.3,1.2-33.1,15.6-42.4c4.6-3,9.6-5.2,14.4-7.8
		c0.8-0.5,1.5-1.1,1.9-1.4c-5.1-7.9-10.9-15.1-14.9-23.2c-8.5-17.1-9.4-34.8,1.3-51.3c3.3-5.1,9.5-8.5,14.5-12.5
		c1.6-1.3,3.6-2.2,4.8-2.9c-5.2-10.2-10.8-19.6-14.8-29.7c-3.4-8.7-6-18-7.2-27.3c-1.3-9.8,2.8-13.8,12.5-15.8
		c1.6-0.3,3.2-0.7,5.4-1.2c-2.5-9-4.8-17.6-7.4-26.2c-3.2-10.6-5.2-21.3-3.5-32.5c1.7-11.6,6.9-21,16.7-27.6
		c1.4-0.9,2.7-1.8,4.1-2.8C64,610.5,59.9,605,56.5,599c-5.9-10.3-7.7-22.3-4-32.9c4.4-12.6,10.7-25.2,21.4-34.3
		c3.4-2.9,2.9-4.8,0.7-7.7c-4-5.1-7.9-10.2-11.8-15.4c-6.3-8.3-6.6-12.4-1.2-21.8c0.7-1.2,1.9-2.3,1.8-3.5
		c-0.3-8.1,6.1-8.6,11.4-10.5c1.9-0.7,3.9-1.4,5.2-1.8c-5.2-5.4-10.9-10-14.8-15.9c-3.6-5.3-5.6-11.9-7.7-18.1
		c-1.2-3.4,0.4-6.2,2.8-9.4c7.3-9.8,16.4-17.3,26.4-23.9c0.3-0.2,0.4-0.9,0.6-1.3c-21.9-9.4-24-33.4-18.1-51.5
		c2.8-8.5,7.7-16.3,11.7-24.7c-5.5-1.8-12.5-3.3-18.7-6.4c-8.7-4.4-15.3-11.6-20.1-20.1c-2.5-4.5,0.1-8.7,2.4-12.6
		c5.9-9.9,15.2-16.5,23.2-24.3c4.9-4.7,9.7-9.4,15.1-14.8c-2.6-1.1-4.2-1.8-5.9-2.3c-11.7-4.2-18.4-13.5-19.2-25.9
		c-0.9-15.5,5.6-27.6,16.6-37.8c1.6-1.4,3.1-2.9,5.1-4.7c-9.4-6.6-19.8-11.1-22.2-24.5c-2.3-12.9,2.2-22.2,10.7-31.2
		c-6.5-1.7-12-3-17.5-4.6c-14-4.1-21.3-20.3-16.1-34.1c3.5-9.3,9-17,16.7-22.3c5-3.5,12-4.2,18.2-5.8c3-0.8,6.3-1,9.4-1.3
		c7.1-0.8,7.5-0.7,7.1-8.1c-1-18.1,8.1-30.8,22-40.4c12.5-8.6,26.5-6.4,36.9,4.7c5.7,6,9.9,12.9,12.3,20.8c0.5,1.6,1.2,3,1.7,4.2
		c4.6-3,8.8-6.6,13.7-8.8c16.1-7.5,30.2-0.4,41.3,10.8c4.7,4.8,4.5,5.1,9.7,0.9c11.9-9.6,25.6-14,40.5-11.2
		c14.2,2.6,25.6,10.7,33.8,22.8c1.5,2.1,3,4.2,4.9,6.8c12.6-14.8,27.5-24.1,47.1-25c20.3-0.9,34,9.9,45.6,25.4
		c12.1-12.2,26.4-17.3,42.8-16.8c16.3,0.4,30.6,5.3,41.3,19.2c1.9-3.3,3.1-6,4.8-8.3c8.3-11.3,19.6-15.3,33.5-14.5
		c19.6,1.1,36.2,9,51.4,20.6c0.8,0.6,1.6,1.1,3.2,2.1c5-20.2,19.4-26.3,38.1-28.1c21.3-2,31.1,10.2,37.9,28.2
		c4.2-3.7,7.7-6.9,11.4-9.9c3.7-3.1,7.7-5.8,11.3-8.9c17.6-15,41-7.7,53,2.7c1.7,1.5,3.5,3,5.6,4.8c2.2-5.8,4-11.3,6.2-16.6
		C743.5,12.9,766,2,781.7,12.1c14.6,9.4,28.1,20.7,29,41.4c8.5-6.1,16.2-11.4,23.6-17.1c12.5-9.8,25.8-18.2,41.6-21.3
		c4.9-1,10.2-0.3,15.3,0c13.9,1.1,22.7,9.1,28.3,21.3c0.3,0.7,1,1.3,1.8,2.4c2.1-3.4,4.1-6.4,5.9-9.5c11.4-19,27.9-20.4,44.4-7.2
		c6.5,5.2,11.7,12,17.7,18.4c0.5-0.9,1.4-2.6,2.4-4.4c5.4-10.1,14.4-15.4,24.8-18.8c16.4-5.5,29.6,0.2,37.4,15.8
		c1.8,3.7,3.4,7.4,5.4,11.8c11-13.7,24-20.5,41.8-15.7c16.9,4.5,26.7,15.1,31.4,33c4.2-6.8,7.9-12.5,11.3-18.5
		c3.4-6.1,6.5-12.3,9.8-18.5c6.8-12.9,19-14.2,29.1-3.1c4.7,5.1,9.5,10.1,14.5,15c3.7,3.6,4.9,3.1,6.9-1.6c1.6-3.8,3.5-7.5,5.6-11.1
		c2.4-4.1,5.9-6.4,10.8-7c3.9-0.5,7.7-2.7,11.5-2.7c20.1,0.4,27.9,5,37.4,24.4c2.8,5.6,4,12.1,6.1,18.7c4.5-1.5,10-3.5,15.7-5
		c17.9-4.8,34.5-0.6,48.5,10.3c16.4,12.8,14.8,29,0.7,46.6c-2.8,3.6-6.8,6.3-10.4,9.2c-4.2,3.5-4.3,4.3-0.2,7.8
		c9.3,7.7,13.1,19,9,29.8c-1.5,4-4.9,7.3-7.9,10.5c-2.6,2.7-5.9,4.8-9.5,7.6c1.6,1.3,3.1,2.5,4.6,3.6c8.3,6.1,15.6,13,17.6,23.7
		c2.8,14.6-5.2,29.7-20.5,37.5c-8.4,4.3-17.2,7.7-26.3,11.8c2.9,2,5.7,4.1,8.6,6.2c8.3,6.1,15,13.6,19.2,23.1
		c5.3,11.9,3.6,22.4-5.5,32c3.2,3.3,6.5,6.4,9.5,9.9c8,9.5,11.5,20.4,7.1,32.4c-3.2,8.7-10.4,14.4-17.7,19.7
		c-2.4,1.7-4.9,3.4-7.7,5.3c9.1,9.2,21.1,16.4,21.5,31c0.5,13.8-4.6,25.3-16.2,33.8c5.3,5,10.3,9.5,15.2,14.2
		c8.7,8.3,14.1,18.5,16.7,30.1c2.5,10.8-1.5,19.8-9.8,26.6c-7.2,5.8-15,10.8-22.7,16.2c2.9,0.5,6,1.2,9.2,1.7
		c15.3,2.6,24.8,13.8,27.3,28.8c4.4,26.2-9.7,42-29,55.4c-1.6,1.1-3.4,2.1-5,3.2c-0.2,0.2-0.3,0.5-1,1.5
		c18.7,8.7,28.6,23.8,32.2,43.9c3.7,20.7-2.5,37.6-19.1,51.4c18.7,8.7,27.8,23,27.6,43.2c-0.2,19.7-10.3,34.1-24.5,46.8
		c4.4,2.9,8.7,5.4,12.5,8.4c13.4,10.4,21.3,23.7,17.4,41.2c-3.9,17.4-13.1,31.8-27.8,42.5c-0.7,0.5-1.4,0.9-2,1.4
		c-0.8,0.6-1.6,1.2-3,2.3c17.9,8.3,30.3,20.1,30.3,41.3c0,19.7-7.4,35.1-24.6,45.5c4.7,4,9.1,7.4,13.1,11.3
		c7.4,7.2,10.6,16.1,11.5,26.3c0.8,8.3,1.5,16.6-4.4,23.2c-4.5,5-9.9,9.2-14.9,13.7c-0.6,0.5-1.2,1-2.5,2
		c17.8,9.4,29.1,22.4,24.4,43.6c-4.3,19.1-16.5,31.4-35.9,37.6c5.9,4.5,11.1,8.5,16.2,12.6c18.2,14.4,27.5,33.8,30,56.4
		c1.7,15.8-6.5,34.7-26.5,40.1c-3.5,0.9-6.9,2.4-10.9,3.8c2.6,5.1,5.3,10.1,7.6,15.3c5.4,11.9,11.9,23.6,13,37
		c1.2,14.7,3.4,29.7-4.2,43.5c-6,10.8-15.5,17-27.7,18.9c-1.8,0.3-3.5,0.5-6,0.9c8.9,18.3,12.1,36.8,7.4,56.2
		c-4.8,19.6-15.9,34.5-34.9,44.2c1.6,0.9,2.5,1.6,3.6,2c16.1,7.1,28.8,17.2,32.2,35.7c3.3,18.3-2.1,33.1-17.6,43.9
		c-0.8,0.6-1.6,1.2-2.4,1.8c-0.1,0.1-0.1,0.3-0.1,0.2c16.6,8.4,28,20,25.3,40.3c-1.3,9.4-6.8,16.9-12.9,23.7
		c-6.5,7.2-16.3,6.2-25.4,8c1.5,2.9,2.8,5.7,4.3,8.4c6.9,12.4,5.9,23.1-3.5,34.7c-18.3,22.4-54.9,29.5-76,19.3
		c-3.4-1.6-6.5-3.9-9.7-5.8c-3.1,2.9-6,6-9.3,8.7c-9.3,7.7-19.3,6.2-29.5,2.2c-10.3-4.1-18.9-10.3-25.6-19c-0.9-1.2-1.8-2.4-2.8-3.7
		c-4,3.1-7.2,6-10.7,8.4c-7.3,5-15.1,9.2-24.1,9.9c-14.2,1.2-28.3,4.7-42.5-0.3c-7.9-2.7-13.8-7.7-18.6-14.2
		c-0.7-0.9-1.4-1.8-2.5-3.3c-2.2,3.2-4.2,6.1-6.2,9c-9.7,13.9-22.9,19.4-39.8,19c-27.2-0.6-46.7-14-62.5-34.6
		c-1.1-1.4-2.3-2.8-4.1-5.2c-9.2,18.3-22.8,29.7-43.8,30.5C866,1696.8,849.2,1690,834.1,1676.7z"/>
</g>
</svg>
