<?xml version="1.0" encoding="utf-8"?>
<!-- Generator: Adobe Illustrator 19.2.1, SVG Export Plug-In . SVG Version: 6.00 Build 0)  -->
<svg version="1.1" id="Layer_1" xmlns="http://www.w3.org/2000/svg" xmlns:xlink="http://www.w3.org/1999/xlink" x="0px" y="0px"
	 viewBox="0 0 1727.3 1732.8" style="enable-background:new 0 0 1727.3 1732.8;" xml:space="preserve">
<g>
	<path d="M997.1,89.5c-1.4-12.5-2.5-22.5-3.7-32.4c-1.5-12.3-0.9-24.3,4.2-35.7c4.8-10.5,13.2-16.6,24.4-19.4
		c11.6-2.8,23.1-2.4,34.6,0.6c14.2,3.7,25.5,18.2,25.8,34.4c0.2,12.1-1.1,24.2-2,36.3c-1,12.8-1.8,25.6,2.3,38.1
		c3.6,11.1,12.8,17.9,25.3,18c11.5,0.2,20-5.2,23-16.7c2.3-8.7,3.2-18,3-27c-0.3-13.9-2.6-27.8-3-41.8c-0.2-6.8,1.4-14,3.7-20.4
		c4.2-11.8,13.2-18.6,25.4-21.5c12.3-2.9,24.6-2.8,36.5,1.1c17.9,5.8,25.4,18.5,26.7,37c0.7,10-1,20.2-1.9,30.3
		c-1.1,13.1-2.4,26.2,0.8,39.2c1.7,6.8,4.7,12.9,11.1,16.5c11.5,6.6,32.3,4.4,38.3-14.4c5.4-16.6,3-33.2,0.9-50
		c-1.6-12.3-2.1-24.6,2.1-36.6c4.3-12.3,12.7-19.8,25.3-23c12.1-3.1,24.2-2.9,36,0.7c15.2,4.7,24.9,18.4,25.4,36.9
		c0.3,9.8-1.1,19.6-1.9,29.3c-1.1,13.1-2.6,26.3,0.9,39.2c4.3,16.1,16.8,23.8,31.9,20.3c7.7-1.8,13.2-9,14.3-19.6
		c2.2-21.5,4.3-43,6.3-64.6c1-10.1,3-20.3,9.9-27.8c9.3-10.3,20.6-17.8,35.9-14.8c5.9,1.2,11.9,1.5,17.6,3.2
		c16.3,4.7,28.8,23,26.9,39.7c-1,8.7-3.4,17.2-5.3,25.8c-3.8,17.5-8,35-11.4,52.6c-0.9,4.7-0.8,10.1,0.5,14.7
		c2.2,8.3,10.2,11.4,17.3,6.6c5.1-3.4,9.6-8.1,13.3-13c13.3-17.2,25.9-34.9,39.1-52.1c6.3-8.2,14.6-15,24.7-16.7
		c12.1-2.1,24.4-1.6,35.4,6.2c21.9,15.4,31.3,47.7,7.9,71.8c-12.8,13.2-26.3,25.6-39.3,38.7c-5,5-9.4,10.7-13.7,16.3
		c-3.5,4.6-5.2,10.2-1.7,15.3c4.1,6,10.6,8.3,17.6,6.5c6.7-1.7,13.3-4.2,19.7-6.8c12.3-5,24.3-10.7,36.6-15.6
		c6.9-2.8,14-5.6,21.3-6.6c27.9-3.9,42.1,5.8,51.9,35.3c2.5,7.6,1.6,15.1-0.6,23c-1.8,6.5-3.9,12.2-8.5,16.9
		c-8.9,9-20.3,13.3-32.1,15.9c-18.3,4.1-36.8,7.2-55.2,10.8c-4.2,0.8-8.5,1.9-12.5,3.5c-9.9,4.1-12.9,12.9-8.6,23.5
		c3.1,7.6,8.8,12.3,16.4,14.8c15.9,5.2,31.9,2.5,48,1c11.1-1,22.7-1.1,33.7,0.8c14.9,2.5,24,12.3,27.5,27.3
		c3,12.4,2.8,24.6-1.5,36.4c-6.4,17.7-21.3,23.3-38.3,24.2c-7.7,0.4-15.6-1-23.4-1.4c-12.3-0.5-24.6-1.6-36.8-1
		c-9.6,0.5-18.8,4.1-23.7,13.4c-7.8,14.9-4.8,37.5,21.7,41.9c12.7,2.1,25.2,0.9,37.8-0.7c12.1-1.6,24.2-2.7,36.2,0.4
		c15.3,3.9,24.5,13.7,28.1,29.1c2.8,12.2,2.6,24.1-0.8,36c-4,14-16.9,24.3-33.9,25c-13.4,0.5-26.9-1.2-40.3-2.1
		c-12.8-0.9-25.6-1.6-37.9,3.3c-9.8,4-14.3,11.4-14.4,21.7c-0.1,10.4,3.5,18.9,13.2,23.8c10,5,20.8,5.9,31.6,5.2
		c9.6-0.6,19.2-1.9,28.8-3c11.1-1.2,21.9-0.6,32.4,3.5c11.1,4.3,17.6,12.4,20.8,23.6c2.9,10.1,3.3,20.4,1.1,30.7
		c-4.1,19.2-16.5,30.5-36.6,31.2c-12.6,0.4-25.2-1.2-37.8-2.1c-13.2-1-26.3-1.7-38.8,3.7c-10.3,4.4-15.9,14.4-14.7,26.3
		c1.1,11.6,8,19.1,19.2,21.8c13.4,3.2,26.7,2.1,40.2,0.7c11-1.1,22.3-1.9,33.3-1.1c19.4,1.4,31.4,13.4,35,31.8
		c2.6,13.5,2.4,26.8-3.7,39.6c-5.2,11-14.5,16.4-25.9,18.9c-13.3,3-26.5,1-39.7-0.7c-13-1.6-25.9-2.5-38.7,0.7
		c-9.4,2.3-18.7,7.8-19.8,21.9c-0.9,11.9,4.4,21.7,14.8,26.3c13.4,5.9,27.3,4.9,41.3,3.5c13.6-1.4,27-3.8,40.7-1.2
		c16.4,3.2,26.8,12.2,30.6,28.6c2.9,12.2,2.6,24.2-1.6,35.9c-6.6,18.1-21.7,23.7-39.2,24.2c-8.9,0.3-18-0.8-26.9-1.9
		c-13-1.6-25.9-2.5-38.7,0.7c-9.6,2.4-17.4,7.5-19.9,17.5c-2.4,9.4-2.3,19.1,5.7,26.4c6.9,6.3,15.7,8.3,24.5,8.3
		c12.1,0,24.3-1,36.3-2.2c11-1.1,22-1.8,32.7,1.2c14.2,4,23.2,13.4,26.6,28c3.3,14.2,3.4,28.1-2.6,41.5c-5.6,12.4-16,18-28.8,20.2
		c-15.4,2.6-30.5-0.7-45.7-2.3c-12.6-1.3-25-1.1-36.8,4.2c-9.4,4.2-13.3,12.1-13.1,22.1c0.2,10.9,4.7,19.4,15,23.8
		c11,4.7,22.7,5,34.4,3.9c9.5-0.9,18.9-2.8,28.3-2.8c8.7-0.1,17.8,0.5,26.1,2.9c12.7,3.6,20.4,12.9,23.5,26
		c3.2,13.4,2.9,26.5-2.5,39.1c-5.7,13.2-16.8,20.1-30.5,20.7c-14.2,0.6-28.5-1-42.8-2c-13.1-0.9-26-1.1-38.1,4.8
		c-10.3,5-13.7,13.9-13.4,24.7c0.3,10.6,5.5,17.8,15.6,21.4c10.6,3.8,21.5,4.2,32.5,3.1c9.4-0.9,18.8-2.4,28.3-3
		c14-0.9,27.9,0.3,39,10.1c13.1,11.6,14.6,27.4,13.5,43.5c-0.8,11.9-4.3,22.9-14.4,30.5c-6.7,5-14.5,8-22.7,8
		c-11.9-0.1-23.9-1.2-35.8-2.1c-13.3-1-26.5-2.1-39.6,2.2c-11.6,3.8-18.1,14.5-16,26.4c1.2,6.7,5.8,10.7,11.7,12.4
		c9.4,2.7,19,4.9,28.7,6.1c21.9,2.8,43.3,6.8,62.7,18.2c5.6,3.3,11.6,6.3,13.7,13.1c3.6,11.8,5.1,23.4,0.5,35.6
		c-5.6,15-14.2,26.7-30.3,31c-4.3,1.1-9.2,0.8-13.8,0.4c-14.1-1.3-26.7-7.4-39.7-12.5c-14.2-5.5-28.6-10.8-43.1-15.5
		c-3.7-1.2-8.7-0.3-12.5,1.1c-8,3-10.7,11.1-5.6,17.8c6,7.9,13,15,20,22.1c11.1,11.2,23,21.5,33.6,33.2c9.6,10.5,15.8,22.8,14,38
		c-1.7,13.8-8.5,24-19.6,32c-8.1,5.8-17.5,7.7-26.8,10c-1.1,0.3-2.4,0.2-3.5-0.1c-13.2-3.7-25.6-8.2-34.1-20.5
		c-12.7-18.4-26.4-36.1-39.7-54c-1.7-2.2-3.6-4.4-5.8-6.1c-9.4-7.7-21.3-3.4-22.4,8.8c-0.7,7.1,0.6,14.6,2.1,21.7
		c4.3,19.5,9.6,38.7,13.8,58.2c5.9,26.7-7,44-34.4,51.1c-18.3,4.7-34.2,0.5-46.3-14.8c-6.2-7.9-7.6-17.3-8.6-26.7
		c-2.3-21.5-4.2-43.1-6.4-64.6c-1.2-11.5-7.8-18.3-18-19.3c-12-1.1-22.8,5.6-26.8,16.6c-5.1,14.3-3.8,28.9-2.2,43.5
		c1.4,12.3,3.4,24.4,0.9,36.7c-3.3,16.4-12.3,27.1-29.1,30.8c-11.7,2.6-23.3,2.4-34.5-1.3c-14.9-4.8-24.6-18.2-24.8-35.1
		c-0.2-11.3,1.2-22.6,2-33.8c1-13.3,2.1-26.5-2.2-39.6c-3.7-11.1-12.9-17.8-25.3-17.9c-11.7-0.1-19.4,5.6-23.3,17.3
		c-4.6,13.9-3.2,28-1.5,42.1c1.6,13.9,3.7,27.7-0.4,41.6c-3.6,12.3-11.1,20.7-23,24.8c-14.1,4.9-28.5,5.1-42.7,0.4
		c-13.6-4.5-20.6-14.9-23.5-28.5c-2.6-12.5-0.8-24.8,0.7-37.2c1.7-14.5,3.3-29.2-1.5-43.5c-3.9-11.6-12-17.1-23.6-16.8
		c-12.5,0.3-21.6,7.1-25,18.3c-5,16-2.8,31.9-0.8,48c1.6,12.7,2.5,25.5-2,38c-4.3,12.3-12.8,19.7-25.4,22.9
		c-12.1,3.1-24.2,2.9-36-0.8c-15.8-5-24.9-18.7-25.5-38.5c-0.3-8.1,1.2-16.3,1.5-24.4c0.5-12.3,1.5-24.6,0.8-36.8
		c-0.5-9.1-4.2-17.6-12.5-22.8c-17-10.6-35.3-2.1-39.6,18.4c-3,14.1-0.7,28.1,0.5,42.2c1,11.3,1.3,23.1-0.6,34.2
		c-2.7,15.9-13.6,25.2-29.5,28.6c-11.8,2.6-23.6,2.7-35.1-0.8c-15.5-4.8-23.7-16.4-25.2-32.1c-0.9-9.8,0.1-19.9,0.5-29.8
		c0.5-10.5,2.1-20.9,1.7-31.4c-0.3-7.3-2.2-14.8-5.1-21.6c-3.8-8.9-12-12-21.3-11.8c-9.7,0.2-17.9,3.7-22.6,12.9
		c-5.8,11.4-6.4,23.6-5.3,36.1c0.8,9.3,2.2,18.5,2.9,27.8c0.8,9.9,0.2,19.6-3.4,29c-4.5,11.6-12.9,18.5-24.8,21.5
		c-11.4,2.9-22.7,2.5-34.1-0.2c-14.5-3.4-25.8-16.5-26.6-34.1c-0.6-13.5,1.1-27.2,2.1-40.8c1-12.7,1.2-25.3-3.9-37.3
		c-4.3-10.1-14.8-15.9-26.4-14.8c-11.4,1.2-18.8,8-21.6,18.9c-3.6,13.7-2.6,27.4-0.7,41.2c1.7,12.2,2.8,24.5,0.7,36.8
		c-2.6,15.1-14.2,27.1-29.4,30.3c-14.2,3-28.1,3.2-41.5-2.9c-10.8-5-16.4-14-19.1-25.2c-3.4-14.3-0.8-28.5,0.7-42.7
		c1.5-14.3,2.7-28.6-3-42.4c-4-9.8-11.8-14.1-22-14.1c-10.6,0-19.2,4-23.8,14.1c-6.5,14.1-5.2,28.9-3.6,43.7
		c1.3,12.6,3.4,25,1.3,37.8c-3,17.7-12.6,28.9-30.4,32.3c-13.4,2.6-26.7,2.3-39-4c-13.8-7-18.7-19.9-19.3-34.2
		c-0.4-10.2,0.6-20.6,1.8-30.9c1.4-12.5,1.9-24.9-0.6-37.3c-3.8-18.6-25.5-28.1-40.8-17.4c-8.9,6.2-11.4,16.1-11.5,25.9
		c-0.1,12.9,0.9,25.9,2.2,38.8c1,10.7,1.5,21.4-1.4,31.7c-4.4,15.6-15.3,23.9-31,27.4c-22.4,5-41.8-3.8-51.3-24.1
		c-4.4-9.3-4.4-19.4-5.1-29.3c-1.2-17.4-1.5-35-3.4-52.3c-0.8-7.2-4.1-14.3-7.1-21c-2.2-4.9-9.4-6-13.8-1.7
		c-5.3,5.3-10.8,11.3-13.4,18c-6.9,17.6-12,35.8-18.4,53.7c-3.8,10.5-10.1,19.6-17.9,27.8c-7.4,7.8-16.6,8.5-26.2,6.9
		c-11.4-1.9-22.2-5.4-31.4-12.9c-15-12.1-19.6-33.3-10.2-50.4c12-22,24.3-43.8,36.7-65.6c5.5-9.7,4.9-16.6-2.6-22.6
		c-6.4-5.1-13.3-3.6-19.1,0.2c-9.8,6.4-19.3,13.4-28.3,21c-7.3,6.2-14.4,12.5-23.1,16.9c-6.6,3.4-12.4,8.4-19,11.9
		c-13.2,7-26.1,5.7-37.7-3.5c-14.5-11.3-26.2-35.9-19.2-55.6c2.9-8.1,8.4-14.1,14.8-19.5c12.6-10.6,27.8-16.6,42.4-23.9
		c10.6-5.3,20.9-11.4,30.8-18c2.8-1.9,4.6-6.5,5.3-10.2c1.4-7.5-3.1-12.9-10.8-13.6c-17.6-1.6-34.8,0.8-52.1,3.4
		c-19,2.9-38.2,3.4-56.1-5.7c-9.4-4.8-14.4-13-16.7-23c-3.7-16-2.7-31.5,6.1-45.7c6.1-9.9,15.9-14.3,26.9-16.1
		c14.9-2.4,29.5,0.7,44.3,2.2c13.2,1.3,26.3,1.3,38.5-5c6.5-3.3,10.3-8.6,11.2-16c2.5-19-7.9-29.2-25.2-32.2
		c-17.4-3-34.5,1.3-51.7,2c-8.8,0.4-18.1-0.5-26.6-2.9c-12.5-3.6-20.1-12.7-23.3-25.6c-3.3-13.4-3-26.5,2.3-39.2
		c5.7-13.4,16.9-20.4,30.8-21c14.2-0.6,28.5,1.1,42.8,2.1c13.1,0.9,26,1.1,38.1-4.9c10.1-5,13.4-13.8,13.3-24.3
		c-0.2-10.9-5.5-18.1-15.8-21.8c-10.6-3.8-21.5-4.1-32.5-3c-9.1,0.9-18.2,2.8-27.3,2.8c-9.4,0.1-19.1-0.3-28.1-2.8
		c-12.3-3.3-20-12.3-23.4-25c-3.3-12.5-2.7-24.7,0.5-37c4-15.3,18.6-26.9,35.6-27.2c11.8-0.2,23.6,1.2,35.3,2.1
		c13,0.9,25.9,2.1,38.6-2c10.9-3.6,16.7-10.9,17.1-22.4c0.4-12.2-5.9-22-16.5-25.8c-14.4-5.1-29.3-3.8-44-2.1
		c-12.3,1.4-24.4,3.3-36.8,0.7c-16-3.3-26.4-12.2-30.3-28.5c-2.8-12-2.5-23.9,1.3-35.5c4.8-14.5,18.3-24.2,34.9-24.5
		c11.3-0.2,22.6,1.2,33.8,2c13.3,1,26.5,2.2,39.6-2.1c11.2-3.7,17.8-12.6,17.9-25.2c0.2-11.9-5.4-19.5-17.1-23.4
		c-13.9-4.6-28-3.2-42.1-1.6c-13.1,1.5-26.1,3.6-39.2,0.6c-15.3-3.4-25.3-12.2-29-27.9c-3-12.5-2.6-24.9,1.3-37
		c5.3-16.4,19-25.8,38.4-26.4c8.3-0.3,16.6,1.1,24.9,1.4c12.3,0.5,24.6,1.2,36.9,1.1c6.8-0.1,13.4-2.7,18.7-7.4
		c8.2-7.2,8.4-16.7,6.3-26.2c-2-9-8.5-14.4-17.1-17.1c-15.9-5.2-31.9-2.9-48-0.9c-12.9,1.6-25.9,2.5-38.5-2
		c-11.6-4.2-18.9-12.3-22.3-24.2c-3.6-12.7-3.5-25.5,0.8-37.9c6.1-17.5,20.6-23.5,37.5-24.6c8.1-0.5,16.3,1,24.4,1.3
		c12.3,0.5,24.6,1.5,36.8,1c9.5-0.4,18.5-4,23.5-12.9c7.6-13.5,6-34.6-18.4-39.4c-14.2-2.7-28.2-1.3-42.2,0.7
		c-11.9,1.6-23.9,2.4-35.7-0.5C14.6,627.4,5.4,618.2,2,603.2c-3.3-14.6-2.6-28.9,3.8-42.4c6.1-12.7,17.4-18.6,30.8-19.8
		c9-0.8,18.3-0.3,27.4,0.6c14.1,1.3,28.1,3.6,42.3,0.8c7.8-1.5,15.1-4.2,19.6-11.4c7.4-11.8,4.9-34-16.2-39.6
		c-14-3.7-28-2.7-42.1-0.7c-13.2,1.8-26.5,3.2-39.6-0.6c-13.8-4-22.3-12.9-25.7-26.9c-3-12-2.8-23.9,1.1-35.5
		c5.3-15.9,17.7-23.8,33.6-24.5c13.5-0.6,27.2,1.1,40.8,2.1c12.5,0.9,25,1.2,36.9-3.8c10.3-4.3,16-14.3,15-26.2
		c-1-11.7-7.7-19-19-22c-13.7-3.6-27.4-2.5-41.2-0.6c-12.6,1.7-25.1,3-37.8,0.7C17,350.8,5.9,340.4,2.4,326
		c-3.6-14.8-3.3-29.2,3-43.5c3.8-8.6,11.1-12.9,19-15.8c7.5-2.8,15.7-4.1,23.7-4.9c14.5-1.4,28.7,1.6,43.1,3.6
		c12.1,1.6,24.6,1,36.8,0.7c4.5-0.1,8.4-2.9,9.8-7.4c1.7-5.3-0.2-10.3-4.5-13.3c-7.7-5.4-15.9-10.2-24-15
		c-14.7-8.6-30-16.5-44.3-25.7c-26.6-17.2-28.3-41.4-12.8-65.9c3.5-5.5,8.3-10.5,13.4-14.4c7.3-5.6,16.4-6,25.2-4.4
		c22.8,4.2,39.3,18.7,55.8,33.7c8.3,7.5,17.2,14.6,26.7,20.6c10.2,6.4,17.6,0.4,22.9-7.7c3.3-5.1-0.1-10.4-2.6-15
		c-10-18.2-20.3-36.2-30.4-54.2c-5.9-10.5-11.3-21-10.8-33.7c0.5-13.6,5.8-24.5,17.4-31.8c5.7-3.6,11.9-6.5,18.1-9.2
		c5.8-2.6,11.9-1.4,18.1-1.1c12.1,0.6,18.7,7.6,25.6,16.2c9.2,11.4,13.7,24.4,17.3,38.2c4.5,17.4,10.2,34.3,21.5,48.9
		c5.9,7.7,16.2,6.7,20.4-2.1c3.5-7.3,4.8-14.9,5.2-23.1c1.1-21.7,1.8-43.7,5.6-65c4.6-26.1,27.4-38.9,53.2-33.4
		c15.8,3.4,27.1,11.6,31.6,27.4c3,10.4,2.5,21,1.4,31.7c-1.2,12.7-2.4,25.6-2.1,38.3c0.2,6.9,2.6,14.1,5.7,20.3
		c4.2,8.5,12.6,10.8,21.7,10.3c9.9-0.5,17.6-4.7,21.9-13.9c6.5-14.1,5.2-28.9,3.7-43.7c-1.3-12.7-3.5-25.3-1.2-38.3
		c3-17.3,12.3-28.2,29.7-31.8c13-2.7,25.8-2.4,38.1,3.2c11.3,5,17,14.3,19.6,25.9c3.1,13.6,0.8,27.2-0.7,40.7
		c-1.6,14.6-2.9,29.2,3.3,43.2c4.7,10.6,15.1,16.2,26.8,14.7c11.8-1.5,19.2-9.1,21.6-20.8c3.3-16.2,0.4-32.1-0.7-48.2
		c-0.7-10.7-0.9-21.8,1.3-32.2c2.9-14,12.6-23,27-26c16.1-3.4,31.8-3,46.3,5.9c9.8,6,14.1,15.5,16.1,26.4
		c2.9,15.9-0.9,31.5-2.3,47.2c-1,12.1-0.6,24,4.6,35.2c3.2,6.7,8.4,11,15.9,12.1c18.4,2.8,29.2-6.7,32.6-23.5
		c2.9-14.3,1.1-28.5-0.9-42.8c-1.6-11.8-2.2-23.7,1.2-35.2c3.9-13.2,12.6-22,26.3-25.2c13.6-3.2,27.1-3.1,40.1,2.6
		c12.4,5.5,18.2,15.9,20.3,28.7c2.6,15.4-0.6,30.5-2.1,45.8c-1.3,12.6-0.8,25,4.9,36.6c4.9,10.1,13.6,13.7,24.2,13.5
		c10.5-0.2,17.9-5,21.7-15.2c4.3-11.2,4.3-22.8,3.3-34.5c-0.9-9.6-2.9-19.2-2.9-28.8c-0.1-8.5,0.6-17.4,3-25.6
		c3.7-12.7,13-20.4,26.1-23.4c13.5-3,26.9-2.7,39.7,2.3c14.7,5.8,22.1,17.8,22.9,32.8c0.6,12.7-1.1,25.5-2,38.3
		c-0.9,12.2-1.7,24.2,2,36.1c3.5,11.2,10.9,17.3,22.4,17.8c12.1,0.5,22.6-5.7,25.7-16.5C995,104.6,996,95.8,997.1,89.5z"/>
</g>
</svg>
