<?xml version="1.0" encoding="utf-8"?>
<!-- Generator: Adobe Illustrator 19.2.1, SVG Export Plug-In . SVG Version: 6.00 Build 0)  -->
<svg version="1.1" id="Layer_1" xmlns="http://www.w3.org/2000/svg" xmlns:xlink="http://www.w3.org/1999/xlink" x="0px" y="0px"
	 viewBox="0 0 980 981.9" style="enable-background:new 0 0 980 981.9;" xml:space="preserve">
<g>
	<polygon points="278.4,608 278.4,608 278.2,608 278.2,608.1 	"/>
	<polygon points="268.7,595 192.3,393.9 135.8,493.4 	"/>
	<polygon points="701.7,608 701.6,608 701.7,608 701.7,608 	"/>
	<polygon points="193.1,383.5 193.1,383.5 193,383.5 	"/>
	<polygon points="708.9,225.8 786.7,373.4 843.4,247.6 	"/>
	<polygon points="476.7,155 342.5,101.9 288,212.6 	"/>
	<polygon points="844.8,238.8 819.2,34.5 646,98.8 703.7,216 	"/>
	<polygon points="197.9,383.8 281.9,605 490,731.5 698.1,605 782.2,383.7 697.9,223.8 489.9,160.3 282.4,223.6 	"/>
	<polygon points="637.6,101.9 503.4,155 692.2,212.7 	"/>
	<polygon points="844.3,493.4 787.8,393.9 711.4,594.9 	"/>
	<polygon points="271.3,225.8 136.7,247.5 193.4,373.5 	"/>
	<polygon points="334.1,98.7 160.9,34.5 135.4,238.7 276.4,215.9 	"/>
	<polygon points="850.5,486.5 966.7,323 851.8,250.5 792,383.3 	"/>
	<polygon points="500.3,735.7 639.9,785.9 693.8,618 	"/>
	<path d="M956,173.2c-16-43.1-38-78.5-65.5-105c-24.3-23.5-52.9-40.2-90.1-52.6c-38.6-12.8-76.6-17.4-123.5-15
		c-25.7,1.3-56.4,4.8-89.5,20.8c-37.2,18-65.2,43.1-96,87.2l-1.9-0.1c-30.8-44.1-59.8-69.1-97-87.1C359.5,5.5,328.7,1.9,303,0.6
		c-46.9-2.5-84.9,2.2-123.4,15C142.5,28,113.8,44.7,89.5,68.2C62,94.7,40,130.1,24,173.2C5.4,223.7-2.5,277.5,0.7,333.1
		c3.1,56,18.3,122.3,43.9,191.7c24.9,67.6,55,125,92,175.4c37.6,51.2,86.1,100.7,144.2,147C334.1,889.8,490,981.9,490,981.9
		l-3.4-2.8L336.8,798L284,844.6l-5.9-6.6l51.3-45.3l-193.3-94.4l2-4l-4.4,0.2l-7.8-194.1l-76.8,22l-2.4-8.5l76.3-21.8L3.5,324.3
		l3.6-2.5L4.8,318l117-73.9l-94.2-57.9l4.6-7.5l94.5,58l26.1-208.9l4.4,0.6l1.6-4.2l178.4,66.1l18-76.5l8.6,2l-18.3,77.7L485.6,149
		v-32.4h8.9V149l140.1-55.5l-18.3-77.7l8.6-2L643,90.4l178.4-66.2l1.5,4.1l4.4-0.5l26.1,208.8l94.5-58l4.6,7.6l-94.2,57.9L975.4,318
		l-2.4,3.8l3.6,2.5L857.3,492.2l76.3,21.9l-2.4,8.5l-76.9-22.1l-7.8,194.1l-4.3-0.2l1.9,4l-193.3,94.4L702,838l-5.9,6.6L643.3,798
		L493.5,979l-3.5,2.8c0,0,155.9-92,209.3-134.6c58.2-46.3,106.7-95.8,144.2-147c37.1-50.6,67.2-108,92-175.4
		c25.6-69.4,40.7-135.7,43.9-191.7C982.5,277.5,974.6,223.7,956,173.2z"/>
	<polygon points="650,783.2 837.7,691.6 845.2,503.8 705.5,610.6 	"/>
	<polygon points="128.3,250.6 13.5,323 129.6,486.4 188.1,383.3 	"/>
	<polygon points="490,741.4 344.7,793.6 490,969.3 635.3,793.6 	"/>
	<polygon points="134.9,503.9 142.4,691.5 330,783.1 274.6,610.7 	"/>
	<polygon points="286.2,617.9 340.2,785.9 479.8,735.7 	"/>
</g>
</svg>
