<?xml version="1.0" encoding="utf-8"?>
<!-- Generator: Adobe Illustrator 19.2.1, SVG Export Plug-In . SVG Version: 6.00 Build 0)  -->
<svg version="1.1" id="Layer_1" xmlns="http://www.w3.org/2000/svg" xmlns:xlink="http://www.w3.org/1999/xlink" x="0px" y="0px"
	 viewBox="0 0 1680.5 1413.3" style="enable-background:new 0 0 1680.5 1413.3;" xml:space="preserve">
<path d="M71.1,160.5c9.5-9.2,18.5-18.9,28.5-27.5c24.9-21.2,52.2-38.7,81.8-52.5c14-6.5,28.9-10.1,44-12.2
	c9.3-1.3,18.7-1.9,26.3-2.7c-37.9,9.5-76.4,21.3-107,51.5c7.7-1,14.6-1.9,21.6-2.7c18.6-2.2,36.9-0.4,55.2,2.8
	c9.7,1.7,19.2,4,28.8,5.8c1.5,0.3,3.4-0.5,4.9-1.3c4.2-2.1,8.1-5.5,12.5-6.4c5.9-1.1,7.6,1.5,6.3,7.3c-1.6,6.8-1.7,7.5,5.4,9.6
	c15.6,4.6,31.4,8.5,47.1,12.6c7.2,1.9,14.5,3.5,21.8,5.2c1.7,0.4,3.5,0.7,5.8,1.2c0.2-1.9,0.4-3.3,0.4-4.8c0.3-4.9,1.8-6.4,6.5-5.6
	c3.9,0.7,7.6,1.8,11.3,3.7c-3.6-0.4-7.3-0.8-11-1.2c0.2,8.5,22.7,16.2,36.2,16.2c-5.7-3.8-10.6-7.1-15.5-10.4
	c0.3-0.4,0.5-0.9,0.8-1.3c6.7,3.4,13.5,6.7,20.2,10.2c6.5,3.4,12.3,7.9,20.3,8.3c4.6,0.2,9.2,2.6,13.8,3.8c1.4,0.4,2.9,0.7,4.2,0.4
	c3.5-0.9,7-2.1,10.4-3.4c4.4-1.6,5.4-4,2.8-7.9c-5.6-8.6-11.1-17.4-17.5-25.4c-3.6-4.6-8.9-7.9-13.6-11.6
	c-11.8-9.1-23-19.5-35.9-26.5c-16.6-9.1-34.8-15.5-52.2-23.1c-1.3-0.6-2.6-1.2-3.8-2.3c36,9,71,20.1,101.3,43.8
	c0.2-3.3,0.4-6.1,0.6-9.6c7.7,3,14.9,4.6,20.7,11.3c10.3,12,21.1,24.2,36.5,30c7.4,2.8,15.2,4.6,23,5.8c17.8,2.7,36.1,3.7,52.4,11.5
	c15.4,7.4,31.4,14.9,39.7,31.6c1.8,3.7,2.9,7.7,4.6,11.4c0.8,1.7,2.2,3.4,3.8,4.3c10.2,5.4,20.5,10.7,30.9,15.8
	c1.2,0.6,3.6-0.4,4.9-1.4c5.2-3.9,10.2-8,15.3-12c0.8,0.9,1.6,1.8,2.4,2.6c-4.9,3.8-9.8,7.7-15.6,12.2c9,3.9,16.3,7.5,23.9,10.1
	c2.3,0.8,5.6-1.4,8.7-2.3c-0.9,1.4-2,2.8-2.6,4.3c-0.4,1.1,0,2.4,0.1,3.7c1.1-0.3,2.6-0.2,3.3-0.9c11.8-10.7,23.3-21.7,35.3-32.2
	c8.2-7.2,17.2-13.4,25.6-20.5c5.5-4.6,10.4-10,15.6-15c-0.4-0.5-0.7-0.9-1.1-1.4c-6.6,4.2-13.2,8.4-19.8,12.6
	c-0.2-0.2-0.4-0.4-0.6-0.6c25.4-21.3,50.8-42.5,76.2-63.8c-0.2-0.3-0.4-0.7-0.6-1c-6.6,2.5-13.2,4.9-19.7,7.4
	c-0.2-0.3-0.4-0.7-0.6-1c6-3.8,11.8-8,17.9-11.4c14-7.8,28.2-15.4,42.4-22.9c39.6-20.7,79.1-41.5,120.6-58.2
	c27.6-11.1,55.9-20.3,84.8-27.2c27.1-6.4,54.6-7.8,82.4-7.1c37.6,0.9,74,8,109.8,19c5.9,1.8,11.3,5,17,7.1c2.5,0.9,5.3,0.9,8.1,1.3
	c0.3,0.3,0.7,1.3,1.4,1.5c11.8,4.5,23.8,8.4,35.2,13.6c7.9,3.6,15.1,8.9,22.5,13.5c8.1,5.1,16.2,10.4,24.3,15.6c0.9,0.5,2,0.7,3,1
	c0.4-0.5,0.9-1.1,1.3-1.6c-4.2-3.4-8.5-6.9-12.7-10.3c0.4-0.6,0.9-1.1,1.3-1.7c6.7,3.9,13,8.6,20.1,11.3c8.6,3.3,14.1,10.7,22,14.7
	c4.5,2.3,9.3,4.2,15,6.7c-5.7-0.7-10.6-1.3-15.4-1.8c-0.2,0.5-0.3,1.1-0.5,1.6c2,0.7,4,1.6,6,2.1c16.7,4.8,34.5,7.3,49,17.5
	c8.6,6.1,15.3,15,22.6,23c12.1,13.2,20.7,28.8,29.6,44.1c6.3,10.9,14.2,20.3,24.6,27.7c18.1,12.9,33,29.2,47.2,46.1
	c8.9,10.5,17.5,21.2,26.1,32c2.8,3.5,5,7.5,7.4,11.3c0.4-0.2,0.8-0.3,1.3-0.5c-1.6-8.2-2.6-16.6-4.9-24.6
	c-4.2-14.7-8.4-29.4-14.2-43.5c-5.5-13.5-12.9-26.1-19.4-39.2c-17.3-34.3-45.5-58-86.2-76.9c5.9-1.7,10.7,0.3,15.3,1.6
	c8.1,2.4,16.1,5.3,24.1,8.1c1.2,0.4,2.5,0.9,3.4,1.7c13.1,12.4,27,24.1,39,37.6c17.7,19.9,31.8,42.4,41.7,67.3
	c7.9,19.9,13.2,40.4,17.3,61.3c2,10.4,2.8,21.1,4.4,31.6c2.4,16.3,10.2,30.8,15.9,46c4.7,12.7,9.3,25.4,8.8,39.1
	c-0.3,7.3-0.8,14.8-2.7,21.7c-2.6,9.2-0.8,17.2,2.7,25.6c6,14.2,12.3,28.4,17,43c8.4,25.8,9.9,52.3,6.7,79.4
	c-4,34.1-15.8,65.8-27.3,97.6c-6.5,17.9-13.4,35.9-22.1,52.7c-16.6,32-36.6,61.9-57.9,91c-38.3,52.3-83.5,98.2-131.4,141.6
	c-48.3,43.8-96.5,87.7-144.6,131.7c-25.6,23.4-50.6,47.5-76.5,70.5c-13.5,11.9-28.7,21.9-42.7,33.3c-21.1,17.4-41.6,35.6-62.7,53.1
	c-37.9,31.5-76.1,62.7-114.1,93.9c-1.6,1.3-3.4,2.4-5.4,3.4c9.5-9.6,19-19.2,28.6-28.8c-0.4-0.7-0.8-1.4-1.2-2.1
	c-11,2.3-22.1,4.2-33,7.1c-28.5,7.6-53.4,22.2-77.2,39.2c-12.7,9-25.8,18-41.6,20.6c-8.9,1.5-18.2,1.9-27.1,1
	c-8.9-0.9-15.7-6.6-20.2-14.6c-2.7-4.8-9.1-7.6-15.4-4.5c-12.3,6-23.9,13.2-35.8,20c0.2,0.7,0.3,1.4,0.5,2.1
	c6.2,1.9,12.3,4.4,18.6,5.6c20.5,4.1,41.1,8.1,61.8,11.3c20.8,3.3,41.2-0.2,60.9-7c8.1-2.8,16-6.3,24.1-9.5c0.7-0.3,1.6-0.2,2.4,0
	c-18.4,11.7-35.8,24.8-58.9,26.9c-17.3,1.6-34.4,3.2-51.8,1.2c-20.7-2.3-41.1-6.5-60.9-12.8c-18.2-5.8-36-12.6-54.3-18
	c-13-3.9-24.7-9.3-36-17.1c-12.1-8.3-26.7-13.1-40-19.8c-5.9-2.9-11.5-6.5-17.1-10c-54.7-34.8-108-71.8-160.8-109.5
	c-42.2-30.1-81.8-62.9-117.8-100.3c-16.3-17-29.3-36.4-43.8-54.8c-11.3-14.3-23.4-28-34.4-42.6c-9.1-12-17.1-24.9-25.6-37.3
	c-1.1-1.6-2.6-3-3.9-4.4c-2.9-3.3-6-6.5-8.8-9.9c-5-5.9-9.7-12.1-14.8-17.8c-29.5-32.6-56.6-67-76.3-106.5
	c-11.1-22.1-21.1-44.8-30-67.8c-6.7-17.1-10.6-35.3-16.3-52.8c-4.1-12.4-9.5-24.4-13.7-36.9c-11.7-34.8-23.6-69.5-34.3-104.5
	c-6.7-21.9-12.3-44.2-17.2-66.6c-6-27.8-11.3-55.7-15.8-83.8c-3.1-19.2-4.8-38.7-6.2-58.1C-1,358.1,0.7,335,3.5,312
	c3.5-28.7,9.9-56.6,18.8-84c6.2-19.1,18-35,31.4-49.8c5.4-6,11.4-11.4,17.1-17.1c-10.7,12.4-20.3,25.4-27.6,40.1
	c-16.7,34-25.8,70.2-29,107.7c-1.8,21.5-2,43.3-1,64.9c1.2,25.9,4.1,51.8,7.1,77.5c1.6,13.5,4.9,26.8,7.7,40.2
	c4.1,19.8,8,39.8,13,59.4c4,15.8,9.3,31.2,14.3,46.7c3.3,10.4,7.1,20.6,10.7,30.8c-0.1-7.6-1.6-15.1-1.2-22.5
	c1.3-26.6,2.9-53.2,4.8-79.8c0.7-9.6,0.3-18.8-3.1-28c-4.1,3.9-8.4,2.1-11-1c-3-3.5-5.9-8.1-6.4-12.5c-1.2-11.1-1.3-22.3-1.2-33.4
	c0-5.1-1.1-9.3-5.2-12.1c-10.1-6.9-13.8-16.3-11.8-28.2c1.1-6.6-1.3-12.3-4.5-17.9c-2.7-4.9-5.9-9.9-7-15.3
	c-2.3-11.2-3.4-22.7-4.9-34.1c-0.1-1.1,0.3-2.3,0.5-3.4c0.4,0,0.9-0.1,1.3-0.1c4.7,13.9,9.3,27.9,14,41.8c2-2.2,2.7-4.4,3.4-6.5
	c3.3-9.7,6.1-19.7,10.1-29.1c2.7-6.3,4.1-12.4,4-19.2c-0.3-13,0.1-26-0.1-39c-0.4-19.8,2.5-39.2,7.7-58.2
	c7.9-29.2,21.6-55.6,40.6-79.2c4.3-5.3,8.8-10.5,13.2-15.7C94.3,140.4,82.8,150.6,71.1,160.5z M1390.4,994.6c1-0.7,1.9-1.2,2.6-1.8
	c49.8-48.4,99.1-97.2,142.8-151.4c34.2-42.4,67-85.7,92.6-134c19.9-37.5,35.1-76.5,41-118.9c5.4-39,0.5-76.2-16.1-111.9
	c-1.2-2.5-2.7-4.8-4.1-7.1c-0.9,2.1-1,3.6-0.9,5.1c1.2,25.4-0.2,50.6-4.8,75.6c-2.2,11.9-4.3,23.9-7.6,35.6
	c-6,21.6-11.5,43.4-19.3,64.3c-11.4,30.3-26.6,59-43.1,86.9c-32.2,54.4-68.7,105.6-114.6,149.6c-2.3,2.2-4.5,4.9-6.1,7.7
	c-9.9,17.1-19,34.6-29.4,51.3C1413.1,962.1,1401.6,978,1390.4,994.6z M1573.1,704.8c31.4-30.2,73.6-204.4,60.8-244.5
	c-1.9,1.4-4,2.8-6.1,4.3c-0.3-0.3-0.7-0.7-1-1c0.8-1.8,1.6-3.6,2.3-5.4c2.1-6,6.4-11.4,4.8-18.4c-1.2-5-2.1-10.1-3.4-15.1
	c-3.8-15.2-11.7-28.5-19.6-41.7c-27.8-45.9-61.1-87.9-93.5-130.6c-13.7-18.1-28-35.8-41.7-53.9c-6-7.9-5.7-8.2-16.1-7.3
	c6,10.7,12.2,21.5,18.1,32.4c2.9,5.4,6.8,9.3,12.3,11.7c3.8,1.7,7.6,3.4,11.1,5.6c1.4,0.9,3,3.1,2.8,4.5c-0.2,1.5-2.1,3.2-3.7,4
	c-1.7,0.8-3.9,0.7-6.4,1c2.5,9.5,6.2,18.3,11.7,25.8c13.6,18.6,27.8,36.8,42,54.9c13.3,17,22.9,36,30.9,56
	c3.9,9.8,1.8,20.1,2.1,30.1c0.1,6.6,0.9,12.7,3.9,18.8c3.7,7.6,6.6,15.6,9.8,23.4c4.2,10.6,8.3,21.3,12.6,32.2
	c1.1-0.5,2.3-1.1,2.3-1.1c0.5,5.1,0.8,10.2,1.6,15.2c2.1,13.3,6.1,26.4,4.5,40c-1.9,15.7-3.2,31.6-7,46.8
	c-5.3,21.2-12.5,42-19.1,62.9C1583.7,672,1578.3,688.4,1573.1,704.8z M396.3,1111.8c0.3-0.4,0.6-0.8,0.8-1.2c-0.6-1-1.2-2-1.8-2.9
	c-20.4-29.4-45.5-54.5-71.9-78.3c-29.7-26.8-59.3-53.7-88.8-80.7c-6.9-6.3-6.7-6.6,0.7-11.5c0.2-0.1,0.6,0,1,0
	c17.3,18.2,79.9,73.5,85,75c-11.5-18-22.6-36.1-34.3-53.7c-8.5-12.8-16.9-25.8-26.8-37.6c-15.3-18.3-31.9-35.5-47.8-53.4
	c-6.1-6.9-11.5-14.3-17.2-21.5c-0.5,0.1-0.9,0.2-1.4,0.4c1.1,7.2,2.2,14.4,3.2,21.7c-0.3,0.1-0.7,0.1-1,0.2
	c-10.7-27.9-21.5-55.9-32.4-84.4c-2.8,10.7-10.2,19.1-10.1,30c-5.5,6.3-2.5,12,0.9,17.9c2.5,4.3,4.7,8.8,7.1,13.1
	c10.8,19.4,21.6,38.8,32.5,58.2c3.9,6.9,7.5,14.1,12.4,20.2c8.2,10.2,17.9,19.2,26,29.5c12.9,16.4,24.1,33.9,39.7,48.2
	c12.4,11.4,22.8,25,34.8,36.9c21.1,21,40.4,44,66.5,59.5C381.1,1101.9,388.6,1106.9,396.3,1111.8z M307.5,1062.7
	c90.8,117.7,208.8,200.4,339.6,268.9c-1.3-11.3-7.2-18.7-14.1-24.6c-6.8-5.9-15.4-9.8-22.6-15.3c-23.7-17.6-46.8-36-72.7-50.4
	c-9.1-5.1-17.9-10.8-29.4-9.1c-2.8,0.4-6.3-1.7-9-3.4c-3.2-2-6-4.7-8.8-7.3c-8.3-7.9-16.4-16-19-27.9c-0.3-1.4-2.1-2.5-3.1-3.8
	c-0.4,0.2-0.8,0.4-1.1,0.6c0.2,1,0.2,2.1,0.7,2.9c1.9,3.3,2.8,6.8-0.6,9.4c-3.5,2.7-5.5-1.1-7.4-2.9c-31.7-28.5-63.4-57.1-94.9-85.8
	c-18.1-16.5-35.9-33.5-53.9-50.2C310.3,1063.2,308.8,1063.1,307.5,1062.7z M1059.4,48c1.8,0.6,2.1,0.8,2.5,0.8
	c11.6,1.2,23.1,2.4,34.7,3.6c23.8,2.4,47.7,4.9,71.5,7.2c9.1,0.9,18.3,1.3,27.4,2c22.1,1.8,44.1,3.7,66.2,5.4
	c1.8,0.1,3.6-0.9,5.4-1.4c-0.7-1.9-1-4-2.1-5.6c-15.6-21-39-28.9-62.6-34.9c-26.4-6.6-53-2.1-79.1,3.6c-13.9,3-27.6,7.2-41.3,11.3
	C1074.7,42.1,1067.6,45,1059.4,48z M197.7,151.9c0.1-0.5,0.2-1,0.3-1.5c-11.4-3.5-22.7-7.4-34.2-10.4c-12.3-3.2-24.7-4.8-37.5-2.9
	c-22.8,3.4-36,19.9-38.8,37.9c-1.8,11.5-2.6,23.2-2.4,34.8c0.2,19.8,1.5,39.5,2.3,59.3c0,0.5,0.5,1,1.2,2.3c2.1-2.9,4.7-5.1,5.4-7.7
	c2.4-8.4,5.1-16.9,5.7-25.5c1.1-15,4-28.9,14.2-40.9c16.1-18.9,37-29.7,59.8-37.7C181.6,157,189.7,154.5,197.7,151.9z
	 M1304.5,1013.2c-0.5-0.3-0.9-0.7-1.4-1c-3.4,3-6.7,5.9-10.1,8.9c-31.6,28-61.1,58-84.5,93.3c-8.3,12.4-16.1,25.3-18.7,40.3
	c-0.8,4.5-0.1,9.3-0.1,15c2.8-1.7,4.4-2.5,5.8-3.6c5.4-4.4,11-8.6,16-13.4c15.9-14.9,32.3-29.5,45.1-47.5
	c5.3-7.4,10.9-14.7,9.2-24.9c-0.4-2.1,0.4-4.8,1.6-6.6c4.5-6.7,8.5-14.2,14.4-19.4c7.3-6.5,12.2-14.4,17.3-22.2
	C1302.8,1026.4,1303.8,1019.8,1304.5,1013.2z M1627.4,387.5c0.5-0.1,0.9-0.3,1.4-0.4c-1.4-9.2-2.5-18.4-4.2-27.5
	c-1.2-6.7-2.1-13.8-5.2-19.6c-8-14.9-16.6-29.4-25.9-43.5c-21.2-32-47.3-59.7-76.8-84.2c-5.8-4.8-13.2-7.6-19.9-11.3
	c23.1,30.6,47.1,59.9,70.3,89.8C1590.4,321,1611.2,352.8,1627.4,387.5z M878.5,83.8c92.6-38.2,190.1-58.3,287.8-76.9
	c-7.6-1.6-14.9-3-22.3-4.2c-1-0.2-2,0-3,0.1c-21.3,2.8-42.7,4.9-63.8,8.7c-18.4,3.3-36.6,8.1-54.7,13c-13.6,3.7-26.9,8.5-40.2,13
	c-13.3,4.5-27,8.3-39.8,13.9c-15.4,6.8-30.2,15.1-45.2,22.8C891,77.4,884.7,80.6,878.5,83.8z M650.8,1295c-0.2,0.3-0.4,0.7-0.6,1
	c1.3,1.2,2.4,2.5,3.8,3.6c8.2,6.8,16.5,13.3,24.6,20.3c21.6,18.6,45,34.5,71.8,44.6c14.3,5.4,28.6,8,42.3-2.1
	c-3.5-3.6-6.7-8.3-11.1-11c-7.7-4.8-16.1-8.7-24.4-12.3c-27.7-12-55.5-23.7-83.3-35.4C666.3,1300.4,658.5,1297.8,650.8,1295z
	 M1571.7,545.2c-1.1,0.8-1.5,0.9-1.6,1.1c-7.7,19.9-15.2,40-23.1,59.8c-5,12.6-11.4,24.8-15.5,37.7c-6.9,22.2-12.5,44.7-18.5,67.2
	c-0.8,3-1.1,6.1-1.7,9.1c2.3-1.1,3.5-2.4,4.8-3.8c21.8-23.8,36.1-51.5,43.2-82.8c3.7-16.2,7-32.5,9.5-48.9c1.8-11.3,2-22.9,2.8-34.3
	C1571.8,548.9,1571.7,547.4,1571.7,545.2z M82.5,572.4c-0.5,0.1-1,0.2-1.5,0.3c-1.5,4.5-3.4,9-4.2,13.6c-1.5,8.8-3.6,17.8-3.1,26.5
	c0.7,11.2,3.7,22.3,6,33.3c2.3,11.2,5.1,22.3,7.6,33.4c1.3,5.5,2.3,11,3.8,16.4c1.2,4.4,2.8,8.7,4.4,13c2.3,6.5,4.7,13,7,19.5
	c0.5-0.2,1-0.3,1.6-0.5c0-1.8,0-3.6,0-5.4c0-19.3-0.1-38.6,0.1-58c0-6.4-1.2-12.9,2-19.1c0.7-1.4-0.3-3.8-0.8-5.6
	c-0.4-1.4-1.6-2.5-2-3.9c-4.2-14.2-8.1-28.4-12.5-42.5C88.5,586.2,85.3,579.4,82.5,572.4z M139.4,811.1c0.9-1.6,1.3-2.1,1.5-2.7
	c4.2-12.2,8.6-24.4,12.3-36.7c1-3.5,0.3-7.9-0.8-11.5c-1.9-6-5-11.6-7.3-17.4c-8.2-20.6-16.3-41.3-24.4-62c-0.4-1-1.3-1.9-2.7-3.7
	c0,3-0.1,4.9,0,6.7c1,27.4,1.9,54.9,3,82.3c0.1,3.2,0.7,6.7,2,9.6C128.1,787.2,133.6,798.7,139.4,811.1z M1079.4,1259.8
	c0.3,0.3,0.6,0.6,0.9,0.8c32-26.2,64.1-52.3,96.3-78.6c-1-4.7-2.2-9.4-2.9-14.3c-0.3-2.5,0.2-5.1,0.5-7.6c0.5-4.5,1.1-9.1,1.6-13.6
	c-0.6-0.2-1.2-0.4-1.8-0.6c-0.6,0.8-1.2,1.6-1.8,2.3c-14.5,16-28.9,32-43.4,48c-6.9,7.6-14.1,14.9-20.5,22.9
	c-5.3,6.6-9.5,14-14.3,20.9C1089.3,1246.7,1084.3,1253.2,1079.4,1259.8z M1430.2,167.5c0.4-0.3,0.8-0.6,1.2-1
	c-0.6-2-0.9-4.2-1.9-5.9c-6.4-10.6-12.8-21.3-19.7-31.6c-5.7-8.5-12.9-15.3-22.7-19.3c-12-4.8-23-12.2-36.2-13.6
	c-2.5-0.3-5.1,0.7-9,1.3c-7.1-5.8-14.8-8.3-22.2-5.7C1357,117.3,1393.6,142.4,1430.2,167.5z M1420.8,918.9
	c-12.5,8.4-25,17-33.7,29.4c-21.2,30-41.8,60.5-62.6,90.9c-3.8,5.5-7.2,11.2-10.8,16.8c0.4,0.2,0.7,0.5,1.1,0.7
	C1356.9,1016,1393.8,971.4,1420.8,918.9z M1587.5,540.8c-1.3,11-3.3,22.1-3.7,33.2c-0.8,25.3-8.6,48.7-18.7,71.4
	c-5.6,12.6-12.8,24.4-19.1,36.6c-12.7,24.8-25.4,49.6-38,74.4c-1.6,3.2-3,6.5-4.5,9.7C1546.8,735.4,1602.8,585.3,1587.5,540.8z
	 M121.1,306.4c5.4-2.1,10-3.7,14.6-5.7c11.5-5.1,22.7-11,28.6-22.7c3-6.1,5.3-13,5.9-19.7c0.6-6.7,0.4-14.2-7.4-18.6
	c7.2-1.5,9.3-4.5,7.9-10.4C146.6,249.7,126.4,272.6,121.1,306.4z M946.1,1239.3c-2.2,0.7-3.9,1-5.5,1.7c-6.3,2.6-12.5,5.3-18.8,7.9
	c-12.3,5-24.8,9.5-36.8,15.1c-6,2.8-11.1,7.6-16.3,11.9c-1,0.8-0.9,5-0.5,5.2c4.6,1.5,9.3,2.6,14,3.7c0.5,0.1,1.2-0.5,1.8-0.7
	c1.7-0.5,3.4-1.2,5.2-1.4c7.6-0.8,14.9-1.5,21.8-5.8c14.3-9,22.9-23.3,34.4-34.9C945.9,1241.6,945.8,1240.8,946.1,1239.3z
	 M244.3,129.1c-28.7-11.9-57.4-8.7-86.2-5.8c0.4,1,0.9,1.5,1.4,1.8c14.8,6.7,29.6,13.3,44.4,19.8c1.9,0.8,4.3,1.3,6.3,0.9
	C222.6,143.2,233.8,138,244.3,129.1z M59.1,312.8c0.6,0.3,1.2,0.6,1.7,0.9c0.6-1,1.2-2,1.8-3c4.5-6.7,9.2-13.4,13.4-20.3
	c1.6-2.7,2.8-6.1,2.6-9.2c-0.8-17.6-1.9-35.2-3.2-52.8c-0.3-4.8-1.5-9.6-2.2-14.4c-0.5,0-0.9,0.1-1.4,0.1
	C60.4,246.2,59.5,279.5,59.1,312.8z M180.7,244.9c0,0.2,0,1.2,0.3,1.8c2.7,4.5,16.4,5.8,19.7,1.6c6.1-7.8,12.1-15.8,17.6-24.1
	c4.6-6.9,4.3-7.4-1-13.8c-6.7-8.2-9.5-8.6-18-2.9c-1.4,0.9-2.5,2.3-4,2.9c-7.2,3.1-10.7,8.3-11.1,16.3
	C183.9,232.7,182,238.5,180.7,244.9z M1465.7,859.8c0.5,0.3,1.1,0.5,1.6,0.8c17.8-14.3,64.9-77.4,65.9-88.7
	c-17.1,10.5-32.9,22.8-43.4,39.7C1480.4,826.9,1473.7,843.7,1465.7,859.8z M904.8,1354.3c-0.2-0.4-0.3-0.7-0.5-1.1
	c-5.5-0.8-11.1-1.3-16.5-2.6c-4.8-1.1-9.5-3-14.1-4.8c-7.1-2.8-14.3-5.2-22.2-4.1c-5.8,0.8-10.6,3.4-14.4,7.9
	c-1.7,2.1-1.7,3.7,0.6,5.4c3.9,2.8,7.3,6.6,11.6,8.5c7.1,3.2,14.3,8.1,22.6,4.8C883.1,1363.8,893.9,1358.9,904.8,1354.3z M1330.9,68
	c-25.6-17.9-53.4-32-86.9-36.3c3.4,2.8,5.7,4.8,8.1,6.7c11.5,8.6,21.4,19.2,35.4,24.5C1302,68.4,1316.5,71,1330.9,68z M1567.8,498.3
	c0.2-0.5,0.5-0.9,0.6-1.3c4.9-18,4.6-36.2,2.1-54.4c-0.8-6.2-1.7-12.7-4.4-18.1c-2.8-5.6-7.8-10.2-12-15.1c-1-1.1-2.3-1.9-4.6-3.8
	c0,8.1-0.4,14.9,0.1,21.6c0.5,6.2,1.5,12.5,3.2,18.4c2.2,7.4,5.9,14.4,8,21.9C1563.6,477.5,1565.5,488,1567.8,498.3z M589.8,208.5
	c-28.2-14.5-55.9-28.8-83.6-43c6.7,9.6,14.1,18.6,21.9,27.3c2.2,2.5,5.2,4.9,8.3,6c13.6,4.8,27.3,9,40.9,13.8
	C582.7,214.5,586,211.8,589.8,208.5z M162.6,175c-8.2-1.1-15.2,0.8-21.7,4.1c-12.1,6.2-17.4,18-22.9,29.5c-1.3,2.7-1.5,5.9-2.4,9.8
	c1.3,0.2,3.3,1.2,4.8,0.8c12.1-3.2,23.7-6.9,29.1-20.4C152.9,190.6,158.1,183.2,162.6,175z M821.2,123.9c0.3,0.6,0.6,1.2,0.9,1.7
	c50.7-18.1,99.1-41.5,148.5-62.8c-0.9-0.3-1.7-0.4-2.5-0.3c-19.9,3.5-39.2,9-57.4,17.6c-26.4,12.5-52.6,25.3-78.9,38
	C828.2,119.9,824.7,122,821.2,123.9z M665.7,245.2c-7-3.7-13.4-7.2-19.9-10.2c-1.2-0.6-3.7,0.4-4.9,1.5c-6.9,6-13.4,12.2-20.3,18.2
	c-2.2,1.9-2,3,0.1,4.6c2.1,1.6,4.6,3,6,5.1c4.3,6.4,12.5,7.5,18,2c4.4-4.3,8.7-8.7,13-13C660.4,250.7,663.1,247.9,665.7,245.2z
	 M597.4,200.6c-1.3-18.9-53.3-44.4-83.9-39.8C542.3,174.4,569.9,187.5,597.4,200.6z M576.1,230.4c-0.2,0.4-0.4,0.9-0.5,1.3
	c9.7,7.6,18.8,16.1,30.6,20.5c1.7,0.6,4.5-0.4,6.2-1.4c3.8-2.3,7.2-5.3,10.8-7.8c4.5-3.1,9.2-6,15-9.7c-10.8-3.2-20-6.4-30-5
	c-6.4,0.9-12.8,1.6-19.3,2C584.7,230.7,580.4,230.4,576.1,230.4z M1089.2,1211.1c23.1-14.6,55.8-53.7,56.9-68.1
	c-9.9,6.8-19.8,13-27.1,23.1c-9.2,12.7-19.6,24.6-29.9,36.4C1086.2,1205.9,1086.2,1207.9,1089.2,1211.1z M191,735.3
	c-0.4,0.3-0.9,0.5-1.3,0.8c13.9,41.7,36.3,78.4,66,112.3c0-2.4,0.5-3.9-0.1-4.9C234.1,807.4,212.6,771.4,191,735.3z M248.7,901.3
	c-24.5-38.8-49.2-78-74-117.2C179.1,811.2,232.7,894.6,248.7,901.3z M1355.8,134.3c-1.4-12-2.9-15.1-12.5-20
	c-17.4-8.9-35-17.5-52.5-26.1c-4.4-2.2-10-1.3-12.3,1.3C1304.2,104.4,1330,119.4,1355.8,134.3z M581.7,1196.8c0.5-0.6,1-1.1,1.5-1.7
	c-3-3.3-5.6-7.4-9.2-9.8c-17.6-12.1-35.6-23.7-53.4-35.5c-6-4-11.9-8-17.8-12.1C523.4,1165.5,550,1184.6,581.7,1196.8z
	 M981.6,1272.2c-5.8-7.8-11.2-14.9-16.6-22.1c-0.9-1-1.9-2-2.8-2.9c-7.7,9.7-15.4,19.4-23.4,29.5c2.8,0,5.6-0.4,8.3,0.1
	c5.5,0.9,11.4,1.2,16.3,3.6c4.6,2.2,8.3,2.5,11.9-0.3C977.8,1278,979.5,1274.8,981.6,1272.2z M1352.6,982.9
	c-33.5,22.8-53.2,55.9-68.9,92C1306.7,1044.2,1329.7,1013.5,1352.6,982.9z M63.8,372.8c0.6,0,1.2,0.1,1.8,0.1
	c0.4-1.2,0.8-2.3,1.1-3.5c3.2-14.6,5.3-29.5,9.9-43.6c3.4-10.5,1-20.5,2.5-31.5c-1.2,1-1.7,1.2-1.9,1.5
	c-5.9,11.9-11.7,23.7-17.5,35.6c-0.4,0.9-0.1,2.3,0.1,3.4c0.4,3.1,1,6.2,1.4,9.3C62,353.7,62.9,363.3,63.8,372.8z M389.4,1069.4
	c0.6-0.5,1.2-1,1.8-1.5c-24-28.2-48.1-56.4-72.1-84.5c-0.5,0.4-0.9,0.8-1.4,1.2C337.6,1016.2,356.9,1048.4,389.4,1069.4z
	 M363.5,185.5c0.3-0.6,0.6-1.3,1-1.9c-5.7-4.2-11.3-8.5-17.1-12.5c-1.8-1.2-4.2-2.3-6.3-2.3c-10.6-0.2-21.3-0.2-31.9,0.2
	c-4.4,0.1-8.9,1.2-13.3,1.8c0,0.5,0,1.1,0,1.6C318,178.6,340.4,183.6,363.5,185.5z M468.2,165.4c-0.3,0.4-0.5,0.8-0.8,1.3
	c4.5,8.3,10.2,15.7,17.9,21.5c1.7,1.3,3.4,2.7,4.7,4.3c9.8,13.3,19,13.9,35.2,11.3c-6.8-5.1-12.7-9.8-18.9-14.1
	c-10.9-7.6-24.3-11.7-32.8-22.8C472.6,165.8,470,165.9,468.2,165.4z M717.8,1277.8c-1.1,7,0.8,9.7,8.7,12.9c7.5,3,15.1,5.8,22.5,9.1
	c4,1.8,7.6,2.4,11.6-0.2c2.3-1.5,5.3-1.8,7.9-2.8c2-0.8,3.8-1.8,5.8-2.7c-0.1-0.5-0.2-0.9-0.2-1.4
	C755.5,1287.7,736.8,1282.8,717.8,1277.8z M1073.1,1155.6c-2.6,5.2-10.7,14.3-15.7,16.5c-5,2.2-8.4,4.9-8.9,10.7
	c-0.4,4.8-1.6,9.5-2.5,14.7c10-3.3,18.2-7.1,24.4-14.5C1074.1,1178.8,1076.1,1162.3,1073.1,1155.6z M51.3,366.8
	c-0.5-0.1-0.9-0.2-1.4-0.3c-0.3,1.1-0.8,2.3-1,3.4c-2,12.3-3.9,24.6-5.7,36.9c-0.4,2.7-0.9,5.9,0,8.3c2.3,6.2,5.4,12.2,8.3,18.4
	c1.1-2.3,2.4-4.4,3.3-6.7c0.6-1.5,1.1-3.2,1.2-4.8C56.5,403.5,54.7,385.1,51.3,366.8z M302.2,150.2c-5-4.8-25.9-11.1-33.3-9.6
	c-1.6,0.3-3.5,2.1-4.1,3.7c-2.2,5.9-4,11.9-6.4,19.1c7.1-1.6,13.3-2.5,19.2-4.3C286.2,156.4,294.4,153,302.2,150.2z M122,356.7
	c6.3-18.5,14.8-36.4,26.5-52.8c-7.2,4.5-13.8,9.6-20.6,14.2c-4.3,2.9-7.6,6.1-8.7,11.2c-1.1,5-2,10.1-3,15.1
	C114.9,349.7,113.6,355.1,122,356.7z M1411,104.8c5.2,8,61.4,51.3,67.5,51.4c-6.6-6.7-12.6-12.9-18.7-19.1c-2.5-2.6-5.9-4.7-7.6-7.7
	c-3.6-6.3-9-10-15-13.3C1428.9,111.6,1420.8,106.9,1411,104.8z M809.7,1321.3c-3.9,1.4-9.3,3.3-14.7,5.3c-2.9,1.1-2.5,2.9-0.6,4.5
	c1.3,1.2,3,2.3,4.7,2.8c6.9,2,12.5,6,17.5,11c2.5,2.6,6.3,1.2,7.5-2.4c1.5-4.9,3.2-9.7,4.4-14.7c0.3-1.1-1-3.4-2-3.7
	C821.4,1323,816.5,1322.4,809.7,1321.3z M673.8,1332.2c-0.3,0.4-0.5,0.9-0.8,1.3c0.9,1.4,1.9,2.7,2.7,4.1
	c3.5,6.2,8.1,11.3,14.7,14.2c11.1,4.8,22.4,9.1,33.4,14.2c5.3,2.5,10.3,4.2,17.4,2.5C718.1,1356.1,695.9,1344.1,673.8,1332.2z
	 M261.8,141.6c-0.3-0.5-0.6-1-0.9-1.5c-5.8,1.5-12.3,1.7-17.2,4.7c-5.5,3.3-9.8,8.9-14.3,13.7c-2.6,2.7-1.2,6.3,2.6,7.1
	c11.5,2.6,18.3,0,24.4-10.4C258.9,151.1,260,146.2,261.8,141.6z M1357.8,125.8c18.8,20.5,38.8,39.6,65.4,49.9
	C1403.1,156.8,1382.4,138.7,1357.8,125.8z M1513.3,774.7c16.4-6.3,43.9-49.1,45.4-71.4C1543.2,727.6,1528.4,751,1513.3,774.7z
	 M1098.1,62.7c7.8,12.2,32.8,13.6,48.5,3.1C1140.1,62.3,1107,60.1,1098.1,62.7z M548.4,1238.7c28,19.9,55.3,39.2,82.5,58.5
	C624.1,1283.8,565.9,1243.1,548.4,1238.7z M768.2,194.9c-25.6,12.8-47.7,29.4-62.5,54.5C726.5,231.2,747.3,213,768.2,194.9z
	 M990.4,1248.2c10.2-7.4,19.9-14.7,24.7-27.9c-4.4,1.2-7.6,2-10.7,3.1c-3.1,1.1-6.1,2.6-9.2,3.8
	C986.4,1230.7,984.1,1239.7,990.4,1248.2z M1306,117.8c0.8-0.9,1.6-1.8,2.4-2.6c-2-1.1-4-2.3-6.1-3.4c-10.6-5.8-20.9-12.1-31.8-17.2
	c-6-2.8-13-2.6-19.9-0.7C1268.1,104.4,1287.9,109.1,1306,117.8z M859.6,127.1c-0.3-0.6-0.7-1.2-1-1.9c-29.5,15-59.7,28.9-86.9,48.2
	c0.3,0.6,0.6,1.2,1,1.7C801.6,159.2,830.6,143.2,859.6,127.1z M1414.9,907c17-13.1,33.4-25.1,35.8-47.7
	c-10.7,13.2-21.5,26.2-32,39.4C1417,900.7,1416.4,903.6,1414.9,907z M370,171.3c2.3,7.4,4.3,13.6,11.6,16.1c2.3,0.8,4.4,2.1,6.7,3
	c0.8,0.3,2,0.3,2.8-0.1c3.3-1.8,6.4-3.8,10-6C392,176.8,381.8,173.1,370,171.3z M1077.4,1207.7c-0.3-0.4-0.7-0.9-1-1.3
	c-3.8,1.3-8.5,1.5-11.2,4c-9.1,8-17.6,16.8-26.2,25.3c0.3,0.4,0.6,0.9,0.9,1.3c3.4,0.1,6.5,0.6,9.7-2.5c8.3-7.8,17.3-14.9,25.8-22.4
	C1076.4,1211.1,1076.7,1209.2,1077.4,1207.7z M512.8,1199c-0.7,9,8.2,21.4,17,23.5c1.9,0.4,5.6-0.3,5.9-1.4c0.7-2.1,0.6-5.9-0.7-7
	C528.2,1208.5,522.3,1201.4,512.8,1199z M96.8,533c0.5-0.1,1-0.3,1.5-0.4c-0.2-16.1,2.1-32.5-5.9-48.1c-5,4-5.2,8.6-4.1,13.6
	c2,9.1,3.8,18.2,5.9,27.3C94.8,528.1,95.9,530.5,96.8,533z M1083.4,1171.7c0.6,0.4,1.3,0.8,1.9,1.2c7.5-13.1,21.2-21,28.3-34.6
	c-7,3.2-13.4,6.8-19.9,10.6c-1,0.6-2.3,1.2-2.7,2.1C1088.3,1157.8,1085.9,1164.8,1083.4,1171.7z M1216.9,86.9
	c-5.5-1.8-10.3-3.5-15.1-4.9c-4.8-1.3-9.6-2.5-14.5-3.2c-3.9-0.6-5.5,2.4-5.9,5.7c-0.4,3.8,2.9,2.6,4.9,3.2
	c4.3,1.1,8.6,2.4,12.8,3.5c1.2,0.3,2.6,1,3.6,0.7C1207.2,90.6,1211.6,88.8,1216.9,86.9z M1453,150.1c-0.5,0.6-1,1.2-1.5,1.8
	c8,9,16,18,24.1,26.8c4.5,4.9,5.2,4.8,11.5-0.6C1475.6,168.7,1464.3,159.4,1453,150.1z M887.1,1253.2c1.7,0.4,2.2,0.7,2.6,0.6
	c10.7-1.2,19.4-7.2,28.2-12.7c0.7-0.4,1.3-2.2,1.1-2.4c-0.9-0.8-2-1.5-3.2-1.6C903,1236.1,895.5,1244.4,887.1,1253.2z M925.1,1287.2
	c12.7,1.2,25,2.5,37.4,3.5c1.8,0.1,3.7-1,5.9-1.6c-10.9-3-20.9-5.8-30.9-8.5C931.2,1278.8,927.7,1280.6,925.1,1287.2z M105.1,256
	c0.4,0.3,0.7,0.6,1.1,0.9c6.8-7.5,13.8-15,20.4-22.7c1-1.2,0.9-3.4,1.2-5.2c-2.3,0.1-5.2-0.6-6.7,0.5
	C112.2,236.2,107.1,245.3,105.1,256z M1034.7,1301.9c3.8-5,7-9.2,10.4-13.6c-9.9,0-19,0-28.2,0c-0.2,0.4-0.4,0.9-0.6,1.3
	C1022.3,1293.6,1028.2,1297.6,1034.7,1301.9z M504.2,217.2c5.6,3.6,7.5,11.2,15.3,12.4c9.6,1.5,15.5,0.8,19-5
	C526.9,222,515.6,219.6,504.2,217.2z M549.9,1215.5c-0.3,0.5-0.6,1-0.8,1.4c12.9,9,25.8,18.1,38.7,27.1c0.3-0.4,0.6-0.8,0.9-1.2
	c-4.5-5-9.7-9.6-13.5-15.1C568.9,1218.4,558,1220.2,549.9,1215.5z M1413.3,176.6c13.3,10.7,26.7,21.5,40,32.2
	C1443.7,193.3,1432.6,179.7,1413.3,176.6z M1302.4,78.1c2.7,3,40.2,6.8,48.8,5.4C1335.8,76.8,1319.9,75.6,1302.4,78.1z
	 M994.9,1213.8c11.2-3.9,19-11.5,25.4-20.7c0.4-0.6,0.3-2.1-0.2-2.6c-0.5-0.5-1.9-0.7-2.7-0.4c-3.6,1.6-6.8,3.1-9.9,6.3
	C1002.5,1201.6,997.3,1206.1,994.9,1213.8z M1602.4,560.1c0.6-0.1,1.2-0.1,1.8-0.2c4.7-16.9-1.4-33-5.1-49.3c-1,1.8-1.5,3.6-1.3,5.5
	c0.7,9.2,1.5,18.4,2.5,27.6C1600.7,549.2,1601.6,554.6,1602.4,560.1z M474.6,190.4c-5.4-6.5-10.1-12.4-15.1-18.1
	c-4.1-4.6-5.1-4.4-9.7,0.2C457.7,178.5,460.7,190.6,474.6,190.4z M1084.9,1236.5c-11.1,3.7-33.1,19.3-36.8,25.8
	c2.7-1.3,4.8-2.1,6.7-3.3c5.5-3.3,10.6-8.2,16.5-9.8C1078.8,1247.2,1080.4,1240.7,1084.9,1236.5z M279,193.2
	c10.9,4.3,17.1,4.3,26.7-0.3c-0.9-0.6-1.5-1.2-2.2-1.5c-4.8-1.6-9.7-3.2-14.6-4.8C283.4,184.9,280.1,187,279,193.2z M622.2,1249.5
	c4.4,6.5,7.3,14.3,15.6,17.1c1.5,0.5,3.3,0,5,0c-0.3-1.7-0.1-3.7-0.9-5.1C637.6,1254.1,630.3,1251.2,622.2,1249.5z M433.4,1087.1
	c-0.9,11.6,14.7,26.7,26.2,29.2C450.4,1106.1,442,1096.7,433.4,1087.1z M579,263.8c0.1-0.4,0.2-0.8,0.3-1.2
	c-11-4.8-21.9-9.6-32.9-14.4c-0.3,0.4-0.6,0.7-0.8,1.1c1,1.8,1.5,4.2,3,5.4C557.6,261.6,568.3,262.8,579,263.8z M481,1179.1
	c5.4,7.7,10,16,18.8,21.1C501.7,1186.6,498.3,1185.7,481,1179.1z M943,1299.3c-5-3.8-36-3.9-39.5,0.6c11.8,0.7,22.8,1.6,33.7,2
	C939.1,1302,941,1300.3,943,1299.3z M539.5,238.9c9.6,6.5,20.7,9,32.4,12.2C562.5,241.9,552.9,235.5,539.5,238.9z M232.4,213.4
	c6.3,1.3,11.3-2.2,16.4-5c0.8-0.4,1.4-2.8,0.9-3.4c-1.6-2-3.5-4.2-5.8-5.1c-2.9-1.2-5.3,0.3-6.7,3.5
	C235.9,206.6,234.2,209.8,232.4,213.4z M352.1,191.1c0-0.4,0.1-0.9,0.1-1.3c-13.4-2-26.7-4-40.1-6c-0.2,0.5-0.5,1-0.7,1.4
	c2.7,1.9,5.3,5.4,8.1,5.6C330.3,191.5,341.2,191.1,352.1,191.1z M929.9,1326.6c0-0.6,0-1.1,0.1-1.7c-1.7-0.2-3.4-0.5-5.1-0.5
	c-8.3-0.1-16.6,0.2-24.9-0.1c-4.1-0.1-6,1.4-6.9,6.4C905.6,1329.3,917.8,1327.9,929.9,1326.6z M82,462.7c4.4-7.7,3.3-27-2.6-33.5
	C77.4,441.4,82.5,451.9,82,462.7z M1063.3,66.5c10.6,1,21.1,2,31.7,3c0.3-0.5,0.5-1,0.8-1.5c-2.3-1.4-4.4-3.4-6.9-4.1
	C1080.1,61.2,1071.7,64.3,1063.3,66.5z M159.9,195.8c8.8-2.4,15.7-7.5,21.8-15.8C170.3,181.1,164.6,187.7,159.9,195.8z M126.5,243.8
	c-0.4-0.3-0.8-0.6-1.2-0.9c-6.8,6.9-13.8,13.7-20.3,20.8c-1.3,1.4-0.7,4.5-1,6.8c0.5,0.2,0.9,0.3,1.4,0.5
	C112.5,261.9,119.5,252.8,126.5,243.8z M1003.2,1273.8c4.5-6.7,8.8-13.1,13.1-19.5c-0.5-0.4-1-0.8-1.5-1.3
	c-6.1,5.6-12.2,11.3-18.9,17.4C998.9,1271.8,1000.9,1272.8,1003.2,1273.8z M183.7,266.8c3.5-3.9,6.4-7.3,10-11.2
	c-4.5-2.1-8.4-4-13.7-6.4C181.4,255.8,182.5,260.9,183.7,266.8z M944.7,1225.1c6.5,2.1,11.8,0.9,16.6-2.3c1-0.7,1.7-1.8,2.5-2.7
	c-1.3-0.8-2.8-2.5-3.9-2.3c-4.3,0.9-8.5,2.2-12.6,3.8C946.2,1222,945.7,1223.7,944.7,1225.1z M842.3,1247c-0.1-0.4-0.2-0.8-0.3-1.2
	c-3.6,0-7.2-0.1-10.7,0.1c-0.9,0-1.9,1-2.4,1.8c-3.4,4.9,0.8,6.5,3.7,8.7C835.9,1253.1,839.1,1250,842.3,1247z M1444.7,163
	c-0.3,0.3-0.6,0.5-0.9,0.8c2.6,5,5.3,9.9,7.7,14.9c2.1,4.5,5.4,4.5,9.8,3.1C1455.5,175.3,1450.1,169.2,1444.7,163z M616.7,1219.1
	c4.6,9.7,14.9,10.1,22.8,14.7C634.6,1224.6,624.3,1224.2,616.7,1219.1z M224.4,210.4c0.7-0.1,1.5-0.2,2.2-0.4
	c0.4-4.2,0.8-8.4,1.4-13.7c-4.3,1.4-7.1,2.3-10.6,3.5C219.9,203.7,222.2,207.1,224.4,210.4z M63.6,488.3c1.1-8.2-3.8-14.5-6.5-21.4
	C55,475.2,60.4,481.4,63.6,488.3z M524.7,1183c-5.9-3.7-11.8-7.4-17.6-11.1C509.9,1179.9,509.9,1179.9,524.7,1183z M1289,123.4
	c0.3-0.4,0.5-0.9,0.8-1.3c-7.8-3.1-15.6-6.2-23.3-9.2c-0.2,0.5-0.4,1.1-0.7,1.6C1272.6,119.6,1280.7,121.7,1289,123.4z M1066.2,1260
	c-0.3-0.5-0.7-1-1-1.5c-8.4,5.6-16.8,11.1-25.2,16.7c0.4,0.6,0.8,1.1,1.1,1.7C1049.5,1271.2,1057.9,1265.6,1066.2,1260z
	 M685.2,1226.5c0.4-1,0.7-1.9,1.1-2.9c-7.2-2.8-14.5-5.5-21.7-8.3c-0.3,0.6-0.5,1.2-0.8,1.9C670.9,1220.3,678.1,1223.4,685.2,1226.5
	z M626.2,292.2c-2.9-7.3-7.1-11.7-14.3-12.7c3.4,4.3,7,8.3,10.8,12.1C623.1,292.1,624.4,291.9,626.2,292.2z M245.6,188.8
	c2.8,3.2,4.8,6.9,9.2,4.1c1-0.6,1.7-3.4,1.2-4.2C252.8,183.7,249.5,187.5,245.6,188.8z M147.4,299.6c-9.1,2.2-16.1,7.5-19.8,14.5
	C133.9,309.4,140.1,304.9,147.4,299.6z M784.1,1246.5c-4.3-1.1-7.9-2.1-12.3-3.2c4.8,3.7,8.8,6.9,13.7,10.7
	C784.9,1250.7,784.5,1248.5,784.1,1246.5z M592.8,259.4c0.5-0.7,1-1.3,1.5-2c-4.5-3.3-8.9-6.7-13.4-10c-0.5,0.6-0.9,1.3-1.4,1.9
	C584,252.6,588.4,256,592.8,259.4z M1015.9,63.6c-0.1-0.6-0.2-1.1-0.4-1.7c-6.5,1.1-13,2.2-19.4,3.3c0.1,0.7,0.3,1.5,0.4,2.2
	C1002.9,66.2,1009.4,64.9,1015.9,63.6z M772,1337.2c3.8,1.8,7.5,3.6,12,5.7C781.5,1335.1,781.5,1335.1,772,1337.2z M198.9,163
	c-0.2-0.2-0.4-0.4-0.6-0.7c-3,2.1-6.1,4.1-9.1,6.3c-1.1,0.8-1.7,2.1-2.6,3.1c1.2,0.8,2.3,1.7,3.2,2.2
	C193.2,169.9,196.1,166.4,198.9,163z M493.7,230.9c3.8,5.9,7.7,8,11.2,6.2C503,231.8,498.1,232.4,493.7,230.9z M1059.5,55
	c-0.1-0.6-0.2-1.2-0.3-1.8c-6.5,1.1-12.9,2.2-19.4,3.2c0.1,0.7,0.2,1.3,0.3,2C1046.6,57.3,1053.1,56.2,1059.5,55z M405.1,1105.9
	c-0.2,0.4-0.5,0.8-0.7,1.2c3.1,2.5,4.5,7.5,10.9,5C411.8,1110,408.5,1107.9,405.1,1105.9z M786.6,1300.8c-3.3,1.5-6.2,2.9-9.5,4.4
	C782.7,1309.1,784.3,1308.4,786.6,1300.8z M397.2,188.2c0,0.8-0.1,1.6-0.1,2.4c5.3,0,10.6,0,15.8,0c0-0.4,0-0.9,0.1-1.3
	C407.8,189,402.5,188.6,397.2,188.2z M806.2,1349.7c0.2-0.8,0.4-1.6,0.6-2.4c-3.7-1-7.5-2-11.2-3c-0.2,0.7-0.4,1.3-0.5,2
	C798.8,1347.5,802.5,1348.6,806.2,1349.7z M115.2,224.2c-0.5-0.2-0.9-0.4-1.4-0.7c-2.1,4.4-4.3,8.8-6.4,13.2
	c0.6,0.3,1.1,0.5,1.7,0.8C111.2,233.1,113.2,228.6,115.2,224.2z M123.2,611.3c-0.3,0-0.6,0-1,0.1c0.6,4.2,1.1,8.5,1.7,12.7
	c0.7-0.1,1.5-0.2,2.2-0.4C125.2,619.6,124.2,615.5,123.2,611.3z"/>
</svg>
