<?xml version="1.0" encoding="utf-8"?>
<!-- Generator: Adobe Illustrator 19.2.1, SVG Export Plug-In . SVG Version: 6.00 Build 0)  -->
<svg version="1.1" id="Layer_1" xmlns="http://www.w3.org/2000/svg" xmlns:xlink="http://www.w3.org/1999/xlink" x="0px" y="0px"
	 viewBox="0 0 1728.1 1416.4" style="enable-background:new 0 0 1728.1 1416.4;" xml:space="preserve">
<path d="M961.5,1352.2c-7.1-7.1-15.3-13.2-23.4-19.2c-11.3-8.4-22.7-16.7-34.5-24.2c-6.2-3.9-13.4-6.1-20.3-8.9
	c-20.1-8.2-40.1-16.6-60.4-24.3c-8.3-3.2-17.2-4.9-25.9-7.3c-26.1-7.1-53.1-9.5-79.4-15.5c-14.9-3.4-29.7-7.3-44.6-10.7
	c-29.3-6.6-58.7-13-88.1-19.3c-11.7-2.5-23.1-5.6-34.1-10.5c-6.7-3-14.5-3.3-21.8-5.2c-16.4-4.3-32.8-8.4-49.1-13.2
	c-14.6-4.3-29-9.5-43.4-14.3c-23-7.7-46.2-14.6-68.9-23.2c-18.9-7.2-37.1-16.1-55.5-24.6c-15.6-7.2-32.1-13.4-46.2-22.9
	c-31.7-21.4-65.5-39.7-93.5-66.5c-27.6-26.5-53.2-54.6-76.6-84.9c-13.5-17.5-26.7-35.2-37.1-54.7c-15.9-30.1-30-61-38.3-94.3
	c-3.5-13.9-7.3-27.6-10.7-41.5c-1.3-5.3-2.1-10.8-2.6-16.2C5.6,734.4,5.4,718,2.5,702c-3.6-19.1-2.3-38.2-2-57.2
	c0.3-17.7,2.8-35.4,4.4-53.1C6,580.1,7.2,568.5,8.7,557c0.4-3,2.5-5.7,3.2-8.7c2.6-11.2,4.6-22.5,7.3-33.6
	c4.3-17.2,8.1-34.4,16.9-50.3c4.5-8.2,5.8-18,9.6-26.6c5.3-12.3,11.2-24.4,17.4-36.3c12.9-24.5,25.2-49.4,41.6-71.9
	c14.2-19.4,29.3-38.1,43.8-57.2c8.3-10.9,16-22.4,24.7-33.1c17.9-22,39.6-40.1,62.1-57.1c19.8-15,39.2-31,60.7-43.1
	c31.5-17.6,62.8-35.9,97.3-47.7c13.8-4.7,27.1-10.9,40.9-15.6c10-3.4,20.6-5.3,30.9-7.8c14.7-3.5,29.4-7.1,44.1-10.4
	c4.2-0.9,8.6-1.1,12.9-1.6c15.5-1.7,31-3.7,46.5-5.1c11.1-1.1,22.4-2.8,33.4-2c27.3,2.2,55,0.1,82,6.5c21.5,5.1,43.1,9.5,64.5,14.9
	c14.5,3.7,28.9,7.9,42.8,13.1c11.7,4.4,22.7,10.9,34,16.3c7.2,3.4,14.3,7.1,21.8,9.7c13.5,4.7,25.3,12.5,36.9,20.3
	c7.9,5.3,15.7,11,22.9,17.4c4.3,3.8,5.6-0.4,7.2-1.9c5.4-4.9,10.4-10.4,15.5-15.8c6.3-6.6,11.9-14,19-19.6
	c15.7-12.4,31.9-24.4,48.5-35.6c13.2-8.9,27.2-16.9,41.3-24.4c7.1-3.8,15.4-5.3,23-8.2c16.7-6.3,33.3-13.1,50.1-19.3
	c24.8-9.1,50.6-13.6,76.7-17.4c30.1-4.4,60.3-5.9,90.7-4.6c20.3,0.9,40.3,3.8,60.5,6.5c16.7,2.3,31.7,9.7,48.1,12.4
	c5.9,0.9,11.4,4.1,17.2,5.8c5.5,1.6,11.6,1.8,16.9,3.9c41.8,17.3,82.3,36.5,118.6,64.2c30.9,23.6,59.6,49.2,84.2,79.2
	c25.1,30.6,45.5,64.1,61,100.4c2.4,5.6,4.1,11.4,5.8,17.4c-1.8-2.5-3.5-5-5.3-7.4c-0.4,0.2-0.9,0.5-1.3,0.7
	c2.2,4.4,4.4,8.8,6.6,13.2c1.2,2.5,2.6,5,3.6,7.6c1.5,4,1.9,8.6,4.3,11.9c1.8,2.5,5.1,4,6.1,7.4c1.7,6.3,3.4,12.7,5.2,19
	c2.1,7.3,4.4,14.6,6.3,22c1.1,4.2,0.9,8.8,2.6,12.6c3.6,7.8,0.7,16.5,3.3,23.7c2.7,7.5,1.2,14.6,2.5,21.8
	c5.9,33.1,1.8,66.4,2.3,99.6c0.2,13.2-3.3,26.5-5.1,39.7c-0.3,2.5-0.3,5-0.4,7.5c-0.5,19.9-3.5,39.4-8.1,58.8
	c-1.7,7.1-3.5,14.1-5.4,21.2c-0.4,1.4-1.2,2.7-1.8,4c1.1-6,2.3-12,3.4-18c-1.4,1.9-2.4,3.8-2.7,5.9c-0.4,4-0.5,8-0.6,12
	c0,1.1,0,2.2,0,4c-0.8-1.6-1.3-2.5-2-3.9c-14.2,48.7-32.6,94.8-59,137.7c-15.2,24.6-30.2,49.1-48.3,71.7c-20,24.9-42.9,47-65.7,69.2
	c-21.9,21.3-45.1,41-69.3,59.7c-16.6,12.8-30.9,28.6-46.9,42.2c-20.5,17.4-41.9,33.6-62.5,50.9c-48,40.5-94.7,82.3-132.7,132.7
	c-17.9,23.8-33.6,49.3-50.2,74.1c-21.9,32.7-37.4,68.7-54.1,104.1c-3.1,6.6-6.2,13.2-9.7,20.6c-1-1.4-1.8-2.2-2.3-3.2
	c-13.9-26.2-27.4-52.6-41.8-78.6c-12.8-23.1-30.8-42.3-48.9-61.3c-38.8-40.5-83.2-73.5-133.3-98.9c-29.9-15.2-61.5-25.7-93.4-35.6
	c-15.4-4.8-30.6-10.3-46.3-13.9c-27.4-6.3-52.8-17.8-79-27.1c-8-2.8-16.5-4-24.5-6.6c-13.4-4.2-26.9-8.6-40-13.6
	c-30.1-11.4-60.3-22.6-90-35c-42.5-17.7-84.8-36.1-123.9-61c-8.5-5.4-17.1-10.8-25.9-15.9c-27-15.6-52.7-33-75.8-54.1
	c-22.9-20.9-41.8-45.3-59-71c-13.9-20.6-25.7-42.3-33.8-65.7c-4.8-13.9-8-28.4-11.1-42.8c-2.9-13.3-4.8-26.8-7.1-40.3
	c-0.5-3.1-0.7-6.3-0.7-9.5c0.5-22.3,0.3-44.7,2-66.9c1.2-16.2,4.3-32.3,7.6-48.3c6.9-33.5,18-65.6,31.5-97
	c15.5-35.9,36-68.7,60.3-99.3c27.3-34.3,59-64.1,93.3-91.5c14.3-11.4,29.6-20.5,45.2-29.5c15.1-8.7,29.8-18,44.9-26.6
	c18.6-10.5,38.7-17.4,59.1-23.4c17.6-5.2,35-11.5,52.8-16.2c13.1-3.5,26.6-6.6,40.1-7.4c25.1-1.6,50.2-2.2,75.3-1.7
	c14.7,0.3,29.5,2.9,44,6c22.6,4.7,45.3,9.4,67.2,16.5c15.3,4.9,29.6,13.2,43.9,20.9c15.9,8.5,31.8,17.3,46.7,27.4
	c12.2,8.2,23,18.5,34.3,27.9c2.7,2.2,5.1,3.1,8-0.9c-3.6-3.5-6.9-7.6-11-10.3c-6.1-3.9-11.4-8.2-16.1-13.8c-3.2-3.8-8-6.2-12.1-9.2
	c-1.2-0.9-2.4-2-3.7-2.8c-3.8-2.1-7.6-4.1-11.5-6.2c-4.6-2.4-9.3-4.7-13.8-7.3c-7.9-4.6-15.4-9.7-23.4-13.9c-5.7-3-12-4.8-18-7.3
	c-9.3-3.8-18.5-8.1-28-11.5c-11-3.8-22.1-7.6-33.4-10c-16.2-3.5-32.6-5.9-49-8.8c-2.9-0.5-5.8-1.4-8.8-1.8
	c-9.4-1.4-18.7-3.5-28.1-3.7c-20.8-0.6-41.7-0.9-62.5,0.1c-13.4,0.7-26.7,3.5-39.9,6c-21.2,4.1-42.4,8.2-63.5,13.2
	c-9.8,2.3-19.2,6.4-28.7,10c-21.8,8.2-41.8,19.7-62.1,31.2c-29.7,16.9-56.9,37.1-84.2,57.3c-2.7,2-5.2,4.2-7.6,6.5
	c-21.1,20.1-42.8,39.6-62.9,60.6c-11.5,12-20.4,26.5-30.4,39.8c-5.1,6.8-10.8,13.1-15,20.4c-21.7,37.9-41.5,76.7-55.7,118.2
	c-10.5,30.7-17.4,62.1-19.9,94.4c-1.8,23.1-3.5,46.2-3.7,69.3c-0.1,14.2,2.4,28.5,4.3,42.6c2.9,21.6,9,42.5,15.2,63.4
	c7.5,25,17,49.1,31.2,71c13,20.2,26.4,40.3,41.8,58.6c14.6,17.4,31.5,33.1,48.6,48.2c12.5,11,27.6,19.1,40.3,30
	c16.8,14.4,37,22.6,55.9,33c12.3,6.8,24.7,13.7,37.4,19.6c27.4,12.6,55,24.9,82.9,36.5c17,7.1,34.5,12.9,51.9,19
	c26.5,9.2,53.3,17.5,79.5,27.3c14.1,5.3,29,7,43.2,11.7c10.9,3.6,21.7,7.3,32.7,10.5c31.5,9.3,62.9,19.3,94.8,27.3
	c19,4.8,36.5,12.8,54.8,19c22.9,7.8,43.9,19.2,65.2,30.2c17.4,9,32,21.9,47.5,33.5c3,2.3,6.2,4.4,9.1,6.8c8,6.7,15.8,13.6,23.8,20.2
	c11.7,9.7,18.4,23.8,30.3,33.2c11.1,8.7,17.8,20.9,25.9,31.9c8.2,11.2,14.7,23.6,21.7,35.6c2.4,4.1,4.1,8.5,6.1,12.8l0.1-0.1
	c-2.7-4.2-5.3-8.5-8.2-12.7c-5.3-7.8-10.7-15.5-16-23.3c-7.1-10.7-13.9-21.7-21.3-32.2c-2.3-3.2-6-5.5-9.1-8.1
	c-1.4-1.2-3.1-1.9-4.3-3.2c-5.8-6.4-11.1-13.3-17.3-19.3c-9.1-8.7-18.7-16.9-28.3-25c-12.2-10.3-23.7-21.5-37-30
	c-35.4-22.7-72.2-43.1-112.8-55.3c-25.3-7.6-51.1-13.4-76.6-20.3c-26-7.1-51.8-14.6-77.7-21.8c-19.5-5.4-39.2-10.3-58.7-15.8
	c-18.1-5-36.1-10.3-54-15.7c-10.6-3.2-21.1-7-31.7-10.3c-19.8-6.3-39.7-12.2-59.3-18.9c-22.4-7.6-44.9-15.3-66.8-24.2
	c-22.4-9.1-44.7-18.7-66.2-29.9c-17.4-9-33.6-20.6-50.2-31.1c-41.1-26.1-75.9-59.5-107.6-96.1c-25.2-29.1-44.3-62.1-59.3-97.4
	c-13.2-31-21.9-63.4-26.4-96.8c-4.4-32.7-4.5-65.3-1.9-98.2c3-37.3,9-74,18.9-110c11.5-41.6,28.3-81,49.5-118.7
	c31.1-55.1,71-102.9,117.9-145.1c20.8-18.7,42.3-36.5,66.3-50.7c26.5-15.6,51.4-34.1,80.4-45.5c7.2-2.8,14.1-6.8,21.4-9.4
	c12.9-4.7,26.1-8.4,39-13.1c10.8-4,21.6-7,33.2-8.2c11.3-1.2,22.5-4.5,33.5-7.6c14.3-4,28.8-5.4,43.5-5.6c29.7-0.3,59.3-0.4,89,0.1
	c8,0.1,15.9,3.4,24,3.9c15.8,1,30.5,6.5,45.8,9.6c26.2,5.4,51,14.5,75,25.9c16.7,8,32.8,17.3,49.1,26c0.9,0.5,1.9,0.9,2.4,1.7
	c3.7,5.6,10.2,5.6,15.5,7.9c0.7,0.3,1.6,0.4,2.2,0.9c6.7,5.9,13.4,11.9,20.1,17.7c3.3,2.9,4.2,2.4,5.9-2.7
	c-5.7-5.2-12.7-9.5-16.5-15.7c-3.9-6.4-10.4-6.7-15.3-10.2c-5.3-3.7-10.6-7.4-16.1-10.8c-8.8-5.5-17.6-11.1-26.9-15.8
	c-8-4.1-17.1-6.3-24.9-10.8c-12.1-7.1-25.6-10.3-38.7-14.4c-17.6-5.5-35.4-10.4-53.2-14.9c-13.2-3.4-26.5-6.4-39.9-8.6
	c-29.2-4.7-58.6-5.3-88.1-3.7c-11.1,0.6-22.3,1.8-33.4,1.8c-18.7,0.1-36.4,5.6-54.6,8.7c-12,2.1-24.3,2.9-35.8,6.5
	c-23.9,7.6-47.9,15.2-70.6,25.5c-24.3,10.9-47.3,24.7-70.5,37.7c-11.5,6.5-22.3,14.1-33.4,21.3c-5.1,3.3-10.3,6.5-14.9,10.4
	c-11.7,9.7-24.8,17.6-34.8,29.6c-5.5,6.6-13.4,11.2-20.2,16.7c-0.9,0.7-2.1,1.1-2.9,1.9c-26,28.6-54.8,54.7-76.9,86.6
	c-8.8,12.8-16.3,26.5-24.5,39.8c-14.7,23.9-27.7,48.7-38.7,74.6c-13.8,32.5-24.3,66-31.7,100.5c-6.5,30.3-8.5,61-9.9,91.7
	c-0.6,12.3-1.6,24.7-1.1,36.9c0.6,14.8,1.5,29.7,4.1,44.2c4.9,26.8,9.7,53.8,17.4,79.8c6.1,20.7,14.1,41.1,25.3,60
	c4.1,6.9,5.3,15.6,9.7,22.3c16.8,25.5,33.4,51.1,51.9,75.3c11.2,14.6,26.2,26.1,38.7,39.9c27.9,30.7,63,52.1,97.1,74.6
	c17.6,11.6,36.2,21.6,54.7,31.5c13,7,26.4,13.3,40,18.7c19.8,7.9,40,14.6,59.9,22c10.9,4,21.5,8.8,32.5,12.5
	c17.6,6,35.4,11.4,53.1,17.1c9.8,3.2,19.5,6.8,29.4,9.5c15.2,4.2,30.6,7.5,45.9,11.6c11.7,3.1,23.2,6.9,34.9,10
	c17.8,4.8,35.6,9.4,53.5,14c10.8,2.8,21.5,5.8,32.4,8.2c12.3,2.7,24.9,4.5,37.2,7.1c10.5,2.2,21,5,31.4,7.7
	c10.9,2.8,22.1,4.8,32.6,8.9c16.6,6.4,32.7,14.3,49.1,21.5c6.5,2.8,13,5.5,19.5,8.2c0.9,0.4,2,0.5,2.7,1c7.7,5.7,15.2,11.7,23,17.3
	c7.7,5.5,15.6,10.7,23.3,16.1c4.9,3.4,9.7,7,14.3,10.7c1.7,1.4,3,3.4,4.4,5.2c1.5,1.9,2.9,4,4.5,5.9c5.4,6.3,10.9,12.5,16.2,18.8
	L961.5,1352.2z M1659.1,229.9c0.3-0.3,0.7-0.6,1-0.9c-2.1-3.7-3.9-7.6-6.2-11.2c-4.4-7-8.9-14-13.7-20.7c-5-7-10.3-13.9-15.8-20.5
	c-4-4.7-8.8-8.8-13-13.4c-5.5-6.1-10.1-13.2-16.1-18.7c-18.6-17-37.2-34.1-58.5-47.7c-14.9-9.5-30.5-18.2-45.8-27.1
	c-32.4-18.9-67.4-31.3-103.5-40.5c-26.5-6.7-53.4-11-80.7-12.9c-42.6-3-84.9-1.4-126.8,7.1c-29.5,5.9-58.3,15-85.8,27.3
	c-37,16.5-71.2,37.7-102.8,63c-6.7,5.4-14.1,10.1-18.8,18.3c0.9-0.3,1.2-0.3,1.5-0.5c1.1-1,2.3-2,3.4-3
	c31.7-29.1,67.7-51.6,106.6-69.7c33.6-15.7,68.6-26.5,105.1-33.4c25.6-4.9,51.4-7.7,77.4-7.6c29.5,0.1,58.9,1.1,87.7,8.5
	c6.6,1.7,13.5,1.9,20,3.5c7.7,1.8,15.3,4.4,22.9,6.6c12.3,3.6,24.7,6.6,36.7,10.8c9,3.2,17.6,7.8,26.3,11.8
	c24,11,47.9,22.3,69.7,37.4c28.6,19.9,56,41.1,77.5,69.1c3.4,4.5,8.6,7.5,12.5,11.7c3.7,3.9,7.1,8.3,10.2,12.7
	c3.5,5,6.1,10.5,9.7,15.3c4.6,6.3,9.9,12,14.8,18.1C1656.4,225.4,1657.7,227.7,1659.1,229.9z M1140.5,57.9
	c20.3-5.3,40.5-11.4,61-15.7c20.6-4.3,41.6-6.9,62.8-10.4C1220.5,30.5,1180.3,43.6,1140.5,57.9z M1041.1,112.3
	c18.7-11.7,37.5-23.4,56.2-35.1C1076.7,85.8,1058.1,97.8,1041.1,112.3z M1414.4,48.8c-14-6.8-49.5-14.4-55.7-12.8
	C1377.7,40.3,1396.1,44.6,1414.4,48.8z M921.6,202.2c4.3-8.6,8.5-17.2,12.8-25.9C929.1,178.6,920.8,195.8,921.6,202.2z M1474.9,71.5
	c0.2-0.6,0.5-1.2,0.7-1.8c-12.9-5.2-25.9-10.4-38.8-15.6c-0.2,0.5-0.4,0.9-0.6,1.4C1449.1,60.8,1462,66.1,1474.9,71.5z M961.4,144
	c-0.4-0.4-0.7-0.8-1.1-1.1c-4.5,4.5-9,9.1-13.5,13.6c0.2,0.2,0.3,0.3,0.5,0.5C952,152.7,956.7,148.3,961.4,144z"/>
</svg>
