<?xml version="1.0" encoding="utf-8"?>
<!-- Generator: Adobe Illustrator 19.2.1, SVG Export Plug-In . SVG Version: 6.00 Build 0)  -->
<svg version="1.1" id="Layer_1" xmlns="http://www.w3.org/2000/svg" xmlns:xlink="http://www.w3.org/1999/xlink" x="0px" y="0px"
	 viewBox="0 0 1680.6 1535.7" style="enable-background:new 0 0 1680.6 1535.7;" xml:space="preserve">
<g>
	<path d="M1675.6,377.2c-17.1,7.8-34.6,15.8-52.2,23.8c7.3-6,14.9-11.6,22.2-17.5c4.1-3.3,8.1-6.9,11.7-10.8c1.1-1.3,1.2-4.1,0.7-6
		c-0.2-0.8-3.1-1.5-4.7-1.3c-2.9,0.3-5.9,1-8.7,2c-5.9,2.1-11.7,4.5-17.5,6.8c-0.1-0.2-0.2-0.3-0.3-0.5c9.8-7.6,19.6-15.3,29.4-22.9
		c-5.9-5.9-6.5-6.3-13.1-4.2c-8.1,2.6-16,5.7-24,8.5c0.7-0.6,1.4-1.4,2.3-2.1c5.6-4.7,11.2-9.3,16.9-13.9c3.3-2.7,3.6-6,2.3-10.8
		c-3.3,0.9-6.6,1.2-9.4,2.6c-19.5,9.8-39,20-58.5,29.9c-7.2,3.7-14.4,7.1-21.6,10.6c0.6-1.8,1.7-2.6,2.9-3.3
		c21.8-13,43.8-25.6,65.4-39c9.1-5.7,17.3-12.7,25.6-19.6c1.5-1.2,2.4-5,1.5-6.5c-0.9-1.5-4.1-2-6.4-2.4c-1.1-0.2-2.5,0.6-3.7,1.2
		c-4.4,1.9-8.7,3.9-13.1,5.9c6.8-6.3,14.1-11.8,21.1-17.6c3.7-3.1,7.2-6.4,10.2-10.2c1.2-1.5,1.1-4.4,0.6-6.5
		c-0.2-0.8-3.3-1.6-4.7-1.2c-7.1,2.2-14.1,4.6-21,7.4c-6.9,2.8-13.6,6.1-20.4,9.2c8.5-7.7,17.4-14.7,26-21.9c1.5-1.2,2.2-3.3,3.3-5
		c-2.3-1.2-4.4-2.6-6.8-3.4c-1.1-0.4-2.7,0.3-3.8,0.8c-10.4,4.8-20.8,9.6-31.1,14.5c-4.7,2.3-9.3,4.9-14,7.3
		c3.6-3.7,7.8-6.4,11.9-9.2c8.9-6.1,17.9-12.1,26.4-18.7c2.1-1.6,2.4-5.4,3.5-8.2c-2.7-0.2-5.5-1.1-8-0.4c-8.1,2.1-16,4.8-24,7.3
		c4.6-3.6,9.8-6.4,14.2-10.1c5.7-4.7,11.2-9.8,16.2-15.3c1.4-1.5,0.9-4.9,1.2-7.4c-2.2-0.1-4.6-0.7-6.7-0.2
		c-4.8,1.1-9.6,2.6-14.3,4.2c-5.8,2.1-11.5,4.6-17.2,6.9c4.9-4.6,10.4-8.3,15.7-12.2c2.4-1.8,5.3-4.7,3.1-7.4
		c-1.5-1.9-5.7-3-8.2-2.4c-5.3,1.2-10.3,3.5-15.3,5.8c-7.2,3.3-14.2,6.9-21.2,10.5c0.3-1.7,1.3-2.5,2.2-3.2
		c5.9-4.9,11.8-9.6,17.5-14.7c1.5-1.3,1.8-4,2.6-6c-2.2-0.4-4.3-0.9-6.5-1.2c-0.6-0.1-1.3,0.2-1.9,0.4c-11.3,4.7-22.6,9.4-33.8,14.2
		c-3.1,1.3-6.1,3-9.1,4.5c-0.2-0.4-0.4-0.7-0.6-1.1c1-0.8,2.1-1.5,3.1-2.3c13-8.9,26.1-17.8,39-26.8c3.9-2.7,7.8-5.7,11.1-9.1
		c1.4-1.4,1-4.5,1.4-6.8c-1.8-0.3-3.8-1.1-5.5-0.8c-3.6,0.7-7.1,1.8-10.4,3.3c-11.8,5.2-23.4,10.6-35.1,16c0.5-1.1,1.2-1.9,2.1-2.5
		c7.6-5,15.4-9.8,22.8-15.1c9.6-6.8,19.1-13.8,28.2-21.2c1.8-1.5,3.4-5.7,2.6-7.5c-1.7-3.8-5.4-5.7-9.9-3.7
		c-7.6,3.3-15.3,6.3-22.9,9.8c-5.9,2.7-11.6,6-17.4,9c-0.6-0.7-1.2-1.3-1.7-2c3.7-3.1,7.5-6,11-9.2c2.8-2.5,4.4-6.1,1.9-9.3
		c-2.6-3.4-6.2-2-9.5-0.3c-3.6,1.9-7.3,3.7-10.9,5.5c0.8-2.2,2.2-3.3,3.5-4.5c5.4-5.1,11.1-10,16.1-15.5c1.5-1.6,1.2-5.2,0.8-7.8
		c-0.1-0.6-4.2-1.3-6-0.7c-6.4,2.2-12.9,4.6-18.8,7.8c-29.8,16-59.4,32.4-89.1,48.5c-4.9,2.7-10,5-15.2,7.2c-2.3,1-5.1,0.9-7.3,2.1
		c-8.8,5-17.4,10.3-26.2,15.4c-51.1,29.6-102.1,59.3-153.3,88.7c-47.9,27.5-95.8,55-143.9,82.2c-59.7,33.7-119.5,66.9-179.3,100.4
		c-61.3,34.4-122.6,68.9-183.9,103.4c-4.2,2.4-8.5,4.6-12.7,6.9c-0.2-0.4-0.4-0.8-0.6-1.2c7.6-4.6,15.2-9.3,22.9-13.8
		c46.2-27.4,92.5-54.8,138.7-82.2c44.8-26.6,89.6-53.2,134.3-79.8c55.2-32.8,110.4-65.5,165.6-98.3c37.7-22.3,75.3-44.8,113.1-66.8
		c39.5-22.9,79-45.6,119-67.5c27.5-15,55.7-28.7,83.8-42.7c4.8-2.4,10.2-3.7,15.3-5.5c0.2,0.5,0.5,1,0.7,1.5
		c-5.8,4.2-11.6,8.5-17.4,12.7c10.4-5.3,20.6-11.1,28.6-19.8c1.3-1.4,2.2-4.9,1.4-6c-1.1-1.5-4.5-2.6-6.2-2
		c-11.9,4.2-23.5,9-35.3,13.4c-2.3,0.9-5,1-7.4,1.5c2.3-1.8,4.7-3.5,7-5.3c5.9-4.4,12.1-8.5,17.6-13.3c1.5-1.3,1.2-4.8,1.8-7.3
		c-2.4-0.1-5-0.8-7.1-0.1c-8.6,3-17.1,6.3-25.5,9.9c-7.4,3.2-14.5,6.9-21.7,10.3c0.4-1.4,1.3-2.2,2.2-2.8
		c11.2-7.1,22.6-13.9,33.6-21.3c6.8-4.6,13.3-9.9,19.4-15.4c1.5-1.4,2.4-5.3,1.5-7c-0.8-1.6-4.4-2.7-6.7-2.6
		c-3.4,0.3-6.7,1.7-9.9,2.9c-2.1,0.8-4.1,1.8-6.1,2.7c3.2-4,6.5-8,9.7-12c4.2-5.3,3.2-9-3.2-10.5c-2-0.5-4.4-0.1-6.3,0.7
		c-14.3,6.1-29,11.5-42.8,18.8c-24,12.7-47.5,26.4-71.1,40c-41,23.5-81.9,47.2-122.8,70.9c-35.2,20.4-70.3,40.8-105.5,61.1
		c-41.1,23.7-82.2,47.3-123.4,70.9c-40.7,23.4-81.4,46.8-122.2,70c-50.9,28.9-102,57.5-153,86.3c-6.1,3.4-12.3,6.8-18.4,10.2
		c4-3.7,8.6-6.5,13.2-9.2c39.3-23.4,78.6-46.9,117.9-70.3c37.4-22.4,74.8-44.9,112.3-67.3c43-25.7,86.1-51.3,129.2-76.8
		c39.7-23.5,79.3-47,119.3-70.1c46.8-27,93.8-53.7,141.1-79.9c21.2-11.7,42.9-22.4,64.9-32.5c6.6-3,11.8-6.7,15.9-12.2
		c2.5-3.4,1.5-5.3-2.8-5c-3.6,0.2-7.4,0.7-10.7,2.1c-13.8,5.7-27.4,11.8-41,17.8c-4.2,1.9-8.4,4.1-12.3,6.5c-4.8,3-9.1,6.7-13.9,9.6
		c-34.8,20.6-69.6,41.3-104.7,61.4c-44.9,25.7-90,51-135.1,76.4c-37,20.8-74.1,41.5-111.1,62.2c-36.2,20.3-72.3,40.6-108.5,60.9
		c-4,2.3-8.2,4.3-12.2,6.5c0.4-1.6,1.3-2.3,2.3-2.9c52.4-30.9,104.9-61.8,157.4-92.7c56.9-33.5,113.5-67.4,170.6-100.5
		c56.4-32.7,113.2-64.7,169.9-96.9c7.6-4.3,15.5-8.7,23.8-11.2c5.8-1.7,9.8-4.5,13.3-8.7c1.1-1.3,2-4.7,1.3-5.4
		c-1.4-1.4-4.1-2.3-6-1.9c-3.5,0.7-7,2.1-10.2,3.8c-13.4,7-26.4,14.6-40,21.2c-9.9,4.8-18.6,11.6-30,14.1c-7.5,1.7-14,7.8-21,12
		c-41.8,24.5-83.4,49.3-125.3,73.6c-39.2,22.7-78.5,45.1-117.9,67.4c-43.4,24.7-87,49.1-130.4,73.7c-48.8,27.6-97.6,55.1-146.5,82.7
		c-8.1,4.6-16.3,9.2-24.4,13.8c-0.2-0.4-0.4-0.7-0.6-1.1c6.8-4.2,13.6-8.4,20.4-12.5c35.5-21.5,70.9-43.1,106.4-64.4
		c37.6-22.7,75.3-45.3,113.1-67.7c36.2-21.5,72.5-43,108.9-64.2c40.9-23.8,81.8-47.4,123-70.6c41.4-23.4,83.1-46.4,124.9-69.4
		c7.5-4.1,15.6-7.2,23.8-10.9c0,1.7,0,2.5,0,3.7c5.5-4.9,10.7-9.4,15.7-14.1c1-0.9,1.5-2.3,2.2-3.5c-1.4-0.7-3-2.1-4.3-1.9
		c-3.2,0.4-6.7,1.1-9.6,2.5c-29,14.5-59.1,26.5-87.1,43.3c-52.6,31.6-105.8,62.2-159,92.7c-59,33.8-118.4,67-177.6,100.4
		c-48.8,27.5-97.7,55-146.6,82.5c-4.3,2.4-8.7,4.7-13,7.1c0.4-1.6,1.2-2.4,2.2-3c17.2-10.3,34.5-20.6,51.7-30.9
		c52.8-31.6,105.5-63.3,158.4-94.8c58-34.5,116.1-69,174.2-103.3c48.6-28.7,97.4-57,147.9-82.2c7.1-3.6,14.3-8.3,21.9-9.3
		c7.3-1,11-5.1,15-9.7c1.3-1.5,1.4-3.9,2.1-5.9c-0.5-0.5-1-1-1.4-1.6c-5.7,2-11.6,3.5-17,6.1c-15.4,7.4-30.5,15.4-45.9,22.9
		c-7.4,3.6-15.4,6-22.4,10.1c-23.9,14-47.3,28.9-71.2,42.9c-57.6,33.7-115.2,67.2-173,100.4C987,231,924.6,266.5,862,301.8
		c-57.2,32.2-114.8,64-172.2,95.9c-2.7,1.5-5.5,2.7-8.2,4c-0.2-0.4-0.4-0.7-0.6-1.1c0.8-0.6,1.5-1.2,2.3-1.7
		c56.9-34.4,113.9-68.7,170.8-103.2c60.5-36.8,121-73.7,182.9-108.1c63.2-35.1,125.1-72.7,187.8-108.5
		c29.5-16.9,59.8-32.4,89.8-48.4c3.6-1.9,7.7-3.1,11.5-4.7c0.4,0.6,0.7,1.1,1.1,1.7c-2.2,1.8-4.4,3.7-6.6,5.5c0.3,0.3,0.5,0.6,0.8,1
		c5-4.1,10.3-8,15-12.4c1.9-1.8,2.6-4.9,3.9-7.4c-3-0.9-6-2.2-9.1-2.7c-1.6-0.2-3.6,0.7-5.2,1.5c-8.2,3.9-16.5,7.9-24.6,12
		c-5.3,2.7-10.5,5.6-15.7,8.4c-0.3-0.4-0.6-0.9-0.8-1.3c7-5.5,14.3-10.8,21-16.6c5.7-5,4.7-6.1-1.3-9.5c-1.3-0.7-3.6-0.3-5.2,0.3
		c-4.8,1.8-9.7,3.6-14.2,6.1c-39.1,21.1-78.4,42-117.2,63.8c-37.2,20.8-73.9,42.6-110.7,64c-43.9,25.5-87.7,51.1-131.5,76.7
		c-38.1,22.3-76.1,44.8-114.1,67.2c-50,29.5-100,59-150,88.5c-48.3,28.5-96.5,57-144.9,85.4c-43.9,25.8-87.9,51.5-131.9,77.1
		c-33.5,19.6-67,39.1-100.7,58.5c-34.1,19.6-68.1,39.3-102.4,58.5c-25,14-50.4,27.4-75.8,40.7c-10.5,5.5-20.4,11.8-28.7,20.3
		c-1.4,1.4-2,3.6-3,5.5c0.5,0.6,0.9,1.3,1.4,1.9c5.7-1.8,11.8-3,17.1-5.6c18-8.8,35.8-18.1,53.6-27.3c6.5-3.4,12.9-6.9,19.3-10.4
		c-0.2,1.5-0.9,2.3-1.7,2.8c-18.1,11.2-36.2,22.1-54.2,33.5c-7.3,4.6-14.1,9.9-20.7,15.4c-1.8,1.5-2.5,5.3-2.2,7.9
		c0.2,1.1,4.5,2.3,6.8,2.1c3.5-0.4,7.1-1.8,10.4-3.2c8.4-3.7,16.7-7.8,25-11.7c-1.1,2.2-2.9,3.3-4.5,4.5c-7.5,6-15.2,11.8-22.3,18.2
		c-1.7,1.5-1.4,5.1-2,7.7c2.1,0.5,4.6,1.9,6.4,1.3c7.2-2.3,14.4-4.9,21.3-8c10.5-4.7,20.8-9.8,31.2-14.8c-0.5,1.7-1.5,2.5-2.5,3.2
		c-7,5.3-14.1,10.5-20.8,16.1c-2,1.7-2.8,4.8-4.2,7.2c2.9,0.6,5.9,2,8.7,1.6c4.7-0.6,9.3-2.3,15.2-4c-2.7,2-4.2,3.2-5.8,4.4
		c-9.9,7.8-19.8,15.6-29.5,23.6c-1.9,1.5-2.9,4.2-4.3,6.3c0.5,0.6,1,1.2,1.5,1.8c18.6-2.6,34.5-12.9,51.9-19.3
		c-9.8,7.9-20.3,14.8-26.8,25.7c3.2,5.7,7.8,4.5,12,2.9c10.7-4.2,21.2-8.6,31.7-13.2c5.9-2.5,11.5-5.5,17.3-8.2c-2.7,3-6,5-9,7.2
		c-9.3,6.9-18.6,13.8-27.7,21c-1.4,1.1-2.5,5.1-1.8,5.8c1.7,1.6,4.4,2.4,6.8,2.7c1.6,0.2,3.5-1,5.2-1.6c3.8-1.3,7.7-2.6,11.5-3.9
		c-0.6,1.6-1.6,2.4-2.6,3.2c-5.2,4.1-10.6,8-15.6,12.3c-1.5,1.3-3.2,5-2.6,5.7c1.8,1.9,4.6,4,7,4c3.5,0.1,7.3-1.1,10.5-2.6
		c12.8-5.9,25.4-12.1,38.1-18.3c5.1-2.5,10.2-5,15.3-7.5c-0.2,1.5-0.8,2.2-1.6,2.7c-13.6,8.3-27.3,16.3-40.8,24.8
		c-6.5,4.2-12.5,9.2-18.6,14.1c-1,0.8-1.6,3.2-1.1,4.3c0.5,1.1,2.6,2.3,3.9,2.2c3.9-0.2,8.1-0.4,11.7-1.8
		c11.2-4.6,22.2-9.7,33.2-14.7c5.5-2.5,10.8-5.2,16.2-7.8c0.2,0.4,0.4,0.7,0.6,1.1c-1,0.8-1.8,1.8-2.9,2.5
		c-5.6,4.1-11.3,8.1-16.9,12.2c-5.1,3.8-5.5,5.3-1.1,9.8c1.4,1.5,5.6,1.6,7.8,0.7c9-3.8,17.8-8.1,26.6-12.4
		c8.7-4.3,17.2-8.9,25.8-13.3c0.2,0.3,0.3,0.6,0.5,0.9c-8.2,5.4-16.4,10.7-24.6,16.1C481.7,718,710.2,594.1,935.6,464.6
		c-7.2,5.3-14.8,10-22.5,14.5c-44.5,26.5-88.9,52.9-133.4,79.4c-44.5,26.5-88.9,53.1-133.4,79.5c-46.6,27.7-93.3,55.4-140.1,82.7
		c-42.1,24.6-84.2,49.3-126.7,73.1c-48.6,27.3-97.7,53.7-146.6,80.4c-6.4,3.5-13,6.5-19.5,9.7c-0.2-0.3-0.3-0.5-0.5-0.8
		c0.7-0.8,1.4-1.7,2-2.5c-5.6,4.1-12.4,7.1-13.9,16.4c4-0.8,7.2-0.9,9.9-2.2c18.7-8.9,37.3-18.1,55.9-27.3c4.7-2.3,9.2-4.9,13.8-7.3
		c0.2,0.3,0.3,0.6,0.5,0.9c-2,1.5-3.9,2.9-5.9,4.4c146-83.5,293.3-164.6,440.8-245.1c-0.9,1.3-2.1,2.2-3.4,2.9
		c-37,21.5-74.1,42.8-110.9,64.7c-33.8,20.1-67,41.2-100.7,61.4c-47.4,28.3-95,56.4-142.8,83.9c-35.2,20.3-70.8,39.9-106.7,59
		c-10.4,5.6-22.2,8.5-33.3,12.8c-2.5,1-5.2,2.2-7,4c-1.1,1.1-1.3,3.9-0.8,5.5c0.3,0.9,3.3,1.7,4.6,1.3c5.5-1.7,11-3.7,16.3-6.1
		c7.1-3.2,13.9-6.8,20.9-10.2c-6.9,7.2-14.5,13.4-21.9,19.7c-1.2,1.1-2.9,3.7-2.7,4c1.6,1.7,3.6,3.3,5.7,4.2c1.1,0.5,3-0.1,4.3-0.7
		c8.7-3.6,17.5-7.2,26-11.2c11.4-5.3,22.7-10.9,34.1-16.3c0,1.4,0,2.5,0,3.6c1.6-1.2,3-2.5,4.7-3.5c17.8-11,35.4-22.2,53.4-32.7
		c47.1-27.5,94.2-55,141.6-82.1c50.6-28.9,101.4-57.3,152.1-85.9c59.2-33.4,118.5-66.7,177.7-100.1c55.9-31.5,111.7-63.2,167.6-94.8
		c4-2.3,8.1-4.3,12.2-6.5c-2.2,2.5-4.8,4.2-7.5,5.8c-51,30.3-102.1,60.6-153.1,91c-66.4,39.5-132.8,79.1-199.3,118.5
		c-63.5,37.6-126.9,75.4-190.8,112.3c-53.5,31-107.6,61.1-161.6,91.2c-14.2,7.9-28.6,16.1-45,19.3c-3.6,0.7-6.9,6.4-5.8,9.5
		c1.6,4.5,5.3,2,8.1,2.1c1.7,0,3.5-0.9,5.2-1.7c8-3.6,15.9-7.6,24-11c10.8-4.6,19.8-13.5,32.4-14.1c0.7,0,1.4-0.8,2.1-1.2
		c51.6-30.4,103-61.1,154.7-91.2c46.3-26.9,93.1-53,139.7-79.6c55-31.4,109.9-63,164.9-94.4c59.3-33.9,118.7-67.7,178.1-101.6
		c6-3.4,12-6.7,17.9-10.1c-0.8,1.7-2,2.6-3.3,3.3c-35.3,21.1-70.5,42.4-105.9,63.4c-56.6,33.7-113.2,67.4-169.8,100.9
		c-53.4,31.6-106.7,63.3-160.5,94.2c-69,39.7-138.3,78.8-207.7,117.9c-10.7,6-22.1,10.9-33.5,15.2c-5.3,2-9.1,4.8-12.1,8.9
		c3.2,5.6,7.6,4.4,12.1,2.8c3.4-1.2,6.9-2.5,10.2-3.9c5.1-2.2,10.2-4.5,15.3-6.7c-0.5,1.8-1.6,2.5-2.6,3.3
		c-3.6,3.1-7.1,6.3-10.6,9.5c-1.3,1.1-2.7,2.1-4,3.2c-4.9,2.9-9.7,5.9-12.6,11c7.3,7.6,14.1,2,22.1,0c-1.8,1.6-2.6,2.5-3.6,3.2
		c-6.2,4.7-12.6,9.2-18.5,14.3c-1.6,1.4-2.9,5.6-2,6.7c1.4,1.7,4.6,2.2,7.2,2.5c1.5,0.2,3.2-0.8,4.7-1.5c12-5.7,24.3-10.9,35.8-17.3
		C368,953,404,932.4,440,912c4.1-2.3,8.2-4.6,12.2-6.9c0.2,0.4,0.4,0.7,0.6,1.1c-28.9,17.3-57.8,34.7-86.8,52
		c0.1,0.2,0.3,0.4,0.4,0.6C521.9,870,677.4,781.1,832.8,692.3c-0.5,1.5-1.5,2.3-2.5,3c-46.3,27.9-92.6,55.9-139,83.6
		c-59.7,35.6-119.2,71.4-179.4,106.2c-49.8,28.8-100.3,56.5-150.7,84.3c-10.1,5.5-20.2,11.3-32.1,13.1c-6.5,1-9.1,6.3-6.8,10.5
		c2.1,3.7,4.9,2.4,7.3,1.4c8-3.5,15.9-7.5,23.9-11.1c9.5-4.3,19.6-7.5,28.6-12.6c32.3-18.3,64.2-37.4,96.4-56
		c37.5-21.7,75-43.2,112.5-64.9c33.6-19.4,67.2-38.9,100.8-58.2c34.3-19.6,68.6-39,103-58.3c36.7-20.7,73.5-41.2,110.3-61.8
		c38.3-21.5,76.6-43.1,114.9-64.6c4.7-2.6,9.7-4.9,14.5-7.3c-1,1-2,2.1-3.1,2.8c-8.8,5.3-17.7,10.4-26.5,15.7
		c-44.6,26.6-89.1,53.4-133.7,79.9c-44.4,26.5-88.9,53-133.5,79.3c-43.6,25.7-87.3,51.3-131,76.7c-44,25.6-88.1,51.1-132.4,76.2
		c-38.4,21.7-77.1,42.9-115.8,64.1c-6.2,3.4-12.8,5.8-19.3,8.6c-0.3-0.5-0.6-1-1-1.6c6-4.8,12-9.6,18-14.4c-0.3-0.4-0.7-0.9-1-1.3
		c-7.4,5.7-14.9,11.2-22,17.3c-2,1.7-2.7,4.8-4.1,7.2c3.1,0.4,6.2,0.9,9.3,1.2c0.3,0,0.6-0.2,0.9-0.3c13.7-5.8,27.6-11.3,41.2-17.4
		c8.8-4,17.2-8.8,25.8-13.2c0.2,0.2,0.3,0.5,0.5,0.7c-3.6,2.5-7.1,5-10.7,7.5c169.1-100.6,341.3-195.7,512.3-293
		c-2,2.2-4.4,3.9-6.8,5.3c-45.6,27.5-91.2,55-136.9,82.3c-56.4,33.7-112.8,67.4-169.4,100.6c-47.9,28.1-96.1,55.8-144.4,83.2
		c-23.4,13.3-47.3,25.6-71,38.1c-5.5,2.9-11.5,5-17,8c-1.7,0.9-3.6,4.4-3,5.9c1.1,2.9,3.8,5.2,7.6,3.6c9.9-4.1,20.1-7.6,29.7-12.4
		c19.4-9.7,38.8-19.5,57.7-30.2c36.1-20.5,71.6-41.9,107.7-62.4c59.1-33.6,118.6-66.6,177.8-100.1c54-30.5,107.9-61.2,161.9-91.8
		c5.8-3.3,11.7-6.5,17.5-9.7c-0.6,1.6-1.6,2.4-2.7,3.1c-23.4,14.3-46.9,28.3-70.1,42.8c-62.2,38.9-126.6,74-190.2,110.6
		c-33.3,19.2-66.3,39.1-99.3,58.9c-18,10.9-35.4,22.9-53.7,33.3c-26.6,15.2-53.8,29.6-80.9,44c-8.9,4.7-18.2,8.9-27.6,12.6
		c-4.2,1.7-8.6,2.3-10.6,7.1c4.3,6.7,5.2,7.1,12.6,4.6c5.1-1.8,10.1-3.8,15.2-5.8c-2.6,3.5-5.3,6.7-7.3,10.4c-1,1.8-1,4.6-0.3,6.5
		c0.4,1.1,3.4,1.6,5.2,1.5c3.1-0.2,6.2-1,9.2-1.5c-0.3,1.2-0.7,1.6-1.3,1.9c-7,4.8-14,9.5-20.9,14.3c-1.1,0.7-2.7,2.5-2.6,2.8
		c2.7,4.2-2.4,4.9-3.1,7.4c-0.5,1.8-1.4,4.9-0.6,5.5c2.9,2.3,6.2,4.3,10.4,2.1c3.2-1.7,6.7-2.8,10.1-4.3c5.8-2.6,11.6-5.4,17.2-8.1
		c-5.5,5.3-10.9,10.6-16.5,15.7c-1.9,1.8-2.4,3.2-0.8,5.5c1.6,2.3,2.7,4.7,6.1,3.4c1.6-0.6,3.3-0.7,4.8-1.3
		c11-4.7,21.9-9.5,32.8-14.4c3.2-1.4,6.5-2.8,9.4-4.7c2.5-1.6,4.4-4.1,6.8-5.8c35.7-25.8,74.2-47.1,112.4-68.9
		c40.8-23.3,81.3-47,121.9-70.4c30.3-17.5,60.6-35.2,91.1-52.3c35.3-19.8,70.9-39,106.2-58.7c34.6-19.3,69.1-38.9,103.6-58.5
		c41.7-23.7,83.3-47.4,125-71.1c6-3.4,12-6.7,18-10c-0.7,1.5-1.7,2.3-2.9,3c-22.1,13.4-44.2,26.8-66.4,40.1
		c-40.8,24.6-81.6,49.2-122.4,73.7c-43,25.7-86,51.4-129.1,77c-37.6,22.4-75.2,44.9-113.1,66.8c-48.2,27.9-96.6,55.6-145.2,83
		c-30.4,17.1-61.2,33.3-91.9,49.7c-7.2,3.8-14.8,6.9-21.8,11c-2,1.2-4.3,4.9-3.9,6.8c0.7,3.2,2.8,7.1,7.9,4.8
		c5.3-2.3,10.9-4.1,16.1-6.6c7.9-3.6,15.6-7.6,23.3-11.4c0.1,0.2,0.2,0.4,0.3,0.6c-1.2,1.3-2.5,2.6-3.7,3.9c-2.4,1.5-4.8,3-7.3,4.5
		c-10,6.7-20.7,12.5-27.2,23.2c-0.8,1.3-1.2,2.9-1.7,4.4c1.7,0.5,3.3,1.1,5,1.4c0.9,0.2,2-0.1,2.9-0.4c10.1-3.7,20.2-7.5,30.2-11.2
		c1.6-0.6,3.1-1.2,4.7-1.7c0.3,0.4,0.7,0.8,1,1.3c-9.7,4.8-15.3,12.7-18.5,22.8c3.4,0.1,6.7,0,9.4-1.3c18.7-8.9,37.3-18,55.9-27.2
		c4.9-2.4,9.7-5.1,14.6-7.7c0.2,0.4,0.4,0.8,0.6,1.2c-5.8,3.7-11.5,7.6-17.4,11.2c-12.3,7.6-24,16.1-33.3,27.3c-0.6,0.7-1.1,1.6-2,3
		c8.8,6.5,15.2-3.3,23.7-3c-5.7,4.3-10.8,8-14.5,10.7c-0.5,2.4-0.4,3.7-0.9,4.4c-1.4,1.8-3.2,3.4-4.6,5.2c-1.7,2.2-1.2,3.3,1.4,4.9
		c5.1,3.2,9.4,1.7,14-0.5c7.1-3.3,14.2-6.5,21.3-9.8c0.1,0.2,0.2,0.4,0.3,0.6c-4.4,3.4-8.7,6.7-13.4,10.3c1.5,0.6,2.3,0.9,2.3,0.9
		c-2.2,3.6-6.8,8.4-5.9,10.4c3.6,7.5,10.2,4.5,16,2.1c-0.9,1-1.8,2.1-3.5,4c2.6-0.7,4.1-1.1,5.6-1.5c-2.1,3.2-4.5,6-7.4,7.9
		c-4.3,2.9-3.2,5.4,0.3,7.4c1.7,1,4.5,1.3,6.3,0.6c7-2.5,13.8-5.5,20.2-8.1c1.2,1.2,2.2,2.3,3.4,3.4c-1.9,1.6-3.8,3.4-5.8,5
		c-3.9,2.9-3.4,5.9,0.3,8c1.7,1,4.6,1.2,6.4,0.5c8.9-3.5,17.8-7.3,26.5-11.3c7.1-3.3,14-7,21.6-10.9c-0.7,1.7-1.1,2.5-1.5,3.3
		c1-0.4,2-0.8,2.9-1.3c14.6-9.4,29-19.3,44-28.1c53.2-31.2,106.7-61.9,160-93.1c44.8-26.3,89.3-53,133.9-79.6
		c44.3-26.4,88.5-53,132.9-79.4c51.2-30.5,102.4-60.8,153.6-91.2c41.7-24.7,83.3-49.4,125.1-73.9c40.6-23.8,81.3-47.6,122.3-70.8
		c33.3-18.8,67.2-36.8,100.9-54.9c6.2-3.3,12.8-5.8,19.2-8.6c0.3,0.5,0.6,1.1,0.9,1.6c-34.8,25.3-72.5,46.1-109,68.9
		c0.9,0.1,1.7,0,2.3-0.4c16.4-9.1,32.8-18.2,49.2-27.2c6.4-3.5,13.3-6.1,19.5-9.9c6.6-4.1,12.5-9.1,18.7-13.8
		c9.3-7,18.6-13.9,27.8-21c1.3-1,2.8-4.1,2.3-4.7c-1.3-1.6-3.5-2.7-5.6-3.3c-1.3-0.4-2.9,0.5-4.3,0.8c-3,0.7-6,1.4-9,2.1
		c0.5-1.7,1.4-2.6,2.4-3.3c7.4-5.9,14.8-11.8,22.2-17.5c3.3-2.5,3.6-5.7,2.5-9.6c-7.5-1.7-14,2.1-20.2,5c-4.4,2.1-7,7.6-11.2,10.3
		c-29.9,19.1-59.7,38.4-90.2,56.5c-47.2,28-94.9,55.2-142.5,82.5c-41.2,23.6-82.4,47-123.7,70.3c-40.2,22.7-80.5,45-120.7,67.6
		c-41.8,23.5-83.6,47-125.4,70.5c-2.3,1.3-4.7,2.3-7.1,3.5c8.9-6.6,18.2-12.2,27.6-17.8c46.4-27.4,92.8-54.8,139.2-82.2
		c46.5-27.5,93-55.2,139.6-82.6c49.4-29,98.8-57.8,148.4-86.4c31.9-18.4,64-36.5,96-54.6c11.7-6.6,23.7-12.7,35.2-19.6
		c11.1-6.5,23.4-10.6,33.1-19.8c8.1-7.7,17.8-13.9,26.6-20.9c2.4-1.9,4.6-4.3,6.5-6.8c0.7-1,0.5-2.8,0.4-4.3c0-0.4-1.5-1.2-1.9-1
		c-5,2-10.2,3.7-14.8,6.5c-5.4,3.2-9.9,7.9-15.3,11.1c-53.7,32.1-107.2,64.4-161.2,95.9c-39.8,23.2-80.3,45.4-120.4,68.1
		c-34.5,19.5-69,39-103.5,58.5c-38,21.5-75.9,43-113.9,64.5c-9.6,5.4-19.2,10.8-28.8,16.2c0.6-1.6,1.8-2.4,3-3.1
		c25.5-15.2,51-30.4,76.5-45.6c44.8-26.6,89.5-53.3,134.3-79.8c47.1-27.8,94.3-55.6,141.5-83.2c31.9-18.6,63.8-37.5,96.2-55.3
		c36.1-19.9,71-41.6,104-66.1c4-3,7.9-6.2,11.3-9.7c1.1-1.1,1.2-4,0.6-5.7c-0.3-1-3.5-2.2-4.3-1.7c-6.2,3.7-15.2,1.6-19.5,9.8
		c-1.7,3.2-5.9,5.3-9.2,7.4c-37,23-73.8,46.4-111.3,68.8c-43.6,26-87.6,51.2-131.6,76.5c-44.7,25.7-89.6,51.2-134.6,76.4
		c-55.3,31-110.7,61.6-166.1,92.4c-6.1,3.4-12.2,6.8-18.3,10.2c0.3-1.5,1-2.1,1.8-2.6c20-12,40.1-24,60.1-36.1
		c50.8-30.7,101.6-61.5,152.4-92.1c35.8-21.5,71.8-42.9,107.8-64c35.5-20.8,71.1-41.4,106.8-61.7c31.4-17.9,63-35.5,94.8-52.6
		c21.1-11.4,40.7-24.9,59.7-39.5c1.8-1.4,2.7-3.9,4-5.8c-2.5-1.4-5.4-4.3-7.6-3.8c-6.7,1.4-14.1,1.6-19.4,7.1c0,0,0,0,0,0
		c-1.8,0.4-3.6,0.7-5.4,1.1c0.6-1.2,1-2.9,2-3.6c7.8-5.3,16-10.1,23.7-15.5c7.3-5.1,14.1-10.8,21-16c-2.3-4.6-5-5.2-8.2-4.1
		c-8,2.7-16,5.4-24.1,8.1c-0.6,0.2-1.3,0.1-3,0.2c5.8-4.4,10.9-8.1,15.6-12c4.5-3.7,8.8-7.5,12.7-11.8c1.1-1.2,1-4.1,0.5-5.9
		c-0.2-0.7-3.3-1.3-4.8-0.9c-7.1,2-14.2,4.1-21.2,6.5c-4.8,1.7-9.3,4-13.9,6c6.4-6.7,13.4-12.2,20.2-17.9
		c12.1-10.1,24.4-20,36.1-30.5C1682.3,384.1,1681.7,382.5,1675.6,377.2z M705.1,535c4.6-2.3,9.2-4.7,13.9-7c0,0,0,0,0,0
		C714.4,530.3,709.7,532.7,705.1,535z M720.3,527.3c3-2.1,5.9-4.3,8.9-6.4C726.2,522.9,723.3,525.2,720.3,527.3
		C720.3,527.3,720.3,527.3,720.3,527.3z M974.9,852.7c-4.6,2.3-9.2,4.7-13.9,7c0,0,0,0,0,0C965.7,857.4,970.3,855.1,974.9,852.7z
		 M959.4,860.8c-2.9,2-5.6,4.2-8.5,6.2C953.7,865,956.5,862.8,959.4,860.8C959.4,860.8,959.4,860.8,959.4,860.8z M1268.7,536.5
		c-0.4,0.1-0.9,0.2-1.3,0.3C1267.8,536.7,1268.3,536.6,1268.7,536.5L1268.7,536.5C1268.7,536.5,1268.7,536.5,1268.7,536.5
		c-3,2.1-5.9,4.3-8.9,6.3C1262.8,540.8,1265.7,538.6,1268.7,536.5z M1270.3,535.6C1270.3,535.6,1270.3,535.6,1270.3,535.6
		C1270.3,535.6,1270.3,535.6,1270.3,535.6c1.9-1.2,3.8-2.4,5.6-3.6C1274.1,533.2,1272.2,534.4,1270.3,535.6
		c6.4-3.3,12.8-6.6,19.2-9.9C1283.1,529,1276.7,532.3,1270.3,535.6z M1038.2,824.3c0.5-0.7,1-1.4,1.6-2
		C1039.2,822.9,1038.8,823.7,1038.2,824.3C1038.2,824.3,1038.2,824.3,1038.2,824.3z M1044.2,800.3
		C1044.2,800.3,1044.2,800.3,1044.2,800.3c0.5-0.6,0.9-1.3,1.4-1.8C1045.1,799,1044.7,799.7,1044.2,800.3z M1042.7,801.2
		c-6.3,3.3-12.6,6.6-18.9,9.9C1030.2,807.7,1036.5,804.4,1042.7,801.2C1042.8,801.2,1042.7,801.2,1042.7,801.2z M918.3,680.3
		C918.3,680.3,918.3,680.3,918.3,680.3c4.4-2.9,8.8-5.9,13.3-8.7C927.2,674.4,922.8,677.4,918.3,680.3z M917.1,681
		C917.1,681,917.1,681,917.1,681c-4.6,2.4-9.3,4.7-13.9,7.1C907.8,685.7,912.4,683.3,917.1,681z"/>
	<path d="M297.7,903.1C297.7,903.1,297.7,903.1,297.7,903.1C297.7,903,297.7,903,297.7,903.1C297.7,903,297.7,903.1,297.7,903.1z"/>
	<path d="M626.1,1172.4c-0.1,0.1-0.2,0.1-0.2,0.2c0.1,0,0.2-0.1,0.3-0.1C626.2,1172.5,626.2,1172.5,626.1,1172.4
		c0.1,0.1,0.1,0.1,0.1,0.1c0-0.1,0.1-0.1,0.1-0.2C626.2,1172.4,626.1,1172.4,626.1,1172.4L626.1,1172.4z"/>
	<path d="M603.2,1191.2c-1,1.5-2,4.5-1.4,5.2c1.7,1.7,4.2,3,6.7,3.6c1.5,0.4,3.5-0.7,5.2-1.4c3.2-1.3,6.4-2.7,9.6-4.2
		c5-2.3,9.9-4.8,14.9-7.2c0.2,0.3,0.3,0.6,0.5,0.9c-7.8,5.3-15.7,10.7-23.5,16c0.2,0.3,0.5,0.6,0.7,0.9c3.4-1.2,6.7-2.5,10.1-3.7
		c-3,3.3-6.4,5.9-9.6,8.7c-2.2,1.9-5.6,3.8-3.7,7.3c2,3.6,5.6,3.6,9.2,2.2c1.2-0.5,2.5-0.8,3.8-1.3c7.6-3.1,15.1-6.2,22.7-9.3
		c0.1,0.2,0.2,0.3,0.3,0.5c-3.7,2.9-7.5,5.7-11.2,8.6c0.1,0.3,0.3,0.6,0.4,0.9c2.1-0.5,4.2-1,6.3-1.5c-2.8,3.4-6.2,5.9-9.2,8.9
		c-1.3,1.2-2.8,3.9-2.4,4.7c1,1.5,3.3,3,5.1,3c3,0.1,6.1-0.8,10.3-1.5c-3.9,3.1-7,5.6-10,8c0.2,0.3,0.3,0.5,0.5,0.8
		c3.9-1.5,7.7-3,12.9-5c-6.9,7.4-16.1,10.3-20.1,20.8c4.6-0.9,8.1-0.8,10.9-2.1c17-7.9,33.9-16,50.8-24.2c5-2.4,9.7-5.2,14.6-7.8
		c0,1.5-0.5,2.1-1.1,2.5c-11.4,7.1-22.7,14.3-31.6,24.6c-2,2.3-3.2,3.4-1.1,6.6c2.5,3.8,5.1,3,8,1.6c16.9-8.1,33.8-16.4,50.6-24.6
		c4.8-2.4,9.5-5,14.2-7.5c0.2,0.4,0.4,0.8,0.6,1.2c-7.4,4.6-15,9.1-22.2,14c-10.1,6.9-20.1,14-30,21.3c-2.2,1.6-5,3.8-2.8,7.5
		c2.2,3.7,5.4,3.9,9,2.4c2.3-1,4.7-1.7,6.9-2.9c20.3-10.9,40.6-21.9,60.9-32.8c1.1-0.6,2.4-1.1,3.5-1.6c-0.3,1.5-1,2.2-1.8,2.8
		c-9.5,6.1-19.1,12-28.3,18.5c-6.4,4.4-12.3,9.6-18.2,14.6c-1,0.8-1,2.8-1.4,4.3c1.7,0.5,3.6,1.7,5.2,1.3c4.3-1,8.8-2.2,12.7-4.2
		c28.4-14.7,57-29.1,85-44.7c33.9-18.9,67.3-38.6,100.8-58.2c46.9-27.5,93.8-55.1,140.6-82.8c39.2-23.2,78.3-46.7,117.5-70.1
		c41-24.4,82-48.9,123.2-73.1c52.1-30.6,104.3-60.9,156.5-91.3c7-4.1,14.4-7.6,21.6-11.3c-0.8,2-2,3.2-3.3,4
		c-25.9,16.1-51.6,32.6-77.9,48.1c-41.8,24.7-84.1,48.7-126.1,73.2c-50.8,29.5-101.5,59.1-152.2,88.7
		c-49.3,28.8-98.6,57.5-147.8,86.3c-35.1,20.5-70.3,40.7-105.2,61.5c-35.9,21.5-71.4,43.5-106.9,65.5c-6.1,3.8-11.7,8.7-17.1,13.6
		c-1.3,1.2-1,4.3-1.4,6.5c2.1,0.2,4.4,1,6.4,0.5c2.5-0.6,4.9-2,7.2-3.3c41.4-23.2,82.9-46.1,124.1-69.6
		c33.6-19.1,66.9-38.8,100.2-58.5c41.6-24.5,83-49.2,124.5-73.9c37.5-22.3,74.9-44.7,112.5-67c43.4-25.7,86.7-51.5,130.4-76.7
		c25.9-14.9,52.3-28.8,78.6-43c5.1-2.8,10.7-4.7,16.1-6.9c0.2,0.4,0.4,0.7,0.5,1.1c-1.2,0.8-2.4,1.7-3.6,2.4
		c-27.8,16.2-55.5,32.5-83.4,48.6c-51.4,29.7-103,59.1-154.4,88.9c-52.1,30.2-104.1,60.6-156,91.1c-50,29.4-100,59-149.8,88.8
		c-39.8,23.9-79.5,48.1-118.9,72.5c-9.7,6-18.4,13.6-27.3,20.7c-3,2.4-3.2,5.8,0.2,7.9c1.6,1,4.7,1,6.5,0.2
		c11.2-5,22.3-10.3,33.3-15.7c4.8-2.3,9.4-5,14.2-7.6c0.2,1.1,0.1,1.6-0.2,1.8c-9.9,7.4-19.8,14.8-29.7,22.3
		c-3.4,2.6-6.8,5.3-10,8.2c-0.8,0.8-1.6,2.7-1.2,3.4c0.6,1.1,2.2,2,3.5,2.2c1.6,0.2,3.4-0.2,4.8-0.9c11.2-5.4,22.6-10.3,33.4-16.5
		c53.4-30.9,106.8-61.9,159.9-93.2c37.7-22.2,75-45.1,112.6-67.5c46-27.5,91.9-55.1,138.1-82.2c42.2-24.8,84.7-49,127.1-73.4
		c4.4-2.5,9.2-4.6,13.7-6.8c-0.6,1.7-1.5,2.6-2.6,3.3c-18.4,11.8-36.5,24.2-55.3,35.4c-42.5,25.2-85.4,49.8-128.1,74.7
		c-60.6,35.4-121.1,70.8-181.6,106.4c-50.5,29.7-100.8,59.6-151,89.8c-16.7,10.1-32.7,21.4-49,32.2c-3.1,2-5.9,5.1-3.8,8.5
		c0.8,1.3,6.1,0.9,8.7-0.2c8.6-3.6,17.1-7.5,25.2-12.1c36.8-20.8,73.8-41.3,110.2-62.8c61.8-36.6,123.1-74,184.8-110.7
		c49.7-29.6,99.8-58.8,149.7-88c7.3-4.3,15-7.9,22.5-11.8c-0.7,1.9-1.8,2.8-3,3.6c-15.3,9.3-30.5,18.8-46,27.9
		c-39.7,23.4-79.7,46.4-119.3,70c-45.9,27.3-91.7,54.8-137.2,82.7c-43.7,26.8-87.1,54.1-130.5,81.3c-7.4,4.7-14.2,10.3-20.9,16
		c-1.4,1.2-2.2,4.6-1.5,6.3c1.3,3.2,4.1,1.7,6.4,0.5c3.8-2,7.7-3.8,11.5-6c43.1-24.9,86.3-49.6,129.1-74.9
		c46.3-27.2,92.1-55.3,138.5-82.4c46.5-27.2,93.4-53.9,140.2-80.7c6.7-3.8,13.9-6.9,20.8-10.3c-1.3,1.1-2.4,2.3-3.8,3.1
		c-45.8,27.1-91.7,54.2-137.5,81.2c-38,22.4-76.1,44.7-113.9,67.5c-37.1,22.3-74,45-110.9,67.6c-11.5,7-22.8,14.3-34.1,21.5
		c1.9,0.1,3.3-0.6,4.7-1.4c28.1-16.6,56.2-33.2,84.3-49.8c51.7-30.5,103.5-60.9,155-91.7c45.6-27.2,90.8-54.9,136.2-82.6
		c7.6-4.6,14.8-9.9,22.1-14.9c7.7-5.4,15.5-10.6,23-16.3c1.3-1,1.5-3.6,2.2-5.5c-1.9-0.1-4-0.8-5.6-0.1c-7.9,3.4-16,6.5-23.5,10.8
		c-49.1,28-98.2,56.1-147,84.6c-38,22.2-75.4,45.2-113.3,67.5c-42,24.7-84.3,49.1-126.4,73.6c-6.3,3.7-12.8,7.1-19.2,10.6
		c0.4-1.6,1.2-2.4,2.2-3c16.6-10,33.3-20,50-29.8c58.1-34.4,116.6-68.1,174.3-103.1c63.1-38.2,125.7-77.5,188.3-116.5
		c10.1-6.3,19.6-13.7,29.2-20.8c1.2-0.9,1.4-3.2,2.1-4.8c-1.7-0.1-3.5-0.6-5-0.1c-4.9,1.9-10,3.8-14.6,6.3
		c-34.1,19.1-68.2,38.4-102.2,57.6c-4.2,2.4-8.4,4.8-12.6,7.2c0.3-1.6,1.1-2.3,2-2.9c51.5-31.1,103.1-62.1,154.4-93.5
		c11.4-7,22-15.3,32.8-23.3c1.3-1,1.1-4,1.6-6.1c-2.1-0.5-4.5-1.9-6.1-1.3c-8.6,3.5-17,7.4-25.3,11.4c-6.8,3.3-13.3,7-20,10.5
		c0.1-1.4,0.7-2.1,1.5-2.6c9.8-6.2,19.8-12.1,29.4-18.6c13.6-9.4,27-19.2,40.3-29c1.4-1,1.8-3.5,2.7-5.2c-2.1-0.4-4.6-1.6-6.4-1
		c-5.5,1.9-10.9,4.1-16,6.9c-29.3,16.2-58.8,32.1-87.7,49c-50.4,29.4-100.6,59.2-150.7,89.2c-35.2,21-69.9,42.7-105.1,63.8
		c-44.4,26.6-88.7,53.3-133.5,79.3c-37.7,21.9-75.9,42.9-114,64.3c-4.8,2.7-9.9,4.8-14.9,7.1c0.3-1.7,1.1-2.6,2-3.1
		c24.1-15,48-30.3,72.3-44.8c43-25.7,86.3-50.9,129.5-76.2c49-28.7,98-57.2,147-85.8c52-30.4,104.1-60.5,155.9-91.2
		c46.1-27.4,91.8-55.3,137.5-83.2c14.6-8.9,28.6-18.7,42.8-28.2c1.3-0.9,2-2.7,3-4.1c-1.9-0.7-3.9-2.1-5.8-1.9
		c-2.9,0.3-5.9,1.3-8.5,2.6c-16,8-32.2,15.7-47.8,24.5c-32.1,18-64,36.5-95.8,55c-48.9,28.4-97.7,57-146.5,85.6
		c-44.9,26.3-89.7,52.9-134.7,79.2c-42.2,24.7-84.4,49.5-126.7,74c-37.2,21.5-74.6,42.7-111.9,63.9c-4.1,2.3-8.4,4.3-12.6,6.5
		c-0.2-0.4-0.4-0.7-0.6-1.1c7.2-4.6,14.3-9.5,21.7-13.9c44.3-26.4,88.6-52.8,133.1-78.8c61.2-35.7,122.6-70.9,183.8-106.5
		c61.8-35.9,123.7-71.7,185.2-108.1c59-34.8,117.6-70.2,176.2-105.7c10.8-6.5,20.7-14.4,30.8-21.9c1.1-0.8,2.2-3.1,1.8-4
		c-0.5-1.1-2.6-1.8-4.1-2.2c-1-0.3-2.4,0.1-3.4,0.5c-8.7,3.7-17.5,7.2-26,11.2c-7,3.2-13.7,7-20.5,10.5c5.4-4.7,11.5-8.2,17.4-12.1
		c17.2-11.3,34.3-22.6,51.2-34.3c2.7-1.8,4.1-5.5,6-8.3c-3.6,0.1-7.4-0.4-10.9,0.3c-3.8,0.8-7.3,3.5-11.1,4.2
		c-9.4,1.7-16.7,7-24,12.4c-3.1,1.4-6.2,2.8-9.3,4.2c-5.4,3.2-10.8,6.4-16.1,9.6c0.1-0.1,0.1-0.1,0.2-0.2c-0.8,0-1.6,0-3.4,0
		c2-1.4,3.2-2.2,4.4-3c30-19,60.1-37.8,89.9-57.1c7.6-4.9,14.2-11.3,21.2-17.2c0.9-0.8,1-2.6,1.5-3.9c-1.4-0.5-2.7-1.1-4.1-1.3
		c-0.9-0.2-2,0-3,0.3c-7.3,2.5-14.6,5-22.8,7.8c1.5,0.9,2.2,1.3,3.5,2.1C1380,858.2,1217,945.7,1056.4,1037.4c0.4-1.2,1-1.9,1.8-2.4
		c26.7-16.1,53.4-32.2,80.1-48.3c46.2-27.7,92.4-55.4,138.7-83c34.3-20.5,68.5-41.3,103.1-61.3c37.8-21.9,76.1-43,114.2-64.4
		c8-4.5,15.5-9.7,23-15.3c14-10.6,29.6-18.9,44.3-28.6c9.8-6.5,19.2-13.6,28.7-20.6c3.3-2.5,4.7-6.3,2.5-9.6c-0.9-1.3-5.7-1-8.1,0
		c-8.1,3.3-16,7.2-23.9,11c-7,3.4-14,7-21,10.4c0.6-1.6,1.7-2.4,2.7-3.1c16.9-12,33.7-24.1,50.5-36.2c1.6-1.1,2.6-3,4-4.6
		c-9.5-5.4-11.3-5.1-18.1,1.8c-1.1,1.2-2.5,2.2-3.8,3.2c-33,24.5-68.5,44.9-103.9,65.6c-38.9,22.8-78.3,44.9-117.5,67.1
		c-40,22.7-80,45.3-120,67.9c-38.6,21.7-77.2,43.4-115.8,65.1c-6.2,3.5-12.5,6.9-18.8,10.4c-0.2-0.4-0.4-0.7-0.6-1.1
		c7.1-4.2,14.2-8.4,21.2-12.6c39.7-23.5,79.4-46.9,119-70.6c39.3-23.4,78.5-47.1,117.7-70.6c32.3-19.4,64.6-38.7,96.9-58.1
		c44.4-26.7,90.9-49.7,134.1-78.5c14.3-9.6,28.1-19.9,41.9-30.2c2.6-2,4.8-5.1,6.1-8.2c1.5-3.7-1.8-6.5-5.5-5.2
		c-3.6,1.3-7.2,2.7-10.3,4.8c-1.8,1.2-2.4,4.2-4.2,5.6c-4.2,3.5-8.6,6.8-13.3,9.6c-47.5,28.9-94.7,58.2-142.6,86.3
		c-50.5,29.6-101.7,58-152.6,87c-66.6,38-133.1,76.1-199.6,114.1c-5.8,3.3-11.6,6.5-17.4,9.8c0.7-1.7,1.9-2.5,3.1-3.3
		c15.5-9.3,31-18.6,46.5-27.9c41.1-24.7,82.2-49.4,123.3-74.1c42.2-25.4,84.4-50.9,126.7-76.2c33-19.8,66.1-39.4,99.3-59
		c16.6-9.8,33.8-18.5,50.1-28.7c22.9-14.3,45.2-29.6,67.6-44.6c7.2-4.8,14.2-9.9,21-15.1c1.4-1,2.5-3.4,2.4-5
		c-0.1-1.3-2.5-3.5-3.6-3.3c-3.8,0.5-7.9,1.1-11.1,3c-4.5,2.7-8,7-12.4,9.8c-31.1,19.4-62.1,39.1-93.6,57.7
		c-52.4,31-105,61.6-157.8,92c-55.1,31.7-110.4,62.8-165.7,94.1c-48.8,27.7-97.5,55.3-146.3,82.9c-4.1,2.3-8.2,4.4-12.3,6.7
		c-0.2-0.4-0.5-0.9-0.7-1.3c130.6-78.5,261.3-157,391.9-235.5c-0.8-0.2-1.4-0.2-2,0.1c-40.3,23.1-80.6,46.1-120.8,69.3
		c-63.7,36.7-127.5,73.1-191,110.2c-43.1,25.2-85.8,51.2-128.6,76.8c-39,23.3-78,46.7-117.1,69.9c-41.5,24.7-82.8,49.6-124.6,73.7
		c-34.5,19.9-69.5,38.8-104.3,58.1c-3.5,2-7.4,3.4-11.1,5.1c-0.1-0.3-0.3-0.6-0.4-0.9c2.5-2.1,5-4.3,7.5-6.4c-1,0.3-1.9,0.5-2.8,0.9
		C614.8,1177.5,608.2,1183.6,603.2,1191.2z M1130.4,1133.7C1130.4,1133.7,1130.4,1133.7,1130.4,1133.7c-1.5,1.2-2.9,2.5-4.5,3.6
		C1127.5,1136.2,1128.9,1134.9,1130.4,1133.7z M1132,1132.8C1132,1132.8,1132,1132.8,1132,1132.8c2.6-1.3,5.2-2.5,7.8-3.8
		C1137.2,1130.3,1134.6,1131.5,1132,1132.8z"/>
	<path d="M232,514.3c51.6-30.1,102.8-60.8,154.1-91.4c54.4-32.4,108.7-65.1,163.3-97.4c60.1-35.5,120.4-70.7,180.8-105.8
		c10.5-6.1,21.7-11.1,32.6-16.6c0.3,0.4,0.5,0.8,0.8,1.2c-1.2,1-2.2,2.1-3.5,3c-9.9,6.7-19.6,13.7-29.8,19.9
		c-42.5,25.5-85.1,51-127.9,76c-54.2,31.8-108.7,63.2-163.1,94.7c-52.5,30.4-105.2,60.6-157.6,91.3
		c-57.2,33.5-114.3,67.3-171.2,101.4c-14.8,8.8-28.6,19.2-42.8,29c-2.1,1.4-4.8,3.2-2.1,6.4c2.2,2.7,4.4,4.1,8.1,2
		c16.9-9.2,33.9-18.2,50.8-27.3c6.3-3.4,12.5-7,18.7-10.5c-0.7,1.7-1.9,2.5-3.2,3.3c-21.6,14-43.2,27.8-64.7,42
		c-3.5,2.3-6.3,5.5-9,8c3.1,6.3,7,6.5,11.7,4.2c7.7-3.8,15.6-7.2,23.3-11c5.5-2.7,10.8-5.7,16.2-8.5c-1.3,2.1-3.1,3.2-4.8,4.5
		c-9.8,7.1-19.7,14.1-29.4,21.3c-3.7,2.7-6.9,6-4.5,12.5c4-0.7,8.7-0.6,12.5-2.4c18.3-8.6,36.8-17,54.4-26.9
		c39-22,77.7-44.6,116.3-67.3c51.5-30.2,102.9-60.6,154.2-91.2c52.7-31.4,105.1-63.3,157.8-94.7c49.9-29.9,99.9-59.8,150.1-89.1
		c19.8-11.5,40.3-21.9,60.8-32c9.7-4.8,18.5-10.4,26.3-17.6c1.6-1.5,2-4.4,2.9-6.7c-2.4-0.8-4.9-2.5-7-2.1c-4,0.7-8,2.3-11.6,4.2
		c-18.9,10.1-37.7,20.3-56.5,30.5c-6.4,3.4-12.8,6.8-19.1,10.3c0,0,0,0,0,0c1.1-1,2.2-2.2,3.4-3.1c2.1-1.5,4.3-3,6.4-4.4
		c-4.2,2.4-8.3,4.9-12.5,7.3c1,0,1.9,0,2.9,0l0,0c-1,0-1.9,0-2.9,0c0,0,0,0,0,0c-0.1,0-0.2,0-0.3,0c-0.1,0-0.1,0.1-0.2,0.1
		c-1,0.2-2.1,0.2-2.9,0.7c-5.5,3.2-11.1,6.4-16.5,9.8c-5.2,3.2-10.2,6.5-15.3,9.8c-0.4,0.2-0.7,0.4-1.1,0.5
		c-0.1,0.1-0.2,0.2-0.3,0.2c-1.4,0.5-2.8,0.9-4.1,1.6c-33.3,19.3-66.5,38.7-99.8,57.8c-50.5,29-101.1,57.7-151.7,86.5
		c-4.4,2.5-9.2,4.5-13.8,6.7c0.6-0.8,1.2-1.7,2-2.2c17.1-10.2,34.2-20.4,51.3-30.5c46.2-27.4,92.3-55,138.7-82.1
		c50.7-29.6,101.6-58.8,152.5-88.1c7-4,14.2-8.5,21.8-10.6c9.3-2.5,15.2-8.8,21.6-14.8c0.8-0.7,1.4-2.8,1-3.5c-0.7-1-2.6-2-3.6-1.7
		c-4.6,1.1-9.5,2-13.7,4.2c-19.2,9.9-38.1,20.2-57.2,30.3c-1,0.5-2,0.8-3.1,1.2c-0.1-0.3-0.3-0.6-0.4-1c3.3-2.4,6.7-4.7,10-7.1
		c-0.1-0.1-0.2-0.2-0.3-0.4C592.3,329.8,452.7,410.7,313,491.6c0.2-1.6,1-2.2,1.8-2.7c31.7-19,63.4-38.1,95.1-57
		c52.8-31.5,105.5-63.3,158.6-94.4c52.4-30.7,105.1-60.8,157.8-90.9c7.3-4.2,15-8.6,23-10.5c9.9-2.4,16.6-8.9,24-14.6
		c1.1-0.9,1.8-3.9,1.2-5.2c-0.7-1.4-3.1-2.2-4.9-2.5c-1.3-0.2-2.9,0.5-4.2,1.2c-7.3,3.6-14.5,7.3-21.7,11.1
		c-6.4,3.4-12.8,6.9-19.2,10.4c0.5-1.5,1.3-2.3,2.2-2.9c13.5-9,27.2-17.8,40.5-27.1c6.1-4.2,11.8-9.2,17-14.4
		c1.5-1.5,1.3-5.2,0.8-7.6c-0.2-0.8-4.3-1.2-6.4-0.8c-3.2,0.7-6.4,1.9-9.3,3.5c-27.4,14.8-55,29.3-82,44.9
		c-36.2,20.9-71.8,42.9-107.7,64.2c-48.1,28.5-96.3,56.8-144.4,85.1c-48.4,28.6-96.8,57.2-145.3,85.8
		c-45.3,26.7-90.5,53.6-135.9,80.1c-29.9,17.4-60.2,34.4-90.4,51.4c-5.3,3-10.8,5.5-16.2,8.2c1.1-2.1,2.7-3.4,4.3-4.4
		c34.4-20.9,68.7-42.2,103.4-62.6c38.7-22.8,78-44.7,116.9-67.2c45.7-26.4,91.2-53,136.8-79.6c48.7-28.4,97.4-56.8,146-85.4
		c51.7-30.5,103.5-60.9,154.8-92.1c21.4-13,41.6-27.9,62.2-42c2.6-1.8,4.8-4.1,6.7-6.6c1.1-1.4,1.6-3.7,1.3-5.4
		c-0.1-0.7-3.1-1.5-4.7-1.2c-3.4,0.6-6.9,1.3-10,2.8c-14,6.9-27.9,14.1-41.7,21.3c-6.4,3.3-12.6,7-18.8,10.5
		c-0.2-0.4-0.4-0.7-0.7-1.1c2.7-1.7,5.4-3.3,8-5.2c11-7.9,22.2-15.7,33-23.8c2.9-2.2,5.8-5.2,4-10.9c-4,1-8.2,1.3-11.7,3
		c-13.9,6.9-27.7,14.2-41.5,21.5c-7.1,3.7-14,7.7-21.1,11.6c0-1.2,0.5-1.5,1-1.8c15.5-9.9,31.3-19.4,46.5-29.8
		c9.8-6.7,18.8-14.6,27.9-22.3c1.4-1.2,1.5-4.1,2.1-6.1c-2,0-4.3-0.7-6,0.1c-10.9,4.8-22.1,9.3-32.5,15.1
		c-30.9,17.1-61.7,34.4-92.3,52.1c-55,31.7-109.9,63.7-164.9,95.5c-5.9,3.4-11.8,6.8-17.7,10.2c-0.1-0.3-0.3-0.5-0.4-0.8
		c71.6-43.4,143.3-86.7,214.9-130.1c-0.2-0.4-0.4-0.8-0.7-1.3c-0.6,0.1-1.3,0.1-1.8,0.4c-18.9,11-37.8,22.1-56.7,33.2
		c-48.6,28.6-97.2,57.2-145.8,85.8c-41.4,24.4-82.9,48.9-124.2,73.4c-44.7,26.5-89.3,53-133.8,79.7c-47,28.1-93.9,56.2-140.7,84.6
		c-9.2,5.6-17.4,12.7-25.8,19.4c-1.4,1.1-1.6,3.6-2.3,5.5c2,0.1,4,0.3,6.1,0.4c0.6,0,1.3-0.3,1.9-0.6c9.8-4.6,19.9-8.6,29.2-13.9
		c40.5-22.8,80.9-45.7,121-69c48.6-28.3,96.9-57,145.4-85.5c47-27.7,94-55.4,141.1-83c38.2-22.4,76.4-44.9,114.7-67.1
		c44.2-25.7,88.4-51.2,132.6-76.8c4.8-2.8,9.6-5.4,14.4-8.1c0.2,0.4,0.4,0.7,0.7,1.1c-3.8,2.9-7.4,6.1-11.4,8.6
		c-27.9,17.9-55.9,35.8-83.9,53.5c-12.7,8.1-25.6,16-38.5,23.7c-4,2.4-8.6,3.9-12.6,6.2c-2.9,1.6-5.1,4.2-8,5.8
		c-6.3,3.5-13.5,5.8-18.9,10.3c-4.3,3.6-8.9,6.7-13.6,9.5c-24.8,15.1-49.7,29.9-74.6,44.7C405.6,349.2,344,386.5,282,423
		c-62.3,36.7-124.9,72.9-187.8,108.7c-17.4,9.9-34.6,20.2-54.2,26c-6.6,2-11.8,8.8-17.3,13.8c-1.2,1.1-1.2,4.1-0.7,5.9
		c0.2,0.8,3.2,1.1,4.8,1c2.1-0.2,4.3-0.7,6.2-1.6c12.2-5.9,24.4-12,36.5-18.1c6.4-3.3,12.8-6.8,19.1-10.2c-0.7,1.5-1.8,2.2-2.9,2.9
		c-18.1,12-36.3,23.8-54.3,36.1c-3.6,2.5-6.6,6.1-9.3,9.5c-0.8,1.1-0.4,3.9,0.5,5.2c0.7,0.9,3.2,1.1,4.7,0.8c2.1-0.4,4.1-1.3,6-2.3
		c30.8-16.9,61.9-33.4,92.4-50.8c36.7-21,73-42.8,109.4-64.3c46.4-27.4,92.9-54.7,139.2-82.2c39.7-23.5,79.2-47.2,118.9-70.7
		c40.1-23.8,80.1-47.8,120.4-71.2c42-24.4,84.4-48.2,126.7-72.2c4.8-2.7,9.8-4.9,14.7-7.3c0.2,0.4,0.5,0.9,0.7,1.3
		c-8.8,5.6-17.4,11.4-26.3,16.8c-38,22.7-76,45.5-114.1,67.9c-41.6,24.5-83.4,48.7-125.1,72.9c-47.8,27.7-95.8,55-143.6,82.7
		c-47.1,27.3-94.2,54.5-141,82.3c-50.2,29.8-100,60.2-149.8,90.6c-10.9,6.6-20.8,14.8-30.9,22.6c-1.7,1.3-3.4,5.2-2.6,6.8
		c1.6,3.5,4.9,4,8.7,2c9.3-5,19.1-9.3,28.3-14.5C117,580.6,174.7,547.7,232,514.3z M704.9,290.5
		C704.9,290.5,704.9,290.5,704.9,290.5c2.7-2,5.3-3.9,8-5.9C710.3,286.5,707.6,288.5,704.9,290.5z M705.1,290.3c-1.5,1-3,2-4.5,3
		C702.1,292.3,703.6,291.3,705.1,290.3L705.1,290.3z M447.2,338.6c0,0-0.2-0.2-0.3-0.3C447,338.4,447.2,338.6,447.2,338.6
		L447.2,338.6z"/>
	<path d="M826.8,268.5c4.3-1.8,8.6-3.7,12.6-6c44.2-25,88.5-49.7,132.4-75.2c41.8-24.2,83-49.2,124.7-73.6
		C1149.2,83,1202,52.4,1254.9,22c9.5-5.5,18.5-12.5,30-14c0.8-0.1,2.1-1.5,2.1-2.2c-0.1-1.7-0.5-3.9-1.6-4.7c-1.3-1-3.9-1.3-5.4-0.7
		c-4.3,1.7-8.5,3.8-12.5,6.2c-43.4,25.3-86.9,50.5-130.1,76.1c-34.3,20.2-68.3,40.9-102.5,61.3c-33.1,19.7-66.2,39.3-99.4,58.7
		c-21.3,12.4-42.8,24.4-64.3,36.6c-0.1-0.3-0.3-0.6-0.4-0.8c0.8-0.6,1.5-1.3,2.4-1.8c15.5-9.6,31-19.2,46.6-28.7
		c46.8-28.4,93.8-56.5,140.4-85.1c50.4-31,100.7-62.3,150.8-93.9c10.3-6.5,19.4-14.9,28.9-22.7c1.1-0.9,1.1-3,1.6-4.6
		c-1.9-0.4-4.1-1.7-5.6-1.2c-5.3,1.8-10.7,3.8-15.6,6.5c-33.3,18.6-66.8,36.8-99.5,56.4c-61.4,36.8-122.2,74.7-183.6,111.7
		c-24.1,14.5-49,27.9-73.6,41.7c-3.2,1.8-6.9,2.6-9.9,4.6c-2,1.4-4.5,4.5-4.2,6.2c0.9,4,4.4,2.5,6.9,1.3c10-4.8,20.3-9.1,29.9-14.7
		c40.7-23.7,81.3-47.5,121.7-71.7c59.1-35.3,117.9-71,176.9-106.4c6.6-4,13.4-7.5,20.2-11.3c-1.1,1.9-2.5,3.1-4.1,4.1
		c-47.9,29-95.9,57.9-143.8,87.1c-65.7,40-131.4,80-196.9,120.4c-12.8,7.9-24.6,17.5-36.6,26.5c-1.7,1.2-2.4,3.7-3.6,5.6
		c0.4,0.4,0.7,0.8,1.1,1.1C823,269.3,825,269.2,826.8,268.5z"/>
	<path d="M187.2,636.8c38.4-22.1,76.4-44.8,114.6-67.2c43.3-25.4,86.7-50.7,130-76.2c46.7-27.5,93.4-55.1,140.1-82.7
		c46.7-27.6,93.3-55.2,140.1-82.6c25.8-15.1,51.9-29.5,77.7-44.5c8.6-5,16.6-10.8,24.8-16.4c2.3-1.6,4-3.7,1.4-7.1
		c-4.1,1.5-8.2,2.6-11.8,4.4c-19.2,9.8-38.6,19.3-57.2,30c-45.8,26.2-91.4,52.7-136.8,79.5c-51.3,30.2-102.4,60.7-153.5,91.2
		c-44.6,26.6-89,53.4-133.7,79.8c-48.7,28.8-97.5,57.3-146.5,85.6c-24.9,14.3-50.2,27.9-75.5,41.3C86.8,679.3,72.3,686,59.7,696
		c-1.7,1.3-2.7,3.4-4,5.2c2.1,0.5,4.6,1.9,6.4,1.4c7.8-2.5,16-4.7,23.1-8.7C119.4,675.2,153.4,656.2,187.2,636.8z"/>
	<path d="M860.6,200.2c6.4-3.2,12.6-6.6,18.8-10.2c34.7-20.4,69.5-40.9,104.2-61.4c46.5-27.6,92.9-55.2,139.4-82.8
		c6.9-4.1,13.9-8,20.8-12.1c0.1,1.3-0.3,1.6-0.7,1.9c-39.4,24.8-78.8,49.8-118.4,74.4c-42.4,26.4-85.1,52.3-127.4,78.6
		c-11.4,7.1-22.1,15.1-33.2,22.7c0.4,0.5,0.7,1,1.1,1.4c7.7-4.5,15.4-8.8,23-13.4c39.7-23.5,79.6-46.7,118.9-70.7
		c48.8-29.8,97.4-60.1,145.7-90.7c11.6-7.3,21.9-16.6,32.6-25.2c1.4-1.1,1.6-3.6,2.4-5.4c-2.3-0.6-4.5-1.3-6.9-1.6
		c-1-0.1-2.2,0.7-3.2,1.3c-13.3,7-26.9,13.7-40,21.2c-28.2,16.2-56.1,32.8-84.1,49.3c-36.4,21.5-72.8,43-109.3,64.5
		c-7.8,4.6-15.7,9-23.5,13.5c0.5-1.7,1.6-2.5,2.8-3.2c52.7-33.9,105.5-67.7,158.1-101.8c11.1-7.2,21.6-15.4,32.2-23.3
		c2.7-2,6.4-4.4,3.4-8.5c-2.7-3.6-5.7-0.8-8.4,0.6c-5.6,2.9-11.2,5.8-16.6,9.1c-39.6,23.9-79.1,48-118.7,71.9
		c-6.6,4-13.4,7.7-20.1,11.6c12.9-11,26.2-21.1,39.3-31.6c7.4-5.9,14.5-12.1,21.6-18.3c1.4-1.2,2.2-3,3.3-4.5
		c-0.5-0.6-1-1.2-1.6-1.8c-2.7,0.9-5.7,1.2-8,2.6c-11.9,7.3-23.5,15-35.3,22.3c-4.2,2.6-4.6,3.3-1.1,7.3
		c-5.9,4.6-11.9,9.1-17.6,13.8c-12.4,10.2-24.8,20.5-37.1,30.9c-2.2,1.8-4.7,3.9-2.8,8.2c2.3-0.7,4.7-1.1,6.6-2.2
		c26.3-14.8,52.6-29.7,78.7-44.8c19.3-11.2,38.3-22.7,57.4-34.1c0.3,0.3,0.5,0.6,0.8,1c-0.8,0.5-1.6,1-2.4,1.5
		c-34.4,22.1-69,44.1-103.3,66.4c-28.8,18.7-57.3,37.8-85.8,56.9c-3.6,2.4-7,5.2-9.9,8.3c-1.2,1.3-0.9,4.1-1.3,6.2
		C856.9,200.1,859.1,200.9,860.6,200.2z"/>
	<path d="M1270.7,1126.1c-7.4,3.8-15.1,6.9-22.2,11.1c-51.4,30.1-102.7,60.3-153.9,90.7c-37.7,22.3-74.9,45.3-112.8,67.4
		c-28.8,16.8-56.6,35.3-87.1,49c-8.4,3.8-15.6,10.6-23.2,16.2c-2.7,2-5.4,4.1-7.3,6.7c-1.2,1.6-0.9,4.2-1.3,6.4
		c2,0.2,4.3,1.1,5.9,0.4c8.2-3.5,16.6-6.8,24.4-11.1c27.1-15.1,54.1-30.3,80.8-46.1c42.8-25.4,85.2-51.4,127.9-76.9
		c32.9-19.7,66-39,98.9-58.5c20.1-11.9,40.3-23.7,60.1-36.1c7.4-4.6,13.9-10.5,21.1-16.1C1278,1124.4,1274.7,1124.1,1270.7,1126.1z"
		/>
	<path d="M1022.4,1259.6c42.5-25.5,84.8-51.4,127.5-76.6c29-17.1,58.6-33.2,87.7-50.1c12.6-7.3,24.6-15.6,36.9-23.5
		c1.5-1,2.6-2.4,5.3-5c-3.5-0.9-6-2.3-8-1.7c-4.1,1.1-8.2,2.8-11.9,4.9c-43.8,25-87.7,49.8-131.2,75.3
		c-34.3,20.1-68.2,41.1-102.3,61.5c-36.3,21.7-72.5,43.6-109.2,64.5c-23.2,13.3-45.4,28.4-70.6,38.2c-7.8,3-14.4,9.4-21.3,14.5
		c-1.2,0.9-2.1,4.2-1.4,5c1,1.3,3.6,2.1,5.4,1.9c2.6-0.3,5.1-1.4,7.5-2.6c24.3-12.9,48.9-25.3,72.8-39.1
		C947.4,1304.9,984.8,1282.1,1022.4,1259.6z"/>
	<path d="M1103,1286.2c38.2-23,76.6-45.7,114.6-69c10.7-6.6,20.5-14.6,30.5-22.2c1.2-0.9,1.5-3,2.1-4.5c-1.7-0.2-3.7-1.1-5-0.5
		c-9.5,4.2-19.3,8.1-28.3,13.3c-49.7,28.9-99.3,58.1-148.8,87.3c-38.3,22.5-76.6,45-114.6,68c-16.5,10-32.2,21.5-48.2,32.5
		c-1.7,1.1-2.6,3.3-3.9,5c0.3,0.5,0.7,0.9,1,1.4c2.2-0.3,4.6-0.3,6.6-1c5.1-1.9,10.3-3.8,15.1-6.4c30.6-17,61.2-33.8,91.5-51.4
		C1044.9,1321.6,1073.9,1303.7,1103,1286.2z"/>
	<path d="M1247.4,1210.3c-3.7,1.3-7.3,3.1-10.8,5.1c-34.9,20.2-69.8,40.2-104.5,60.7c-34,20.1-67.6,40.6-101.5,60.9
		c-22,13.2-44.2,26.1-66.1,39.6c-6.6,4.1-12.4,9.4-18.2,14.6c-1.3,1.2-1.7,4.1-1.5,6.1c0.1,1.1,2,2.1,3.1,3.1
		c3.8-1.6,7.2-2.7,10.2-4.4c26.9-15,54-29.8,80.6-45.4c30.9-18.1,61.5-36.8,92-55.6c35.3-21.7,70.4-43.8,105.4-65.9
		c5.6-3.5,10.6-7.9,15.6-12.3c1.1-1,1.3-4,0.6-5.6C1251.9,1210.5,1248.8,1209.8,1247.4,1210.3z"/>
	<path d="M913.7,1371.1c6-2.3,12-4.8,17.6-8c41.7-23.9,83.5-47.6,125-72c43.1-25.3,85.9-51.1,128.6-76.9
		c17.4-10.5,34.5-21.7,51.5-32.9c4.8-3.2,8.7-7.6,12.8-11.7c0.7-0.7,0.9-3,0.3-3.7c-0.7-0.8-2.7-1.2-3.8-0.9c-2,0.6-3.9,1.8-5.8,2.9
		c-29.6,17.3-59.3,34.6-88.8,52.1c-42.8,25.4-85.4,51-128.2,76.3c-27.1,16.1-54.5,31.7-81.6,47.7c-11.1,6.5-21.8,13.5-32.6,20.6
		c-1.9,1.3-2.9,3.9-4.4,5.9c0.3,0.5,0.6,1,0.9,1.5C908,1371.8,911.1,1372.1,913.7,1371.1z"/>
	<path d="M974,1411.7c13.3-7.1,26.7-14.2,39.6-21.9c29.2-17.4,58.2-35.2,87.2-52.8c29.5-17.9,59.1-35.5,88.3-53.8
		c10.1-6.3,19.3-14,28.8-21.3c1.9-1.4,3.2-3.6,4.3-4.9c-0.2-4.3-5.5-6.6-9.2-4.6c-13.9,7.4-27.9,14.6-41.4,22.7
		c-57.1,34-114.8,67.3-169.9,104.5c-11.3,7.6-22.2,15.7-33.1,23.8c-2.3,1.7-6,3.5-4.1,7.4C967,1415.8,971,1413.3,974,1411.7z"/>
	<path d="M1130.8,1347.2c25.3-15.8,49.5-33.3,74.2-50.1c9.5-6.5,18.9-13.3,28.7-20.3c-4-3.6-6.2-3.9-11.4-0.9
		c-31.5,17.8-63.1,35.3-94.2,53.6c-41.5,24.3-82.7,49-123.7,74.1c-12.1,7.4-23.1,16.7-34.3,25.5c-2.3,1.8-5.1,4.4-2.7,8.1
		c2.6,4,5.6,1.7,8.3,0.3c15.5-8.3,31.2-16.2,46.4-25.1C1058.4,1390.9,1094.9,1369.6,1130.8,1347.2z"/>
	<path d="M1187.2,1353.5c13.1-8.7,25.4-18.6,38-28c2.5-1.9,4.5-4.9,1.7-7.6c-1.2-1.2-5-0.9-6.9,0.1c-13.8,7.6-27.7,15.1-41,23.5
		c-45.2,28.4-90.3,57-135.1,85.9c-14.6,9.4-28.5,19.9-42.6,30.2c-1.9,1.4-2.9,3.9-4.4,5.9c0.5,0.7,1,1.5,1.6,2.2
		c4.1-1.3,8.7-1.8,12.4-3.9c28-15.9,56.2-31.5,83.5-48.3C1125.8,1394.1,1156.5,1373.8,1187.2,1353.5z"/>
	<path d="M1077.8,1399c40.4-25.1,80.5-50.9,120.5-76.6c11.8-7.6,23.1-16.2,34.4-24.5c1.8-1.3,2.8-3.9,4.1-5.9c-0.5-0.5-1-1-1.5-1.6
		c-1.9,0.4-3.9,0.5-5.6,1.4c-9.2,4.6-18.6,8.9-27.4,14.2c-23.6,14.2-47,28.6-70.3,43.3c-41.1,26-82,52.2-122.8,78.6
		c-6.4,4.1-12,9.4-17.8,14.3c-0.9,0.8-0.8,2.8-1.2,4.2c1.5,0.3,3,1,4.3,0.7c2.1-0.5,4-1.5,5.9-2.6
		C1026.4,1429.3,1052.4,1414.8,1077.8,1399z"/>
	<path d="M1169.1,1385.2c12.4-8.8,24.7-17.9,36.7-27.2c1.7-1.3,1.7-4.9,2.5-7.4c-2.3,0.1-4.6,0.2-6.8,0.3c-0.5,0-0.9,0.4-1.3,0.6
		c-14.9,9.2-30.1,18.1-44.7,27.8c-29.8,19.8-59.4,40-88.9,60.3c-9.1,6.3-17.5,13.6-25.9,20.2c2,5.4,5,5.5,8.6,3.4
		c19.1-11.3,38.5-22.1,57.1-34.2C1127.7,1415.1,1148.3,1400,1169.1,1385.2z"/>
	<path d="M1196.8,1388.5c1.8-1.6,2.6-4.4,3.8-6.7c-0.4-0.4-0.8-0.9-1.2-1.3c-2,0.4-4.3,0.3-6.1,1.2c-9.8,4.9-20,9.1-29.1,15.1
		c-27.3,18.1-54.3,36.8-81.2,55.6c-7.5,5.2-14.3,11.3-21.2,17.2c-1.3,1.1-2.1,4.2-1.4,5.7c1.3,3,3.7,4,7.2,1.9
		c7.1-4.3,14.5-8.1,21.6-12.3c28.6-17.1,56-36,82.7-55.9C1180.5,1402.6,1188.7,1395.6,1196.8,1388.5z"/>
	<path d="M43.4,506.4c-0.8,0.9-1.6,1.7-2.4,2.6c-9.4,2.2-30,18.7-30.1,25.1c3.8-0.6,7.8-0.5,11.1-1.8c8.9-3.7,17.7-7.6,26.1-12.3
		c32.6-18.2,65.1-36.4,97.4-55.2c55.5-32.2,110.8-64.7,166.1-97.2c51.7-30.4,103.3-61.2,155-91.7C514,248,561.2,220,608.6,192.4
		c22.5-13.1,45.3-25.7,68.2-38c12.6-6.7,25.2-13.4,36.2-22.6c1.2-1,1.6-2.9,2.4-4.3c-1.7-0.5-3.3-1.2-5-1.3c-1.4-0.1-3,0.5-4.3,1.2
		c-6.2,2.8-12.5,5.4-18.4,8.6c-36.2,20.1-72.3,40.5-108.5,60.7c-6,3.4-12.2,6.5-18.3,9.7c0,0,0.2-0.2,0.2-0.2c0,0-0.1,0-0.1,0.1l0,0
		c-7,4-14.1,8-21.1,12.1l0,0c7-4,14.1-8,21.1-12.1c0.7-0.8,1.3-1.8,2.1-2.3c7.1-4.3,14.3-8.3,21.4-12.7c30.4-19,60.8-37.9,91-57.1
		c5.6-3.5,10.7-7.9,15.4-12.5c1.6-1.5,2.3-5.3,1.6-7.5c-1-3-4.1-2.6-6.8-1.3c-3.6,1.7-7.4,3-10.9,4.9
		c-25.9,14.2-51.7,28.5-77.5,42.8c-6,3.3-12.1,6.4-18.1,9.5c0.6-0.8,1.1-1.7,1.8-2.1c13.8-8.3,27.8-16.3,41.4-24.9
		c21.9-13.8,43.6-27.9,65.2-42.1c3.1-2.1,7.8-4.6,4.9-9.4c-2.8-4.5-7.3-2.1-10.8-0.4c-15.3,7.7-30.4,15.5-45.5,23.4
		c-7.4,3.9-14.6,8-21.9,12c1.1-2.1,2.6-3.2,4.2-4.5c7.2-5.8,14.4-11.6,21.6-17.6c2.5-2,4.5-4.9,1.7-7.6c-1.3-1.2-5-1.2-6.9-0.3
		c-18.7,9.6-37.7,18.8-55.9,29.3C521,159.9,463,194,405.2,228.1c-58.4,34.5-116.6,69.4-175.1,103.7C178.5,362,126.7,391.7,75,421.5
		c-7.8,4.5-15.8,8.6-23.7,12.9c0.5-1.6,1.5-2.4,2.6-3.1C64,425,74,418.6,84.2,412.4c47.4-28.6,94.8-57.3,142.4-85.6
		c43.4-25.7,87-50.9,130.6-76.3c42.3-24.6,84.7-49,126.9-73.8c47.5-27.9,94.8-56.1,142-84.5c9.5-5.7,18.2-12.8,26.9-19.6
		c1.9-1.5,2.5-4.6,3.8-7c-2.6-0.2-5.6-1.3-7.8-0.5c-6.2,2.2-12.4,4.7-18.2,7.9c-27.6,15.1-55.1,30.6-82.7,45.9
		c-2.4,1.3-4.9,2.4-7.3,3.6c0.3-1.5,1.1-2.1,1.9-2.6c15.9-10.2,32-20.1,47.8-30.6c7.9-5.2,15.2-11.2,22.7-17
		c0.9-0.7,1.1-2.5,1.6-3.8c-1.3-0.5-2.7-1.6-3.9-1.4c-3.6,0.6-7.4,1.1-10.5,2.7c-15.4,7.8-30.9,15.5-45.7,24.2
		c-31.1,18.2-61.7,37-92.6,55.4c-39,23.3-78,46.7-117,70c-39.5,23.6-78.9,47.1-118.4,70.6c-48.3,28.7-96.7,57.4-145.1,86.1
		c-7.6,4.5-15.2,8.9-22.9,13.3c-0.2-0.4-0.4-0.7-0.6-1.1c10-6.5,19.8-13.2,30-19.4c60.1-36.1,120.3-72.2,180.6-108.2
		c43.3-25.9,86.6-51.6,129.9-77.4c35.9-21.4,71.9-42.6,107.7-64.3c30.8-18.7,61.3-37.8,91.9-56.8c4.5-2.8,8.6-6.2,12.5-9.8
		c1.1-1,0.9-3.5,0.9-5.3c0-0.3-2.4-1.1-3.3-0.8c-6.8,2.7-13.7,5.1-20.1,8.5C563.2,68.1,538.4,81.1,514,95
		c-47.5,27.1-94.9,54.5-142.1,82.3c-49.6,29.2-98.8,59.1-148.3,88.5c-48.6,28.9-97.4,57.7-146.1,86.4c-6.3,3.7-12.7,7.1-19.1,10.7
		c0.8-1.8,2.1-2.9,3.5-3.7c36.2-21.9,72.2-44.1,108.5-65.7c44.9-26.7,90.2-52.6,135.2-79.2c37.7-22.3,75.1-45,112.6-67.6
		c41.6-25.1,83.3-50,124.8-75.5c10.1-6.2,19.4-13.9,28.8-21.2c1.9-1.5,2.3-4.7,3.5-7c-2.8-0.2-5.8-1.2-8.3-0.4
		c-5,1.6-10,3.8-14.6,6.3c-25.7,14.2-51.5,28.3-76.8,43.1c-50.2,29.4-100.3,59.2-150.3,88.9c-32.8,19.5-65.4,39.2-98.1,58.8
		c-32.8,19.6-65.4,39.3-98.4,58.5c-29.9,17.5-60.2,34.4-90.3,51.5c-4.5,2.5-9.2,4.6-13.8,6.9c-0.2-0.4-0.4-0.8-0.7-1.3
		c8.3-5.1,16.5-10.4,24.9-15.3c43.4-25.6,86.9-51.2,130.4-76.7c38.3-22.5,76.8-44.8,115.1-67.3c38-22.4,76.1-44.7,113.7-67.8
		c36.6-22.5,72.6-46,108.7-69.3c6.4-4.1,11.9-9.5,17.6-14.6c1-0.9,1-2.9,1.5-4.4c-1.5-0.4-3.2-1.5-4.5-1.1c-4,1.1-8.1,2.1-11.7,4.1
		c-26.8,14.6-53.7,29.1-80.1,44.4c-47.1,27.2-93.9,55-140.8,82.6c-44.9,26.4-89.7,53-134.5,79.5c-37.5,22.2-75,44.5-112.5,66.7
		c-4.6,2.7-9.5,4.9-14.2,7.4c-0.3-0.4-0.5-0.9-0.8-1.3c1.4-1.2,2.8-2.6,4.3-3.6c7-4.5,13.9-9.1,21-13.3
		c38.1-22.3,76.2-44.5,114.3-66.7c48.8-28.6,97.8-56.9,146.3-86C368.7,125,414.3,96.4,459.9,68c8.3-5.2,15.8-11.6,23.5-17.6
		c2.5-1.9,3.5-4.4,0.6-7c-4.6,1.9-9.2,3.3-13.4,5.6c-21.8,11.6-43.9,22.8-65.2,35.3c-61,36-121.5,72.8-182.4,108.9
		c-39.8,23.6-80.1,46.4-120.1,69.5c-4.1,2.4-8.4,4.5-12.6,6.7c0.3-1.5,1-2.1,1.9-2.6c44-26,88-51.9,131.9-78
		c66.9-39.9,133.8-80,200.5-120.3c12.4-7.5,23.8-16.8,35.5-25.5c1.2-0.9,1.6-2.9,2.4-4.5c-1.9-0.7-4-2.2-5.7-1.9
		c-3.2,0.6-6.4,1.8-9.3,3.4c-23.4,12.8-47,25.4-70,38.9c-34.4,20.1-68.3,40.9-102.4,61.4c-46,27.6-91.9,55.2-137.9,82.7
		c-9.3,5.6-18.7,11-28,16.5c0.5-1.5,1.5-2.3,2.5-3c13.2-8.5,26.4-17.2,39.8-25.5c44.2-27.5,88.7-54.6,132.8-82.4
		c32.8-20.7,65.3-42,97.8-63.2c5.4-3.5,10.1-8,15-12.3c1-0.9,0.9-2.9,1.4-4.4c-1.7-0.2-3.5-1-5-0.6c-3.1,1-6.2,2.4-9.1,4.1
		c-23.7,13.3-47.6,26.3-71.1,40.1c-50.2,29.5-100.2,59.3-150.3,89c-9.9,5.9-19.9,11.7-29.9,17.5c1-1.9,2.5-3.1,4-4.1
		c54-35,108.1-69.9,161.9-105.1c12.4-8.1,24.2-17,36.1-25.7c2.2-1.6,5.3-3.2,3.6-7.9c-2.5,0.7-5.2,0.9-7.4,2.1
		c-16.5,8.9-33,17.8-49.2,27.2c-31.5,18.2-62.7,36.7-94.1,55c-2.3,1.3-4.7,2.4-7.1,3.6c32.8-23.3,66-45.9,98.4-68.7
		c-2.3-6.8-5.8-4.4-8.8-2.9c-11.1,5.5-22.1,11.4-33.3,16.7c-4.4,2.1-8.2,4.1-9,9.5c-0.1,1-1.5,2.1-2.6,2.8
		c-30.5,21.3-61,42.5-91.4,63.7c-11.3,7.9-22.5,15.8-33.7,23.8c-3.4,2.4-3.2,6.1,0.4,7.2c1.7,0.5,4.1,0.3,5.7-0.4
		c5.6-2.5,11.2-5.1,16.5-8.2c38.1-22.3,76.1-44.7,114.1-67c5.6-3.3,11.2-6.5,16.9-9.7c-16,11.6-32.7,22.2-49.1,33.1
		c-35.9,23.8-71.8,47.9-107.6,71.9c-3,2-6.1,4.2-8.5,6.8c-1.2,1.4-1,4-1.5,6.1c1.9,0.4,3.9,1.4,5.6,1c2.9-0.6,5.7-1.9,8.3-3.3
		c22.3-12.1,44.5-24.3,66.8-36.6c5-2.7,9.9-5.6,14.9-8.5c-32.7,21.9-65.9,43-98.7,64.4c-9.8,6.4-19.1,13.7-28.5,20.9
		c-1.1,0.8-1.3,2.9-1.9,4.5c1.8,0.4,3.5,1,5.3,1.1c1.1,0,2.2-0.7,3.3-1.2c13.8-6.9,27.6-13.8,41.3-20.8c6.4-3.3,12.6-6.9,18.9-10.4
		c-0.5,1.6-1.5,2.4-2.6,3.1c-22.3,14-44.8,27.9-66.9,42.2c-7.4,4.7-14.1,10.5-20.8,16.1c-1.3,1.1-1,4-1.5,6.1c2,0.2,4.4,1.2,6.1,0.4
		c5.9-2.6,11.6-5.6,17.2-8.8c45.7-26.4,91.3-52.9,136.9-79.5c69.9-40.8,139.7-81.8,209.5-122.7c4.2-2.5,8.6-4.7,13-7.1
		c0.2,0.4,0.4,0.7,0.6,1.1c-0.8,0.6-1.5,1.2-2.3,1.7c-55.8,33-111.8,65.8-167.5,99c-60.1,35.9-120,72.1-179.8,108.5
		c-10.5,6.4-20.1,14-29.9,21.4c-1.9,1.4-2.7,4.4-4,6.7c2.5-0.1,5.2,0.3,7.5-0.4c4.4-1.5,8.7-3.4,12.7-5.6
		c20.7-11.2,41.6-22.1,61.9-34c42-24.4,83.9-49.1,125.6-74c35.3-21.1,70.3-42.9,105.6-63.9c48.3-28.8,96.8-57.2,145.3-85.8
		c8-4.7,16.3-9.1,24.4-13.6c0.3,0.4,0.5,0.8,0.8,1.2c-7.8,5.5-15.4,11.4-23.6,16.3c-58,35.1-116.1,70.2-174.3,105
		c-46.3,27.7-92.9,54.7-139.1,82.4c-44.1,26.4-87.9,53.3-131.7,80.3c-14.7,9.1-28.6,19.2-42.9,28.9c-1.9,1.3-4,2.4-2,5.5
		c1.8,2.8,3.5,4.3,6.8,2.7c6.1-3,12.4-5.6,18.3-8.9c27-15.2,54.1-30.4,80.9-46c45.1-26.3,90.2-52.8,135.1-79.5
		c42.8-25.4,85.4-51.2,128.2-76.6c53.5-31.7,107.1-63.2,160.7-94.8c7.2-4.2,14.6-8,21.8-12c0.3,0.4,0.5,0.9,0.8,1.3
		c-11,7-21.9,14.3-33.1,21.1c-32.3,19.4-64.6,38.8-97,57.9c-38.6,22.8-77.3,45.3-116,67.9c-35.1,20.5-70.6,40.3-105.3,61.4
		c-43.1,26.1-85.7,53.1-128.3,80c-11.6,7.3-22.5,15.8-33.6,24c-2.8,2-5.6,4.5-3.5,9.4c6.2-2.7,12.7-4.8,18.6-8
		c24.4-13.2,48.8-26.3,72.8-40.1c45.4-26.1,90.7-52.6,135.8-79.2c44.7-26.4,89.1-53.3,133.8-79.7c54.2-31.9,108.5-63.5,162.8-95.2
		c6.8-4,13.7-7.7,20.5-11.6c0.2,0.4,0.4,0.7,0.6,1.1c-9.5,6-18.9,12.3-28.5,18c-61,36.1-122,72-183,108
		c-52.6,31-105.5,61.5-157.7,93.1c-52,31.5-103.4,64.2-155,96.5c-7.7,4.8-14.9,10.5-22.1,16.1c-1.2,1-2.2,3.8-1.7,5
		c0.6,1.3,3.1,2.5,4.8,2.6c2.2,0.1,4.6-0.7,6.6-1.7c19.2-9.9,38.3-19.8,57.4-29.8c4.6-2.4,9.2-5,13.7-7.5c-0.7,1.8-2,2.5-3.2,3.3
		c-23.6,14.9-47.2,29.6-70.6,44.8c-5.9,3.8-11,9-16.3,13.8c-1,0.9-1,2.9-1.5,4.4c1.7,0.2,3.4,0.9,5,0.6c2.6-0.5,5.2-1.3,7.5-2.5
		c24.5-12.9,48.9-25.9,73.3-39c7.9-4.3,15.6-9,23.4-13.5c-0.3,1.4-1,2.2-1.9,2.7c-24.5,15.2-49.3,30-73.5,45.6
		c-11.4,7.3-22,15.9-32.8,24.1c-2.6,2-5.3,4.7-3.4,9.3c3-0.9,6-1.4,8.6-2.7c17.9-8.7,36-16.8,53.4-26.4c32.7-18,65.2-36.4,97.4-55.3
		c49.9-29.2,99.6-58.9,149.3-88.6c39.3-23.4,78.5-47.2,117.9-70.5c45.3-26.8,90.7-53.2,136.1-79.7c9.8-5.7,19.9-11,29.8-16.5
		c0.2,0.4,0.5,0.7,0.7,1.1c-3.9,2.6-7.6,5.4-11.6,7.8c-35.2,21.3-70.3,42.8-105.6,63.8c-48.5,28.8-97.1,57.3-145.7,85.9
		c-48.6,28.6-97.3,57-146,85.5c-45.5,26.7-91.1,53.2-136.5,80.1c-13.7,8.1-26.8,17.2-40,26.1c-1.4,0.9-2.7,3.8-2.2,5.1
		c0.9,2.7,3.5,3.2,6.2,1.9c13.7-6.6,27.8-12.5,41.1-19.9c29-16.1,57.8-32.7,86.4-49.5c39.5-23.2,78.7-46.7,118-70.3
		c35.5-21.4,70.9-43,106.4-64.4c42.5-25.6,84.8-51.3,127.6-76.3c45.7-26.7,91.8-52.7,137.7-79c4.9-2.8,10.1-4.9,15.1-7.3
		c0.2,0.4,0.5,0.8,0.7,1.2c-0.7,0.6-1.4,1.4-2.2,1.9c-9.6,6.2-19.1,12.5-28.9,18.5c-42.2,25.4-84.3,50.9-126.7,76
		c-43.4,25.7-87,51.1-130.5,76.4c-44.7,26-89.7,51.6-134.3,77.8c-64.6,38-129.1,76.2-193.4,114.8c-14.3,8.6-27.7,18.8-41.2,28.7
		c-2.3,1.7-3.1,5.3-4.6,8c3.2,0,6.8,0.9,9.5-0.2c8.3-3.3,16.6-6.8,24.4-11.2c28.4-16.1,56.8-32.4,84.9-48.9
		c45.1-26.4,90-53.2,135-79.7c45-26.5,90.1-52.9,135.1-79.5c44.6-26.3,88.9-53,133.5-79.2c41.9-24.6,84-48.8,126.1-73
		c4.6-2.7,9.6-4.7,14.4-7.1c0.2,0.4,0.4,0.8,0.6,1.2c-3.8,2.6-7.6,5.3-11.5,7.7c-33.8,20.3-67.6,40.8-101.6,60.8
		c-50.8,29.8-101.8,59.3-152.7,88.9c-52.2,30.4-104.5,60.6-156.5,91.2c-55.5,32.6-110.7,65.7-166,98.6c-6,3.6-11.7,7.8-17.5,11.8
		c0,0,0.2-0.1,0.2-0.1C56.6,498.3,50,502.4,43.4,506.4z M319.3,322.7C319.3,322.7,319.3,322.7,319.3,322.7c6-3.9,12-7.8,18-11.7
		C331.3,314.9,325.3,318.8,319.3,322.7z M302.9,332.3c3.5-2,7-4.1,10.5-6.1c0,0,0,0,0,0C309.9,328.2,306.4,330.2,302.9,332.3
		L302.9,332.3c-1.1,0.4-2.3,0.8-3.4,1.2C300.6,333,301.8,332.7,302.9,332.3z M303.1,332.5C303.1,332.5,303.1,332.4,303.1,332.5
		C303.1,332.4,303.1,332.5,303.1,332.5z M473.9,257.5L473.9,257.5c0.4-0.1,0.8-0.1,1.3-0.1C474.8,257.4,474.3,257.4,473.9,257.5z
		 M540,218.3C540.1,218.3,540.1,218.3,540,218.3L540,218.3z M474.1,257.3C474.1,257.3,474.1,257.3,474.1,257.3
		C474.1,257.3,474.1,257.3,474.1,257.3z M72.2,489.4c-3.1,1.7-6.2,3.3-9.3,5l0,0C66,492.8,69.1,491.1,72.2,489.4z"/>
	<path d="M1227.8,1415.4c-2.7,0.4-5.8,0.2-8.1,1.4c-30.8,16.9-61.9,33.1-89,55.8c-9.3,7.7-18.9,15-28.6,22.6
		c3.4,5.9,3.4,5.9,8.3,1.6c0.2-0.2,0.6-0.3,0.9-0.4c10.3-5,20.6-9.8,30.8-15c30.4-15.4,56.9-36.2,81.9-59.2
		C1225.7,1420.6,1226.5,1417.7,1227.8,1415.4z"/>
	<path d="M1168,1438.4c14.2-11.2,28.3-22.5,42.3-33.9c1.8-1.5,2.8-3.9,4.2-5.9c-0.5-0.6-0.9-1.3-1.4-1.9c-4.3,1.6-8.9,2.9-13,5
		c-21,10.6-41.2,22.8-59.5,37.7c-14.6,11.9-29.4,23.7-44.1,35.6c-1.6,1.3-2.5,3.5-3.8,5.2c0.6,0.8,1.2,1.5,1.7,2.3
		c4.4-1.8,9.1-3.3,13.3-5.5C1129,1466,1149.2,1453.2,1168,1438.4z"/>
	<path d="M1241.7,1436c1.7-1.8,2.6-4.2,3.8-6.4c-0.5-0.5-0.9-0.9-1.4-1.4c-1.9,0.5-3.9,0.6-5.5,1.5c-11,5.7-22.6,10.7-32.8,17.7
		c-14.4,10-27.7,21.6-41.3,32.8c-3.7,3-7,6.6-10.1,10.2c-0.8,0.9-0.9,3.2-0.4,4.4c0.3,0.8,2.5,1.1,3.8,1c1.3-0.1,2.5-0.8,3.7-1.4
		c9.4-5.3,18.5-11.2,28.1-16C1210.1,1468.1,1226.2,1452.4,1241.7,1436z"/>
	<path d="M357,371.3c-0.1,0.1-0.1,0.1-0.2,0.2C356.9,371.5,357,371.5,357,371.3c0.3,0,0.6-0.2,0.8-0.3
		C357.5,371.1,357.2,371.2,357,371.3L357,371.3z"/>
	<path d="M230.3,442.9c-53.2,30.9-106.1,62.3-159.1,93.6c-5.8,3.4-11.3,7.3-17.9,11.6c1.7,0,2.1,0.1,2.4,0
		c20.8-12.4,41.4-25.1,62.3-37.3c33.3-19.6,66.8-38.9,100.3-58.3c44.2-25.6,88.5-51,132.7-76.6c2.1-1.2,3.9-2.9,5.8-4.4
		c-1.1,0.3-2.3,0.5-3.3,1C312.4,395.9,271.2,419.1,230.3,442.9z"/>
	<path d="M1205.1,1535.7c8.2-3.7,17-6.5,24.5-11.4c7.6-5,11.3-13.8,16-21.5c-16.7,7-27.6,21.1-41.5,31.4
		C1204.5,1534.7,1204.8,1535.2,1205.1,1535.7z"/>
	<path d="M1181,1506c16-3.2,22-17.2,32.2-28.7C1201.4,1480.1,1181,1498.8,1181,1506z"/>
	<path d="M1235.2,1528.3c-2.8,1.7-5.5,3.8-8.2,5.7c0.2,0.3,0.4,0.6,0.6,1c3.7,0,7.4,0,11.9,0c-0.4-2.4-0.6-4.5-1.3-6.4
		C1238,1528.2,1235.9,1527.9,1235.2,1528.3z"/>
	<path d="M1212.7,1505.8c5-4.3,10.1-8.6,16-13.6c-9.9,0-12.5,7.4-17,12.4C1212.1,1505,1212.4,1505.4,1212.7,1505.8z"/>
	<path d="M297.7,903.1C297.7,903.1,297.7,903,297.7,903.1c-0.1,0-0.1,0-0.1,0C297.6,903.1,297.7,903.1,297.7,903.1z"/>
	<path d="M293.7,903.6c-8.7,5.6-17.4,11.3-26,17c1.8,0.1,3.2-0.7,4.5-1.5c8.5-5.3,16.9-10.6,25.4-15.9
		C296.3,903.2,294.7,902.9,293.7,903.6z"/>
	<path d="M363.9,368.4c4.2-2.5,8.2-5.2,12.2-7.9c-6.1,3.5-12.3,7-18.4,10.6C359.9,370.2,362,369.5,363.9,368.4z"/>
	<path d="M376.2,360.5c0.6-0.4,1.2-0.7,1.9-1.1l-0.1-0.1C377.3,359.7,376.8,360.1,376.2,360.5z"/>
	<path d="M377.9,359.3c0,0,0.1,0.1,0.1,0.1c0.4-0.2,0.8-0.5,1.2-0.7C378.8,358.9,378.3,359.1,377.9,359.3z"/>
	<path d="M398.2,346.9c-6.3,3.9-12.7,7.9-19,11.8c6.7-3.3,13.3-6.6,20-10C398.9,348.1,398.5,347.5,398.2,346.9z"/>
	<path d="M745.1,263c-3.9,2.9-7.8,5.8-11.8,8.7c4.2-2.4,8.5-4.8,12.7-7.3C745.8,264,745.4,263.5,745.1,263z"/>
	<path d="M733.3,271.7c-0.4,0.2-0.8,0.5-1.3,0.7c0,0,0,0,0,0c-0.8,0.5-1.5,1-2.3,1.5c0.8-0.5,1.6-0.9,2.4-1.4
		C732.6,272.3,733,272,733.3,271.7z"/>
</g>
</svg>
