<?xml version="1.0" encoding="utf-8"?>
<!-- Generator: Adobe Illustrator 19.2.1, SVG Export Plug-In . SVG Version: 6.00 Build 0)  -->
<svg version="1.1" id="Layer_1" xmlns="http://www.w3.org/2000/svg" xmlns:xlink="http://www.w3.org/1999/xlink" x="0px" y="0px"
	 viewBox="0 0 1732.2 983.6" style="enable-background:new 0 0 1732.2 983.6;" xml:space="preserve">
<path d="M945.8,818.9c-21.6,22.8-42.5,45.4-64,67.5c-33.1,34-67.9,66.3-105.2,95.6c-1.5,1.2-4,1.9-5.8,1.5
	c-20.6-4.4-41.3-8.8-61.8-13.8c-32.9-8.1-65.8-16.4-98.5-25c-19.6-5.1-39.1-10.5-58.5-16.6c-29.1-9.1-58.3-18.3-87-28.6
	c-26.7-9.6-53.2-19.8-79.2-31.2c-35.5-15.7-70.6-32.1-105.2-49.6c-41.7-21-81-46.1-118.7-73.6c-25.6-18.7-50.6-38.2-72.6-61.2
	c-26-27.3-47.8-57.5-61.1-93c-6.8-18.1-11.7-37-16.4-55.8c-3.6-14.3-6.2-29-8.2-43.6c-3.6-27.1-4.8-54.4-1.6-81.7
	c2.9-24.8,8.5-48.7,17.9-71.8c12.9-31.6,31.7-59.3,55.8-83.4c36.6-36.6,79.4-63.4,128-81.2c33.4-12.2,67.8-19,103.3-20.8
	c32.8-1.7,65.2,0.4,97.5,5.9c28.8,4.8,57,11.5,84.6,21c21.5,7.4,42.7,15.7,63.9,23.7c3.5,1.3,5.5,1,7.9-2.2
	c36.2-48.1,76.9-91.8,125.8-127.4c32.3-23.5,67-42.5,105-55.2c50-16.7,101.2-22.1,153.7-16c32.6,3.8,64.2,11.2,94.1,24.7
	c37.1,16.7,68.4,41.1,94.1,72.7c27.5,33.8,46.8,72,60.5,113.1c4.7,14,9.3,28,13.6,42.2c1.5,5.2,1.6,10.8,2.7,16.2
	c0.5,2.3,1.3,5,2.9,6.4c24.3,21.1,45.7,44.8,65,70.5c1.8,2.5,3.4,2.7,6.2,1.4c30.2-13.1,61.3-23.8,93.4-31.4
	c33-7.8,66.5-12,100.5-10.8c64.2,2.2,121.5,23,171.7,63.3c24,19.2,43.9,41.9,58.3,69.2c12.4,23.5,19.8,48.4,22.7,74.9
	c3.6,32.3,0.2,64-5.7,95.8c-11.5,62.5-44.2,111.6-92.5,151.4c-48.4,39.9-101.2,72.9-156.9,101.3c-40.4,20.6-81.9,38.5-124.5,54.1
	c-39,14.3-78.8,26.2-118.9,36.8c-21.4,5.6-42.7,11.6-64.1,17c-17.7,4.5-35.6,8.4-53.4,12.4c-1.6,0.4-4-0.4-5.3-1.5
	c-47.6-40.7-93-83.6-134.7-130.3c-9.3-10.4-18.2-21.1-27.3-31.6C946.9,819.6,946.4,819.2,945.8,818.9z M778.8,311
	c-1.8,1.8-4.4,3.4-5.3,5.6c-1.1,3-1.9,6.7-1.1,9.7c0.8,3.3,5.4,3,6.9-0.2c1.5-3.1,2.5-6.4,3.9-9.5
	C785.1,312.5,782.9,311.9,778.8,311z M782.9,572.2c-1.3,3.1-3.6,5.8-3,7.6c1.3,3.6,3.8,6.8,6.4,9.7c0.7,0.8,4.4,0.4,5-0.5
	c3.2-5-3-8-3.3-12.5C787.9,575.4,785.5,574.3,782.9,572.2z M781.6,301.5c1.3,1.8,2.2,4.2,3.1,4.2c2-0.1,4.5-0.9,5.9-2.2
	c2-2,3.2-4.8,4.9-7.2c1.9-2.7,0.9-5.2-1.5-6.1c-1.4-0.6-4,0.7-5.5,1.9c-1.6,1.2-2.5,3.3-3.7,5.1
	C783.8,298.3,782.8,299.7,781.6,301.5z M809.5,618.6c-7.2,3.5-7.2,3.5-3.7,9.6c0.9,1.6,1,3.9,2.3,4.8c1.7,1.3,4.1,1.5,6.2,2.2
	c0.5-1.7,2-3.8,1.4-5.1C814.1,626.1,811.7,622.4,809.5,618.6z M769.7,545.2c4.7-5.3,5-10.3,0.7-15.8c-0.8-1-3-1.3-4.4-1
	c-1.1,0.2-2.6,1.5-2.9,2.6C761.8,535.2,765.6,542.9,769.7,545.2z M1128.5,219c-0.4-0.6-0.9-2.1-2-2.8c-2.3-1.4-4.9-2.9-7.5-3.4
	c-1.7-0.3-3.9,0.9-5.5,2c-0.4,0.3,0.4,3.3,1.4,4.2c2.1,2,4.5,3.8,7.1,5.1C1125.1,225.8,1128.3,223.5,1128.5,219z M818.8,639.8
	c-1.1,2.1-2.3,3.3-2.5,4.7c-0.6,4,4.6,11.5,8.6,12.8c2.2,0.7,4.9-1.7,4-3.9c-1.2-3.2-2.5-6.4-4.4-9.2
	C823.5,642.6,821.4,641.7,818.8,639.8z M868.1,212.7c3.9,2.5,6.5,5.3,9.4,5.7c1.9,0.3,4.7-2.4,6.4-4.4c1.2-1.4,1.4-3.7,2-5.6
	c-2.3-0.5-4.9-2-6.9-1.4C875.7,207.9,872.9,210.1,868.1,212.7z M746,390.6c0.3,2.8,0.1,4.3,0.7,5.4c0.6,1.2,1.9,2.6,3,2.7
	c1.1,0.1,3.1-0.8,3.6-1.9c1.5-3.1,2.8-6.4,3.5-9.8c0.2-1.2-1.3-3.5-2.5-4.1c-1.3-0.6-4.1-0.4-4.7,0.6
	C747.8,385.9,746.8,388.9,746,390.6z M827.4,664.8c2.5,3.9,4.4,7.5,6.9,10.8c0.8,1.1,3.7,2,4.5,1.4c1.3-1,2.8-3.6,2.3-4.8
	c-1.4-3.6-3.6-6.9-5.7-10.3c-0.3-0.5-1.8-0.6-2.5-0.3C831.1,662.4,829.5,663.6,827.4,664.8z M1099.4,213.8c2.2-1.9,4.3-3.6,6.4-5.3
	c-1.5-1.5-2.7-3.3-4.5-4.4c-1.8-1.1-4-1.9-6.1-2c-1.6-0.1-3.8,0.8-4.8,2c-0.8,1-0.8,3.9,0,4.5C1093,210.6,1096,211.9,1099.4,213.8z
	 M833.8,248.2c3.5-2.9,7-5.4,10-8.4c0.4-0.4-0.9-3.2-1.9-4.4c-0.7-0.8-2.7-1.6-3.6-1.2c-2.3,1.1-4.8,2.5-6.4,4.4
	c-1.5,1.7-2.2,4.3-2.5,6.6C829.2,245.8,831.7,246.9,833.8,248.2z M1191.5,261.9c-2.2-2.7-4-5.1-6-7.4c-2.6-2.9-5.3-2.1-7.7,0.1
	c-2.8,2.5-0.5,4.6,1.3,6.2c1.5,1.4,3.5,2.4,5.3,3.5c1.4,0.9,3,2.4,4.2,2.2C1189.6,266.2,1190.3,263.9,1191.5,261.9z M945,194.1
	c3.4-1.2,5.9-2.5,8.4-3c3.1-0.6,4.3-2.5,3-4.9c-0.8-1.6-3.3-3.2-5-3.2c-2.3,0-4.8,1.3-6.9,2.6c-1.7,1-2.8,2.9-4.1,4.4
	C942,191.5,943.6,192.9,945,194.1z M897.3,208.2c3.3-1.3,6-1.9,8.1-3.4c1.5-1.2,2.2-3.5,3.2-5.3c-1.9-0.9-3.9-2.7-5.8-2.6
	c-2.3,0.1-4.8,1.3-6.8,2.7c-1.5,1.1-3.6,3.6-3.2,4.7C893.3,206,895.8,207,897.3,208.2z M872.6,730c1.4,1.7,3.7,4.4,5.7,7.4
	c2.1,3.1,3.8,2.5,5.6-0.1c2.6-4-0.7-10.8-6.1-12.8C874,723.1,872.6,724.1,872.6,730z M796.8,598.7c-3.9-0.1-6.4,2.5-4.9,5.3
	c1.3,2.4,2.9,4.8,4.7,6.8c2.9,3.2,6,2.4,7.3-1.7C805.2,605.3,800.7,598.8,796.8,598.7z M760.6,492.4c-1.3-3.2-2.6-5.5-3.1-8
	c-0.6-2.7-1.5-4.3-4.6-3.5c-2.8,0.7-4.3,2.4-3.4,5.4c0.7,2.4,1.3,4.8,2.6,6.9c1.1,1.7,3,2.8,4.6,4.2
	C758,495.7,759.3,494,760.6,492.4z M773.8,340.2c-5-6-7.3-5.8-10.6,0.5c-0.6,1.2-1.6,2.3-1.7,3.6c-0.1,2,0.5,4,0.8,6
	c1.8-0.3,4.2-0.1,5.2-1.2C769.9,346.5,771.8,343.2,773.8,340.2z M1146.5,238.4c6.3-4.6,6.3-4.7,0.8-9.2c-0.5-0.4-1.1-0.8-1.5-1.3
	c-3.2-4.2-7.2-3.5-11.8-2.5c0.6,1.3,0.7,2.4,1.4,3C1139,231.8,1142.7,235,1146.5,238.4z M1000.2,179.9c-1.8,0-3.8-0.5-5.4,0.1
	c-1.5,0.7-3.6,2.5-3.6,3.8c-0.1,3.7,3.2,4.6,5.9,4.2c3.5-0.5,8.8,3.1,10.3-3.1C1008.5,180.5,1007.3,179.8,1000.2,179.9z
	 M914.2,775.3c0.6-4.7-4.8-12.5-8.8-13.3c-2.3-0.4-4.7,2.3-4.3,4.7C902.1,772.5,907.8,776.4,914.2,775.3z M843.3,687
	c1.2,2.9,1.8,5.7,3.4,8c1.3,1.9,3.5,3.3,5.6,4.5c0.4,0.2,2.9-1.7,3-2.6c0.1-2.3-0.5-4.7-1.3-6.9c-0.5-1.3-2.1-2.1-3-3.3
	C847.2,681.8,845.8,681.9,843.3,687z M746.2,456.2c0,3.8,0,7.7,0,11.6c0,2.6,0.4,4.4,3.8,4.4c3.2,0,4.6-1.2,4.4-4.4c-0.1-2,0-4,0-6
	C754.3,456.2,753,455.2,746.2,456.2z M1168.8,250c0.6-0.3,2.7-0.8,3.2-1.9c0.4-0.9-0.7-3-1.7-4c-2.6-2.4-5.5-4.6-8.4-6.7
	c-0.9-0.7-2.9-1.3-3.5-0.8c-1,0.8-1.6,2.4-1.7,3.7C1156.5,243.3,1164.3,250,1168.8,250z M1025.3,182.6c-2,0.1-4.3-0.4-5.8,0.5
	c-1.4,0.8-2.9,3.3-2.6,4.7c0.2,1.2,2.8,2.9,4.3,2.9c3.8,0.1,7.6-0.7,11.4-1.2c0.2,0,0.2-0.9,0.3-1.4
	C1033.6,183.4,1032.7,182.7,1025.3,182.6z M891.8,741.8c-3.1,2.9-6.5,4.5-4.7,8.8c1.6,3.9,7.1,6.7,11.1,5.3c1-0.3,2.2-2.7,1.9-3.1
	C897.6,749,894.8,745.5,891.8,741.8z M1053.2,197.3c1.7-1.5,3.3-2.9,4.9-4.3c-1.5-1.6-2.9-3.5-4.7-4.7c-1.7-1.1-3.8-2-5.8-2.2
	c-1.7-0.2-4.2,0.2-5.1,1.4c-0.7,1-0.2,4.2,0.9,4.9C1046.1,194.4,1049.4,195.5,1053.2,197.3z M743.4,437.9c0,4-0.9,8.6,4.1,8.6
	c4.9,0,4.2-4.6,4.1-8c0-3.4,0.7-8-4.2-8C742.1,430.5,743.8,435.3,743.4,437.9z M854.7,231.7c3-2.1,6-3.7,8.2-6.1
	c1-1.1,0.9-3.8,0.4-5.5c-0.2-0.8-3.2-1.5-4.2-1c-2.6,1.4-5.1,3.3-7.3,5.3c-1,0.9-1.7,2.9-1.4,4.1
	C850.7,229.7,852.6,230.3,854.7,231.7z M813.5,263c0.8,0.8,3.7,3.6,3.9,3.5c3.5-3.2,6.8-6.7,9.9-10.4c0.2-0.2-1.2-2.6-2.2-3
	C821.2,251.7,813.7,257.2,813.5,263z M769.7,554c1.9,4.5,3,7.9,4.8,10.7c0.9,1.4,3,2.3,4.8,2.7c0.8,0.2,2.8-1,3-1.9
	c1-5-1.7-8.8-5.3-11.4C775.5,553.1,772.6,554,769.7,554z M922.7,781c-1.6,1.7-2.3,2.7-3.2,3.3c-3.1,2.2-2.4,4.7-0.5,7.1
	c2.5,3.2,5.6,5.4,9.8,3.4c0.8-0.4,1.6-2.7,1.2-3.4C927.9,787.9,925.3,784.6,922.7,781z M863.1,702.9c-7,3.9-5.9,8.5,3.6,17.2
	c1-1.5,2.4-2.8,2.8-4.3C871.3,709.6,864.4,707.9,863.1,702.9z M810.5,273.5c-7.6-1.6-14.4,3.4-13.8,9.8c0.3,3.3,2.3,4.1,4.7,2.6
	C806,283,808.4,278.4,810.5,273.5z M975.4,188.1c0,0.1,0,0.1,0,0.2c1.5-0.1,3.1,0.1,4.5-0.3c1.5-0.5,2.8-1.5,4.2-2.3
	c-0.7-1.2-1.3-2.5-2.3-3.5c-1.9-2.1-10-3.7-11.9-2c-1.1,1-1.4,3.2-1.3,4.8c0.1,1.1,1.4,2.5,2.4,2.9
	C972.3,188.5,973.9,188.1,975.4,188.1z M924.2,197.4c0.1-0.3,0.3-0.7,0.4-1c1.5,0,3,0.1,4.5,0c4.2-0.4,4.9-1.8,2.9-5.5
	c-2.4-4.7-6-2.3-8.9-1.2c-2.5,1-4.6,2.9-6.9,4.4C918.8,195.2,921.5,196.3,924.2,197.4z M1068.6,191.6c-2.3,4-3,7,1.6,8.5
	c2.8,0.9,5.6,1.7,8.4,2c1.3,0.1,2.8-1,4.2-1.5c-0.8-1.4-1.3-3.3-2.4-4C1076.8,194.7,1072.8,193.3,1068.6,191.6z M757.7,357.7
	c-1.5,4.1-2.8,7.6-3.9,11.2c-0.3,1.1-0.3,3.4,0.2,3.6c1.5,0.7,3.7,1.3,5.1,0.7C764.2,370.8,764.3,361.8,757.7,357.7z M747.5,407.9
	c-1.4,3.8-3.1,7.1-3.6,10.5c-0.3,1.6,1.7,3.6,2.6,5.4c1.6-1.1,3.8-1.8,4.5-3.2c1-2,0.7-4.5,1.3-6.8
	C753.9,408,753.7,407.7,747.5,407.9z M756.5,506.7c0.3,3.6,0.1,6.7,0.9,9.7c0.4,1.4,2.6,3.6,3.5,3.3c1.7-0.5,4.5-2.6,4.3-3.6
	c-0.8-4.2-2.6-8.2-4.3-13C758.7,504.9,757.4,506,756.5,506.7z"/>
</svg>
