<?xml version="1.0" encoding="utf-8"?>
<!-- Generator: Adobe Illustrator 19.2.1, SVG Export Plug-In . SVG Version: 6.00 Build 0)  -->
<svg version="1.1" id="Layer_1" xmlns="http://www.w3.org/2000/svg" xmlns:xlink="http://www.w3.org/1999/xlink" x="0px" y="0px"
	 viewBox="0 0 980 863.9" style="enable-background:new 0 0 980 863.9;" xml:space="preserve">
<g>
	<g transform="translate(0.000000,511.000000) scale(0.100000,-0.100000)">
		<path d="M2534.1,5098.6c-38.4-6.1-159.5-28.3-270.6-50.5C1114.6,4809.9,300.9,3941.6,46.4,2685.7C6,2483.8,0,2397,0,1991.1
			c2-405.9,6.1-490.7,46.4-674.4C220.1,519.1,595.7-147.2,1249.9-819.6c541.1-557.3,1205.4-1066.1,2263.5-1732.5
			c569.4-359.4,858.1-559.3,1116.6-777.3c147.4-123.2,266.5-212,266.5-197.9c0,12.1,6.1,18.2,12.1,10.1
			c6-6.1,113.1,74.7,238.3,179.7c252.4,216.1,472.5,369.5,1173.1,815.8c1058.1,674.3,1599.2,1084.2,2132.3,1615.3
			c579.5,577.5,959.1,1159,1163,1776.9c149.4,452.3,197.9,787.5,181.7,1251.9c-58.6,1591.1-1019.7,2748.1-2461.4,2960.1
			c-428.1,62.6-983.3,16.1-1385.2-115.1c-177.7-56.5-468.4-197.9-619.9-298.8l-121.2-80.8l-360.8-1641.9
			c0,0,1921.2,425.9,1925.7,422.4c4.4-3.5-326.2-1123.4-322-1124.9c4.4-3.5,1517.9-0.3,1517.9-0.3l-847.3-1844l420.2,1614.9
			l-1567.4-300c0,0,140.1,1173.4,137.9,1175.2l-1539.8-318.8c0,0,289.9,1745,326.2,1902.5c14.1,62.6-726.4,377-1043.4,486
			c-298.8,103-494.7,133.3-888.4,141.3C2768.3,5104.7,2572.4,5102.6,2534.1,5098.6z"/>
	</g>
</g>
</svg>
