<?xml version="1.0" encoding="utf-8"?>
<!-- Generator: Adobe Illustrator 19.2.1, SVG Export Plug-In . SVG Version: 6.00 Build 0)  -->
<svg version="1.1" id="Layer_1" xmlns="http://www.w3.org/2000/svg" xmlns:xlink="http://www.w3.org/1999/xlink" x="0px" y="0px"
	 viewBox="0 0 980 896.5" style="enable-background:new 0 0 980 896.5;" xml:space="preserve">
<g>
	<g transform="translate(0.000000,511.000000) scale(0.100000,-0.100000)">
		<path d="M6611.5,5098.7c-580.7-67.5-1179.4-337.6-1609.3-729.3l-132.8-119.3l-135,121.5c-369.1,330.8-841.8,564.9-1361.7,675.2
			c-267.8,56.3-837.3,54-1102.9-2.3c-868.8-186.8-1582.3-729.2-1969.4-1499C111.3,3169.8,23.5,2821,3.2,2386.6
			c-31.5-673,168.8-1307.8,587.5-1872.7c105.8-141.8,4254-4355.2,4301.2-4368.7c11.3-2.3,981.4,954.3,2151.7,2127
			C8900.5,133.5,9190.9,432.9,9310.2,613c227.3,344.4,362.4,666.2,447.9,1064.6c56.3,267.8,56.3,859.8-2.3,1125.4
			c-252.1,1161.4-1143.4,2043.7-2289,2262C7244,5105.5,6827.6,5123.5,6611.5,5098.7z"/>
	</g>
</g>
</svg>
