<?xml version="1.0" encoding="utf-8"?>
<!-- Generator: Adobe Illustrator 19.2.1, SVG Export Plug-In . SVG Version: 6.00 Build 0)  -->
<svg version="1.1" id="Layer_1" xmlns="http://www.w3.org/2000/svg" xmlns:xlink="http://www.w3.org/1999/xlink" x="0px" y="0px"
	 viewBox="0 0 1727.8 1727.5" style="enable-background:new 0 0 1727.8 1727.5;" xml:space="preserve">
<g>
	<path d="M736.3,1120.9c121.2-121.2,242.5-242.5,363.7-363.7c124.6-124.6,249.3-249.3,373.9-373.9c19.7-19.7,39.4-39.5,59.2-59.3
		c1.4-1.5,3.9-2.7,1.7-5.2c-6.7-7.7-13.3-15.5-20.1-23.2c-2.3-2.6-4.3-2.3-7,0.4c-18.6,18.9-37.4,37.6-56.2,56.3
		c-79.2,79.2-158.5,158.5-237.7,237.7c-72.7,72.7-145.4,145.3-218,218C932.4,871.4,869,934.9,805.6,998.3
		c-72.6,72.6-145.1,145.1-217.7,217.6c-55.7,55.7-111.4,111.3-167.1,167c-41.5,41.5-82.9,83.1-124.4,124.5c-2,2-3.3,3.4-1.2,6.2
		c6.6,8.8,15.5,14.9,24.3,21.1c0.4,0.3,0.9,0.5,1.7,0.9c1-0.9,2.1-1.8,3.1-2.8c10.6-10.5,21.2-21.1,31.8-31.7
		C482.8,1374.5,609.6,1247.7,736.3,1120.9z"/>
	<path d="M538.5,1113.3c72.6-72.5,145.2-145.1,217.7-217.6c71.4-71.4,142.7-142.8,214.1-214.2c72.6-72.5,145.2-145.1,217.7-217.6
		c55.8-55.8,111.6-111.6,167.4-167.4c25.3-25.3,50.6-50.7,75.9-76c1-1,2-2.1,3.2-3.4c-0.7-1-1.2-1.9-1.8-2.5
		c-6.9-6.5-13.8-13-20.6-19.5c-3.6-3.5-6.1-2.8-9.7,0.8c-128.7,128.9-257.4,257.6-386.2,386.4C894.8,703.6,773.4,824.9,652.1,946.3
		c-131.6,131.6-263.1,263.2-394.7,394.8c-20.9,20.9-41.8,41.8-62.6,62.8c-1,1.1-2,3.9-1.3,4.7c6.1,7.6,12.5,14.9,18.8,22.3
		c3.2,3.8,5.8,3.2,9.3-0.3c34.2-34.5,68.5-68.8,102.9-103.2C395.7,1256.1,467.1,1184.7,538.5,1113.3z"/>
	<path d="M545.8,1514c70.5-70.6,140.9-141.2,211.5-211.7c84.5-84.5,169.1-168.8,253.5-253.3c107.4-107.4,214.8-215,322.2-322.4
		c93.5-93.5,187.1-186.9,280.6-280.3c3.2-3.2,4.5-5.7,0.9-9.5c-1.8-1.9-2.6-4.6-3.9-6.9c-3.9-7-7.9-14.1-11.5-20.4
		c-396.8,396.8-793,793-1189.2,1189.2c1.1,0.8,2.9,2.1,4.7,3.1c7.5,4.2,15.4,8,22.5,12.7c3.9,2.6,6,2.3,9.2-0.9
		C479.5,1580.3,512.7,1547.2,545.8,1514z"/>
	<path d="M1313.4,125.7c-7.5-4.2-15.4-8-22.5-12.7c-3.9-2.6-6-2.3-9.2,0.9c-52.2,52.4-104.4,104.6-156.7,156.9
		C1062.5,333.4,1000,396,937.4,458.5c-65.5,65.5-131,131-196.5,196.5c-61.5,61.5-123,123-184.5,184.5
		c-60.6,60.6-121.1,121.2-181.7,181.7c-57.5,57.5-115.1,115-172.6,172.5c-29.6,29.6-59.2,59.4-88.9,88.9c-2.2,2.2-2.4,3.7-0.8,6.3
		c2.9,4.6,5.3,9.5,8.1,14.3c3,5.2,6.1,10.3,9,15.2C526.2,921.8,922.2,525.7,1318.7,129.3C1317,128.1,1315.3,126.8,1313.4,125.7z"/>
	<path d="M774.2,1147.8c69.6-69.6,139.2-139.2,208.8-208.8c66.5-66.6,133.1-133.1,199.6-199.7c66.4-66.4,132.9-132.9,199.3-199.3
		c59.4-59.4,118.8-118.8,178.3-178.1c3.2-3.2,4.3-5.3,0.2-8.6c-2.6-2.2-4.6-5.2-6.7-8c-4-5.1-8-10.3-11.9-15.4
		c-404,404-807.6,807.6-1211.5,1211.5c6.7,5.2,13.4,10.2,19.8,15.4c8.4,6.8,8.3,6.9,16.1-1c72.6-72.7,145.2-145.3,217.9-218
		C647.4,1274.5,710.8,1211.1,774.2,1147.8z"/>
	<path d="M1373.8,166.6c-2.7-2.4-4.1-2.6-6.8,0.1c-25.6,25.8-51.3,51.3-77,77c-72.6,72.6-145.3,145.3-217.9,217.9
		c-63.5,63.5-127,127-190.5,190.5c-64.4,64.4-128.9,128.9-193.3,193.3c-63.4,63.4-126.8,126.7-190.2,190.1
		c-69.6,69.6-139.2,139.2-208.7,208.9c-40.8,40.8-81.5,81.6-122.4,122.3c-2.4,2.4-2.8,3.9-0.3,6.4c2.9,2.9,5.5,6.2,8.1,9.4
		c4,5,7.8,10.1,11.6,15C590.4,993.6,994,590,1397.7,186.2C1389.6,179.6,1381.5,173.3,1373.8,166.6z"/>
	<path d="M1332.3,138c-3.1-2.4-5.2-1.9-7.9,0.9c-69.1,69.4-138.3,138.7-207.4,208C1057,407.1,997,467.3,937,527.4
		c-63.3,63.4-126.6,126.7-189.8,190.1c-58.5,58.6-116.9,117.4-175.4,176c-55.4,55.5-110.9,111-166.3,166.5
		c-58.5,58.7-117,117.3-175.6,176c-30.2,30.3-60.4,60.6-90.7,90.8c-2.5,2.5-3.2,4.3-0.7,7.4c3.3,4.1,5.7,8.9,8.6,13.3
		c2.4,3.7,5,7.3,7.9,11.4C556.5,958.4,957.5,558.4,1358.8,158C1349.7,151.2,1340.9,144.7,1332.3,138z"/>
	<path d="M620,1645.1c184-184,368-368,552-552c140.4-140.5,280.9-280.9,421.3-421.4c28.4-28.4,56.7-56.8,85.2-85
		c3-3,3.5-5.1,1.4-8.9c-2.6-4.6-4-9.8-6.1-14.6c-2.4-5.6-4.9-11.1-7.3-16.5C1293.1,920,920.4,1292.7,547.3,1665.8
		c1.1,0.7,2.1,1.6,3.3,2.1c9.1,4,18.4,7.7,27.3,12c4.1,2,6.4,1.1,9.4-1.9C598,1666.9,609,1656.1,620,1645.1z"/>
	<path d="M1177.5,59.7c-9.1-3.9-18.5-7.4-27.4-11.8c-4-2-6.2-1.5-9.3,1.6C954,236.6,767,423.5,580.1,610.4
		c-150.8,150.8-301.6,301.6-452.4,452.5c-26.1,26.1-52.2,52.3-78.5,78.4c-2.6,2.6-3.4,4.5-1.5,8.1c2.8,5.4,4.5,11.4,6.9,17
		c2.2,5,4.8,9.7,7.1,14.4c373.3-373.3,746-746,1119.1-1119.1C1179.8,61,1178.7,60.2,1177.5,59.7z"/>
	<path d="M1181,809.4c55.2-55.3,110.4-110.6,165.5-165.9c53.7-53.8,107.4-107.7,161.2-161.6c27-27.1,54.1-54.2,81.2-81.3
		c2.5-2.5,3.2-4.3,0.7-7.4c-3.3-4.1-5.7-8.9-8.6-13.3c-2.4-3.7-5-7.3-7.5-10.8c-401.5,401.5-802.6,802.6-1204,1204
		c1.9,1.5,3.8,3.4,6,4.7c6.5,3.9,13.3,7.4,19.7,11.6c3.6,2.4,5.8,2,8.8-1.1c165.2-165.7,330.4-331.3,495.7-496.9
		C993.6,997.4,1087.3,903.4,1181,809.4z"/>
	<path d="M1095.7,1097.6c101.7-101.4,203.3-202.7,305-304.1c59.7-59.6,119.5-119.2,179.2-178.8c26.7-26.7,53.4-53.4,80.2-80
		c2.4-2.3,2.4-4,0.7-6.3c-0.8-1.1-1.4-2.3-1.9-3.5c-4.1-9.4-8.1-18.9-11.7-27.2C1264,880.8,880.9,1263.9,497.6,1647.2
		c8.9,3.3,18.8,6.8,28.5,10.6c4.2,1.7,7.2,1.2,10.5-2.2c78.4-78.4,156.8-156.7,235.3-235C879.8,1312.9,987.7,1205.3,1095.7,1097.6z"
		/>
	<path d="M1003.2,1124.1c121.6-121.6,243.2-243.2,364.7-364.8c87.5-87.5,175.1-175,262.6-262.5c9.9-9.9,10.2-10,4.5-22.8
		c-3.1-7-7.2-13.6-10.8-20.3C1233.9,844,844.3,1233.6,453.6,1624.3c9.7,4.7,19.2,9.1,28.4,13.8c3.8,1.9,6.2,1.1,9.1-1.8
		c44.2-44.4,88.5-88.7,132.8-133C750.3,1376.9,876.8,1250.5,1003.2,1124.1z"/>
	<path d="M1270.2,101.7c-8.4-4-16.9-7.6-25.1-11.9c-3.6-1.9-5.5-1.1-8,1.4c-36.2,36.4-72.5,72.7-108.8,109
		C1001.8,326.6,875.4,453,749,579.3c-121.5,121.5-243,242.9-364.4,364.4C289,1039.3,193.4,1135,97.7,1230.6
		c-10.1,10.1-10.4,10.2-4.5,23.2c3.1,6.9,7.1,13.3,10.6,19.7C494,883.3,883.6,493.7,1273.5,103.8
		C1272.6,103.3,1271.5,102.3,1270.2,101.7z"/>
	<path d="M494.8,1223c90.3-89.9,180.5-179.8,270.8-269.7c122.9-122.4,245.9-244.8,368.8-367.2c52.5-52.3,105-104.6,157.5-156.9
		c58.6-58.3,117.2-116.6,175.9-174.8c3.1-3,3.4-5.4,0.4-8.3c-6-5.7-12.3-11.2-18-17.1c-3.1-3.2-4.9-2.8-7.9,0.2
		c-83.2,83.3-166.4,166.6-249.7,249.8c-78.7,78.7-157.4,157.3-236,236c-81.4,81.4-162.7,162.8-244.1,244.1
		c-81.6,81.6-163.2,163.2-244.8,244.8c-73.7,73.6-147.3,147.2-221,220.8c-6.9,6.9-13.7,13.9-20.6,20.8c7.6,7.5,14.7,14.6,22.3,22.1
		c1.1-1,2.3-1.9,3.3-3c8.5-8.4,16.9-16.9,25.4-25.3C349.7,1367.4,422.3,1295.2,494.8,1223z"/>
	<path d="M800.7,985.8c59.7-59.4,119.2-118.9,178.8-178.3c85.4-85.1,170.9-170.1,256.4-255.1c74.7-74.3,149.4-148.6,224-223
		c14-13.9,27.9-27.8,41.9-41.7c1.8-1.7,4.1-3.4,1.4-6.2c-7.6-7.5-15.2-15.1-21.9-21.7c-407.4,407.4-814,814-1221.1,1221.1
		c5.8,5.7,12.1,11.8,18.4,17.9c0.9,0.9,1.9,1.7,3.2,2.9c1.3-1.2,2.6-2.2,3.7-3.4c28.5-28.3,56.9-56.7,85.4-85
		C514.2,1270.8,657.5,1128.3,800.7,985.8z"/>
	<path d="M952.6,1379.9c51.5-51.5,103-103,154.5-154.5c55.6-55.6,111.2-111.2,166.8-166.8c54.4-54.4,108.8-108.9,163.3-163.3
		c50.6-50.6,101.2-101.1,151.8-151.7c35.8-35.8,71.6-71.7,107.3-107.6c1.2-1.2,2.4-3.6,2-5c-3.7-12.3-7.8-24.5-11.5-36
		C1322.9,959,959.6,1322.3,596.3,1685.6c11.8,3.1,24.4,6.6,37.1,9.7c1.6,0.4,4.3-0.6,5.5-1.8c52.1-51.9,104.1-103.9,156-155.8
		C847.5,1485.1,900,1432.5,952.6,1379.9z"/>
	<path d="M1222.4,77.7c-7.2-3.3-14.8-6-21.7-9.9c-3.9-2.3-5.9-1.8-8.8,1.1c-51.4,51.5-102.8,103-154.2,154.4
		c-59.5,59.5-119.1,119-178.6,178.5c-60.5,60.5-120.9,120.9-181.3,181.4C617.2,643.7,556.6,704.3,496,764.8
		c-64.4,64.4-128.8,128.9-193.3,193.4c-56.5,56.5-113,112.9-169.4,169.4c-21.7,21.7-43.3,43.4-65,65c-1.8,1.8-2.7,3.1-1.4,5.9
		c3.2,6.5,5.9,13.3,8.5,20.1c1.5,3.9,2.5,8.1,3.5,11.3c383.1-383.1,766-766,1149-1149C1226.6,80.1,1224.6,78.7,1222.4,77.7z"/>
	<path d="M1098,32.6c-1.8-0.5-4.7,0.2-5.9,1.4c-31.2,30.9-62.2,62-93.2,93C947.4,178.5,896,230,844.6,281.4
		C784,342,723.4,402.5,662.9,463.1c-59.4,59.4-118.8,118.8-178.2,178.2C424.1,701.9,363.5,762.4,302.9,823
		c-51.4,51.4-102.8,102.9-154.2,154.3c-38.1,38.1-76.2,76.1-114.2,114.3c-1.2,1.2-2.2,3.8-1.8,5.4c3.1,11.8,6.6,23.6,9.8,34.4
		c363-363,726.2-726.2,1089.3-1089.3C1121,39.1,1109.6,35.6,1098,32.6z"/>
	<path d="M1075.7,27c-9.9-2.7-20-5-29.8-8.1c-5.3-1.7-8.7-0.8-12.7,3.2c-61.1,61.4-122.4,122.5-183.6,183.8
		C607.8,447.7,366,689.6,124.2,931.4c-34.4,34.4-68.8,68.8-103,103.2c-1.5,1.5-3.2,4.4-2.8,6.2c2.7,12.6,5.8,25.1,9,38.1
		C378,729.2,728.9,379.2,1080.1,28.8C1078.1,28,1077,27.4,1075.7,27z"/>
	<path d="M940.2,1457c90.3-90.3,180.7-180.7,271.1-271c101.6-101.6,203.2-203.3,304.8-304.9c63.8-63.8,127.5-127.6,191.4-191.4
		c2.6-2.6,2.7-4.7,1.7-8c-2-6.5-3.5-13.1-5.4-19.7c-1.3-4.7-2.9-9.4-4.4-14.2C1349,998.4,998.9,1348.5,647.8,1699.6
		c11.7,2.5,22.8,4.9,34,7.3c5.8,1.2,9.8-1,14-5.2C777.1,1620.1,858.7,1538.5,940.2,1457z"/>
	<path d="M1050.2,1414.5c60.6-60.6,121.2-121.2,181.8-181.7c59.4-59.4,118.8-118.8,178.2-178.2c55.7-55.7,111.4-111.3,167-166.9
		c46.3-46.3,92.5-92.6,138.9-138.8c2.4-2.4,3.4-4.7,2.9-7.9c-2-12.9-4.1-25.8-6.1-37.9c-336.6,336.6-673.3,673.3-1010.1,1010.1
		c0.2,0.1,1,0.6,1.7,0.7c12,1.7,24.1,3.2,36.1,4.9c4,0.6,6.7-1.2,9.5-4c40.4-40.6,81-81.2,121.5-121.7
		C931.1,1533.5,990.7,1474,1050.2,1414.5z"/>
	<path d="M993,9.4c-5.7-1-10.6-1.1-15.7,4C921.2,70,864.7,126.2,808.4,182.6c-59.5,59.5-119,119-178.6,178.5
		c-63.4,63.4-126.7,126.8-190.1,190.2c-70.5,70.5-141.1,141-211.6,211.5C159.6,831.3,91.3,899.7,22.8,968.2
		C7.9,983,7.8,983,10.6,1003.8c1,7.3,2.5,14.6,3.8,22C351.8,688.5,688.5,351.8,1024.9,15.4C1014.5,13.4,1003.8,11.2,993,9.4z"/>
	<path d="M926,2.9c-4.1-0.4-6.8,1.1-9.6,3.9C803.1,120.3,689.7,233.7,576.3,347.1C445.7,477.7,315.1,608.2,184.6,738.8
		C125.5,797.9,66.4,857,7.2,916.1c-3,3-4.3,6-3.9,10.1c1.3,13.2,2.3,26.5,3.4,38.3c319.2-319.2,639.1-639,958.3-958.3
		C952.8,5.2,939.4,4.2,926,2.9z"/>
	<path d="M1651.4,883.7c24.1-24.1,48.3-48.2,72.3-72.5c1.6-1.6,3-4.5,2.9-6.7c-0.2-7.6-1.1-15.2-1.9-22.8c-0.6-6-1.6-12-2.5-18.2
		c-319.6,319.6-638.6,638.6-958,958c1.1,0.1,1.9,0.2,2.7,0.3c12.2,1.5,24.4,2.7,36.6,4.7c4.1,0.7,6.2-1,8.6-3.4
		c89.2-89.3,178.5-178.5,267.7-267.8C1270.3,1264.7,1460.9,1074.2,1651.4,883.7z"/>
	<path d="M901.3,0.3c-1.6-0.1-3.2-0.2-4.8-0.2c-12.8,0-25.7,0.1-38.5-0.1c-3.7-0.1-6.3,1.2-8.8,3.7c-7.4,7.6-14.8,15.1-22.3,22.6
		c-62.5,62.5-125.1,124.9-187.6,187.4c-65.5,65.5-131,131.2-196.5,196.7c-65.4,65.4-130.9,130.7-196.4,196.1
		C169.6,683.4,92.7,760.2,15.8,837.1c-5,5-11.8,9.4-14.3,15.5c-2.6,6.3-1,14.4-1,21.7c-0.1,8.2,0,16.3,0,24.5c0,1.6,0,3.2,0,4.9
		c0.5,0.3,1,0.6,1.6,0.9c300.1-301,600.1-602,900.2-903C901.9,1.2,901.6,0.7,901.3,0.3z"/>
	<path d="M1010.7,1592c67.5-67.6,135-135.2,202.5-202.7c71.8-71.9,143.7-143.8,215.6-215.6c98.5-98.4,196.9-196.8,295.4-295.1
		c2.5-2.5,3.7-5.1,3.6-8.8c-0.2-13.8-0.1-27.7-0.1-41.5c0-1.6-0.2-3.1-0.3-4.7c-0.4-0.2-0.8-0.4-1.3-0.6
		c-300.1,301-600.2,602-900.2,903c0.2,0.4,0.4,0.8,0.6,1.2c1.4,0.1,2.9,0.2,4.3,0.2c13.2,0,26.3,0.2,39.5-0.1
		c2.8-0.1,6.3-1.4,8.2-3.4C922.7,1680,966.7,1636,1010.7,1592z"/>
	<path d="M900.6,1727.2c13.1-0.8,26.2-1.9,39.4-2.5c4-0.2,6.8-1.3,9.6-4.1c59.3-59.4,118.6-118.7,178-178.1
		c159.2-159.2,318.4-318.4,477.6-477.6c38.5-38.5,77-77,115.6-115.4c3.1-3.1,4.3-6.2,4.3-10.5c0-7.1,0.7-14.3,1.2-21.4
		c0.5-7.9,1.1-15.8,1.5-22.9c-277.6,277.6-555.2,555.2-832.6,832.6C896.4,1727.2,898.5,1727.4,900.6,1727.2z"/>
	<path d="M826.5,0.4c-12.8,0.8-25.6,1.9-38.4,2.4c-4,0.2-6.8,1.3-9.6,4.1c-27.4,27.5-54.8,54.9-82.2,82.4
		c-190.5,190.5-381.1,381-571.6,571.6C85.7,699.9,46.6,739,7.4,778c-2.9,2.9-4.4,5.7-4.4,10c0,7.3-0.7,14.6-1.2,21.9
		c-0.5,7.9-1.1,15.8-1.6,23.4c277.8-277.8,555.4-555.4,833-833C831.4,0.4,829,0.2,826.5,0.4z"/>
	<path d="M966.1,1720.8c16.3-1.9,31-3.4,45.6-5.4c5.9-0.8,12-1.1,16.9-6.1c26-26.4,52.3-52.6,78.5-78.8
		c49.6-49.6,99.3-99.2,148.9-148.8c54.4-54.4,108.8-108.9,163.2-163.3c49.6-49.6,99.3-99.2,148.9-148.8
		c47.3-47.3,94.6-94.5,141.7-141.9c2.3-2.3,4-5.8,4.5-9c1.9-11.3,3.1-22.7,4.6-34.1c0.9-6.8,1.6-13.6,2.5-20.4
		c-0.3-0.2-0.6-0.4-0.9-0.6C1469.3,1215.7,1218.1,1467.8,966.1,1720.8z"/>
	<path d="M762,6.7c-16.4,1.9-31.5,3.5-46.4,5.6c-5.7,0.8-11.5,1.4-16.3,6.2c-73.2,73.6-146.5,147-219.9,220.4
		C392.7,325.5,306,412,219.4,498.6C152.5,565.4,85.7,632.2,19,699.2c-2.6,2.6-4.7,6.6-5.2,10.2c-2.7,17.9-4.8,35.9-7.1,53.8
		c0.3,0.2,0.7,0.4,1,0.6C258.9,511.7,510.1,259.6,762,6.7z"/>
	<path d="M1054.5,1706.3c18.2-4.6,36.4-9.2,54.5-14.2c3.3-0.9,6.8-2.9,9.2-5.3c117.6-117.4,235.1-234.9,352.5-352.4
		c72.2-72.2,144.3-144.3,216.5-216.5c1.9-1.9,4-4.3,4.7-6.8c4-13.5,7.8-27.1,11.3-40.8c1.8-7,2.9-14.1,4.3-21.3
		c-219.6,219.6-438.8,438.7-657.9,657.9C1051,1706.7,1052.8,1706.7,1054.5,1706.3z"/>
	<path d="M674.2,21.1c-18.2,4.6-36.4,9.1-54.5,14.1c-3.6,1-7.4,3.2-10,5.9C492.1,158.5,374.6,276,257.1,393.5
		C184.9,465.6,112.8,537.8,40.7,610c-1.8,1.8-3.7,4.1-4.4,6.5c-3.6,12.1-7.1,24.2-10.2,36.4c-2.2,8.4-3.7,17-5.5,25.9
		C240.2,459.1,459.4,239.9,678.6,20.8C677.4,20.9,675.7,20.7,674.2,21.1z"/>
	<path d="M583.6,46.6c-21.1,5.5-41.5,13-61,22.7c-7.6,3.8-15.7,7.7-21.8,13.5c-24.9,24-49.2,48.6-73.6,73.1
		c-51.5,51.5-102.9,103-154.4,154.5c-59.4,59.4-118.9,118.9-178.3,178.3c-5.8,5.8-12.8,11.3-16.4,18.4C70.2,522.5,64,538.8,57.5,555
		c-4,9.9-7.1,20.2-10.6,30.2C226.5,405.6,406.1,226.1,585.8,46.4C585.2,46.4,584.3,46.4,583.6,46.6z"/>
	<path d="M1140.6,1681.3c2.3-0.2,3-0.1,3.6-0.3c21.3-5.5,41.8-13.1,61.5-22.8c7.4-3.6,15.4-7.1,21.1-12.7
		c32.9-32.1,65.2-64.9,97.7-97.4c51.6-51.6,103.2-103.2,154.8-154.8c50.6-50.5,101.2-101,151.6-151.6c8.1-8.1,17.9-15,22.3-26.3
		c8-20,15.9-40,23.9-60.1c1.2-3,2.3-6,3.4-9c-0.4-0.3-0.9-0.5-1.3-0.8C1500,1323.7,1320.8,1502,1140.6,1681.3z"/>
	<path d="M1264.3,1628c34.5-20.8,69.2-41.3,103.3-62.7c13.3-8.3,26.5-17.5,37.6-28.4c32.8-32.1,64.6-65.3,96.7-98.1
		c15.5-15.9,31.6-31.4,45.9-48.4c29.1-34.4,53.1-72.5,74.5-112.1c3.4-6.4,6.7-12.8,10.2-19.7c-123.8,123.8-247,247-370.1,370
		C1262.9,1628.5,1263.7,1628.4,1264.3,1628z"/>
	<path d="M464.3,99.2c-35.6,19.6-70.7,40.1-104.3,63.1c-12.8,8.8-26.1,17.5-37.2,28.2c-28.5,27.7-55.9,56.6-83.8,85.1
		c-17.8,18.1-36.5,35.5-53.1,54.6c-31.8,36.6-58.1,77.1-80.3,120.2c-2.8,5.4-5.2,10.9-7.7,16.3C220.7,343.9,343.3,221.4,466,98.7
		C465.3,98.9,464.7,99,464.3,99.2z"/>
</g>
</svg>
