<?xml version="1.0" encoding="utf-8"?>
<!-- Generator: Adobe Illustrator 19.2.1, SVG Export Plug-In . SVG Version: 6.00 Build 0)  -->
<svg version="1.1" id="Layer_1" xmlns="http://www.w3.org/2000/svg" xmlns:xlink="http://www.w3.org/1999/xlink" x="0px" y="0px"
	 viewBox="0 0 1727.5 1532.6" style="enable-background:new 0 0 1727.5 1532.6;" xml:space="preserve">
<g>
	<path d="M897.7,297.7c6.7-5.6,13.2-11.1,19.9-16.5c31.1-25.1,64.4-46.7,99.9-65.1c22.7-11.8,47.3-18.4,72.1-23.8
		c19.5-4.3,39.2-7.7,58.8-10.9c27.9-4.6,56.1-5.3,84.2-1.9c23.8,2.9,47.6,6,71.1,10.3c15.5,2.8,30.7,7.4,45.7,12.4
		c65.8,22,124.6,56.7,178.1,100.4c54.5,44.5,99.1,97.6,134.7,158.4c16.7,28.5,30.7,58,40.8,89.5c9.2,28.9,17.1,58.1,21.3,88.1
		c4.3,31,4.4,62,1,93.2c-3.4,30.7-9.3,60.8-18.9,90.1c-10.6,32.2-26,62.1-45.7,89.7c-18.5,26-38.5,50.7-63,71.4
		c-44.1,37.1-90.9,70.1-143.8,93.6c-37,16.4-74.2,32.5-111.6,47.9c-30.8,12.7-62.1,24.4-93.4,35.9c-16.8,6.1-34.3,10.4-51.3,16
		c-10.7,3.5-21,8.2-31.7,11.8c-12.9,4.3-26,7.8-39,11.8c-17,5.2-34,10.4-50.9,15.8c-21,6.7-42.4,12.6-62.9,20.7
		c-24.1,9.4-47.7,20.2-70.9,31.5c-18.9,9.2-37.5,19.3-55.4,30.4c-36.4,22.6-67.4,51.4-95,84.2c-13.5,16-28.4,30.8-39.3,48.7
		c-14.3,23.5-27.9,47.5-41.5,71.4c-5.4,9.5-10.1,19.3-15.8,30.1c-2.8-6.5-5.1-12.2-7.7-17.8c-11.4-24.1-22.3-48.5-34.5-72.3
		c-12-23.4-24.3-46.8-38.4-69.1c-44.3-70-97.7-132.2-161.8-185.1c-24.9-20.6-49.5-41.6-74.5-62.2c-22.4-18.4-45.6-36-67.7-54.7
		c-42.1-35.7-84.9-70.8-123-110.9c-26-27.3-50.1-56.3-70.4-88.2c-17.4-27.4-34.3-55.3-49.1-84.1c-11.6-22.5-19.8-46.7-29.1-70.3
		c-5-12.8-10.2-25.7-13.4-39.1c-6.3-26.7-11.8-53.6-16.8-80.5c-7-37.8-8.9-76.1-8.3-114.5c0.4-30.8,3-61.5,8.1-92
		c6.4-39,18.6-76,34.6-112c12-27,25-53.5,41.6-78c24.9-36.9,55.3-68.8,89.8-96.8c35.7-29.1,74.2-53.7,117.1-70.9
		c16.4-6.6,33.7-11.1,50.9-15.6c16.5-4.4,33.3-8.4,50.1-11c21-3.3,42.2-5.9,63.5-7.1c32-1.8,64,0.9,95.6,6.1
		c34.5,5.6,68.8,12.7,100.8,27.2c22.5,10.1,44.8,21,65.7,34.1c41.6,26.2,77.5,58.8,107,98.5c18.6,25.2,35.7,51.2,49.4,79.3
		C882.2,262.7,889.6,279.9,897.7,297.7z"/>
</g>
</svg>
