<?xml version="1.0" encoding="utf-8"?>
<!-- Generator: Adobe Illustrator 19.2.1, SVG Export Plug-In . SVG Version: 6.00 Build 0)  -->
<svg version="1.1" id="Layer_1" xmlns="http://www.w3.org/2000/svg" xmlns:xlink="http://www.w3.org/1999/xlink" x="0px" y="0px"
	 viewBox="0 0 1682 1488.2" style="enable-background:new 0 0 1682 1488.2;" xml:space="preserve">
<path d="M165.8,163.4C164,84.2,254.2,14.6,337.1,64c5-7.2,9.6-14.7,15-21.5c14-17.4,31.5-30.2,52.9-37.3c12.6-4.2,25.7-5.6,38.9-5.1
	c25.2,1.1,48.2,8.6,67.2,25.3c7.9,6.9,14.2,15.7,20.7,24c2.2,2.8,3.5,3.6,6.7,1.7C564.9,36.1,593,33,622,40.1
	c41.7,10.1,67.5,37.5,80.5,77.6c1.7,5.3,2.5,11,3.9,17.5c6.3-0.7,12.7-1.3,19.1-2.1c20.7-2.6,40.5,1.3,59.2,10.1
	c20.6,9.6,37.5,23.8,49,43.7c2.5,4.4,4.6,9,7.6,14.7c11.1-27.4,30.1-45.9,55.3-58c25.2-12.2,51.7-13.6,78.5-9.6
	c3.2-9.9,5.8-20.3,9.9-30c10.3-24.5,28.4-42.3,51.5-54.7c26.2-14.1,54-15.9,82.3-8.6c8.6,2.2,16.6,6.7,24.7,10.5
	c2.9,1.4,4.6,1.8,6.5-1.4c15.3-25.3,38-40.5,66.5-46.8c53.2-11.9,100.2,11.9,125.8,57.6c0.7,1.3,1.6,2.4,2.4,3.7
	c38.3-21,77.2-23.6,115.1-1.4c37.4,22,55.4,56.4,56.6,99.9c6.1,0.6,12.2,0.8,18.2,1.9c45.5,8.1,74.5,35.5,88.8,78.3
	c8.6,25.7,7.6,51.8-4.4,76.8c-1.2,2.6-1.1,4.1,1.7,5.6c24.3,13.2,42.3,32.4,53.3,57.8c6.6,15.2,8.6,31.3,7.8,47.8
	c-1.3,26.9-12,49.7-30,69.2c5,7.7,10.2,15.2,14.8,23c30.3,51.5,15.1,114.1-33.6,148.7c-4.1,3-3.4,5.3-2.2,9c3.6,11,7.6,22,10,33.3
	c3.1,14.4,2.7,29.2-0.5,43.7c-7.4,33-25.9,58.1-54.8,75.5c-4,2.4-8.2,4.3-12.5,6.1c-2.6,1.1-3.1,2.5-2.4,5
	c7.2,26.2,6.8,52.2-3.5,77.4c-14,34.2-38.4,57.3-75,66.1c-2.4,0.6-4.9,0.7-7.4,1.1c-2.3,0.3-4.6,0.7-7.2,1.1c0,2.2-0.7,4.6,0.1,6.3
	c4.3,8.8,1.9,17.8,0.5,26.5c-6.1,37.9-27.6,65.1-60.6,83.7c-14.8,8.3-30.9,12-47.8,12.5c-4,0.1-5.3,1.4-5.6,5.4
	c-3.8,48.5-30.1,80.6-73.5,99.8c-14.5,6.4-30.2,7.9-46,7.2c-5-0.2-6.9,0.9-7.9,6.5c-5.6,30.7-22.5,54.1-48.4,71.2
	c-25,16.5-52.8,19.8-81.8,17.8c-3.1-0.2-7-2.2-9-0.9c-2,1.3-2.1,5.6-3,8.6c-11.1,34.8-33.9,58.9-67.4,72.6
	c-21.1,8.6-43.1,9.5-65.2,4.6c-10.7-2.3-10.6-2.7-15.1,7.3c-14.1,30.9-37.3,52.2-69.2,63.3c-20.8,7.2-42.3,7.3-63.5,1.5
	c-36.3-9.8-61.3-32.9-76.7-66.9c-0.5-1.2-0.8-2.5-1.4-3.7c-0.5-1.2-1.2-2.3-1.9-3.9c-13.8,5.1-28.1,5.3-42.4,4.9
	c-40.4-1.2-81.9-30.3-96.6-68c-2.3-5.9-3.9-12-6.1-17.9c-0.4-1.2-2.5-2.7-3.6-2.5c-15.8,2.7-31.6,2.4-47.2-0.5
	c-30.7-5.6-55.1-21.6-73.2-46.9c-9.1-12.8-14.6-27.2-16.8-42.7c-0.6-4-2.7-4.4-5.8-4.3c-15.3,0.5-30.3-0.8-44.7-6.4
	c-28.3-11.1-49.7-30.1-63.5-57.3c-6.8-13.6-9.9-28.2-10.3-43.3c-0.1-4.2-1.6-5.3-5.5-5.3c-31.2-0.4-57.5-12-78.8-34.8
	c-20.3-21.7-30.4-47.6-31.2-77.1c-0.2-5.3-0.1-10.7-0.2-16c0-0.3-0.3-0.6-0.4-0.9c-83.8-6.8-114.1-101.9-89.7-149.2
	c-3.1-1.4-6.3-2.6-9.4-4c-30.6-13.9-50.8-37.3-61.1-69.1c-7.2-22.3-6.9-44.9-0.1-67.3c2.2-7.1,4.9-14.1,7.4-21.2
	c1.1-3.1,0.7-5-2.4-7.3C17,645.7,2.7,609.9,6.5,566.4c2-23.2,10.3-43.9,24.6-62.1c2.6-3.3,1.3-5.2-0.8-7.5
	c-14-15.4-24.3-32.9-28.4-53.4c-2.9-14.9-2.5-29.9,1.2-44.6c8.5-33.1,28.9-56.9,58.3-73.4c2.4-1.4,3-2.7,1.9-5.2
	c-24.7-51.4-1.4-115.7,49-143.9c14.3-8,29.8-12.1,46.2-12.9C160.8,163.3,163.1,163.4,165.8,163.4z M841.4,342.4
	c-1-0.7-1.4-0.9-1.6-1.1c-3.2-4.5-6.3-8.9-9.5-13.4c-32.9-46.4-71.3-87.8-114.9-124.5c-46.9-39.4-98-71.5-156.1-91.9
	c-29-10.2-58.8-17.2-89.4-19.7c-49.6-4.1-98.7-1.5-146.6,14.2c-33,10.8-63.4,26.2-91,47.1c-31.5,23.8-57.5,52.9-79.7,85.5
	c-18.8,27.7-34.2,57.2-46.3,88.4c-11,28.4-19.2,57.6-24.9,87.6c-5,26.4-8.9,52.8-9.2,79.7c-0.5,44.5,4.3,88.4,11.6,132.2
	c5,30.5,10.6,61,19.6,90.6c12.9,42.7,30.8,83.3,52,122.6c19.3,35.7,41.2,69.6,64.3,102.9c40.2,58,86,111.2,136.7,160.2
	c39.7,38.3,81.9,73.6,126.1,106.6c37.6,28.1,76.1,55.1,116.3,79.3c39.7,23.8,79.7,47.1,120.1,69.6c38.7,21.5,78.3,41.5,119.5,58.2
	c1.4,0.6,3.4,0.8,4.7,0.2c12.4-5.2,25-10,37-16c33.6-17,67.2-34.1,100.4-51.9c52.5-28.2,103.2-59.4,152.6-92.8
	c70.5-47.7,136.9-100.6,198-159.9c49.5-48.1,95.4-99.4,134.8-156.1c41.9-60.3,78-123.8,102.7-193.3c6.2-17.3,12-34.9,16.1-52.9
	c6.2-27.6,11.3-55.4,15.6-83.3c3.7-24,6.7-48.2,8.3-72.4c2.3-35.9,1.5-71.8-5.1-107.5c-5.5-29.3-12.3-58.2-22.1-86.3
	c-12.6-35.7-29.1-69.4-50-101c-32.5-49.3-72.9-90.1-125.7-117.7c-17.3-9-35.1-16.9-54-21.5c-17.7-4.4-35.9-6.8-53.9-9.9
	c-36-6.2-72.1-4.9-108,0.7c-26.7,4.2-52.6,11.4-77.8,21.1c-41.1,15.8-79.3,37.1-114.7,63.3c-57.7,42.8-107.2,93.6-148.3,152.5
	C846.5,335.2,844,338.6,841.4,342.4z"/>
<path d="M840.8,362.1c5.4-7.7,10.1-14.9,15.2-21.8c39.4-52.9,83.7-101.2,135.2-142.7c38.6-31.1,80.9-55.6,127.5-72.6
	c53.8-19.6,109.2-27,166.4-22.3c24.1,2,47.1,7.6,70,14.8c34.3,10.7,65.8,26.5,94.2,48.5c28.8,22.3,52.5,49.1,72.9,79.2
	c16.4,24.3,30.1,50.1,40.8,77.3c9.8,24.8,17.3,50.2,22.5,76.4c8.4,42.5,12.9,85.4,11.2,128.6c-1.2,28.6-4.2,57.1-8.4,85.4
	c-4.3,28.7-9.8,57.4-16.8,85.6c-11.3,45.3-29.8,88-51.4,129.3c-26.1,50.1-56.2,97.8-90.6,142.6c-41.8,54.4-88.7,104-139.6,149.9
	c-41.4,37.4-85.2,71.9-130.7,104.1c-38.2,27.1-77.2,52.9-117.8,76.1c-38.9,22.2-78.2,43.7-117.7,64.8
	c-25.9,13.8-52.5,26.3-78.9,39.1c-1.9,0.9-5,1-6.9,0c-60-29.4-120.1-58.8-177.8-92.5c-57.6-33.7-113.6-69.8-167.1-109.7
	c-60.8-45.3-117.9-94.8-170-149.9C268.4,995,221.3,932.5,181.9,864.1c-19.4-33.7-36.8-68.4-51.2-104.6
	c-11.7-29.4-21.4-59.5-27.3-90.5c-5.8-31-11.1-62.3-14.8-93.6c-4.2-35.6-5.6-71.4-1.1-107.2c2.7-21.3,4.4-42.7,8.1-63.8
	c7.8-44.2,22.4-86.1,43.9-125.5c27.5-50.2,62.9-93.5,111-125.6c25.8-17.2,53.8-29.7,83.6-37.7c15.7-4.2,31.4-8.8,47.4-11.1
	c27.4-3.8,55.1-4.1,82.8-1.8c22,1.8,43.6,5.5,64.8,11.1c66.6,17.6,124.4,51.5,176.4,96c47.4,40.6,88.2,87.2,125.5,137
	c1.8,2.4,3.1,5.1,4.7,7.6C837.3,356.8,838.9,359.1,840.8,362.1z"/>
</svg>
